<?xml version="1.0" standalone="no"?>
<!DOCTYPE svg PUBLIC "-//W3C//DTD SVG 1.1//EN" "http://www.w3.org/Graphics/SVG/1.1/DTD/svg11.dtd" >
<svg xmlns="http://www.w3.org/2000/svg" xmlns:xlink="http://www.w3.org/1999/xlink" version="1.1">
<metadata></metadata>
<defs>
<font id="atkinson_hyperlegibleitalic" horiz-adv-x="658" >
<font-face units-per-em="1000" ascent="800" descent="-200" />
<missing-glyph horiz-adv-x="294" />
<glyph horiz-adv-x="0" />
<glyph unicode="&#xd;" horiz-adv-x="0" />
<glyph unicode=" "  horiz-adv-x="294" />
<glyph unicode="&#x09;" horiz-adv-x="294" />
<glyph unicode="&#xa0;" horiz-adv-x="294" />
<glyph unicode="!" horiz-adv-x="298" d="M85 122q27 5 50.5 -12t27.5 -44q5 -27 -12 -50t-44 -28q-14 -2 -27 1.5t-23.5 10.5t-17.5 18.5t-10 25.5q-2 14 1.5 27t10.5 23.5t18.5 18t25.5 9.5v0zM100 205l47 315l39 181h95l-37 -181l-88 -315h-56z" />
<glyph unicode="&#x22;" horiz-adv-x="350" d="M100 701h84l-15 -232h-55zM332 701l-15 -232h-55l-14 232h84z" />
<glyph unicode="#" horiz-adv-x="665" d="M49 266h131l24 170h-130l11 85h130l25 180h87l-26 -180h129l26 180h86l-25 -180h129l-12 -85h-130l-23 -170h129l-12 -85h-130l-25 -181h-86l25 181h-129l-25 -181h-86l26 181h-130zM266 266h129l23 170h-129z" />
<glyph unicode="$" horiz-adv-x="640" d="M135 188q13 -38 41 -62t61 -36l53 245q-36 10 -71.5 24t-63 35.5t-45 53.5t-17.5 80q0 53 25 91t64.5 62.5t89 34.5t100.5 5l13 67h55l-16 -75q56 -13 101 -43.5t67 -78.5l-96 -27q-13 24 -36 40.5t-54 24.5l-47 -222q39 -11 77.5 -25t69.5 -35t49.5 -53.5t18.5 -79.5 q0 -56 -26.5 -99.5t-69.5 -71t-97 -40t-109 -7.5l-17 -80h-54l18 88q-60 15 -108.5 54t-70.5 103l95 27v0zM290 79q33 -3 65.5 3t58.5 22t41.5 40t15.5 57q0 26 -10.5 44.5t-27.5 32t-40.5 23.5t-51.5 18l-51 -240v0zM309 423l45 215q-28 2 -56.5 -3t-50.5 -17t-37 -32 t-17 -48q-1 -25 7.5 -42.5t24 -30.5t37.5 -23t47 -19v0z" />
<glyph unicode="%" horiz-adv-x="1050" d="M87 524q4 40 23 74t47.5 60.5t65 41t75.5 14.5q40 0 73 -14.5t57 -41t35 -60.5t6 -74q-4 -40 -23 -74.5t-47 -61t-64.5 -41t-76.5 -14.5t-73 14.5t-56.5 41t-34.5 61t-7 74.5v0zM600 178q4 40 23 74.5t47 60.5t65 41t76 15t72.5 -15t57 -41t34.5 -60.5t7 -74.5 q-4 -39 -23 -74t-47.5 -61t-64.5 -41t-76 -15t-73 15t-57 41t-35 61t-6 74v0zM779 65q23 0 44.5 9t38 24t27.5 36t14 44q3 24 -4 44.5t-20.5 35.5t-33 24t-43.5 9q-23 0 -44.5 -9t-39 -24t-28.5 -35.5t-13 -44.5q-2 -23 5 -44t20.5 -36t33.5 -24t43 -9v0zM267 411 q23 0 44.5 8.5t37.5 24t27 36.5t15 44q3 23 -4 43.5t-20.5 35.5t-33 24t-43.5 9q-23 0 -44.5 -9t-39 -24t-28.5 -35.5t-13 -43.5t4.5 -44t20.5 -36.5t34 -24t43 -8.5v0zM243 0l491 701h92l-491 -701h-92z" />
<glyph unicode="&#x26;" horiz-adv-x="725" d="M16 184q2 40 20.5 74.5t47.5 63.5t67.5 51t81.5 35q-23 37 -35 79t-4 83q14 69 65.5 106t130.5 37q38 0 71.5 -10t57.5 -29t36 -46.5t8 -64.5q-4 -36 -21.5 -64t-44.5 -50t-60 -38.5t-68 -30.5l110 -147q23 27 43.5 65t32.5 80h92q-17 -57 -49 -111.5t-70 -101.5 l122 -165h-118l-67 90q-55 -47 -115 -75t-136 -28q-51 0 -90 16t-63.5 42.5t-35.5 62.5t-9 76v0zM223 69q55 0 102 22t95 61l-144 198q-68 -22 -115 -60.5t-54 -95.5q-4 -30 3.5 -53.5t23 -39.5t38 -24t51.5 -8v0zM328 437q27 9 52 20.5t45.5 27t34.5 33.5t16 38 q2 16 -2.5 32t-15.5 27.5t-29 18t-46 5.5q-38 -2 -63.5 -19t-33.5 -53q-5 -22 0 -43.5t13 -39t16.5 -30t12.5 -17.5v0z" />
<glyph unicode="'" horiz-adv-x="202" d="M100 701h84l-15 -232h-55z" />
<glyph unicode="(" horiz-adv-x="318" d="M273 701h83q-76 -93 -133 -192t-84.5 -207.5t-19.5 -225.5t62 -246h-81q-51 115 -63.5 229t11 224.5t80.5 215.5t145 202v0z" />
<glyph unicode=")" horiz-adv-x="318" d="M-56 -170q77 93 134 192.5t84.5 207.5t19.5 225t-61 246h81q50 -114 62 -228.5t-11 -224.5t-79.5 -215t-144.5 -203h-85v0z" />
<glyph unicode="*" horiz-adv-x="462" d="M208 539l-97 55l31 52l96 -56l23 110l59 -12l-23 -110l110 11l8 -59l-112 -12l46 -102l-55 -24l-46 102l-83 -75l-40 45z" />
<glyph unicode="+" horiz-adv-x="649" d="M44 218v84h218v219h84v-219h219v-84h-219v-218h-84v218h-218z" />
<glyph unicode="," horiz-adv-x="219" d="M34 -8q-24 8 -36.5 29t-7.5 46q5 27 28 43.5t50 11.5q18 -3 30.5 -13.5t19.5 -25.5t6.5 -31.5t-11.5 -32.5l-94 -159h-64l79 132v0z" />
<glyph unicode="-" horiz-adv-x="387" d="M40 303h306l-18 -85h-307z" />
<glyph unicode="." horiz-adv-x="218" d="M-1 55q0 28 20 48t47 20q28 0 48 -20t20 -48t-20 -48t-48 -20q-27 0 -47 20t-20 48v0z" />
<glyph unicode="/" horiz-adv-x="389" d="M370 701h91l-422 -701h-91z" />
<glyph unicode="0" horiz-adv-x="686" d="M76 351q22 176 103.5 269.5t217.5 93.5t195.5 -93.5t37.5 -269.5q-22 -177 -104 -270.5t-218 -93.5t-195 93.5t-37 270.5v0zM317 66q65 0 111 37l-206 425q-38 -67 -51 -177q-6 -54 -4.5 -105.5t17.5 -91.5t48 -64t85 -24v0zM284 603l204 -422q34 69 46 170q6 44 6 94 t-14.5 92.5t-47 70t-91.5 27.5t-103 -32v0z" />
<glyph unicode="1" horiz-adv-x="423" d="M106 600q56 0 96 7t67.5 20t45.5 32t28 42h61l-149 -701h-89l112 528h-187l15 72v0z" />
<glyph unicode="2" horiz-adv-x="593" d="M-19 0l17 80q213 120 334 218t142 190q8 37 1 65.5t-24 48t-41.5 29t-51.5 9.5q-24 0 -49 -5.5t-48.5 -19t-43.5 -36.5t-34 -56l-82 25q74 166 260 166q49 0 92 -13.5t72.5 -42t43 -71.5t1.5 -103q-11 -58 -51 -111.5t-99 -104t-132 -97t-150 -90.5h365l-17 -81h-505v0z " />
<glyph unicode="3" horiz-adv-x="609" d="M34 166l90 24q8 -58 45.5 -93.5t104.5 -35.5q33 0 62 9.5t52 27.5t36 43t13 55q0 50 -21.5 76.5t-53 40t-69 16t-68.5 2.5l17 79q40 0 80 3t72 15t52.5 35t21.5 63q1 28 -9.5 49.5t-28.5 36t-43 21.5t-53 7q-64 0 -101.5 -32t-55.5 -85l-81 26q22 74 84.5 119.5 t158.5 45.5q40 0 80.5 -9t73 -28.5t52.5 -51.5t20 -79q0 -71 -39.5 -116t-102.5 -66q61 -21 84 -62.5t23 -93.5q0 -42 -15.5 -81.5t-48 -70.5t-81 -50t-113.5 -19q-54 0 -95 14t-70.5 37.5t-48 56.5t-24.5 71v0z" />
<glyph unicode="4" horiz-adv-x="667" d="M36 256l449 445h91l-94 -445h130l-18 -83h-130l-37 -173h-91l38 173h-356zM133 256h258l69 324z" />
<glyph unicode="5" horiz-adv-x="603" d="M26 162l87 24q17 -63 53.5 -92t87.5 -31q77 -2 123.5 43.5t51.5 124.5q6 82 -30.5 122t-99.5 43q-56 3 -94.5 -20t-56.5 -56l-82 25l119 356h404l-19 -85h-330l-66 -196q57 52 142 52q43 0 84 -16t71 -47.5t45 -77.5t8 -107q-7 -65 -34 -111t-65 -75t-83.5 -41t-91.5 -10 q-98 6 -152 54t-72 121v0z" />
<glyph unicode="6" horiz-adv-x="635" d="M70 327q10 75 33.5 145t63 123.5t95 86t129.5 32.5q78 0 125 -32.5t65 -79.5l-93 -27q-11 31 -37.5 48t-69.5 17q-81 0 -134.5 -70t-74.5 -191q26 39 72 63.5t109 24.5q49 0 89 -17t67.5 -48.5t41 -75.5t9.5 -96q-4 -49 -22.5 -93.5t-52 -77.5t-81.5 -52.5t-109 -19.5 q-67 0 -114 24.5t-74.5 68.5t-36.5 106.5t0 140.5v0zM298 61q35 0 64.5 12t51.5 34t35 52.5t16 66.5q5 72 -32 117t-107 45t-114.5 -40.5t-51.5 -109.5q-5 -35 3.5 -67.5t27 -57t46 -38.5t61.5 -14v0z" />
<glyph unicode="7" horiz-adv-x="563" d="M467 616h-385l19 85h494l-17 -85l-432 -616h-113z" />
<glyph unicode="8" horiz-adv-x="647" d="M41 197q7 70 47.5 116.5t101.5 69.5q-25 27 -37 63t-8 77q4 40 22.5 74.5t47 60.5t65 41t75.5 15q40 0 72.5 -15t55.5 -41t34.5 -60.5t7.5 -74.5q-4 -41 -24 -77t-51 -63q57 -23 87.5 -69.5t22.5 -116.5q-6 -50 -29.5 -89t-61 -65.5t-86.5 -41t-104 -14.5 q-54 0 -100.5 14.5t-79 41t-48 65.5t-10.5 89v0zM288 66q74 0 122.5 34.5t54.5 96.5q6 63 -34.5 99.5t-116.5 36.5q-75 0 -123 -36.5t-55 -99.5q-6 -62 35 -96.5t117 -34.5v0zM322 411q23 0 44.5 8.5t39 24t28.5 36t13 43.5q2 24 -4.5 44.5t-20.5 35t-33 23.5t-44 9 q-23 0 -44 -9t-37.5 -23.5t-27.5 -35t-13 -44.5q-3 -23 3.5 -43.5t20 -36t33 -24t42.5 -8.5v0z" />
<glyph unicode="9" horiz-adv-x="631" d="M138 582q18 32 45.5 57t59 41.5t66 25t68.5 8.5q62 0 110 -26q38 -20 66.5 -56.5t41 -81t5 -96t-41.5 -102.5q-16 -23 -36 -50.5t-42 -57t-45.5 -59t-46.5 -56.5q-52 -63 -108 -129h-121l193 222q-57 -7 -101.5 5.5t-76.5 38.5t-51 62.5t-24.5 78.5t4 87.5t35.5 87.5v0z M328 302q33 0 63 12.5t54 34.5t41 52.5t23 66.5q4 27 -2 55t-23.5 51t-47 38t-72.5 14q-32 -1 -62 -13t-53.5 -33t-39.5 -51t-20 -67q-3 -34 5.5 -62.5t27 -50t46 -34.5t60.5 -13v0z" />
<glyph unicode=":" horiz-adv-x="219" d="M142 529q28 0 48 -20t20 -47q0 -28 -20 -48t-48 -20t-47.5 20t-19.5 48q0 27 19.5 47t47.5 20v0zM-12 55q0 28 20 48t48 20t48 -20t20 -48t-20 -48t-48 -20t-48 20t-20 48v0z" />
<glyph unicode=";" horiz-adv-x="219" d="M34 -8q-24 8 -36.5 29t-7.5 46q5 27 28 43.5t50 11.5q18 -3 30.5 -13.5t19.5 -25.5t6.5 -31.5t-11.5 -32.5l-94 -159h-64l79 132v0zM143 529q28 0 48 -20t20 -47q0 -28 -20 -48t-48 -20q-27 0 -47 20t-20 48q0 27 20 47t47 20v0z" />
<glyph unicode="&#x3c;" horiz-adv-x="643" d="M40 224v73l497 224v-95l-387 -166l387 -166v-94z" />
<glyph unicode="=" horiz-adv-x="690" d="M66 405h521v-83h-521v83zM587 210v-83h-521v83h521z" />
<glyph unicode="&#x3e;" horiz-adv-x="643" d="M584 297v-73l-497 -224v94l387 166l-387 166v95z" />
<glyph unicode="?" horiz-adv-x="553" d="M93 550q31 84 98.5 123.5t157.5 39.5q36 0 74.5 -9t68.5 -30t46 -55.5t10 -85.5q-4 -30 -19 -54.5t-37 -44.5t-48 -36.5t-53 -28.5q-30 -15 -50.5 -30.5t-33.5 -31.5t-20 -34t-11 -38l-8 -35h-90l8 38q9 44 26 75.5t39.5 55t50 40.5t57.5 33q33 17 60.5 39.5t34.5 57.5 q3 23 -4 42t-22 32t-36 19.5t-47 6.5q-65 0 -108.5 -28.5t-62.5 -85.5l-81 25v0zM134 81q9 20 26 31t37 11q13 0 27 -5q26 -12 37 -37t-1 -52q-8 -20 -25.5 -31t-37.5 -11q-12 0 -26 6q-26 10 -37 36t0 52v0z" />
<glyph unicode="@" horiz-adv-x="826" d="M70 351q0 75 28.5 141.5t78 115.5t115.5 77.5t142 28.5q60 0 121.5 -21.5t112 -63.5t83 -103.5t32.5 -141.5q0 -60 -16.5 -102t-43.5 -68.5t-60 -38.5t-66 -12q-44 0 -77.5 20t-40.5 53q-27 -36 -63.5 -54.5t-71.5 -18.5q-28 0 -52 11t-41 33t-23 54t3 74q13 60 38 100.5 t58 64.5t72 34.5t78 10.5q32 0 63.5 -6t59.5 -15q-11 -53 -20 -98q-5 -20 -9 -40t-8 -37.5t-7.5 -32.5t-5.5 -24q-7 -31 10.5 -46.5t44.5 -15.5q28 0 57.5 19t43.5 59q22 65 8 126.5t-52.5 109t-98 77t-129.5 29.5q-61 0 -115.5 -23.5t-95 -64t-64.5 -95t-24 -116.5 q0 -66 25.5 -121.5t67 -94.5t95.5 -61.5t112 -22.5q74 0 141 38v-72q-66 -30 -139 -30q-71 0 -136.5 26.5t-117 74t-82.5 114.5t-31 149v0zM365 239q16 0 33.5 7.5t33 22.5t27.5 36.5t19 50.5q8 40 13 61.5t7 31.5q3 13 3 15q-11 2 -22 3t-23 1q-20 0 -41.5 -5t-40.5 -21 t-35 -43t-25 -71q-10 -44 7 -66.5t44 -22.5v0z" />
<glyph unicode="A" d="M357 701h122l114 -701h-108l-22 153h-317l-87 -153h-114zM193 237h259l-52 365z" />
<glyph unicode="B" horiz-adv-x="661" d="M164 701h263q65 0 109 -18.5t67.5 -48.5t29 -67.5t-6.5 -74t-40 -69t-72 -53.5q40 -16 61.5 -49t25 -74.5t-12.5 -85t-51 -79.5t-90.5 -59t-131.5 -23h-300l149 701v0zM133 83h190q48 0 83 18t56.5 44.5t27.5 57.5t-5 58t-40.5 44.5t-79.5 17.5h-180l-52 -240v0zM382 401 q44 0 75 16.5t49 40t21.5 52t-7 52t-35.5 39.5t-65 16h-173l-45 -216h180v0z" />
<glyph unicode="C" horiz-adv-x="699" d="M63 353q14 77 46.5 143.5t81 114.5t113 75.5t139.5 27.5q93 0 157 -39t89 -121l-94 -31q-17 53 -60 80t-102 27q-51 0 -94.5 -19.5t-78.5 -55.5t-60 -87t-36 -115q-11 -61 -3 -112.5t31.5 -89.5t62 -59.5t87.5 -21.5q70 0 116.5 26.5t84.5 83.5l83 -33q-51 -80 -126 -120 t-168 -40q-88 0 -145.5 33.5t-88.5 86.5t-38.5 118t3.5 128v0z" />
<glyph unicode="D" horiz-adv-x="709" d="M15 0l149 701h193q84 0 148 -19t105 -63t55 -113.5t-2 -170.5q-14 -85 -53.5 -147.5t-98 -104.5t-135.5 -62.5t-167 -20.5h-194v0zM133 83h91q64 0 120.5 13.5t100.5 44t74.5 80t43.5 120.5q16 89 2.5 143.5t-46 83.5t-80.5 39t-103 10h-89l-114 -534v0z" />
<glyph unicode="E" horiz-adv-x="597" d="M164 701h478l-18 -85h-377l-45 -213h278l-19 -84h-277l-51 -234h377l-18 -85h-477z" />
<glyph unicode="F" horiz-adv-x="577" d="M164 701h458l-19 -85h-356l-45 -213h356l-18 -84h-356l-68 -319h-101z" />
<glyph unicode="G" horiz-adv-x="748" d="M63 353q12 75 43.5 141t80 114.5t113 77t140.5 28.5q99 0 162 -40t87 -120l-94 -31q-5 20 -17.5 39.5t-32.5 34t-48 24t-64 9.5q-49 0 -93 -19t-79.5 -54.5t-61 -87t-35.5 -116.5q-11 -65 -2 -117t32.5 -88.5t59.5 -56t80 -21.5q40 -1 76.5 7.5t68 30t55.5 58t36 89.5 l5 22h-205l17 84h302l-78 -361h-59l-6 86q-88 -99 -230 -99q-70 0 -122.5 27.5t-85 76.5t-45 116t-0.5 146v0z" />
<glyph unicode="H" horiz-adv-x="728" d="M164 701h101l-63 -298h367l63 298h101l-149 -701h-101l67 319h-366l-68 -319h-101z" />
<glyph unicode="I" horiz-adv-x="434" d="M21 79h98l115 544h-98l17 78h295l-15 -78h-99l-115 -544h97l-17 -79h-295z" />
<glyph unicode="J" horiz-adv-x="534" d="M-7 200l94 25q-13 -75 10 -116t87 -41q25 0 48 7t43 24.5t35.5 47t25.5 77.5l102 477h101l-102 -478q-18 -85 -50 -133t-69 -70.5t-75.5 -27.5t-71.5 -5q-39 0 -73.5 12.5t-59.5 38.5t-38.5 66t-6.5 96v0z" />
<glyph unicode="K" horiz-adv-x="654" d="M15 0l149 701h101l-73 -339l375 339h137l-335 -297l210 -404h-111l-173 340l-132 -120l-47 -220h-101z" />
<glyph unicode="L" horiz-adv-x="568" d="M164 701h101l-132 -616h377l-18 -85h-477z" />
<glyph unicode="M" horiz-adv-x="865" d="M164 701h164l65 -569l306 569h170l-149 -701h-100l124 587l-324 -587h-100l-75 604l-129 -604h-101z" />
<glyph unicode="N" horiz-adv-x="727" d="M164 701h144l195 -602l128 602h101l-149 -701h-144l-194 605l-129 -605h-101z" />
<glyph unicode="O" horiz-adv-x="764" d="M63 352q12 78 44 145t81 114.5t116.5 75t150.5 27.5q73 0 128 -29t90 -78t47.5 -115t-0.5 -140q-10 -68 -39 -134t-77.5 -117t-116.5 -82.5t-159 -31.5q-73 0 -128 28.5t-89 78t-47 115.5t-1 143v0zM341 70q54 0 99.5 19.5t82 56t61.5 88.5t36 118q11 67 1 119t-35 87 t-63 53.5t-82 18.5q-60 0 -106.5 -21.5t-81.5 -59t-57.5 -88t-31.5 -109.5q-12 -68 -2.5 -121t35 -88.5t63 -54t81.5 -18.5v0z" />
<glyph unicode="P" horiz-adv-x="632" d="M15 0l149 701h195q47 0 98 -6t91.5 -27t64 -62t17.5 -109q-5 -55 -26 -96t-60.5 -68t-99.5 -41t-143 -14h-127l-58 -278h-101v0zM193 363h134q84 0 135.5 25.5t62.5 91.5q6 42 -2.5 68.5t-29.5 42t-52 21t-72 5.5h-122l-54 -254v0z" />
<glyph unicode="Q" horiz-adv-x="786" d="M67 369q12 78 44 145t81.5 115t116.5 75t150 27q73 0 128.5 -29t89.5 -78.5t46.5 -115t0.5 -139.5q-10 -66 -35.5 -127.5t-70.5 -112.5l104 -122l-73 -65l-105 123q-42 -28 -94.5 -44t-117.5 -16q-73 0 -128 28.5t-89 77.5t-46.5 115.5t-1.5 142.5v0zM345 88q80 0 143 42 l-143 168l75 63l139 -161q24 33 40 75.5t25 93.5q11 67 1 119t-35 87.5t-63 54t-82 18.5q-60 0 -106.5 -21.5t-81 -59.5t-57.5 -89t-32 -109q-12 -69 -2.5 -121.5t35 -87.5t63 -53.5t81.5 -18.5v0z" />
<glyph unicode="R" horiz-adv-x="640" d="M15 0l149 701h214q62 0 112 -10t83 -33.5t48 -62.5t8 -96q-3 -32 -16 -64.5t-41 -59.5t-72 -46.5t-110 -26.5l154 -302h-110l-150 295h-106l-62 -295h-101v0zM196 378h131q41 0 75.5 4.5t60.5 17.5t43 36t21 61q5 36 -4.5 59.5t-30 37t-51.5 18.5t-71 5h-123l-51 -239v0z " />
<glyph unicode="S" horiz-adv-x="639" d="M38 154l95 27q10 -29 28.5 -50t42 -34t50 -20t54.5 -7q30 0 59 8t51.5 24t36 39t13.5 52q0 44 -27.5 68t-69.5 39.5t-91 28.5t-91 34.5t-70 58t-28 98.5q0 48 21 84t56.5 61t80 37t91.5 12q39 0 77 -8.5t71 -24.5t59 -41t42 -57l-97 -28q-9 19 -26 33.5t-38 24t-44.5 14 t-47.5 4.5q-26 0 -52 -6.5t-46 -19t-32.5 -31.5t-14.5 -44q-2 -32 13 -53t41.5 -36t60.5 -26t70.5 -22t71.5 -24.5t62.5 -35t44 -52t16.5 -74.5q0 -53 -23 -94t-61.5 -68.5t-87 -42.5t-100.5 -15q-42 0 -82.5 10t-75.5 30.5t-62 52t-41 74.5v0z" />
<glyph unicode="T" horiz-adv-x="585" d="M94 701h565l-17 -85h-234l-129 -616h-102l131 616h-231z" />
<glyph unicode="U" horiz-adv-x="727" d="M78 294l87 407h101l-89 -415q-23 -112 5 -163t124 -51q47 0 84.5 10t67 35t50 66t34.5 103l89 415h101l-87 -407q-22 -105 -60 -166.5t-84.5 -92.5t-98.5 -39.5t-102 -8.5q-146 0 -201.5 73t-20.5 234v0z" />
<glyph unicode="V" horiz-adv-x="621" d="M94 701h104l66 -585l315 585h116l-391 -701h-117z" />
<glyph unicode="W" horiz-adv-x="886" d="M94 701h106l12 -567l246 567h118l6 -578l262 578h116l-326 -701h-127l-11 579l-258 -579h-116z" />
<glyph unicode="X" horiz-adv-x="655" d="M288 369l-166 332h107l127 -257l238 257h132l-324 -348l178 -353h-109l-138 277l-256 -277h-132z" />
<glyph unicode="Y" horiz-adv-x="627" d="M94 701h101l109 -353l278 353h119l-360 -449l-53 -252h-102l54 252z" />
<glyph unicode="Z" horiz-adv-x="643" d="M-1 85l526 531h-391l18 85h520l-18 -85l-525 -531h421l-19 -85h-550z" />
<glyph unicode="[" horiz-adv-x="332" d="M164 701h217l-16 -78h-130l-152 -714h131l-17 -78h-218z" />
<glyph unicode="\" horiz-adv-x="544" d="M100 701h91l273 -701h-91z" />
<glyph unicode="]" horiz-adv-x="332" d="M-49 -91h131l152 714h-131l16 78h217l-184 -870h-218z" />
<glyph unicode="^" horiz-adv-x="579" d="M49 327l195 374h79l195 -374h-94l-140 270l-141 -270h-94z" />
<glyph unicode="_" horiz-adv-x="433" d="M-34 0h395v-83h-395v83z" />
<glyph unicode="`" horiz-adv-x="285" d="M156 735q11 7 25 7q8 0 17 -3.5t14 -11.5q6 -9 19.5 -30t26.5 -43q16 -25 34 -54h-72q-15 15 -29 31q-13 13 -25 26.5t-18 21.5q-9 14 -6.5 31t14.5 25v0z" />
<glyph unicode="a" horiz-adv-x="546" d="M387 323q16 67 -5 101t-84 34q-48 0 -81.5 -21.5t-51.5 -59.5l-79 24q27 60 79.5 94t128.5 34q109 0 157.5 -52t25.5 -160l-25 -120q-14 -66 -19 -113t-6 -84h-83l-4 66q-34 -40 -75.5 -59.5t-103.5 -19.5q-34 0 -62.5 9.5t-49.5 27.5t-33 42.5t-12 56.5q0 44 20 75 t52.5 52t74 34t84 21t83 11.5t69.5 6.5v0zM189 60q71 0 121.5 47t65.5 128l3 18q-61 -6 -110.5 -12.5t-84.5 -18t-55.5 -29.5t-24.5 -47q-6 -44 19.5 -65t65.5 -21v0z" />
<glyph unicode="b" horiz-adv-x="584" d="M158 701h90l-54 -249q36 46 75 61.5t72 15.5q56 0 93 -19.5t60 -50.5t32.5 -70.5t9.5 -80.5q0 -57 -16.5 -113.5t-48.5 -103t-80 -75.5t-111 -29q-60 0 -98.5 26.5t-62.5 72.5l-43 -86h-68l150 701v0zM271 63q45 0 77 23.5t52.5 60t30.5 79t10 80.5q0 65 -28.5 106.5 t-89.5 41.5q-43 0 -76 -22t-55.5 -56t-34 -75.5t-11.5 -78.5q0 -31 7.5 -60t23 -51t39 -35t55.5 -13v0z" />
<glyph unicode="c" horiz-adv-x="517" d="M30 260q10 58 33 107.5t59.5 85t83.5 56t105 20.5q71 0 119.5 -30t74.5 -86l-87 -31q-11 32 -41.5 51t-69.5 19q-42 0 -73.5 -17t-53.5 -44t-35 -61t-19 -69q-6 -38 -4 -74t16 -62.5t41.5 -43t71.5 -16.5q43 0 74.5 18.5t55.5 49.5l75 -29q-36 -59 -95.5 -88t-129.5 -29 q-56 0 -98 19.5t-67.5 56t-35 87t-0.5 110.5v0z" />
<glyph unicode="d" horiz-adv-x="581" d="M32 259q8 63 30.5 113t55.5 85t75.5 53.5t91.5 18.5q63 0 104 -32t56 -79l60 283h90q-23 -108 -44 -204q-8 -41 -17 -84t-17.5 -83t-15.5 -74t-13 -59q-5 -27 -14 -77.5t-10 -119.5h-85l-5 64q-28 -34 -64.5 -55.5t-94.5 -21.5q-50 0 -88 21t-61.5 57.5t-32.5 86.5 t-1 107v0zM237 63q42 0 74 18.5t54 47.5t35 63.5t16 66.5q8 89 -23 142t-99 53q-36 0 -64 -16t-48.5 -42t-34.5 -61.5t-20 -75.5q-7 -49 -1.5 -86t22 -61.5t40 -36.5t49.5 -12v0z" />
<glyph unicode="e" horiz-adv-x="568" d="M32 260q9 66 34 115.5t63 84t87.5 52t106.5 17.5q63 0 108 -24t70 -64.5t31 -93.5t-8 -111h-403q-5 -49 5 -82t30.5 -52.5t47.5 -28t55 -8.5q44 0 75.5 13.5t53.5 38.5l82 -26q-36 -47 -91 -75.5t-130 -28.5q-58 0 -102.5 19.5t-73 55.5t-39.5 86t-2 112v0zM441 308 q3 25 -2.5 51t-21 47t-41.5 34.5t-65 13.5q-30 0 -58 -9.5t-52.5 -28.5t-42 -46.5t-25.5 -61.5h308v0z" />
<glyph unicode="f" horiz-adv-x="336" d="M134 449h-88l16 72h87l13 55q14 62 29.5 96t40 49t63 17.5t98.5 2.5l-16 -74h-25q-19 0 -34.5 -1.5t-27.5 -9.5t-20.5 -23t-14.5 -42l-16 -70h107l-15 -72h-106l-96 -449h-90l95 449v0z" />
<glyph unicode="g" horiz-adv-x="581" d="M-5 -82l94 26q5 -26 33.5 -47.5t80.5 -19.5q40 1 66 13t43.5 31.5t28 46t17.5 56.5q2 5 4 15l4 20q3 11 6 25q-27 -34 -64.5 -50.5t-78.5 -16.5q-39 0 -77 15.5t-66 47t-43 79.5t-8 112q7 70 31 119.5t58.5 81t74 45.5t79.5 14q56 0 101.5 -24.5t66.5 -67.5l42 82h65 q-21 -101 -40 -191q-8 -39 -16.5 -79.5t-16.5 -78t-14.5 -69.5t-11.5 -54q-7 -29 -17 -71.5t-36.5 -82t-76.5 -67.5t-136 -28q-33 0 -64 8t-56.5 23.5t-44.5 37.5t-28 49v0zM254 93q33 -1 59 12.5t46.5 37t34.5 56t21 70.5q8 45 0 79.5t-26 57.5t-44.5 35.5t-55.5 12.5 q-65 0 -107 -48.5t-54 -136.5q-10 -81 26 -127t100 -49v0z" />
<glyph unicode="h" horiz-adv-x="576" d="M8 0l150 701h90l-54 -253q26 34 67.5 57.5t112.5 23.5q83 0 119.5 -55t11.5 -172l-65 -302h-89l62 294q9 44 9.5 74.5t-9 49t-29 26.5t-49.5 8q-28 0 -56 -9t-51.5 -30.5t-42.5 -56.5t-30 -86l-56 -270h-91v0z" />
<glyph unicode="i" horiz-adv-x="283" d="M240 752q28 0 47.5 -19.5t19.5 -46.5q0 -28 -19.5 -46.5t-47.5 -18.5q-27 0 -46 18.5t-19 46.5q0 27 19 46.5t46 19.5v0zM144 449h-84l15 72h174l-110 -521h-91z" />
<glyph unicode="j" horiz-adv-x="270" d="M-162 -167l17 77q53 -1 84.5 1.5t49 13.5t26.5 32t17 57l108 507h90l-109 -513q-13 -57 -26.5 -93.5t-42.5 -56t-79 -24.5t-135 -1v0zM155 687q0 27 19.5 46.5t47.5 19.5q27 0 46.5 -19.5t19.5 -46.5q0 -28 -19.5 -47t-46.5 -19q-28 0 -47.5 19t-19.5 47v0z" />
<glyph unicode="k" horiz-adv-x="512" d="M158 701h90l-86 -402l246 222h118l-246 -218l157 -303h-99l-125 244l-78 -70l-36 -174h-91z" />
<glyph unicode="l" horiz-adv-x="273" d="M37 131l121 570h90l-118 -554q-3 -18 -4.5 -31t2 -21.5t13.5 -12t29 -3.5h39l-17 -79h-59q-41 0 -63.5 8t-32 24.5t-8.5 41.5t8 57v0z" />
<glyph unicode="m" horiz-adv-x="888" d="M8 0l111 521h67l6 -73q31 37 69 59t97 22q62 0 94 -24.5t47 -67.5q39 51 84.5 71.5t100.5 20.5q10 0 27.5 -1.5t36 -8t36 -19.5t29 -36.5t14.5 -59.5t-9 -89l-66 -315h-90l64 303q8 36 9.5 64t-6 47t-24.5 29t-49 10q-66 0 -109.5 -45t-61.5 -124l-60 -284h-90l64 303 q16 74 3.5 112t-73.5 38q-59 0 -105.5 -41t-64.5 -128l-60 -284h-91v0z" />
<glyph unicode="n" horiz-adv-x="577" d="M8 0l111 521h67l6 -73q26 34 68.5 57.5t113.5 23.5q83 0 119.5 -55.5t11.5 -172.5l-65 -301h-89l62 293q19 89 0.5 124t-78.5 35q-28 0 -55.5 -9t-51.5 -30.5t-42.5 -56.5t-30.5 -86l-56 -270h-91v0z" />
<glyph unicode="o" horiz-adv-x="574" d="M32 259q9 73 38.5 124.5t69.5 83.5t86.5 47t91.5 15q46 0 88 -16.5t72 -51t43 -87.5t1 -125q-6 -37 -24.5 -82.5t-52.5 -85.5t-84 -67t-119 -27q-59 0 -102.5 20.5t-70.5 57t-36.5 86.5t-0.5 108v0zM249 65q71 0 118 52.5t61 141.5q9 56 2.5 92.5t-23.5 59t-44 32 t-59 9.5q-28 0 -56 -9t-52 -31t-43 -59t-28 -94q-7 -42 -3 -77.5t20 -62t42.5 -40.5t64.5 -14v0z" />
<glyph unicode="p" horiz-adv-x="583" d="M120 521h66l5 -69q21 30 59 53.5t98 23.5q50 0 86.5 -19.5t60 -53t33.5 -77.5t6 -93q-3 -54 -19.5 -107t-48 -95.5t-77.5 -69.5t-107 -27q-63 0 -103.5 29.5t-58.5 81.5l-57 -268h-90l147 691v0zM273 62q35 0 62.5 16t47.5 43t33 61.5t20 72.5q17 93 -14.5 146t-99.5 53 q-32 0 -61.5 -15t-52 -40.5t-38 -61.5t-21.5 -79q-6 -39 -0.5 -74.5t22 -63t42 -43t60.5 -15.5v0z" />
<glyph unicode="q" horiz-adv-x="581" d="M32 258q6 53 25.5 102.5t51 87t75.5 60t100 22.5q62 0 102.5 -25.5t61.5 -65.5l42 82h65q-29 -141 -53 -255q-11 -49 -21.5 -97t-18.5 -88l-13.5 -67.5t-7.5 -34.5q-8 -36 3 -56t47 -20q33 0 87 17l-18 -82q-12 -8 -37 -14.5t-55 -6.5q-26 0 -51 7t-43.5 24t-26.5 46 t2 73q2 10 5 26t6 31q4 18 9 38q-18 -30 -58.5 -52.5t-94.5 -22.5q-47 0 -85 19t-62.5 53.5t-34.5 85t-2 113.5v0zM243 63q35 0 65 17.5t52 45.5t36 63.5t17 69.5q9 93 -25.5 144.5t-98.5 51.5q-38 0 -66.5 -19t-48.5 -48.5t-31.5 -64t-15.5 -65.5q-13 -89 16 -142t100 -53 v0z" />
<glyph unicode="r" horiz-adv-x="370" d="M119 521h66l8 -98q17 24 36 43.5t43.5 33.5t56 21.5t73.5 7.5l-20 -93q-53 2 -93 -13.5t-68.5 -44t-47 -70t-29.5 -93.5q-9 -43 -17 -81t-15 -69l-13 -65h-91l111 521v0z" />
<glyph unicode="s" horiz-adv-x="502" d="M10 119l91 30q4 -23 16 -40.5t29.5 -28.5t38.5 -16t42 -5q22 0 42.5 5.5t36 16t25.5 27t10 36.5q0 29 -21.5 45.5t-53.5 27t-69.5 20.5t-70 26.5t-54 44.5t-21.5 75q0 37 17.5 64.5t45.5 45.5t64 27t74 9q33 0 64.5 -6.5t58.5 -20t47.5 -33.5t30.5 -47l-84 -29 q-6 15 -18.5 27.5t-29.5 20t-36.5 12t-39.5 4.5t-39 -4.5t-33 -12.5t-23 -21t-9 -31q0 -28 21.5 -43.5t54 -26.5t71 -21t71 -27t54 -45.5t21.5 -74.5q0 -40 -16.5 -70.5t-45 -51t-66.5 -31t-82 -10.5q-79 0 -132.5 30.5t-81.5 101.5v0z" />
<glyph unicode="t" horiz-adv-x="340" d="M66 521h87l29 130h90l-28 -130h99l-14 -72h-100l-65 -302q-4 -19 -6 -31.5t2 -21t14.5 -12t29.5 -3.5h46l-17 -79h-65q-41 0 -64 8t-33 24.5t-9 41.5t8 57l69 318h-88l15 72v0z" />
<glyph unicode="u" horiz-adv-x="567" d="M51 213l66 308h90l-65 -306q-7 -30 -9.5 -57.5t4 -48t24 -32.5t52.5 -12q62 0 109.5 42.5t68.5 140.5l58 273h90l-111 -521h-68l-6 74q-34 -45 -73 -65.5t-99 -20.5q-51 0 -81 18.5t-44 49.5t-14.5 72t8.5 85v0z" />
<glyph unicode="v" horiz-adv-x="466" d="M45 521h91l50 -405l222 405h103l-297 -521h-93z" />
<glyph unicode="w" horiz-adv-x="690" d="M45 521h91l18 -376l181 376h94l21 -385l185 385h101l-261 -521h-87l-24 420l-202 -420h-78z" />
<glyph unicode="x" horiz-adv-x="486" d="M-65 0l254 275l-124 246h95l90 -180l167 180h114l-241 -261l130 -260h-94l-97 194l-180 -194h-114z" />
<glyph unicode="y" horiz-adv-x="456" d="M-65 -169l17 79h35q33 0 52.5 3t33 12.5t24.5 27.5t25 47l-77 521h94l42 -405l216 405h105l-301 -543q-27 -48 -46.5 -77t-42 -45t-53 -20.5t-79.5 -4.5h-45v0z" />
<glyph unicode="z" horiz-adv-x="490" d="M-7 77l380 368h-286l17 77h396l-17 -77l-377 -368h304l-16 -77h-417z" />
<glyph unicode="{" horiz-adv-x="338" d="M43 -26l34 157q5 22 6 40.5t-3.5 31.5t-18 20.5t-37.5 7.5l15 70q24 0 40.5 7t27 20t17 31.5t10.5 40.5l33 158q9 43 20 70.5t29 43.5t47.5 22t74.5 6h48l-15 -74h-43q-17 0 -28.5 -3t-19 -10.5t-12 -20.5t-9.5 -33l-34 -160q-14 -66 -43 -94.5t-69 -38.5q18 -6 32 -14.5 t21 -23.5t8 -38t-6 -57l-34 -160q-8 -41 -1.5 -55t41.5 -14h43l-15 -74h-48q-43 0 -68.5 8.5t-37.5 26t-12 44.5t7 65v0z" />
<glyph unicode="|" horiz-adv-x="303" d="M101 701h85v-870h-85v870z" />
<glyph unicode="}" horiz-adv-x="338" d="M-49 -96h44q34 0 47 14t21 55l34 159q14 68 42.5 95.5t69.5 38.5q-18 5 -31.5 14t-21.5 24t-9 38t6 56l35 161q8 39 1.5 53t-41.5 14h-44l16 74h48q43 0 68 -8t37 -25.5t12.5 -45t-7.5 -63.5l-32 -158q-6 -23 -7.5 -41.5t3.5 -31t18 -19.5t37 -7l-16 -70 q-24 0 -39.5 -7.5t-26 -20.5t-16.5 -32t-11 -41l-34 -156q-9 -43 -20 -71t-29.5 -44.5t-47.5 -22.5t-75 -6h-47l16 74v0z" />
<glyph unicode="~" horiz-adv-x="565" d="M26 232q12 48 49.5 77.5t94.5 29.5q33 0 62 -9t55.5 -20t49.5 -20t44 -9q24 0 42.5 13.5t23.5 40.5l78 -23q-12 -48 -49 -77.5t-94 -29.5q-28 0 -55.5 9t-54 19.5t-51.5 19t-49 8.5q-26 0 -44 -13t-23 -39l-79 23v0z" />
<glyph unicode="&#xa1;" horiz-adv-x="298" d="M186 545q27 0 47 -20t20 -47q0 -29 -20 -48.5t-47 -19.5q-28 0 -48 19.5t-20 48.5q0 27 20 47t48 20v0zM39 13l86 314h58l-49 -314l-38 -182h-96z" />
<glyph unicode="&#xa2;" horiz-adv-x="516" d="M30 259q9 56 31.5 104.5t56.5 84t79.5 57t99.5 23.5l15 72h52l-15 -74q109 -16 155 -114l-87 -30q-9 26 -31 43.5t-52 22.5l-82 -384q42 1 73 19.5t55 49.5l75 -30q-35 -58 -93 -86.5t-127 -29.5l-17 -78h-53l18 83q-89 15 -129 86.5t-24 180.5v0zM200 71l80 378 q-35 -5 -62 -23.5t-46 -44.5t-30 -57.5t-16 -63.5t-4.5 -62.5t9 -55t25 -43t44.5 -28.5v0z" />
<glyph unicode="&#xa3;" horiz-adv-x="615" d="M23 58q20 7 55.5 27.5t66.5 54t48.5 82t0.5 111.5h-115l11 53h91q-11 36 -17 72t-2 79q5 48 28 81.5t56.5 54.5t75 30.5t83.5 9.5q84 0 141.5 -34.5t74.5 -102.5l-88 -24q-17 51 -47 68.5t-85 17.5q-22 0 -45.5 -4.5t-44 -16.5t-35 -32.5t-19.5 -52.5q-5 -37 2.5 -73 t18.5 -73h213l-11 -53h-189q9 -42 2 -78.5t-26 -66t-48 -53.5t-61 -41q18 8 34.5 10.5t30.5 2.5q23 0 42 -5.5t37.5 -13t39.5 -13.5t49 -6q24 0 53.5 6t66.5 21l11 -77q-44 -18 -77 -25t-61 -7q-29 0 -53 6.5t-47 13.5t-46 13t-52 6q-28 0 -64.5 -8.5t-84.5 -30.5l-14 71v0z " />
<glyph unicode="&#xa4;" horiz-adv-x="699" d="M107 125l69 69q-24 32 -36.5 68.5t-12.5 74.5t12.5 74.5t36.5 67.5l-69 69l38 38l69 -69q32 25 68 37t74 12t74.5 -12t67.5 -37l69 69l38 -38l-69 -69q25 -31 37 -67.5t12 -74.5t-12 -74.5t-37 -68.5l69 -69l-38 -37l-69 68q-31 -24 -67.5 -36t-74.5 -12t-74 12t-68 36 l-69 -68l-38 37v0zM356 187q31 0 58 11.5t47.5 32t32 48t11.5 58.5t-11.5 58t-32 47.5t-47.5 32t-58 11.5q-32 0 -58.5 -11.5t-47 -32t-32 -47.5t-11.5 -58t11.5 -58.5t32 -48t47 -32t58.5 -11.5v0z" />
<glyph unicode="&#xa5;" horiz-adv-x="627" d="M61 144h156l19 90h-156l11 54h138l-135 413h101l111 -356l276 356h119l-331 -413h133l-12 -54h-153l-19 -90h153l-11 -54h-153l-19 -90h-102l19 90h-157z" />
<glyph unicode="&#xa6;" horiz-adv-x="303" d="M101 701h85v-325h-85v325zM186 156v-325h-85v325h85z" />
<glyph unicode="&#xa7;" horiz-adv-x="552" d="M45 -34q2 -18 11.5 -32.5t23 -23.5t31 -13t36.5 -4t37.5 4t33.5 12.5t26.5 20.5t15.5 28q7 23 1 42.5t-20 37t-35.5 34t-45.5 35.5q-25 19 -46.5 36.5t-37.5 36t-25.5 40.5t-9.5 49q0 38 14 69.5t39.5 55t58.5 39.5t71 24q-30 29 -35.5 72.5t14.5 84.5t65 70.5t116 29.5 q29 0 57.5 -6t53 -18t43 -31t26.5 -46l-87 -24q-6 27 -32.5 40.5t-59.5 13.5q-35 0 -66.5 -15.5t-38.5 -45.5q-4 -22 3 -38.5t22.5 -32t37.5 -31.5t47 -37q23 -19 45 -35.5t38.5 -34.5t27 -39t10.5 -48q0 -40 -14 -71.5t-39 -56.5t-58.5 -42t-70.5 -30q26 -32 27.5 -78.5 t-22 -88.5t-72 -72t-120.5 -30q-75 0 -124.5 33.5t-62.5 91.5l90 24v0zM174 218q11 -8 28 -21.5t35 -27.5q20 -16 42 -34q55 17 88 39.5t44 49.5t-0.5 56.5t-47.5 58.5q-8 9 -24 20.5t-30 22.5q-17 14 -36 29q-43 -10 -77 -30.5t-51 -47t-11.5 -56.5t40.5 -59v0z" />
<glyph unicode="&#xa8;" horiz-adv-x="448" d="M135 676q0 23 16.5 39.5t40.5 16.5t40.5 -16.5t16.5 -39.5q0 -24 -16.5 -40t-40.5 -16t-40.5 16t-16.5 40v0zM414 732q24 0 40 -16.5t16 -39.5q0 -24 -16 -40t-40 -16q-23 0 -39.5 16t-16.5 40q0 23 16.5 39.5t39.5 16.5v0z" />
<glyph unicode="&#xa9;" horiz-adv-x="854" d="M74 351q0 75 28 141.5t77.5 115.5t115.5 77.5t142 28.5q75 0 141.5 -28.5t115.5 -77.5t77.5 -115.5t28.5 -141.5q0 -76 -28.5 -142t-77.5 -115.5t-115.5 -78t-141.5 -28.5q-76 0 -142 28.5t-115.5 78t-77.5 115.5t-28 142v0zM139 351q0 -62 23.5 -116t64 -94.5 t94.5 -64.5t116 -24t116 24t94.5 64.5t64 94.5t23.5 116t-23.5 116t-64 94.5t-94.5 64t-116 23.5t-116 -23.5t-94.5 -64t-64 -94.5t-23.5 -116v0zM441 558q57 0 94.5 -24.5t57.5 -62.5l-70 -26q-14 25 -35.5 38.5t-48.5 13.5q-45 0 -74 -34t-29 -104q0 -71 29 -105.5 t74 -34.5q26 0 49 10.5t38 37.5l69 -25q-21 -36 -59 -60t-97 -24q-89 0 -136 53.5t-47 147.5t50 146.5t135 52.5v0z" />
<glyph unicode="&#xaa;" horiz-adv-x="381" d="M76 494q1 30 18 50t46.5 32t67 19t78.5 11q3 12 3 25t-5 23t-17.5 15.5t-34.5 5.5q-18 0 -33.5 -9.5t-25.5 -29.5l-60 19q17 34 49.5 52.5t80.5 18.5q64 0 95.5 -31t16.5 -94q-11 -45 -18 -88.5t-7 -89.5h-62l-3 40q-18 -28 -45 -37.5t-53 -9.5q-42 0 -67 21.5t-24 56.5 v0zM188 469q43 0 60.5 21.5t23.5 53.5l3 11q-36 -3 -59.5 -7.5t-37 -11t-19.5 -14.5t-7 -18q-2 -17 8 -26t28 -9v0z" />
<glyph unicode="&#xab;" horiz-adv-x="591" d="M47 262l181 222h109l-190 -232l102 -210h-94zM266 262l180 222h109l-190 -232l102 -210h-93z" />
<glyph unicode="&#xac;" horiz-adv-x="700" d="M79 416h521v-322h-86v239h-435v83z" />
<glyph unicode="&#xad;" horiz-adv-x="387" d="M40 303h306l-18 -85h-307z" />
<glyph unicode="&#xae;" horiz-adv-x="854" d="M437 714q75 0 141.5 -28.5t115.5 -78t77.5 -116t28.5 -141.5t-28.5 -141t-77.5 -115.5t-115.5 -78t-141.5 -28.5q-76 0 -142 28.5t-115.5 78t-77.5 115.5t-28 141t28 141.5t77.5 116t115.5 78t142 28.5v0zM437 51q62 0 116 24t94.5 64.5t64 95t23.5 115.5 q0 62 -23.5 116.5t-64 95.5t-94.5 64.5t-116 23.5t-116 -23.5t-94.5 -64.5t-64 -95.5t-23.5 -116.5q0 -61 23.5 -115.5t64 -95t94.5 -64.5t116 -24v0zM295 170v386h118q43 0 76.5 -4.5t57 -17.5t36 -37.5t12.5 -61.5q0 -13 -3 -28t-13 -30.5t-28 -28.5t-48 -21l113 -157h-90 l-107 146h-44v-146h-80v0zM375 492v-115h55q46 0 66 14.5t20 42.5q0 35 -25.5 46.5t-65.5 11.5h-50v0z" />
<glyph unicode="&#xaf;" horiz-adv-x="401" d="M140 701h289l-14 -70h-290z" />
<glyph unicode="&#xb0;" horiz-adv-x="375" d="M91 571q0 30 11 56t30.5 45.5t46 30.5t55.5 11q30 0 56 -11t45.5 -30.5t30.5 -45.5t11 -56q0 -29 -11 -55.5t-30.5 -46t-45.5 -30.5t-56 -11q-29 0 -55.5 11t-46 30.5t-30.5 46t-11 55.5v0zM158 571q0 -31 22.5 -53.5t53.5 -22.5q33 0 55 22.5t22 53.5q0 33 -22 55 t-55 22q-31 0 -53.5 -22t-22.5 -55v0z" />
<glyph unicode="&#xb1;" horiz-adv-x="685" d="M68 284v82h207v155h83v-155h207v-82h-207v-154h-83v154h-207zM565 83v-83h-497v83h497z" />
<glyph unicode="&#xb2;" horiz-adv-x="403" d="M75 480q71 40 119 71.5t76.5 59t42 52t15.5 49.5q2 27 -14.5 44t-43.5 17q-24 0 -47 -15t-35 -48l-63 20q18 44 55 69.5t91 25.5q27 0 52 -6t42.5 -20t27.5 -34.5t8 -48.5q-3 -60 -61.5 -119.5t-163.5 -112.5h188l-12 -61h-290l13 57v0z" />
<glyph unicode="&#xb3;" horiz-adv-x="413" d="M91 510l68 18q7 -25 25.5 -42t49.5 -17q34 0 55.5 17t23.5 48q1 28 -11 41.5t-29.5 19t-37 6t-31.5 0.5l11 56q11 0 31 0.5t39 6t33.5 17.5t14.5 35q0 32 -18.5 44.5t-43.5 12.5q-31 0 -50 -12.5t-34 -43.5l-61 19q22 46 60.5 67.5t87.5 21.5q24 0 47.5 -5t42 -16.5 t29.5 -31.5t11 -49q0 -30 -17.5 -53.5t-53.5 -37.5q29 -14 41.5 -41t9.5 -61q-7 -59 -51 -86.5t-105 -27.5q-51 0 -86.5 25t-50.5 69v0z" />
<glyph unicode="&#xb4;" horiz-adv-x="284" d="M119 601q30 32 55 59q22 24 42.5 45.5t29.5 27.5q11 9 26 9q18 0 30 -12q12 -13 10.5 -29.5t-13.5 -27.5q-8 -6 -24.5 -18.5t-34.5 -24.5q-21 -14 -44 -29h-77v0z" />
<glyph unicode="&#xb6;" horiz-adv-x="547" d="M82 502q9 41 32.5 77.5t56 63.5t72 42.5t80.5 15.5h273l-15 -71h-43l-169 -800h-88l169 800h-97l-170 -800h-87l101 479q-31 7 -56 25t-41 43.5t-20.5 57t2.5 67.5v0z" />
<glyph unicode="&#xb7;" horiz-adv-x="246" d="M56 260q0 28 20 48t47 20q28 0 48 -20t20 -48t-20 -48t-48 -20q-27 0 -47 20t-20 48v0z" />
<glyph unicode="&#xb8;" horiz-adv-x="308" d="M-1 -132q33 -15 60 -15q24 0 39 9.5t19.5 21t-4 21t-30.5 9.5q-15 0 -32 -4q-15 -4 -22 7.5t3 22.5l71 86l31 -22l-43 -51q35 5 56.5 -3t30.5 -23.5t6.5 -35.5t-17 -38t-39.5 -30t-62 -12q-42 0 -91 18l24 39v0z" />
<glyph unicode="&#xb9;" horiz-adv-x="269" d="M132 766q42 0 69 11t42 41h59l-84 -395h-72l63 293h-87l10 50v0z" />
<glyph unicode="&#xba;" horiz-adv-x="402" d="M92 573q5 40 20 69t37 48t49 28t55 9t53 -9t43.5 -28t27 -48t4.5 -69t-19.5 -68.5t-37.5 -47.5t-48.5 -28.5t-55.5 -9.5q-28 0 -52.5 9.5t-43 28.5t-27.5 47.5t-5 68.5v0zM227 475q31 0 53.5 25.5t28.5 72.5q5 48 -13 73t-49 25t-54 -25t-28 -73q-5 -47 12.5 -72.5 t49.5 -25.5v0z" />
<glyph unicode="&#xbb;" horiz-adv-x="582" d="M9 42l191 232l-102 210h93l108 -220l-180 -222h-110zM418 274l-102 210h94l108 -220l-181 -222h-109z" />
<glyph unicode="&#xbc;" horiz-adv-x="865" d="M128 649q42 0 69 10.5t41 40.5h60l-84 -393h-71l62 293h-87l10 49v0zM105 0l491 701h93l-492 -701h-92zM432 147l247 247h81l-52 -244h68l-13 -60h-68l-19 -90h-73l19 90h-203zM634 150l34 153l-151 -153h117z" />
<glyph unicode="&#xbd;" horiz-adv-x="842" d="M432 0l11 57q71 40 119.5 71.5t77.5 58.5t42 52t15 49q2 28 -14.5 45t-44.5 17q-24 0 -46.5 -15t-33.5 -48l-63 20q17 44 54.5 69t90.5 25q28 0 52.5 -6.5t43 -20t28.5 -33.5t8 -48q-3 -60 -62 -120t-164 -112h188l-13 -61h-289v0zM118 600l10 49q42 0 69 10.5t41 40.5 h60l-84 -393h-72l62 293h-86v0zM98 0l491 701h92l-491 -701h-92z" />
<glyph unicode="&#xbe;" horiz-adv-x="951" d="M88 398l67 19q8 -25 26.5 -41.5t49.5 -16.5q34 0 55.5 16.5t23.5 46.5q1 27 -11 41t-29.5 19.5t-37 5.5h-31.5l11 58q11 0 30.5 0.5t39 6t34 17.5t14.5 35q0 31 -18.5 43t-43.5 12q-31 0 -50.5 -12.5t-33.5 -42.5l-61 19q22 46 60.5 67.5t87.5 21.5q24 0 47.5 -4.5 t42 -17t29.5 -32t11 -48.5t-18 -53t-53 -37q29 -14 41.5 -41t9.5 -61q-7 -58 -51 -85.5t-105 -27.5q-51 0 -86.5 24.5t-50.5 67.5v0zM203 0l491 701h92l-491 -701h-92zM518 147l248 247h80l-52 -244h68l-13 -60h-67l-20 -90h-73l20 90h-203zM603 150h118l33 153z" />
<glyph unicode="&#xbf;" horiz-adv-x="553" d="M-13 -3q5 30 19.5 55t36.5 45t49 35.5t54 29.5q30 14 50 29.5t33.5 32t20 34.5t10.5 38l8 36h89l-8 -39q-10 -45 -26.5 -76.5t-39 -54.5t-49 -40.5t-57.5 -33.5q-32 -17 -60.5 -39.5t-34.5 -56.5q-3 -24 3.5 -42.5t22 -32t37 -20.5t46.5 -7q65 0 108 29.5t62 85.5l81 -25 q-30 -84 -97.5 -124t-156.5 -40q-37 0 -75.5 9t-68.5 30.5t-46.5 56t-10.5 85.5v0zM272 475q0 28 19 48t47 20t48 -20t20 -48t-20 -48t-48 -20t-47 20t-19 48v0z" />
<glyph unicode="&#xc0;" d="M357 701h122l114 -701h-108l-22 153h-317l-87 -153h-114zM193 237h259l-52 365zM310 869q0 10 8.5 24t29.5 14q6 0 13 -2q5 -2 11 -5t11 -11l88 -108h-77l-40 30t-25.5 22t-14 18.5t-4.5 17.5v0z" />
<glyph unicode="&#xc1;" d="M357 701h122l114 -701h-108l-22 153h-317l-87 -153h-114zM193 237h259l-52 365zM391 781q4 2 14 10.5t24 20.5t30 26t31.5 26t27 21.5t16.5 12.5q15 9 28 9q15 0 26 -11t11 -27q0 -13 -6 -21.5t-14 -13.5q-6 -4 -21 -12t-32 -16.5l-31 -15.5l-18 -9h-86v0z" />
<glyph unicode="&#xc2;" d="M357 701h122l114 -701h-108l-22 153h-317l-87 -153h-114zM193 237h259l-52 365zM261 785l140 106q27 20 57 20q28 0 47 -20l95 -106h-97l-57 64l-85 -64h-100v0z" />
<glyph unicode="&#xc3;" d="M357 701h122l114 -701h-108l-22 153h-317l-87 -153h-114zM193 237h259l-52 365zM246 791q22 57 57.5 82.5t77.5 25.5q26 0 44 -7t32.5 -15t28.5 -15t29 -7q20 0 31.5 10t22.5 20q13 14 28 14q18 0 28 -16.5t-2 -33.5q-13 -21 -38.5 -40.5t-69.5 -19.5q-23 0 -39 6.5 t-31 15t-29.5 15.5t-35.5 7q-24 0 -40.5 -11t-24.5 -31h-69v0z" />
<glyph unicode="&#xc4;" d="M357 701h122l114 -701h-108l-22 153h-317l-87 -153h-114zM193 237h259l-52 365zM269 836q0 23 16.5 39.5t40.5 16.5t40.5 -16.5t16.5 -39.5q0 -24 -16.5 -40t-40.5 -16t-40.5 16t-16.5 40v0zM548 892q24 0 40 -16.5t16 -39.5q0 -24 -16 -40t-40 -16q-23 0 -39.5 16 t-16.5 40q0 23 16.5 39.5t39.5 16.5v0z" />
<glyph unicode="&#xc5;" d="M428 880q25 0 45.5 -9t35.5 -24.5t23.5 -36.5t8.5 -45q0 -23 -8.5 -44t-23.5 -36.5t-35.5 -24.5t-45.5 -9q-24 0 -45.5 9t-37 24.5t-24.5 36.5t-9 44q0 24 9 45t24.5 36.5t37 24.5t45.5 9v0v0zM372 765q0 -22 15.5 -37.5t38.5 -15.5t39 15.5t16 37.5q0 23 -16 38.5 t-39 15.5t-38.5 -15.5t-15.5 -38.5v0v0zM479 701l114 -701h-108l-22 153h-317l-87 -153h-114l412 701h122zM452 237l-52 365l-207 -365h259z" />
<glyph unicode="&#xc6;" horiz-adv-x="1040" d="M-55 0l661 700h478l-18 -85h-377l-45 -213h279l-18 -84h-279l-50 -233h377l-17 -85h-479l32 152h-285l-141 -152h-118zM507 237l68 318l-295 -318h227z" />
<glyph unicode="&#xc7;" horiz-adv-x="699" d="M200 -132q32 -15 59 -15q25 0 40 9.5t19 21t-4 21t-30 9.5q-15 0 -32 -4q-16 -4 -22.5 7.5t2.5 22.5l71 86l32 -22l-43 -51q35 5 56.5 -3t30 -23.5t6 -35.5t-16.5 -38t-39.5 -30t-61.5 -12q-42 0 -92 18l25 39v0v0zM63 353q14 77 46.5 143.5t81 114.5t113 75.5 t139.5 27.5q93 0 157 -39t89 -121l-94 -31q-17 53 -60 80t-102 27q-51 0 -94.5 -19.5t-78.5 -55.5t-60 -87t-36 -115q-11 -61 -3 -112.5t31.5 -89.5t62 -59.5t87.5 -21.5q70 0 116.5 26.5t84.5 83.5l83 -33q-51 -80 -126 -120t-168 -40q-88 0 -145.5 33.5t-88.5 86.5 t-38.5 118t3.5 128v0v0z" />
<glyph unicode="&#xc8;" horiz-adv-x="597" d="M164 701h478l-18 -85h-377l-45 -213h278l-19 -84h-277l-51 -234h377l-18 -85h-477zM324 869q0 10 8.5 24t29.5 14q6 0 13 -2q5 -2 11 -5t11 -11l88 -108h-77l-40 30t-25.5 22t-14 18.5t-4.5 17.5v0z" />
<glyph unicode="&#xc9;" horiz-adv-x="597" d="M164 701h478l-18 -85h-377l-45 -213h278l-19 -84h-277l-51 -234h377l-18 -85h-477zM374 781q4 2 14 10.5t24 20.5t30 26t31.5 26t27 21.5t16.5 12.5q15 9 28 9q15 0 26 -11t11 -27q0 -13 -6 -21.5t-14 -13.5q-6 -4 -21 -12t-32 -16.5l-31 -15.5l-18 -9h-86v0z" />
<glyph unicode="&#xca;" horiz-adv-x="597" d="M164 701h478l-18 -85h-377l-45 -213h278l-19 -84h-277l-51 -234h377l-18 -85h-477zM247 788l140 106q27 20 57 20q28 0 47 -20l95 -106h-97l-57 64l-85 -64h-100v0z" />
<glyph unicode="&#xcb;" horiz-adv-x="597" d="M164 701h478l-18 -85h-377l-45 -213h278l-19 -84h-277l-51 -234h377l-18 -85h-477zM248 836q0 23 16.5 39.5t40.5 16.5t40.5 -16.5t16.5 -39.5q0 -24 -16.5 -40t-40.5 -16t-40.5 16t-16.5 40v0zM527 892q24 0 40 -16.5t16 -39.5q0 -24 -16 -40t-40 -16q-23 0 -39.5 16 t-16.5 40q0 23 16.5 39.5t39.5 16.5v0z" />
<glyph unicode="&#xcc;" horiz-adv-x="434" d="M21 79h98l115 544h-98l17 78h295l-15 -78h-99l-115 -544h97l-17 -79h-295zM203 869q0 10 8.5 24t29.5 14q6 0 13 -2q5 -2 11 -5t11 -11l88 -108h-77l-40 30t-25.5 22t-14 18.5t-4.5 17.5v0z" />
<glyph unicode="&#xcd;" horiz-adv-x="434" d="M21 79h98l115 544h-98l17 78h295l-15 -78h-99l-115 -544h97l-17 -79h-295zM275 781q4 2 14 10.5t24 20.5t30 26t31.5 26t27 21.5t16.5 12.5q15 9 28 9q15 0 26 -11t11 -27q0 -13 -6 -21.5t-14 -13.5q-6 -4 -21 -12t-32 -16.5l-31 -15.5l-18 -9h-86v0z" />
<glyph unicode="&#xce;" horiz-adv-x="434" d="M21 79h98l115 544h-98l17 78h295l-15 -78h-99l-115 -544h97l-17 -79h-295zM152 785l140 106q27 20 57 20q28 0 47 -20l95 -106h-97l-57 64l-85 -64h-100v0z" />
<glyph unicode="&#xcf;" horiz-adv-x="434" d="M21 79h98l115 544h-98l17 78h295l-15 -78h-99l-115 -544h97l-17 -79h-295zM162 834q0 23 16.5 39.5t40.5 16.5t40.5 -16.5t16.5 -39.5q0 -24 -16.5 -40t-40.5 -16t-40.5 16t-16.5 40v0zM441 890q24 0 40 -16.5t16 -39.5q0 -24 -16 -40t-40 -16q-23 0 -39.5 16t-16.5 40 q0 23 16.5 39.5t39.5 16.5v0z" />
<glyph unicode="&#xd0;" horiz-adv-x="747" d="M23 318l18 84h97l64 299h193q84 0 148 -19t105 -63t55 -113.5t-3 -170.5q-13 -85 -52.5 -147.5t-98.5 -104.5t-135.5 -62.5t-166.5 -20.5h-195l68 318h-97v0zM222 318l-51 -235h90q65 0 121.5 13.5t100.5 44t74.5 80t43.5 120.5q15 89 2 143.5t-45.5 83.5t-81 39 t-102.5 10h-89l-46 -215h147l-17 -84h-147v0z" />
<glyph unicode="&#xd1;" horiz-adv-x="727" d="M164 701h144l195 -602l128 602h101l-149 -701h-144l-194 605l-129 -605h-101zM290 789q22 57 57.5 82.5t77.5 25.5q26 0 44 -7t32.5 -15t28.5 -15t29 -7q20 0 31.5 10t22.5 20q13 14 28 14q18 0 28 -16.5t-2 -33.5q-13 -21 -38.5 -40.5t-69.5 -19.5q-23 0 -39 6.5t-31 15 t-29.5 15.5t-35.5 7q-24 0 -40.5 -11t-24.5 -31h-69v0z" />
<glyph unicode="&#xd2;" horiz-adv-x="764" d="M63 352q12 78 44 145t81 114.5t116.5 75t150.5 27.5q73 0 128 -29t90 -78t47.5 -115t-0.5 -140q-10 -68 -39 -134t-77.5 -117t-116.5 -82.5t-159 -31.5q-73 0 -128 28.5t-89 78t-47 115.5t-1 143v0zM341 70q54 0 99.5 19.5t82 56t61.5 88.5t36 118q11 67 1 119t-35 87 t-63 53.5t-82 18.5q-60 0 -106.5 -21.5t-81.5 -59t-57.5 -88t-31.5 -109.5q-12 -68 -2.5 -121t35 -88.5t63 -54t81.5 -18.5v0zM362 869q0 10 8.5 24t29.5 14q6 0 13 -2q5 -2 11 -5t11 -11l88 -108h-77l-40 30t-25.5 22t-14 18.5t-4.5 17.5v0z" />
<glyph unicode="&#xd3;" horiz-adv-x="764" d="M63 352q12 78 44 145t81 114.5t116.5 75t150.5 27.5q73 0 128 -29t90 -78t47.5 -115t-0.5 -140q-10 -68 -39 -134t-77.5 -117t-116.5 -82.5t-159 -31.5q-73 0 -128 28.5t-89 78t-47 115.5t-1 143v0zM341 70q54 0 99.5 19.5t82 56t61.5 88.5t36 118q11 67 1 119t-35 87 t-63 53.5t-82 18.5q-60 0 -106.5 -21.5t-81.5 -59t-57.5 -88t-31.5 -109.5q-12 -68 -2.5 -121t35 -88.5t63 -54t81.5 -18.5v0zM429 781q4 2 14 10.5t24 20.5t30 26t31.5 26t27 21.5t16.5 12.5q15 9 28 9q15 0 26 -11t11 -27q0 -13 -6 -21.5t-14 -13.5q-6 -4 -21 -12 t-32 -16.5l-31 -15.5l-18 -9h-86v0z" />
<glyph unicode="&#xd4;" horiz-adv-x="764" d="M63 352q12 78 44 145t81 114.5t116.5 75t150.5 27.5q73 0 128 -29t90 -78t47.5 -115t-0.5 -140q-10 -68 -39 -134t-77.5 -117t-116.5 -82.5t-159 -31.5q-73 0 -128 28.5t-89 78t-47 115.5t-1 143v0zM341 70q54 0 99.5 19.5t82 56t61.5 88.5t36 118q11 67 1 119t-35 87 t-63 53.5t-82 18.5q-60 0 -106.5 -21.5t-81.5 -59t-57.5 -88t-31.5 -109.5q-12 -68 -2.5 -121t35 -88.5t63 -54t81.5 -18.5v0zM313 785l140 106q27 20 57 20q28 0 47 -20l95 -106h-97l-57 64l-85 -64h-100v0z" />
<glyph unicode="&#xd5;" horiz-adv-x="764" d="M63 352q12 78 44 145t81 114.5t116.5 75t150.5 27.5q73 0 128 -29t90 -78t47.5 -115t-0.5 -140q-10 -68 -39 -134t-77.5 -117t-116.5 -82.5t-159 -31.5q-73 0 -128 28.5t-89 78t-47 115.5t-1 143v0zM341 70q54 0 99.5 19.5t82 56t61.5 88.5t36 118q11 67 1 119t-35 87 t-63 53.5t-82 18.5q-60 0 -106.5 -21.5t-81.5 -59t-57.5 -88t-31.5 -109.5q-12 -68 -2.5 -121t35 -88.5t63 -54t81.5 -18.5v0zM295 790q22 57 57.5 82.5t77.5 25.5q26 0 44 -7t32.5 -15t28.5 -15t29 -7q20 0 31.5 10t22.5 20q13 14 28 14q18 0 28 -16.5t-2 -33.5 q-13 -21 -38.5 -40.5t-69.5 -19.5q-23 0 -39 6.5t-31 15t-29.5 15.5t-35.5 7q-24 0 -40.5 -11t-24.5 -31h-69v0z" />
<glyph unicode="&#xd6;" horiz-adv-x="764" d="M63 352q12 78 44 145t81 114.5t116.5 75t150.5 27.5q73 0 128 -29t90 -78t47.5 -115t-0.5 -140q-10 -68 -39 -134t-77.5 -117t-116.5 -82.5t-159 -31.5q-73 0 -128 28.5t-89 78t-47 115.5t-1 143v0zM341 70q54 0 99.5 19.5t82 56t61.5 88.5t36 118q11 67 1 119t-35 87 t-63 53.5t-82 18.5q-60 0 -106.5 -21.5t-81.5 -59t-57.5 -88t-31.5 -109.5q-12 -68 -2.5 -121t35 -88.5t63 -54t81.5 -18.5v0zM325 836q0 23 16.5 39.5t40.5 16.5t40.5 -16.5t16.5 -39.5q0 -24 -16.5 -40t-40.5 -16t-40.5 16t-16.5 40v0zM604 892q24 0 40 -16.5t16 -39.5 q0 -24 -16 -40t-40 -16q-23 0 -39.5 16t-16.5 40q0 23 16.5 39.5t39.5 16.5v0z" />
<glyph unicode="&#xd7;" horiz-adv-x="622" d="M141 485l161 -162l162 162l60 -61l-161 -162l161 -160l-60 -61l-162 162l-161 -162l-60 61l162 160l-162 162z" />
<glyph unicode="&#xd8;" horiz-adv-x="764" d="M6 34l90 84q-26 47 -34 106.5t1 125.5q12 79 44 146t81.5 115t117 75t149.5 27q62 0 110 -20t83 -57l82 77l36 -39l-85 -80q31 -49 41 -111t-2 -133q-10 -68 -39 -133t-77 -116.5t-116.5 -82.5t-158.5 -31q-67 0 -117.5 23t-85.5 64l-83 -78l-37 38v0zM198 141 q26 -35 63 -53t81 -18q53 0 99 19t82.5 55.5t61.5 88t36 117.5q8 53 4 96t-19 77l-408 -382v0zM172 190l404 379q-25 31 -60 46t-75 15q-60 0 -106.5 -21.5t-81.5 -59.5t-57.5 -89.5t-31.5 -109.5q-9 -48 -6 -87.5t14 -72.5v0z" />
<glyph unicode="&#xd9;" horiz-adv-x="727" d="M78 294l87 407h101l-89 -415q-23 -112 5 -163t124 -51q47 0 84.5 10t67 35t50 66t34.5 103l89 415h101l-87 -407q-22 -105 -60 -166.5t-84.5 -92.5t-98.5 -39.5t-102 -8.5q-146 0 -201.5 73t-20.5 234v0zM345 869q0 10 8.5 24t29.5 14q6 0 13 -2q5 -2 11 -5t11 -11 l88 -108h-77l-40 30t-25.5 22t-14 18.5t-4.5 17.5v0z" />
<glyph unicode="&#xda;" horiz-adv-x="727" d="M78 294l87 407h101l-89 -415q-23 -112 5 -163t124 -51q47 0 84.5 10t67 35t50 66t34.5 103l89 415h101l-87 -407q-22 -105 -60 -166.5t-84.5 -92.5t-98.5 -39.5t-102 -8.5q-146 0 -201.5 73t-20.5 234v0zM412 781q4 2 14 10.5t24 20.5t30 26t31.5 26t27 21.5t16.5 12.5 q15 9 28 9q15 0 26 -11t11 -27q0 -13 -6 -21.5t-14 -13.5q-6 -4 -21 -12t-32 -16.5l-31 -15.5l-18 -9h-86v0z" />
<glyph unicode="&#xdb;" horiz-adv-x="727" d="M78 294l87 407h101l-89 -415q-23 -112 5 -163t124 -51q47 0 84.5 10t67 35t50 66t34.5 103l89 415h101l-87 -407q-22 -105 -60 -166.5t-84.5 -92.5t-98.5 -39.5t-102 -8.5q-146 0 -201.5 73t-20.5 234v0zM297 785l140 106q27 20 57 20q28 0 47 -20l95 -106h-97l-57 64 l-85 -64h-100v0z" />
<glyph unicode="&#xdc;" horiz-adv-x="727" d="M78 294l87 407h101l-89 -415q-23 -112 5 -163t124 -51q47 0 84.5 10t67 35t50 66t34.5 103l89 415h101l-87 -407q-22 -105 -60 -166.5t-84.5 -92.5t-98.5 -39.5t-102 -8.5q-146 0 -201.5 73t-20.5 234v0zM304 837q0 23 16.5 39.5t40.5 16.5t40.5 -16.5t16.5 -39.5 q0 -24 -16.5 -40t-40.5 -16t-40.5 16t-16.5 40v0zM583 893q24 0 40 -16.5t16 -39.5q0 -24 -16 -40t-40 -16q-23 0 -39.5 16t-16.5 40q0 23 16.5 39.5t39.5 16.5v0z" />
<glyph unicode="&#xdd;" horiz-adv-x="627" d="M94 701h101l109 -353l278 353h119l-360 -449l-53 -252h-102l54 252zM357 781q4 2 14 10.5t24 20.5t30 26t31.5 26t27 21.5t16.5 12.5q15 9 28 9q15 0 26 -11t11 -27q0 -13 -6 -21.5t-14 -13.5q-6 -4 -21 -12t-32 -16.5l-31 -15.5l-18 -9h-86v0z" />
<glyph unicode="&#xde;" horiz-adv-x="615" d="M162 692h90l-32 -147h134q62 0 110 -10.5t79 -34.5t41.5 -65t-3.5 -101q-13 -49 -37.5 -82.5t-62.5 -52.5t-90 -27.5t-118 -8.5h-133l-37 -171h-90l149 700v0zM158 248h142q45 0 76.5 7t52 19.5t31.5 28.5t16 34q8 33 6.5 56t-16 38t-44 22t-78.5 7h-141l-45 -212v0z" />
<glyph unicode="&#xdf;" horiz-adv-x="639" d="M116 475q8 37 21.5 79t43.5 77.5t81.5 59t134.5 23.5q42 0 79.5 -9.5t65.5 -30t43.5 -51t12.5 -73.5q-1 -26 -10 -52.5t-26.5 -48t-42 -37t-58.5 -21.5q30 -12 53 -27t37 -37.5t20.5 -51t3.5 -68.5q-3 -63 -32 -106t-74.5 -70t-102 -37t-115.5 -7l-6 83q25 -3 49 -3 q37 0 68.5 8.5t55.5 26t39 44t19 64.5q7 75 -37.5 105t-135.5 30l17 81q40 0 73 8t58.5 22t40 35.5t15.5 48.5q3 47 -26 73.5t-88 26.5q-81 0 -124.5 -37.5t-62.5 -127.5l-101 -475h-90l101 475v0z" />
<glyph unicode="&#xe0;" horiz-adv-x="546" d="M387 323q16 67 -5 101t-84 34q-48 0 -81.5 -21.5t-51.5 -59.5l-79 24q27 60 79.5 94t128.5 34q109 0 157.5 -52t25.5 -160l-25 -120q-14 -66 -19 -113t-6 -84h-83l-4 66q-34 -40 -75.5 -59.5t-103.5 -19.5q-34 0 -62.5 9.5t-49.5 27.5t-33 42.5t-12 56.5q0 44 20 75 t52.5 52t74 34t84 21t83 11.5t69.5 6.5v0zM189 60q71 0 121.5 47t65.5 128l3 18q-61 -6 -110.5 -12.5t-84.5 -18t-55.5 -29.5t-24.5 -47q-6 -44 19.5 -65t65.5 -21v0zM242 736q11 7 25 7q8 0 17 -3.5t14 -11.5q6 -9 19.5 -30t26.5 -43q16 -25 34 -54h-72q-15 15 -29 31 q-13 13 -25 26.5t-18 21.5q-9 14 -6.5 31t14.5 25v0z" />
<glyph unicode="&#xe1;" horiz-adv-x="546" d="M387 323q16 67 -5 101t-84 34q-48 0 -81.5 -21.5t-51.5 -59.5l-79 24q27 60 79.5 94t128.5 34q109 0 157.5 -52t25.5 -160l-25 -120q-14 -66 -19 -113t-6 -84h-83l-4 66q-34 -40 -75.5 -59.5t-103.5 -19.5q-34 0 -62.5 9.5t-49.5 27.5t-33 42.5t-12 56.5q0 44 20 75 t52.5 52t74 34t84 21t83 11.5t69.5 6.5v0zM189 60q71 0 121.5 47t65.5 128l3 18q-61 -6 -110.5 -12.5t-84.5 -18t-55.5 -29.5t-24.5 -47q-6 -44 19.5 -65t65.5 -21v0zM288 601q30 32 55 59q22 24 42.5 45.5t29.5 27.5q11 9 26 9q18 0 30 -12q12 -13 10.5 -29.5t-13.5 -27.5 q-8 -6 -24.5 -18.5t-34.5 -24.5q-21 -14 -44 -29h-77v0z" />
<glyph unicode="&#xe2;" horiz-adv-x="546" d="M387 323q16 67 -5 101t-84 34q-48 0 -81.5 -21.5t-51.5 -59.5l-79 24q27 60 79.5 94t128.5 34q109 0 157.5 -52t25.5 -160l-25 -120q-14 -66 -19 -113t-6 -84h-83l-4 66q-34 -40 -75.5 -59.5t-103.5 -19.5q-34 0 -62.5 9.5t-49.5 27.5t-33 42.5t-12 56.5q0 44 20 75 t52.5 52t74 34t84 21t83 11.5t69.5 6.5v0zM189 60q71 0 121.5 47t65.5 128l3 18q-61 -6 -110.5 -12.5t-84.5 -18t-55.5 -29.5t-24.5 -47q-6 -44 19.5 -65t65.5 -21v0zM171 604l140 106q27 20 57 20q28 0 47 -20l95 -106h-97l-57 64l-85 -64h-100v0z" />
<glyph unicode="&#xe3;" horiz-adv-x="546" d="M387 323q16 67 -5 101t-84 34q-48 0 -81.5 -21.5t-51.5 -59.5l-79 24q27 60 79.5 94t128.5 34q109 0 157.5 -52t25.5 -160l-25 -120q-14 -66 -19 -113t-6 -84h-83l-4 66q-34 -40 -75.5 -59.5t-103.5 -19.5q-34 0 -62.5 9.5t-49.5 27.5t-33 42.5t-12 56.5q0 44 20 75 t52.5 52t74 34t84 21t83 11.5t69.5 6.5v0zM189 60q71 0 121.5 47t65.5 128l3 18q-61 -6 -110.5 -12.5t-84.5 -18t-55.5 -29.5t-24.5 -47q-6 -44 19.5 -65t65.5 -21v0zM156 606q22 57 57.5 82.5t77.5 25.5q26 0 44 -7t32.5 -15t28.5 -15t29 -7q20 0 31.5 10t22.5 20 q13 14 28 14q18 0 28 -16.5t-2 -33.5q-13 -21 -38.5 -40.5t-69.5 -19.5q-23 0 -39 6.5t-31 15t-29.5 15.5t-35.5 7q-24 0 -40.5 -11t-24.5 -31h-69v0z" />
<glyph unicode="&#xe4;" horiz-adv-x="546" d="M387 323q16 67 -5 101t-84 34q-48 0 -81.5 -21.5t-51.5 -59.5l-79 24q27 60 79.5 94t128.5 34q109 0 157.5 -52t25.5 -160l-25 -120q-14 -66 -19 -113t-6 -84h-83l-4 66q-34 -40 -75.5 -59.5t-103.5 -19.5q-34 0 -62.5 9.5t-49.5 27.5t-33 42.5t-12 56.5q0 44 20 75 t52.5 52t74 34t84 21t83 11.5t69.5 6.5v0zM189 60q71 0 121.5 47t65.5 128l3 18q-61 -6 -110.5 -12.5t-84.5 -18t-55.5 -29.5t-24.5 -47q-6 -44 19.5 -65t65.5 -21v0zM183 676q0 23 16.5 39.5t40.5 16.5t40.5 -16.5t16.5 -39.5q0 -24 -16.5 -40t-40.5 -16t-40.5 16t-16.5 40 v0zM462 732q24 0 40 -16.5t16 -39.5q0 -24 -16 -40t-40 -16q-23 0 -39.5 16t-16.5 40q0 23 16.5 39.5t39.5 16.5v0z" />
<glyph unicode="&#xe5;" horiz-adv-x="546" d="M387 323q16 67 -5 101t-84 34q-48 0 -81.5 -21.5t-51.5 -59.5l-79 24q27 60 79.5 94t128.5 34q109 0 157.5 -52t25.5 -160l-25 -120q-14 -66 -19 -113t-6 -84h-83l-4 66q-34 -40 -75.5 -59.5t-103.5 -19.5q-34 0 -62.5 9.5t-49.5 27.5t-33 42.5t-12 56.5q0 44 20 75 t52.5 52t74 34t84 21t83 11.5t69.5 6.5v0zM189 60q71 0 121.5 47t65.5 128l3 18q-61 -6 -110.5 -12.5t-84.5 -18t-55.5 -29.5t-24.5 -47q-6 -44 19.5 -65t65.5 -21v0zM362 815q24 0 44.5 -8.5t36 -24.5t24 -37t8.5 -44t-8.5 -44t-24 -37t-36 -24.5t-44.5 -8.5t-45.5 8.5 t-37 24.5t-24.5 37t-9 44t9 44t24.5 37t37 24.5t45.5 8.5v0zM306 701q0 -22 15.5 -38t38.5 -16t39 16t16 38t-16 38t-39 16t-38.5 -16t-15.5 -38v0z" />
<glyph unicode="&#xe6;" horiz-adv-x="912" d="M43 228q18 18 40.5 32.5t60.5 25t95.5 16t144.5 5.5q19 75 1.5 112.5t-86.5 37.5q-47 0 -81 -21.5t-51 -59.5l-80 25q27 61 84 96.5t137 31.5q64 -3 102.5 -22.5t56.5 -52.5q79 75 201 75q63 0 107 -24t69 -64.5t31.5 -93.5t-7.5 -111h-404q-5 -49 6 -82t31.5 -52.5 t47 -28t55.5 -8.5q44 0 75.5 13.5t53.5 38.5l82 -26q-37 -47 -92 -75.5t-131 -28.5q-71 0 -119.5 32t-72.5 86q-21 -33 -49 -55.5t-57.5 -36.5t-61 -20t-60.5 -6q-30 0 -55 6t-42 14q-37 19 -53 49.5t-17 63t10 62t28 46.5v0zM183 59q74 1 125 49t68 127q-48 0 -94.5 -2.5 t-83 -12t-61.5 -27t-31 -47.5q-7 -34 10.5 -60.5t66.5 -26.5v0zM784 307q4 25 -1.5 51t-21 47.5t-42 35t-64.5 13.5q-29 0 -58 -10t-52.5 -29t-41.5 -46.5t-25 -61.5h306v0z" />
<glyph unicode="&#xe7;" horiz-adv-x="517" d="M110 -132q33 -15 60 -15q24 0 39.5 9.5t19.5 21t-4.5 21t-30.5 9.5q-14 0 -31 -4q-16 -4 -23 7.5t3 22.5l71 86l32 -22l-43 -51q34 5 55.5 -3t30.5 -23.5t6.5 -35.5t-16.5 -38t-39.5 -30t-62.5 -12q-42 0 -91 18l24 39v0v0zM30 260q10 58 33 107.5t59.5 85t83.5 56 t105 20.5q71 0 119.5 -30t74.5 -86l-87 -31q-11 32 -41.5 51t-69.5 19q-42 0 -73.5 -17t-53.5 -44t-35 -61t-19 -69q-6 -38 -4 -74t16 -62.5t41.5 -43t71.5 -16.5q43 0 74.5 18.5t55.5 49.5l75 -29q-36 -59 -95.5 -88t-129.5 -29q-56 0 -98 19.5t-67.5 56t-35 87t-0.5 110.5 v0v0z" />
<glyph unicode="&#xe8;" horiz-adv-x="568" d="M32 260q9 66 34 115.5t63 84t87.5 52t106.5 17.5q63 0 108 -24t70 -64.5t31 -93.5t-8 -111h-403q-5 -49 5 -82t30.5 -52.5t47.5 -28t55 -8.5q44 0 75.5 13.5t53.5 38.5l82 -26q-36 -47 -91 -75.5t-130 -28.5q-58 0 -102.5 19.5t-73 55.5t-39.5 86t-2 112v0zM441 308 q3 25 -2.5 51t-21 47t-41.5 34.5t-65 13.5q-30 0 -58 -9.5t-52.5 -28.5t-42 -46.5t-25.5 -61.5h308v0zM250 735q11 7 25 7q8 0 17 -3.5t14 -11.5q6 -9 19.5 -30t26.5 -43q16 -25 34 -54h-72q-15 15 -29 31q-13 13 -25 26.5t-18 21.5q-9 14 -6.5 31t14.5 25v0z" />
<glyph unicode="&#xe9;" horiz-adv-x="568" d="M32 260q9 66 34 115.5t63 84t87.5 52t106.5 17.5q63 0 108 -24t70 -64.5t31 -93.5t-8 -111h-403q-5 -49 5 -82t30.5 -52.5t47.5 -28t55 -8.5q44 0 75.5 13.5t53.5 38.5l82 -26q-36 -47 -91 -75.5t-130 -28.5q-58 0 -102.5 19.5t-73 55.5t-39.5 86t-2 112v0zM441 308 q3 25 -2.5 51t-21 47t-41.5 34.5t-65 13.5q-30 0 -58 -9.5t-52.5 -28.5t-42 -46.5t-25.5 -61.5h308v0zM308 601q30 32 55 59q22 24 42.5 45.5t29.5 27.5q11 9 26 9q18 0 30 -12q12 -13 10.5 -29.5t-13.5 -27.5q-8 -6 -24.5 -18.5t-34.5 -24.5q-21 -14 -44 -29h-77v0z" />
<glyph unicode="&#xea;" horiz-adv-x="568" d="M32 260q9 66 34 115.5t63 84t87.5 52t106.5 17.5q63 0 108 -24t70 -64.5t31 -93.5t-8 -111h-403q-5 -49 5 -82t30.5 -52.5t47.5 -28t55 -8.5q44 0 75.5 13.5t53.5 38.5l82 -26q-36 -47 -91 -75.5t-130 -28.5q-58 0 -102.5 19.5t-73 55.5t-39.5 86t-2 112v0zM441 308 q3 25 -2.5 51t-21 47t-41.5 34.5t-65 13.5q-30 0 -58 -9.5t-52.5 -28.5t-42 -46.5t-25.5 -61.5h308v0zM175 604l140 106q27 20 57 20q28 0 47 -20l95 -106h-97l-57 64l-85 -64h-100v0z" />
<glyph unicode="&#xeb;" horiz-adv-x="568" d="M32 260q9 66 34 115.5t63 84t87.5 52t106.5 17.5q63 0 108 -24t70 -64.5t31 -93.5t-8 -111h-403q-5 -49 5 -82t30.5 -52.5t47.5 -28t55 -8.5q44 0 75.5 13.5t53.5 38.5l82 -26q-36 -47 -91 -75.5t-130 -28.5q-58 0 -102.5 19.5t-73 55.5t-39.5 86t-2 112v0zM441 308 q3 25 -2.5 51t-21 47t-41.5 34.5t-65 13.5q-30 0 -58 -9.5t-52.5 -28.5t-42 -46.5t-25.5 -61.5h308v0zM202 676q0 23 16.5 39.5t40.5 16.5t40.5 -16.5t16.5 -39.5q0 -24 -16.5 -40t-40.5 -16t-40.5 16t-16.5 40v0zM481 732q24 0 40 -16.5t16 -39.5q0 -24 -16 -40t-40 -16 q-23 0 -39.5 16t-16.5 40q0 23 16.5 39.5t39.5 16.5v0z" />
<glyph unicode="&#xec;" horiz-adv-x="283" d="M144 449h-84l15 72h174l-110 -521h-91zM126 735q11 7 25 7q8 0 17 -3.5t14 -11.5q6 -9 19.5 -30t26.5 -43q16 -25 34 -54h-72q-15 15 -29 31q-13 13 -25 26.5t-18 21.5q-9 14 -6.5 31t14.5 25v0z" />
<glyph unicode="&#xed;" horiz-adv-x="283" d="M144 450h-84l15 72h174l-110 -521h-91zM173 599q30 32 55 59q22 24 42.5 45.5t29.5 27.5q11 9 26 9q18 0 30 -12q12 -13 10.5 -29.5t-13.5 -27.5q-8 -6 -24.5 -18.5t-34.5 -24.5q-21 -14 -44 -29h-77v0z" />
<glyph unicode="&#xee;" horiz-adv-x="283" d="M144 450h-84l15 72h174l-110 -521h-91zM39 604l140 106q27 20 57 20q28 0 47 -20l95 -106h-97l-57 64l-85 -64h-100v0z" />
<glyph unicode="&#xef;" horiz-adv-x="283" d="M144 449h-84l15 72h174l-110 -521h-91zM38 670q0 23 16.5 39.5t40.5 16.5t40.5 -16.5t16.5 -39.5q0 -24 -16.5 -40t-40.5 -16t-40.5 16t-16.5 40v0zM317 726q24 0 40 -16.5t16 -39.5q0 -24 -16 -40t-40 -16q-23 0 -39.5 16t-16.5 40q0 23 16.5 39.5t39.5 16.5v0z" />
<glyph unicode="&#xf0;" horiz-adv-x="598" d="M25 230q5 50 25 94t53 75t78.5 49.5t100.5 18.5q35 0 64 -9.5t51 -25t37.5 -35.5t23.5 -41q9 82 -3.5 136t-41.5 86l-98 -81l-29 37l88 74q-30 16 -65.5 21.5t-77.5 3.5l17 80q60 2 109 -8.5t88 -37.5l56 46l30 -38l-49 -40q36 -39 53.5 -100t15.5 -152q0 -26 -5 -65.5 t-17 -83.5t-33.5 -88t-56 -79t-82.5 -57.5t-114 -22.5q-50 0 -92 20t-71.5 53t-44 77.5t-10.5 92.5v0zM253 62q69 0 113 45t52 119q4 39 -4.5 68.5t-26 50.5t-44 32t-56.5 11q-73 0 -118.5 -42.5t-55.5 -115.5q-4 -32 3 -61.5t25.5 -53.5t46 -38.5t65.5 -14.5v0z" />
<glyph unicode="&#xf1;" horiz-adv-x="577" d="M8 0l111 521h67l6 -73q26 34 68.5 57.5t113.5 23.5q83 0 119.5 -55.5t11.5 -172.5l-65 -301h-89l62 293q19 89 0.5 124t-78.5 35q-28 0 -55.5 -9t-51.5 -30.5t-42.5 -56.5t-30.5 -86l-56 -270h-91v0zM164 606q22 57 57.5 82.5t77.5 25.5q26 0 44 -7t32.5 -15t28.5 -15 t29 -7q20 0 31.5 10t22.5 20q13 14 28 14q18 0 28 -16.5t-2 -33.5q-13 -21 -38.5 -40.5t-69.5 -19.5q-23 0 -39 6.5t-31 15t-29.5 15.5t-35.5 7q-24 0 -40.5 -11t-24.5 -31h-69v0z" />
<glyph unicode="&#xf2;" horiz-adv-x="574" d="M32 259q9 73 38.5 124.5t69.5 83.5t86.5 47t91.5 15q46 0 88 -16.5t72 -51t43 -87.5t1 -125q-6 -37 -24.5 -82.5t-52.5 -85.5t-84 -67t-119 -27q-59 0 -102.5 20.5t-70.5 57t-36.5 86.5t-0.5 108v0zM249 65q71 0 118 52.5t61 141.5q9 56 2.5 92.5t-23.5 59t-44 32 t-59 9.5q-28 0 -56 -9t-52 -31t-43 -59t-28 -94q-7 -42 -3 -77.5t20 -62t42.5 -40.5t64.5 -14v0zM250 735q11 7 25 7q8 0 17 -3.5t14 -11.5q6 -9 19.5 -30t26.5 -43q16 -25 34 -54h-72q-15 15 -29 31q-13 13 -25 26.5t-18 21.5q-9 14 -6.5 31t14.5 25v0z" />
<glyph unicode="&#xf3;" horiz-adv-x="574" d="M32 259q9 73 38.5 124.5t69.5 83.5t86.5 47t91.5 15q46 0 88 -16.5t72 -51t43 -87.5t1 -125q-6 -37 -24.5 -82.5t-52.5 -85.5t-84 -67t-119 -27q-59 0 -102.5 20.5t-70.5 57t-36.5 86.5t-0.5 108v0zM249 65q71 0 118 52.5t61 141.5q9 56 2.5 92.5t-23.5 59t-44 32 t-59 9.5q-28 0 -56 -9t-52 -31t-43 -59t-28 -94q-7 -42 -3 -77.5t20 -62t42.5 -40.5t64.5 -14v0zM310 601q30 32 55 59q22 24 42.5 45.5t29.5 27.5q11 9 26 9q18 0 30 -12q12 -13 10.5 -29.5t-13.5 -27.5q-8 -6 -24.5 -18.5t-34.5 -24.5q-21 -14 -44 -29h-77v0z" />
<glyph unicode="&#xf4;" horiz-adv-x="574" d="M32 259q9 73 38.5 124.5t69.5 83.5t86.5 47t91.5 15q46 0 88 -16.5t72 -51t43 -87.5t1 -125q-6 -37 -24.5 -82.5t-52.5 -85.5t-84 -67t-119 -27q-59 0 -102.5 20.5t-70.5 57t-36.5 86.5t-0.5 108v0zM249 65q71 0 118 52.5t61 141.5q9 56 2.5 92.5t-23.5 59t-44 32 t-59 9.5q-28 0 -56 -9t-52 -31t-43 -59t-28 -94q-7 -42 -3 -77.5t20 -62t42.5 -40.5t64.5 -14v0zM181 604l140 106q27 20 57 20q28 0 47 -20l95 -106h-97l-57 64l-85 -64h-100v0z" />
<glyph unicode="&#xf5;" horiz-adv-x="574" d="M32 259q9 73 38.5 124.5t69.5 83.5t86.5 47t91.5 15q46 0 88 -16.5t72 -51t43 -87.5t1 -125q-6 -37 -24.5 -82.5t-52.5 -85.5t-84 -67t-119 -27q-59 0 -102.5 20.5t-70.5 57t-36.5 86.5t-0.5 108v0zM249 65q71 0 118 52.5t61 141.5q9 56 2.5 92.5t-23.5 59t-44 32 t-59 9.5q-28 0 -56 -9t-52 -31t-43 -59t-28 -94q-7 -42 -3 -77.5t20 -62t42.5 -40.5t64.5 -14v0zM164 606q22 57 57.5 82.5t77.5 25.5q26 0 44 -7t32.5 -15t28.5 -15t29 -7q20 0 31.5 10t22.5 20q13 14 28 14q18 0 28 -16.5t-2 -33.5q-13 -21 -38.5 -40.5t-69.5 -19.5 q-23 0 -39 6.5t-31 15t-29.5 15.5t-35.5 7q-24 0 -40.5 -11t-24.5 -31h-69v0z" />
<glyph unicode="&#xf6;" horiz-adv-x="574" d="M32 259q9 73 38.5 124.5t69.5 83.5t86.5 47t91.5 15q46 0 88 -16.5t72 -51t43 -87.5t1 -125q-6 -37 -24.5 -82.5t-52.5 -85.5t-84 -67t-119 -27q-59 0 -102.5 20.5t-70.5 57t-36.5 86.5t-0.5 108v0zM249 65q71 0 118 52.5t61 141.5q9 56 2.5 92.5t-23.5 59t-44 32 t-59 9.5q-28 0 -56 -9t-52 -31t-43 -59t-28 -94q-7 -42 -3 -77.5t20 -62t42.5 -40.5t64.5 -14v0zM196 676q0 23 16.5 39.5t40.5 16.5t40.5 -16.5t16.5 -39.5q0 -24 -16.5 -40t-40.5 -16t-40.5 16t-16.5 40v0zM475 732q24 0 40 -16.5t16 -39.5q0 -24 -16 -40t-40 -16 q-23 0 -39.5 16t-16.5 40q0 23 16.5 39.5t39.5 16.5v0z" />
<glyph unicode="&#xf7;" horiz-adv-x="649" d="M247 439q0 28 20 48t48 20t47.5 -20t19.5 -48t-19.5 -47.5t-47.5 -19.5t-48 19.5t-20 47.5v0zM247 83q0 27 20 47t48 20t47.5 -20t19.5 -47q0 -28 -19.5 -48t-47.5 -20t-48 20t-20 48v0zM55 218v85h520v-85h-520z" />
<glyph unicode="&#xf8;" horiz-adv-x="574" d="M-12 27l66 61q-36 70 -24 170q11 73 40 124.5t69.5 84t86.5 47.5t91 15q41 0 79.5 -13.5t67.5 -41.5l64 60l37 -38l-67 -64q19 -34 26 -79t-3 -105q-7 -37 -25.5 -82t-52 -85t-83.5 -67t-118 -27q-52 0 -91 15.5t-66 42.5l-60 -57l-37 39v0zM151 107q33 -42 98 -42 q70 0 117 52.5t61 140.5q6 34 5.5 60t-6.5 47l-275 -258v0zM126 156l276 259q-18 20 -43 28.5t-56 8.5q-28 0 -56 -9t-52 -31t-42.5 -59.5t-27.5 -94.5q-9 -58 1 -102v0z" />
<glyph unicode="&#xf9;" horiz-adv-x="567" d="M51 213l66 308h90l-65 -306q-7 -30 -9.5 -57.5t4 -48t24 -32.5t52.5 -12q62 0 109.5 42.5t68.5 140.5l58 273h90l-111 -521h-68l-6 74q-34 -45 -73 -65.5t-99 -20.5q-51 0 -81 18.5t-44 49.5t-14.5 72t8.5 85v0zM248 735q11 7 25 7q8 0 17 -3.5t14 -11.5q6 -9 19.5 -30 t26.5 -43q16 -25 34 -54h-72q-15 15 -29 31q-13 13 -25 26.5t-18 21.5q-9 14 -6.5 31t14.5 25v0z" />
<glyph unicode="&#xfa;" horiz-adv-x="567" d="M51 213l66 308h90l-65 -306q-7 -30 -9.5 -57.5t4 -48t24 -32.5t52.5 -12q62 0 109.5 42.5t68.5 140.5l58 273h90l-111 -521h-68l-6 74q-34 -45 -73 -65.5t-99 -20.5q-51 0 -81 18.5t-44 49.5t-14.5 72t8.5 85v0zM308 601q30 32 55 59q22 24 42.5 45.5t29.5 27.5 q11 9 26 9q18 0 30 -12q12 -13 10.5 -29.5t-13.5 -27.5q-8 -6 -24.5 -18.5t-34.5 -24.5q-21 -14 -44 -29h-77v0z" />
<glyph unicode="&#xfb;" horiz-adv-x="567" d="M51 213l66 308h90l-65 -306q-7 -30 -9.5 -57.5t4 -48t24 -32.5t52.5 -12q62 0 109.5 42.5t68.5 140.5l58 273h90l-111 -521h-68l-6 74q-34 -45 -73 -65.5t-99 -20.5q-51 0 -81 18.5t-44 49.5t-14.5 72t8.5 85v0zM178 604l140 106q27 20 57 20q28 0 47 -20l95 -106h-97 l-57 64l-85 -64h-100v0z" />
<glyph unicode="&#xfc;" horiz-adv-x="567" d="M51 213l66 308h90l-65 -306q-7 -30 -9.5 -57.5t4 -48t24 -32.5t52.5 -12q62 0 109.5 42.5t68.5 140.5l58 273h90l-111 -521h-68l-6 74q-34 -45 -73 -65.5t-99 -20.5q-51 0 -81 18.5t-44 49.5t-14.5 72t8.5 85v0zM191 676q0 23 16.5 39.5t40.5 16.5t40.5 -16.5t16.5 -39.5 q0 -24 -16.5 -40t-40.5 -16t-40.5 16t-16.5 40v0zM470 732q24 0 40 -16.5t16 -39.5q0 -24 -16 -40t-40 -16q-23 0 -39.5 16t-16.5 40q0 23 16.5 39.5t39.5 16.5v0z" />
<glyph unicode="&#xfd;" horiz-adv-x="456" d="M-65 -169l17 79h35q33 0 52.5 3t33 12.5t24.5 27.5t25 47l-77 521h94l42 -405l216 405h105l-301 -543q-27 -48 -46.5 -77t-42 -45t-53 -20.5t-79.5 -4.5h-45v0zM247 601q30 32 55 59q22 24 42.5 45.5t29.5 27.5q11 9 26 9q18 0 30 -12q12 -13 10.5 -29.5t-13.5 -27.5 q-8 -6 -24.5 -18.5t-34.5 -24.5q-21 -14 -44 -29h-77v0z" />
<glyph unicode="&#xfe;" horiz-adv-x="585" d="M158 701h90l-51 -241q27 34 64 51.5t83 17.5q42 0 77.5 -14.5t60.5 -43t39.5 -70t14.5 -95.5q0 -75 -21 -134.5t-57 -100.5t-82 -62.5t-98 -21.5q-63 0 -103.5 33.5t-53.5 78.5l-58 -268h-90l185 870v0zM275 63q41 0 71.5 23t51.5 58.5t31.5 77.5t10.5 80q1 79 -32 115.5 t-84 36.5q-46 0 -79.5 -24t-55 -58t-31.5 -73t-10 -70q0 -82 34.5 -124t92.5 -42v0z" />
<glyph unicode="&#xff;" horiz-adv-x="456" d="M-65 -169l17 79h35q33 0 52.5 3t33 12.5t24.5 27.5t25 47l-77 521h94l42 -405l216 405h105l-301 -543q-27 -48 -46.5 -77t-42 -45t-53 -20.5t-79.5 -4.5h-45v0zM136 676q0 23 16.5 39.5t40.5 16.5t40.5 -16.5t16.5 -39.5q0 -24 -16.5 -40t-40.5 -16t-40.5 16t-16.5 40v0z M415 732q24 0 40 -16.5t16 -39.5q0 -24 -16 -40t-40 -16q-23 0 -39.5 16t-16.5 40q0 23 16.5 39.5t39.5 16.5v0z" />
<glyph unicode="&#x131;" horiz-adv-x="283" d="M144 449h-84l15 72h174l-110 -521h-91z" />
<glyph unicode="&#x152;" horiz-adv-x="1129" d="M63 351q12 79 44 146t81 115t116.5 75t150.5 27q82 0 140 -34.5t92 -94.5l25 116h461l-18 -85h-377l-45 -213h278l-18 -84h-279l-49 -233h378l-18 -86h-462l18 84q-44 -41 -104 -69t-148 -28q-74 0 -128.5 28.5t-88.5 78t-47 115.5t-2 142v0zM342 71q53 0 98.5 19 t82 55.5t61.5 88t36 117.5q11 67 1 119.5t-35 88t-63 54t-82 18.5q-60 0 -106.5 -21.5t-81.5 -59.5t-57.5 -89t-31.5 -110q-12 -67 -2.5 -120t35 -88t63 -53.5t82.5 -18.5v0z" />
<glyph unicode="&#x153;" horiz-adv-x="955" d="M32 259q9 73 39 124t70 83.5t86 47.5t88 15q55 0 100 -22t75 -81q37 51 94.5 77t123.5 26q64 0 109 -23.5t71 -63.5t32 -93t-9 -112h-403q-4 -47 5.5 -80t29 -53.5t46.5 -29.5t58 -9q44 0 76 13.5t53 38.5l82 -26q-34 -44 -88 -74t-130 -30q-75 0 -120 26.5t-75 76.5 q-31 -42 -81 -72.5t-120 -30.5q-58 0 -101.5 19.5t-71 55t-38 85.5t-1.5 112v0zM245 65q35 0 66 13.5t55 40t40 62t22 79.5q8 55 1.5 91.5t-24 59t-43 32t-55.5 9.5q-29 0 -57 -9t-53 -30.5t-44 -58.5t-28 -93q-16 -92 17.5 -143t102.5 -53v0zM828 308q4 26 -1.5 52 t-21 46.5t-42 34t-66.5 13.5q-29 0 -57.5 -10t-52 -28.5t-41 -46t-24.5 -61.5h306v0z" />
<glyph unicode="&#x178;" horiz-adv-x="627" d="M94 701h101l109 -353l278 353h119l-360 -449l-53 -252h-102l54 252zM257 834q0 23 16.5 39.5t40.5 16.5t40.5 -16.5t16.5 -39.5q0 -24 -16.5 -40t-40.5 -16t-40.5 16t-16.5 40v0zM536 890q24 0 40 -16.5t16 -39.5q0 -24 -16 -40t-40 -16q-23 0 -39.5 16t-16.5 40 q0 23 16.5 39.5t39.5 16.5v0z" />
<glyph unicode="&#x2c6;" horiz-adv-x="450" d="M119 604l140 106q27 20 57 20q28 0 47 -20l95 -106h-97l-57 64l-85 -64h-100v0z" />
<glyph unicode="&#x2da;" horiz-adv-x="345" d="M257 808q24 0 44.5 -8.5t36 -24.5t24 -37t8.5 -44t-8.5 -44t-24 -37t-36 -24.5t-44.5 -8.5t-45.5 8.5t-37 24.5t-24.5 37t-9 44t9 44t24.5 37t37 24.5t45.5 8.5v0zM201 694q0 -22 15.5 -38t38.5 -16t39 16t16 38t-16 38t-39 16t-38.5 -16t-15.5 -38v0z" />
<glyph unicode="&#x2dc;" horiz-adv-x="441" d="M94 606q22 57 57.5 82.5t77.5 25.5q26 0 44 -7t32.5 -15t28.5 -15t29 -7q20 0 31.5 10t22.5 20q13 14 28 14q18 0 28 -16.5t-2 -33.5q-13 -21 -38.5 -40.5t-69.5 -19.5q-23 0 -39 6.5t-31 15t-29.5 15.5t-35.5 7q-24 0 -40.5 -11t-24.5 -31h-69v0z" />
<glyph unicode="&#x2000;" horiz-adv-x="457" />
<glyph unicode="&#x2001;" horiz-adv-x="914" />
<glyph unicode="&#x2002;" horiz-adv-x="457" />
<glyph unicode="&#x2003;" horiz-adv-x="914" />
<glyph unicode="&#x2004;" horiz-adv-x="304" />
<glyph unicode="&#x2005;" horiz-adv-x="228" />
<glyph unicode="&#x2006;" horiz-adv-x="152" />
<glyph unicode="&#x2007;" horiz-adv-x="152" />
<glyph unicode="&#x2008;" horiz-adv-x="114" />
<glyph unicode="&#x2009;" horiz-adv-x="182" />
<glyph unicode="&#x200a;" horiz-adv-x="50" />
<glyph unicode="&#x2010;" horiz-adv-x="387" d="M40 303h306l-18 -85h-307z" />
<glyph unicode="&#x2011;" horiz-adv-x="387" d="M40 303h306l-18 -85h-307z" />
<glyph unicode="&#x2012;" horiz-adv-x="387" d="M40 303h306l-18 -85h-307z" />
<glyph unicode="&#x2013;" horiz-adv-x="521" d="M42 301h418v-83h-418v83z" />
<glyph unicode="&#x2014;" horiz-adv-x="857" d="M42 301h754v-83h-754v83z" />
<glyph unicode="&#x2018;" horiz-adv-x="249" d="M110 543l96 158h64l-80 -131q24 -8 36.5 -29t7.5 -46q-5 -28 -27.5 -44t-51.5 -11q-16 3 -29 13.5t-19.5 25.5t-6 31.5t9.5 32.5v0z" />
<glyph unicode="&#x2019;" horiz-adv-x="249" d="M174 583q-23 8 -35.5 29t-8.5 46q5 28 28.5 44t50.5 11q18 -3 30.5 -13.5t19.5 -25.5t6.5 -31.5t-11.5 -32.5l-94 -160h-64l78 133v0z" />
<glyph unicode="&#x201a;" horiz-adv-x="250" d="M49 -8q-23 8 -35.5 29.5t-8.5 45.5q5 27 28.5 44t50.5 12q18 -3 30.5 -13.5t19.5 -26t6.5 -32t-11.5 -32.5l-94 -159h-64l78 132v0z" />
<glyph unicode="&#x201c;" horiz-adv-x="414" d="M110 543l96 158h64l-80 -131q24 -8 36.5 -29t7.5 -46q-5 -28 -27.5 -44t-51.5 -11q-16 3 -29 13.5t-19.5 25.5t-6 31.5t9.5 32.5v0zM275 543l95 158h63l-78 -131q23 -8 35.5 -29.5t8.5 -45.5q-5 -28 -28 -44t-51 -11q-17 3 -30 13.5t-19.5 25.5t-6 31.5t10.5 32.5v0z" />
<glyph unicode="&#x201d;" horiz-adv-x="413" d="M174 583q-23 8 -35.5 29t-8.5 46q5 28 28.5 44t50.5 11q18 -3 30.5 -13.5t19.5 -25.5t6.5 -31.5t-11.5 -32.5l-94 -160h-64l78 133v0zM259 450l79 133q-23 8 -35 29t-8 46q5 28 27.5 44t50.5 11q17 -3 30 -13.5t19 -25.5t5.5 -31.5t-9.5 -32.5l-95 -160h-64v0z" />
<glyph unicode="&#x201e;" horiz-adv-x="413" d="M49 -8q-23 8 -35.5 29.5t-8.5 45.5q5 27 28.5 44t50.5 12q18 -3 30.5 -13.5t19.5 -26t6.5 -32t-11.5 -32.5l-94 -159h-64l78 132v0zM134 -140l79 132q-23 8 -35 29.5t-8 45.5q5 27 27.5 44t50.5 12q17 -3 30 -13.5t19 -26t5.5 -32t-9.5 -32.5l-95 -159h-64v0z" />
<glyph unicode="&#x2022;" horiz-adv-x="468" d="M51 267q0 36 14 67.5t37.5 55.5t55.5 37.5t68 13.5t68 -13.5t55.5 -37.5t37 -55.5t13.5 -67.5t-13.5 -68t-37 -55.5t-55.5 -37.5t-68 -14t-68 14t-55.5 37.5t-37.5 55.5t-14 68v0z" />
<glyph unicode="&#x2026;" horiz-adv-x="733" d="M314 123q28 0 48 -20t20 -48t-20 -48t-48 -20t-47.5 20t-19.5 48t19.5 48t47.5 20v0zM556 123q28 0 48 -20t20 -48t-20 -48t-48 -20t-48 20t-20 48t20 48t48 20v0zM71 123q29 0 49 -20t20 -48t-20 -48t-49 -20q-27 0 -47 20t-20 48t20 48t47 20v0z" />
<glyph unicode="&#x202f;" horiz-adv-x="182" />
<glyph unicode="&#x2039;" horiz-adv-x="372" d="M47 262l181 222h109l-190 -232l102 -210h-94z" />
<glyph unicode="&#x203a;" horiz-adv-x="364" d="M200 274l-102 210h93l108 -220l-180 -222h-110z" />
<glyph unicode="&#x205f;" horiz-adv-x="228" />
<glyph unicode="&#x20ac;" horiz-adv-x="736" d="M45 306h77q3 44 13 89h-100l41 53h75q21 59 53 108t75 83.5t96 54t114 19.5q87 0 148 -39t85 -120l-89 -30q-17 52 -57 79t-97 27q-76 0 -135.5 -48.5t-93.5 -133.5h248l-41 -53h-225q-6 -24 -9.5 -44.5t-5.5 -44.5h171l-39 -54h-131q9 -82 55 -132t121 -50 q65 0 109 25.5t81 81.5l79 -31q-48 -79 -120 -119t-161 -40q-67 0 -115.5 22.5t-79.5 59t-46.5 84.5t-18.5 99h-118l41 54v0z" />
<glyph unicode="&#x2122;" horiz-adv-x="974" d="M140 701h318v-63h-124v-331h-70v331h-124v63zM610 701l98 -298l97 298h114v-394h-71v293l-102 -293h-76l-103 293v-293h-70v394h113z" />
<glyph unicode="&#x25fc;" horiz-adv-x="519" d="M0 520h520v-520h-520v520z" />
<glyph horiz-adv-x="291" d="M176 869q0 10 8.5 24t29.5 14q6 0 13 -2q5 -2 11 -5t11 -11l88 -108h-77l-40 30t-25.5 22t-14 18.5t-4.5 17.5v0z" />
<glyph horiz-adv-x="301" d="M156 781q4 2 14 10.5t24 20.5t30 26t31.5 26t27 21.5t16.5 12.5q15 9 28 9q15 0 26 -11t11 -27q0 -13 -6 -21.5t-14 -13.5q-6 -4 -21 -12t-32 -16.5l-31 -15.5l-18 -9h-86v0z" />
<glyph horiz-adv-x="450" d="M158 785l140 106q27 20 57 20q28 0 47 -20l95 -106h-97l-57 64l-85 -64h-100v0z" />
<glyph horiz-adv-x="448" d="M169 834q0 23 16.5 39.5t40.5 16.5t40.5 -16.5t16.5 -39.5q0 -24 -16.5 -40t-40.5 -16t-40.5 16t-16.5 40v0zM448 890q24 0 40 -16.5t16 -39.5q0 -24 -16 -40t-40 -16q-23 0 -39.5 16t-16.5 40q0 23 16.5 39.5t39.5 16.5v0z" />
<glyph horiz-adv-x="478" d="M157 787q22 57 57.5 82.5t77.5 25.5q26 0 44 -7t32.5 -15t28.5 -15t29 -7q20 0 31.5 10t22.5 20q13 14 28 14q18 0 28 -16.5t-2 -33.5q-13 -21 -38.5 -40.5t-69.5 -19.5q-23 0 -39 6.5t-31 15t-29.5 15.5t-35.5 7q-24 0 -40.5 -11t-24.5 -31h-69v0z" />
</font>
</defs>
</svg>
