<?xml version="1.0" standalone="no"?>
<!DOCTYPE svg PUBLIC "-//W3C//DTD SVG 1.1//EN" "http://www.w3.org/Graphics/SVG/1.1/DTD/svg11.dtd" >
<svg xmlns="http://www.w3.org/2000/svg" xmlns:xlink="http://www.w3.org/1999/xlink" version="1.1">
<metadata></metadata>
<defs>
<font id="atkinson_hyperlegiblebold" horiz-adv-x="601" >
<font-face units-per-em="1000" ascent="800" descent="-200" />
<missing-glyph horiz-adv-x="336" />
<glyph horiz-adv-x="0" />
<glyph unicode="&#xd;" horiz-adv-x="0" />
<glyph unicode=" "  horiz-adv-x="336" />
<glyph unicode="&#x09;" horiz-adv-x="336" />
<glyph unicode="&#xa0;" horiz-adv-x="336" />
<glyph unicode="!" horiz-adv-x="297" d="M149 192q21 0 39.5 -8t32.5 -21.5t22 -32.5t8 -40t-8 -39.5t-22 -33t-32.5 -22.5t-39.5 -8q-43 0 -73 30t-30 73t30 72.5t73 29.5v0zM46 701h204v-181l-44 -265h-117l-43 265v181z" />
<glyph unicode="&#x22;" horiz-adv-x="430" d="M191 701l-15 -245h-119l-15 245h149zM388 701l-14 -245h-119l-16 245h149z" />
<glyph unicode="#" horiz-adv-x="822" d="M25 133l21 146h135l21 142h-135l21 147h135l20 133h147l-20 -133h143l20 133h148l-19 -133h135l-22 -146h-135l-19 -142h134l-21 -147h-136l-18 -133h-148l18 133h-142l-19 -133h-148l19 133h-135zM472 280l20 141h-143l-20 -141h143z" />
<glyph unicode="$" horiz-adv-x="649" d="M26 165l151 54q23 -76 109 -93v165l-43 9q-42 10 -81 25t-68.5 38t-47 56.5t-17.5 78.5q0 50 22.5 88.5t58.5 64.5t82 41.5t94 19.5v72h76v-72q77 -6 140.5 -42t92.5 -108l-150 -55q-10 26 -31 43t-52 25v-150l12 -2q43 -7 87.5 -19.5t81 -35.5t60 -58.5t23.5 -90.5 q0 -51 -22 -92t-59.5 -70t-84.5 -46.5t-98 -22.5v-79h-76v81q-99 8 -164.5 53.5t-95.5 121.5v0zM456 198q0 29 -25.5 46.5t-68.5 29.5v-151q36 4 65 21.5t29 53.5v0zM279 442l7 -1v139q-38 -6 -62 -22.5t-24 -44.5q0 -27 21.5 -46t57.5 -25v0z" />
<glyph unicode="%" horiz-adv-x="1025" d="M587 195q0 43 16.5 80.5t44 65.5t65.5 44t81 16t80.5 -16t65.5 -44t44.5 -65.5t16.5 -80.5t-16.5 -80.5t-44.5 -66t-65.5 -45t-80.5 -16.5t-81 16.5t-65.5 45t-44 66t-16.5 80.5v0zM232 714q43 0 80.5 -16.5t65.5 -44.5t44.5 -66t16.5 -81t-16.5 -80.5t-44.5 -65 t-65.5 -44t-80.5 -16.5t-81 16.5t-65.5 44t-44 65t-16.5 80.5t16.5 81t44 66t65.5 44.5t81 16.5v0zM711 195q0 -34 24.5 -58.5t58.5 -24.5q33 0 58 24.5t25 58.5t-25 58t-58 24q-34 0 -58.5 -24t-24.5 -58v0zM150 506q0 -34 24 -58t58 -24q35 0 59 24t24 58q0 35 -24 59 t-59 24q-34 0 -58 -24t-24 -59v0zM692 701h133l-491 -701h-132z" />
<glyph unicode="&#x26;" horiz-adv-x="737" d="M191 404q-33 43 -48.5 83t-15.5 76q0 40 17 72.5t46 56t69 36.5t86 13q38 0 74.5 -14.5t64.5 -39t45.5 -58.5t17.5 -71q0 -47 -30 -95.5t-102 -92.5l98 -114q20 32 35.5 69.5t24.5 82.5h134q-13 -78 -42.5 -145t-62.5 -111l131 -152h-185l-48 56q-60 -37 -115 -53.5 t-106 -16.5q-56 0 -103 18t-80.5 48t-52 69t-18.5 80q0 56 39.5 111.5t126.5 91.5v0zM300 118q24 0 53 8.5t59 26.5l-133 151q-47 -17 -67 -43.5t-20 -53.5q0 -36 30.5 -62.5t77.5 -26.5v0zM338 459q40 21 58 46.5t18 48.5q0 29 -21 48.5t-54 19.5q-27 0 -46.5 -15.5 t-19.5 -42.5q0 -21 14.5 -48t50.5 -57v0z" />
<glyph unicode="'" horiz-adv-x="233" d="M191 701l-15 -245h-119l-15 245h149z" />
<glyph unicode="(" horiz-adv-x="384" d="M152 701h151q-61 -93 -89.5 -195t-28.5 -216q0 -65 12.5 -127t34.5 -120t51.5 -111.5t64.5 -100.5h-159q-69 98 -110.5 214.5t-41.5 248.5q0 110 30 213t85 194v0z" />
<glyph unicode=")" horiz-adv-x="384" d="M37 -169q34 47 64 100.5t51.5 111.5t34.5 120t13 127q0 114 -28.5 216t-90.5 195h151q56 -91 86 -194t30 -213q0 -132 -41 -248.5t-111 -214.5h-159v0z" />
<glyph unicode="*" horiz-adv-x="455" d="M302 508l62 -86l-74 -53l-62 85l-62 -85l-75 53l62 86l-101 33l29 87l101 -33v106h92v-106l99 33l29 -87z" />
<glyph unicode="+" horiz-adv-x="648" d="M56 328h201v193h135v-193h201v-135h-201v-193h-135v193h-201v135z" />
<glyph unicode="," horiz-adv-x="290" d="M146 192q21 0 39.5 -8t32.5 -22t22 -32.5t8 -40.5q0 -19 -6 -37l-81 -205h-95l56 144q-34 8 -56.5 35.5t-22.5 63.5q0 43 30 72.5t73 29.5v0z" />
<glyph unicode="-" horiz-adv-x="428" d="M43 193v136h342v-136h-342z" />
<glyph unicode="." horiz-adv-x="290" d="M43 90q0 43 30 72.5t73 29.5q21 0 39.5 -8t32.5 -21.5t22 -32.5t8 -40t-8 -39.5t-22 -33t-32.5 -22.5t-39.5 -8q-43 0 -73 30t-30 73v0z" />
<glyph unicode="/" horiz-adv-x="464" d="M290 701h158l-272 -701h-160z" />
<glyph unicode="0" horiz-adv-x="684" d="M47 352q0 84 19.5 151t57.5 114t94 72t130 25t130 -25t94 -72t57.5 -114t19.5 -151t-19.5 -151.5t-57.5 -114.5t-94 -73t-130 -26t-130 26t-94 73t-57.5 114.5t-19.5 151.5v0zM348 106q52 0 85 40l-214 307q-4 -23 -6 -47.5t-2 -53.5q0 -127 38 -186.5t99 -59.5v0z M478 258q6 41 6 93q0 128 -37 186t-99 58q-48 0 -81 -34l211 -303v0z" />
<glyph unicode="1" horiz-adv-x="470" d="M49 470v130q41 0 72 2.5t54 13t40.5 30.5t31.5 55h121v-701h-159v470h-160v0z" />
<glyph unicode="2" horiz-adv-x="615" d="M36 0v131l45 33q29 21 65.5 46.5t73 54.5t70.5 60t61 63t43.5 63.5t16.5 60.5q0 41 -29 62t-68 21q-17 0 -33 -4t-31 -14t-26 -27t-17 -41l-145 53q28 73 97 112.5t162 39.5q54 0 99.5 -13.5t79 -39.5t52.5 -64t19 -88q0 -53 -23 -102t-65.5 -95t-104 -91t-139.5 -90h335 v-131h-538v0z" />
<glyph unicode="3" horiz-adv-x="635" d="M180 200q13 -52 49.5 -73t80.5 -21q50 0 79 23.5t29 67.5q0 33 -16 54t-43 33t-62.5 17t-74.5 5v111q91 0 139.5 24.5t48.5 71.5q0 21 -9 36.5t-24.5 25.5t-35 15t-41.5 5q-39 0 -71.5 -18.5t-42.5 -67.5l-144 53q16 40 43 68.5t63 47t77.5 27.5t84.5 9q48 0 95 -10.5 t83.5 -33t59 -56.5t22.5 -82q0 -28 -8.5 -53t-22 -45.5t-31 -37t-36.5 -26.5q27 -10 47 -28.5t34 -40.5t21.5 -47t7.5 -49q0 -55 -23 -96t-61.5 -67.5t-88.5 -40.5t-103 -14q-45 0 -87 9.5t-77.5 29t-63.5 49.5t-43 72l145 53v0z" />
<glyph unicode="4" horiz-adv-x="657" d="M24 265l341 436h160v-412h97v-141h-97v-148h-160v148h-341v117zM197 289h168v203z" />
<glyph unicode="5" horiz-adv-x="642" d="M43 146l139 50q14 -51 47 -70.5t72 -19.5q56 0 91.5 32t35.5 94q0 33 -10 56.5t-27 39t-39.5 23t-47.5 7.5q-77 0 -115 -68l-142 52l44 359h470v-130h-337l-16 -131q24 18 63.5 27.5t76.5 9.5q47 0 91 -15.5t78 -46.5t55 -76.5t21 -106.5q0 -60 -23 -106t-62 -76.5 t-90.5 -46.5t-107.5 -16q-93 0 -163 40t-104 119v0z" />
<glyph unicode="6" horiz-adv-x="663" d="M54 338q0 76 16.5 144t53.5 119.5t94 82t139 30.5q80 0 133.5 -28t80.5 -74l-143 -51q-10 18 -32 27.5t-50 9.5q-56 0 -91 -42.5t-35 -132.5q27 24 62.5 38t88.5 14q47 0 90.5 -18.5t76.5 -51t52.5 -78t19.5 -99.5q0 -55 -20.5 -99.5t-56.5 -76t-86 -48.5t-110 -17 q-76 0 -129.5 27t-87.5 74t-50 111.5t-16 138.5v0zM336 106q51 0 80.5 33.5t29.5 90.5q0 56 -29.5 90.5t-81.5 34.5q-50 0 -81 -33.5t-31 -90.5t30.5 -91t82.5 -34v0z" />
<glyph unicode="7" horiz-adv-x="570" d="M87 0l285 570h-356v131h525v-131l-270 -570h-184z" />
<glyph unicode="8" horiz-adv-x="656" d="M160 396q-16 25 -25 54t-9 61q0 42 14.5 79t41.5 64.5t64.5 43.5t82.5 16t81.5 -16t63.5 -43.5t41.5 -64.5t14.5 -79q0 -32 -9 -61t-25 -53q59 -34 89.5 -75t30.5 -106q0 -55 -22 -97.5t-60 -72t-90.5 -44.5t-114.5 -15t-115 15.5t-91.5 44.5t-60.5 72t-22 98 q0 64 30 105t90 74v0zM205 216q0 -44 34 -70t90 -26q53 0 88 26.5t35 69.5q0 44 -35 68.5t-88 24.5q-56 0 -90 -24.5t-34 -68.5v0zM329 438q29 0 49.5 21t20.5 51q0 31 -20 52t-50 21q-31 0 -52 -21t-21 -52q0 -30 21 -51t52 -21v0z" />
<glyph unicode="9" horiz-adv-x="589" d="M40 463q0 51 19.5 97t53.5 79.5t79 53.5t97 20t98 -20t80.5 -54t54.5 -80t20 -98q0 -56 -25 -109l-171 -352h-168l114 212q-52 0 -98 19.5t-80 53.5t-54 80t-20 98v0zM292 352q22 0 42 8.5t35 23.5t23.5 35t8.5 42q0 4 -1 6v5q-5 44 -36 71.5t-73 27.5h-10 q-44 -4 -71.5 -35.5t-27.5 -73.5v-9q2 -23 11.5 -41t24.5 -31t34 -21t40 -8v0z" />
<glyph unicode=":" horiz-adv-x="290" d="M43 90q0 43 30 72.5t73 29.5q21 0 39.5 -8t32.5 -21.5t22 -32.5t8 -40t-8 -39.5t-22 -33t-32.5 -22.5t-39.5 -8q-43 0 -73 30t-30 73v0zM146 536q21 0 39.5 -8t32.5 -22.5t22 -33t8 -39.5t-8 -39.5t-22 -32t-32.5 -21.5t-39.5 -8t-40 8t-33 21.5t-22 32t-8 39.5 q0 43 30 73t73 30v0z" />
<glyph unicode=";" horiz-adv-x="290" d="M146 192q21 0 39.5 -8t32.5 -21.5t22 -32.5t8 -40q0 -20 -6 -38l-81 -205h-95l56 144q-34 8 -56.5 35.5t-22.5 63.5q0 43 30 72.5t73 29.5v0zM146 536q21 0 39.5 -8t32.5 -22.5t22 -33t8 -39.5t-8 -39.5t-22 -32t-32.5 -21.5t-39.5 -8t-40 8t-33 21.5t-22 32t-8 39.5 q0 43 30 73t73 30v0z" />
<glyph unicode="&#x3c;" d="M560 536v-150l-341 -124l341 -126v-149l-518 223v104z" />
<glyph unicode="=" horiz-adv-x="648" d="M56 297v133h537v-133h-537zM593 236v-135h-537v135h537z" />
<glyph unicode="&#x3e;" d="M42 386v150l518 -222v-104l-518 -223v149l341 126z" />
<glyph unicode="?" horiz-adv-x="644" d="M42 563q29 73 103 112t179 39q52 0 100 -11t85.5 -33t60 -55.5t22.5 -80.5q0 -34 -10 -60.5t-27.5 -47t-42 -36t-52.5 -28.5q-25 -11 -44 -21.5t-31.5 -22t-19.5 -27t-8 -36.5h-162q0 37 6 64t19.5 47.5t34.5 37t51 32.5l39 19q16 6 31 13.5t26.5 15.5t18.5 18.5t7 23.5 q0 26 -29.5 43t-80.5 17q-47 0 -82.5 -18t-49.5 -58l-144 53v0zM277 192q43 0 72.5 -29.5t29.5 -72.5t-29.5 -73t-72.5 -30t-72.5 30t-29.5 73t29.5 72.5t72.5 29.5v0z" />
<glyph unicode="@" horiz-adv-x="791" d="M37 351q0 74 28 140.5t78 115.5t116.5 78t141.5 29q73 0 137.5 -27t112 -73t76 -109.5t28.5 -136.5v-13q-2 -51 -18.5 -87.5t-40 -60t-52.5 -35t-57 -11.5q-37 0 -67 17.5t-43 51.5q-24 -34 -57 -50.5t-66 -16.5q-27 0 -53.5 11t-46.5 32.5t-32 53t-12 73.5 q0 60 17 100.5t45 65t65 35t77 10.5q31 0 63 -6t62 -15v-199q0 -36 17 -54t39 -18q27 0 51 25.5t28 82.5v14q0 58 -22 106.5t-59.5 84.5t-87 55.5t-106.5 19.5q-61 0 -113.5 -23t-92 -63t-62 -92t-22.5 -112t23 -113t63 -92t93 -61.5t114 -22.5q74 0 140 38v-82 q-67 -30 -143 -30q-75 0 -141 28.5t-115.5 78t-77.5 115.5t-28 142v0zM312 335q0 -37 17 -55t41 -18q25 0 47.5 23.5t22.5 70.5v88q-8 2 -18 3t-21 1q-17 0 -32.5 -4.5t-28 -17t-20.5 -34.5t-8 -57v0z" />
<glyph unicode="A" horiz-adv-x="724" d="M271 701h183l265 -701h-180l-42 125h-269l-42 -125h-181zM273 259h179l-91 267z" />
<glyph unicode="B" horiz-adv-x="679" d="M353 701q57 0 105.5 -7.5t84.5 -28t56.5 -56t20.5 -90.5q0 -49 -22 -85.5t-61 -60.5q49 -17 80 -55t31 -102q0 -58 -20.5 -99.5t-58 -67.5t-89.5 -37.5t-116 -11.5h-318v701h307v0zM212 296v-158h153q54 0 80.5 21.5t26.5 57.5q0 37 -26.5 58t-80.5 21h-153v0zM212 566 v-142h146q42 0 65.5 19.5t23.5 52.5t-23.5 51.5t-65.5 18.5h-146v0z" />
<glyph unicode="C" horiz-adv-x="715" d="M392 714q99 0 173 -44t114 -119l-147 -53q-24 43 -63.5 61.5t-82.5 18.5q-36 0 -67.5 -15.5t-55.5 -45t-37.5 -71.5t-13.5 -95q0 -55 13.5 -97.5t37.5 -71.5t56 -43.5t69 -14.5q20 0 41 3.5t41 12.5t37.5 24.5t30.5 38.5l146 -54q-44 -75 -120.5 -118.5t-176.5 -43.5 q-81 0 -146.5 25.5t-110.5 72.5t-69 114.5t-24 151.5q0 83 24.5 150t70.5 114.5t112 73t148 25.5v0z" />
<glyph unicode="D" horiz-adv-x="716" d="M277 701q86 0 160 -17t129 -58t86.5 -108.5t31.5 -166.5q0 -101 -31.5 -168t-86.5 -107.5t-129 -58t-160 -17.5h-231v701h231v0zM212 140h68q46 0 88 6.5t74 29t51 64t19 111.5q0 69 -19 111t-51 64.5t-74 30t-88 7.5h-68v-424v0z" />
<glyph unicode="E" horiz-adv-x="609" d="M46 701h540v-146h-374v-121h228v-146h-228v-142h374v-146h-540v701z" />
<glyph unicode="F" horiz-adv-x="571" d="M46 701h502v-146h-336v-121h336v-146h-336v-288h-166v701z" />
<glyph unicode="G" horiz-adv-x="754" d="M394 714q92 0 166 -36t116 -109l-143 -59q-17 28 -52 48t-89 20q-38 0 -70.5 -14.5t-57 -43t-38.5 -70.5t-14 -97q0 -111 50.5 -170t132.5 -59q28 0 56.5 5.5t50.5 20t35.5 37t13.5 56.5v19h-157v135h323v-397h-109l-23 78q-34 -46 -87 -68.5t-128 -22.5q-77 0 -139 26 t-105 73t-66 115t-23 152q0 83 25.5 149.5t73 114t113 72.5t145.5 25v0z" />
<glyph unicode="H" horiz-adv-x="712" d="M46 701h166v-267h289v267h166v-701h-166v288h-289v-288h-166v701z" />
<glyph unicode="I" horiz-adv-x="480" d="M159 130v441h-99v130h361v-130h-97v-441h97v-130h-361v130h99z" />
<glyph unicode="J" horiz-adv-x="588" d="M158 239q4 -22 12 -44t22 -38.5t32.5 -27t43.5 -10.5q52 0 80 33t28 117v432h166v-432q0 -133 -69.5 -207.5t-204.5 -74.5q-110 0 -175.5 53.5t-87.5 143.5l153 55v0z" />
<glyph unicode="K" horiz-adv-x="691" d="M46 0v701h166v-278l253 278h203l-277 -300l290 -401h-192l-205 286l-72 -79v-207h-166z" />
<glyph unicode="L" horiz-adv-x="563" d="M548 146v-146h-502v701h166v-555h336z" />
<glyph unicode="M" horiz-adv-x="884" d="M46 0v701h249l146 -503l148 503h249v-701h-162v551l-167 -551h-136l-166 551v-551h-161z" />
<glyph unicode="N" horiz-adv-x="735" d="M257 701l271 -499v499h161v-701h-212l-271 500v-500h-160v701h211z" />
<glyph unicode="O" horiz-adv-x="802" d="M37 351q0 82 26 149t74.5 114.5t115 73.5t147.5 26t148 -26t115.5 -73.5t75 -114.5t26.5 -149t-26.5 -149.5t-75 -114.5t-115.5 -73.5t-148 -26.5t-147.5 26.5t-115 73.5t-74.5 114.5t-26 149.5v0zM212 351q0 -56 15.5 -98.5t41 -71t59.5 -43t72 -14.5q39 0 73 14.5 t60 43t41 71t15 98.5q0 55 -15 97.5t-41 71t-60 43.5t-73 15q-38 0 -72 -15t-59.5 -43.5t-41 -71t-15.5 -97.5v0z" />
<glyph unicode="P" horiz-adv-x="665" d="M46 701h270q68 0 126.5 -10t101 -35.5t66.5 -69.5t24 -114q0 -69 -24 -113t-66.5 -69.5t-101 -35.5t-126.5 -10h-104v-244h-166v701v0zM321 381q29 0 54 3.5t44 14.5t29.5 28t10.5 45t-10.5 45t-29.5 27t-44 14t-54 4h-109v-181h109v0z" />
<glyph unicode="Q" horiz-adv-x="820" d="M400 714q81 0 148 -26t115.5 -73.5t75 -114.5t26.5 -149q0 -61 -15 -113.5t-42 -95.5l112 -106l-87 -94l-115 108q-90 -63 -218 -63q-81 0 -147.5 26.5t-115 73.5t-74.5 114.5t-26 149.5t26 149t74.5 114.5t115 73.5t147.5 26v0zM212 351q0 -56 15.5 -98.5t41 -71 t59.5 -43t72 -14.5q60 0 105 32l-150 143l87 92l136 -127q6 20 8.5 41.5t2.5 45.5q0 55 -15 97.5t-41 71t-60 43.5t-73 15q-38 0 -72 -15t-59.5 -43.5t-41 -71t-15.5 -97.5v0z" />
<glyph unicode="R" horiz-adv-x="686" d="M316 701q68 0 126.5 -9.5t101 -33.5t66.5 -66.5t24 -107.5q0 -29 -8 -59.5t-26.5 -57.5t-51 -49t-83.5 -36l204 -282h-192l-190 265h-75v-265h-166v701h270v0zM212 403h109q30 0 55 3.5t43.5 12t29 24t10.5 39.5t-10.5 40t-29 24.5t-43.5 12t-55 3.5h-109v-159v0z" />
<glyph unicode="S" horiz-adv-x="649" d="M177 219q15 -50 55 -74t99 -24q22 0 44.5 3.5t40.5 12.5t29 23t11 34q0 37 -36 57t-92 31l-85 17q-43 9 -82 24t-68 38.5t-46.5 57t-17.5 78.5q0 56 27 97t69.5 68t95.5 39.5t106 12.5q43 0 84 -8.5t76.5 -27t63.5 -47t44 -69.5l-150 -55q-15 36 -49 55t-84 19 q-48 0 -80 -17.5t-32 -50.5q0 -27 21.5 -45.5t57.5 -25.5l95 -19q43 -8 87.5 -20.5t81 -35.5t60 -58t23.5 -90t-26 -98.5t-68 -73t-95 -45t-107 -15.5q-116 0 -193.5 46.5t-110.5 131.5l151 54v0z" />
<glyph unicode="T" horiz-adv-x="647" d="M16 701h616v-146h-226v-555h-164v555h-226v146z" />
<glyph unicode="U" horiz-adv-x="689" d="M43 307v394h166v-408q0 -39 4.5 -70.5t19.5 -53.5t41.5 -34t70.5 -12q43 0 70 12t41.5 34t19.5 53.5t5 70.5v408h166v-394q0 -81 -16.5 -141.5t-52.5 -100t-93.5 -59t-139.5 -19.5q-81 0 -139 19.5t-94 59t-52.5 100t-16.5 141.5v0z" />
<glyph unicode="V" horiz-adv-x="688" d="M10 701h173l160 -515l162 515h173l-238 -701h-192z" />
<glyph unicode="W" horiz-adv-x="927" d="M10 701h166l98 -486l103 486h172l104 -486l98 486h166l-169 -701h-178l-107 494l-106 -494h-177z" />
<glyph unicode="X" horiz-adv-x="733" d="M268 360l-243 341h199l142 -201l144 201h199l-243 -341l257 -360h-199l-158 222l-156 -222h-200z" />
<glyph unicode="Y" horiz-adv-x="721" d="M10 701h194l156 -269l157 269h194l-268 -428v-273h-165v273z" />
<glyph unicode="Z" horiz-adv-x="652" d="M252 146h366v-146h-584v127l353 428h-338v146h554v-127z" />
<glyph unicode="[" horiz-adv-x="349" d="M315 701v-121h-134v-628h134v-121h-269v870h269z" />
<glyph unicode="\" horiz-adv-x="464" d="M448 0h-158l-274 701h160z" />
<glyph unicode="]" horiz-adv-x="349" d="M35 580v121h268v-870h-268v121h134v628h-134z" />
<glyph unicode="^" horiz-adv-x="618" d="M250 701h119l194 -373h-150l-103 203l-104 -203h-150z" />
<glyph unicode="_" horiz-adv-x="451" d="M10 -134v134h431v-134h-431z" />
<glyph unicode="`" horiz-adv-x="329" d="M56 705q0 24 17 41.5t41 17.5q22 0 40 -15l120 -146h-120l-78 57q-20 20 -20 45v0z" />
<glyph unicode="a" horiz-adv-x="575" d="M20 141q0 47 25.5 80t71.5 54t109.5 33t138.5 18v19q0 46 -22.5 64t-64.5 18q-33 0 -57.5 -15t-32.5 -47l-134 49q26 52 87 87t151 35q56 0 99 -12t72 -38t44.5 -67.5t15.5 -100.5v-114q0 -26 1.5 -54.5t3.5 -56t5.5 -52t7.5 -41.5h-148l-19 63q-30 -41 -74 -58.5 t-100 -17.5q-37 0 -69.5 10.5t-57.5 30.5t-39 48.5t-14 64.5v0zM258 97q24 0 44 5.5t35 19t23.5 37.5t8.5 59v13q-41 -3 -75.5 -8.5t-58.5 -14t-37 -22t-13 -34.5q0 -25 21 -40t52 -15v0z" />
<glyph unicode="b" horiz-adv-x="625" d="M212 701v-252q13 22 31 38t39.5 27t44.5 16.5t44 5.5q50 0 92 -18.5t73 -53.5t48 -85t17 -114t-17 -115t-48 -87.5t-73 -56t-92 -19.5q-21 0 -44 5t-44.5 15.5t-39.5 25.5t-31 37l-20 -70h-140v701h160v0zM205 261q0 -41 9.5 -69t25 -46t36.5 -26.5t44 -8.5t44 10.5 t37 30t25 48.5t9 65q0 35 -9 62.5t-25 46.5t-37 28.5t-44 9.5t-44 -8.5t-36.5 -27t-25 -47t-9.5 -68.5v0z" />
<glyph unicode="c" horiz-adv-x="546" d="M292 536q34 0 68 -7t65 -23t57.5 -42t44.5 -65l-133 -48q-13 33 -37.5 47t-55.5 14q-22 0 -42.5 -8t-36 -25.5t-25 -46.5t-9.5 -70q0 -42 10 -71t25.5 -46.5t36 -25.5t41.5 -8q34 0 57 13.5t37 36.5l130 -48q-20 -35 -47.5 -59.5t-58.5 -39t-63.5 -21t-63.5 -6.5 q-64 0 -114 20t-84 56.5t-51.5 87.5t-17.5 113t19.5 111.5t54.5 85.5t84 55.5t109 19.5v0z" />
<glyph unicode="d" horiz-adv-x="625" d="M255 536q21 0 44 -5.5t44 -16.5t39.5 -27t31.5 -38v252h159v-497q0 -40 3.5 -93t14.5 -111h-152l-21 70q-34 -45 -77 -64t-86 -19q-50 0 -92 19.5t-73 56t-48 87.5t-17 115t17 114t48 85t73 53.5t92 18.5v0zM307 111q23 0 44 8.5t36.5 26.5t24.5 46t9 69q0 40 -9 68.5 t-24.5 47t-36.5 27t-44 8.5q-48 0 -82 -37.5t-34 -109.5q0 -73 34 -113.5t82 -40.5v0z" />
<glyph unicode="e" horiz-adv-x="594" d="M25 264q0 62 22 112t60.5 86t89.5 55t107 19q65 0 116 -24t86 -65.5t52 -99t13 -127.5h-385q2 -27 13 -47.5t27.5 -34t37.5 -20.5t43 -7q36 0 63 10.5t42 28.5l127 -46q-41 -60 -102.5 -88.5t-125.5 -28.5q-63 0 -115.5 19t-90.5 55t-59 87.5t-21 115.5v0zM186 315h237 q-2 50 -34.5 76t-79.5 26q-45 0 -80.5 -24t-42.5 -78v0z" />
<glyph unicode="f" horiz-adv-x="385" d="M5 399v122h86v85q0 46 11.5 77t36.5 49t62.5 25t90.5 7h72v-126h-44q-21 0 -34.5 -1.5t-21.5 -6.5t-10.5 -14.5t-2.5 -24.5v-70h113v-122h-113v-399h-160v399h-86v0z" />
<glyph unicode="g" horiz-adv-x="626" d="M415 449l21 72h137v-482q0 -66 -18 -113.5t-53 -78.5t-84 -45.5t-110 -14.5q-33 0 -66 5.5t-64 20t-57.5 38.5t-43.5 60l130 47q15 -28 42 -38.5t54 -10.5q49 0 80.5 22.5t31.5 75.5v94q-34 -42 -77.5 -62t-87.5 -20q-42 0 -82.5 17.5t-72 50t-51 79t-19.5 106.5 q0 68 19 118t50 82.5t70.5 48.5t80.5 16q50 0 94.5 -22.5t75.5 -65.5v0zM307 143q23 0 44 6t36.5 22t24.5 41.5t9 63.5t-9 64t-24.5 42t-36.5 23t-44 7q-48 0 -82 -31.5t-34 -100.5t34 -103t82 -34v0z" />
<glyph unicode="h" horiz-adv-x="600" d="M52 701h160v-249q8 14 23.5 29t36 27t46 20t55.5 8q50 0 83.5 -14.5t54 -42t29 -68.5t8.5 -94v-317h-160v277q0 27 -1.5 52t-9 43.5t-24 29t-44.5 10.5q-51 0 -74 -36.5t-23 -107.5v-268h-160v701v0z" />
<glyph unicode="i" horiz-adv-x="330" d="M110 701q0 40 27.5 67.5t67.5 27.5t67 -27.5t27 -67.5q0 -38 -27 -66t-67 -28t-67.5 28t-27.5 66v0zM25 521h260v-521h-161v399h-99v122z" />
<glyph unicode="j" horiz-adv-x="271" d="M-12 -43q41 0 55.5 7.5t14.5 33.5v523h159v-546q0 -44 -15 -72.5t-42 -44.5t-63 -21.5t-79 -5.5h-92v126h62v0zM44 701q0 40 27.5 67.5t67.5 27.5q38 0 66 -27.5t28 -67.5q0 -38 -28 -66t-66 -28q-40 0 -67.5 28t-27.5 66v0z" />
<glyph unicode="k" horiz-adv-x="595" d="M52 0v701h160v-378l174 198h189l-203 -218l219 -303h-189l-135 189l-55 -58v-131h-160z" />
<glyph unicode="l" horiz-adv-x="329" d="M212 701v-512q0 -37 15 -48t54 -11h46v-130h-102q-49 0 -81.5 6t-53 21.5t-29.5 44.5t-9 75v554h160v0z" />
<glyph unicode="m" horiz-adv-x="930" d="M52 0v521h140l20 -69q8 14 23 29t35.5 27t45 20t54.5 8q63 0 99.5 -22.5t54.5 -65.5q30 44 76.5 66t101.5 22q51 0 84.5 -14.5t54 -42t29 -68.5t8.5 -94v-317h-160v277q0 27 -2 52t-10 43.5t-24 29t-45 10.5q-49 0 -70.5 -34t-21.5 -103v-275h-161v277q0 27 -1.5 52 t-9.5 43.5t-23 29t-43 10.5q-51 0 -73 -36t-22 -104v-272h-160v0z" />
<glyph unicode="n" horiz-adv-x="600" d="M52 0v521h140l20 -69q8 14 23.5 29t36 27t46 20t55.5 8q50 0 83.5 -14.5t54 -42t29 -68.5t8.5 -94v-317h-160v277q0 27 -1.5 52t-9 43.5t-24 29t-44.5 10.5q-51 0 -74 -36.5t-23 -107.5v-268h-160v0z" />
<glyph unicode="o" d="M25 262q0 71 22.5 122.5t61 85t88.5 50t104 16.5t104 -16.5t87.5 -50t60.5 -85t23 -122.5q0 -70 -23 -122t-60.5 -85.5t-87.5 -50.5t-104 -17t-104 17t-88.5 50.5t-61 85.5t-22.5 122v0zM301 111q49 0 81 35t32 116q0 41 -9 70t-24.5 46.5t-36 25.5t-43.5 8t-44 -8 t-36 -25.5t-24 -46.5t-9 -70q0 -81 32 -116t81 -35v0z" />
<glyph unicode="p" horiz-adv-x="625" d="M52 521h139l21 -72q13 22 31 38t39.5 27t44.5 16.5t44 5.5q50 0 92 -19.5t73 -55.5t48 -87t17 -114q0 -64 -17 -115t-48 -86t-73 -53.5t-92 -18.5q-21 0 -44 5.5t-44.5 16.5t-39.5 27t-31 39v-244h-160v690v0zM320 111q23 0 44 9.5t37 28.5t25 47t9 64t-9 64.5t-25 48 t-37 29.5t-44 10t-44 -8t-36.5 -26t-25 -46.5t-9.5 -67.5q0 -80 34 -116.5t81 -36.5v0z" />
<glyph unicode="q" horiz-adv-x="631" d="M25 260q0 63 17 114t48 87t73 55.5t92 19.5q21 0 44 -5.5t44 -16.5t39.5 -27t31.5 -38l21 72h138v-481q0 -16 1.5 -30t7.5 -24t18 -16t34 -6q31 0 74 11v-138q-17 -5 -48.5 -11.5t-68.5 -6.5q-31 0 -62.5 7t-57.5 26t-41.5 52t-15.5 86v84q-13 -22 -31.5 -38t-39.5 -27 t-44 -16.5t-44 -5.5q-50 0 -92 18.5t-73 53.5t-48 86t-17 115v0zM307 111q23 0 44 9t36.5 27.5t24.5 47.5t9 69q0 39 -9 67.5t-24.5 46.5t-36.5 26t-44 8q-48 0 -82 -39.5t-34 -112.5t34 -111t82 -38v0z" />
<glyph unicode="r" horiz-adv-x="390" d="M178 521l29 -96q24 63 66 88.5t102 22.5v-160q-13 2 -22.5 2.5t-20.5 0.5q-59 0 -89.5 -26.5t-30.5 -90.5v-262h-160v521h126v0z" />
<glyph unicode="s" horiz-adv-x="560" d="M158 169q11 -34 44 -49.5t78 -15.5q39 0 69 12t30 36q0 17 -18 28t-63 20l-93 15q-76 13 -123 51t-47 105q0 41 19.5 72t52 51t76 31t91.5 11q38 0 73 -6.5t65.5 -20.5t54 -36.5t38.5 -52.5l-134 -49q-9 28 -35.5 38t-62.5 10q-86 0 -86 -42q0 -16 14.5 -26t49.5 -16 l97 -18q94 -17 139 -49.5t45 -97.5q0 -46 -20.5 -80t-55 -57.5t-80.5 -34.5t-99 -11q-92 0 -158.5 33.5t-96.5 99.5l136 49v0z" />
<glyph unicode="t" horiz-adv-x="397" d="M14 521h86v130h159v-130h114v-122h-114v-210q0 -37 14.5 -48t53.5 -11h46v-130h-101q-48 0 -80.5 6t-53 21.5t-29.5 44.5t-9 75v252h-86v122v0z" />
<glyph unicode="u" horiz-adv-x="598" d="M52 521h160v-273q0 -29 1.5 -53.5t9.5 -43t23.5 -29.5t45.5 -11q50 0 71 31.5t21 104.5v274h161v-521h-139l-22 74q-23 -39 -57 -63t-94 -24q-51 0 -86.5 15t-56 42.5t-29.5 68.5t-9 95v313v0z" />
<glyph unicode="v" horiz-adv-x="552" d="M0 521h165l111 -355l111 355h165l-187 -521h-179z" />
<glyph unicode="w" horiz-adv-x="759" d="M0 521h158l78 -353l67 353h152l67 -353l79 353h158l-130 -521h-174l-76 374l-75 -374h-174z" />
<glyph unicode="x" horiz-adv-x="559" d="M193 272l-177 249h174l90 -127l90 127h174l-178 -249l194 -272h-175l-105 150l-106 -150h-174z" />
<glyph unicode="y" horiz-adv-x="543" d="M0 521h171l102 -326l100 326h171l-200 -521q-18 -49 -36.5 -81.5t-43.5 -52t-59.5 -27.5t-84.5 -8h-52v115h32q25 0 40.5 1.5t25.5 5.5t16 13t12 24l6 13l-200 518v0z" />
<glyph unicode="z" horiz-adv-x="541" d="M521 127v-127h-489v127l269 267h-255v127h460v-127l-269 -267h284z" />
<glyph unicode="{" horiz-adv-x="388" d="M25 203v129q24 0 39 6.5t22.5 20t10 31.5t2.5 40v101q0 51 13.5 84t39.5 52.5t63 26.5t84 7h54v-126h-35q-33 0 -50.5 -8t-17.5 -38v-129q0 -32 -8.5 -55.5t-22 -38t-31.5 -23.5t-37 -14v-3q19 -6 37 -14t31.5 -23.5t22 -38t8.5 -56.5v-131q0 -29 17.5 -37.5t50.5 -8.5 h35v-126h-54q-47 0 -84 7.5t-63 26.5t-39.5 52.5t-13.5 84.5v100q0 23 -2.5 42t-10 32t-22.5 20t-39 7v0z" />
<glyph unicode="|" horiz-adv-x="245" d="M46 -169v870h154v-870h-154z" />
<glyph unicode="}" horiz-adv-x="388" d="M36 701h54q48 0 84.5 -7t63 -26.5t40 -52.5t13.5 -84v-101q0 -22 2 -40t10 -31.5t22 -20t38 -6.5v-129q-24 0 -38 -7t-22 -20t-10 -32t-2 -42v-100q0 -51 -13.5 -84.5t-40 -52.5t-63 -26.5t-84.5 -7.5h-54v126h35q34 0 51.5 8.5t17.5 37.5v131q0 34 7.5 56.5t21.5 38 t31.5 23.5t36.5 14v3q-19 5 -36.5 14t-31.5 23.5t-21.5 38t-7.5 55.5v129q0 30 -17.5 38t-51.5 8h-35v126v0z" />
<glyph unicode="~" horiz-adv-x="559" d="M185 368q29 0 54 -10t46.5 -22t40.5 -22t38 -10q10 0 18 3.5t14 13t9 25.5t1 42l112 -38q-4 -41 -12 -73t-24.5 -54.5t-42 -35t-62.5 -12.5q-27 0 -51 10t-45.5 21.5t-42.5 21.5t-43 10q-9 0 -17.5 -3t-14 -12.5t-9 -25.5t-2.5 -44l-110 40q5 81 36.5 128t106.5 47v0z " />
<glyph unicode="&#xa1;" horiz-adv-x="297" d="M46 442q0 43 30 73t73 30q21 0 39.5 -8t32.5 -22t22 -33t8 -40t-8 -39.5t-22 -32t-32.5 -21.5t-39.5 -8t-40 8t-33 21.5t-22 32t-8 39.5v0zM47 13l43 265h117l43 -265v-182h-203v182z" />
<glyph unicode="&#xa2;" horiz-adv-x="546" d="M256 533v67h77v-68q58 -7 111 -38t83 -96l-133 -47q-10 24 -25.5 37.5t-34.5 18.5v-293q41 10 61 46l130 -48q-34 -60 -86 -87.5t-106 -34.5v-81h-77v79q-112 12 -171.5 85.5t-59.5 190.5q0 56 17 103t47 82t73 56.5t94 27.5v0zM256 121v281q-29 -14 -48.5 -47t-19.5 -93 q0 -62 20 -95.5t48 -45.5v0z" />
<glyph unicode="&#xa3;" horiz-adv-x="647" d="M52 109q32 15 55.5 30.5t40.5 33.5t25.5 40t8.5 51q0 24 -11 46h-119v76h79q-18 33 -31.5 68t-13.5 74q0 50 23 85t60.5 57t85 32.5t96.5 10.5q91 0 162 -39.5t101 -110.5l-143 -53q-11 41 -45.5 58.5t-72.5 17.5q-43 0 -71 -19t-28 -53q0 -33 16.5 -64t33.5 -64h168v-76 h-132q8 -19 8 -42q0 -44 -33 -81.5t-78 -65.5q22 12 44 16t45 4q19 0 39 -4t39 -7.5t37 -7t35 -3.5q28 0 54 8t54 24l46 -127q-37 -18 -77 -27.5t-91 -9.5q-28 0 -54.5 6t-52.5 13.5t-51.5 13t-51.5 5.5q-23 0 -59.5 -6t-82.5 -32l-58 122v0z" />
<glyph unicode="&#xa4;" horiz-adv-x="625" d="M126 204q-21 28 -32 61.5t-11 71.5q0 37 11 70t32 61l-70 71l54 54l71 -70q28 21 61.5 32t70.5 11q38 0 71 -11t61 -32l71 70l54 -54l-70 -71q42 -57 42 -131q0 -38 -11 -71.5t-31 -61.5l70 -71l-54 -54l-71 70q-58 -42 -132 -42q-75 0 -132 42l-71 -70l-54 54l70 71v0z M313 232q21 0 40 8.5t33 22.5t22.5 33t8.5 41q0 21 -8.5 40t-22.5 33t-33 22t-40 8q-44 0 -74 -30t-30 -73q0 -44 30 -74.5t74 -30.5v0z" />
<glyph unicode="&#xa5;" horiz-adv-x="721" d="M204 700l156 -268l157 268h194l-251 -400h120v-77h-137v-67h137v-77h-137v-79h-165v79h-135v77h135v67h-135v77h118l-251 400h194z" />
<glyph unicode="&#xa6;" horiz-adv-x="226" d="M181 701v-325h-135v325h135zM46 -169v327h135v-327h-135z" />
<glyph unicode="&#xa7;" horiz-adv-x="606" d="M112 442q-19 24 -30 52t-11 59q0 40 18.5 70t49 50t71.5 30.5t86 10.5q32 0 63.5 -6t60.5 -19.5t53.5 -36t39.5 -56.5l-136 -49q-2 5 -7 13t-14.5 15.5t-24 12.5t-36.5 5q-31 0 -49 -9.5t-18 -25.5q0 -18 16.5 -32t47.5 -28l128 -63q76 -37 117.5 -76t41.5 -99 q0 -44 -26 -79.5t-72 -60.5q22 -24 34 -52t12 -63q0 -43 -17.5 -77.5t-49 -58.5t-75 -37.5t-94.5 -13.5q-85 0 -142.5 39t-81.5 106l137 50q9 -37 32.5 -54.5t58.5 -17.5t54.5 14.5t19.5 37.5q0 24 -20 43t-58 36l-121 59q-70 34 -109 76.5t-39 102.5q0 40 25 74t65 58v0z M243 258l131 -65q21 10 32.5 21t11.5 28q0 24 -22.5 38.5t-58.5 32.5l-115 57q-44 -21 -44 -48q0 -21 18 -35t47 -29v0z" />
<glyph unicode="&#xa8;" horiz-adv-x="474" d="M62 680q0 31 22 53t52 22q31 0 52.5 -22t21.5 -53q0 -30 -21.5 -51.5t-52.5 -21.5q-30 0 -52 21.5t-22 51.5v0zM266 680q0 31 22 53t52 22q31 0 52 -22t21 -53q0 -30 -21 -51.5t-52 -21.5q-30 0 -52 21.5t-22 51.5v0z" />
<glyph unicode="&#xa9;" horiz-adv-x="837" d="M56 351q0 74 28 140.5t77.5 115.5t115.5 77.5t141 28.5q76 0 142 -28.5t116 -77.5t78 -115.5t28 -140.5q0 -76 -28 -142t-78 -115.5t-116 -78t-142 -28.5q-75 0 -141 28.5t-115.5 78t-77.5 115.5t-28 142v0zM418 60q60 0 113 23t92.5 62.5t62.5 92.5t23 113t-23 113 t-62.5 92t-92.5 61.5t-113 22.5t-112.5 -22.5t-92 -61.5t-62 -92t-22.5 -113t22.5 -113t62 -92.5t92 -62.5t112.5 -23v0zM421 548q24 0 49.5 -5t48 -17t42 -30.5t31.5 -46.5l-96 -35q-10 24 -28 34.5t-41 10.5q-15 0 -29.5 -6t-26 -19t-18.5 -33.5t-7 -49.5q0 -31 7 -52 t18.5 -33.5t26.5 -18t29 -5.5q50 0 70 35l94 -34q-29 -51 -76.5 -71t-93.5 -20q-92 0 -142 54.5t-50 144.5q0 44 14 80.5t39.5 62.5t61 40t77.5 14v0z" />
<glyph unicode="&#xaa;" horiz-adv-x="414" d="M83 578q22 17 59.5 24t70.5 11l37 4v7q0 30 -42 30q-15 0 -26.5 -5t-14.5 -20l-91 33q15 32 52 48t92 16q68 0 101 -28t33 -91v-63q0 -27 0.5 -57.5t4.5 -63.5h-88l-10 34q-11 -18 -33 -30t-60 -12q-27 0 -48 8.5t-35.5 22t-21.5 32t-7 38.5q0 42 27 62v0zM165 520 q0 -12 8.5 -21t26.5 -9q22 0 37 11.5t15 32.5v18l-39 -3q-28 -2 -38 -10t-10 -19v0z" />
<glyph unicode="&#xab;" horiz-adv-x="702" d="M56 264l155 220h182l-156 -220l157 -222h-183zM309 264l153 220h184l-157 -220l158 -222h-185z" />
<glyph unicode="&#xac;" horiz-adv-x="648" d="M593 443v-384h-134v251h-403v133h537z" />
<glyph unicode="&#xad;" horiz-adv-x="428" d="M43 193v136h342v-136h-342z" />
<glyph unicode="&#xae;" horiz-adv-x="837" d="M56 351q0 74 28 140.5t77.5 115.5t115.5 77.5t141 28.5q76 0 142 -28.5t116 -77.5t78 -115.5t28 -140.5q0 -76 -28 -142t-78 -115.5t-116 -78t-142 -28.5q-75 0 -141 28.5t-115.5 78t-77.5 115.5t-28 142v0zM129 351q0 -60 22.5 -113t62 -92.5t92 -62.5t112.5 -23t113 23 t92.5 62.5t62.5 92.5t23 113t-23 113t-62.5 92t-92.5 61.5t-113 22.5t-112.5 -22.5t-92 -61.5t-62 -92t-22.5 -113v0zM253 555h159q37 0 69 -5t56 -18t37 -36.5t13 -59.5q0 -17 -4 -33.5t-14 -31t-28 -26.5t-45 -19l112 -157h-113l-107 146h-33v-146h-102v386v0zM410 394 q30 0 50.5 8t20.5 33t-20.5 33t-50.5 8h-55v-82h55v0z" />
<glyph unicode="&#xaf;" horiz-adv-x="425" d="M56 598v103h314v-103h-314z" />
<glyph unicode="&#xb0;" horiz-adv-x="424" d="M42 543q0 35 13.5 65.5t37 54t54 37t65.5 13.5q36 0 67 -13.5t54 -37t36 -54t13 -65.5q0 -36 -13 -67t-36 -54t-54 -36.5t-67 -13.5q-35 0 -65.5 13.5t-54 36.5t-37 54t-13.5 67v0zM212 466q33 0 55 22.5t22 54.5q0 31 -22 54t-55 23q-31 0 -54 -23t-23 -54 q0 -32 23 -54.5t54 -22.5v0z" />
<glyph unicode="&#xb1;" horiz-adv-x="648" d="M56 411h201v109h135v-109h201v-114h-201v-108h-135v108h-201v114zM56 134h537v-134h-537v134z" />
<glyph unicode="&#xb2;" horiz-adv-x="427" d="M56 508l37 26q28 19 58 40t55 43.5t41.5 45.5t16.5 44q0 19 -13.5 28t-32.5 9q-23 0 -37 -12.5t-18 -32.5l-96 35q17 44 57 67t100 23q31 0 58.5 -6.5t47 -21t31 -35.5t11.5 -50q0 -30 -11.5 -54.5t-34 -47.5t-53 -46t-68.5 -49h166v-91h-315v85v0z" />
<glyph unicode="&#xb3;" horiz-adv-x="433" d="M56 502l95 35q8 -21 25 -31t39 -10q28 0 40.5 12t12.5 30q0 23 -19.5 32.5t-57.5 9.5h-16v88h16q68 0 68 40q0 20 -15 28t-33 8q-19 0 -34.5 -8.5t-22.5 -26.5l-93 34q18 40 58 60.5t96 20.5q66 0 109.5 -27.5t43.5 -79.5q0 -31 -15.5 -54t-36.5 -33q28 -10 45 -35 t17 -59q0 -30 -13 -52.5t-36 -38t-52.5 -23t-63.5 -7.5q-58 0 -98 22.5t-59 64.5v0z" />
<glyph unicode="&#xb4;" horiz-adv-x="329" d="M172 744q3 5 13.5 12t29.5 7q25 0 42 -16.5t17 -41.5q0 -28 -20 -45l-79 -57h-119l116 141v0z" />
<glyph unicode="&#xb6;" horiz-adv-x="540" d="M25 502q0 41 16 77t42.5 63t63 42.5t77.5 15.5h296v-70h-50v-800h-99v800h-97v-800h-100v480q-31 8 -58.5 26t-47.5 43t-31.5 56.5t-11.5 66.5v0z" />
<glyph unicode="&#xb7;" horiz-adv-x="316" d="M56 260q0 43 30 72.5t73 29.5q21 0 39 -8t32.5 -21.5t22 -32.5t7.5 -40t-7.5 -39.5t-22 -32.5t-32.5 -21.5t-39 -7.5q-43 0 -73 29t-30 72v0z" />
<glyph unicode="&#xb8;" horiz-adv-x="337" d="M77 -183l16 53q9 -5 27.5 -9.5t37.5 -4.5q18 0 32 6.5t14 21.5q0 13 -10.5 20.5t-28.5 7.5q-13 0 -29 -5q-9 -4 -17 2q-9 4 -11.5 12.5t2.5 16.5l55 88l43 -26l-32 -50q15 3 36 3q15 0 31 -3.5t29.5 -11t21.5 -20t8 -30.5q0 -23 -11.5 -39t-29.5 -26t-42.5 -14.5 t-49.5 -4.5t-48.5 3.5t-43.5 9.5v0z" />
<glyph unicode="&#xb9;" horiz-adv-x="305" d="M56 679v92q43 0 71.5 7t39.5 40h83v-395h-106v256h-88v0z" />
<glyph unicode="&#xba;" horiz-adv-x="429" d="M60 569q0 40 12.5 69t34.5 48t51 28t61 9q33 0 62 -9t50.5 -28t34 -48t12.5 -69q0 -39 -12.5 -68.5t-34 -48t-50.5 -28t-62 -9.5q-32 0 -61 9.5t-51 28t-34.5 48t-12.5 68.5v0zM219 496q23 0 37.5 18t14.5 55t-14.5 55.5t-37.5 18.5q-21 0 -36 -18.5t-15 -55.5t15 -55 t36 -18v0z" />
<glyph unicode="&#xbb;" horiz-adv-x="702" d="M56 42l157 222l-156 220h182l155 -220l-155 -222h-183zM464 264l-155 220h182l156 -220l-156 -222h-182z" />
<glyph unicode="&#xbc;" horiz-adv-x="895" d="M56 562v92q43 0 71.5 7t39.5 39h83v-393h-106v255h-88v0zM116 0l491 700h133l-491 -700h-133zM483 160l190 234h106v-225h61v-91h-61v-78h-106v78h-190v82zM673 169v100l-82 -100h82z" />
<glyph unicode="&#xbd;" horiz-adv-x="898" d="M527 85q26 19 62 42.5t68.5 50t55 52.5t22.5 49q0 22 -13 32t-32 10q-24 0 -38 -12.5t-19 -32.5l-95 35q16 44 56 66.5t100 22.5q32 0 59 -7t47 -20.5t31.5 -35t11.5 -49.5q0 -30 -12 -54.5t-33.5 -47.5t-52.5 -46t-69 -49h166v-91h-315v85v0zM56 562v92q43 0 71.5 7 t39.5 39h83v-393h-106v255h-88v0zM607 700h133l-491 -700h-133z" />
<glyph unicode="&#xbe;" horiz-adv-x="1006" d="M151 424q8 -20 25 -30t39 -10q28 0 40.5 11.5t12.5 28.5q0 24 -19.5 34t-57.5 10h-16v88h16q68 0 68 41q0 18 -15 27t-33 9q-19 0 -34.5 -9t-22.5 -27l-93 35q18 40 58.5 60.5t98.5 20.5q64 0 107 -28t43 -79q0 -32 -15.5 -54.5t-36.5 -32.5q28 -11 45 -35.5t17 -59.5 q0 -28 -13 -50.5t-36 -38t-52.5 -23.5t-63.5 -8q-58 0 -98 23t-59 64l95 33v0zM701 700h134l-492 -700h-133zM785 394h106v-225h60v-91h-60v-78h-106v78h-190v82zM702 169h83v100z" />
<glyph unicode="&#xbf;" horiz-adv-x="644" d="M185 170q25 12 44 22t31.5 22t19.5 27t8 37h161q0 -36 -5.5 -63.5t-19 -49t-36 -38.5t-54.5 -34q-18 -9 -38.5 -17.5t-38.5 -18t-29.5 -21t-11.5 -26.5q0 -29 29 -46.5t78 -17.5q50 0 86 17.5t50 57.5l144 -53q-30 -72 -104 -111t-178 -39q-51 0 -100 11t-86 33t-60 56 t-23 80q0 35 10 60.5t28 46t42 36t53 29.5v0zM266 442q0 21 7.5 40t22 33t32.5 22t40 8q43 0 72 -30t29 -73t-29 -72.5t-72 -29.5q-22 0 -40 8t-32.5 21.5t-22 32.5t-7.5 40v0z" />
<glyph unicode="&#xc0;" horiz-adv-x="724" d="M271 701h183l265 -701h-180l-42 125h-269l-42 -125h-181zM273 259h179l-91 267zM184 870q0 24 18 41.5t41 17.5q22 0 40 -15l5.5 -6.5t15 -17t21 -23.5t24.5 -27q28 -32 65 -72h-131l-78 57q-10 11 -15.5 21t-5.5 24v0z" />
<glyph unicode="&#xc1;" horiz-adv-x="724" d="M271 701h183l265 -701h-180l-42 125h-269l-42 -125h-181zM273 259h179l-91 267zM291 768q35 38 63 70q12 14 23 26t19 22q11 12 20 22l5 6q18 15 40 15q24 0 41.5 -17t17.5 -42q0 -14 -5 -24.5t-15 -20.5l-78 -57h-131v0z" />
<glyph unicode="&#xc2;" horiz-adv-x="724" d="M271 701h183l265 -701h-180l-42 125h-269l-42 -125h-181zM273 259h179l-91 267zM311 907q11 9 24 14.5t28 5.5q29 0 51 -20l156 -139h-136l-71 64l-71 -64h-135l154 139v0z" />
<glyph unicode="&#xc3;" horiz-adv-x="724" d="M271 701h183l265 -701h-180l-42 125h-269l-42 -125h-181zM273 259h179l-91 267zM294 888q25 0 42.5 -6.5t31.5 -14.5t27.5 -15t28.5 -7t25 5.5t20 16.5q19 21 38 21q28 0 40 -21t-2 -45q-17 -29 -49 -44.5t-65 -15.5q-38 0 -72 17q-19 10 -30 16t-24 7q-19 1 -32.5 -7.5 t-16.5 -26.5h-93q9 57 41.5 88.5t89.5 31.5v0z" />
<glyph unicode="&#xc4;" horiz-adv-x="724" d="M271 701h183l265 -701h-180l-42 125h-269l-42 -125h-181zM273 259h179l-91 267zM187 835q0 31 22 53t52 22q31 0 52.5 -22t21.5 -53q0 -30 -21.5 -51.5t-52.5 -21.5q-30 0 -52 21.5t-22 51.5v0zM391 835q0 31 22 53t52 22q31 0 52 -22t21 -53q0 -30 -21 -51.5t-52 -21.5 q-30 0 -52 21.5t-22 51.5v0z" />
<glyph unicode="&#xc5;" horiz-adv-x="724" d="M362 904q29 0 54.5 -11t44.5 -30t30 -44t11 -54q0 -28 -11 -53.5t-30 -44.5t-44.5 -30t-54.5 -11q-28 0 -53 11t-44 30t-30 44.5t-11 53.5q0 29 11 54t30 44t44 30t53 11v0v0zM313 765q0 -21 14 -35t35 -14t35.5 14t14.5 35t-14.5 35.5t-35.5 14.5t-35 -14.5t-14 -35.5v0 v0zM454 701l265 -701h-180l-42 125h-269l-42 -125h-181l266 701h183zM452 259l-91 267l-88 -267h179z" />
<glyph unicode="&#xc6;" horiz-adv-x="1066" d="M5 0l500 700h539v-146h-373v-120h229v-145h-229v-143h373v-146h-539v125h-235l-84 -125h-181zM358 259h147v217z" />
<glyph unicode="&#xc7;" horiz-adv-x="715" d="M279 -130q9 -5 27 -9.5t37 -4.5t33 6.5t14 21.5q0 13 -10.5 20.5t-28.5 7.5q-13 0 -29 -5q-9 -4 -18 2q-8 4 -10.5 12.5t2.5 16.5l55 88l43 -26l-32 -50q15 3 36 3q15 0 31 -3.5t29 -11t21.5 -20t8.5 -30.5q0 -23 -11.5 -39t-30 -26t-42.5 -14.5t-49 -4.5t-49 3.5 t-44 9.5v0zM392 714q99 0 173 -44t114 -119l-147 -53q-24 43 -63.5 61.5t-82.5 18.5q-36 0 -67.5 -15.5t-55.5 -45t-37.5 -71.5t-13.5 -95q0 -55 13.5 -97.5t37.5 -71.5t56 -43.5t69 -14.5q20 0 41 3.5t41 12.5t37.5 24.5t30.5 38.5l146 -54q-44 -75 -120.5 -118.5 t-176.5 -43.5q-81 0 -146.5 25.5t-110.5 72.5t-69 114.5t-24 151.5q0 83 24.5 150t70.5 114.5t112 73t148 25.5v0v0z" />
<glyph unicode="&#xc8;" horiz-adv-x="609" d="M46 701h540v-146h-374v-121h228v-146h-228v-142h374v-146h-540v701zM174 870q0 24 18 41.5t41 17.5q22 0 40 -15l5.5 -6.5t15 -17t21 -23.5t24.5 -27q28 -32 65 -72h-131l-78 57q-10 11 -15.5 21t-5.5 24v0z" />
<glyph unicode="&#xc9;" horiz-adv-x="609" d="M46 701h540v-146h-374v-121h228v-146h-228v-142h374v-146h-540v701zM231 768q35 38 63 70q12 14 23 26t19 22q11 12 20 22l5 6q18 15 40 15q24 0 41.5 -17t17.5 -42q0 -14 -5 -24.5t-15 -20.5l-78 -57h-131v0z" />
<glyph unicode="&#xca;" horiz-adv-x="609" d="M46 701h540v-146h-374v-121h228v-146h-228v-142h374v-146h-540v701zM264 907q11 9 24 14.5t28 5.5q29 0 51 -20l156 -139h-136l-71 64l-71 -64h-135l154 139v0z" />
<glyph unicode="&#xcb;" horiz-adv-x="609" d="M46 701h540v-146h-374v-121h228v-146h-228v-142h374v-146h-540v701zM141 835q0 31 22 53t52 22q31 0 52.5 -22t21.5 -53q0 -30 -21.5 -51.5t-52.5 -21.5q-30 0 -52 21.5t-22 51.5v0zM345 835q0 31 22 53t52 22q31 0 52 -22t21 -53q0 -30 -21 -51.5t-52 -21.5 q-30 0 -52 21.5t-22 51.5v0z" />
<glyph unicode="&#xcc;" horiz-adv-x="480" d="M159 130v441h-99v130h361v-130h-97v-441h97v-130h-361v130h99zM83 870q0 24 18 41.5t41 17.5q22 0 40 -15l5.5 -6.5t15 -17t21 -23.5t24.5 -27q28 -32 65 -72h-131l-78 57q-10 11 -15.5 21t-5.5 24v0z" />
<glyph unicode="&#xcd;" horiz-adv-x="480" d="M159 130v441h-99v130h361v-130h-97v-441h97v-130h-361v130h99zM171 768q35 38 63 70q12 14 23 26t19 22q11 12 20 22l5 6q18 15 40 15q24 0 41.5 -17t17.5 -42q0 -14 -5 -24.5t-15 -20.5l-78 -57h-131v0z" />
<glyph unicode="&#xce;" horiz-adv-x="480" d="M159 130v441h-99v130h361v-130h-97v-441h97v-130h-361v130h99zM189 907q11 9 24 14.5t28 5.5q29 0 51 -20l156 -139h-136l-71 64l-71 -64h-135l154 139v0z" />
<glyph unicode="&#xcf;" horiz-adv-x="480" d="M159 130v441h-99v130h361v-130h-97v-441h97v-130h-361v130h99zM65 835q0 31 22 53t52 22q31 0 52.5 -22t21.5 -53q0 -30 -21.5 -51.5t-52.5 -21.5q-30 0 -52 21.5t-22 51.5v0zM269 835q0 31 22 53t52 22q31 0 52 -22t21 -53q0 -30 -21 -51.5t-52 -21.5q-30 0 -52 21.5 t-22 51.5v0z" />
<glyph unicode="&#xd0;" horiz-adv-x="807" d="M14 289v144h124v268h231q86 0 160 -17t128.5 -58t86 -108.5t31.5 -166.5q0 -101 -31.5 -168t-86 -107.5t-128.5 -58t-160 -17.5h-231v289h-124v0zM303 289v-149h69q45 0 87 6.5t74 29t51.5 64t19.5 111.5q0 69 -19.5 111t-51.5 64.5t-74 30t-87 7.5h-69v-131h81v-144h-81 v0z" />
<glyph unicode="&#xd1;" horiz-adv-x="735" d="M257 701l271 -499v499h161v-701h-212l-271 500v-500h-160v701h211zM297 888q25 0 42.5 -6.5t31.5 -14.5t27.5 -15t28.5 -7t25 5.5t20 16.5q19 21 38 21q28 0 40 -21t-2 -45q-17 -29 -49 -44.5t-65 -15.5q-38 0 -72 17q-19 10 -30 16t-24 7q-19 1 -32.5 -7.5t-16.5 -26.5 h-93q9 57 41.5 88.5t89.5 31.5v0z" />
<glyph unicode="&#xd2;" horiz-adv-x="802" d="M37 351q0 82 26 149t74.5 114.5t115 73.5t147.5 26t148 -26t115.5 -73.5t75 -114.5t26.5 -149t-26.5 -149.5t-75 -114.5t-115.5 -73.5t-148 -26.5t-147.5 26.5t-115 73.5t-74.5 114.5t-26 149.5v0zM212 351q0 -56 15.5 -98.5t41 -71t59.5 -43t72 -14.5q39 0 73 14.5 t60 43t41 71t15 98.5q0 55 -15 97.5t-41 71t-60 43.5t-73 15q-38 0 -72 -15t-59.5 -43.5t-41 -71t-15.5 -97.5v0zM237 870q0 24 18 41.5t41 17.5q22 0 40 -15l5.5 -6.5t15 -17t21 -23.5t24.5 -27q28 -32 65 -72h-131l-78 57q-10 11 -15.5 21t-5.5 24v0z" />
<glyph unicode="&#xd3;" horiz-adv-x="802" d="M37 351q0 82 26 149t74.5 114.5t115 73.5t147.5 26t148 -26t115.5 -73.5t75 -114.5t26.5 -149t-26.5 -149.5t-75 -114.5t-115.5 -73.5t-148 -26.5t-147.5 26.5t-115 73.5t-74.5 114.5t-26 149.5v0zM212 351q0 -56 15.5 -98.5t41 -71t59.5 -43t72 -14.5q39 0 73 14.5 t60 43t41 71t15 98.5q0 55 -15 97.5t-41 71t-60 43.5t-73 15q-38 0 -72 -15t-59.5 -43.5t-41 -71t-15.5 -97.5v0zM336 768q35 38 63 70q12 14 23 26t19 22q11 12 20 22l5 6q18 15 40 15q24 0 41.5 -17t17.5 -42q0 -14 -5 -24.5t-15 -20.5l-78 -57h-131v0z" />
<glyph unicode="&#xd4;" horiz-adv-x="802" d="M37 351q0 82 26 149t74.5 114.5t115 73.5t147.5 26t148 -26t115.5 -73.5t75 -114.5t26.5 -149t-26.5 -149.5t-75 -114.5t-115.5 -73.5t-148 -26.5t-147.5 26.5t-115 73.5t-74.5 114.5t-26 149.5v0zM212 351q0 -56 15.5 -98.5t41 -71t59.5 -43t72 -14.5q39 0 73 14.5 t60 43t41 71t15 98.5q0 55 -15 97.5t-41 71t-60 43.5t-73 15q-38 0 -72 -15t-59.5 -43.5t-41 -71t-15.5 -97.5v0zM350 907q11 9 24 14.5t28 5.5q29 0 51 -20l156 -139h-136l-71 64l-71 -64h-135l154 139v0z" />
<glyph unicode="&#xd5;" horiz-adv-x="802" d="M37 351q0 82 26 149t74.5 114.5t115 73.5t147.5 26t148 -26t115.5 -73.5t75 -114.5t26.5 -149t-26.5 -149.5t-75 -114.5t-115.5 -73.5t-148 -26.5t-147.5 26.5t-115 73.5t-74.5 114.5t-26 149.5v0zM212 351q0 -56 15.5 -98.5t41 -71t59.5 -43t72 -14.5q39 0 73 14.5 t60 43t41 71t15 98.5q0 55 -15 97.5t-41 71t-60 43.5t-73 15q-38 0 -72 -15t-59.5 -43.5t-41 -71t-15.5 -97.5v0zM333 891q25 0 42.5 -6.5t31.5 -14.5t27.5 -15t28.5 -7t25 5.5t20 16.5q19 21 38 21q28 0 40 -21t-2 -45q-17 -29 -49 -44.5t-65 -15.5q-38 0 -72 17 q-19 10 -30 16t-24 7q-19 1 -32.5 -7.5t-16.5 -26.5h-93q9 57 41.5 88.5t89.5 31.5v0z" />
<glyph unicode="&#xd6;" horiz-adv-x="802" d="M37 351q0 82 26 149t74.5 114.5t115 73.5t147.5 26t148 -26t115.5 -73.5t75 -114.5t26.5 -149t-26.5 -149.5t-75 -114.5t-115.5 -73.5t-148 -26.5t-147.5 26.5t-115 73.5t-74.5 114.5t-26 149.5v0zM212 351q0 -56 15.5 -98.5t41 -71t59.5 -43t72 -14.5q39 0 73 14.5 t60 43t41 71t15 98.5q0 55 -15 97.5t-41 71t-60 43.5t-73 15q-38 0 -72 -15t-59.5 -43.5t-41 -71t-15.5 -97.5v0zM226 835q0 31 22 53t52 22q31 0 52.5 -22t21.5 -53q0 -30 -21.5 -51.5t-52.5 -21.5q-30 0 -52 21.5t-22 51.5v0zM430 835q0 31 22 53t52 22q31 0 52 -22 t21 -53q0 -30 -21 -51.5t-52 -21.5q-30 0 -52 21.5t-22 51.5v0z" />
<glyph unicode="&#xd7;" horiz-adv-x="565" d="M377 260l143 -142l-96 -95l-140 143l-142 -143l-96 95l143 142l-146 144l96 96l145 -146l143 146l96 -96z" />
<glyph unicode="&#xd8;" horiz-adv-x="801" d="M399 713q60 0 112 -14t96 -42l47 56l59 -50l-46 -55q47 -47 72 -113t25 -144q0 -82 -26.5 -149.5t-75 -114.5t-115.5 -73.5t-148 -26.5q-62 0 -116 16t-98 45l-53 -61l-58 51l52 62q-43 47 -66 110.5t-23 140.5q0 82 26 148.5t74.5 113.5t115 73.5t146.5 26.5v0zM399 124 q39 0 73 14.5t60 43t41 71t15 98.5q0 77 -29 131l-273 -317q50 -41 113 -41v0zM237 228l270 314q-23 18 -50.5 26t-57.5 8q-38 0 -72 -14.5t-59 -43t-40.5 -70.5t-15.5 -97q0 -37 7 -67.5t18 -55.5v0z" />
<glyph unicode="&#xd9;" horiz-adv-x="689" d="M43 307v394h166v-408q0 -39 4.5 -70.5t19.5 -53.5t41.5 -34t70.5 -12q43 0 70 12t41.5 34t19.5 53.5t5 70.5v408h166v-394q0 -81 -16.5 -141.5t-52.5 -100t-93.5 -59t-139.5 -19.5q-81 0 -139 19.5t-94 59t-52.5 100t-16.5 141.5v0zM181 870q0 24 18 41.5t41 17.5 q22 0 40 -15l5.5 -6.5t15 -17t21 -23.5t24.5 -27q28 -32 65 -72h-131l-78 57q-10 11 -15.5 21t-5.5 24v0z" />
<glyph unicode="&#xda;" horiz-adv-x="689" d="M43 307v394h166v-408q0 -39 4.5 -70.5t19.5 -53.5t41.5 -34t70.5 -12q43 0 70 12t41.5 34t19.5 53.5t5 70.5v408h166v-394q0 -81 -16.5 -141.5t-52.5 -100t-93.5 -59t-139.5 -19.5q-81 0 -139 19.5t-94 59t-52.5 100t-16.5 141.5v0zM279 768q35 38 63 70q12 14 23 26 t19 22q11 12 20 22l5 6q18 15 40 15q24 0 41.5 -17t17.5 -42q0 -14 -5 -24.5t-15 -20.5l-78 -57h-131v0z" />
<glyph unicode="&#xdb;" horiz-adv-x="689" d="M43 307v394h166v-408q0 -39 4.5 -70.5t19.5 -53.5t41.5 -34t70.5 -12q43 0 70 12t41.5 34t19.5 53.5t5 70.5v408h166v-394q0 -81 -16.5 -141.5t-52.5 -100t-93.5 -59t-139.5 -19.5q-81 0 -139 19.5t-94 59t-52.5 100t-16.5 141.5v0zM293 907q11 9 24 14.5t28 5.5 q29 0 51 -20l156 -139h-136l-71 64l-71 -64h-135l154 139v0z" />
<glyph unicode="&#xdc;" horiz-adv-x="689" d="M43 307v394h166v-408q0 -39 4.5 -70.5t19.5 -53.5t41.5 -34t70.5 -12q43 0 70 12t41.5 34t19.5 53.5t5 70.5v408h166v-394q0 -81 -16.5 -141.5t-52.5 -100t-93.5 -59t-139.5 -19.5q-81 0 -139 19.5t-94 59t-52.5 100t-16.5 141.5v0zM170 835q0 31 22 53t52 22 q31 0 52.5 -22t21.5 -53q0 -30 -21.5 -51.5t-52.5 -21.5q-30 0 -52 21.5t-22 51.5v0zM374 835q0 31 22 53t52 22q31 0 52 -22t21 -53q0 -30 -21 -51.5t-52 -21.5q-30 0 -52 21.5t-22 51.5v0z" />
<glyph unicode="&#xdd;" horiz-adv-x="721" d="M10 701h194l156 -269l157 269h194l-268 -428v-273h-165v273zM295 768q35 38 63 70q12 14 23 26t19 22q11 12 20 22l5 6q18 15 40 15q24 0 41.5 -17t17.5 -42q0 -14 -5 -24.5t-15 -20.5l-78 -57h-131v0z" />
<glyph unicode="&#xde;" horiz-adv-x="654" d="M46 700h167v-110h93q68 0 125.5 -10t100 -35.5t67 -70.5t24.5 -114q0 -68 -24.5 -111.5t-67 -69t-100 -35.5t-125.5 -10h-93v-134h-167v700v0zM213 446v-164h98q28 0 52.5 3t43.5 11t29.5 24.5t10.5 42.5q0 29 -10.5 45t-29.5 24.5t-43.5 11t-52.5 2.5h-98v0z" />
<glyph unicode="&#xdf;" horiz-adv-x="660" d="M46 0v457q0 71 20 120.5t57.5 79.5t91 43t120.5 13q53 0 99 -12.5t79.5 -37t52.5 -61t19 -84.5q0 -44 -17.5 -78t-38.5 -52q42 -22 71 -65t29 -109q0 -58 -19 -100.5t-52.5 -70.5t-80.5 -42t-102 -14h-20.5t-19.5 1l-43 141q35 -9 70 -9q20 0 39 5.5t33 16.5t22.5 28 t8.5 38q0 58 -39 81.5t-102 23.5h-32v123h27q111 0 111 74q0 32 -23.5 53t-75.5 21q-38 0 -62 -8.5t-38 -26t-19 -43.5t-5 -61v-445h-161v0z" />
<glyph unicode="&#xe0;" horiz-adv-x="575" d="M20 141q0 47 25.5 80t71.5 54t109.5 33t138.5 18v19q0 46 -22.5 64t-64.5 18q-33 0 -57.5 -15t-32.5 -47l-134 49q26 52 87 87t151 35q56 0 99 -12t72 -38t44.5 -67.5t15.5 -100.5v-114q0 -26 1.5 -54.5t3.5 -56t5.5 -52t7.5 -41.5h-148l-19 63q-30 -41 -74 -58.5 t-100 -17.5q-37 0 -69.5 10.5t-57.5 30.5t-39 48.5t-14 64.5v0zM258 97q24 0 44 5.5t35 19t23.5 37.5t8.5 59v13q-41 -3 -75.5 -8.5t-58.5 -14t-37 -22t-13 -34.5q0 -25 21 -40t52 -15v0zM153 705q0 24 17 41.5t41 17.5q22 0 40 -15l120 -146h-120l-78 57q-20 20 -20 45v0z " />
<glyph unicode="&#xe1;" horiz-adv-x="575" d="M20 141q0 47 25.5 80t71.5 54t109.5 33t138.5 18v19q0 46 -22.5 64t-64.5 18q-33 0 -57.5 -15t-32.5 -47l-134 49q26 52 87 87t151 35q56 0 99 -12t72 -38t44.5 -67.5t15.5 -100.5v-114q0 -26 1.5 -54.5t3.5 -56t5.5 -52t7.5 -41.5h-148l-19 63q-30 -41 -74 -58.5 t-100 -17.5q-37 0 -69.5 10.5t-57.5 30.5t-39 48.5t-14 64.5v0zM258 97q24 0 44 5.5t35 19t23.5 37.5t8.5 59v13q-41 -3 -75.5 -8.5t-58.5 -14t-37 -22t-13 -34.5q0 -25 21 -40t52 -15v0zM359 744q3 5 13.5 12t29.5 7q25 0 42 -16.5t17 -41.5q0 -28 -20 -45l-79 -57h-119 l116 141v0z" />
<glyph unicode="&#xe2;" horiz-adv-x="575" d="M20 141q0 47 25.5 80t71.5 54t109.5 33t138.5 18v19q0 46 -22.5 64t-64.5 18q-33 0 -57.5 -15t-32.5 -47l-134 49q26 52 87 87t151 35q56 0 99 -12t72 -38t44.5 -67.5t15.5 -100.5v-114q0 -26 1.5 -54.5t3.5 -56t5.5 -52t7.5 -41.5h-148l-19 63q-30 -41 -74 -58.5 t-100 -17.5q-37 0 -69.5 10.5t-57.5 30.5t-39 48.5t-14 64.5v0zM258 97q24 0 44 5.5t35 19t23.5 37.5t8.5 59v13q-41 -3 -75.5 -8.5t-58.5 -14t-37 -22t-13 -34.5q0 -25 21 -40t52 -15v0zM87 603l154 138q11 10 24.5 15.5t28.5 5.5q28 0 52 -21l154 -138h-135l-71 64 l-72 -64h-135v0z" />
<glyph unicode="&#xe3;" horiz-adv-x="575" d="M20 141q0 47 25.5 80t71.5 54t109.5 33t138.5 18v19q0 46 -22.5 64t-64.5 18q-33 0 -57.5 -15t-32.5 -47l-134 49q26 52 87 87t151 35q56 0 99 -12t72 -38t44.5 -67.5t15.5 -100.5v-114q0 -26 1.5 -54.5t3.5 -56t5.5 -52t7.5 -41.5h-148l-19 63q-30 -41 -74 -58.5 t-100 -17.5q-37 0 -69.5 10.5t-57.5 30.5t-39 48.5t-14 64.5v0zM258 97q24 0 44 5.5t35 19t23.5 37.5t8.5 59v13q-41 -3 -75.5 -8.5t-58.5 -14t-37 -22t-13 -34.5q0 -25 21 -40t52 -15v0zM231 723q25 0 42.5 -6.5t31.5 -14.5t27.5 -15t28.5 -7t25 5.5t20 16.5q19 21 38 21 q28 0 40 -21t-2 -45q-17 -29 -49 -44.5t-65 -15.5q-38 0 -72 17q-19 10 -30 16t-24 7q-19 1 -32.5 -7.5t-16.5 -26.5h-93q9 57 41.5 88.5t89.5 31.5v0z" />
<glyph unicode="&#xe4;" horiz-adv-x="575" d="M20 141q0 47 25.5 80t71.5 54t109.5 33t138.5 18v19q0 46 -22.5 64t-64.5 18q-33 0 -57.5 -15t-32.5 -47l-134 49q26 52 87 87t151 35q56 0 99 -12t72 -38t44.5 -67.5t15.5 -100.5v-114q0 -26 1.5 -54.5t3.5 -56t5.5 -52t7.5 -41.5h-148l-19 63q-30 -41 -74 -58.5 t-100 -17.5q-37 0 -69.5 10.5t-57.5 30.5t-39 48.5t-14 64.5v0zM258 97q24 0 44 5.5t35 19t23.5 37.5t8.5 59v13q-41 -3 -75.5 -8.5t-58.5 -14t-37 -22t-13 -34.5q0 -25 21 -40t52 -15v0zM123 680q0 31 22 53t52 22q31 0 52.5 -22t21.5 -53q0 -30 -21.5 -51.5t-52.5 -21.5 q-30 0 -52 21.5t-22 51.5v0zM327 680q0 31 22 53t52 22q31 0 52 -22t21 -53q0 -30 -21 -51.5t-52 -21.5q-30 0 -52 21.5t-22 51.5v0z" />
<glyph unicode="&#xe5;" horiz-adv-x="575" d="M20 141q0 47 25.5 80t71.5 54t109.5 33t138.5 18v19q0 46 -22.5 64t-64.5 18q-33 0 -57.5 -15t-32.5 -47l-134 49q26 52 87 87t151 35q56 0 99 -12t72 -38t44.5 -67.5t15.5 -100.5v-114q0 -26 1.5 -54.5t3.5 -56t5.5 -52t7.5 -41.5h-148l-19 63q-30 -41 -74 -58.5 t-100 -17.5q-37 0 -69.5 10.5t-57.5 30.5t-39 48.5t-14 64.5v0zM258 97q24 0 44 5.5t35 19t23.5 37.5t8.5 59v13q-41 -3 -75.5 -8.5t-58.5 -14t-37 -22t-13 -34.5q0 -25 21 -40t52 -15v0zM301 840q29 0 54.5 -11t44.5 -30t30 -44t11 -54q0 -28 -11 -53.5t-30 -44.5 t-44.5 -30t-54.5 -11q-28 0 -53 11t-44 30t-30 44.5t-11 53.5q0 29 11 54t30 44t44 30t53 11v0zM252 701q0 -21 14 -35t35 -14t35.5 14t14.5 35t-14.5 35.5t-35.5 14.5t-35 -14.5t-14 -35.5v0z" />
<glyph unicode="&#xe6;" horiz-adv-x="921" d="M20 142q0 32 14 63t53 56t106 39.5t172 14.5v30q0 46 -22.5 64t-64.5 18q-33 0 -57.5 -15t-32.5 -47l-134 49q26 52 87 87t151 35q56 0 99 -12t73 -39q72 51 166 51q65 0 116.5 -24t86.5 -65.5t52.5 -99.5t13.5 -128h-387q2 -27 13 -47.5t27.5 -33.5t37 -20t42.5 -7 q38 0 64.5 10.5t42.5 28.5l126 -46q-41 -61 -102.5 -89t-125.5 -28q-69 0 -123.5 21.5t-93.5 61.5q-5 -5 -9.5 -10t-9.5 -11q-33 -33 -87.5 -49.5t-113.5 -11.5q-37 4 -69.5 15t-57.5 29.5t-39 46t-14 63.5v0zM511 314h239q-2 50 -35.5 76t-80.5 26q-44 0 -79.5 -24 t-43.5 -78v0zM185 155q0 -25 21 -42t52 -17q24 0 44 5.5t35 19.5t23.5 38t8.5 59v1q-88 1 -136 -11t-48 -53v0z" />
<glyph unicode="&#xe7;" horiz-adv-x="546" d="M191 -129q9 -5 27 -9.5t37 -4.5t32.5 6.5t13.5 22.5q0 12 -10.5 19.5t-28.5 7.5q-12 0 -28 -5q-9 -4 -18 2q-8 4 -10.5 12.5t2.5 16.5l54 88l44 -26l-32 -50q15 3 36 3q14 0 30.5 -3t29.5 -11t21.5 -20.5t8.5 -30.5q0 -23 -11.5 -39t-30 -26t-42.5 -14.5t-49 -4.5 t-49 3.5t-44 9.5v0zM292 536q34 0 68 -7t65 -23t57.5 -42t44.5 -65l-133 -48q-13 33 -37.5 47t-55.5 14q-22 0 -42.5 -8t-36 -25.5t-25 -46.5t-9.5 -70q0 -42 10 -71t25.5 -46.5t36 -25.5t41.5 -8q34 0 57 13.5t37 36.5l130 -48q-20 -35 -47.5 -59.5t-58.5 -39t-63.5 -21 t-63.5 -6.5q-64 0 -114 20t-84 56.5t-51.5 87.5t-17.5 113t19.5 111.5t54.5 85.5t84 55.5t109 19.5v0v0z" />
<glyph unicode="&#xe8;" horiz-adv-x="594" d="M25 264q0 62 22 112t60.5 86t89.5 55t107 19q65 0 116 -24t86 -65.5t52 -99t13 -127.5h-385q2 -27 13 -47.5t27.5 -34t37.5 -20.5t43 -7q36 0 63 10.5t42 28.5l127 -46q-41 -60 -102.5 -88.5t-125.5 -28.5q-63 0 -115.5 19t-90.5 55t-59 87.5t-21 115.5v0zM186 315h237 q-2 50 -34.5 76t-79.5 26q-45 0 -80.5 -24t-42.5 -78v0zM147 705q0 24 17 41.5t41 17.5q22 0 40 -15l120 -146h-120l-78 57q-20 20 -20 45v0z" />
<glyph unicode="&#xe9;" horiz-adv-x="594" d="M25 264q0 62 22 112t60.5 86t89.5 55t107 19q65 0 116 -24t86 -65.5t52 -99t13 -127.5h-385q2 -27 13 -47.5t27.5 -34t37.5 -20.5t43 -7q36 0 63 10.5t42 28.5l127 -46q-41 -60 -102.5 -88.5t-125.5 -28.5q-63 0 -115.5 19t-90.5 55t-59 87.5t-21 115.5v0zM186 315h237 q-2 50 -34.5 76t-79.5 26q-45 0 -80.5 -24t-42.5 -78v0zM361 744q3 5 13.5 12t29.5 7q25 0 42 -16.5t17 -41.5q0 -28 -20 -45l-79 -57h-119l116 141v0z" />
<glyph unicode="&#xea;" horiz-adv-x="594" d="M25 264q0 62 22 112t60.5 86t89.5 55t107 19q65 0 116 -24t86 -65.5t52 -99t13 -127.5h-385q2 -27 13 -47.5t27.5 -34t37.5 -20.5t43 -7q36 0 63 10.5t42 28.5l127 -46q-41 -60 -102.5 -88.5t-125.5 -28.5q-63 0 -115.5 19t-90.5 55t-59 87.5t-21 115.5v0zM186 315h237 q-2 50 -34.5 76t-79.5 26q-45 0 -80.5 -24t-42.5 -78v0zM98 603l154 138q11 10 24.5 15.5t28.5 5.5q28 0 52 -21l154 -138h-135l-71 64l-72 -64h-135v0z" />
<glyph unicode="&#xeb;" horiz-adv-x="594" d="M25 264q0 62 22 112t60.5 86t89.5 55t107 19q65 0 116 -24t86 -65.5t52 -99t13 -127.5h-385q2 -27 13 -47.5t27.5 -34t37.5 -20.5t43 -7q36 0 63 10.5t42 28.5l127 -46q-41 -60 -102.5 -88.5t-125.5 -28.5q-63 0 -115.5 19t-90.5 55t-59 87.5t-21 115.5v0zM186 315h237 q-2 50 -34.5 76t-79.5 26q-45 0 -80.5 -24t-42.5 -78v0zM120 680q0 31 22 53t52 22q31 0 52.5 -22t21.5 -53q0 -30 -21.5 -51.5t-52.5 -21.5q-30 0 -52 21.5t-22 51.5v0zM324 680q0 31 22 53t52 22q31 0 52 -22t21 -53q0 -30 -21 -51.5t-52 -21.5q-30 0 -52 21.5t-22 51.5v0 z" />
<glyph unicode="&#xec;" horiz-adv-x="316" d="M285 521v-521h-161v400h-99v121h260zM49 705q0 24 17 41.5t41 17.5q22 0 40 -15l120 -146h-120l-78 57q-20 20 -20 45v0z" />
<glyph unicode="&#xed;" horiz-adv-x="316" d="M285 521v-521h-161v400h-99v121h260zM247 744q3 5 13.5 12t29.5 7q25 0 42 -16.5t17 -41.5q0 -28 -20 -45l-79 -57h-119l116 141v0z" />
<glyph unicode="&#xee;" horiz-adv-x="316" d="M285 521v-521h-161v400h-99v121h260zM-15 603l154 138q11 10 24.5 15.5t28.5 5.5q28 0 52 -21l154 -138h-135l-71 64l-72 -64h-135v0z" />
<glyph unicode="&#xef;" horiz-adv-x="316" d="M285 521v-521h-161v400h-99v121h260zM3 680q0 31 22 53t52 22q31 0 52.5 -22t21.5 -53q0 -30 -21.5 -51.5t-52.5 -21.5q-30 0 -52 21.5t-22 51.5v0zM207 680q0 31 22 53t52 22q31 0 52 -22t21 -53q0 -30 -21 -51.5t-52 -21.5q-30 0 -52 21.5t-22 51.5v0z" />
<glyph unicode="&#xf0;" horiz-adv-x="614" d="M266 475q52 0 87 -14t63 -38q-1 48 -18 86t-47 65l-66 -67l-51 49l56 56q-51 22 -119 22v128q69 0 122 -13t95 -37l59 59l51 -51l-51 -49q3 -2 6.5 -5t5.5 -6q70 -70 96.5 -150t26.5 -176q0 -73 -16.5 -136.5t-50.5 -110t-87 -73.5t-128 -27q-60 0 -110 17.5t-87 49 t-57.5 76.5t-20.5 101q0 54 20 98.5t53 76.5t76.5 50.5t91.5 18.5v0zM300 106q52 0 83 34t31 91t-31.5 90.5t-82.5 33.5q-52 0 -81.5 -34.5t-29.5 -89.5q0 -57 29.5 -91t81.5 -34v0z" />
<glyph unicode="&#xf1;" horiz-adv-x="600" d="M52 0v521h140l20 -69q8 14 23.5 29t36 27t46 20t55.5 8q50 0 83.5 -14.5t54 -42t29 -68.5t8.5 -94v-317h-160v277q0 27 -1.5 52t-9 43.5t-24 29t-44.5 10.5q-51 0 -74 -36.5t-23 -107.5v-268h-160v0zM232 723q25 0 42.5 -6.5t31.5 -14.5t27.5 -15t28.5 -7t25 5.5t20 16.5 q19 21 38 21q28 0 40 -21t-2 -45q-17 -29 -49 -44.5t-65 -15.5q-38 0 -72 17q-19 10 -30 16t-24 7q-19 1 -32.5 -7.5t-16.5 -26.5h-93q9 57 41.5 88.5t89.5 31.5v0z" />
<glyph unicode="&#xf2;" d="M25 262q0 71 22.5 122.5t61 85t88.5 50t104 16.5t104 -16.5t87.5 -50t60.5 -85t23 -122.5q0 -70 -23 -122t-60.5 -85.5t-87.5 -50.5t-104 -17t-104 17t-88.5 50.5t-61 85.5t-22.5 122v0zM301 111q49 0 81 35t32 116q0 41 -9 70t-24.5 46.5t-36 25.5t-43.5 8t-44 -8 t-36 -25.5t-24 -46.5t-9 -70q0 -81 32 -116t81 -35v0zM142 705q0 24 17 41.5t41 17.5q22 0 40 -15l120 -146h-120l-78 57q-20 20 -20 45v0z" />
<glyph unicode="&#xf3;" d="M25 262q0 71 22.5 122.5t61 85t88.5 50t104 16.5t104 -16.5t87.5 -50t60.5 -85t23 -122.5q0 -70 -23 -122t-60.5 -85.5t-87.5 -50.5t-104 -17t-104 17t-88.5 50.5t-61 85.5t-22.5 122v0zM301 111q49 0 81 35t32 116q0 41 -9 70t-24.5 46.5t-36 25.5t-43.5 8t-44 -8 t-36 -25.5t-24 -46.5t-9 -70q0 -81 32 -116t81 -35v0zM357 744q3 5 13.5 12t29.5 7q25 0 42 -16.5t17 -41.5q0 -28 -20 -45l-79 -57h-119l116 141v0z" />
<glyph unicode="&#xf4;" d="M25 262q0 71 22.5 122.5t61 85t88.5 50t104 16.5t104 -16.5t87.5 -50t60.5 -85t23 -122.5q0 -70 -23 -122t-60.5 -85.5t-87.5 -50.5t-104 -17t-104 17t-88.5 50.5t-61 85.5t-22.5 122v0zM301 111q49 0 81 35t32 116q0 41 -9 70t-24.5 46.5t-36 25.5t-43.5 8t-44 -8 t-36 -25.5t-24 -46.5t-9 -70q0 -81 32 -116t81 -35v0zM95 603l154 138q11 10 24.5 15.5t28.5 5.5q28 0 52 -21l154 -138h-135l-71 64l-72 -64h-135v0z" />
<glyph unicode="&#xf5;" d="M25 262q0 71 22.5 122.5t61 85t88.5 50t104 16.5t104 -16.5t87.5 -50t60.5 -85t23 -122.5q0 -70 -23 -122t-60.5 -85.5t-87.5 -50.5t-104 -17t-104 17t-88.5 50.5t-61 85.5t-22.5 122v0zM301 111q49 0 81 35t32 116q0 41 -9 70t-24.5 46.5t-36 25.5t-43.5 8t-44 -8 t-36 -25.5t-24 -46.5t-9 -70q0 -81 32 -116t81 -35v0zM232 723q25 0 42.5 -6.5t31.5 -14.5t27.5 -15t28.5 -7t25 5.5t20 16.5q19 21 38 21q28 0 40 -21t-2 -45q-17 -29 -49 -44.5t-65 -15.5q-38 0 -72 17q-19 10 -30 16t-24 7q-19 1 -32.5 -7.5t-16.5 -26.5h-93 q9 57 41.5 88.5t89.5 31.5v0z" />
<glyph unicode="&#xf6;" d="M25 262q0 71 22.5 122.5t61 85t88.5 50t104 16.5t104 -16.5t87.5 -50t60.5 -85t23 -122.5q0 -70 -23 -122t-60.5 -85.5t-87.5 -50.5t-104 -17t-104 17t-88.5 50.5t-61 85.5t-22.5 122v0zM301 111q49 0 81 35t32 116q0 41 -9 70t-24.5 46.5t-36 25.5t-43.5 8t-44 -8 t-36 -25.5t-24 -46.5t-9 -70q0 -81 32 -116t81 -35v0zM125 680q0 31 22 53t52 22q31 0 52.5 -22t21.5 -53q0 -30 -21.5 -51.5t-52.5 -21.5q-30 0 -52 21.5t-22 51.5v0zM329 680q0 31 22 53t52 22q31 0 52 -22t21 -53q0 -30 -21 -51.5t-52 -21.5q-30 0 -52 21.5t-22 51.5v0z " />
<glyph unicode="&#xf7;" horiz-adv-x="623" d="M229 453q0 34 24.5 58.5t58.5 24.5q33 0 58 -24.5t25 -58.5q0 -35 -25 -59.5t-58 -24.5q-34 0 -58.5 24.5t-24.5 59.5v0zM312 154q33 0 58 -24.5t25 -58.5t-25 -59t-58 -25q-34 0 -58.5 25t-24.5 59t24.5 58.5t58.5 24.5v0zM581 330v-135h-538v135h538z" />
<glyph unicode="&#xf8;" d="M301 536q40 0 77.5 -9t69.5 -27l44 50l59 -50l-41 -47q31 -34 48.5 -80.5t17.5 -110.5q0 -70 -23 -122t-60.5 -86t-87.5 -50.5t-104 -16.5q-43 0 -83 10t-73 31l-48 -55l-59 50l48 56q-28 33 -44.5 78.5t-16.5 104.5q0 71 22.5 122.5t61 85t88.5 50t104 16.5v0zM301 111 q49 0 81 35t32 116q0 22 -2 38.5t-7 31.5l-171 -200q27 -21 67 -21v0zM194 204l165 192q-25 16 -58 16q-23 0 -44 -8t-36 -26t-24 -46.5t-9 -69.5q0 -33 6 -58v0z" />
<glyph unicode="&#xf9;" horiz-adv-x="598" d="M52 208v313h160v-273q0 -29 1.5 -53.5t9.5 -43t23.5 -29.5t45.5 -11q50 0 71 31.5t21 104.5v274h161v-521h-139l-22 74q-23 -39 -57 -63t-94 -24q-51 0 -86.5 15t-56 42.5t-29.5 68.5t-9 95v0zM201 764q22 0 39 -15l6 -6q8 -10 18 -22q8 -10 18 -22t21 -26q25 -31 57 -70 h-120l-78 57q-10 10 -15 20.5t-5 25.5q0 24 17 41t42 17v0z" />
<glyph unicode="&#xfa;" horiz-adv-x="598" d="M52 521h160v-273q0 -29 1.5 -53.5t9.5 -43t23.5 -29.5t45.5 -11q50 0 71 31.5t21 104.5v274h161v-521h-139l-22 74q-23 -39 -57 -63t-94 -24q-51 0 -86.5 15t-56 42.5t-29.5 68.5t-9 95v313v0zM357 744q3 5 13.5 12t29.5 7q25 0 42 -16.5t17 -41.5q0 -28 -20 -45l-79 -57 h-119l116 141v0z" />
<glyph unicode="&#xfb;" horiz-adv-x="598" d="M52 521h160v-273q0 -29 1.5 -53.5t9.5 -43t23.5 -29.5t45.5 -11q50 0 71 31.5t21 104.5v274h161v-521h-139l-22 74q-23 -39 -57 -63t-94 -24q-51 0 -86.5 15t-56 42.5t-29.5 68.5t-9 95v313v0zM93 603l154 138q11 10 24.5 15.5t28.5 5.5q28 0 52 -21l154 -138h-135 l-71 64l-72 -64h-135v0z" />
<glyph unicode="&#xfc;" horiz-adv-x="598" d="M52 521h160v-273q0 -29 1.5 -53.5t9.5 -43t23.5 -29.5t45.5 -11q50 0 71 31.5t21 104.5v274h161v-521h-139l-22 74q-23 -39 -57 -63t-94 -24q-51 0 -86.5 15t-56 42.5t-29.5 68.5t-9 95v313v0zM122 680q0 31 22 53t52 22q31 0 52.5 -22t21.5 -53q0 -30 -21.5 -51.5 t-52.5 -21.5q-30 0 -52 21.5t-22 51.5v0zM326 680q0 31 22 53t52 22q31 0 52 -22t21 -53q0 -30 -21 -51.5t-52 -21.5q-30 0 -52 21.5t-22 51.5v0z" />
<glyph unicode="&#xfd;" horiz-adv-x="543" d="M0 521h171l102 -326l100 326h171l-200 -521q-18 -49 -36.5 -81.5t-43.5 -52t-59.5 -27.5t-84.5 -8h-52v115h32q25 0 40.5 1.5t25.5 5.5t16 13t12 24l6 13l-200 518v0zM327 744q3 5 13.5 12t29.5 7q25 0 42 -16.5t17 -41.5q0 -28 -20 -45l-79 -57h-119l116 141v0z" />
<glyph unicode="&#xfe;" horiz-adv-x="625" d="M52 701h160v-252q13 21 31 37.5t39.5 27.5t44.5 16.5t44 5.5q50 0 92 -19.5t73 -55.5t48 -87.5t17 -114.5q0 -64 -17 -114.5t-48 -85.5t-73 -53.5t-92 -18.5q-21 0 -44 5.5t-44.5 16.5t-39.5 27t-31 38v-243h-160v870v0zM320 111q23 0 44 9.5t37 28.5t25 47t9 63 q0 36 -9 64.5t-25 48t-37 30t-44 10.5t-44 -8.5t-36.5 -26.5t-25 -46t-9.5 -67q0 -81 34 -117t81 -36v0z" />
<glyph unicode="&#xff;" horiz-adv-x="543" d="M0 521h171l102 -326l100 326h171l-200 -521q-18 -49 -36.5 -81.5t-43.5 -52t-59.5 -27.5t-84.5 -8h-52v115h32q25 0 40.5 1.5t25.5 5.5t16 13t12 24l6 13l-200 518v0zM97 680q0 31 22 53t52 22q31 0 52.5 -22t21.5 -53q0 -30 -21.5 -51.5t-52.5 -21.5q-30 0 -52 21.5 t-22 51.5v0zM301 680q0 31 22 53t52 22q31 0 52 -22t21 -53q0 -30 -21 -51.5t-52 -21.5q-30 0 -52 21.5t-22 51.5v0z" />
<glyph unicode="&#x131;" horiz-adv-x="316" d="M285 521v-521h-161v400h-99v121h260z" />
<glyph unicode="&#x152;" horiz-adv-x="1114" d="M400 714q107 0 189 -45v32h502v-147h-374v-120h229v-145h-229v-143h374v-146h-502v33q-82 -46 -189 -46q-81 0 -147.5 26t-115 73.5t-74.5 115t-26 149.5t26 149t74.5 114.5t115 73.5t147.5 26v0zM400 124q39 0 73 14.5t60 43t41 71t15 98.5q0 55 -15 97.5t-41 71 t-60 42.5t-73 14q-38 0 -72 -14t-59.5 -42.5t-41 -71t-15.5 -97.5q0 -56 15.5 -98.5t41 -71t59.5 -43t72 -14.5v0z" />
<glyph unicode="&#x153;" horiz-adv-x="983" d="M301 536q56 0 107.5 -18t90.5 -55q38 35 87.5 54t106.5 19q65 0 116 -24t86 -66t52.5 -99.5t13.5 -127.5h-387q2 -27 13 -47.5t27.5 -33.5t37 -20t42.5 -7q39 0 65 10.5t42 28.5l127 -46q-41 -61 -102.5 -89t-126.5 -28q-127 0 -202 71q-39 -37 -90 -54t-106 -17 q-54 0 -104 16.5t-88.5 50.5t-61 86t-22.5 122q0 71 22.5 122.5t61 85t88.5 50t104 16.5v0zM301 111q49 0 81 35t32 116q0 41 -9 69.5t-24.5 46.5t-36 26t-43.5 8t-44 -8t-36 -26t-24 -46.5t-9 -69.5q0 -81 32 -116t81 -35v0zM574 314h238q-1 50 -34.5 76t-80.5 26 q-45 0 -80 -24t-43 -78v0z" />
<glyph unicode="&#x178;" horiz-adv-x="721" d="M10 701h194l156 -269l157 269h194l-268 -428v-273h-165v273zM186 835q0 31 22 53t52 22q31 0 52.5 -22t21.5 -53q0 -30 -21.5 -51.5t-52.5 -21.5q-30 0 -52 21.5t-22 51.5v0zM390 835q0 31 22 53t52 22q31 0 52 -22t21 -53q0 -30 -21 -51.5t-52 -21.5q-30 0 -52 21.5 t-22 51.5v0z" />
<glyph unicode="&#x2c6;" horiz-adv-x="490" d="M39 603l154 138q11 10 24.5 15.5t28.5 5.5q28 0 52 -21l154 -138h-135l-71 64l-72 -64h-135v0z" />
<glyph unicode="&#x2da;" horiz-adv-x="309" d="M154 840q29 0 54.5 -11t44.5 -30t30 -44t11 -54q0 -28 -11 -53.5t-30 -44.5t-44.5 -30t-54.5 -11q-28 0 -53 11t-44 30t-30 44.5t-11 53.5q0 29 11 54t30 44t44 30t53 11v0zM105 701q0 -21 14 -35t35 -14t35.5 14t14.5 35t-14.5 35.5t-35.5 14.5t-35 -14.5t-14 -35.5v0z " />
<glyph unicode="&#x2dc;" horiz-adv-x="466" d="M170 723q25 0 42.5 -6.5t31.5 -14.5t27.5 -15t28.5 -7t25 5.5t20 16.5q19 21 38 21q28 0 40 -21t-2 -45q-17 -29 -49 -44.5t-65 -15.5q-38 0 -72 17q-19 10 -30 16t-24 7q-19 1 -32.5 -7.5t-16.5 -26.5h-93q9 57 41.5 88.5t89.5 31.5v0z" />
<glyph unicode="&#x2000;" horiz-adv-x="464" />
<glyph unicode="&#x2001;" horiz-adv-x="929" />
<glyph unicode="&#x2002;" horiz-adv-x="464" />
<glyph unicode="&#x2003;" horiz-adv-x="929" />
<glyph unicode="&#x2004;" horiz-adv-x="309" />
<glyph unicode="&#x2005;" horiz-adv-x="232" />
<glyph unicode="&#x2006;" horiz-adv-x="154" />
<glyph unicode="&#x2007;" horiz-adv-x="154" />
<glyph unicode="&#x2008;" horiz-adv-x="116" />
<glyph unicode="&#x2009;" horiz-adv-x="185" />
<glyph unicode="&#x200a;" horiz-adv-x="51" />
<glyph unicode="&#x2010;" horiz-adv-x="428" d="M43 193v136h342v-136h-342z" />
<glyph unicode="&#x2011;" horiz-adv-x="428" d="M43 193v136h342v-136h-342z" />
<glyph unicode="&#x2012;" horiz-adv-x="428" d="M43 193v136h342v-136h-342z" />
<glyph unicode="&#x2013;" horiz-adv-x="533" d="M43 194v135h447v-135h-447z" />
<glyph unicode="&#x2014;" horiz-adv-x="884" d="M43 194v135h798v-135h-798z" />
<glyph unicode="&#x2018;" horiz-adv-x="290" d="M43 459q0 17 7 37l80 205h95l-56 -143q34 -9 56.5 -35.5t22.5 -63.5q0 -21 -8 -40t-22 -33t-32.5 -22t-39.5 -8q-43 0 -73 30t-30 73v0z" />
<glyph unicode="&#x2019;" horiz-adv-x="290" d="M146 714q21 0 39.5 -8t32.5 -22t22 -33t8 -40q0 -19 -6 -37l-81 -205h-95l56 142q-34 9 -56.5 36t-22.5 64q0 43 30 73t73 30v0z" />
<glyph unicode="&#x201a;" horiz-adv-x="290" d="M146 193q21 0 39.5 -8t32.5 -22t22 -33t8 -40q0 -19 -6 -36l-81 -207h-95l56 144q-34 8 -56.5 35.5t-22.5 63.5q0 43 30 73t73 30v0z" />
<glyph unicode="&#x201c;" horiz-adv-x="522" d="M50 496l80 205h95l-56 -143q34 -9 56.5 -35.5t22.5 -63.5q0 -21 -8 -40t-22 -33t-32.5 -22t-39.5 -8q-43 0 -73 30t-30 73q0 17 7 37v0zM284 496l78 205h96l-57 -143q34 -9 56.5 -35.5t22.5 -63.5q0 -43 -29.5 -73t-72.5 -30q-21 0 -39.5 8t-32.5 22t-22 33t-8 40 q0 17 8 37v0z" />
<glyph unicode="&#x201d;" horiz-adv-x="522" d="M43 611q0 43 30 73t73 30q21 0 39.5 -8t32.5 -22t22 -33t8 -40q0 -19 -6 -37l-81 -205h-95l56 142q-34 9 -56.5 36t-22.5 64v0zM276 611q0 21 8 40t22 33t32.5 22t39.5 8q43 0 72.5 -30t29.5 -73q0 -19 -6 -37l-81 -205h-94l56 142q-34 9 -56.5 36t-22.5 64v0z" />
<glyph unicode="&#x201e;" horiz-adv-x="522" d="M43 90q0 43 30 73t73 30q21 0 39.5 -8t32.5 -22t22 -33t8 -40q0 -19 -6 -36l-81 -207h-95l56 144q-34 8 -56.5 35.5t-22.5 63.5v0zM276 90q0 21 8 40t22 33t32.5 22t39.5 8q43 0 72.5 -30t29.5 -73q0 -19 -6 -36l-81 -207h-94l56 144q-34 8 -56.5 35.5t-22.5 63.5v0z" />
<glyph unicode="&#x2022;" horiz-adv-x="459" d="M56 267q0 36 13.5 67.5t37 55.5t55.5 37.5t68 13.5q37 0 68.5 -13.5t55 -37.5t37 -55.5t13.5 -67.5t-13.5 -68t-37 -55.5t-55 -37.5t-68.5 -14q-36 0 -68 14t-55.5 37.5t-37 55.5t-13.5 68v0z" />
<glyph unicode="&#x2026;" horiz-adv-x="843" d="M595 90q0 43 30 73t73 30t72.5 -30t29.5 -73t-29.5 -73t-72.5 -30t-73 30t-30 73v0zM43 90q0 43 30 73t73 30q21 0 39.5 -8t32.5 -22t22 -33t8 -40t-8 -39.5t-22 -33t-32.5 -22.5t-39.5 -8q-43 0 -73 30t-30 73v0zM320 90q0 43 29 73t72 30t73 -30t30 -73t-30 -73 t-73 -30t-72 30t-29 73v0z" />
<glyph unicode="&#x202f;" horiz-adv-x="185" />
<glyph unicode="&#x2039;" horiz-adv-x="424" d="M198 42l-155 220l155 222h182l-155 -222l156 -220h-183z" />
<glyph unicode="&#x203a;" horiz-adv-x="424" d="M43 42l158 219l-157 222h183l154 -222l-154 -219h-184z" />
<glyph unicode="&#x205f;" horiz-adv-x="232" />
<glyph unicode="&#x20ac;" horiz-adv-x="764" d="M85 462h63q27 118 108 185t202 67q90 0 156.5 -44t103.5 -119l-135 -49q-21 40 -56.5 58t-73.5 18q-48 0 -84.5 -30t-55.5 -86h195l-43 -78h-168q-1 -8 -1.5 -16.5t-0.5 -16.5q0 -9 0.5 -16t0.5 -15h133l-42 -77h-76q19 -59 56.5 -89t87.5 -30q36 0 73.5 15.5t58.5 58.5 l134 -49q-37 -75 -106.5 -118.5t-160.5 -43.5q-123 0 -202.5 67.5t-104.5 188.5h-103l42 77h52v64h-95l42 78v0z" />
<glyph unicode="&#x2122;" horiz-adv-x="981" d="M43 701h368v-97h-126v-288h-115v288h-127v97zM617 701l70 -247l70 247h182v-385h-113v270l-88 -270h-102l-88 270v-270h-112v385h181z" />
<glyph unicode="&#x25fc;" horiz-adv-x="519" d="M0 520h520v-520h-520v520z" />
<glyph horiz-adv-x="261" d="M-21 870q0 24 18 41.5t41 17.5q22 0 40 -15l5.5 -6.5t15 -17t21 -23.5t24.5 -27q28 -32 65 -72h-131l-78 57q-10 11 -15.5 21t-5.5 24v0z" />
<glyph horiz-adv-x="208" d="M46 768q35 38 63 70q12 14 23 26t19 22q11 12 20 22l5 6q18 15 40 15q24 0 41.5 -17t17.5 -42q0 -14 -5 -24.5t-15 -20.5l-78 -57h-131v0z" />
<glyph horiz-adv-x="414" d="M155 907q11 9 24 14.5t28 5.5q29 0 51 -20l156 -139h-136l-71 64l-71 -64h-135l154 139v0z" />
<glyph horiz-adv-x="384" d="M17 835q0 31 22 53t52 22q31 0 52.5 -22t21.5 -53q0 -30 -21.5 -51.5t-52.5 -21.5q-30 0 -52 21.5t-22 51.5v0zM221 835q0 31 22 53t52 22q31 0 52 -22t21 -53q0 -30 -21 -51.5t-52 -21.5q-30 0 -52 21.5t-22 51.5v0z" />
<glyph horiz-adv-x="384" d="M129 891q25 0 42.5 -6.5t31.5 -14.5t27.5 -15t28.5 -7t25 5.5t20 16.5q19 21 38 21q28 0 40 -21t-2 -45q-17 -29 -49 -44.5t-65 -15.5q-38 0 -72 17q-19 10 -30 16t-24 7q-19 1 -32.5 -7.5t-16.5 -26.5h-93q9 57 41.5 88.5t89.5 31.5v0z" />
</font>
</defs>
</svg>
