<?xml version="1.0" standalone="no"?>
<!DOCTYPE svg PUBLIC "-//W3C//DTD SVG 1.1//EN" "http://www.w3.org/Graphics/SVG/1.1/DTD/svg11.dtd" >
<svg xmlns="http://www.w3.org/2000/svg" xmlns:xlink="http://www.w3.org/1999/xlink" version="1.1">
<metadata></metadata>
<defs>
<font id="atkinson_hyperlegibleregular" horiz-adv-x="579" >
<font-face units-per-em="1000" ascent="800" descent="-200" />
<missing-glyph horiz-adv-x="294" />
<glyph horiz-adv-x="0" />
<glyph unicode="&#xd;" horiz-adv-x="0" />
<glyph unicode=" "  horiz-adv-x="294" />
<glyph unicode="&#x09;" horiz-adv-x="294" />
<glyph unicode="&#xa0;" horiz-adv-x="294" />
<glyph unicode="!" horiz-adv-x="295" d="M80 55q0 28 20 48t47 20q28 0 48 -20t20 -48t-20 -48t-48 -20q-27 0 -47 20t-20 48v0zM101 521v180h93v-180l-19 -316h-55z" />
<glyph unicode="&#x22;" horiz-adv-x="316" d="M42 701h84l-15 -232h-54zM274 701l-15 -232h-54l-15 232h84z" />
<glyph unicode="#" horiz-adv-x="687" d="M51 266h131l24 170h-130l11 85h130l26 180h86l-26 -180h130l25 180h86l-25 -180h129l-12 -85h-130l-23 -170h129l-11 -85h-131l-25 -181h-86l25 181h-129l-25 -181h-86l26 181h-130zM268 266h129l23 170h-129z" />
<glyph unicode="$" horiz-adv-x="623" d="M133 181q36 -94 147 -109v251l-37 8q-36 7 -71.5 21t-62 37.5t-43.5 56.5t-17 77q0 46 21 80.5t54.5 58t74 36t81.5 15.5v66h53v-66q70 -5 128 -36t88 -94l-90 -27q-21 34 -55 51t-71 22v-224l12 -3q40 -10 82 -23.5t76.5 -36t56.5 -57t22 -88.5q0 -49 -20.5 -87 t-55 -64.5t-79.5 -41t-94 -17.5v-78h-53v79q-91 9 -151.5 52t-86.5 113l91 28v0zM333 71q70 5 108.5 37t38.5 81q0 27 -11 47t-30.5 34.5t-46.5 24t-59 17.5v-241v0zM265 421l15 -3v212q-20 -2 -43 -8.5t-42.5 -18.5t-32 -30.5t-12.5 -44.5q0 -47 32.5 -72.5t82.5 -34.5v0z " />
<glyph unicode="%" horiz-adv-x="973" d="M552 178q0 40 15 75t41 60.5t61 41t74 15.5q40 0 74.5 -15.5t60.5 -41t40.5 -60.5t14.5 -75q0 -39 -14.5 -74t-40.5 -61t-60.5 -41t-74.5 -15q-39 0 -74 15t-61 41t-41 61t-15 74v0zM231 714q40 0 74 -14.5t60.5 -41t41 -61t14.5 -74.5q0 -39 -14.5 -73.5t-41 -61 t-60.5 -41t-74 -14.5t-74.5 14.5t-61 41t-41 61t-14.5 73.5q0 40 14.5 74.5t41 61t61 41t74.5 14.5v0zM118 523q0 -23 8.5 -43.5t24.5 -36t36.5 -24t43.5 -8.5t43.5 8.5t36 24t24 36t8.5 43.5q0 24 -8.5 44.5t-24 35.5t-36 24t-43.5 9t-44 -9t-36.5 -24t-24 -35.5 t-8.5 -44.5v0zM630 178q0 -23 9 -43.5t24 -36t36 -24.5t44 -9t43.5 9t36 24.5t24.5 36t9 43.5q0 24 -9 44.5t-24.5 35.5t-36 24t-43.5 9t-44 -9t-36 -24t-24 -35.5t-9 -44.5v0zM195 0l492 701h92l-491 -701h-93z" />
<glyph unicode="&#x26;" horiz-adv-x="740" d="M219 406q-35 40 -56 79t-21 80q0 35 14 62t39 46.5t60.5 30t77.5 10.5q32 0 64.5 -8t59 -25t43 -46t16.5 -72q0 -66 -41 -110.5t-106 -71.5l142 -151q14 32 23.5 69t12.5 80h91q-5 -57 -20.5 -112t-44.5 -102l157 -165h-125l-86 91q-47 -48 -107 -76t-136 -28 q-54 0 -98 16t-75 44t-47 65t-16 80q0 81 49 134t130 80v0zM276 65q56 0 102.5 22t83.5 63l-190 201q-63 -22 -100.5 -59t-37.5 -96q0 -30 12 -54t31.5 -41.5t45 -26.5t53.5 -9v0zM315 436q51 19 82.5 49.5t31.5 72.5q0 43 -27.5 60.5t-66.5 17.5t-69 -16.5t-30 -52.5 q0 -22 10.5 -43t24.5 -39t27 -31t17 -18v0z" />
<glyph unicode="'" horiz-adv-x="168" d="M42 701h84l-15 -232h-54z" />
<glyph unicode="(" horiz-adv-x="315" d="M52 294q0 108 28.5 211.5t87.5 195.5h79q-53 -74 -85 -180.5t-32 -228.5q0 -116 34 -234.5t114 -226.5h-80q-72 103 -109 221.5t-37 241.5v0z" />
<glyph unicode=")" horiz-adv-x="315" d="M37 -169q80 108 114.5 227t34.5 235q0 121 -32 227.5t-85 180.5h79q59 -92 86.5 -195.5t27.5 -210.5q0 -124 -36 -242.5t-108 -221.5h-81v0z" />
<glyph unicode="*" horiz-adv-x="454" d="M177 533l-106 34l19 58l106 -35v111h60v-111l106 35l19 -58l-107 -34l66 -90l-48 -36l-66 91l-65 -91l-49 36z" />
<glyph unicode="+" horiz-adv-x="632" d="M56 218v84h218v219h84v-219h218v-84h-218v-218h-84v218h-218z" />
<glyph unicode="," horiz-adv-x="215" d="M40 56q0 27 20 47t47 20q28 0 48 -20t20 -47q0 -13 -5 -27l-65 -169h-58l50 128q-25 5 -41 23.5t-16 44.5v0z" />
<glyph unicode="-" horiz-adv-x="386" d="M40 303h306v-85h-306v85z" />
<glyph unicode="." horiz-adv-x="215" d="M40 55q0 28 20 48t47 20q28 0 48 -20t20 -48t-20 -48t-48 -20q-27 0 -47 20t-20 48v0z" />
<glyph unicode="/" horiz-adv-x="395" d="M289 701h91l-273 -701h-91z" />
<glyph unicode="0" horiz-adv-x="680" d="M63 352q0 176 70.5 269t206.5 93q137 0 207 -93t70 -269q0 -178 -70 -271.5t-207 -93.5q-136 0 -206.5 93.5t-70.5 271.5v0zM159 352q0 -139 44 -213t137 -74q73 0 117 47l-277 398q-12 -32 -16.5 -71.5t-4.5 -86.5v0zM228 594l276 -394q18 62 18 152q0 137 -44.5 210.5 t-137.5 73.5q-68 0 -112 -42v0z" />
<glyph unicode="1" horiz-adv-x="422" d="M44 529v71q38 0 72 3.5t62.5 14.5t49.5 31t32 52h59v-701h-88v529h-187v0z" />
<glyph unicode="2" horiz-adv-x="576" d="M36 0v79q93 68 166 128t123.5 114t76.5 102.5t26 95.5q0 54 -34 87.5t-97 33.5q-25 0 -48.5 -6t-43 -20t-34.5 -37t-21 -54l-88 25q19 77 81.5 121.5t155.5 44.5q49 0 89.5 -12t70 -35.5t46.5 -58t17 -78.5q0 -61 -30 -118.5t-80.5 -113.5t-117 -110t-140.5 -107h387v-81 h-505v0z" />
<glyph unicode="3" horiz-adv-x="602" d="M44 159l87 25q12 -56 50 -89.5t106 -33.5q69 0 113.5 34.5t44.5 100.5q0 51 -25.5 78t-61.5 39.5t-72 14.5t-57 2v80q29 0 64 2.5t64.5 14t49.5 35t20 64.5q0 28 -11 49.5t-29 36t-43 21.5t-53 7q-65 0 -102.5 -32.5t-47.5 -84.5l-86 25q19 76 79.5 121t158.5 45 q46 0 87 -9.5t72 -31t49.5 -55t18.5 -82.5q0 -54 -29.5 -97t-85.5 -66q40 -13 66 -31.5t41 -41.5t21.5 -49t6.5 -54q0 -53 -21 -92.5t-56.5 -65t-81 -39t-95.5 -13.5q-54 0 -95 13.5t-70.5 36.5t-48 54.5t-28.5 67.5v0z" />
<glyph unicode="4" horiz-adv-x="644" d="M40 256l347 445h90v-445h128v-83h-128v-173h-89v173h-348v83zM388 256v325l-253 -325h253z" />
<glyph unicode="5" horiz-adv-x="612" d="M57 159l86 25q12 -58 49 -90.5t106 -32.5q32 0 60 11t49.5 32.5t34.5 53t13 72.5q0 44 -14.5 75.5t-36.5 52t-50 30t-57 9.5q-27 0 -49.5 -7.5t-40 -18.5t-29 -25t-16.5 -27l-86 25l43 357h402v-85h-331l-24 -196q27 27 67 39.5t84 12.5q46 0 87.5 -16t73 -46.5 t50.5 -75.5t19 -103q0 -60 -20.5 -105.5t-55 -76.5t-79 -46.5t-94.5 -15.5q-53 0 -93.5 14t-70 37t-49 54t-28.5 67v0z" />
<glyph unicode="6" horiz-adv-x="627" d="M63 326q0 74 14 144t46.5 124.5t84.5 87t129 32.5q79 0 126.5 -32.5t70.5 -79.5l-89 -27q-16 31 -46 48t-72 17q-41 0 -72.5 -19t-53 -55t-33.5 -86t-14 -110q24 41 69.5 69t115.5 28q49 0 90 -17t71.5 -48.5t47.5 -76t17 -96.5q0 -48 -17.5 -92.5t-50 -77.5t-77.5 -52.5 t-102 -19.5q-132 0 -193.5 88t-61.5 251v0zM318 62q69 0 110.5 45.5t41.5 118.5q0 72 -41.5 118t-110.5 46q-70 0 -111.5 -46t-41.5 -118q0 -73 41.5 -118.5t111.5 -45.5v0z" />
<glyph unicode="7" horiz-adv-x="535" d="M402 616h-386v85h484v-85l-292 -616h-110z" />
<glyph unicode="8" horiz-adv-x="645" d="M63 197q0 69 35 116t94 71q-27 27 -43.5 62.5t-16.5 77.5q0 40 15 74t41 60.5t61 41t73 14.5q40 0 75 -14.5t61 -41t40.5 -60.5t14.5 -74q0 -42 -16 -77.5t-43 -62.5q58 -24 93.5 -71t35.5 -116q0 -50 -20 -89t-55.5 -65.5t-82.5 -41t-103 -14.5q-54 0 -101.5 14.5 t-82.5 41t-55 65.5t-20 89v0zM159 197q0 -62 44 -97t119 -35q76 0 120.5 35t44.5 97t-44.5 99t-120.5 37q-75 0 -119 -37t-44 -99v0zM322 411q23 0 43.5 8.5t36 24t24.5 36.5t9 45q0 23 -9 43.5t-24.5 35t-36 23.5t-43.5 9t-43.5 -9t-35.5 -23.5t-24 -35t-9 -43.5 q0 -24 9 -45t24 -36.5t35.5 -24t43.5 -8.5v0z" />
<glyph unicode="9" horiz-adv-x="627" d="M63 463q0 51 19.5 97t53.5 79.5t79.5 53.5t98.5 20q52 0 98 -19.5t80 -53.5t53.5 -80t19.5 -99q0 -48 -19 -96q-5 -12 -24 -49t-47.5 -87.5t-65 -110t-76.5 -118.5h-109q25 36 51 72q22 33 48 71.5t47 73.5q-27 -6 -56 -6q-52 0 -97.5 20t-79.5 54t-54 80t-20 98v0z M314 301q34 0 63.5 13t52 35t35 51t12.5 63t-12.5 62.5t-35 50.5t-52 35t-63.5 13t-63 -13t-51 -35t-34.5 -50.5t-12.5 -62.5t12.5 -63t34.5 -51t51 -35t63 -13v0z" />
<glyph unicode=":" horiz-adv-x="215" d="M40 462q0 27 20 47t47 20q28 0 48 -20t20 -47q0 -28 -20 -48t-48 -20q-27 0 -47 20t-20 48v0zM107 123q28 0 48 -20t20 -48t-20 -48t-48 -20q-27 0 -47 20t-20 48t20 48t47 20v0z" />
<glyph unicode=";" horiz-adv-x="215" d="M40 56q0 27 20 47t47 20q28 0 48 -20t20 -47q0 -13 -5 -27l-65 -169h-58l50 128q-25 5 -41 23.5t-16 44.5v0zM40 462q0 27 20 47t47 20q28 0 48 -20t20 -47q0 -28 -20 -48t-48 -20q-27 0 -47 20t-20 48v0z" />
<glyph unicode="&#x3c;" horiz-adv-x="580" d="M42 224v73l497 224v-95l-387 -166l387 -166v-94z" />
<glyph unicode="=" horiz-adv-x="632" d="M56 405h520v-83h-520v83zM576 210v-83h-520v83h520z" />
<glyph unicode="&#x3e;" horiz-adv-x="580" d="M539 297v-73l-497 -224v94l386 166l-386 166v95z" />
<glyph unicode="?" horiz-adv-x="546" d="M42 550q8 38 28 68.5t50.5 51.5t69.5 32.5t84 11.5q41 0 80.5 -10t70.5 -31.5t50 -54t19 -76.5q0 -34 -11.5 -63.5t-29.5 -53.5t-42 -44.5t-49 -36.5q-22 -14 -37.5 -25t-25 -23t-14 -26.5t-4.5 -34.5v-35h-90v38q0 31 7.5 53.5t22.5 42t37.5 36.5t52.5 36q38 24 64 54 t26 73q0 51 -36.5 79t-94.5 28q-36 0 -61 -9.5t-42 -26.5t-26.5 -37t-12.5 -41l-86 24v0zM170 55q0 28 20 48t48 20q29 0 48.5 -20.5t19.5 -47.5q0 -20 -11 -37t-30 -25q-14 -6 -27 -6q-26 0 -47 18.5t-21 49.5v0z" />
<glyph unicode="@" horiz-adv-x="819" d="M416 714q60 0 122 -22t112.5 -64t83 -103.5t32.5 -140.5q0 -61 -14.5 -103.5t-37.5 -68.5t-52.5 -37.5t-57.5 -11.5q-37 0 -67 16.5t-40 44.5q-26 -31 -58 -46t-64 -15q-29 0 -55 11t-46.5 32.5t-32.5 53.5t-12 74q0 60 17.5 100.5t45.5 65t65.5 35t76.5 10.5q31 0 63 -6 t62 -15v-237q0 -23 13 -35t32 -12q27 0 46 14.5t30.5 35.5t16 46.5t4.5 47.5q0 54 -22.5 102t-60.5 84.5t-90 57.5t-112 21q-61 0 -115.5 -23t-95 -63.5t-64 -94.5t-23.5 -116q0 -67 25 -122.5t66.5 -94.5t95 -61.5t111.5 -22.5q37 0 73 9.5t70 28.5v-72 q-34 -15 -69.5 -22.5t-71.5 -7.5q-69 0 -135.5 26.5t-117.5 74t-82 115t-31 149.5q0 74 28.5 140.5t78 115.5t115.5 77.5t142 28.5v0zM387 240q16 0 31.5 7.5t27.5 22t20 36t8 49.5v108q-12 2 -23.5 3t-24.5 1q-20 0 -39 -5t-35 -20.5t-25.5 -42.5t-9.5 -70q0 -45 21.5 -67 t48.5 -22v0z" />
<glyph unicode="A" horiz-adv-x="657" d="M274 702h110l263 -702h-105l-54 153h-319l-53 -153h-106zM200 238h258l-129 365z" />
<glyph unicode="B" horiz-adv-x="649" d="M80 701h282q57 0 98.5 -14.5t67.5 -38.5t39 -55.5t13 -65.5q0 -42 -19 -83t-55 -71q53 -28 78.5 -74.5t25.5 -96.5q0 -38 -14.5 -74.5t-43.5 -64.5t-72 -45.5t-101 -17.5h-299v701v0zM178 323v-240h212q29 0 51 10.5t37.5 28t22.5 39t7 44.5q0 22 -7 43.5t-22.5 38 t-37.5 26.5t-53 10h-210v0zM178 618v-217h195q27 0 47 9.5t33 24t20 34t7 39.5q0 21 -7 40.5t-20.5 35.5t-33.5 25t-46 9h-195v0z" />
<glyph unicode="C" horiz-adv-x="688" d="M379 714q89 0 159 -41t107 -118l-86 -31q-25 47 -70.5 77t-114.5 30q-46 0 -86.5 -18t-70.5 -53t-47 -87.5t-17 -120.5q0 -66 16.5 -118t46.5 -88.5t71 -56t90 -19.5q69 0 115.5 29.5t70.5 77.5l86 -31q-38 -79 -111.5 -119t-166.5 -40q-76 0 -135 27t-99.5 75.5 t-62.5 115.5t-22 147q0 82 23.5 148.5t66 114.5t102.5 73.5t135 25.5v0z" />
<glyph unicode="D" horiz-adv-x="706" d="M80 701h191q84 0 154 -17t121 -57.5t79.5 -107.5t28.5 -167q0 -101 -28.5 -168.5t-79.5 -108t-121 -58t-154 -17.5h-191v701v0zM178 618v-535h91q54 0 105 8.5t91 36t64 81t24 143.5q0 89 -24 141.5t-64 80.5t-91 36t-105 8h-91v0z" />
<glyph unicode="E" horiz-adv-x="595" d="M80 0v701h475v-85h-377v-213h279v-85h-279v-233h377v-85h-475z" />
<glyph unicode="F" horiz-adv-x="575" d="M80 0v701h456v-85h-358v-213h358v-85h-358v-318h-98z" />
<glyph unicode="G" horiz-adv-x="745" d="M379 714q88 0 159 -41t108 -118l-87 -31q-25 47 -70.5 77t-114.5 30q-46 0 -86.5 -18t-70.5 -53t-47 -87.5t-17 -120.5q0 -66 16.5 -118t45.5 -88.5t70 -56t89 -19.5q34 0 71 8.5t67 29.5t49.5 56.5t19.5 89.5v23h-205v85h298v-362h-57l-26 88q-33 -53 -91.5 -77 t-129.5 -24q-76 0 -135 27t-100 75.5t-62 115.5t-21 147q0 82 23.5 148.5t66 114.5t102.5 73.5t135 25.5v0z" />
<glyph unicode="H" horiz-adv-x="724" d="M80 0v701h98v-298h368v298h99v-701h-99v318h-368v-318h-98z" />
<glyph unicode="I" horiz-adv-x="434" d="M69 624v77h296v-77h-98v-546h98v-78h-296v78h99v546h-99z" />
<glyph unicode="J" horiz-adv-x="535" d="M107 225q-1 -40 9 -69.5t28 -49t41.5 -29t49.5 -9.5q21 0 43 6.5t39.5 24t28.5 47.5t11 78v477h99v-478q0 -116 -58.5 -176t-162.5 -60q-99 0 -156.5 53t-62.5 158l91 27v0z" />
<glyph unicode="K" horiz-adv-x="658" d="M80 0v701h98v-352l317 352h122l-267 -293l298 -408h-121l-243 336l-106 -116v-220h-98z" />
<glyph unicode="L" horiz-adv-x="565" d="M80 701h98v-616h377v-85h-475v701z" />
<glyph unicode="M" horiz-adv-x="861" d="M80 0v701h164l186 -573l187 573h164v-701h-99v598l-202 -598h-98l-204 598v-598h-98z" />
<glyph unicode="N" horiz-adv-x="723" d="M80 0v701h146l319 -596v596h99v-701h-145l-321 600v-600h-98z" />
<glyph unicode="O" horiz-adv-x="763" d="M52 352q0 78 23.5 145t66 115t103.5 75t136 27q76 0 137.5 -27t104 -75t65.5 -115t23 -145q0 -80 -23 -146.5t-65.5 -115t-104 -76t-137.5 -27.5q-75 0 -136 27.5t-103.5 76t-66 115t-23.5 146.5v0zM153 352q0 -68 18 -121t48.5 -88.5t72.5 -54t89 -18.5q48 0 89.5 18.5 t72.5 54t49 88.5t18 121t-18 120t-49 87t-72.5 53.5t-89.5 18.5q-47 0 -89 -18.5t-72.5 -53.5t-48.5 -87t-18 -120v0z" />
<glyph unicode="P" horiz-adv-x="631" d="M80 701h219q64 0 117.5 -8.5t92.5 -32.5t60.5 -65t21.5 -106t-21.5 -106t-60.5 -64t-92.5 -31.5t-117.5 -8.5h-121v-278h-98v700v0zM178 618v-254h130q37 0 71 4t58.5 16.5t38.5 37t14 67.5t-14 69t-38.5 39t-58.5 17t-71 4h-130v0z" />
<glyph unicode="Q" horiz-adv-x="790" d="M381 714q76 0 137.5 -27t104 -75t65.5 -115t23 -145q0 -60 -12.5 -111t-36.5 -95l129 -121l-68 -71l-122 114q-41 -39 -97 -60t-123 -21q-75 0 -136 27.5t-103.5 76t-66 115t-23.5 146.5q0 78 23.5 145t66 115t103.5 75t136 27v0zM381 70q44 0 83 16t69 46l-188 177 l68 71l174 -164q11 29 17 62.5t6 73.5q0 68 -18 120t-49 87t-72.5 53.5t-89.5 18.5q-47 0 -89 -18.5t-72.5 -53.5t-48.5 -87t-18 -120t18 -121t48.5 -88.5t72.5 -54t89 -18.5v0z" />
<glyph unicode="R" horiz-adv-x="648" d="M302 701q64 0 118 -7.5t92.5 -29.5t60 -61.5t21.5 -102.5q0 -36 -7 -68t-28.5 -58t-59.5 -44.5t-99 -27.5l217 -302h-120l-213 295h-106v-295h-98v701h222v0zM178 378h132q39 0 72.5 3.5t58 16t39 36t14.5 64.5t-14.5 64.5t-39 36t-58 16t-72.5 3.5h-132v-240v0z" />
<glyph unicode="S" horiz-adv-x="625" d="M133 181q10 -29 28.5 -50t43 -34t53.5 -20t57 -7q31 0 61 8t53 23.5t37 39t14 54.5q0 24 -9.5 42t-30.5 32.5t-55 26t-85 21.5q-41 9 -85 21t-81 34.5t-61.5 59t-24.5 94.5q0 44 22 79t58.5 59.5t82.5 37t95 12.5q36 0 73 -8t69 -24t58 -41t43 -58l-90 -27q-21 37 -65 56 t-93 19q-28 0 -55.5 -7t-49 -20.5t-34 -34t-12.5 -47.5q0 -30 15 -48.5t40 -31.5t57.5 -21t68.5 -16q46 -9 91 -22.5t81 -37t58.5 -60.5t22.5 -94q0 -48 -23 -86.5t-61.5 -64t-88 -39.5t-100.5 -14q-43 0 -85.5 10t-79 30.5t-63.5 52t-41 73.5l91 28v0z" />
<glyph unicode="T" horiz-adv-x="585" d="M10 701h565v-85h-233v-616h-98v616h-234v85z" />
<glyph unicode="U" horiz-adv-x="724" d="M178 701v-415q0 -104 41.5 -159t142.5 -55t142.5 55t41.5 159v415h99v-408q0 -77 -15.5 -134t-49.5 -95.5t-87.5 -57.5t-130.5 -19q-76 0 -130 19t-87.5 57.5t-49 95.5t-15.5 134v408h98v0z" />
<glyph unicode="V" horiz-adv-x="618" d="M10 701h109l190 -585l191 585h108l-242 -701h-115z" />
<glyph unicode="W" horiz-adv-x="882" d="M10 701h109l136 -579l128 579h116l128 -579l136 579h109l-176 -701h-120l-135 580l-135 -580h-119z" />
<glyph unicode="X" horiz-adv-x="654" d="M268 361l-243 340h118l184 -257l183 257h119l-243 -340l258 -361h-119l-198 278l-198 -278h-119z" />
<glyph unicode="Y" horiz-adv-x="624" d="M10 701h109l194 -339l193 339h108l-252 -429v-272h-98v272z" />
<glyph unicode="Z" horiz-adv-x="637" d="M46 85l414 531h-398v85h513v-85l-411 -531h427v-85h-545v85z" />
<glyph unicode="[" horiz-adv-x="330" d="M80 -169v870h216v-77h-131v-715h131v-78h-216z" />
<glyph unicode="\" horiz-adv-x="395" d="M16 701h91l273 -701h-91z" />
<glyph unicode="]" horiz-adv-x="330" d="M251 701v-870h-216v78h131v715h-131v77h216z" />
<glyph unicode="^" d="M56 327l194 374h80l194 -374h-94l-140 270l-141 -270h-93z" />
<glyph unicode="_" horiz-adv-x="415" d="M10 0h395v-83h-395v83z" />
<glyph unicode="`" horiz-adv-x="281" d="M96 742q8 0 16.5 -3t15.5 -12l98 -127h-74q-21 16 -42.5 34.5t-35.5 33.5q-12 11 -15 19t-3 15q0 17 11.5 28.5t28.5 11.5v0z" />
<glyph unicode="a" horiz-adv-x="552" d="M392 321q2 66 -26.5 102t-91.5 36q-47 0 -77 -21.5t-38 -59.5l-85 25q20 60 74.5 93t124.5 33q108 0 157 -50.5t50 -160.5l1 -122q1 -66 5.5 -112.5t12.5 -83.5h-81l-21 71q-24 -39 -66 -61.5t-112 -22.5q-36 0 -68.5 10t-57.5 29.5t-39 47.5t-14 64q0 46 25 77.5t71 52 t111 32.5t145 21v0zM138 140q0 -37 26.5 -59.5t73.5 -22.5q31 0 60 8t51.5 26t36 49t13.5 77v33q-60 -6 -108 -14t-82.5 -20.5t-52.5 -31t-18 -45.5v0z" />
<glyph unicode="b" horiz-adv-x="594" d="M74 701h88v-262q24 41 65.5 65.5t103.5 24.5q44 0 85 -18.5t71.5 -53t48.5 -85t18 -114.5t-18 -114.5t-48.5 -85t-71.5 -53t-85 -18.5q-62 0 -103.5 25t-65.5 67l-23 -79h-65v701v0zM308 63q67 0 107.5 51t40.5 144q0 94 -40.5 145t-107.5 51q-68 0 -108 -51t-40 -145 q0 -93 40 -144t108 -51v0z" />
<glyph unicode="c" horiz-adv-x="525" d="M292 529q70 0 120.5 -34.5t75.5 -82.5l-81 -30q-17 32 -49 51t-72 19q-30 0 -57 -12t-47.5 -35.5t-33.5 -59.5t-13 -86q0 -49 13 -85t34 -60.5t47.5 -36.5t56.5 -12q43 0 74.5 19.5t49.5 48.5l80 -29q-29 -50 -83.5 -83.5t-124.5 -33.5q-55 0 -100.5 20t-76.5 56.5 t-48 86.5t-17 108q0 59 18 108.5t50.5 85.5t79 56.5t104.5 20.5v0z" />
<glyph unicode="d" horiz-adv-x="592" d="M264 529q62 0 103 -24.5t66 -65.5v262h88v-505q0 -26 2 -76.5t16 -119.5h-83l-23 79q-25 -42 -66 -67t-103 -25q-45 0 -85.5 18.5t-71 53t-49 85t-18.5 114.5t18.5 114.5t49 85t71 53t85.5 18.5v0zM139 258q0 -93 40 -144t108 -51q67 0 107.5 51t40.5 144q0 94 -40.5 145 t-107.5 51q-68 0 -108 -51t-40 -145v0z" />
<glyph unicode="e" horiz-adv-x="565" d="M293 529q62 0 109 -24.5t78 -65.5t45.5 -94t10.5 -109h-402q2 -49 18.5 -82t40 -52.5t51 -28t51.5 -8.5q44 0 74 13.5t48 38.5l85 -26q-28 -46 -80.5 -75t-126.5 -29q-61 0 -108.5 21t-80 58t-49.5 86.5t-17 106.5q0 62 19.5 112t53.5 85t80 54t100 19v0zM442 307 q0 27 -10.5 53.5t-30 47t-46.5 33.5t-62 13q-29 0 -56.5 -8.5t-48.5 -26t-35 -45.5t-18 -67h307v0z" />
<glyph unicode="f" horiz-adv-x="326" d="M16 450v71h88v77q0 40 5 67.5t20.5 44.5t43 24t71.5 7h56v-74h-54q-34 0 -44 -14t-10 -53v-79h108v-71h-108v-450h-88v450h-88v0z" />
<glyph unicode="g" horiz-adv-x="588" d="M260 529q63 0 102.5 -24.5t63.5 -65.5l24 82h64v-472q0 -39 -2.5 -74t-15 -65t-38 -54t-71.5 -41q-22 -8 -47 -12.5t-52 -4.5q-32 0 -64 7t-59 21.5t-48 38t-32 55.5l88 24q8 -21 20.5 -34t28 -20.5t33 -10.5t33.5 -3q20 0 35.5 3t22.5 5q25 9 40 20.5t24 29t12.5 41 t3.5 54.5v70q-24 -41 -63.5 -65.5t-102.5 -24.5q-43 0 -82.5 17t-70 50t-49 81.5t-18.5 111.5t18.5 111t49 81.5t70 50.5t82.5 17v0zM135 269q0 -89 41 -137.5t106 -48.5q30 0 56.5 10.5t46.5 33t32 57.5t12 85q0 49 -12 84t-32 57.5t-46.5 33t-56.5 10.5q-65 0 -106 -48 t-41 -137v0z" />
<glyph unicode="h" horiz-adv-x="573" d="M162 701v-259q22 37 62 62t106 25q47 0 80 -14.5t53.5 -41t29.5 -63t9 -80.5v-330h-88v303q0 31 -4 57.5t-16 47.5t-34.5 33.5t-60.5 12.5q-64 0 -100.5 -44t-36.5 -128v-282h-88v701h88v0z" />
<glyph unicode="i" horiz-adv-x="291" d="M99 686q0 27 18.5 46t46.5 19q27 0 46.5 -19t19.5 -46q0 -28 -19.5 -47t-46.5 -19q-28 0 -46.5 19t-18.5 47v0zM47 521h161v-521h-88v450h-73v71z" />
<glyph unicode="j" horiz-adv-x="266" d="M-61 -167v77q15 -1 26.5 -1h22.5q34 0 54.5 3.5t32 15t15.5 31.5t4 54v508h89v-514q0 -50 -9 -84t-30 -54.5t-57.5 -29t-89.5 -8.5q-14 0 -28 0.5t-30 1.5v0zM72 686q0 27 19.5 46t47.5 19q27 0 46 -19t19 -46q0 -28 -19 -47t-46 -19q-28 0 -47.5 19t-19.5 47v0z" />
<glyph unicode="k" horiz-adv-x="514" d="M74 0v701h88v-414l210 234h106l-197 -215l223 -306h-108l-173 240l-61 -66v-174h-88z" />
<glyph unicode="l" horiz-adv-x="250" d="M74 130v570h88v-555q0 -40 8 -53.5t45 -13.5h20v-78h-39q-37 0 -61 5t-37.5 19.5t-18.5 39.5t-5 66v0z" />
<glyph unicode="m" horiz-adv-x="883" d="M74 521h65l23 -79q22 37 59.5 62t96.5 25q60 0 96 -24t54 -67q32 48 76.5 69.5t99.5 21.5q45 0 77 -14.5t52 -41t29.5 -63t9.5 -80.5v-330h-89v303q0 31 -3.5 57.5t-15.5 47.5t-33.5 33.5t-58.5 12.5q-57 0 -91 -44t-34 -128v-282h-88v303q0 31 -4 57.5t-15.5 47.5 t-34 33.5t-57.5 12.5q-57 0 -91.5 -44t-34.5 -128v-282h-88v521v0z" />
<glyph unicode="n" horiz-adv-x="573" d="M139 521l23 -79q22 37 62 62t106 25q47 0 80 -14.5t53.5 -41t29.5 -63t9 -80.5v-330h-88v303q0 31 -4 57.5t-16 47.5t-34.5 33.5t-60.5 12.5q-64 0 -100.5 -44t-36.5 -128v-282h-88v521h65v0z" />
<glyph unicode="o" d="M40 258q0 71 22 122.5t57.5 84.5t80.5 48.5t90 15.5t89.5 -15.5t80.5 -48.5t58 -84.5t22 -122.5q0 -70 -22 -121.5t-58 -84.5t-80.5 -49t-89.5 -16t-90 16t-80.5 49t-57.5 84.5t-22 121.5v0zM134 258q0 -50 14 -86.5t36 -60t49.5 -35t56.5 -11.5q28 0 56 11.5t50 35 t35.5 60t13.5 86.5q0 51 -13.5 87.5t-35.5 60t-50 35t-56 11.5q-29 0 -56.5 -11.5t-49.5 -35t-36 -60t-14 -87.5v0z" />
<glyph unicode="p" horiz-adv-x="594" d="M74 521h64l24 -82q24 41 65.5 65.5t103.5 24.5q44 0 85 -17.5t71.5 -52.5t48.5 -85.5t18 -115.5q0 -64 -18 -114.5t-48.5 -85t-71.5 -53t-85 -18.5q-62 0 -103.5 25t-65.5 67v-248h-88v690v0zM308 63q67 0 107.5 51t40.5 144q0 94 -40.5 145t-107.5 51q-68 0 -108 -51 t-40 -145q0 -93 40 -144t108 -51v0z" />
<glyph unicode="q" horiz-adv-x="604" d="M40 258q0 65 18 115.5t49 85.5t71 52.5t84 17.5q64 0 105 -24.5t66 -65.5l24 82h64v-546q0 -29 17 -51.5t57 -22.5q28 0 64 14v-82q-21 -6 -43.5 -10.5t-45.5 -4.5q-26 0 -51 7.5t-44 25t-30.5 46.5t-11.5 75v107q-25 -42 -66 -67t-105 -25q-44 0 -84 18.5t-71 53t-49 85 t-18 114.5v0zM287 63q67 0 107.5 51t40.5 144q0 94 -40.5 145t-107.5 51q-69 0 -109 -51t-40 -145q0 -93 40 -144t109 -51v0z" />
<glyph unicode="r" horiz-adv-x="357" d="M74 521h64l28 -97q27 47 73.5 76t112.5 29v-91q-54 0 -90 -14t-58.5 -41t-32 -67t-9.5 -92v-224h-88v521v0z" />
<glyph unicode="s" horiz-adv-x="494" d="M118 149q6 -23 19 -40t31.5 -27.5t39.5 -15t43 -4.5q23 0 45 5t39.5 15.5t28 25t10.5 32.5q0 35 -25 53t-61.5 28t-79 17.5t-79.5 22.5t-61.5 44t-24.5 80q0 35 17.5 62.5t45 45.5t64 27.5t74.5 9.5q62 0 116.5 -25.5t78.5 -80.5l-83 -30q-14 31 -48 46.5t-71 15.5 q-20 0 -38.5 -5t-33.5 -13.5t-24 -21.5t-9 -30q0 -31 25 -45.5t61.5 -23.5t79 -16.5t79.5 -24.5t61.5 -47.5t24.5 -85.5q0 -37 -18 -66t-47.5 -49t-67.5 -30.5t-79 -10.5q-34 0 -67.5 8t-63 24t-52.5 40.5t-35 58.5l85 31v0z" />
<glyph unicode="t" horiz-adv-x="340" d="M109 521v131h88v-131h101v-71h-101v-305q0 -20 1.5 -33t7 -20.5t16 -10.5t29.5 -3h47v-78h-66q-38 0 -61.5 5t-37 19.5t-19 39.5t-5.5 66v320h-88v71h88v0z" />
<glyph unicode="u" horiz-adv-x="562" d="M71 522h89v-307q0 -30 3.5 -57.5t15 -48t33 -32.5t57.5 -12q63 0 97.5 43t34.5 127v287h88v-522h-66l-22 76q-22 -38 -60 -63.5t-103 -25.5q-45 0 -77 15t-52 41.5t-29 64t-9 81.5v333v0z" />
<glyph unicode="v" horiz-adv-x="463" d="M0 521h96l136 -405l136 405h95l-186 -521h-91z" />
<glyph unicode="w" horiz-adv-x="686" d="M0 521h94l100 -386l104 386h92l102 -386l100 386h95l-149 -521h-81l-114 419l-113 -419h-80z" />
<glyph unicode="x" horiz-adv-x="484" d="M190 268l-181 253h104l129 -181l129 181h104l-181 -253l190 -268h-104l-138 194l-138 -194h-104z" />
<glyph unicode="y" horiz-adv-x="450" d="M98 520l128 -401l128 401h96l-184 -543q-14 -42 -28 -70.5t-33.5 -45t-48 -23.5t-72.5 -7h-45v78h36q28 0 46 2.5t30 12t19.5 27t17.5 48.5l-188 521h98v0z" />
<glyph unicode="z" horiz-adv-x="483" d="M42 78l299 365h-290v78h390v-78l-299 -365h310v-78h-410v78z" />
<glyph unicode="{" horiz-adv-x="334" d="M40 231v70q24 0 38.5 7.5t22.5 20.5t10 31.5t2 40.5v158q0 41 5.5 68t21 43.5t43 23.5t71.5 7h45v-74h-44q-35 0 -44 -13.5t-9 -53.5v-161q0 -66 -23 -94.5t-60 -38.5q19 -6 34 -14.5t26 -23.5t17 -38t6 -57v-160q0 -41 9 -54t44 -13h44v-75h-45q-44 0 -71.5 7.5 t-43 23.5t-21 43.5t-5.5 68.5v157q0 22 -2 40.5t-10 31.5t-22.5 20.5t-38.5 7.5v0z" />
<glyph unicode="|" horiz-adv-x="244" d="M80 701h85v-870h-85v870z" />
<glyph unicode="}" horiz-adv-x="334" d="M36 627v74h45q44 0 71.5 -7t43 -23.5t21 -43.5t5.5 -68v-158q0 -22 2 -40.5t10 -31.5t22.5 -20.5t38.5 -7.5v-70q-24 0 -38.5 -7.5t-22.5 -20.5t-10 -31.5t-2 -40.5v-157q0 -41 -5.5 -68.5t-21 -43.5t-43 -23.5t-71.5 -7.5h-45v75h43q18 0 28.5 2.5t16 10t7.5 20.5t2 34 v160q0 34 6 57t17 38t25.5 23.5t33.5 14.5q-19 5 -33.5 14t-25.5 24.5t-17 38.5t-6 56v161q0 20 -2 33t-7.5 20.5t-16 10.5t-28.5 3h-43v0z" />
<glyph unicode="~" horiz-adv-x="582" d="M42 232q12 48 49.5 77.5t94.5 29.5q32 0 61.5 -9t56 -20t49.5 -20t44 -9q24 0 42.5 13.5t23.5 40.5l78 -23q-12 -48 -49 -77.5t-94 -29.5q-28 0 -55.5 9t-54.5 19.5t-51.5 19t-48.5 8.5q-26 0 -44 -13t-23 -39l-79 23v0z" />
<glyph unicode="&#xa1;" horiz-adv-x="295" d="M80 477q0 28 20 48t47 20q28 0 48 -20t20 -48t-20 -47.5t-48 -19.5q-27 0 -47 19.5t-20 47.5v0zM101 -169v181l19 315h55l19 -315v-181h-93z" />
<glyph unicode="&#xa2;" horiz-adv-x="525" d="M40 259q0 53 14.5 98t41.5 80t65.5 58.5t86.5 30.5v74h52v-71q34 -1 63.5 -11t53 -25.5t41.5 -36t30 -43.5l-81 -30q-15 29 -43 46.5t-64 22.5v-387q38 4 66 22.5t44 45.5l80 -29q-27 -47 -76.5 -79t-113.5 -38v-78h-52v81q-48 6 -87 28.5t-66 57.5t-41 82t-14 101v0z M135 260q0 -83 33 -129.5t80 -60.5v376q-47 -12 -80 -58t-33 -128v0z" />
<glyph unicode="&#xa3;" horiz-adv-x="615" d="M164 387q-18 36 -32 72.5t-14 77.5q0 48 20.5 81.5t53.5 55t74.5 31t83.5 9.5q89 0 145.5 -39.5t77.5 -106.5l-87 -26q-15 54 -53 75.5t-88 21.5q-22 0 -46 -5t-43.5 -17t-32 -32.5t-12.5 -51.5q0 -37 16.5 -73t33.5 -73h215v-53h-190q10 -23 14 -44t4 -40 q0 -54 -28.5 -92t-71.5 -64q18 8 33 10.5t30 2.5q23 0 43.5 -5.5t41 -13t42.5 -13.5t49 -6q24 0 52 6t63 21l26 -77q-40 -18 -72 -25t-59 -7q-30 0 -55 6.5t-49.5 14t-49 13.5t-52.5 6q-29 0 -63 -9t-78 -31l-29 71q14 6 37.5 19.5t45 35.5t37 53t15.5 71q0 45 -24 97h-114 v53h90v0z" />
<glyph unicode="&#xa4;" horiz-adv-x="609" d="M56 125l69 69q-24 32 -36.5 68.5t-12.5 74.5t12.5 74.5t36.5 67.5l-69 69l37 38l70 -69q31 25 67.5 37t73.5 12q38 0 75 -12t67 -37l70 69l37 -38l-69 -69q25 -31 37 -67.5t12 -74.5t-12 -74.5t-37 -68.5l69 -69l-37 -37l-70 68q-30 -24 -67 -36t-75 -12q-37 0 -73.5 12 t-67.5 36l-70 -68l-37 37v0zM304 187q32 0 59 11.5t47 32t32 48t12 58.5t-12 58t-32 47.5t-47 32t-59 11.5q-31 0 -58 -11.5t-47.5 -32t-32 -47.5t-11.5 -58t11.5 -58.5t32 -48t47.5 -32t58 -11.5v0z" />
<glyph unicode="&#xa5;" horiz-adv-x="624" d="M119 701l194 -339l193 339h108l-243 -413h148v-54h-157v-90h157v-54h-157v-90h-98v90h-158v54h158v90h-158v54h148l-244 413h109z" />
<glyph unicode="&#xa6;" horiz-adv-x="244" d="M80 701h85v-325h-85v325zM165 156v-325h-85v325h85z" />
<glyph unicode="&#xa7;" horiz-adv-x="556" d="M159 445q-31 21 -55 53t-24 80q0 34 16 59.5t43 42.5t61 25.5t70 8.5q72 0 121 -30t70 -81l-85 -25q-13 33 -43 47.5t-67 14.5q-39 0 -67.5 -14.5t-28.5 -45.5q0 -5 0.5 -8.5t1.5 -8.5q6 -24 34.5 -45t68 -41t83.5 -41.5t81 -48t61.5 -59t24.5 -74.5q0 -28 -9.5 -52.5 t-26.5 -44t-38.5 -35.5t-46.5 -26q31 -25 49 -52.5t18 -67.5q0 -39 -15.5 -68.5t-42.5 -49.5t-63 -30t-76 -10q-79 0 -132 36t-72 100l88 25q10 -41 38 -64t80 -23q46 0 75.5 18t29.5 52t-25.5 59t-64.5 46.5t-84 42.5t-84 47.5t-64.5 61.5t-25.5 84q0 27 9.5 49t27 40 t40.5 31.5t49 21.5v0zM121 309q0 -30 16 -50.5t45.5 -38t69.5 -37t87 -48.5q18 8 35.5 18t31.5 22.5t22.5 28t8.5 33.5q0 31 -19.5 53.5t-49.5 41.5t-67 36t-72 38q-19 -5 -38.5 -14t-34.5 -21.5t-25 -27.5t-10 -34v0z" />
<glyph unicode="&#xa8;" horiz-adv-x="446" d="M56 676q0 23 16 39.5t40 16.5t40.5 -16.5t16.5 -39.5q0 -24 -16.5 -40t-40.5 -16t-40 16t-16 40v0zM334 732q24 0 40.5 -16.5t16.5 -39.5q0 -24 -16.5 -40t-40.5 -16q-23 0 -39.5 16t-16.5 40q0 23 16.5 39.5t39.5 16.5v0z" />
<glyph unicode="&#xa9;" horiz-adv-x="837" d="M56 351q0 75 28 141.5t77.5 115.5t115.5 77.5t142 28.5t142 -28.5t115.5 -77.5t77.5 -115.5t28 -141.5q0 -76 -28 -142t-77.5 -115.5t-115.5 -78t-142 -28.5t-142 28.5t-115.5 78t-77.5 115.5t-28 142v0zM121 351q0 -62 23.5 -116t64 -94.5t94.5 -64.5t116 -24t116 24 t94.5 64.5t64 94.5t23.5 116t-23.5 116t-64 94.5t-94.5 64t-116 23.5t-116 -23.5t-94.5 -64t-64 -94.5t-23.5 -116v0zM423 558q57 0 94.5 -24.5t57.5 -62.5l-70 -26q-14 25 -35.5 38.5t-48.5 13.5q-45 0 -74 -34t-29 -104q0 -71 29 -105.5t74 -34.5q26 0 49.5 10.5 t37.5 37.5l70 -25q-22 -36 -60 -60t-97 -24q-89 0 -136 53.5t-47 147.5t50 146.5t135 52.5v0z" />
<glyph unicode="&#xaa;" horiz-adv-x="389" d="M251 607q0 13 -1 25t-7 22t-17 15.5t-31 5.5q-23 0 -38.5 -9t-21.5 -29l-64 19q12 32 44.5 51.5t82.5 19.5q26 0 48 -6t39 -20.5t27 -38.5t10 -60v-86q0 -25 3.5 -47t8.5 -46h-61l-13 41q-13 -26 -42.5 -36.5t-57.5 -10.5q-49 0 -76.5 23.5t-27.5 61.5q0 29 16 48 t43 30.5t62 17.5t74 9v0zM129 507q0 -18 13.5 -27.5t38.5 -9.5q36 0 53 21.5t17 53.5v11q-70 -7 -96 -17.5t-26 -31.5v0z" />
<glyph unicode="&#xab;" horiz-adv-x="590" d="M211 484h104l-156 -220l156 -222h-104l-155 222zM429 484h105l-157 -220l157 -222h-105l-154 222z" />
<glyph unicode="&#xac;" horiz-adv-x="632" d="M56 416h520v-322h-85v239h-435v83z" />
<glyph unicode="&#xad;" horiz-adv-x="386" d="M40 303h306v-85h-306v85z" />
<glyph unicode="&#xae;" horiz-adv-x="837" d="M419 714q76 0 142 -28.5t115.5 -78t77.5 -116t28 -141.5t-28 -141t-77.5 -115.5t-115.5 -78t-142 -28.5t-142 28.5t-115.5 78t-77.5 115.5t-28 141t28 141.5t77.5 116t115.5 78t142 28.5v0zM419 51q62 0 116 24t94.5 64.5t64 95t23.5 115.5q0 62 -23.5 116.5t-64 95.5 t-94.5 64.5t-116 23.5t-116 -23.5t-94.5 -64.5t-64 -95.5t-23.5 -116.5q0 -61 23.5 -115.5t64 -95t94.5 -64.5t116 -24v0zM277 170v386h118q43 0 76.5 -4.5t57 -17.5t36.5 -37.5t13 -61.5q0 -13 -3.5 -28t-13.5 -30.5t-27.5 -28.5t-48.5 -21l113 -157h-90l-107 146h-44v-146 h-80v0zM357 492v-115h56q45 0 65 14.5t20 42.5q0 35 -25.5 46.5t-65.5 11.5h-50v0z" />
<glyph unicode="&#xaf;" horiz-adv-x="401" d="M56 701h289v-70h-289v70z" />
<glyph unicode="&#xb0;" horiz-adv-x="369" d="M42 571q0 30 11 56t30.5 45.5t45.5 30.5t56 11q29 0 55.5 -11t46 -30.5t30.5 -45.5t11 -56q0 -29 -11 -55.5t-30.5 -46t-46 -30.5t-55.5 -11q-30 0 -56 11t-45.5 30.5t-30.5 46t-11 55.5v0zM108 571q0 -31 22.5 -53.5t54.5 -22.5t54 22.5t22 53.5q0 33 -22 55t-54 22 t-54.5 -22t-22.5 -55v0z" />
<glyph unicode="&#xb1;" horiz-adv-x="607" d="M56 284v82h206v155h83v-155h207v-82h-207v-154h-83v154h-206zM552 83v-83h-496v83h496z" />
<glyph unicode="&#xb2;" horiz-adv-x="401" d="M56 423v58q48 38 86.5 70.5t65 60.5t40.5 54t14 50q0 27 -16 42t-43 15q-25 0 -44 -14.5t-24 -47.5l-67 19q12 44 47.5 69.5t90.5 25.5t92.5 -27t37.5 -78q0 -58 -51.5 -115.5t-143.5 -120.5h204v-61h-289v0z" />
<glyph unicode="&#xb3;" horiz-adv-x="402" d="M56 510l65 19q8 -24 26 -41.5t50 -17.5q33 0 55 17t22 47q0 28 -13 41.5t-31.5 19.5t-38.5 6h-32v56h28t35 5.5t30 18t13 36.5q0 30 -20 43t-45 13q-58 0 -75 -56l-64 19q14 42 50.5 65.5t92.5 23.5q24 0 48 -6t43 -18.5t30.5 -32.5t11.5 -49q0 -28 -15.5 -51t-40.5 -36 q33 -12 49 -38.5t16 -56.5q0 -31 -12 -53.5t-33 -37t-47.5 -22t-57.5 -7.5q-56 0 -91.5 26.5t-48.5 66.5v0z" />
<glyph unicode="&#xb4;" horiz-adv-x="281" d="M56 600q3 4 16.5 21.5t30 38.5t31.5 41t22 28q6 7 13.5 10t16.5 3q17 0 27 -10q13 -11 13 -30q0 -7 -3 -14t-11 -15q-6 -6 -18.5 -17.5t-26.5 -23.5t-25 -21t-13 -11h-73v0z" />
<glyph unicode="&#xb6;" horiz-adv-x="533" d="M40 503q0 41 15.5 77t42.5 63t63 42.5t77 15.5h269v-70h-42v-800h-85v800h-99v-800h-85v478q-33 7 -61.5 25t-49.5 43.5t-33 57.5t-12 68v0z" />
<glyph unicode="&#xb7;" horiz-adv-x="246" d="M56 260q0 28 20 48t47 20q28 0 48 -20t20 -48t-20 -48t-48 -20q-27 0 -47 20t-20 48v0z" />
<glyph unicode="&#xb8;" horiz-adv-x="305" d="M91 -132q34 -15 61 -15q28 0 41 11.5t13 24.5q0 10 -9 18t-29 8q-12 0 -33 -5q-14 -4 -21.5 3t-7.5 17q0 5 3 10l54 86l35 -22l-31 -51q8 2 16 3t15 1q37 0 55 -19.5t18 -44.5q0 -15 -6.5 -30t-19 -26.5t-32 -19t-44.5 -7.5q-41 0 -92 21l14 37v0z" />
<glyph unicode="&#xb9;" horiz-adv-x="268" d="M56 717v49q34 0 61 11.5t37 40.5h59v-395h-70v294h-87v0z" />
<glyph unicode="&#xba;" horiz-adv-x="400" d="M60 572q0 40 12 69t32 48t45.5 28.5t54.5 9.5q28 0 54 -9.5t46 -28.5t32.5 -48t12.5 -69q0 -39 -12.5 -68t-32.5 -48t-46 -28.5t-54 -9.5q-29 0 -54.5 9.5t-45.5 28.5t-32 48t-12 68v0zM132 572q0 -47 20.5 -72t51.5 -25t51.5 25t20.5 72q0 48 -20.5 73t-51.5 25 t-51.5 -25t-20.5 -73v0z" />
<glyph unicode="&#xbb;" horiz-adv-x="590" d="M56 484h105l154 -220l-154 -222h-105l156 222zM379 484l155 -220l-155 -222h-104l157 222l-157 220h104z" />
<glyph unicode="&#xbc;" horiz-adv-x="867" d="M56 650q34 0 61 10.5t37 40.5h60v-394h-71v293h-87v50v0zM121 0l491 701h93l-491 -701h-93zM478 90v57l195 248h70v-245h69v-60h-69v-90h-71v90h-194zM672 150v153l-118 -153h118z" />
<glyph unicode="&#xbd;" horiz-adv-x="852" d="M715 292q0 27 -16.5 42t-43.5 15q-24 0 -43.5 -14.5t-24.5 -47.5l-67 20q11 44 47.5 69t90.5 25q56 0 93.5 -26.5t37.5 -77.5q0 -60 -51.5 -116.5t-144.5 -119.5h204v-61h-289v57q48 39 86.5 71.5t65.5 60.5t41 53.5t14 49.5v0zM56 650q34 0 61 10.5t37 40.5h59v-394h-70 v293h-87v50v0zM612 701h93l-492 -701h-92z" />
<glyph unicode="&#xbe;" horiz-adv-x="911" d="M56 399l65 19q8 -25 26 -42t50 -17q33 0 55 17t22 47q0 27 -13 41t-31.5 19.5t-38.5 5.5h-32v56h28t35 5t30 18t13 37q0 28 -20 41.5t-45 13.5q-31 0 -49 -14.5t-26 -40.5l-64 19q14 42 50.5 66t92.5 24q24 0 48 -6.5t43 -19.5t30.5 -33t11.5 -48q0 -29 -15.5 -52 t-40.5 -35q33 -12 49 -38t16 -57q0 -30 -12 -52.5t-33 -37.5t-47.5 -22t-57.5 -7q-56 0 -91.5 26.5t-48.5 66.5v0zM165 0l492 701h93l-493 -701h-92zM522 90v57l195 248h72v-245h67v-60h-67v-90h-73v90h-194zM716 150v153l-118 -153h118z" />
<glyph unicode="&#xbf;" horiz-adv-x="546" d="M183 188q23 15 38.5 26.5t25 23t14 25.5t4.5 34v36h90v-38q0 -30 -7.5 -53.5t-22.5 -42.5t-37.5 -36.5t-53.5 -36.5q-38 -24 -63.5 -55t-25.5 -78t35.5 -74t92.5 -27q37 0 62.5 10t43 26.5t27 37t12.5 41.5l86 -25q-17 -75 -79.5 -119.5t-153.5 -44.5q-41 0 -80.5 10 t-70 31t-49.5 53t-19 76q0 47 19.5 84t48.5 65.5t63 50.5v0zM239 478q0 27 20 47t49 20q27 0 47 -20t20 -47q0 -29 -20 -48.5t-47 -19.5q-29 0 -49 19.5t-20 48.5v0z" />
<glyph unicode="&#xc0;" horiz-adv-x="657" d="M274 702h110l263 -702h-105l-54 153h-319l-53 -153h-106zM200 238h258l-129 365zM227 907q8 0 16.5 -2.5t15.5 -10.5l112 -113h-80q-2 2 -13 8.5t-25 15t-27 17t-20 14.5q-17 14 -17 33q0 16 11 27t27 11v0z" />
<glyph unicode="&#xc1;" horiz-adv-x="657" d="M274 702h110l263 -702h-105l-54 153h-319l-53 -153h-106zM200 238h258l-129 365zM291 781q3 3 19 19.5t34.5 35.5t35.5 36t24 23q14 12 30 12t27 -11t11 -27q0 -20 -17 -33q-6 -6 -19.5 -14.5l-27 -17t-24.5 -15t-13 -8.5h-80v0z" />
<glyph unicode="&#xc2;" horiz-adv-x="657" d="M274 702h110l263 -702h-105l-54 153h-319l-53 -153h-106zM200 238h258l-129 365zM160 785l117 106q12 10 25 15t28 5q13 0 26.5 -5t24.5 -15l118 -106h-99l-71 64l-71 -64h-98v0z" />
<glyph unicode="&#xc3;" horiz-adv-x="657" d="M274 702h110l263 -702h-105l-54 153h-319l-53 -153h-106zM200 238h258l-129 365zM157 789q9 57 39 83t72 26q22 0 39 -7t31.5 -15.5t28.5 -15.5t31 -7q16 0 25 6t16 18q6 12 14 16t17 4q12 0 22 -9.5t10 -23.5q0 -8 -7 -21t-19.5 -25.5t-31.5 -21.5t-44 -9q-22 0 -39 6.5 t-32.5 15.5t-29.5 16t-30 7q-39 0 -44 -43h-68v0z" />
<glyph unicode="&#xc4;" horiz-adv-x="657" d="M274 702h110l263 -702h-105l-54 153h-319l-53 -153h-106zM200 238h258l-129 365zM163 834q0 23 16 39.5t40 16.5t40.5 -16.5t16.5 -39.5q0 -24 -16.5 -40t-40.5 -16t-40 16t-16 40v0zM441 890q24 0 40.5 -16.5t16.5 -39.5q0 -24 -16.5 -40t-40.5 -16q-23 0 -39.5 16 t-16.5 40q0 23 16.5 39.5t39.5 16.5v0z" />
<glyph unicode="&#xc5;" horiz-adv-x="657" d="M331 880q24 0 44.5 -9t35.5 -24.5t23.5 -36.5t8.5 -45q0 -23 -8.5 -44t-23.5 -36.5t-35.5 -24.5t-44.5 -9t-45.5 9t-37.5 24.5t-25 36.5t-9 44q0 24 9 45t25 36.5t37.5 24.5t45.5 9v0v0zM274 765q0 -22 16 -37.5t39 -15.5t38.5 15.5t15.5 37.5q0 23 -15.5 38.5 t-38.5 15.5t-39 -15.5t-16 -38.5v0v0zM384 702l263 -702h-105l-54 153h-319l-53 -153h-106l264 702h110zM458 238l-129 365l-129 -365h258z" />
<glyph unicode="&#xc6;" horiz-adv-x="1047" d="M10 0l511 701h487v-85h-378v-213h279v-85h-279v-233h378v-85h-477v152h-297l-109 -152h-115zM531 237v336l-238 -336h238z" />
<glyph unicode="&#xc7;" horiz-adv-x="704" d="M291 -132q33 -15 61 -15q27 0 40 11.5t13 24.5q0 10 -9 18t-28 8q-12 0 -33 -5q-15 -4 -22 3t-7 17q0 5 3 10l53 86l36 -22l-32 -51q9 2 17 3t15 1q37 0 54.5 -19.5t17.5 -44.5q0 -15 -6 -30t-18.5 -26.5t-32 -19t-44.5 -7.5q-41 0 -93 21l15 37v0v0zM388 714 q90 0 159.5 -41t106.5 -118l-86 -31q-24 47 -69.5 77t-115.5 30q-46 0 -86.5 -18t-70.5 -53t-46.5 -87.5t-16.5 -120.5q0 -66 16 -118t46 -88.5t71 -56t90 -19.5q70 0 116 29.5t70 77.5l86 -31q-37 -79 -110.5 -119t-167.5 -40q-76 0 -134.5 27t-99.5 75.5t-62.5 115.5 t-21.5 147q0 82 23 148.5t65.5 114.5t103 73.5t134.5 25.5v0v0z" />
<glyph unicode="&#xc8;" horiz-adv-x="595" d="M80 0v701h475v-85h-377v-213h279v-85h-279v-233h377v-85h-475zM242 907q8 0 16.5 -2.5t15.5 -10.5l112 -113h-80q-2 2 -13 8.5t-25 15t-27 17t-20 14.5q-17 14 -17 33q0 16 11 27t27 11v0z" />
<glyph unicode="&#xc9;" horiz-adv-x="595" d="M80 0v701h475v-85h-377v-213h279v-85h-279v-233h377v-85h-475zM278 781q3 3 19 19.5t34.5 35.5t35.5 36t24 23q14 12 30 12t27 -11t11 -27q0 -20 -17 -33q-6 -6 -19.5 -14.5l-27 -17t-24.5 -15t-13 -8.5h-80v0z" />
<glyph unicode="&#xca;" horiz-adv-x="595" d="M80 0v701h475v-85h-377v-213h279v-85h-279v-233h377v-85h-475zM149 788l117 106q12 10 25 15t28 5q13 0 26.5 -5t24.5 -15l118 -106h-99l-71 64l-71 -64h-98v0z" />
<glyph unicode="&#xcb;" horiz-adv-x="595" d="M80 0v701h475v-85h-377v-213h279v-85h-279v-233h377v-85h-475zM136 836q0 23 16 39.5t40 16.5t40.5 -16.5t16.5 -39.5q0 -24 -16.5 -40t-40.5 -16t-40 16t-16 40v0zM414 892q24 0 40.5 -16.5t16.5 -39.5q0 -24 -16.5 -40t-40.5 -16q-23 0 -39.5 16t-16.5 40 q0 23 16.5 39.5t39.5 16.5v0z" />
<glyph unicode="&#xcc;" horiz-adv-x="434" d="M69 624v77h296v-77h-98v-546h98v-78h-296v78h99v546h-99zM120 907q8 0 16.5 -2.5t15.5 -10.5l112 -113h-80q-2 2 -13 8.5t-25 15t-27 17t-20 14.5q-17 14 -17 33q0 16 11 27t27 11v0z" />
<glyph unicode="&#xcd;" horiz-adv-x="434" d="M69 624v77h296v-77h-98v-546h98v-78h-296v78h99v546h-99zM174 781q3 3 19 19.5t34.5 35.5t35.5 36t24 23q14 12 30 12t27 -11t11 -27q0 -20 -17 -33q-6 -6 -19.5 -14.5l-27 -17t-24.5 -15t-13 -8.5h-80v0z" />
<glyph unicode="&#xce;" horiz-adv-x="434" d="M69 624v77h296v-77h-98v-546h98v-78h-296v78h99v546h-99zM48 785l117 106q12 10 25 15t28 5q13 0 26.5 -5t24.5 -15l118 -106h-99l-71 64l-71 -64h-98v0z" />
<glyph unicode="&#xcf;" horiz-adv-x="434" d="M69 624v77h296v-77h-98v-546h98v-78h-296v78h99v546h-99zM51 834q0 23 16 39.5t40 16.5t40.5 -16.5t16.5 -39.5q0 -24 -16.5 -40t-40.5 -16t-40 16t-16 40v0zM329 890q24 0 40.5 -16.5t16.5 -39.5q0 -24 -16.5 -40t-40.5 -16q-23 0 -39.5 16t-16.5 40q0 23 16.5 39.5 t39.5 16.5v0z" />
<glyph unicode="&#xd0;" horiz-adv-x="747" d="M21 318v84h100v299h191q84 0 154 -17t121 -57.5t79.5 -107.5t28.5 -167q0 -101 -28.5 -168.5t-79.5 -108t-121 -58t-154 -17.5h-191v318h-100v0zM219 318v-235h91q54 0 105 8.5t91 36t64 81t24 143.5q0 89 -24 141.5t-64 80.5t-91 36t-105 8h-91v-216h147v-84h-147v0z " />
<glyph unicode="&#xd1;" horiz-adv-x="723" d="M80 0v701h146l319 -596v596h99v-701h-145l-321 600v-600h-98zM188 789q9 57 39 83t72 26q22 0 39 -7t31.5 -15.5t28.5 -15.5t31 -7q16 0 25 6t16 18q6 12 14 16t17 4q12 0 22 -9.5t10 -23.5q0 -8 -7 -21t-19.5 -25.5t-31.5 -21.5t-44 -9q-22 0 -39 6.5t-32.5 15.5 t-29.5 16t-30 7q-39 0 -44 -43h-68v0z" />
<glyph unicode="&#xd2;" horiz-adv-x="763" d="M52 352q0 78 23.5 145t66 115t103.5 75t136 27q76 0 137.5 -27t104 -75t65.5 -115t23 -145q0 -80 -23 -146.5t-65.5 -115t-104 -76t-137.5 -27.5q-75 0 -136 27.5t-103.5 76t-66 115t-23.5 146.5v0zM153 352q0 -68 18 -121t48.5 -88.5t72.5 -54t89 -18.5q48 0 89.5 18.5 t72.5 54t49 88.5t18 121t-18 120t-49 87t-72.5 53.5t-89.5 18.5q-47 0 -89 -18.5t-72.5 -53.5t-48.5 -87t-18 -120v0zM283 907q8 0 16.5 -2.5t15.5 -10.5l112 -113h-80q-2 2 -13 8.5t-25 15t-27 17t-20 14.5q-17 14 -17 33q0 16 11 27t27 11v0z" />
<glyph unicode="&#xd3;" horiz-adv-x="763" d="M52 352q0 78 23.5 145t66 115t103.5 75t136 27q76 0 137.5 -27t104 -75t65.5 -115t23 -145q0 -80 -23 -146.5t-65.5 -115t-104 -76t-137.5 -27.5q-75 0 -136 27.5t-103.5 76t-66 115t-23.5 146.5v0zM153 352q0 -68 18 -121t48.5 -88.5t72.5 -54t89 -18.5q48 0 89.5 18.5 t72.5 54t49 88.5t18 121t-18 120t-49 87t-72.5 53.5t-89.5 18.5q-47 0 -89 -18.5t-72.5 -53.5t-48.5 -87t-18 -120v0zM339 781q3 3 19 19.5t34.5 35.5t35.5 36t24 23q14 12 30 12t27 -11t11 -27q0 -20 -17 -33q-6 -6 -19.5 -14.5l-27 -17t-24.5 -15t-13 -8.5h-80v0z" />
<glyph unicode="&#xd4;" horiz-adv-x="763" d="M52 352q0 78 23.5 145t66 115t103.5 75t136 27q76 0 137.5 -27t104 -75t65.5 -115t23 -145q0 -80 -23 -146.5t-65.5 -115t-104 -76t-137.5 -27.5q-75 0 -136 27.5t-103.5 76t-66 115t-23.5 146.5v0zM153 352q0 -68 18 -121t48.5 -88.5t72.5 -54t89 -18.5q48 0 89.5 18.5 t72.5 54t49 88.5t18 121t-18 120t-49 87t-72.5 53.5t-89.5 18.5q-47 0 -89 -18.5t-72.5 -53.5t-48.5 -87t-18 -120v0zM212 785l117 106q12 10 25 15t28 5q13 0 26.5 -5t24.5 -15l118 -106h-99l-71 64l-71 -64h-98v0z" />
<glyph unicode="&#xd5;" horiz-adv-x="763" d="M52 352q0 78 23.5 145t66 115t103.5 75t136 27q76 0 137.5 -27t104 -75t65.5 -115t23 -145q0 -80 -23 -146.5t-65.5 -115t-104 -76t-137.5 -27.5q-75 0 -136 27.5t-103.5 76t-66 115t-23.5 146.5v0zM153 352q0 -68 18 -121t48.5 -88.5t72.5 -54t89 -18.5q48 0 89.5 18.5 t72.5 54t49 88.5t18 121t-18 120t-49 87t-72.5 53.5t-89.5 18.5q-47 0 -89 -18.5t-72.5 -53.5t-48.5 -87t-18 -120v0zM205 790q9 57 39 83t72 26q22 0 39 -7t31.5 -15.5t28.5 -15.5t31 -7q16 0 25 6t16 18q6 12 14 16t17 4q12 0 22 -9.5t10 -23.5q0 -8 -7 -21t-19.5 -25.5 t-31.5 -21.5t-44 -9q-22 0 -39 6.5t-32.5 15.5t-29.5 16t-30 7q-39 0 -44 -43h-68v0z" />
<glyph unicode="&#xd6;" horiz-adv-x="763" d="M52 352q0 78 23.5 145t66 115t103.5 75t136 27q76 0 137.5 -27t104 -75t65.5 -115t23 -145q0 -80 -23 -146.5t-65.5 -115t-104 -76t-137.5 -27.5q-75 0 -136 27.5t-103.5 76t-66 115t-23.5 146.5v0zM153 352q0 -68 18 -121t48.5 -88.5t72.5 -54t89 -18.5q48 0 89.5 18.5 t72.5 54t49 88.5t18 121t-18 120t-49 87t-72.5 53.5t-89.5 18.5q-47 0 -89 -18.5t-72.5 -53.5t-48.5 -87t-18 -120v0zM215 836q0 23 16 39.5t40 16.5t40.5 -16.5t16.5 -39.5q0 -24 -16.5 -40t-40.5 -16t-40 16t-16 40v0zM493 892q24 0 40.5 -16.5t16.5 -39.5 q0 -24 -16.5 -40t-40.5 -16q-23 0 -39.5 16t-16.5 40q0 23 16.5 39.5t39.5 16.5v0z" />
<glyph unicode="&#xd7;" horiz-adv-x="554" d="M116 485l161 -162l162 162l60 -61l-161 -162l161 -160l-60 -61l-162 162l-161 -162l-60 61l161 160l-161 162z" />
<glyph unicode="&#xd8;" horiz-adv-x="763" d="M52 350q0 79 23.5 146t66 115t103.5 75.5t136 27.5q63 0 116 -19t94 -55l56 67l41 -34l-59 -70q40 -49 61 -113t21 -140q0 -79 -23 -145.5t-65.5 -115t-104 -75.5t-137.5 -27q-65 0 -118.5 19.5t-94.5 56.5l-60 -69l-40 34l63 74q-38 47 -58.5 110.5t-20.5 137.5v0z M381 70q48 0 89.5 18.5t72.5 54t49 87.5t18 120q0 55 -12 100t-33 78l-337 -395q30 -30 69.5 -46.5t83.5 -16.5v0zM195 177l336 393q-61 59 -150 59q-47 0 -89 -18t-72.5 -53.5t-48.5 -87.5t-18 -120q0 -104 42 -173v0z" />
<glyph unicode="&#xd9;" horiz-adv-x="724" d="M178 701v-415q0 -104 41.5 -159t142.5 -55t142.5 55t41.5 159v415h99v-408q0 -77 -15.5 -134t-49.5 -95.5t-87.5 -57.5t-130.5 -19q-76 0 -130 19t-87.5 57.5t-49 95.5t-15.5 134v408h98v0zM264 907q8 0 16.5 -2.5t15.5 -10.5l112 -113h-80q-2 2 -13 8.5t-25 15t-27 17 t-20 14.5q-17 14 -17 33q0 16 11 27t27 11v0z" />
<glyph unicode="&#xda;" horiz-adv-x="724" d="M178 701v-415q0 -104 41.5 -159t142.5 -55t142.5 55t41.5 159v415h99v-408q0 -77 -15.5 -134t-49.5 -95.5t-87.5 -57.5t-130.5 -19q-76 0 -130 19t-87.5 57.5t-49 95.5t-15.5 134v408h98v0zM320 781q3 3 19 19.5t34.5 35.5t35.5 36t24 23q14 12 30 12t27 -11t11 -27 q0 -20 -17 -33q-6 -6 -19.5 -14.5l-27 -17t-24.5 -15t-13 -8.5h-80v0z" />
<glyph unicode="&#xdb;" horiz-adv-x="724" d="M178 701v-415q0 -104 41.5 -159t142.5 -55t142.5 55t41.5 159v415h99v-408q0 -77 -15.5 -134t-49.5 -95.5t-87.5 -57.5t-130.5 -19q-76 0 -130 19t-87.5 57.5t-49 95.5t-15.5 134v408h98v0zM193 785l117 106q12 10 25 15t28 5q13 0 26.5 -5t24.5 -15l118 -106h-99l-71 64 l-71 -64h-98v0z" />
<glyph unicode="&#xdc;" horiz-adv-x="724" d="M178 701v-415q0 -104 41.5 -159t142.5 -55t142.5 55t41.5 159v415h99v-408q0 -77 -15.5 -134t-49.5 -95.5t-87.5 -57.5t-130.5 -19q-76 0 -130 19t-87.5 57.5t-49 95.5t-15.5 134v408h98v0zM196 837q0 23 16 39.5t40 16.5t40.5 -16.5t16.5 -39.5q0 -24 -16.5 -40 t-40.5 -16t-40 16t-16 40v0zM474 893q24 0 40.5 -16.5t16.5 -39.5q0 -24 -16.5 -40t-40.5 -16q-23 0 -39.5 16t-16.5 40q0 23 16.5 39.5t39.5 16.5v0z" />
<glyph unicode="&#xdd;" horiz-adv-x="624" d="M10 701h109l194 -339l193 339h108l-252 -429v-272h-98v272zM271 781q3 3 19 19.5t34.5 35.5t35.5 36t24 23q14 12 30 12t27 -11t11 -27q0 -20 -17 -33q-6 -6 -19.5 -14.5l-27 -17t-24.5 -15t-13 -8.5h-80v0z" />
<glyph unicode="&#xde;" horiz-adv-x="604" d="M168 701v-147h133q59 0 107.5 -7.5t83 -29t54 -59t19.5 -96.5t-19.5 -96t-54 -58t-83 -29t-107.5 -8h-133v-171h-88v701h88v0zM168 469v-213h143q31 0 59 2.5t48.5 14t32.5 32.5t12 56q0 36 -12 57.5t-32.5 32.5t-48.5 14.5t-59 3.5h-143v0z" />
<glyph unicode="&#xdf;" horiz-adv-x="626" d="M80 0v476q0 37 7 78.5t33 77.5t75.5 59t132.5 23q47 0 87 -11.5t68.5 -33.5t45.5 -53t17 -69q0 -53 -25 -91t-80 -61q30 -8 57 -22.5t47 -37t31 -54t11 -74.5q0 -62 -22.5 -104.5t-60 -69t-86 -37.5t-101.5 -9l-24 81q22 -3 41 -3q71 0 114.5 34.5t43.5 105.5 q0 40 -14 67t-40 43.5t-63 23.5t-82 7v80q79 0 121.5 28.5t42.5 82.5q0 47 -36 76t-94 29q-83 0 -121 -38t-38 -128v-476h-88v0z" />
<glyph unicode="&#xe0;" horiz-adv-x="552" d="M392 321q2 66 -26.5 102t-91.5 36q-47 0 -77 -21.5t-38 -59.5l-85 25q20 60 74.5 93t124.5 33q108 0 157 -50.5t50 -160.5l1 -122q1 -66 5.5 -112.5t12.5 -83.5h-81l-21 71q-24 -39 -66 -61.5t-112 -22.5q-36 0 -68.5 10t-57.5 29.5t-39 47.5t-14 64q0 46 25 77.5t71 52 t111 32.5t145 21v0zM138 140q0 -37 26.5 -59.5t73.5 -22.5q31 0 60 8t51.5 26t36 49t13.5 77v33q-60 -6 -108 -14t-82.5 -20.5t-52.5 -31t-18 -45.5v0zM186 742q8 0 16.5 -3t15.5 -12l98 -127h-74q-21 16 -42.5 34.5t-35.5 33.5q-12 11 -15 19t-3 15q0 17 11.5 28.5 t28.5 11.5v0z" />
<glyph unicode="&#xe1;" horiz-adv-x="552" d="M392 321q2 66 -26.5 102t-91.5 36q-47 0 -77 -21.5t-38 -59.5l-85 25q20 60 74.5 93t124.5 33q108 0 157 -50.5t50 -160.5l1 -122q1 -66 5.5 -112.5t12.5 -83.5h-81l-21 71q-24 -39 -66 -61.5t-112 -22.5q-36 0 -68.5 10t-57.5 29.5t-39 47.5t-14 64q0 46 25 77.5t71 52 t111 32.5t145 21v0zM138 140q0 -37 26.5 -59.5t73.5 -22.5q31 0 60 8t51.5 26t36 49t13.5 77v33q-60 -6 -108 -14t-82.5 -20.5t-52.5 -31t-18 -45.5v0zM233 600q3 4 16.5 21.5t30 38.5t31.5 41t22 28q6 7 13.5 10t16.5 3q17 0 27 -10q13 -11 13 -30q0 -7 -3 -14t-11 -15 q-6 -6 -18.5 -17.5t-26.5 -23.5t-25 -21t-13 -11h-73v0z" />
<glyph unicode="&#xe2;" horiz-adv-x="552" d="M392 321q2 66 -26.5 102t-91.5 36q-47 0 -77 -21.5t-38 -59.5l-85 25q20 60 74.5 93t124.5 33q108 0 157 -50.5t50 -160.5l1 -122q1 -66 5.5 -112.5t12.5 -83.5h-81l-21 71q-24 -39 -66 -61.5t-112 -22.5q-36 0 -68.5 10t-57.5 29.5t-39 47.5t-14 64q0 46 25 77.5t71 52 t111 32.5t145 21v0zM138 140q0 -37 26.5 -59.5t73.5 -22.5q31 0 60 8t51.5 26t36 49t13.5 77v33q-60 -6 -108 -14t-82.5 -20.5t-52.5 -31t-18 -45.5v0zM110 604l117 106q12 10 25 15t28 5q13 0 26.5 -5t24.5 -15l118 -106h-99l-71 64l-71 -64h-98v0z" />
<glyph unicode="&#xe3;" horiz-adv-x="552" d="M392 321q2 66 -26.5 102t-91.5 36q-47 0 -77 -21.5t-38 -59.5l-85 25q20 60 74.5 93t124.5 33q108 0 157 -50.5t50 -160.5l1 -122q1 -66 5.5 -112.5t12.5 -83.5h-81l-21 71q-24 -39 -66 -61.5t-112 -22.5q-36 0 -68.5 10t-57.5 29.5t-39 47.5t-14 64q0 46 25 77.5t71 52 t111 32.5t145 21v0zM138 140q0 -37 26.5 -59.5t73.5 -22.5q31 0 60 8t51.5 26t36 49t13.5 77v33q-60 -6 -108 -14t-82.5 -20.5t-52.5 -31t-18 -45.5v0zM104 606q9 57 39 83t72 26q22 0 39 -7t31.5 -15.5t28.5 -15.5t31 -7q16 0 25 6t16 18q6 12 14 16t17 4q12 0 22 -9.5 t10 -23.5q0 -8 -7 -21t-19.5 -25.5t-31.5 -21.5t-44 -9q-22 0 -39 6.5t-32.5 15.5t-29.5 16t-30 7q-39 0 -44 -43h-68v0z" />
<glyph unicode="&#xe4;" horiz-adv-x="552" d="M392 321q2 66 -26.5 102t-91.5 36q-47 0 -77 -21.5t-38 -59.5l-85 25q20 60 74.5 93t124.5 33q108 0 157 -50.5t50 -160.5l1 -122q1 -66 5.5 -112.5t12.5 -83.5h-81l-21 71q-24 -39 -66 -61.5t-112 -22.5q-36 0 -68.5 10t-57.5 29.5t-39 47.5t-14 64q0 46 25 77.5t71 52 t111 32.5t145 21v0zM138 140q0 -37 26.5 -59.5t73.5 -22.5q31 0 60 8t51.5 26t36 49t13.5 77v33q-60 -6 -108 -14t-82.5 -20.5t-52.5 -31t-18 -45.5v0zM111 676q0 23 16 39.5t40 16.5t40.5 -16.5t16.5 -39.5q0 -24 -16.5 -40t-40.5 -16t-40 16t-16 40v0zM389 732 q24 0 40.5 -16.5t16.5 -39.5q0 -24 -16.5 -40t-40.5 -16q-23 0 -39.5 16t-16.5 40q0 23 16.5 39.5t39.5 16.5v0z" />
<glyph unicode="&#xe5;" horiz-adv-x="552" d="M392 321q2 66 -26.5 102t-91.5 36q-47 0 -77 -21.5t-38 -59.5l-85 25q20 60 74.5 93t124.5 33q108 0 157 -50.5t50 -160.5l1 -122q1 -66 5.5 -112.5t12.5 -83.5h-81l-21 71q-24 -39 -66 -61.5t-112 -22.5q-36 0 -68.5 10t-57.5 29.5t-39 47.5t-14 64q0 46 25 77.5t71 52 t111 32.5t145 21v0zM138 140q0 -37 26.5 -59.5t73.5 -22.5q31 0 60 8t51.5 26t36 49t13.5 77v33q-60 -6 -108 -14t-82.5 -20.5t-52.5 -31t-18 -45.5v0zM280 816q24 0 44.5 -9t36 -25t24 -37t8.5 -44t-8.5 -44t-24 -36.5t-36 -24.5t-44.5 -9t-45.5 9t-37 24.5t-24.5 36.5 t-9 44t9 44t24.5 37t37 25t45.5 9v0zM224 701q0 -22 15.5 -37.5t38.5 -15.5t39 15.5t16 37.5t-16 38t-39 16t-38.5 -16t-15.5 -38v0z" />
<glyph unicode="&#xe6;" horiz-adv-x="917" d="M40 138q0 47 27 79t74.5 52t112 29t138.5 9v36t-9.5 50.5t-34.5 45t-74 19.5q-47 0 -77 -21.5t-38 -59.5l-85 25q11 31 31 54.5t46.5 39.5t57.5 24.5t64 8.5q137 0 182 -84q34 40 83 62t107 22q63 0 110 -25t77.5 -66t44.5 -93.5t10 -108.5h-401q2 -49 18.5 -82t40 -52.5 t51.5 -28t52 -8.5q44 0 73.5 13.5t48.5 38.5l85 -26q-30 -46 -82.5 -75t-124.5 -29q-73 0 -126 28.5t-84 76.5q-27 -45 -81.5 -75t-137.5 -30q-36 0 -68.5 10t-57.5 29.5t-39 47.5t-14 64v0zM238 57q44 0 73.5 12t47.5 30.5t26.5 41t11.5 42.5t2.5 34.5t-0.5 18.5 q-60 0 -108 -5t-82.5 -16t-52.5 -29.5t-18 -45.5q0 -37 26.5 -60t73.5 -23v0zM488 307h307q-1 27 -11.5 53.5t-30 47t-47 33.5t-61.5 13q-30 0 -57 -8.5t-48 -26t-35 -45.5t-17 -67v0z" />
<glyph unicode="&#xe7;" horiz-adv-x="537" d="M202 -132q33 -15 60 -15q28 0 41 11.5t13 24.5q0 10 -9 18t-29 8q-11 0 -32 -5q-15 -4 -22.5 3t-7.5 17q0 5 3 10l54 86l36 -22l-32 -51q9 2 16.5 3t15.5 1q36 0 54 -19.5t18 -44.5q0 -15 -6 -30t-19 -26.5t-32.5 -19t-44.5 -7.5q-41 0 -92 21l15 37v0v0zM304 529 q71 0 121.5 -34.5t75.5 -82.5l-81 -30q-18 32 -50 51t-72 19q-29 0 -56.5 -12t-48 -35.5t-33 -59.5t-12.5 -86q0 -49 12.5 -85t33.5 -60.5t48 -36.5t56 -12q43 0 74.5 19.5t49.5 48.5l81 -29q-29 -50 -84 -83.5t-124 -33.5q-56 0 -101 20t-76.5 56.5t-48.5 86.5t-17 108 q0 59 18 108.5t50.5 85.5t79.5 56.5t104 20.5v0v0z" />
<glyph unicode="&#xe8;" horiz-adv-x="565" d="M293 529q62 0 109 -24.5t78 -65.5t45.5 -94t10.5 -109h-402q2 -49 18.5 -82t40 -52.5t51 -28t51.5 -8.5q44 0 74 13.5t48 38.5l85 -26q-28 -46 -80.5 -75t-126.5 -29q-61 0 -108.5 21t-80 58t-49.5 86.5t-17 106.5q0 62 19.5 112t53.5 85t80 54t100 19v0zM442 307 q0 27 -10.5 53.5t-30 47t-46.5 33.5t-62 13q-29 0 -56.5 -8.5t-48.5 -26t-35 -45.5t-18 -67h307v0zM195 742q8 0 16.5 -3t15.5 -12l98 -127h-74q-21 16 -42.5 34.5t-35.5 33.5q-12 11 -15 19t-3 15q0 17 11.5 28.5t28.5 11.5v0z" />
<glyph unicode="&#xe9;" horiz-adv-x="565" d="M293 529q62 0 109 -24.5t78 -65.5t45.5 -94t10.5 -109h-402q2 -49 18.5 -82t40 -52.5t51 -28t51.5 -8.5q44 0 74 13.5t48 38.5l85 -26q-28 -46 -80.5 -75t-126.5 -29q-61 0 -108.5 21t-80 58t-49.5 86.5t-17 106.5q0 62 19.5 112t53.5 85t80 54t100 19v0zM442 307 q0 27 -10.5 53.5t-30 47t-46.5 33.5t-62 13q-29 0 -56.5 -8.5t-48.5 -26t-35 -45.5t-18 -67h307v0zM251 600q3 4 16.5 21.5t30 38.5t31.5 41t22 28q6 7 13.5 10t16.5 3q17 0 27 -10q13 -11 13 -30q0 -7 -3 -14t-11 -15q-6 -6 -18.5 -17.5t-26.5 -23.5t-25 -21t-13 -11h-73v0 z" />
<glyph unicode="&#xea;" horiz-adv-x="565" d="M293 529q62 0 109 -24.5t78 -65.5t45.5 -94t10.5 -109h-402q2 -49 18.5 -82t40 -52.5t51 -28t51.5 -8.5q44 0 74 13.5t48 38.5l85 -26q-28 -46 -80.5 -75t-126.5 -29q-61 0 -108.5 21t-80 58t-49.5 86.5t-17 106.5q0 62 19.5 112t53.5 85t80 54t100 19v0zM442 307 q0 27 -10.5 53.5t-30 47t-46.5 33.5t-62 13q-29 0 -56.5 -8.5t-48.5 -26t-35 -45.5t-18 -67h307v0zM115 604l117 106q12 10 25 15t28 5q13 0 26.5 -5t24.5 -15l118 -106h-99l-71 64l-71 -64h-98v0z" />
<glyph unicode="&#xeb;" horiz-adv-x="565" d="M293 529q62 0 109 -24.5t78 -65.5t45.5 -94t10.5 -109h-402q2 -49 18.5 -82t40 -52.5t51 -28t51.5 -8.5q44 0 74 13.5t48 38.5l85 -26q-28 -46 -80.5 -75t-126.5 -29q-61 0 -108.5 21t-80 58t-49.5 86.5t-17 106.5q0 62 19.5 112t53.5 85t80 54t100 19v0zM442 307 q0 27 -10.5 53.5t-30 47t-46.5 33.5t-62 13q-29 0 -56.5 -8.5t-48.5 -26t-35 -45.5t-18 -67h307v0zM117 676q0 23 16 39.5t40 16.5t40.5 -16.5t16.5 -39.5q0 -24 -16.5 -40t-40.5 -16t-40 16t-16 40v0zM395 732q24 0 40.5 -16.5t16.5 -39.5q0 -24 -16.5 -40t-40.5 -16 q-23 0 -39.5 16t-16.5 40q0 23 16.5 39.5t39.5 16.5v0z" />
<glyph unicode="&#xec;" horiz-adv-x="291" d="M120 450h-73v71h161v-521h-88v450zM69 742q8 0 16.5 -3t15.5 -12l98 -127h-74q-21 16 -42.5 34.5t-35.5 33.5q-12 11 -15 19t-3 15q0 17 11.5 28.5t28.5 11.5v0z" />
<glyph unicode="&#xed;" horiz-adv-x="291" d="M120 450h-73v71h161v-521h-88v450zM120 599q3 4 16.5 21.5t30 38.5t31.5 41t22 28q6 7 13.5 10t16.5 3q17 0 27 -10q13 -11 13 -30q0 -7 -3 -14t-11 -15q-6 -6 -18.5 -17.5t-26.5 -23.5t-25 -21t-13 -11h-73v0z" />
<glyph unicode="&#xee;" horiz-adv-x="291" d="M120 450h-73v71h161v-521h-88v450zM-13 604l117 106q12 10 25 15t28 5q13 0 26.5 -5t24.5 -15l118 -106h-99l-71 64l-71 -64h-98v0z" />
<glyph unicode="&#xef;" horiz-adv-x="291" d="M120 450h-73v71h161v-521h-88v450zM-22 670q0 23 16 39.5t40 16.5t40.5 -16.5t16.5 -39.5q0 -24 -16.5 -40t-40.5 -16t-40 16t-16 40v0zM256 726q24 0 40.5 -16.5t16.5 -39.5q0 -24 -16.5 -40t-40.5 -16q-23 0 -39.5 16t-16.5 40q0 23 16.5 39.5t39.5 16.5v0z" />
<glyph unicode="&#xf0;" horiz-adv-x="595" d="M40 229q0 52 17 96.5t47 76t71.5 48.5t91.5 17q69 0 114.5 -27.5t70.5 -69.5q-6 72 -25.5 122t-52.5 82l-77 -76l-38 38l70 69q-29 15 -65 21t-80 6v81q59 0 110 -10.5t96 -36.5l48 48l38 -38l-42 -42q28 -25 48.5 -60t33.5 -76.5t20 -87.5t7 -92q0 -63 -12 -123 t-41.5 -106t-79 -74t-123.5 -28q-57 0 -102 19.5t-77.5 52.5t-50 77.5t-17.5 92.5v0zM287 62q70 0 111.5 45.5t41.5 118.5q0 72 -41.5 118t-111.5 46t-111.5 -46t-41.5 -118q0 -73 41.5 -118.5t111.5 -45.5v0z" />
<glyph unicode="&#xf1;" horiz-adv-x="573" d="M139 521l23 -79q22 37 62 62t106 25q47 0 80 -14.5t53.5 -41t29.5 -63t9 -80.5v-330h-88v303q0 31 -4 57.5t-16 47.5t-34.5 33.5t-60.5 12.5q-64 0 -100.5 -44t-36.5 -128v-282h-88v521h65v0zM113 606q9 57 39 83t72 26q22 0 39 -7t31.5 -15.5t28.5 -15.5t31 -7 q16 0 25 6t16 18q6 12 14 16t17 4q12 0 22 -9.5t10 -23.5q0 -8 -7 -21t-19.5 -25.5t-31.5 -21.5t-44 -9q-22 0 -39 6.5t-32.5 15.5t-29.5 16t-30 7q-39 0 -44 -43h-68v0z" />
<glyph unicode="&#xf2;" d="M40 258q0 71 22 122.5t57.5 84.5t80.5 48.5t90 15.5t89.5 -15.5t80.5 -48.5t58 -84.5t22 -122.5q0 -70 -22 -121.5t-58 -84.5t-80.5 -49t-89.5 -16t-90 16t-80.5 49t-57.5 84.5t-22 121.5v0zM134 258q0 -50 14 -86.5t36 -60t49.5 -35t56.5 -11.5q28 0 56 11.5t50 35 t35.5 60t13.5 86.5q0 51 -13.5 87.5t-35.5 60t-50 35t-56 11.5q-29 0 -56.5 -11.5t-49.5 -35t-36 -60t-14 -87.5v0zM195 742q8 0 16.5 -3t15.5 -12l98 -127h-74q-21 16 -42.5 34.5t-35.5 33.5q-12 11 -15 19t-3 15q0 17 11.5 28.5t28.5 11.5v0z" />
<glyph unicode="&#xf3;" d="M40 258q0 71 22 122.5t57.5 84.5t80.5 48.5t90 15.5t89.5 -15.5t80.5 -48.5t58 -84.5t22 -122.5q0 -70 -22 -121.5t-58 -84.5t-80.5 -49t-89.5 -16t-90 16t-80.5 49t-57.5 84.5t-22 121.5v0zM134 258q0 -50 14 -86.5t36 -60t49.5 -35t56.5 -11.5q28 0 56 11.5t50 35 t35.5 60t13.5 86.5q0 51 -13.5 87.5t-35.5 60t-50 35t-56 11.5q-29 0 -56.5 -11.5t-49.5 -35t-36 -60t-14 -87.5v0zM253 600q3 4 16.5 21.5t30 38.5t31.5 41t22 28q6 7 13.5 10t16.5 3q17 0 27 -10q13 -11 13 -30q0 -7 -3 -14t-11 -15q-6 -6 -18.5 -17.5t-26.5 -23.5 t-25 -21t-13 -11h-73v0z" />
<glyph unicode="&#xf4;" d="M40 258q0 71 22 122.5t57.5 84.5t80.5 48.5t90 15.5t89.5 -15.5t80.5 -48.5t58 -84.5t22 -122.5q0 -70 -22 -121.5t-58 -84.5t-80.5 -49t-89.5 -16t-90 16t-80.5 49t-57.5 84.5t-22 121.5v0zM134 258q0 -50 14 -86.5t36 -60t49.5 -35t56.5 -11.5q28 0 56 11.5t50 35 t35.5 60t13.5 86.5q0 51 -13.5 87.5t-35.5 60t-50 35t-56 11.5q-29 0 -56.5 -11.5t-49.5 -35t-36 -60t-14 -87.5v0zM121 604l117 106q12 10 25 15t28 5q13 0 26.5 -5t24.5 -15l118 -106h-99l-71 64l-71 -64h-98v0z" />
<glyph unicode="&#xf5;" d="M40 258q0 71 22 122.5t57.5 84.5t80.5 48.5t90 15.5t89.5 -15.5t80.5 -48.5t58 -84.5t22 -122.5q0 -70 -22 -121.5t-58 -84.5t-80.5 -49t-89.5 -16t-90 16t-80.5 49t-57.5 84.5t-22 121.5v0zM134 258q0 -50 14 -86.5t36 -60t49.5 -35t56.5 -11.5q28 0 56 11.5t50 35 t35.5 60t13.5 86.5q0 51 -13.5 87.5t-35.5 60t-50 35t-56 11.5q-29 0 -56.5 -11.5t-49.5 -35t-36 -60t-14 -87.5v0zM113 606q9 57 39 83t72 26q22 0 39 -7t31.5 -15.5t28.5 -15.5t31 -7q16 0 25 6t16 18q6 12 14 16t17 4q12 0 22 -9.5t10 -23.5q0 -8 -7 -21t-19.5 -25.5 t-31.5 -21.5t-44 -9q-22 0 -39 6.5t-32.5 15.5t-29.5 16t-30 7q-39 0 -44 -43h-68v0z" />
<glyph unicode="&#xf6;" d="M40 258q0 71 22 122.5t57.5 84.5t80.5 48.5t90 15.5t89.5 -15.5t80.5 -48.5t58 -84.5t22 -122.5q0 -70 -22 -121.5t-58 -84.5t-80.5 -49t-89.5 -16t-90 16t-80.5 49t-57.5 84.5t-22 121.5v0zM134 258q0 -50 14 -86.5t36 -60t49.5 -35t56.5 -11.5q28 0 56 11.5t50 35 t35.5 60t13.5 86.5q0 51 -13.5 87.5t-35.5 60t-50 35t-56 11.5q-29 0 -56.5 -11.5t-49.5 -35t-36 -60t-14 -87.5v0zM123 676q0 23 16 39.5t40 16.5t40.5 -16.5t16.5 -39.5q0 -24 -16.5 -40t-40.5 -16t-40 16t-16 40v0zM401 732q24 0 40.5 -16.5t16.5 -39.5q0 -24 -16.5 -40 t-40.5 -16q-23 0 -39.5 16t-16.5 40q0 23 16.5 39.5t39.5 16.5v0z" />
<glyph unicode="&#xf7;" horiz-adv-x="632" d="M248 439q0 28 20 48t48 20t47.5 -20t19.5 -48t-19.5 -47.5t-47.5 -19.5t-48 19.5t-20 47.5v0zM248 83q0 27 20 47t48 20t47.5 -20t19.5 -47q0 -28 -19.5 -48t-47.5 -20t-48 20t-20 48v0zM56 218v85h520v-85h-520z" />
<glyph unicode="&#xf8;" d="M40 258q0 71 22 122.5t57.5 84.5t80.5 48.5t90 15.5q39 0 76.5 -11t70.5 -35l43 49l40 -34l-43 -52q28 -32 45.5 -79t17.5 -109q0 -70 -22 -121.5t-58 -84.5t-80.5 -49t-89.5 -16q-42 0 -83.5 13.5t-75.5 41.5l-44 -51l-40 34l46 56q-24 32 -38.5 76.5t-14.5 100.5v0z M187 108q22 -22 48.5 -32.5t54.5 -10.5t56 11.5t50 35t35.5 60t13.5 86.5q0 37 -7.5 66.5t-20.5 52.5l-230 -269v0zM155 153l227 265q-21 18 -44.5 26t-47.5 8q-29 0 -56.5 -11.5t-50 -35t-36.5 -60t-14 -87.5q0 -31 6 -57.5t16 -47.5v0z" />
<glyph unicode="&#xf9;" horiz-adv-x="562" d="M71 522h89v-307q0 -30 3.5 -57.5t15 -48t33 -32.5t57.5 -12q63 0 97.5 43t34.5 127v287h88v-522h-66l-22 76q-22 -38 -60 -63.5t-103 -25.5q-45 0 -77 15t-52 41.5t-29 64t-9 81.5v333v0zM192 742q8 0 16.5 -3t15.5 -12l98 -127h-74q-21 16 -42.5 34.5t-35.5 33.5 q-12 11 -15 19t-3 15q0 17 11.5 28.5t28.5 11.5v0z" />
<glyph unicode="&#xfa;" horiz-adv-x="562" d="M71 522h89v-307q0 -30 3.5 -57.5t15 -48t33 -32.5t57.5 -12q63 0 97.5 43t34.5 127v287h88v-522h-66l-22 76q-22 -38 -60 -63.5t-103 -25.5q-45 0 -77 15t-52 41.5t-29 64t-9 81.5v333v0zM248 600q3 4 16.5 21.5t30 38.5t31.5 41t22 28q6 7 13.5 10t16.5 3q17 0 27 -10 q13 -11 13 -30q0 -7 -3 -14t-11 -15q-6 -6 -18.5 -17.5t-26.5 -23.5t-25 -21t-13 -11h-73v0z" />
<glyph unicode="&#xfb;" horiz-adv-x="562" d="M71 522h89v-307q0 -30 3.5 -57.5t15 -48t33 -32.5t57.5 -12q63 0 97.5 43t34.5 127v287h88v-522h-66l-22 76q-22 -38 -60 -63.5t-103 -25.5q-45 0 -77 15t-52 41.5t-29 64t-9 81.5v333v0zM112 604l117 106q12 10 25 15t28 5q13 0 26.5 -5t24.5 -15l118 -106h-99l-71 64 l-71 -64h-98v0z" />
<glyph unicode="&#xfc;" horiz-adv-x="562" d="M71 522h89v-307q0 -30 3.5 -57.5t15 -48t33 -32.5t57.5 -12q63 0 97.5 43t34.5 127v287h88v-522h-66l-22 76q-22 -38 -60 -63.5t-103 -25.5q-45 0 -77 15t-52 41.5t-29 64t-9 81.5v333v0zM114 676q0 23 16 39.5t40 16.5t40.5 -16.5t16.5 -39.5q0 -24 -16.5 -40t-40.5 -16 t-40 16t-16 40v0zM392 732q24 0 40.5 -16.5t16.5 -39.5q0 -24 -16.5 -40t-40.5 -16q-23 0 -39.5 16t-16.5 40q0 23 16.5 39.5t39.5 16.5v0z" />
<glyph unicode="&#xfd;" horiz-adv-x="450" d="M98 520l128 -401l128 401h96l-184 -543q-14 -42 -28 -70.5t-33.5 -45t-48 -23.5t-72.5 -7h-45v78h36q28 0 46 2.5t30 12t19.5 27t17.5 48.5l-188 521h98v0zM188 600q3 4 16.5 21.5t30 38.5t31.5 41t22 28q6 7 13.5 10t16.5 3q17 0 27 -10q13 -11 13 -30q0 -7 -3 -14 t-11 -15q-6 -6 -18.5 -17.5t-26.5 -23.5t-25 -21t-13 -11h-73v0z" />
<glyph unicode="&#xfe;" horiz-adv-x="594" d="M74 -169v871h88v-263q24 41 65.5 66t103.5 25q44 0 85 -18t71.5 -53t48.5 -85.5t18 -115.5q0 -64 -18 -114.5t-48.5 -85t-71.5 -53t-85 -18.5q-62 0 -103.5 25.5t-65.5 66.5v-248h-88v0zM308 63q67 0 107.5 51t40.5 144q0 94 -40.5 145.5t-107.5 51.5q-68 0 -108 -51.5 t-40 -145.5q0 -92 40 -143.5t108 -51.5v0z" />
<glyph unicode="&#xff;" horiz-adv-x="450" d="M98 520l128 -401l128 401h96l-184 -543q-14 -42 -28 -70.5t-33.5 -45t-48 -23.5t-72.5 -7h-45v78h36q28 0 46 2.5t30 12t19.5 27t17.5 48.5l-188 521h98v0zM58 676q0 23 16 39.5t40 16.5t40.5 -16.5t16.5 -39.5q0 -24 -16.5 -40t-40.5 -16t-40 16t-16 40v0zM336 732 q24 0 40.5 -16.5t16.5 -39.5q0 -24 -16.5 -40t-40.5 -16q-23 0 -39.5 16t-16.5 40q0 23 16.5 39.5t39.5 16.5v0z" />
<glyph unicode="&#x131;" horiz-adv-x="291" d="M120 450h-73v71h161v-521h-88v450z" />
<glyph unicode="&#x152;" horiz-adv-x="1104" d="M381 714q72 0 129 -23t100 -64v75h455v-85h-377v-213h278v-85h-278v-234h377v-85h-455v79q-43 -44 -100 -68t-129 -24q-75 0 -136 27.5t-103.5 76t-66 115t-23.5 146.5t23.5 146.5t66 114t103.5 74.5t136 27v0zM153 352q0 -67 18 -119.5t48.5 -88t72.5 -54t89 -18.5 t88.5 18t73 53t49.5 87t18 121q0 73 -19.5 126t-51.5 88t-73.5 51t-84.5 16q-47 0 -89 -18.5t-72.5 -53.5t-48.5 -87.5t-18 -120.5v0z" />
<glyph unicode="&#x153;" horiz-adv-x="973" d="M290 530q58 0 113 -25.5t92 -80.5q33 51 86.5 78.5t117.5 27.5q63 0 110.5 -25t78.5 -66t45 -94t10 -109h-401q2 -49 18 -82t40 -52.5t51 -28t51 -8.5q45 0 74 13.5t48 38.5l85 -26q-29 -45 -81 -74.5t-126 -29.5q-72 0 -124.5 28.5t-83.5 76.5q-37 -53 -92.5 -79 t-111.5 -26q-45 0 -90 16t-80.5 49t-57.5 84.5t-22 121.5q0 72 22 123t57.5 84.5t80.5 49t90 15.5v0zM290 65q28 0 56 11.5t50 35t35.5 60t13.5 86.5q0 51 -13.5 87.5t-35.5 60t-50 35.5t-56 12q-29 0 -56.5 -12t-50 -35.5t-36.5 -60t-14 -87.5q0 -50 14 -86.5t36.5 -60 t50 -35t56.5 -11.5v0zM849 307q-1 28 -11.5 54t-29 47t-46.5 34t-63 13q-29 0 -56 -8.5t-48.5 -26.5t-35 -46t-16.5 -67h306v0z" />
<glyph unicode="&#x178;" horiz-adv-x="624" d="M10 701h109l194 -339l193 339h108l-252 -429v-272h-98v272zM146 834q0 23 16 39.5t40 16.5t40.5 -16.5t16.5 -39.5q0 -24 -16.5 -40t-40.5 -16t-40 16t-16 40v0zM424 890q24 0 40.5 -16.5t16.5 -39.5q0 -24 -16.5 -40t-40.5 -16q-23 0 -39.5 16t-16.5 40q0 23 16.5 39.5 t39.5 16.5v0z" />
<glyph unicode="&#x2c6;" horiz-adv-x="450" d="M56 604l117 106q12 10 25 15t28 5q13 0 26.5 -5t24.5 -15l118 -106h-99l-71 64l-71 -64h-98v0z" />
<glyph unicode="&#x2da;" horiz-adv-x="265" d="M132 816q24 0 44.5 -9t36 -25t24 -37t8.5 -44t-8.5 -44t-24 -36.5t-36 -24.5t-44.5 -9t-45.5 9t-37 24.5t-24.5 36.5t-9 44t9 44t24.5 37t37 25t45.5 9v0zM76 701q0 -22 15.5 -37.5t38.5 -15.5t39 15.5t16 37.5t-16 38t-39 16t-38.5 -16t-15.5 -38v0z" />
<glyph unicode="&#x2dc;" horiz-adv-x="456" d="M56 606q9 57 39 83t72 26q22 0 39 -7t31.5 -15.5t28.5 -15.5t31 -7q16 0 25 6t16 18q6 12 14 16t17 4q12 0 22 -9.5t10 -23.5q0 -8 -7 -21t-19.5 -25.5t-31.5 -21.5t-44 -9q-22 0 -39 6.5t-32.5 15.5t-29.5 16t-30 7q-39 0 -44 -43h-68v0z" />
<glyph unicode="&#x2000;" horiz-adv-x="457" />
<glyph unicode="&#x2001;" horiz-adv-x="914" />
<glyph unicode="&#x2002;" horiz-adv-x="457" />
<glyph unicode="&#x2003;" horiz-adv-x="914" />
<glyph unicode="&#x2004;" horiz-adv-x="304" />
<glyph unicode="&#x2005;" horiz-adv-x="228" />
<glyph unicode="&#x2006;" horiz-adv-x="152" />
<glyph unicode="&#x2007;" horiz-adv-x="152" />
<glyph unicode="&#x2008;" horiz-adv-x="114" />
<glyph unicode="&#x2009;" horiz-adv-x="182" />
<glyph unicode="&#x200a;" horiz-adv-x="50" />
<glyph unicode="&#x2010;" horiz-adv-x="386" d="M40 303h306v-85h-306v85z" />
<glyph unicode="&#x2011;" horiz-adv-x="386" d="M40 303h306v-85h-306v85z" />
<glyph unicode="&#x2012;" horiz-adv-x="386" d="M40 303h306v-85h-306v85z" />
<glyph unicode="&#x2013;" horiz-adv-x="504" d="M43 301h418v-83h-418v83z" />
<glyph unicode="&#x2014;" horiz-adv-x="840" d="M43 301h754v-83h-754v83z" />
<glyph unicode="&#x2018;" horiz-adv-x="246" d="M56 506q0 13 5 26l65 169h58l-50 -128q25 -4 41 -23t16 -44q0 -28 -20 -47.5t-47 -19.5q-28 0 -48 20t-20 47v0z" />
<glyph unicode="&#x2019;" horiz-adv-x="246" d="M56 646q0 28 20 48t47 20q28 0 48 -20t20 -47q0 -13 -5 -26l-65 -171h-58l49 130q-24 4 -40 22.5t-16 43.5v0z" />
<glyph unicode="&#x201a;" horiz-adv-x="246" d="M56 55q0 28 20 48t47 20q28 0 48 -20t20 -47q0 -13 -5 -27l-65 -170h-58l49 129q-24 5 -40 23t-16 44v0z" />
<glyph unicode="&#x201c;" horiz-adv-x="417" d="M227 506q0 13 5 26l65 169h58l-48 -128q24 -4 39.5 -23t15.5 -44q0 -28 -20 -47.5t-47 -19.5q-28 0 -48 20t-20 47v0zM61 532l65 169h58l-50 -128q25 -4 41 -23t16 -44q0 -28 -20 -47.5t-47 -19.5q-28 0 -48 20t-20 47q0 13 5 26v0z" />
<glyph unicode="&#x201d;" horiz-adv-x="417" d="M227 646q0 28 20 48t48 20t47.5 -20t19.5 -47q0 -13 -5 -26l-64 -171h-59l50 130q-25 4 -41 22.5t-16 43.5v0zM123 714q28 0 48 -20t20 -47q0 -13 -5 -26l-65 -171h-58l49 130q-24 4 -40 22.5t-16 43.5q0 28 20 48t47 20v0z" />
<glyph unicode="&#x201e;" horiz-adv-x="417" d="M227 55q0 28 20 48t48 20t47.5 -20t19.5 -47q0 -13 -5 -27l-64 -170h-59l50 129q-25 5 -41 23t-16 44v0zM123 123q28 0 48 -20t20 -47q0 -13 -5 -27l-65 -170h-58l49 129q-24 5 -40 23t-16 44q0 28 20 48t47 20v0z" />
<glyph unicode="&#x2022;" horiz-adv-x="459" d="M56 267q0 36 13.5 67.5t37 55.5t55.5 37.5t68 13.5q37 0 68.5 -13.5t55 -37.5t37 -55.5t13.5 -67.5t-13.5 -68t-37 -55.5t-55 -37.5t-68.5 -14q-36 0 -68 14t-55.5 37.5t-37 55.5t-13.5 68v0z" />
<glyph unicode="&#x2026;" horiz-adv-x="730" d="M365 123q29 0 49 -20t20 -48t-20 -48t-49 -20q-28 0 -47.5 20t-19.5 48t19.5 48t47.5 20v0zM608 123q27 0 47 -20t20 -48t-20 -48t-47 -20q-28 0 -48 20t-20 48t20 48t48 20v0zM123 123q28 0 48 -20t20 -48t-20 -48t-48 -20q-27 0 -47 20t-20 48t20 48t47 20v0z" />
<glyph unicode="&#x202f;" horiz-adv-x="182" />
<glyph unicode="&#x2039;" horiz-adv-x="370" d="M56 262l155 222h104l-156 -222l156 -220h-104z" />
<glyph unicode="&#x203a;" horiz-adv-x="370" d="M212 262l-156 222h105l154 -222l-154 -220h-105z" />
<glyph unicode="&#x205f;" horiz-adv-x="228" />
<glyph unicode="&#x20ac;" horiz-adv-x="697" d="M16 396l29 53h66q12 61 37.5 110t63.5 83.5t87.5 53t106.5 18.5q82 0 148 -41.5t100 -118.5l-82 -29q-22 47 -64.5 76.5t-106.5 29.5q-69 0 -121.5 -46t-72.5 -136h261l-29 -53h-241q-1 -11 -1 -22.5v-22.5v-23t1 -22h192l-30 -54h-153q21 -87 73 -134.5t124 -47.5 q63 0 106 29t66 76l81 -29q-35 -79 -103 -119t-155 -40q-59 0 -107 19t-84.5 53.5t-60.5 83.5t-36 109h-95l29 54h60q-1 11 -1 22v23v22t1 23h-89v0z" />
<glyph unicode="&#x2122;" horiz-adv-x="890" d="M56 701h318v-63h-124v-331h-70v331h-124v63zM526 701l98 -298l97 298h114v-394h-71v293l-102 -293h-76l-103 293v-293h-70v394h113z" />
<glyph unicode="&#x25fc;" horiz-adv-x="519" d="M0 520h520v-520h-520v520z" />
<glyph horiz-adv-x="213" d="M17 907q8 0 16.5 -2.5t15.5 -10.5l112 -113h-80q-2 2 -13 8.5t-25 15t-27 17t-20 14.5q-17 14 -17 33q0 16 11 27t27 11v0z" />
<glyph horiz-adv-x="160" d="M46 781q3 3 19 19.5t34.5 35.5t35.5 36t24 23q14 12 30 12t27 -11t11 -27q0 -20 -17 -33q-6 -6 -19.5 -14.5l-27 -17t-24.5 -15t-13 -8.5h-80v0z" />
<glyph horiz-adv-x="341" d="M1 785l117 106q12 10 25 15t28 5q13 0 26.5 -5t24.5 -15l118 -106h-99l-71 64l-71 -64h-98v0z" />
<glyph horiz-adv-x="341" d="M4 834q0 23 16 39.5t40 16.5t40.5 -16.5t16.5 -39.5q0 -24 -16.5 -40t-40.5 -16t-40 16t-16 40v0zM282 890q24 0 40.5 -16.5t16.5 -39.5q0 -24 -16.5 -40t-40.5 -16q-23 0 -39.5 16t-16.5 40q0 23 16.5 39.5t39.5 16.5v0z" />
<glyph horiz-adv-x="341" d="M-2 787q9 57 39 83t72 26q22 0 39 -7t31.5 -15.5t28.5 -15.5t31 -7q16 0 25 6t16 18q6 12 14 16t17 4q12 0 22 -9.5t10 -23.5q0 -8 -7 -21t-19.5 -25.5t-31.5 -21.5t-44 -9q-22 0 -39 6.5t-32.5 15.5t-29.5 16t-30 7q-39 0 -44 -43h-68v0z" />
</font>
</defs>
</svg>
