<?xml version="1.0" standalone="no"?>
<!DOCTYPE svg PUBLIC "-//W3C//DTD SVG 1.1//EN" "http://www.w3.org/Graphics/SVG/1.1/DTD/svg11.dtd" >
<svg xmlns="http://www.w3.org/2000/svg" xmlns:xlink="http://www.w3.org/1999/xlink" version="1.1">
<metadata>
Created by FontForge 20170731 at Mon Sep 12 23:11:10 2011
 By Aleksey,,,
Copyright (c) 2011 by Daniel hernndez. All rights reserved.
</metadata>
<defs>
<font id="Sanchez-Light" horiz-adv-x="751" >
  <font-face 
    font-family="Sanchez"
    font-weight="300"
    font-stretch="normal"
    units-per-em="1000"
    panose-1="0 0 0 0 0 0 0 0 0 0"
    ascent="750"
    descent="-250"
    x-height="492"
    cap-height="718"
    bbox="-32.2667 -268 1050 983.556"
    underline-thickness="50"
    underline-position="-200"
    unicode-range="U+0020-FB02"
  />
<missing-glyph horiz-adv-x="313" 
 />
    <glyph glyph-name="ff" unicode="ff" horiz-adv-x="714" 
d="M265 0h-209q-12 0 -12 12v26q0 11 12 11h59v394h-62q-11 0 -11 11v26q0 12 11 12h62v70q0 79 39.5 120.5t109.5 41.5q42 0 85 -32q9 -8 2 -17l-14 -17q-8 -10 -16 -2q-17 17 -52 17q-44 0 -69 -28t-25 -84v-69h289v70q0 79 39.5 120.5t109.5 41.5q42 0 85 -32q9 -8 2 -17
l-14 -17q-8 -10 -16 -2q-17 17 -52 17q-44 0 -69 -28t-25 -84v-69h128q12 0 12 -12v-26q0 -11 -12 -11h-128v-394h90q12 0 12 -11v-26q0 -12 -12 -12h-209q-12 0 -12 12v26q0 11 12 11h59v394h-289v-394h90q12 0 12 -11v-26q0 -12 -12 -12z" />
    <glyph glyph-name="fi" unicode="fi" horiz-adv-x="642" 
d="M588 0h-177q-11 0 -11 12v26q0 11 11 11h59v394h-295v-394h90q12 0 12 -11v-26q0 -12 -12 -12h-209q-12 0 -12 12v26q0 11 12 11h59v394h-62q-11 0 -11 11v26q0 12 11 12h62v70q0 79 39.5 120.5t109.5 41.5q42 0 85 -32q9 -8 2 -17l-14 -17q-8 -10 -16 -2q-17 17 -52 17
q-44 0 -69 -28t-25 -84v-69h344q11 0 11 -12v-431h58q12 0 12 -11v-26q0 -12 -12 -12zM546 592q0 -19 -13.5 -32t-32.5 -13t-32.5 13t-13.5 32t13.5 33t32.5 14t32.5 -14t13.5 -33z" />
    <glyph glyph-name="fl" unicode="fl" horiz-adv-x="636" 
d="M582 0h-177q-11 0 -11 12v26q0 11 11 11h59v620h-47q-11 0 -11 11v27q0 11 11 11h76q31 0 31 -27v-642h58q12 0 12 -11v-26q0 -12 -12 -12zM265 0h-209q-12 0 -12 12v26q0 11 12 11h59v394h-62q-11 0 -11 11v26q0 12 11 12h62v70q0 79 39.5 120.5t109.5 41.5q42 0 85 -32
q9 -8 2 -17l-14 -17q-8 -10 -16 -2q-17 17 -52 17q-44 0 -69 -28t-25 -84v-69h128q12 0 12 -12v-26q0 -11 -12 -11h-128v-394h90q12 0 12 -11v-26q0 -12 -12 -12z" />
    <glyph glyph-name=".notdef" horiz-adv-x="313" 
 />
    <glyph glyph-name=".notdef" horiz-adv-x="313" 
 />
    <glyph glyph-name=".null" horiz-adv-x="0" 
 />
    <glyph glyph-name="nonmarkingreturn" horiz-adv-x="333" 
 />
    <glyph glyph-name="space" unicode=" " horiz-adv-x="313" 
 />
    <glyph glyph-name="exclam" unicode="!" horiz-adv-x="168" 
d="M103 148h-38q-12 0 -12 12v588q0 12 12 12h38q12 0 12 -12v-588q0 -12 -12 -12zM126 15q0 -18 -12.5 -30t-29.5 -12q-18 0 -30 12t-12 30q0 17 12 29.5t30 12.5q17 0 29.5 -12.5t12.5 -29.5z" />
    <glyph glyph-name="quotedbl" unicode="&#x22;" horiz-adv-x="254" 
d="M80 570h-23q-12 0 -12 12l-3 156q0 12 12 12h29q12 0 12 -12l-3 -156q0 -12 -12 -12zM197 570h-23q-12 0 -12 12l-3 156q0 12 12 12h29q14 0 12 -12l-3 -156q0 -12 -12 -12z" />
    <glyph glyph-name="numbersign" unicode="#" horiz-adv-x="609" 
d="M500 117h-101l-33 -112q-3 -12 -15 -12h-33q-12 0 -9 12l33 112h-145l-32 -112q-3 -12 -15 -12h-33q-12 0 -9 12l33 112h-88q-11 0 -11 12v24q0 12 11 12h101l41 140h-86q-12 0 -12 12v25q0 11 12 11h100l34 118q3 12 16 12h33q11 0 8 -12l-34 -118h144l34 118
q3 12 16 12h33q11 0 8 -12l-34 -118h88q12 0 12 -11v-25q0 -12 -12 -12h-103l-40 -140h88q11 0 11 -12v-24q0 -12 -11 -12zM355 165l41 140h-145l-40 -140h144z" />
    <glyph glyph-name="dollar" unicode="$" horiz-adv-x="642" 
d="M349 -86h-36q-12 0 -12 12v72q-134 15 -199 124h-2l2 -79q0 -12 -12 -12h-37q-11 0 -11 12v180q0 11 11 11h40q12 0 12 -11v-5q0 -11 13.5 -35.5t39 -55t74 -53t108.5 -22.5q89 0 139 36t50 103q0 39 -25.5 66.5t-66.5 42.5t-90 26.5t-98.5 26.5t-90.5 35t-66.5 58
t-25.5 91q0 78 60.5 131.5t163.5 55.5v70q0 11 11 11h36q12 0 12 -11v-76q104 -11 152 -78v45q-2 11 11 11h37q12 0 12 -11v-171q0 -12 -12 -12h-40q-12 0 -12 12v16q-2 44 -50 89.5t-145 45.5q-76 0 -122.5 -36t-46.5 -92q0 -47 34.5 -79t86.5 -46t113 -31t113 -34.5
t86.5 -56.5t34.5 -97q0 -85 -60.5 -140.5t-180.5 -59.5v-67q0 -12 -11 -12z" />
    <glyph glyph-name="percent" unicode="%" horiz-adv-x="729" 
d="M182 359q-66 0 -103 51.5t-37 133.5q0 78 37 129t103 51q67 0 104.5 -51t37.5 -129q0 -82 -37.5 -133.5t-104.5 -51.5zM182 402q45 0 70 37t25 103q0 67 -25 102.5t-70 35.5q-44 0 -68.5 -36t-24.5 -102t24.5 -103t68.5 -37zM546 -7q-67 0 -104 51.5t-37 133.5
q0 78 37 129t104 51t104 -51t37 -129q0 -82 -37 -133.5t-104 -51.5zM546 36q44 0 69 36.5t25 103.5t-25 102.5t-69 35.5t-69 -36t-25 -102t25 -103t69 -37zM253 -74h-38q-13 0 -8 12l245 810q3 12 16 12h38q12 0 7 -12l-245 -810q-3 -12 -15 -12z" />
    <glyph glyph-name="ampersand" unicode="&#x26;" horiz-adv-x="670" 
d="M600 0h-69q-22 0 -48 38l-26 37q-72 -82 -188 -82q-59 0 -104.5 18.5t-71.5 49t-39 64.5t-13 69q0 39 13 72t30 54t44.5 39.5t45.5 27.5t44 19q-71 89 -71 160q0 74 46.5 116t112.5 42q60 0 107.5 -37.5t47.5 -113.5q0 -38 -13.5 -68.5t-39.5 -52.5t-48.5 -35.5
t-56.5 -29.5l153 -218q32 64 32 167q0 11 12 11h116q12 0 12 -11v-25q0 -12 -12 -12h-75q0 -96 -50 -179l48 -68h61q11 0 11 -12v-28q0 -12 -11 -12zM424 120l-172 242q-25 -11 -43.5 -20.5t-45.5 -30t-42 -50.5t-15 -68q0 -66 48 -106t116 -40q96 0 154 73zM272 429
q26 11 38 16.5t34 19.5t32.5 27t19.5 34t9 46q0 40 -26 69.5t-71 29.5q-46 0 -74 -28t-28 -76q0 -58 66 -138z" />
    <glyph glyph-name="quotesingle" unicode="'" horiz-adv-x="137" 
d="M80 570h-23q-12 0 -12 12l-3 156q0 12 12 12h29q12 0 12 -12l-3 -156q0 -12 -12 -12z" />
    <glyph glyph-name="parenleft" unicode="(" horiz-adv-x="410" 
d="M369 -21v-31q0 -12 -13 -12q-58 0 -112.5 25.5t-100.5 74.5t-73.5 131t-27.5 184t27.5 183t73.5 130.5t100.5 75t112.5 25.5q13 0 13 -12v-32q0 -12 -13 -12q-43 0 -86.5 -22t-81.5 -64t-61.5 -113.5t-23.5 -161.5q0 -92 24 -163.5t62.5 -112t81 -61t85.5 -20.5
q13 0 13 -12z" />
    <glyph glyph-name="parenright" unicode=")" horiz-adv-x="410" 
d="M42 -53v31q0 12 12 12q43 0 85.5 20.5t81 61t62.5 112t24 163.5q0 90 -23.5 161.5t-61.5 113.5t-81 64t-87 22q-12 0 -12 13v31q0 12 12 12q58 0 113 -25.5t100.5 -75t73.5 -130.5t28 -183t-28 -184t-73.5 -131t-100.5 -74.5t-113 -25.5q-12 0 -12 12z" />
    <glyph glyph-name="asterisk" unicode="*" horiz-adv-x="413" 
d="M219 424h-26q-11 0 -11 12l8 116l-73 -89q-9 -9 -18 -1l-17 18q-10 8 0 18l91 74l-118 -9q-13 0 -13 12v25q0 14 13 12l117 -11l-91 77q-8 8 0 18l18 17q9 9 17 0l75 -89l-9 116q0 13 11 13h26q14 0 12 -13l-8 -116l73 89q9 9 19 1l17 -17q9 -11 -1 -19l-90 -77l118 12
q13 0 13 -12v-25q0 -12 -13 -12l-114 8l87 -74q8 -8 0 -18l-17 -17q-10 -8 -18 0l-75 87l9 -114q1 -12 -12 -12z" />
    <glyph glyph-name="plus" unicode="+" horiz-adv-x="405" 
d="M221 96h-35q-12 0 -12 12v120h-120q-12 0 -12 13v31q0 12 12 12h120v120q0 11 12 11h35q12 0 12 -11v-120h118q12 0 12 -12v-31q0 -13 -12 -13h-118v-120q0 -12 -12 -12z" />
    <glyph glyph-name="comma" unicode="," horiz-adv-x="147" 
d="M39 -87v12q0 6 6 6q15 0 28 14t13 43l-2 10q-5 -5 -20 -5q-14 0 -24.5 11t-10.5 28t12 28.5t29 11.5q22 0 34.5 -17t12.5 -47q0 -53 -21 -77t-51 -24q-6 0 -6 6z" />
    <glyph glyph-name="hyphen" unicode="-" horiz-adv-x="412" 
d="M358 231h-304q-12 0 -12 13v31q0 12 12 12h304q12 0 12 -12v-31q0 -13 -12 -13z" />
    <glyph glyph-name="period" unicode="." horiz-adv-x="139" 
d="M110 33q0 -17 -12 -28.5t-28 -11.5q-17 0 -29 11.5t-12 28.5t12 29t29 12t28.5 -12t11.5 -29z" />
    <glyph glyph-name="slash" unicode="/" horiz-adv-x="392" 
d="M90 -74h-39q-11 0 -8 12l245 810q3 12 16 12h38q11 0 8 -12l-246 -810q-3 -12 -14 -12z" />
    <glyph glyph-name="zero" unicode="0" horiz-adv-x="646" 
d="M322 -7q-133 0 -206.5 102.5t-73.5 267.5q0 156 74 258.5t206 102.5q133 0 207.5 -102.5t74.5 -258.5q0 -164 -74 -267t-208 -103zM322 52q101 0 158.5 81t57.5 227q0 142 -59 224t-157 82q-97 0 -155.5 -82t-58.5 -224q0 -146 57 -227t157 -81z" />
    <glyph glyph-name="one" unicode="1" horiz-adv-x="491" 
d="M437 0h-377q-11 0 -11 12v31q0 12 11 12h166v595l-147 -106q-10 -6 -16 3l-18 25q-6 10 3 16l167 123q11 7 20 7h43q11 0 11 -12v-651h148q12 0 12 -12v-31q0 -12 -12 -12z" />
    <glyph glyph-name="two" unicode="2" horiz-adv-x="592" 
d="M539 0h-486q-11 0 -11 12v21q0 59 24 106.5t62.5 78t84.5 56.5t92.5 49t85 48t62.5 61t24 81q0 63 -49 108t-124 45q-92 0 -140 -45t-48 -112q0 -12 -12 -12h-42q-12 0 -12 12q0 86 63.5 150.5t190.5 64.5q108 0 172.5 -61t64.5 -147q0 -53 -23.5 -96t-61 -72.5t-83 -55
t-91 -49t-83.5 -49t-63 -61t-26 -78.5h377v74q0 11 12 11h40q11 0 11 -11v-117q0 -12 -11 -12z" />
    <glyph glyph-name="three" unicode="3" horiz-adv-x="581" 
d="M386 383v-1q17 0 40.5 -9t50 -28t44.5 -57.5t18 -88.5q0 -93 -71 -149.5t-188 -56.5q-33 0 -63.5 6t-53 15.5t-41.5 21t-32.5 24t-22 21.5t-15.5 17l-6 9q-8 9 0 17l26 24q10 8 17 -1q2 -2 18.5 -20t28 -26.5t33 -22t49.5 -20t62 -6.5q91 0 143.5 42t52.5 111
q0 74 -50.5 110.5t-142.5 36.5h-34q-11 0 -11 11v30q0 11 11 11h30q26 0 52 5.5t54.5 18t46.5 40t18 66.5q0 56 -41 94t-123 38q-74 0 -111 -39.5t-37 -87.5q0 -11 -12 -11h-39q-12 0 -12 11q0 83 59 134t152 51q114 0 171 -57t57 -131q0 -67 -47.5 -110t-80.5 -43z" />
    <glyph glyph-name="four" unicode="4" horiz-adv-x="606" 
d="M553 0h-258q-12 0 -12 12v31q0 12 12 12h104v174h-345q-12 0 -12 12v27q0 13 13 29l317 394q15 17 23 22t21 5h35q11 0 11 -12v-426h82q11 0 11 -12v-27q0 -12 -11 -12h-82v-174h91q12 0 12 -12v-31q0 -12 -12 -12zM399 280v362l-291 -362h291z" />
    <glyph glyph-name="five" unicode="5" horiz-adv-x="578" 
d="M280 -7q-33 0 -63 6t-52.5 15.5t-41.5 21t-33 24t-22.5 21.5t-15.5 17l-6 9q-8 9 0 17l26 24q10 8 17 -1q2 -2 18 -19.5t27.5 -26.5t33 -22.5t50 -20t62.5 -6.5q91 0 142 46t51 133q0 80 -53 128.5t-138 48.5q-62 0 -171 -32q-28 -6 -28 20v311q0 12 12 12h385
q11 0 11 -12v-114q0 -12 -11 -12h-41q-11 0 -11 12v71h-280v-229l4 1q5 2 11.5 4t15.5 4.5t21 5t26 4.5t31 3.5t34 1.5q116 0 180.5 -63t64.5 -168q0 -110 -70 -172.5t-186 -62.5z" />
    <glyph glyph-name="six" unicode="6" horiz-adv-x="606" 
d="M521 531h-39q-11 0 -11 12q0 46 -37 84.5t-112 38.5q-96 0 -150 -69.5t-62 -196.5q86 59 210 59q116 0 180 -63t64 -168q0 -104 -70 -169.5t-184 -65.5q-130 0 -199 99t-69 258q0 171 69 272.5t211 101.5q93 0 152 -50.5t59 -130.5q0 -12 -12 -12zM108 343
q2 -138 54 -214.5t147 -76.5q89 0 140.5 49.5t51.5 129.5t-52.5 128.5t-137.5 48.5q-119 0 -203 -65z" />
    <glyph glyph-name="seven" unicode="7" horiz-adv-x="590" 
d="M284 0h-40q-12 0 -12 12q0 92 13.5 166t35.5 122t48 87t52.5 69.5t48.5 60t36 68t15 84.5h-376v-74q0 -11 -12 -11h-40q-11 0 -11 11v117q0 12 11 12h484q11 0 11 -12v-21q0 -73 -26 -131t-63 -103t-74 -97t-63 -140.5t-26 -207.5q0 -12 -12 -12z" />
    <glyph glyph-name="eight" unicode="8" horiz-adv-x="604" 
d="M412 388v-2q13 0 30.5 -5t39 -18.5t39 -33.5t29.5 -53t12 -74q0 -94 -71.5 -151.5t-187.5 -57.5q-118 0 -189.5 57.5t-71.5 151.5q0 41 12 74t30 53t39.5 33.5t39 18.5t30.5 5v2q-34 0 -80 41t-46 109q0 73 58.5 129t177.5 57q118 0 176 -56t58 -130q0 -68 -45.5 -109
t-79.5 -41zM315 355h-26q-88 0 -136 -38.5t-48 -111.5q0 -69 53 -111t144 -42t144.5 42t53.5 111q0 73 -48.5 111.5t-136.5 38.5zM474 535q0 55 -44.5 93t-127.5 38q-83 -1 -127.5 -38.5t-44.5 -92.5q0 -39 17.5 -66.5t46 -40t54.5 -18t52 -5.5q29 0 55.5 5t55 18t46 40.5
t17.5 66.5z" />
    <glyph glyph-name="nine" unicode="9" horiz-adv-x="604" 
d="M85 186h38q12 0 12 -12q0 -46 37 -84.5t111 -38.5q96 0 150 69t62 197q-83 -59 -209 -59q-116 0 -180 63t-64 168q0 104 69.5 169.5t183.5 65.5q130 0 198.5 -98.5t68.5 -258.5q0 -169 -71 -271.5t-208 -102.5q-92 0 -151 50.5t-59 130.5q0 12 12 12zM498 373
q-2 139 -54 215.5t-148 76.5q-88 0 -139.5 -49.5t-51.5 -129.5t52 -128.5t138 -48.5q117 0 203 64z" />
    <glyph glyph-name="colon" unicode=":" horiz-adv-x="164" 
d="M123 33q0 -17 -12 -28.5t-29 -11.5q-16 0 -28 11.5t-12 28.5t11.5 29t28.5 12t29 -12t12 -29zM123 448q0 -17 -12 -29t-29 -12t-28.5 12t-11.5 29q0 16 12 28t28 12q17 0 29 -11.5t12 -28.5z" />
    <glyph glyph-name="semicolon" unicode=";" horiz-adv-x="172" 
d="M123 448q0 -17 -11.5 -29t-28.5 -12t-28.5 12t-11.5 29t11.5 28.5t28.5 11.5t28.5 -12t11.5 -28zM51 -87v12q0 6 7 6q15 0 28 14t13 43l-2 10q-6 -5 -20 -5t-24.5 11t-10.5 28t11.5 28.5t28.5 11.5q48 0 48 -64q0 -53 -21 -77t-51 -24q-7 0 -7 6z" />
    <glyph glyph-name="less" unicode="&#x3c;" horiz-adv-x="437" 
d="M383 71l-329 158q-12 5 -12 16v16q0 11 12 16l329 159q12 3 12 -7v-30q0 -13 -12 -17l-267 -129l267 -128q12 -5 12 -17v-30q0 -12 -12 -7z" />
    <glyph glyph-name="equal" unicode="=" horiz-adv-x="416" 
d="M362 346h-308q-12 0 -12 12v31q0 12 12 12h308q12 0 12 -12v-31q0 -12 -12 -12zM362 109h-308q-12 0 -12 12v32q0 12 12 12h308q12 0 12 -12v-32q0 -12 -12 -12z" />
    <glyph glyph-name="greater" unicode="&#x3e;" horiz-adv-x="437" 
d="M395 261v-16q0 -11 -12 -16l-329 -158q-12 -6 -12 7v30q0 12 12 17l267 128l-267 129q-12 4 -12 17v30q0 11 12 7l329 -159q12 -5 12 -16z" />
    <glyph glyph-name="question" unicode="?" horiz-adv-x="572" 
d="M292 127h-42q-12 0 -12 12q0 62 23.5 111t57 80.5t67 59t57 61.5t23.5 73q0 64 -48 103t-133 39q-91 0 -134.5 -43t-45.5 -114q0 -12 -12 -12h-40q-11 0 -11 12q0 40 12.5 76.5t39.5 68.5t76 51t115 19q113 0 179 -55t66 -142q0 -52 -23.5 -93.5t-56.5 -69.5t-66 -57
t-56.5 -71.5t-23.5 -96.5q0 -12 -12 -12zM314 15q0 -18 -12 -30t-30 -12q-17 0 -29.5 12t-12.5 30q0 17 12.5 29.5t29.5 12.5q18 0 30 -12.5t12 -29.5z" />
    <glyph glyph-name="at" unicode="@" horiz-adv-x="786" 
d="M613 -42l10 -23q4 -9 -5 -15q-9 -5 -27 -12.5t-76.5 -20.5t-121.5 -13q-150 0 -250.5 102t-100.5 254q0 161 114 278t271 117q147 0 232 -78t85 -191q0 -133 -66 -205.5t-145 -72.5h-20q-23 0 -32.5 8t-6.5 30l4 29l-2 -4q-3 -4 -8 -10t-11.5 -13.5t-15.5 -15
t-19.5 -13.5t-23.5 -10t-27 -4q-64 0 -106 41t-42 129q0 93 57.5 151t137.5 58q68 0 96 -51l4 30q2 11 13 11h22q11 0 9 -12l-39 -309h23q57 0 102 60t45 172q0 97 -73 158t-193 61q-138 0 -235 -103.5t-97 -240.5q0 -131 85.5 -217.5t212.5 -86.5q60 0 111 9.5t72 18.5
l20 10q10 6 17 -6zM492 230l14 107q-3 15 -9.5 29t-27.5 29.5t-51 15.5q-57 0 -102 -45.5t-45 -118.5q0 -64 31.5 -95t76.5 -31q41 0 75 37.5t38 71.5z" />
    <glyph glyph-name="A" unicode="A" horiz-adv-x="849" 
d="M767 0h-205q-11 0 -11 12v31q0 12 11 12h72l-76 202h-300l-76 -202h72q11 0 11 -12v-31q0 -12 -11 -12h-204q-12 0 -12 12v31q0 12 12 12h68l229 608h-49q-11 0 -11 12v31q0 12 11 12h110q22 0 33 -8.5t19 -28.5l238 -626h69q11 0 11 -12v-31q0 -12 -11 -12zM538 309
l-128 341h-4l-128 -341h260z" />
    <glyph glyph-name="B" unicode="B" horiz-adv-x="683" 
d="M382 0h-316q-12 0 -12 12v31q0 12 12 12h80v608h-80q-12 0 -12 12v31q0 12 12 12h315q102 0 155 -51.5t53 -136.5q0 -105 -93 -153q132 -35 132 -173q0 -90 -62 -147t-184 -57zM209 55h169q187 0 187 153q0 139 -178 139h-178v-292zM209 397h176q55 1 98 32.5t43 95.5
q0 76 -44.5 107.5t-107.5 31.5h-165v-267z" />
    <glyph glyph-name="C" unicode="C" 
d="M664 190l27 -18q8 -6 2 -19q-7 -14 -19 -30.5t-38 -41t-58 -43t-81.5 -32t-106.5 -13.5q-144 0 -240 102.5t-96 267.5q0 163 97.5 262t235.5 99q162 0 236 -116l-1 98q0 12 12 12h37q12 0 12 -12v-208q0 -12 -12 -12h-40q-12 0 -12 12v9q0 50 -68 104t-162 54
q-48 0 -94.5 -18.5t-86 -54.5t-64 -96.5t-24.5 -135.5t23.5 -135.5t62.5 -97t86.5 -55.5t98.5 -19q103 0 164.5 40.5t90.5 89.5q9 14 18 7z" />
    <glyph glyph-name="D" unicode="D" horiz-adv-x="746" 
d="M333 0h-274q-11 0 -11 12v31q0 12 11 12h80v608h-80q-11 0 -11 12v31q0 12 11 12h266q170 0 265 -94.5t95 -261.5q0 -170 -92.5 -266t-259.5 -96zM202 55h119q146 0 222.5 78.5t76.5 226.5q0 141 -75.5 222t-223.5 81h-119v-608z" />
    <glyph glyph-name="E" unicode="E" horiz-adv-x="653" 
d="M587 0h-521q-12 0 -12 12v31q0 12 12 12h80v608h-80q-12 0 -12 12v31q0 12 12 12h521q12 0 12 -12v-142q0 -11 -12 -11h-36q-12 0 -12 11v99h-330v-278h279q12 0 12 -12v-31q0 -12 -12 -12h-279v-275h330v98q0 12 12 12h36q12 0 12 -12v-141q0 -12 -12 -12z" />
    <glyph glyph-name="F" unicode="F" horiz-adv-x="630" 
d="M318 0h-252q-12 0 -12 12v31q0 12 12 12h80v608h-80q-12 0 -12 12v31q0 12 12 12h498q12 0 12 -12v-142q0 -11 -12 -11h-36q-11 0 -11 11v99h-308v-278h256q12 0 12 -12v-31q0 -12 -12 -12h-256v-275h109q12 0 12 -12v-31q0 -12 -12 -12z" />
    <glyph glyph-name="G" unicode="G" 
d="M685 0h-35q-12 0 -12 12v75q-87 -94 -244 -94q-147 0 -243.5 102.5t-96.5 267.5t100.5 263t238.5 98q163 0 230 -100l-1 82q0 12 12 12h37q12 0 12 -12v-192q0 -12 -12 -12h-40q-12 0 -12 12v11q0 48 -65.5 94t-158.5 46q-108 0 -191.5 -85t-83.5 -220q0 -74 24 -133.5
t63.5 -96.5t88 -57t99.5 -20q92 0 151.5 32t88.5 77v98h-191q-12 0 -12 12v29q0 12 12 12h241q12 0 12 -12v-289q0 -12 -12 -12z" />
    <glyph glyph-name="H" unicode="H" horiz-adv-x="826" 
d="M761 0h-224q-12 0 -12 12v31q0 12 12 12h80v275h-408v-275h81q11 0 11 -12v-31q0 -12 -11 -12h-224q-12 0 -12 12v31q0 12 12 12h80v608h-80q-12 0 -12 12v31q0 12 12 12h224q11 0 11 -12v-31q0 -12 -11 -12h-81v-279h408v279h-80q-12 0 -12 12v31q0 12 12 12h224
q11 0 11 -12v-31q0 -12 -11 -12h-81v-608h81q11 0 11 -12v-31q0 -12 -11 -12z" />
    <glyph glyph-name="I" unicode="I" horiz-adv-x="356" 
d="M290 0h-224q-12 0 -12 12v31q0 12 12 12h80v608h-80q-12 0 -12 12v31q0 12 12 12h224q11 0 11 -12v-31q0 -12 -11 -12h-81v-608h81q11 0 11 -12v-31q0 -12 -11 -12z" />
    <glyph glyph-name="J" unicode="J" horiz-adv-x="485" 
d="M275 250v413h-80q-11 0 -11 12v31q0 12 11 12h224q12 0 12 -12v-31q0 -12 -12 -12h-81v-404q0 -140 -65 -199.5t-207 -59.5q-12 0 -12 12v31q0 12 12 12q116 0 162.5 46.5t46.5 148.5z" />
    <glyph glyph-name="K" unicode="K" horiz-adv-x="764" 
d="M698 0h-70q-34 0 -55 43l-101 201q-9 19 -15.5 27.5t-30.5 19t-62 10.5h-155v-246h93q12 0 12 -12v-31q0 -12 -12 -12h-236q-12 0 -12 12v31q0 12 12 12h80v608h-80q-12 0 -12 12v31q0 12 12 12h209q12 0 12 -12v-31q0 -12 -12 -12h-66v-309h123q54 0 93 14t69.5 48
t45.5 95.5t15 151.5h-69q-12 0 -12 12v31q0 12 12 12h201q11 0 11 -12v-31q0 -12 -11 -12h-70q-1 -263 -147 -333q18 -7 32 -22t19 -23.5t19 -35.5l99 -194h59q12 0 12 -12v-31q0 -12 -12 -12z" />
    <glyph glyph-name="L" unicode="L" horiz-adv-x="682" 
d="M616 0h-550q-12 0 -12 12v31q0 12 12 12h80v608h-80q-12 0 -12 12v31q0 12 12 12h223q12 0 12 -12v-30q0 -13 -12 -13h-80v-608h360v98q0 12 11 12h36q12 0 12 -12v-141q0 -12 -12 -12z" />
    <glyph glyph-name="M" unicode="M" horiz-adv-x="920" 
d="M854 0h-219q-11 0 -11 12v31q0 12 11 12h76v564h-1l-213 -518q-11 -26 -37 -26q-25 0 -36 26l-214 518h-1v-564h76q11 0 11 -12v-31q0 -12 -11 -12h-219q-12 0 -12 12v31q0 12 12 12h80v608h-80q-12 0 -12 12v31q0 12 12 12h137q30 0 41 -28l168 -401l47 -126h3
q31 84 47 124l167 403q11 28 42 28h136q12 0 12 -12v-31q0 -12 -12 -12h-80v-608h80q12 0 12 -12v-31q0 -12 -12 -12z" />
    <glyph glyph-name="N" unicode="N" horiz-adv-x="826" 
d="M668 0h-37q-27 0 -45 26l-321 503l-55 90h-1v-564h81q11 0 11 -12v-31q0 -12 -11 -12h-224q-12 0 -12 12v31q0 12 12 12h80v608h-80q-12 0 -12 12v31q0 12 12 12h124q28 0 46 -28l321 -499l58 -97h2v569h-80q-12 0 -12 12v31q0 12 12 12h224q11 0 11 -12v-31
q0 -12 -11 -12h-81v-651q0 -12 -12 -12z" />
    <glyph glyph-name="O" unicode="O" horiz-adv-x="796" 
d="M399 -7q-147 0 -246 103.5t-99 266.5t101 262t244 99t243 -99t100 -262q0 -165 -97.5 -267.5t-245.5 -102.5zM399 52q51 0 99 19t88 56t64 97.5t24 135.5t-25 135.5t-66 96.5t-88.5 55t-95.5 19t-95.5 -19t-89 -55t-67 -96.5t-25.5 -135.5t24.5 -135.5t64.5 -97.5
t88.5 -56t99.5 -19z" />
    <glyph glyph-name="P" unicode="P" horiz-adv-x="657" 
d="M311 0h-245q-12 0 -12 12v31q0 12 12 12h80v608h-80q-12 0 -12 12v31q0 12 12 12h300q104 0 170.5 -58t66.5 -162t-64.5 -160t-183.5 -56h-146v-227h102q12 0 12 -12v-31q0 -12 -12 -12zM209 335h147q184 0 184 162q0 85 -52.5 125.5t-131.5 40.5h-147v-328z" />
    <glyph glyph-name="Q" unicode="Q" horiz-adv-x="795" 
d="M726 -26l8 -25q4 -7 -7 -14q-4 -3 -16.5 -8.5t-41.5 -12t-61 -6.5q-35 0 -68.5 5t-59 13t-48 18t-38 19.5t-26.5 18t-16 13.5l-5 5q-128 16 -210.5 115.5t-82.5 247.5q0 163 101 262t244 99t243 -99t100 -262q0 -155 -87 -255.5t-223 -112.5l10 -5q10 -4 24.5 -9.5
t35 -11t48.5 -9t58 -3.5q53 0 104 22q10 4 14 -5zM399 53q51 0 99 19t88 55.5t64 97t24 135.5t-25 135.5t-66 96.5t-88.5 54.5t-95.5 18.5t-95.5 -18.5t-89 -54.5t-67 -96.5t-25.5 -135.5t24.5 -135.5t64.5 -97t88.5 -55.5t99.5 -19z" />
    <glyph glyph-name="R" unicode="R" horiz-adv-x="713" 
d="M647 0h-71q-34 0 -54 43l-101 205q-13 27 -26.5 39t-37.5 13h-148v-245h92q11 0 11 -12v-31q0 -12 -11 -12h-235q-12 0 -12 12v31q0 12 12 12h80v608h-80q-12 0 -12 12v31q0 12 12 12h300q105 0 171 -53.5t66 -155.5q0 -164 -157 -199q19 -14 50 -72l92 -183h59
q12 0 12 -12v-31q0 -12 -12 -12zM209 352h145q186 0 186 155q0 84 -52 120t-134 36h-145v-311z" />
    <glyph glyph-name="S" unicode="S" horiz-adv-x="668" 
d="M103 0h-37q-12 0 -12 12v228q0 12 12 12h40q12 0 12 -12v-22q0 -10 13 -34.5t38.5 -55t74 -53.5t108.5 -23q90 0 140 36t50 103q0 44 -34.5 73.5t-86 43t-111.5 30.5t-111.5 35.5t-86 60.5t-34.5 103q0 80 63 133.5t169 53.5q142 0 204 -84l-1 68q0 12 12 12h37
q11 0 11 -12v-209q0 -11 -11 -11h-40q-12 0 -12 11v32q0 43 -49.5 88.5t-146.5 45.5q-75 0 -121.5 -36t-46.5 -92q0 -40 26 -68.5t67 -44t90.5 -28t99.5 -27t91 -34.5t67 -56t26 -86q0 -87 -63 -143.5t-189 -56.5q-94 0 -155 39t-92 90v-110q2 -12 -11 -12z" />
    <glyph glyph-name="T" unicode="T" horiz-adv-x="730" 
d="M470 0h-215q-13 0 -13 12v30q0 13 13 13h79v608h-218v-103q0 -12 -12 -12h-38q-12 0 -12 12v146q0 12 12 12h598q12 0 12 -12v-146q0 -12 -12 -12h-38q-12 0 -12 12v103h-217v-608h73q12 0 12 -13v-30q0 -12 -12 -12z" />
    <glyph glyph-name="U" unicode="U" horiz-adv-x="822" 
d="M612 261v402h-80q-12 0 -12 12v31q0 12 12 12h224q11 0 11 -12v-31q0 -12 -11 -12h-81v-393q0 -136 -68 -206.5t-196 -70.5t-196.5 70.5t-68.5 206.5v393h-80q-12 0 -12 12v31q0 12 12 12h224q11 0 11 -12v-31q0 -12 -11 -12h-81v-396q0 -103 46.5 -159t155.5 -56
q201 0 201 209z" />
    <glyph glyph-name="V" unicode="V" horiz-adv-x="853" 
d="M443 0h-32q-24 0 -38 33l-240 630h-67q-12 0 -12 12v31q0 12 12 12h204q12 0 12 -12v-31q0 -12 -12 -12h-71l225 -595h5l225 595h-71q-12 0 -12 12v31q0 12 12 12h204q12 0 12 -12v-31q0 -12 -12 -12h-67l-240 -630q-7 -18 -14 -25.5t-23 -7.5z" />
    <glyph glyph-name="W" unicode="W" horiz-adv-x="1092" 
d="M740 0h-30q-30 0 -38 33l-125 553h-3l-124 -553q-8 -33 -38 -33h-30q-27 0 -38 33l-195 630h-66q-11 0 -11 12v31q0 12 11 12h205q11 0 11 -12v-31q0 -12 -11 -12h-72l179 -595h5l146 650h60l146 -650h5l179 595h-72q-12 0 -12 12v31q0 12 12 12h204q12 0 12 -12v-31
q0 -12 -12 -12h-66l-195 -630q-9 -33 -37 -33z" />
    <glyph glyph-name="X" unicode="X" horiz-adv-x="819" 
d="M744 0h-224q-12 0 -12 12v31q0 12 12 12h72l-185 264l-191 -264h74q11 0 11 -12v-31q0 -12 -11 -12h-224q-12 0 -12 12v31q0 12 12 12h79l226 307l-227 301h-78q-12 0 -12 12v31q0 12 12 12h224q11 0 11 -12v-31q0 -12 -11 -12h-75l190 -256l190 256h-66q-11 0 -11 12v31
q0 12 11 12h224q12 0 12 -12v-31q0 -12 -12 -12h-86l-225 -300l221 -308h81q11 0 11 -12v-31q0 -12 -11 -12z" />
    <glyph glyph-name="Y" unicode="Y" 
d="M488 0h-224q-12 0 -12 12v31q0 12 12 12h80v238q-1 1 -47 84t-98 175t-65 111h-68q-12 0 -12 12v31q0 12 12 12h204q12 0 12 -12v-31q0 -12 -12 -12h-70l174 -312h5l172 312h-70q-12 0 -12 12v31q0 12 12 12h204q12 0 12 -12v-31q0 -12 -12 -12h-69q-13 -19 -65 -111.5
t-98 -175.5l-46 -83v-238h81q11 0 11 -12v-31q0 -12 -11 -12z" />
    <glyph glyph-name="Z" unicode="Z" horiz-adv-x="639" 
d="M572 0h-506q-12 0 -12 12v27q0 6 17 27l426 597h-381v-78q0 -12 -12 -12h-38q-12 0 -12 12v121q0 12 12 12h506q12 0 12 -12v-23q0 -11 -18 -34l-425 -594h382v78q0 12 12 12h37q12 0 12 -12v-121q0 -12 -12 -12z" />
    <glyph glyph-name="bracketleft" unicode="[" horiz-adv-x="285" 
d="M231 -71h-178q-11 0 -11 12v813q0 12 11 12h178q12 0 12 -12v-33q0 -13 -12 -13h-129v-722h129q12 0 12 -12v-33q0 -12 -12 -12z" />
    <glyph glyph-name="backslash" unicode="\" horiz-adv-x="392" 
d="M104 748l246 -810q3 -12 -9 -12h-38q-12 0 -15 12l-245 810q-3 12 7 12h39q12 0 15 -12z" />
    <glyph glyph-name="bracketright" unicode="]" horiz-adv-x="285" 
d="M243 754v-813q0 -12 -11 -12h-178q-12 0 -12 12v33q0 12 12 12h129v722h-129q-12 0 -12 13v33q0 12 12 12h178q11 0 11 -12z" />
    <glyph glyph-name="underscore" unicode="_" horiz-adv-x="549" 
d="M495 -79h-441q-12 0 -12 12v31q0 12 12 12h441q13 0 13 -12v-31q0 -12 -13 -12z" />
    <glyph glyph-name="grave" unicode="`" horiz-adv-x="274" 
d="M233 601l-16 -19q-9 -9 -18 -2l-157 127q-8 8 -1 17l20 24q8 10 18 2l152 -133q10 -6 2 -16z" />
    <glyph glyph-name="a" unicode="a" horiz-adv-x="578" 
d="M525 0h-73q-22 0 -32 8.5t-10 31.5v57h-1q-78 -105 -205 -105q-69 0 -115.5 37t-46.5 100q0 154 273 154h91v20q0 79 -38 111.5t-108 32.5q-31 0 -58.5 -5t-45 -12.5t-30 -14.5t-18.5 -12l-6 -5q-10 -6 -15 2l-17 22q-7 8 1 16q71 61 189 61q101 0 153.5 -47t52.5 -151
v-252h59q12 0 12 -11v-26q0 -12 -12 -12zM406 144v88h-88q-49 0 -83.5 -3.5t-66.5 -13t-48.5 -30.5t-16.5 -52q0 -37 31.5 -63t82.5 -26q107 0 189 100z" />
    <glyph glyph-name="b" unicode="b" horiz-adv-x="611" 
d="M158 0h-34q-11 0 -11 12v657h-60q-11 0 -11 11v26q0 12 11 12h107q11 0 11 -12v-280l-2 -36h2q20 48 65 78.5t108 30.5q101 0 163 -69.5t62 -180.5q0 -114 -62.5 -185t-162.5 -71q-64 0 -108.5 31.5t-65.5 82.5h-1v-95q0 -12 -11 -12zM339 44q74 0 122 56.5t48 146.5
q0 92 -49 146.5t-121 54.5t-121 -54t-49 -147q0 -91 48 -147t122 -56z" />
    <glyph glyph-name="c" unicode="c" horiz-adv-x="536" 
d="M469 131l18 -17q8 -7 4 -16q-18 -32 -73 -68.5t-137 -36.5q-102 0 -170.5 69.5t-68.5 186.5q0 115 69.5 182.5t165.5 67.5q111 0 165 -78h1v60q-1 12 11 12h24q12 0 12 -12v-163q0 -12 -12 -12h-27q-12 0 -12 12v18q0 38 -45 75t-112 37q-68 0 -124 -54.5t-56 -146.5
q0 -93 55 -148t127 -55q61 0 106.5 27.5t61.5 56.5q7 9 17 3z" />
    <glyph glyph-name="d" unicode="d" horiz-adv-x="611" 
d="M557 0h-73q-22 0 -32 8.5t-10 31.5v69h-1q-19 -50 -65 -83t-109 -33q-100 0 -162.5 71t-62.5 185q0 111 62 180.5t163 69.5q63 0 107.5 -30.5t65.5 -78.5h1q-1 19 -1 28v251h-60q-11 0 -11 11v26q0 12 11 12h106q12 0 12 -12v-657h59q12 0 12 -11v-26q0 -12 -12 -12z
M272 44q73 0 121.5 56t48.5 147q0 93 -49 147t-121 54t-121.5 -54.5t-49.5 -146.5q0 -90 48.5 -146.5t122.5 -56.5z" />
    <glyph glyph-name="e" unicode="e" horiz-adv-x="534" 
d="M478 239h-375q2 -92 56 -143.5t125 -51.5q60 0 106 27t62 56q8 9 17 4l17 -17q9 -6 4 -16q-18 -33 -72.5 -69t-136.5 -36q-102 0 -170.5 69.5t-68.5 186.5q0 115 67.5 182.5t162.5 67.5q103 0 162 -67t56 -181q0 -12 -12 -12zM104 287h325q-3 74 -44 118.5t-111 44.5
q-64 0 -112.5 -42.5t-57.5 -120.5z" />
    <glyph glyph-name="f" unicode="f" horiz-adv-x="365" 
d="M265 0h-209q-12 0 -12 12v26q0 11 12 11h59v394h-62q-11 0 -11 11v26q0 12 11 12h62v70q0 79 39.5 120.5t109.5 41.5q42 0 85 -32q9 -8 2 -17l-14 -17q-8 -10 -16 -2q-17 17 -52 17q-44 0 -69 -28t-25 -84v-69h128q12 0 12 -12v-26q0 -11 -12 -11h-128v-394h90
q12 0 12 -11v-26q0 -12 -12 -12z" />
    <glyph glyph-name="g" unicode="g" horiz-adv-x="610" 
d="M270 -233q-126 0 -188 62q-9 9 -3 18l16 22q7 8 17 1q7 -7 19 -16t52 -22t87 -13q76 0 123 38t47 120v130q-22 -50 -66.5 -82t-107.5 -32q-101 0 -162.5 71t-61.5 184t62.5 182t162.5 69q62 0 106.5 -30.5t67.5 -78.5h2l-2 90q0 12 12 12h103q12 0 12 -12v-26
q0 -11 -12 -11h-58v-466q0 -105 -62 -157.5t-166 -52.5zM272 43q73 0 121.5 56t48.5 147q0 93 -49 147.5t-121 54.5q-73 0 -122 -55t-49 -147q0 -90 48.5 -146.5t122.5 -56.5z" />
    <glyph glyph-name="h" unicode="h" horiz-adv-x="620" 
d="M567 0h-77q-22 0 -32 8.5t-10 31.5v277q0 61 -32 95.5t-90 34.5q-24 0 -45 -5.5t-36 -13.5t-28 -18.5t-21 -20.5t-13.5 -18.5t-8.5 -13.5l-2 -5v-303h58q12 0 12 -11v-26q0 -12 -12 -12h-177q-11 0 -11 12v26q0 11 11 11h59v620h-59q-11 0 -11 11v26q0 12 11 12h108
q11 0 11 -12v-232q0 -49 -3 -58h2q52 83 164 83q80 0 126 -46.5t47 -126.5v-277h59q12 0 12 -11v-26q0 -12 -12 -12z" />
    <glyph glyph-name="i" unicode="i" horiz-adv-x="284" 
d="M230 0h-177q-11 0 -11 12v26q0 11 11 11h59v394h-59q-11 0 -11 11v26q0 12 11 12h108q11 0 11 -12v-431h58q12 0 12 -11v-26q0 -12 -12 -12zM188 592q0 -19 -13.5 -32t-32.5 -13t-32.5 13t-13.5 32t13.5 33t32.5 14t32.5 -14t13.5 -33z" />
    <glyph glyph-name="j" unicode="j" horiz-adv-x="303" 
d="M261 592q0 -19 -13.5 -32t-32.5 -13t-32 13t-13 32q0 20 13 33.5t32 13.5t32.5 -14t13.5 -33zM185 -71v514h-60q-11 0 -11 11v26q0 12 11 12h108q11 0 11 -12v-552q0 -79 -39.5 -120.5t-109.5 -41.5q-45 0 -85 32q-9 9 -1 17l13 17q9 9 17 3q18 -18 51 -18q44 0 69.5 28
t25.5 84z" />
    <glyph glyph-name="k" unicode="k" horiz-adv-x="610" 
d="M565 0h-39q-28 0 -49 27l-195 265l-110 -103v-140h58q12 0 12 -11v-26q0 -12 -12 -12h-177q-11 0 -11 12v26q0 11 11 11h59v620h-59q-11 0 -11 11v26q0 12 11 12h108q11 0 11 -12v-455l207 192h-38q-12 0 -12 11v26q0 12 12 12h177q11 0 11 -12v-26q0 -11 -11 -11h-68
l-129 -114l207 -280h37q11 0 11 -11v-26q0 -12 -11 -12z" />
    <glyph glyph-name="l" unicode="l" horiz-adv-x="284" 
d="M230 0h-177q-11 0 -11 12v26q0 11 11 11h59v620h-59q-11 0 -11 11v27q0 11 11 11h88q31 0 31 -27v-642h58q12 0 12 -11v-26q0 -12 -12 -12z" />
    <glyph glyph-name="m" unicode="m" horiz-adv-x="937" 
d="M884 0h-77q-22 0 -32 8.5t-10 31.5v277q0 61 -32 95.5t-91 34.5q-90 0 -141 -74q7 -28 7 -51v-273h58q12 0 12 -11v-26q0 -12 -12 -12h-176q-11 0 -11 12v26q0 11 11 11h58v268q0 61 -32 95.5t-90 34.5q-24 0 -45 -5.5t-36 -13.5t-28 -18.5t-21 -20.5t-13.5 -18.5
t-8.5 -13.5l-2 -5v-303h56q12 0 12 -11v-26q0 -12 -12 -12h-175q-11 0 -11 12v26q0 11 11 11h59v394h-59q-11 0 -11 11v26q0 12 11 12h79q20 0 28.5 -7.5t7.5 -26.5l-1 -47h2q53 88 167 88q111 0 151 -84q56 84 166 84q80 0 125.5 -46.5t45.5 -126.5l1 -277h59q11 0 11 -11
v-26q0 -12 -11 -12z" />
    <glyph glyph-name="n" unicode="n" horiz-adv-x="620" 
d="M567 0h-77q-22 0 -32 8.5t-10 31.5v277q0 61 -32 95.5t-90 34.5q-37 0 -67 -11.5t-49 -32.5t-25 -29t-12 -21l-1 -1v-303h58q12 0 12 -11v-26q0 -12 -12 -12h-177q-11 0 -11 12v26q0 11 11 11h59v394h-59q-11 0 -11 11v26q0 12 11 12h104q11 0 11 -12l-1 -68h2
q54 87 167 87q80 0 125.5 -46.5t46.5 -126.5v-277h59q12 0 12 -11v-26q0 -12 -12 -12z" />
    <glyph glyph-name="o" unicode="o" horiz-adv-x="573" 
d="M287 -7q-105 0 -175 70t-70 186q0 115 70.5 182.5t174.5 67.5q103 0 173.5 -68t70.5 -182q0 -115 -70 -185.5t-174 -70.5zM287 44q76 0 130 56t54 147t-55 146t-129 55q-75 0 -130 -55t-55 -146t54.5 -147t130.5 -56z" />
    <glyph glyph-name="p" unicode="p" horiz-adv-x="611" 
d="M235 -225h-182q-11 0 -11 11v27q0 11 11 11h60v619h-59q-11 0 -11 11v26q0 12 11 12h104q11 0 11 -12l-1 -90h2q21 48 66 78.5t108 30.5q100 0 162.5 -69t62.5 -182t-62 -184t-163 -71q-62 0 -106.5 31.5t-66.5 81.5h-2q2 -33 2 -49v-233h64q12 0 12 -11v-27
q0 -11 -12 -11zM339 43q73 0 121.5 56.5t48.5 146.5q0 92 -48.5 147t-121.5 55q-69 0 -119.5 -54.5t-50.5 -157.5q0 -87 51 -140t119 -53z" />
    <glyph glyph-name="q" unicode="q" horiz-adv-x="611" 
d="M557 -225h-181q-12 0 -12 11v27q0 11 12 11h64v239l2 44h-2q-22 -50 -66.5 -82t-107.5 -32q-100 0 -162 71.5t-62 183.5q0 113 62.5 182t162.5 69q62 0 106.5 -30.5t67.5 -78.5h2l-2 90q0 12 12 12h33q12 0 12 -12v-656h59q12 0 12 -11v-27q0 -11 -12 -11zM272 44
q73 0 121.5 56t48.5 147q0 92 -49 146.5t-121 54.5q-73 0 -122 -55t-49 -147q0 -90 48.5 -146t122.5 -56z" />
    <glyph glyph-name="r" unicode="r" horiz-adv-x="413" 
d="M230 0h-177q-11 0 -11 12v26q0 11 11 11h59v394h-59q-11 0 -11 11v26q0 12 11 12h104q11 0 11 -12v-130h3q1 6 4.5 15.5t19 34t37.5 43.5t64 34.5t95 15.5q12 0 12 -12v-31q0 -12 -12 -12h-15q-95 0 -149.5 -61.5t-54.5 -138.5v-189h58q12 0 12 -11v-26q0 -12 -12 -12z
" />
    <glyph glyph-name="s" unicode="s" horiz-adv-x="481" 
d="M255 -7q-50 0 -88 16t-52.5 31.5t-22.5 30.5h-2q2 -58 2 -59q0 -12 -12 -12h-22q-12 0 -12 12v148q0 13 12 13h25q12 0 12 -12v-26q1 -4 4 -10t15 -22.5t27.5 -29t44.5 -22.5t64 -10q60 0 91.5 24t31.5 67q0 31 -32.5 50.5t-78.5 31t-92 25t-78.5 44t-32.5 78.5
q0 65 47 101.5t116 36.5q99 0 145 -59h2l-3 39q0 13 13 13h21q12 0 12 -13v-133q0 -12 -13 -12h-24q-12 0 -12 12v17q0 29 -34 58t-102 29q-44 0 -76 -24t-32 -66q0 -34 32.5 -54.5t79 -32t93 -24.5t79 -42t32.5 -75q0 -60 -44.5 -99.5t-135.5 -39.5z" />
    <glyph glyph-name="t" unicode="t" horiz-adv-x="380" 
d="M336 60l15 -19q8 -8 -2 -16q-32 -32 -85 -32q-70 0 -109.5 41t-39.5 120v289h-61q-12 0 -12 12v25q0 12 12 12h61v96q0 13 12 13h36q12 0 12 -13v-96h127q13 0 13 -12v-25q0 -12 -13 -12h-127v-287q0 -56 25 -84t69 -28q34 0 51 17q10 7 16 -1z" />
    <glyph glyph-name="u" unicode="u" horiz-adv-x="604" 
d="M550 0h-72q-23 0 -33 8.5t-10 31.5v40h-2q-45 -87 -164 -87q-81 0 -127 46.5t-46 126.5v277h-59q-12 0 -12 11v26q0 12 12 12h76q23 0 33 -8.5t10 -31.5v-277q0 -61 32 -95.5t90 -34.5q32 0 59.5 10t44 23.5t28.5 28t16.5 23.5t4.5 10v303h-57q-12 0 -12 11v26
q0 12 12 12h106q11 0 11 -12v-431h59q12 0 12 -11v-26q0 -12 -12 -12z" />
    <glyph glyph-name="v" unicode="v" horiz-adv-x="574" 
d="M304 0h-37q-12 0 -17 15l-172 428h-56q-12 0 -12 11v26q0 12 12 12h167q12 0 12 -12v-26q0 -11 -12 -11h-48l143 -369h2l147 369h-48q-12 0 -12 11v26q0 12 12 12h168q11 0 11 -12v-26q0 -11 -11 -11h-57l-174 -428q-5 -15 -18 -15z" />
    <glyph glyph-name="w" unicode="w" horiz-adv-x="789" 
d="M547 0h-33q-15 0 -19 16l-98 372h-3l-100 -372q-3 -16 -18 -16h-33q-12 0 -18 16l-142 427h-57q-11 0 -11 11v26q0 12 11 12h168q12 0 12 -12v-26q0 -11 -12 -11h-49l114 -369h2l96 369h-46q-12 0 -12 11v26q0 12 12 12h169q11 0 11 -12v-26q0 -11 -11 -11h-47l96 -369h2
l113 369h-48q-12 0 -12 11v26q0 12 12 12h168q11 0 11 -12v-26q0 -11 -11 -11h-57l-142 -427q-6 -16 -18 -16z" />
    <glyph glyph-name="x" unicode="x" horiz-adv-x="549" 
d="M516 0h-173q-12 0 -12 12v26q0 11 12 11h57l-131 168l-128 -168h56q11 0 11 -11v-26q0 -12 -11 -12h-165q-11 0 -11 12v26q0 11 11 11h50l157 201l-154 193h-52q-12 0 -12 11v26q0 12 12 12h173q11 0 11 -12v-26q0 -11 -11 -11h-52l130 -165l116 165h-48q-12 0 -12 11v26
q0 12 12 12h164q12 0 12 -12v-26q0 -11 -12 -11h-56l-145 -201l154 -193h47q12 0 12 -11v-26q0 -12 -12 -12z" />
    <glyph glyph-name="y" unicode="y" horiz-adv-x="573" 
d="M241 -71l31 84h-7q-11 0 -20 22l-164 408h-57q-12 0 -12 11v26q0 12 12 12h165q12 0 12 -12v-26q0 -11 -12 -11h-46l147 -371h2l133 371h-48q-12 0 -12 11v26q0 12 12 12h167q12 0 12 -12v-26q0 -11 -12 -11h-56l-192 -515q-31 -84 -65.5 -123t-96.5 -39q-53 0 -85 32
q-9 9 -2 17l15 18q8 8 16 2q18 -18 51 -18q41 0 64.5 24t47.5 88z" />
    <glyph glyph-name="z" unicode="z" horiz-adv-x="516" 
d="M463 0h-410q-11 0 -11 12v30q0 15 12 27l345 374h-304v-83q0 -11 -12 -11h-30q-11 0 -11 11v120q0 12 11 12h410q12 0 12 -12v-23q0 -14 -12 -24l-352 -384h311v87q0 11 11 11h30q12 0 12 -11v-124q0 -12 -12 -12z" />
    <glyph glyph-name="braceleft" unicode="{" horiz-adv-x="318" 
d="M276 -28v-32q0 -12 -12 -12q-63 0 -102 33t-39 108v136q0 51 -25 85.5t-44 34.5q-12 0 -12 13v22q0 13 12 13q19 0 44 34t25 86v129q0 76 39 109.5t102 33.5q12 0 12 -12v-32q0 -13 -12 -13q-42 0 -61 -21.5t-19 -68.5v-124q0 -40 -17 -73.5t-33 -46.5l-17 -14v-23
q3 -2 7.5 -5.5t16 -16t20.5 -26.5t16 -37t7 -48v-132q0 -46 19 -66.5t61 -20.5q12 0 12 -13z" />
    <glyph glyph-name="bar" unicode="|" horiz-adv-x="145" 
d="M92 -131h-39q-11 0 -11 12v867q0 12 11 12h39q11 0 11 -12v-867q0 -12 -11 -12z" />
    <glyph glyph-name="braceright" unicode="}" horiz-adv-x="318" 
d="M54 -72q-12 0 -12 12v32q0 13 12 13q42 0 61 20.5t19 66.5v132q0 40 16.5 73t33.5 47l16 13v23q-7 5 -18 15t-29.5 44.5t-18.5 74.5v124q0 47 -19 68.5t-61 21.5q-12 0 -12 13v32q0 12 12 12q62 0 101.5 -34t39.5 -109v-129q0 -52 25 -86t44 -34q12 0 12 -13v-22
q0 -13 -12 -13q-19 0 -44 -34.5t-25 -85.5v-136q0 -75 -39.5 -108t-101.5 -33z" />
    <glyph glyph-name="exclamdown" unicode="&#xa1;" horiz-adv-x="168" 
d="M103 -268h-38q-12 0 -12 12v588q0 12 12 12h38q12 0 12 -12v-588q0 -12 -12 -12zM126 477q0 -17 -12.5 -29.5t-29.5 -12.5q-18 0 -30 12.5t-12 29.5q0 18 12 30t30 12q17 0 29.5 -12t12.5 -30z" />
    <glyph glyph-name="cent" unicode="&#xa2;" horiz-adv-x="536" 
d="M291 -13h-30q-12 0 -12 11v54q-90 10 -148.5 78t-58.5 176q0 106 59.5 172t147.5 76v70q0 12 12 12h30q12 0 12 -12v-71q102 -9 140 -75h2l-2 60q-1 12 11 12h24q12 0 12 -12v-163q0 -12 -12 -12h-27q-12 0 -12 12v18q0 38 -45 75t-112 37q-68 0 -124 -54.5t-56 -146.5
q0 -93 55 -148.5t127 -55.5q60 0 106 27.5t62 56.5q7 10 17 4l18 -17q8 -7 4 -16q-10 -17 -29.5 -36.5t-63.5 -42t-95 -26.5v-52q0 -11 -12 -11z" />
    <glyph glyph-name="sterling" unicode="&#xa3;" horiz-adv-x="580" 
d="M527 0h-468q-12 0 -12 12v30q0 14 11 20q2 1 12 9.5t16 13t18 15.5t19 19.5t16.5 22t15 26t9.5 28.5t4 32q0 38 -15 73h-100q-11 0 -11 12v25q0 12 11 12h74q-16 30 -23 44.5t-15 45t-8 62.5q0 103 70 162.5t174 59.5q94 0 151 -51t57 -141v-16q0 -11 -11 -11h-39
q-11 0 -11 11v17q0 59 -40 97t-107 38q-76 0 -127.5 -41t-51.5 -128q0 -18 2.5 -33.5t9.5 -33.5t10.5 -25.5t16 -30t14.5 -26.5h183q12 0 12 -12v-25q0 -12 -12 -12h-162q12 -36 12 -71q0 -51 -30 -97.5t-70 -77.5h395q12 0 12 -12v-31q0 -12 -12 -12z" />
    <glyph glyph-name="yen" unicode="&#xa5;" 
d="M488 0h-224q-12 0 -12 12v31q0 12 12 12h80v163h-128q-11 0 -11 12v26q0 12 11 12h122v33l-32 56h-127q-11 0 -11 12v26q0 12 11 12h97l-142 256h-68q-12 0 -12 12v31q0 12 12 12h204q12 0 12 -12v-31q0 -12 -12 -12h-70l174 -312h5l172 312h-70q-12 0 -12 12v31
q0 12 12 12h204q12 0 12 -12v-31q0 -12 -12 -12h-69l-141 -256h93q12 0 12 -12v-26q0 -12 -12 -12h-123l-33 -57v-32h118q11 0 11 -12v-26q0 -12 -11 -12h-123v-163h81q11 0 11 -12v-31q0 -12 -11 -12z" />
    <glyph glyph-name="brokenbar" unicode="&#xa6;" horiz-adv-x="145" 
d="M92 410h-39q-11 0 -11 12v326q0 12 11 12h39q11 0 11 -12v-326q0 -12 -11 -12zM92 -131h-39q-11 0 -11 12v326q0 12 11 12h39q11 0 11 -12v-326q0 -12 -11 -12z" />
    <glyph glyph-name="section" unicode="&#xa7;" horiz-adv-x="642" 
d="M90 -224h-37q-11 0 -11 11v229q0 12 11 12h40q12 0 12 -12v-22q0 -11 13.5 -35.5t39 -55.5t74 -53.5t108.5 -22.5q89 0 139 36t50 104q0 39 -25.5 66.5t-66.5 42.5t-90 26.5t-98.5 26.5t-90.5 35t-66.5 58t-25.5 91q0 66 41 113q-41 43 -41 111q0 80 62.5 133.5
t168.5 53.5q142 0 204 -84v68q-1 12 11 12h37q12 0 12 -12v-209q0 -11 -12 -11h-40q-12 0 -12 11v29q0 17 -10 38.5t-30.5 44.5t-61 38.5t-93.5 15.5q-76 0 -122.5 -36t-46.5 -92q0 -47 34.5 -79t86.5 -46t113 -31t113 -34.5t86.5 -56.5t34.5 -97q0 -71 -41 -121
q41 -41 41 -103q0 -88 -63 -144t-190 -56q-94 0 -154.5 39t-91.5 90h-2l2 -111q0 -11 -12 -11zM502 108q27 37 27 83q0 40 -25 67t-68 42t-88.5 26t-98.5 26.5t-86 35.5q-30 -33 -30 -75q0 -51 41 -84t94 -45.5t124 -32.5t110 -43z" />
    <glyph glyph-name="dieresis" unicode="&#xa8;" horiz-adv-x="297" 
d="M110 590q0 -15 -10.5 -25.5t-26.5 -10.5q-15 0 -25 10.5t-10 25.5t10 26t25 11q16 0 26.5 -11t10.5 -26zM260 590q0 -15 -11 -25.5t-26 -10.5t-25.5 10.5t-10.5 25.5t10.5 26t25.5 11t26 -11t11 -26z" />
    <glyph glyph-name="copyright" unicode="&#xa9;" horiz-adv-x="678" 
d="M636 348q0 -121 -88 -209t-209 -88t-209 88t-88 209t88 209t209 88t209 -88t88 -209zM592 348q0 105 -74 179.5t-179 74.5q-106 0 -180 -74.5t-74 -179.5t74 -179.5t180 -74.5q105 0 179 74.5t74 179.5zM452 278l21 -14q7 -4 2 -10q-8 -15 -20.5 -30t-45 -32t-72.5 -17
q-69 0 -117 47.5t-48 128.5t48 128.5t117 47.5q40 0 73 -17t45.5 -32t20.5 -30q4 -6 -3 -10l-21 -15q-6 -3 -10 3q-33 57 -105 57q-49 0 -83 -34t-34 -97q0 -65 34 -99t84 -34q72 0 104 56q4 6 10 3z" />
    <glyph glyph-name="ordfeminine" unicode="&#xaa;" horiz-adv-x="330" 
d="M130 471q-37 0 -62.5 20t-25.5 56q0 69 108 69h67v5q0 37 -13 53.5t-53 16.5q-13 0 -25 -2.5t-20 -5.5t-13.5 -6t-8.5 -5l-3 -3q-4 -2 -7 2l-12 15q-3 4 0 6q26 32 89 32q103 0 103 -103v-115h29q6 0 6 -5v-21q0 -5 -6 -5h-43q-12 0 -16.5 4t-4.5 16v12h-1
q-39 -36 -88 -36zM136 504q47 0 81 36v47l-66 1q-71 1 -71 -39q0 -20 15.5 -32.5t40.5 -12.5z" />
    <glyph glyph-name="guillemotleft" unicode="&#xab;" horiz-adv-x="502" 
d="M268 64l-214 149q-12 7 -12 20v22q0 10 12 19l214 149q12 5 12 -4v-32q0 -10 -12 -19l-178 -125l178 -124q12 -9 12 -20v-31q0 -6 -4 -6.5t-8 2.5zM448 64l-214 149q-12 9 -12 20v22q0 9 12 19l214 149q12 5 12 -4v-32q0 -11 -12 -19l-178 -125l178 -124q12 -8 12 -20
v-31q0 -12 -12 -4z" />
    <glyph glyph-name="logicalnot" unicode="&#xac;" horiz-adv-x="557" 
d="M504 141h-31q-12 0 -12 12v180h-407q-12 0 -12 12v27q0 13 12 13h449q12 0 12 -13v-219q0 -12 -11 -12z" />
    <glyph glyph-name="registered" unicode="&#xae;" horiz-adv-x="678" 
d="M636 348q0 -121 -88 -209t-209 -88t-209 88t-88 209t88 209t209 88t209 -88t88 -209zM339 93q106 0 180.5 74.5t74.5 180.5t-74.5 180.5t-180.5 74.5t-181 -74.5t-75 -180.5t75 -180.5t181 -74.5zM485 179h-40q-14 0 -25 22l-51 101q-12 23 -28 23h-65v-109h40q6 0 6 -5
v-26q0 -6 -6 -6h-115q-5 0 -5 6v26q0 5 5 5h35v273h-35q-5 0 -5 6v26q0 5 5 5h150q51 0 82.5 -24.5t31.5 -75.5q0 -75 -70 -96q2 -2 20 -34l40 -80h30q5 0 5 -5v-26q0 -6 -5 -6zM276 361h72q76 0 76 64t-76 64h-72v-128z" />
    <glyph glyph-name="macron" unicode="&#xaf;" horiz-adv-x="386" 
d="M336 556h-286q-12 0 -12 12v27q0 12 12 12h286q12 0 12 -12v-27q0 -12 -12 -12z" />
    <glyph glyph-name="degree" unicode="&#xb0;" horiz-adv-x="225" 
d="M112 420q-30 0 -50 20t-20 56q0 32 20 53t50 21t50.5 -21t20.5 -53q0 -36 -20.5 -56t-50.5 -20zM112 455q15 0 26 11t11 30q0 18 -10.5 28.5t-26.5 10.5q-15 0 -25.5 -11t-10.5 -28q0 -19 10.5 -30t25.5 -11z" />
    <glyph glyph-name="plusminus" unicode="&#xb1;" horiz-adv-x="405" 
d="M351 341h-118v-121q0 -11 -12 -11h-35q-12 0 -12 11v121h-120q-12 0 -12 12v32q0 12 12 12h120v119q0 12 12 12h35q12 0 12 -12v-119h118q12 0 12 -12v-32q0 -12 -12 -12zM351 112h-297q-12 0 -12 13v31q0 12 12 12h297q12 0 12 -12v-31q0 -13 -12 -13z" />
    <glyph glyph-name="acute" unicode="&#xb4;" horiz-adv-x="274" 
d="M232 707l-157 -127q-11 -8 -18 2l-16 18q-8 10 2 17l152 133q8 8 18 -2l20 -24q6 -10 -1 -17z" />
    <glyph glyph-name="paragraph" unicode="&#xb6;" horiz-adv-x="629" 
d="M515 -78h-40q-12 0 -12 12v729h-73v-729q0 -12 -12 -12h-40q-11 0 -11 12v302h-40q-113 0 -179 59t-66 178t65 182t170 63h298q12 0 12 -12v-31q0 -12 -12 -12h-49v-729q0 -12 -11 -12z" />
    <glyph glyph-name="cedilla" unicode="&#xb8;" horiz-adv-x="231" 
d="M108 -154q-37 0 -65 21q-9 6 -2 13l9 10q7 8 14 3q18 -12 42 -12q48 0 48 37q0 27 -55 27q-22 0 -16 16l19 56l36 -1l-15 -43q71 0 71 -54q0 -33 -23 -53t-63 -20z" />
    <glyph glyph-name="ordmasculine" unicode="&#xba;" horiz-adv-x="325" 
d="M163 471q-51 0 -86 35.5t-35 92.5q0 58 35.5 91.5t85.5 33.5t85 -34t35 -91t-35 -92.5t-85 -35.5zM163 504q36 0 60 24.5t24 69.5q0 44 -25 69t-59 25q-35 0 -60.5 -25.5t-25.5 -68.5q0 -44 25 -69t61 -25z" />
    <glyph glyph-name="guillemotright" unicode="&#xbb;" horiz-adv-x="502" 
d="M234 64q-12 -9 -12 4v31q0 11 12 20l178 124l-178 125q-12 9 -12 19v32q0 6 4 6.5t8 -2.5l214 -149q12 -9 12 -19v-22q0 -13 -12 -20zM54 64q-12 -7 -12 4v31q0 11 12 20l178 124l-178 125q-12 9 -12 19v32q0 12 12 4l214 -149q12 -10 12 -19v-22q0 -11 -12 -20z" />
    <glyph glyph-name="onehalf" unicode="&#xbd;" horiz-adv-x="680" 
d="M214 -74h-38q-12 0 -9 12l246 810q3 12 15 12h39q10 0 7 -12l-245 -810q-3 -12 -15 -12zM627 0h-233q-11 0 -11 10v18q0 40 21.5 68t51 43.5t59.5 29t51 35t21 52.5q0 30 -19.5 47t-52.5 17q-84 0 -84 -64q0 -9 -6 -9h-30q-8 0 -8 9q0 43 32 74.5t96 31.5q56 0 87 -29.5
t31 -74.5q0 -46 -31 -78t-68.5 -47t-69.5 -39t-33 -55h166v38q0 8 8 8h25q8 0 8 -8v-67q0 -10 -11 -10zM257 362h-180q-10 0 -10 10v19q0 11 10 11h72v269l-78 -61q-7 -4 -10 0l-17 22q-3 6 3 10l96 75q5 4 13 4h30q8 0 8 -9l1 -310h62q11 0 11 -11v-19q0 -10 -11 -10z" />
    <glyph glyph-name="questiondown" unicode="&#xbf;" horiz-adv-x="572" 
d="M478 -25h40q12 0 12 -12q0 -40 -12.5 -76.5t-39.5 -68.5t-76 -51t-115 -19q-114 0 -179.5 55t-65.5 142q0 52 23.5 93t56.5 69.5t66 57.5t56.5 71.5t23.5 96.5q0 12 11 12h43q11 0 11 -12q0 -62 -23.5 -111t-56.5 -80.5t-66.5 -59t-57 -61.5t-23.5 -73q0 -64 48 -103
t133 -39q91 0 134.5 43.5t44.5 113.5q0 12 12 12zM341 457q0 -18 -12 -30t-30 -12q-17 0 -29.5 12t-12.5 30q0 17 12.5 29.5t29.5 12.5q18 0 30 -12.5t12 -29.5z" />
    <glyph glyph-name="Agrave" unicode="&#xc0;" horiz-adv-x="849" 
d="M767 0h-205q-11 0 -11 12v31q0 12 11 12h72l-76 202h-300l-76 -202h72q11 0 11 -12v-31q0 -12 -11 -12h-204q-12 0 -12 12v31q0 12 12 12h68l229 608h-49q-11 0 -11 12v31q0 12 11 12h110q22 0 33 -8.5t19 -28.5l238 -626h69q11 0 11 -12v-31q0 -12 -11 -12zM538 309
l-128 341h-4l-128 -341h260zM498 827l-16 -19q-9 -9 -18 -2l-157 127q-8 8 -1 17l20 24q8 10 18 2l152 -133q10 -6 2 -16z" />
    <glyph glyph-name="Aacute" unicode="&#xc1;" horiz-adv-x="849" 
d="M767 0h-205q-11 0 -11 12v31q0 12 11 12h72l-76 202h-300l-76 -202h72q11 0 11 -12v-31q0 -12 -11 -12h-204q-12 0 -12 12v31q0 12 12 12h68l229 608h-49q-11 0 -11 12v31q0 12 11 12h110q22 0 33 -8.5t19 -28.5l238 -626h69q11 0 11 -12v-31q0 -12 -11 -12zM538 309
l-128 341h-4l-128 -341h260zM555 933l-157 -127q-11 -8 -18 2l-16 18q-8 10 2 17l152 133q8 8 18 -2l20 -24q6 -10 -1 -17z" />
    <glyph glyph-name="Acircumflex" unicode="&#xc2;" horiz-adv-x="849" 
d="M767 0h-205q-11 0 -11 12v31q0 12 11 12h72l-76 202h-300l-76 -202h72q11 0 11 -12v-31q0 -12 -11 -12h-204q-12 0 -12 12v31q0 12 12 12h68l229 608h-49q-11 0 -11 12v31q0 12 11 12h110q22 0 33 -8.5t19 -28.5l238 -626h69q11 0 11 -12v-31q0 -12 -11 -12zM538 309
l-128 341h-4l-128 -341h260zM570 826l-16 -18q-7 -9 -17 -2l-127 105l-126 -105q-10 -7 -17 2l-16 18q-8 10 2 17l149 130q4 4 9 4q4 0 9 -5l148 -129q10 -8 2 -17z" />
    <glyph glyph-name="Atilde" unicode="&#xc3;" horiz-adv-x="849" 
d="M767 0h-205q-11 0 -11 12v31q0 12 11 12h72l-76 202h-300l-76 -202h72q11 0 11 -12v-31q0 -12 -11 -12h-204q-12 0 -12 12v31q0 12 12 12h68l229 608h-49q-11 0 -11 12v31q0 12 11 12h110q22 0 33 -8.5t19 -28.5l238 -626h69q11 0 11 -12v-31q0 -12 -11 -12zM538 309
l-128 341h-4l-128 -341h260zM528 901h15q12 0 12 -12q0 -102 -80 -102q-30 0 -53.5 15.5t-42.5 31t-37 15.5q-22 0 -31.5 -13t-9.5 -44q0 -12 -12 -12h-15q-11 0 -11 12q0 96 77 96q34 0 72.5 -31.5t60.5 -31.5q25 0 34.5 13.5t9.5 50.5q0 12 11 12z" />
    <glyph glyph-name="Adieresis" unicode="&#xc4;" horiz-adv-x="849" 
d="M767 0h-205q-11 0 -11 12v31q0 12 11 12h72l-76 202h-300l-76 -202h72q11 0 11 -12v-31q0 -12 -11 -12h-204q-12 0 -12 12v31q0 12 12 12h68l229 608h-49q-11 0 -11 12v31q0 12 11 12h110q22 0 33 -8.5t19 -28.5l238 -626h69q11 0 11 -12v-31q0 -12 -11 -12zM538 309
l-128 341h-4l-128 -341h260zM372 816q0 -15 -10.5 -25.5t-26.5 -10.5q-15 0 -25 10.5t-10 25.5t10 26t25 11q16 0 26.5 -11t10.5 -26zM522 816q0 -15 -11 -25.5t-26 -10.5t-25.5 10.5t-10.5 25.5t10.5 26t25.5 11t26 -11t11 -26z" />
    <glyph glyph-name="Aring" unicode="&#xc5;" horiz-adv-x="849" 
d="M767 0h-205q-11 0 -11 12v31q0 12 11 12h72l-76 202h-300l-76 -202h72q11 0 11 -12v-31q0 -12 -11 -12h-204q-12 0 -12 12v31q0 12 12 12h68l229 608h-49q-11 0 -11 12v31q0 12 11 12h110q22 0 33 -8.5t19 -28.5l238 -626h69q11 0 11 -12v-31q0 -12 -11 -12zM538 309
l-128 341h-4l-128 -341h260zM467 844q-6 -26 -28.5 -40t-47.5 -9q-26 6 -40.5 28.5t-9.5 48.5q6 26 28.5 40t48.5 9q26 -6 40.5 -29t8.5 -48zM439 853q2 15 -7 26.5t-24 12.5q-14 2 -25 -6.5t-13 -22.5q-2 -15 7 -26t23 -13t25.5 6.5t13.5 22.5z" />
    <glyph glyph-name="AE" unicode="&#xc6;" horiz-adv-x="1036" 
d="M970 0h-521q-12 0 -12 12v31q0 12 12 12h80v275h-211l-120 -275h72q11 0 11 -12v-31q0 -12 -11 -12h-204q-12 0 -12 12v31q0 12 12 12h68l264 608h-49q-12 0 -12 12v31q0 12 12 12h621q11 0 11 -12v-142q0 -11 -11 -11h-36q-12 0 -12 11v99h-330v-278h279q12 0 12 -12
v-31q0 -12 -12 -12h-279v-275h330v98q0 12 12 12h36q11 0 11 -12v-141q0 -12 -11 -12zM529 385v278h-67l-122 -278h189z" />
    <glyph glyph-name="Ccedilla" unicode="&#xc7;" 
d="M664 190l27 -18q8 -6 2 -19q-7 -14 -19 -30.5t-38 -41t-58 -43t-81.5 -32t-106.5 -13.5q-144 0 -240 102.5t-96 267.5q0 163 97.5 262t235.5 99q162 0 236 -116l-1 98q0 12 12 12h37q12 0 12 -12v-208q0 -12 -12 -12h-40q-12 0 -12 12v9q0 50 -68 104t-162 54
q-48 0 -94.5 -18.5t-86 -54.5t-64 -96.5t-24.5 -135.5t23.5 -135.5t62.5 -97t86.5 -55.5t98.5 -19q103 0 164.5 40.5t90.5 89.5q9 14 18 7zM370 -154q-37 0 -65 21q-9 6 -2 13l9 10q7 8 14 3q18 -12 42 -12q48 0 48 37q0 27 -55 27q-22 0 -16 16l19 56l36 -1l-15 -43
q71 0 71 -54q0 -33 -23 -53t-63 -20z" />
    <glyph glyph-name="Egrave" unicode="&#xc8;" horiz-adv-x="653" 
d="M587 0h-521q-12 0 -12 12v31q0 12 12 12h80v608h-80q-12 0 -12 12v31q0 12 12 12h521q12 0 12 -12v-142q0 -11 -12 -11h-36q-12 0 -12 11v99h-330v-278h279q12 0 12 -12v-31q0 -12 -12 -12h-279v-275h330v98q0 12 12 12h36q12 0 12 -12v-141q0 -12 -12 -12zM395 827
l-16 -19q-9 -9 -18 -2l-157 127q-8 8 -1 17l20 24q8 10 18 2l152 -133q10 -6 2 -16z" />
    <glyph glyph-name="Eacute" unicode="&#xc9;" horiz-adv-x="653" 
d="M412 933l-157 -127q-11 -8 -18 2l-16 18q-8 10 2 17l152 133q8 8 18 -2l20 -24q6 -10 -1 -17zM587 0h-521q-12 0 -12 12v31q0 12 12 12h80v608h-80q-12 0 -12 12v31q0 12 12 12h521q12 0 12 -12v-142q0 -11 -12 -11h-36q-12 0 -12 11v99h-330v-278h279q12 0 12 -12v-31
q0 -12 -12 -12h-279v-275h330v98q0 12 12 12h36q12 0 12 -12v-141q0 -12 -12 -12z" />
    <glyph glyph-name="Ecircumflex" unicode="&#xca;" horiz-adv-x="653" 
d="M461 826l-16 -18q-7 -9 -17 -2l-127 105l-126 -105q-10 -7 -17 2l-16 18q-8 10 2 17l149 130q4 4 9 4q4 0 9 -5l148 -129q10 -8 2 -17zM587 0h-521q-12 0 -12 12v31q0 12 12 12h80v608h-80q-12 0 -12 12v31q0 12 12 12h521q12 0 12 -12v-142q0 -11 -12 -11h-36
q-12 0 -12 11v99h-330v-278h279q12 0 12 -12v-31q0 -12 -12 -12h-279v-275h330v98q0 12 12 12h36q12 0 12 -12v-141q0 -12 -12 -12z" />
    <glyph glyph-name="Edieresis" unicode="&#xcb;" horiz-adv-x="653" 
d="M271 816q0 -15 -10.5 -25.5t-26.5 -10.5q-15 0 -25 10.5t-10 25.5t10 26t25 11q16 0 26.5 -11t10.5 -26zM421 816q0 -15 -11 -25.5t-26 -10.5t-25.5 10.5t-10.5 25.5t10.5 26t25.5 11t26 -11t11 -26zM587 0h-521q-12 0 -12 12v31q0 12 12 12h80v608h-80q-12 0 -12 12v31
q0 12 12 12h521q12 0 12 -12v-142q0 -11 -12 -11h-36q-12 0 -12 11v99h-330v-278h279q12 0 12 -12v-31q0 -12 -12 -12h-279v-275h330v98q0 12 12 12h36q12 0 12 -12v-141q0 -12 -12 -12z" />
    <glyph glyph-name="Igrave" unicode="&#xcc;" horiz-adv-x="363" 
d="M298 0h-224q-12 0 -12 12v31q0 12 12 12h80v608h-80q-12 0 -12 12v31q0 12 12 12h224q11 0 11 -12v-31q0 -12 -11 -12h-81v-608h81q11 0 11 -12v-31q0 -12 -11 -12zM229 799l-16 -19q-9 -9 -18 -2l-157 127q-8 8 -1 17l20 24q8 10 18 2l152 -133q10 -6 2 -16z" />
    <glyph glyph-name="Iacute" unicode="&#xcd;" horiz-adv-x="375" 
d="M290 0h-224q-12 0 -12 12v31q0 12 12 12h80v608h-80q-12 0 -12 12v31q0 12 12 12h224q11 0 11 -12v-31q0 -12 -11 -12h-81v-608h81q11 0 11 -12v-31q0 -12 -11 -12zM316 903l-157 -127q-11 -8 -18 2l-16 18q-8 10 2 17l152 133q8 8 18 -2l20 -24q6 -10 -1 -17z" />
    <glyph glyph-name="Icircumflex" unicode="&#xce;" horiz-adv-x="365" 
d="M294 0h-224q-12 0 -12 12v31q0 12 12 12h80v608h-80q-12 0 -12 12v31q0 12 12 12h224q11 0 11 -12v-31q0 -12 -11 -12h-81v-608h81q11 0 11 -12v-31q0 -12 -11 -12zM343 826l-16 -18q-7 -9 -17 -2l-127 105l-126 -105q-10 -7 -17 2l-16 18q-8 10 2 17l149 130q4 4 9 4
q4 0 9 -5l148 -129q10 -8 2 -17z" />
    <glyph glyph-name="Idieresis" unicode="&#xcf;" horiz-adv-x="356" 
d="M290 0h-224q-12 0 -12 12v31q0 12 12 12h80v608h-80q-12 0 -12 12v31q0 12 12 12h224q11 0 11 -12v-31q0 -12 -11 -12h-81v-608h81q11 0 11 -12v-31q0 -12 -11 -12zM140 816q0 -15 -10.5 -25.5t-26.5 -10.5q-15 0 -25 10.5t-10 25.5t10 26t25 11q16 0 26.5 -11t10.5 -26z
M290 816q0 -15 -11 -25.5t-26 -10.5t-25.5 10.5t-10.5 25.5t10.5 26t25.5 11t26 -11t11 -26z" />
    <glyph glyph-name="Eth" unicode="&#xd0;" horiz-adv-x="746" 
d="M340 0h-274q-12 0 -12 12v31q0 12 12 12h80v279h-70q-12 0 -12 13v27q0 12 12 12h70v277h-80q-12 0 -12 12v31q0 12 12 12h266q170 0 265 -94.5t95 -261.5q0 -170 -92.5 -266t-259.5 -96zM209 55h119q146 0 222.5 78.5t76.5 226.5q0 141 -76 222t-223 81h-119v-277h169
q12 0 12 -12v-27q0 -13 -12 -13h-169v-279z" />
    <glyph glyph-name="Ntilde" unicode="&#xd1;" horiz-adv-x="826" 
d="M668 0h-37q-27 0 -45 26l-321 503l-55 90h-1v-564h81q11 0 11 -12v-31q0 -12 -11 -12h-224q-12 0 -12 12v31q0 12 12 12h80v608h-80q-12 0 -12 12v31q0 12 12 12h124q28 0 46 -28l321 -499l58 -97h2v569h-80q-12 0 -12 12v31q0 12 12 12h224q11 0 11 -12v-31
q0 -12 -11 -12h-81v-651q0 -12 -12 -12zM542 901h15q12 0 12 -12q0 -102 -80 -102q-30 0 -53.5 15.5t-42.5 31t-37 15.5q-22 0 -31.5 -13t-9.5 -44q0 -12 -12 -12h-15q-11 0 -11 12q0 96 77 96q34 0 72.5 -31.5t60.5 -31.5q25 0 34.5 13.5t9.5 50.5q0 12 11 12z" />
    <glyph glyph-name="Ograve" unicode="&#xd2;" horiz-adv-x="796" 
d="M399 -7q-147 0 -246 103.5t-99 266.5t101 262t244 99t243 -99t100 -262q0 -165 -97.5 -267.5t-245.5 -102.5zM399 52q51 0 99 19t88 56t64 97.5t24 135.5t-25 135.5t-66 96.5t-88.5 55t-95.5 19t-95.5 -19t-89 -55t-67 -96.5t-25.5 -135.5t24.5 -135.5t64.5 -97.5
t88.5 -56t99.5 -19zM479 827l-16 -19q-9 -9 -18 -2l-157 127q-8 8 -1 17l20 24q8 10 18 2l152 -133q10 -6 2 -16z" />
    <glyph glyph-name="Oacute" unicode="&#xd3;" horiz-adv-x="796" 
d="M490 933l-157 -127q-11 -8 -18 2l-16 18q-8 10 2 17l152 133q8 8 18 -2l20 -24q6 -10 -1 -17zM399 -7q-147 0 -246 103.5t-99 266.5t101 262t244 99t243 -99t100 -262q0 -165 -97.5 -267.5t-245.5 -102.5zM399 52q51 0 99 19t88 56t64 97.5t24 135.5t-25 135.5t-66 96.5
t-88.5 55t-95.5 19t-95.5 -19t-89 -55t-67 -96.5t-25.5 -135.5t24.5 -135.5t64.5 -97.5t88.5 -56t99.5 -19z" />
    <glyph glyph-name="Ocircumflex" unicode="&#xd4;" horiz-adv-x="796" 
d="M556 826l-16 -18q-7 -9 -17 -2l-127 105l-126 -105q-10 -7 -17 2l-16 18q-8 10 2 17l149 130q4 4 9 4q4 0 9 -5l148 -129q10 -8 2 -17zM399 -7q-147 0 -246 103.5t-99 266.5t101 262t244 99t243 -99t100 -262q0 -165 -97.5 -267.5t-245.5 -102.5zM399 52q51 0 99 19
t88 56t64 97.5t24 135.5t-25 135.5t-66 96.5t-88.5 55t-95.5 19t-95.5 -19t-89 -55t-67 -96.5t-25.5 -135.5t24.5 -135.5t64.5 -97.5t88.5 -56t99.5 -19z" />
    <glyph glyph-name="Otilde" unicode="&#xd5;" horiz-adv-x="796" 
d="M399 -7q-147 0 -246 103.5t-99 266.5t101 262t244 99t243 -99t100 -262q0 -165 -97.5 -267.5t-245.5 -102.5zM399 52q51 0 99 19t88 56t64 97.5t24 135.5t-25 135.5t-66 96.5t-88.5 55t-95.5 19t-95.5 -19t-89 -55t-67 -96.5t-25.5 -135.5t24.5 -135.5t64.5 -97.5
t88.5 -56t99.5 -19zM519 901h15q12 0 12 -12q0 -102 -80 -102q-30 0 -53.5 15.5t-42.5 31t-37 15.5q-22 0 -31.5 -13t-9.5 -44q0 -12 -12 -12h-15q-11 0 -11 12q0 96 77 96q34 0 72.5 -31.5t60.5 -31.5q25 0 34.5 13.5t9.5 50.5q0 12 11 12z" />
    <glyph glyph-name="Odieresis" unicode="&#xd6;" horiz-adv-x="796" 
d="M358 816q0 -15 -10.5 -25.5t-26.5 -10.5q-15 0 -25 10.5t-10 25.5t10 26t25 11q16 0 26.5 -11t10.5 -26zM508 816q0 -15 -11 -25.5t-26 -10.5t-25.5 10.5t-10.5 25.5t10.5 26t25.5 11t26 -11t11 -26zM399 -7q-147 0 -246 103.5t-99 266.5t101 262t244 99t243 -99
t100 -262q0 -165 -97.5 -267.5t-245.5 -102.5zM399 52q51 0 99 19t88 56t64 97.5t24 135.5t-25 135.5t-66 96.5t-88.5 55t-95.5 19t-95.5 -19t-89 -55t-67 -96.5t-25.5 -135.5t24.5 -135.5t64.5 -97.5t88.5 -56t99.5 -19z" />
    <glyph glyph-name="multiply" unicode="&#xd7;" horiz-adv-x="342" 
d="M295 195l-24 -24q-7 -9 -16 0l-84 83l-85 -85q-9 -8 -17 0l-22 23q-10 8 0 17l85 85l-86 86q-8 8 0 16l24 25q9 7 16 0l86 -87l85 85q8 8 17 0l22 -22q8 -9 0 -18l-84 -84l83 -83q9 -9 0 -17z" />
    <glyph glyph-name="Oslash" unicode="&#xd8;" horiz-adv-x="796" 
d="M297 -50h-38q-13 0 -8 11l16 57q-97 39 -155 130.5t-58 214.5q0 163 101 262t244 99q37 0 79 -10l18 58q3 12 16 12h38q12 0 7 -12l-22 -75q93 -39 150 -126.5t57 -207.5q0 -165 -97.5 -267.5t-245.5 -102.5q-33 0 -74 9l-13 -41q-3 -11 -15 -11zM286 79l175 577
q-33 10 -66 10q-48 -1 -94.5 -20t-87.5 -55t-66 -96t-25 -135q0 -106 45.5 -177.5t118.5 -103.5zM342 60q34 -8 63 -8q107 2 188 83t81 225q0 102 -44.5 171.5t-113.5 103.5z" />
    <glyph glyph-name="Ugrave" unicode="&#xd9;" horiz-adv-x="822" 
d="M612 261v402h-80q-12 0 -12 12v31q0 12 12 12h224q11 0 11 -12v-31q0 -12 -11 -12h-81v-393q0 -136 -68 -206.5t-196 -70.5t-196.5 70.5t-68.5 206.5v393h-80q-12 0 -12 12v31q0 12 12 12h224q11 0 11 -12v-31q0 -12 -11 -12h-81v-396q0 -103 46.5 -159t155.5 -56
q201 0 201 209zM507 827l-16 -19q-9 -9 -18 -2l-157 127q-8 8 -1 17l20 24q8 10 18 2l152 -133q10 -6 2 -16z" />
    <glyph glyph-name="Uacute" unicode="&#xda;" horiz-adv-x="822" 
d="M539 933l-157 -127q-11 -8 -18 2l-16 18q-8 10 2 17l152 133q8 8 18 -2l20 -24q6 -10 -1 -17zM612 261v402h-80q-12 0 -12 12v31q0 12 12 12h224q11 0 11 -12v-31q0 -12 -11 -12h-81v-393q0 -136 -68 -206.5t-196 -70.5t-196.5 70.5t-68.5 206.5v393h-80q-12 0 -12 12v31
q0 12 12 12h224q11 0 11 -12v-31q0 -12 -11 -12h-81v-396q0 -103 46.5 -159t155.5 -56q201 0 201 209z" />
    <glyph glyph-name="Ucircumflex" unicode="&#xdb;" horiz-adv-x="822" 
d="M570 826l-16 -18q-7 -9 -17 -2l-127 105l-126 -105q-10 -7 -17 2l-16 18q-8 10 2 17l149 130q4 4 9 4q4 0 9 -5l148 -129q10 -8 2 -17zM612 261v402h-80q-12 0 -12 12v31q0 12 12 12h224q11 0 11 -12v-31q0 -12 -11 -12h-81v-393q0 -136 -68 -206.5t-196 -70.5
t-196.5 70.5t-68.5 206.5v393h-80q-12 0 -12 12v31q0 12 12 12h224q11 0 11 -12v-31q0 -12 -11 -12h-81v-396q0 -103 46.5 -159t155.5 -56q201 0 201 209z" />
    <glyph glyph-name="Udieresis" unicode="&#xdc;" horiz-adv-x="822" 
d="M371 816q0 -15 -10.5 -25.5t-26.5 -10.5q-15 0 -25 10.5t-10 25.5t10 26t25 11q16 0 26.5 -11t10.5 -26zM521 816q0 -15 -11 -25.5t-26 -10.5t-25.5 10.5t-10.5 25.5t10.5 26t25.5 11t26 -11t11 -26zM612 261v402h-80q-12 0 -12 12v31q0 12 12 12h224q11 0 11 -12v-31
q0 -12 -11 -12h-81v-393q0 -136 -68 -206.5t-196 -70.5t-196.5 70.5t-68.5 206.5v393h-80q-12 0 -12 12v31q0 12 12 12h224q11 0 11 -12v-31q0 -12 -11 -12h-81v-396q0 -103 46.5 -159t155.5 -56q201 0 201 209z" />
    <glyph glyph-name="Yacute" unicode="&#xdd;" 
d="M488 0h-224q-12 0 -12 12v31q0 12 12 12h80v238q-1 1 -47 84t-98 175t-65 111h-68q-12 0 -12 12v31q0 12 12 12h204q12 0 12 -12v-31q0 -12 -12 -12h-70l174 -312h5l172 312h-70q-12 0 -12 12v31q0 12 12 12h204q12 0 12 -12v-31q0 -12 -12 -12h-69q-13 -19 -65 -111.5
t-98 -175.5l-46 -83v-238h81q11 0 11 -12v-31q0 -12 -11 -12zM477 933l-157 -127q-11 -8 -18 2l-16 18q-8 10 2 17l152 133q8 8 18 -2l20 -24q6 -10 -1 -17z" />
    <glyph glyph-name="Thorn" unicode="&#xde;" horiz-adv-x="626" 
d="M291 0h-238q-11 0 -11 12v28q0 12 11 12h77v614h-76q-11 0 -11 12v28q0 12 11 12h126q12 0 12 -12v-122h155q106 0 172 -55.5t66 -158.5t-63.5 -157t-185.5 -54h-145v-107h100q12 0 12 -12v-28q0 -12 -12 -12zM191 212h152q178 0 178 157q0 82 -50.5 121t-127.5 39h-152
v-317z" />
    <glyph glyph-name="germandbls" unicode="&#xdf;" horiz-adv-x="682" 
d="M217 0h-164q-11 0 -11 12v28q0 12 11 12h62v433q0 110 61 174.5t148 64.5q78 0 119.5 -36.5t41.5 -93.5q0 -32 -14 -55t-33.5 -37l-39 -28t-33.5 -36t-14 -52q0 -35 30 -57t72.5 -34.5t84.5 -28t72 -48t30 -82.5q0 -66 -59.5 -108t-141.5 -42q-26 0 -49 4t-40.5 12
t-32.5 16.5t-26 20.5t-19 21.5t-14.5 21.5t-10 19t-6.5 15l-3 9q-5 11 6 16l25 12q11 5 16 -6q2 -6 4.5 -13t15 -26t28 -32.5t43.5 -25t61 -11.5q59 0 99.5 28t40.5 68q0 38 -29.5 61.5t-71.5 36t-84 27t-71.5 45t-29.5 79.5q0 44 21 74.5t46 44t46 35t21 49.5
q0 34 -24.5 57.5t-75.5 23.5q-63 0 -106 -50.5t-43 -132.5v-433h41q11 0 11 -12v-28q0 -12 -11 -12z" />
    <glyph glyph-name="agrave" unicode="&#xe0;" horiz-adv-x="578" 
d="M525 0h-73q-22 0 -32 8.5t-10 31.5v57h-1q-78 -105 -205 -105q-69 0 -115.5 37t-46.5 100q0 154 273 154h91v20q0 79 -38 111.5t-108 32.5q-31 0 -58.5 -5t-45 -12.5t-30 -14.5t-18.5 -12l-6 -5q-10 -6 -15 2l-17 22q-7 8 1 16q71 61 189 61q101 0 153.5 -47t52.5 -151
v-252h59q12 0 12 -11v-26q0 -12 -12 -12zM406 144v88h-88q-49 0 -83.5 -3.5t-66.5 -13t-48.5 -30.5t-16.5 -52q0 -37 31.5 -63t82.5 -26q107 0 189 100zM360 601l-16 -19q-9 -9 -18 -2l-157 127q-8 8 -1 17l20 24q8 10 18 2l152 -133q10 -6 2 -16z" />
    <glyph glyph-name="aacute" unicode="&#xe1;" horiz-adv-x="578" 
d="M525 0h-73q-22 0 -32 8.5t-10 31.5v57h-1q-78 -105 -205 -105q-69 0 -115.5 37t-46.5 100q0 154 273 154h91v20q0 79 -38 111.5t-108 32.5q-31 0 -58.5 -5t-45 -12.5t-30 -14.5t-18.5 -12l-6 -5q-10 -6 -15 2l-17 22q-7 8 1 16q71 61 189 61q101 0 153.5 -47t52.5 -151
v-252h59q12 0 12 -11v-26q0 -12 -12 -12zM406 144v88h-88q-49 0 -83.5 -3.5t-66.5 -13t-48.5 -30.5t-16.5 -52q0 -37 31.5 -63t82.5 -26q107 0 189 100zM389 707l-157 -127q-11 -8 -18 2l-16 18q-8 10 2 17l152 133q8 8 18 -2l20 -24q6 -10 -1 -17z" />
    <glyph glyph-name="acircumflex" unicode="&#xe2;" horiz-adv-x="578" 
d="M525 0h-73q-22 0 -32 8.5t-10 31.5v57h-1q-78 -105 -205 -105q-69 0 -115.5 37t-46.5 100q0 154 273 154h91v20q0 79 -38 111.5t-108 32.5q-31 0 -58.5 -5t-45 -12.5t-30 -14.5t-18.5 -12l-6 -5q-10 -6 -15 2l-17 22q-7 8 1 16q71 61 189 61q101 0 153.5 -47t52.5 -151
v-252h59q12 0 12 -11v-26q0 -12 -12 -12zM406 144v88h-88q-49 0 -83.5 -3.5t-66.5 -13t-48.5 -30.5t-16.5 -52q0 -37 31.5 -63t82.5 -26q107 0 189 100zM433 600l-16 -18q-7 -9 -17 -2l-127 105l-126 -105q-10 -7 -17 2l-16 18q-8 10 2 17l149 130q4 4 9 4q4 0 9 -5
l148 -129q10 -8 2 -17z" />
    <glyph glyph-name="atilde" unicode="&#xe3;" horiz-adv-x="578" 
d="M525 0h-73q-22 0 -32 8.5t-10 31.5v57h-1q-78 -105 -205 -105q-69 0 -115.5 37t-46.5 100q0 154 273 154h91v20q0 79 -38 111.5t-108 32.5q-31 0 -58.5 -5t-45 -12.5t-30 -14.5t-18.5 -12l-6 -5q-10 -6 -15 2l-17 22q-7 8 1 16q71 61 189 61q101 0 153.5 -47t52.5 -151
v-252h59q12 0 12 -11v-26q0 -12 -12 -12zM406 144v88h-88q-49 0 -83.5 -3.5t-66.5 -13t-48.5 -30.5t-16.5 -52q0 -37 31.5 -63t82.5 -26q107 0 189 100zM390 675h15q12 0 12 -12q0 -102 -80 -102q-30 0 -53.5 15.5t-42.5 31t-37 15.5q-22 0 -31.5 -13t-9.5 -44
q0 -12 -12 -12h-15q-11 0 -11 12q0 96 77 96q34 0 72.5 -31.5t60.5 -31.5q25 0 34.5 13.5t9.5 50.5q0 12 11 12z" />
    <glyph glyph-name="adieresis" unicode="&#xe4;" horiz-adv-x="578" 
d="M525 0h-73q-22 0 -32 8.5t-10 31.5v57h-1q-78 -105 -205 -105q-69 0 -115.5 37t-46.5 100q0 154 273 154h91v20q0 79 -38 111.5t-108 32.5q-31 0 -58.5 -5t-45 -12.5t-30 -14.5t-18.5 -12l-6 -5q-10 -6 -15 2l-17 22q-7 8 1 16q71 61 189 61q101 0 153.5 -47t52.5 -151
v-252h59q12 0 12 -11v-26q0 -12 -12 -12zM406 144v88h-88q-49 0 -83.5 -3.5t-66.5 -13t-48.5 -30.5t-16.5 -52q0 -37 31.5 -63t82.5 -26q107 0 189 100zM248 590q0 -15 -10.5 -25.5t-26.5 -10.5q-15 0 -25 10.5t-10 25.5t10 26t25 11q16 0 26.5 -11t10.5 -26zM398 590
q0 -15 -11 -25.5t-26 -10.5t-25.5 10.5t-10.5 25.5t10.5 26t25.5 11t26 -11t11 -26z" />
    <glyph glyph-name="aring" unicode="&#xe5;" horiz-adv-x="578" 
d="M525 0h-73q-22 0 -32 8.5t-10 31.5v57h-1q-78 -105 -205 -105q-69 0 -115.5 37t-46.5 100q0 154 273 154h91v20q0 79 -38 111.5t-108 32.5q-31 0 -58.5 -5t-45 -12.5t-30 -14.5t-18.5 -12l-6 -5q-10 -6 -15 2l-17 22q-7 8 1 16q71 61 189 61q101 0 153.5 -47t52.5 -151
v-252h59q12 0 12 -11v-26q0 -12 -12 -12zM406 144v88h-88q-49 0 -83.5 -3.5t-66.5 -13t-48.5 -30.5t-16.5 -52q0 -37 31.5 -63t82.5 -26q107 0 189 100zM350 618q-6 -26 -28.5 -40t-47.5 -9q-26 6 -40.5 28.5t-9.5 48.5q6 26 28.5 40t48.5 9q26 -6 40.5 -29t8.5 -48z
M322 627q2 15 -7 26.5t-24 12.5q-14 2 -25 -6.5t-13 -22.5q-2 -15 7 -26t23 -13t25.5 6.5t13.5 22.5z" />
    <glyph glyph-name="ae" unicode="&#xe6;" horiz-adv-x="898" 
d="M645 -7q-69 0 -124.5 32.5t-85.5 91.5q-18 -28 -43 -52.5t-76.5 -48.5t-111.5 -24q-69 0 -115.5 37t-46.5 100q0 154 273 154h91v20q0 80 -38 112t-108 32q-31 0 -58.5 -5t-45 -12.5t-30 -14.5t-18.5 -12l-6 -5q-10 -6 -15 2l-17 22q-7 8 1 16q71 61 189 61
q152 0 188 -107q30 52 79.5 79.5t108.5 27.5q103 0 161.5 -67t56.5 -181q0 -12 -12 -12h-375q2 -93 56 -144.5t125 -51.5q61 0 106.5 27.5t61.5 56.5q7 9 17 3l17 -16q9 -6 4 -17q-7 -12 -21.5 -27t-39.5 -33.5t-64.5 -31t-83.5 -12.5zM414 167q-8 32 -8 65h-88
q-49 0 -83.5 -3.5t-66.5 -13t-48.5 -30.5t-16.5 -52q0 -37 31.5 -63t82.5 -26q36 0 69.5 12.5t53 25.5t39 36t23.5 29t11 19zM468 286h325q-3 75 -44 119.5t-111 44.5q-64 0 -112.5 -42.5t-57.5 -121.5z" />
    <glyph glyph-name="ccedilla" unicode="&#xe7;" horiz-adv-x="536" 
d="M279 -154q-37 0 -65 21q-9 6 -2 13l9 10q7 8 14 3q18 -12 42 -12q48 0 48 37q0 27 -55 27q-22 0 -16 16l11 33q-97 5 -160 73.5t-63 181.5q0 115 69.5 182.5t165.5 67.5q111 0 165 -78h1v60q-1 12 11 12h24q12 0 12 -12v-163q0 -12 -12 -12h-27q-12 0 -12 12v18
q0 38 -45 75t-112 37q-68 0 -124 -54.5t-56 -146.5q0 -93 55 -148t127 -55q61 0 106.5 27.5t61.5 56.5q7 9 17 3l18 -17q8 -7 4 -16q-16 -30 -66 -64.5t-124 -39.5l-7 -21q71 0 71 -54q0 -33 -23 -53t-63 -20z" />
    <glyph glyph-name="egrave" unicode="&#xe8;" horiz-adv-x="534" 
d="M478 239h-375q2 -92 56 -143.5t125 -51.5q60 0 106 27t62 56q8 9 17 4l17 -17q9 -6 4 -16q-18 -33 -72.5 -69t-136.5 -36q-102 0 -170.5 69.5t-68.5 186.5q0 115 67.5 182.5t162.5 67.5q103 0 162 -67t56 -181q0 -12 -12 -12zM104 287h325q-3 74 -44 118.5t-111 44.5
q-64 0 -112.5 -42.5t-57.5 -120.5zM360 601l-16 -19q-9 -9 -18 -2l-157 127q-8 8 -1 17l20 24q8 10 18 2l152 -133q10 -6 2 -16z" />
    <glyph glyph-name="eacute" unicode="&#xe9;" horiz-adv-x="534" 
d="M398 707l-157 -127q-11 -8 -18 2l-16 18q-8 10 2 17l152 133q8 8 18 -2l20 -24q6 -10 -1 -17zM478 239h-375q2 -92 56 -143.5t125 -51.5q60 0 106 27t62 56q8 9 17 4l17 -17q9 -6 4 -16q-18 -33 -72.5 -69t-136.5 -36q-102 0 -170.5 69.5t-68.5 186.5q0 115 67.5 182.5
t162.5 67.5q103 0 162 -67t56 -181q0 -12 -12 -12zM104 287h325q-3 74 -44 118.5t-111 44.5q-64 0 -112.5 -42.5t-57.5 -120.5z" />
    <glyph glyph-name="ecircumflex" unicode="&#xea;" horiz-adv-x="534" 
d="M428 600l-16 -18q-7 -9 -17 -2l-127 105l-126 -105q-10 -7 -17 2l-16 18q-8 10 2 17l149 130q4 4 9 4q4 0 9 -5l148 -129q10 -8 2 -17zM478 239h-375q2 -92 56 -143.5t125 -51.5q60 0 106 27t62 56q8 9 17 4l17 -17q9 -6 4 -16q-18 -33 -72.5 -69t-136.5 -36
q-102 0 -170.5 69.5t-68.5 186.5q0 115 67.5 182.5t162.5 67.5q103 0 162 -67t56 -181q0 -12 -12 -12zM104 287h325q-3 74 -44 118.5t-111 44.5q-64 0 -112.5 -42.5t-57.5 -120.5z" />
    <glyph glyph-name="edieresis" unicode="&#xeb;" horiz-adv-x="534" 
d="M228 590q0 -15 -10.5 -25.5t-26.5 -10.5q-15 0 -25 10.5t-10 25.5t10 26t25 11q16 0 26.5 -11t10.5 -26zM378 590q0 -15 -11 -25.5t-26 -10.5t-25.5 10.5t-10.5 25.5t10.5 26t25.5 11t26 -11t11 -26zM478 239h-375q2 -92 56 -143.5t125 -51.5q60 0 106 27t62 56q8 9 17 4
l17 -17q9 -6 4 -16q-18 -33 -72.5 -69t-136.5 -36q-102 0 -170.5 69.5t-68.5 186.5q0 115 67.5 182.5t162.5 67.5q103 0 162 -67t56 -181q0 -12 -12 -12zM104 287h325q-3 74 -44 118.5t-111 44.5q-64 0 -112.5 -42.5t-57.5 -120.5z" />
    <glyph glyph-name="igrave" unicode="&#xec;" horiz-adv-x="284" 
d="M230 0h-177q-11 0 -11 12v26q0 11 11 11h59v394h-59q-11 0 -11 11v26q0 12 11 12h108q11 0 11 -12v-431h58q12 0 12 -11v-26q0 -12 -12 -12zM163 595l-16 -19q-9 -9 -18 -2l-157 127q-8 8 -1 17l20 24q8 10 18 2l152 -133q10 -6 2 -16z" />
    <glyph glyph-name="iacute" unicode="&#xed;" horiz-adv-x="284" 
d="M230 0h-177q-11 0 -11 12v26q0 11 11 11h59v394h-59q-11 0 -11 11v26q0 12 11 12h108q11 0 11 -12v-431h58q12 0 12 -11v-26q0 -12 -12 -12zM288 707l-157 -127q-11 -8 -18 2l-16 18q-8 10 2 17l152 133q8 8 18 -2l20 -24q6 -10 -1 -17z" />
    <glyph glyph-name="icircumflex" unicode="&#xee;" horiz-adv-x="284" 
d="M230 0h-177q-11 0 -11 12v26q0 11 11 11h59v394h-59q-11 0 -11 11v26q0 12 11 12h108q11 0 11 -12v-431h58q12 0 12 -11v-26q0 -12 -12 -12zM297 600l-16 -18q-7 -9 -17 -2l-127 105l-126 -105q-10 -7 -17 2l-16 18q-8 10 2 17l149 130q4 4 9 4q4 0 9 -5l148 -129
q10 -8 2 -17z" />
    <glyph glyph-name="idieresis" unicode="&#xef;" horiz-adv-x="284" 
d="M230 0h-177q-11 0 -11 12v26q0 11 11 11h59v394h-59q-11 0 -11 11v26q0 12 11 12h108q11 0 11 -12v-431h58q12 0 12 -11v-26q0 -12 -12 -12zM111 590q0 -15 -10.5 -25.5t-26.5 -10.5q-15 0 -25 10.5t-10 25.5t10 26t25 11q16 0 26.5 -11t10.5 -26zM261 590
q0 -15 -11 -25.5t-26 -10.5t-25.5 10.5t-10.5 25.5t10.5 26t25.5 11t26 -11t11 -26z" />
    <glyph glyph-name="eth" unicode="&#xf0;" horiz-adv-x="604" 
d="M397 628l-56 -56q-8 -8 -16 0l-15 14q-8 9 0 18l49 48q-34 14 -76 14q-75 0 -111.5 -38.5t-36.5 -84.5q0 -12 -12 -12h-39q-11 0 -11 12q0 80 59 130.5t151 50.5q69 0 121 -27l50 51q8 8 17 0l14 -14q8 -10 0 -18l-43 -43q120 -90 120 -323q0 -160 -68.5 -258.5
t-198.5 -98.5q-114 0 -183.5 65.5t-69.5 169.5q0 105 64 168t180 63q122 0 208 -59q-9 167 -97 228zM497 343q-81 65 -202 65q-85 0 -137.5 -48.5t-52.5 -128.5t51.5 -129.5t139.5 -49.5q96 0 148 76.5t53 214.5z" />
    <glyph glyph-name="ntilde" unicode="&#xf1;" horiz-adv-x="620" 
d="M567 0h-77q-22 0 -32 8.5t-10 31.5v277q0 61 -32 95.5t-90 34.5q-37 0 -67 -11.5t-49 -32.5t-25 -29t-12 -21l-1 -1v-303h58q12 0 12 -11v-26q0 -12 -12 -12h-177q-11 0 -11 12v26q0 11 11 11h59v394h-59q-11 0 -11 11v26q0 12 11 12h104q11 0 11 -12l-1 -68h2
q54 87 167 87q80 0 125.5 -46.5t46.5 -126.5v-277h59q12 0 12 -11v-26q0 -12 -12 -12zM432 675h15q12 0 12 -12q0 -102 -80 -102q-30 0 -53.5 15.5t-42.5 31t-37 15.5q-22 0 -31.5 -13t-9.5 -44q0 -12 -12 -12h-15q-11 0 -11 12q0 96 77 96q34 0 72.5 -31.5t60.5 -31.5
q25 0 34.5 13.5t9.5 50.5q0 12 11 12z" />
    <glyph glyph-name="ograve" unicode="&#xf2;" horiz-adv-x="573" 
d="M287 -7q-105 0 -175 70t-70 186q0 115 70.5 182.5t174.5 67.5q103 0 173.5 -68t70.5 -182q0 -115 -70 -185.5t-174 -70.5zM287 44q76 0 130 56t54 147t-55 146t-129 55q-75 0 -130 -55t-55 -146t54.5 -147t130.5 -56zM338 601l-16 -19q-9 -9 -18 -2l-157 127q-8 8 -1 17
l20 24q8 10 18 2l152 -133q10 -6 2 -16z" />
    <glyph glyph-name="oacute" unicode="&#xf3;" horiz-adv-x="573" 
d="M413 707l-157 -127q-11 -8 -18 2l-16 18q-8 10 2 17l152 133q8 8 18 -2l20 -24q6 -10 -1 -17zM287 -7q-105 0 -175 70t-70 186q0 115 70.5 182.5t174.5 67.5q103 0 173.5 -68t70.5 -182q0 -115 -70 -185.5t-174 -70.5zM287 44q76 0 130 56t54 147t-55 146t-129 55
q-75 0 -130 -55t-55 -146t54.5 -147t130.5 -56z" />
    <glyph glyph-name="ocircumflex" unicode="&#xf4;" horiz-adv-x="573" 
d="M449 600l-16 -18q-7 -9 -17 -2l-127 105l-126 -105q-10 -7 -17 2l-16 18q-8 10 2 17l149 130q4 4 9 4q4 0 9 -5l148 -129q10 -8 2 -17zM287 -7q-105 0 -175 70t-70 186q0 115 70.5 182.5t174.5 67.5q103 0 173.5 -68t70.5 -182q0 -115 -70 -185.5t-174 -70.5zM287 44
q76 0 130 56t54 147t-55 146t-129 55q-75 0 -130 -55t-55 -146t54.5 -147t130.5 -56z" />
    <glyph glyph-name="otilde" unicode="&#xf5;" horiz-adv-x="573" 
d="M287 -7q-105 0 -175 70t-70 186q0 115 70.5 182.5t174.5 67.5q103 0 173.5 -68t70.5 -182q0 -115 -70 -185.5t-174 -70.5zM287 44q76 0 130 56t54 147t-55 146t-129 55q-75 0 -130 -55t-55 -146t54.5 -147t130.5 -56zM409 675h15q12 0 12 -12q0 -102 -80 -102
q-30 0 -53.5 15.5t-42.5 31t-37 15.5q-22 0 -31.5 -13t-9.5 -44q0 -12 -12 -12h-15q-11 0 -11 12q0 96 77 96q34 0 72.5 -31.5t60.5 -31.5q25 0 34.5 13.5t9.5 50.5q0 12 11 12z" />
    <glyph glyph-name="odieresis" unicode="&#xf6;" horiz-adv-x="573" 
d="M249 590q0 -15 -10.5 -25.5t-26.5 -10.5q-15 0 -25 10.5t-10 25.5t10 26t25 11q16 0 26.5 -11t10.5 -26zM399 590q0 -15 -11 -25.5t-26 -10.5t-25.5 10.5t-10.5 25.5t10.5 26t25.5 11t26 -11t11 -26zM287 -7q-105 0 -175 70t-70 186q0 115 70.5 182.5t174.5 67.5
q103 0 173.5 -68t70.5 -182q0 -115 -70 -185.5t-174 -70.5zM287 44q76 0 130 56t54 147t-55 146t-129 55q-75 0 -130 -55t-55 -146t54.5 -147t130.5 -56z" />
    <glyph glyph-name="divide" unicode="&#xf7;" horiz-adv-x="412" 
d="M358 231h-304q-12 0 -12 12v31q0 13 12 13h304q12 0 12 -13v-31q0 -12 -12 -12zM243 144q0 -15 -11 -26t-27 -11t-26.5 11t-10.5 26q0 16 10.5 27t26.5 11t27 -11t11 -27zM243 380q0 -16 -11 -27t-27 -11t-26.5 11t-10.5 27t10.5 26.5t26.5 10.5t27 -10.5t11 -26.5z" />
    <glyph glyph-name="oslash" unicode="&#xf8;" horiz-adv-x="573" 
d="M173 -29h-33q-14 0 -9 11l23 47q-52 32 -82 88.5t-30 131.5q0 115 70.5 182.5t174.5 67.5q52 0 96 -19l9 18q4 12 16 12h33q11 0 8 -12l-21 -40q103 -71 103 -209q0 -115 -70 -185.5t-174 -70.5q-45 0 -87 14l-13 -25q-6 -11 -14 -11zM180 80l179 351q-36 17 -72 17
q-75 0 -130 -55t-55 -146q0 -108 78 -167zM225 56q29 -12 62 -12q76 0 130 56t54 147q0 99 -70 157z" />
    <glyph glyph-name="ugrave" unicode="&#xf9;" horiz-adv-x="604" 
d="M550 0h-72q-23 0 -33 8.5t-10 31.5v40h-2q-45 -87 -164 -87q-81 0 -127 46.5t-46 126.5v277h-59q-12 0 -12 11v26q0 12 12 12h76q23 0 33 -8.5t10 -31.5v-277q0 -61 32 -95.5t90 -34.5q32 0 59.5 10t44 23.5t28.5 28t16.5 23.5t4.5 10v303h-57q-12 0 -12 11v26
q0 12 12 12h106q11 0 11 -12v-431h59q12 0 12 -11v-26q0 -12 -12 -12zM349 601l-16 -19q-9 -9 -18 -2l-157 127q-8 8 -1 17l20 24q8 10 18 2l152 -133q10 -6 2 -16z" />
    <glyph glyph-name="uacute" unicode="&#xfa;" horiz-adv-x="604" 
d="M381 707l-157 -127q-11 -8 -18 2l-16 18q-8 10 2 17l152 133q8 8 18 -2l20 -24q6 -10 -1 -17zM550 0h-72q-23 0 -33 8.5t-10 31.5v40h-2q-45 -87 -164 -87q-81 0 -127 46.5t-46 126.5v277h-59q-12 0 -12 11v26q0 12 12 12h76q23 0 33 -8.5t10 -31.5v-277q0 -61 32 -95.5
t90 -34.5q32 0 59.5 10t44 23.5t28.5 28t16.5 23.5t4.5 10v303h-57q-12 0 -12 11v26q0 12 12 12h106q11 0 11 -12v-431h59q12 0 12 -11v-26q0 -12 -12 -12z" />
    <glyph glyph-name="ucircumflex" unicode="&#xfb;" horiz-adv-x="604" 
d="M444 600l-16 -18q-7 -9 -17 -2l-127 105l-126 -105q-10 -7 -17 2l-16 18q-8 10 2 17l149 130q4 4 9 4q4 0 9 -5l148 -129q10 -8 2 -17zM550 0h-72q-23 0 -33 8.5t-10 31.5v40h-2q-45 -87 -164 -87q-81 0 -127 46.5t-46 126.5v277h-59q-12 0 -12 11v26q0 12 12 12h76
q23 0 33 -8.5t10 -31.5v-277q0 -61 32 -95.5t90 -34.5q32 0 59.5 10t44 23.5t28.5 28t16.5 23.5t4.5 10v303h-57q-12 0 -12 11v26q0 12 12 12h106q11 0 11 -12v-431h59q12 0 12 -11v-26q0 -12 -12 -12z" />
    <glyph glyph-name="udieresis" unicode="&#xfc;" horiz-adv-x="604" 
d="M246 590q0 -15 -10.5 -25.5t-26.5 -10.5q-15 0 -25 10.5t-10 25.5t10 26t25 11q16 0 26.5 -11t10.5 -26zM396 590q0 -15 -11 -25.5t-26 -10.5t-25.5 10.5t-10.5 25.5t10.5 26t25.5 11t26 -11t11 -26zM550 0h-72q-23 0 -33 8.5t-10 31.5v40h-2q-45 -87 -164 -87
q-81 0 -127 46.5t-46 126.5v277h-59q-12 0 -12 11v26q0 12 12 12h76q23 0 33 -8.5t10 -31.5v-277q0 -61 32 -95.5t90 -34.5q32 0 59.5 10t44 23.5t28.5 28t16.5 23.5t4.5 10v303h-57q-12 0 -12 11v26q0 12 12 12h106q11 0 11 -12v-431h59q12 0 12 -11v-26q0 -12 -12 -12z
" />
    <glyph glyph-name="yacute" unicode="&#xfd;" horiz-adv-x="573" 
d="M241 -71l31 84h-7q-11 0 -20 22l-164 408h-57q-12 0 -12 11v26q0 12 12 12h165q12 0 12 -12v-26q0 -11 -12 -11h-46l147 -371h2l133 371h-48q-12 0 -12 11v26q0 12 12 12h167q12 0 12 -12v-26q0 -11 -12 -11h-56l-192 -515q-31 -84 -65.5 -123t-96.5 -39q-53 0 -85 32
q-9 9 -2 17l15 18q8 8 16 2q18 -18 51 -18q41 0 64.5 24t47.5 88zM400 707l-157 -127q-11 -8 -18 2l-16 18q-8 10 2 17l152 133q8 8 18 -2l20 -24q6 -10 -1 -17z" />
    <glyph glyph-name="thorn" unicode="&#xfe;" horiz-adv-x="611" 
d="M235 -225h-182q-11 0 -11 11v26q0 12 11 12h60v844h-59q-11 0 -11 11v27q0 11 11 11h107q12 0 12 -11v-313q51 106 171 106q100 0 162.5 -69t62.5 -182t-62 -184t-163 -71q-62 0 -106.5 31.5t-66.5 81.5h-2q2 -21 2 -35v-247h64q12 0 12 -12v-26q0 -11 -12 -11zM339 43
q73 0 121.5 56.5t48.5 146.5q0 92 -48.5 147t-121.5 55q-72 0 -121 -54.5t-49 -147.5q0 -91 48.5 -147t121.5 -56z" />
    <glyph glyph-name="ydieresis" unicode="&#xff;" horiz-adv-x="573" 
d="M241 -71l31 84h-7q-11 0 -20 22l-164 408h-57q-12 0 -12 11v26q0 12 12 12h165q12 0 12 -12v-26q0 -11 -12 -11h-46l147 -371h2l133 371h-48q-12 0 -12 11v26q0 12 12 12h167q12 0 12 -12v-26q0 -11 -12 -11h-56l-192 -515q-31 -84 -65.5 -123t-96.5 -39q-53 0 -85 32
q-9 9 -2 17l15 18q8 8 16 2q18 -18 51 -18q41 0 64.5 24t47.5 88zM257 590q0 -15 -10.5 -25.5t-26.5 -10.5q-15 0 -25 10.5t-10 25.5t10 26t25 11q16 0 26.5 -11t10.5 -26zM407 590q0 -15 -11 -25.5t-26 -10.5t-25.5 10.5t-10.5 25.5t10.5 26t25.5 11t26 -11t11 -26z" />
    <glyph glyph-name="Amacron" unicode="&#x100;" horiz-adv-x="849" 
d="M767 0h-205q-11 0 -11 12v31q0 12 11 12h72l-76 202h-300l-76 -202h72q11 0 11 -12v-31q0 -12 -11 -12h-204q-12 0 -12 12v31q0 12 12 12h68l229 608h-49q-11 0 -11 12v31q0 12 11 12h110q22 0 33 -8.5t19 -28.5l238 -626h69q11 0 11 -12v-31q0 -12 -11 -12zM538 309
l-128 341h-4l-128 -341h260zM551 782h-286q-12 0 -12 12v27q0 12 12 12h286q12 0 12 -12v-27q0 -12 -12 -12z" />
    <glyph glyph-name="amacron" unicode="&#x101;" horiz-adv-x="578" 
d="M525 0h-73q-22 0 -32 8.5t-10 31.5v57h-1q-78 -105 -205 -105q-69 0 -115.5 37t-46.5 100q0 154 273 154h91v20q0 79 -38 111.5t-108 32.5q-31 0 -58.5 -5t-45 -12.5t-30 -14.5t-18.5 -12l-6 -5q-10 -6 -15 2l-17 22q-7 8 1 16q71 61 189 61q101 0 153.5 -47t52.5 -151
v-252h59q12 0 12 -11v-26q0 -12 -12 -12zM406 144v88h-88q-49 0 -83.5 -3.5t-66.5 -13t-48.5 -30.5t-16.5 -52q0 -37 31.5 -63t82.5 -26q107 0 189 100zM413 556h-286q-12 0 -12 12v27q0 12 12 12h286q12 0 12 -12v-27q0 -12 -12 -12z" />
    <glyph glyph-name="Abreve" unicode="&#x102;" horiz-adv-x="849" 
d="M767 0h-205q-11 0 -11 12v31q0 12 11 12h72l-76 202h-300l-76 -202h72q11 0 11 -12v-31q0 -12 -11 -12h-204q-12 0 -12 12v31q0 12 12 12h68l229 608h-49q-11 0 -11 12v31q0 12 11 12h110q22 0 33 -8.5t19 -28.5l238 -626h69q11 0 11 -12v-31q0 -12 -11 -12zM538 309
l-128 341h-4l-128 -341h260zM509 945h21q12 0 12 -12q0 -67 -37 -102t-97 -35t-97 35t-37 102q0 12 12 12h21q12 0 12 -12q0 -46 25 -71.5t63 -25.5t64 25.5t26 71.5q0 12 12 12z" />
    <glyph glyph-name="abreve" unicode="&#x103;" horiz-adv-x="578" 
d="M525 0h-73q-22 0 -32 8.5t-10 31.5v57h-1q-78 -105 -205 -105q-69 0 -115.5 37t-46.5 100q0 154 273 154h91v20q0 79 -38 111.5t-108 32.5q-31 0 -58.5 -5t-45 -12.5t-30 -14.5t-18.5 -12l-6 -5q-10 -6 -15 2l-17 22q-7 8 1 16q71 61 189 61q101 0 153.5 -47t52.5 -151
v-252h59q12 0 12 -11v-26q0 -12 -12 -12zM406 144v88h-88q-49 0 -83.5 -3.5t-66.5 -13t-48.5 -30.5t-16.5 -52q0 -37 31.5 -63t82.5 -26q107 0 189 100zM384 719h21q12 0 12 -12q0 -67 -37 -102t-97 -35t-97 35t-37 102q0 12 12 12h21q12 0 12 -12q0 -46 25 -71.5t63 -25.5
t64 25.5t26 71.5q0 12 12 12z" />
    <glyph glyph-name="Aogonek" unicode="&#x104;" horiz-adv-x="854" 
d="M772 -110l7 -10q6 -9 -3 -16q-34 -19 -63 -19q-34 0 -54.5 19.5t-20.5 50.5q0 33 22 55t46 30h-144q-11 0 -11 12v31q0 12 11 12h72l-76 202h-300l-76 -202h72q11 0 11 -12v-31q0 -12 -11 -12h-204q-12 0 -12 12v31q0 12 12 12h68l229 608h-49q-11 0 -11 12v31
q0 12 11 12h110q22 0 33 -8.5t19 -28.5l238 -626h69q11 0 11 -12v-31q0 -12 -11 -12h-16q-74 -35 -74 -83q0 -17 11.5 -26.5t29.5 -9.5q17 0 37 9q13 7 17 0zM538 309l-128 341h-4l-128 -341h260z" />
    <glyph glyph-name="aogonek" unicode="&#x105;" horiz-adv-x="578" 
d="M533 -110l7 -10q6 -9 -3 -16q-34 -19 -63 -19q-34 0 -54.5 19.5t-20.5 50.5q0 33 22 55t46 30h-15q-22 0 -32 8.5t-10 31.5v57h-1q-78 -105 -205 -105q-69 0 -115.5 37t-46.5 100q0 154 273 154h91v20q0 79 -38 111.5t-108 32.5q-31 0 -58.5 -5t-45 -12.5t-30 -14.5
t-18.5 -12l-6 -5q-10 -6 -15 2l-17 22q-7 8 1 16q71 61 189 61q101 0 153.5 -47t52.5 -151v-252h59q12 0 12 -11v-26q0 -12 -12 -12h-13q-74 -35 -74 -83q0 -17 11.5 -26.5t29.5 -9.5q17 0 37 9q13 7 17 0zM406 144v88h-88q-49 0 -83.5 -3.5t-66.5 -13t-48.5 -30.5
t-16.5 -52q0 -37 31.5 -63t82.5 -26q107 0 189 100z" />
    <glyph glyph-name="Cacute" unicode="&#x106;" 
d="M482 933l-157 -127q-11 -8 -18 2l-16 18q-8 10 2 17l152 133q8 8 18 -2l20 -24q6 -10 -1 -17zM664 190l27 -18q8 -6 2 -19q-7 -14 -19 -30.5t-38 -41t-58 -43t-81.5 -32t-106.5 -13.5q-144 0 -240 102.5t-96 267.5q0 163 97.5 262t235.5 99q162 0 236 -116l-1 98
q0 12 12 12h37q12 0 12 -12v-208q0 -12 -12 -12h-40q-12 0 -12 12v9q0 50 -68 104t-162 54q-48 0 -94.5 -18.5t-86 -54.5t-64 -96.5t-24.5 -135.5t23.5 -135.5t62.5 -97t86.5 -55.5t98.5 -19q103 0 164.5 40.5t90.5 89.5q9 14 18 7z" />
    <glyph glyph-name="cacute" unicode="&#x107;" horiz-adv-x="536" 
d="M431 707l-157 -127q-11 -8 -18 2l-16 18q-8 10 2 17l152 133q8 8 18 -2l20 -24q6 -10 -1 -17zM469 131l18 -17q8 -7 4 -16q-18 -32 -73 -68.5t-137 -36.5q-102 0 -170.5 69.5t-68.5 186.5q0 115 69.5 182.5t165.5 67.5q111 0 165 -78h1v60q-1 12 11 12h24q12 0 12 -12
v-163q0 -12 -12 -12h-27q-12 0 -12 12v18q0 38 -45 75t-112 37q-68 0 -124 -54.5t-56 -146.5q0 -93 55 -148t127 -55q61 0 106.5 27.5t61.5 56.5q7 9 17 3z" />
    <glyph glyph-name="Ccircumflex" unicode="&#x108;" 
d="M539 826l-16 -18q-7 -9 -17 -2l-127 105l-126 -105q-10 -7 -17 2l-16 18q-8 10 2 17l149 130q4 4 9 4q4 0 9 -5l148 -129q10 -8 2 -17zM664 190l27 -18q8 -6 2 -19q-7 -14 -19 -30.5t-38 -41t-58 -43t-81.5 -32t-106.5 -13.5q-144 0 -240 102.5t-96 267.5q0 163 97.5 262
t235.5 99q162 0 236 -116l-1 98q0 12 12 12h37q12 0 12 -12v-208q0 -12 -12 -12h-40q-12 0 -12 12v9q0 50 -68 104t-162 54q-48 0 -94.5 -18.5t-86 -54.5t-64 -96.5t-24.5 -135.5t23.5 -135.5t62.5 -97t86.5 -55.5t98.5 -19q103 0 164.5 40.5t90.5 89.5q9 14 18 7z" />
    <glyph glyph-name="ccircumflex" unicode="&#x109;" horiz-adv-x="536" 
d="M442 600l-16 -18q-7 -9 -17 -2l-127 105l-126 -105q-10 -7 -17 2l-16 18q-8 10 2 17l149 130q4 4 9 4q4 0 9 -5l148 -129q10 -8 2 -17zM469 131l18 -17q8 -7 4 -16q-18 -32 -73 -68.5t-137 -36.5q-102 0 -170.5 69.5t-68.5 186.5q0 115 69.5 182.5t165.5 67.5
q111 0 165 -78h1v60q-1 12 11 12h24q12 0 12 -12v-163q0 -12 -12 -12h-27q-12 0 -12 12v18q0 38 -45 75t-112 37q-68 0 -124 -54.5t-56 -146.5q0 -93 55 -148t127 -55q61 0 106.5 27.5t61.5 56.5q7 9 17 3z" />
    <glyph glyph-name="Cdotaccent" unicode="&#x10a;" 
d="M664 190l27 -18q8 -6 2 -19q-7 -14 -19 -30.5t-38 -41t-58 -43t-81.5 -32t-106.5 -13.5q-144 0 -240 102.5t-96 267.5q0 163 97.5 262t235.5 99q162 0 236 -116l-1 98q0 12 12 12h37q12 0 12 -12v-208q0 -12 -12 -12h-40q-12 0 -12 12v9q0 50 -68 104t-162 54
q-48 0 -94.5 -18.5t-86 -54.5t-64 -96.5t-24.5 -135.5t23.5 -135.5t62.5 -97t86.5 -55.5t98.5 -19q103 0 164.5 40.5t90.5 89.5q9 14 18 7zM450 842q0 -20 -14.5 -34t-34.5 -14t-34 14t-14 34t14 34.5t34 14.5t34.5 -14.5t14.5 -34.5z" />
    <glyph glyph-name="cdotaccent" unicode="&#x10b;" horiz-adv-x="536" 
d="M469 131l18 -17q8 -7 4 -16q-18 -32 -73 -68.5t-137 -36.5q-102 0 -170.5 69.5t-68.5 186.5q0 115 69.5 182.5t165.5 67.5q111 0 165 -78h1v60q-1 12 11 12h24q12 0 12 -12v-163q0 -12 -12 -12h-27q-12 0 -12 12v18q0 38 -45 75t-112 37q-68 0 -124 -54.5t-56 -146.5
q0 -93 55 -148t127 -55q61 0 106.5 27.5t61.5 56.5q7 9 17 3zM331 616q0 -20 -14.5 -34t-34.5 -14t-34 14t-14 34t14 34.5t34 14.5t34.5 -14.5t14.5 -34.5z" />
    <glyph glyph-name="Ccaron" unicode="&#x10c;" 
d="M537 937l-148 -129q-4 -4 -9 -4t-9 4l-149 129q-10 7 -2 17l16 18q7 9 17 2l126 -106l127 106q9 8 17 -2l16 -18q8 -9 -2 -17zM664 190l27 -18q8 -6 2 -19q-7 -14 -19 -30.5t-38 -41t-58 -43t-81.5 -32t-106.5 -13.5q-144 0 -240 102.5t-96 267.5q0 163 97.5 262
t235.5 99q162 0 236 -116l-1 98q0 12 12 12h37q12 0 12 -12v-208q0 -12 -12 -12h-40q-12 0 -12 12v9q0 50 -68 104t-162 54q-48 0 -94.5 -18.5t-86 -54.5t-64 -96.5t-24.5 -135.5t23.5 -135.5t62.5 -97t86.5 -55.5t98.5 -19q103 0 164.5 40.5t90.5 89.5q9 14 18 7z" />
    <glyph glyph-name="ccaron" unicode="&#x10d;" horiz-adv-x="536" 
d="M446 711l-148 -129q-4 -4 -9 -4t-9 4l-149 129q-10 7 -2 17l16 18q7 9 17 2l126 -106l127 106q9 8 17 -2l16 -18q8 -9 -2 -17zM469 131l18 -17q8 -7 4 -16q-18 -32 -73 -68.5t-137 -36.5q-102 0 -170.5 69.5t-68.5 186.5q0 115 69.5 182.5t165.5 67.5q111 0 165 -78h1v60
q-1 12 11 12h24q12 0 12 -12v-163q0 -12 -12 -12h-27q-12 0 -12 12v18q0 38 -45 75t-112 37q-68 0 -124 -54.5t-56 -146.5q0 -93 55 -148t127 -55q61 0 106.5 27.5t61.5 56.5q7 9 17 3z" />
    <glyph glyph-name="Dcaron" unicode="&#x10e;" horiz-adv-x="746" 
d="M520 937l-148 -129q-4 -4 -9 -4t-9 4l-149 129q-10 7 -2 17l16 18q7 9 17 2l126 -106l127 106q9 8 17 -2l16 -18q8 -9 -2 -17zM333 0h-274q-11 0 -11 12v31q0 12 11 12h80v608h-80q-11 0 -11 12v31q0 12 11 12h266q170 0 265 -94.5t95 -261.5q0 -170 -92.5 -266
t-259.5 -96zM202 55h119q146 0 222.5 78.5t76.5 226.5q0 141 -75.5 222t-223.5 81h-119v-608z" />
    <glyph glyph-name="dcaron" unicode="&#x10f;" horiz-adv-x="624" 
d="M540 584v12q0 6 7 6q15 0 28 14t13 43l-2 10q-6 -5 -20 -5t-24.5 11t-10.5 28t11.5 28.5t28.5 11.5q48 0 48 -64q0 -53 -21 -77t-51 -24q-7 0 -7 6zM557 0h-73q-22 0 -32 8.5t-10 31.5v69h-1q-19 -50 -65 -83t-109 -33q-100 0 -162.5 71t-62.5 185q0 111 62 180.5
t163 69.5q63 0 107.5 -30.5t65.5 -78.5h1q-1 19 -1 28v251h-60q-11 0 -11 11v26q0 12 11 12h106q12 0 12 -12v-657h59q12 0 12 -11v-26q0 -12 -12 -12zM272 44q73 0 121.5 56t48.5 147q0 93 -49 147t-121 54t-121.5 -54.5t-49.5 -146.5q0 -90 48.5 -146.5t122.5 -56.5z" />
    <glyph glyph-name="Dcroat" unicode="&#x110;" horiz-adv-x="746" 
d="M340 0h-274q-12 0 -12 12v31q0 12 12 12h80v279h-70q-12 0 -12 13v27q0 12 12 12h70v277h-80q-12 0 -12 12v31q0 12 12 12h266q170 0 265 -94.5t95 -261.5q0 -170 -92.5 -266t-259.5 -96zM209 55h119q146 0 222.5 78.5t76.5 226.5q0 141 -76 222t-223 81h-119v-277h169
q12 0 12 -12v-27q0 -13 -12 -13h-169v-279z" />
    <glyph glyph-name="dcroat" unicode="&#x111;" horiz-adv-x="590" 
d="M557 0h-73q-22 0 -32 8.5t-10 31.5v69h-1q-19 -50 -65 -83t-109 -33q-100 0 -162.5 71t-62.5 185q0 111 62 180.5t163 69.5q63 0 107.5 -30.5t65.5 -78.5h1q-1 19 -1 28v149h-148q-11 0 -11 11v13q0 11 11 11h148v67h-60q-11 0 -11 11v26q0 12 11 12h106q12 0 12 -12
v-104h60q11 0 11 -11v-13q0 -11 -11 -11h-60v-518h59q12 0 12 -11v-26q0 -12 -12 -12zM272 44q73 0 121.5 56t48.5 147q0 93 -49 147t-121 54t-121.5 -54.5t-49.5 -146.5q0 -90 48.5 -146.5t122.5 -56.5z" />
    <glyph glyph-name="Emacron" unicode="&#x112;" horiz-adv-x="653" 
d="M587 0h-521q-12 0 -12 12v31q0 12 12 12h80v608h-80q-12 0 -12 12v31q0 12 12 12h521q12 0 12 -12v-142q0 -11 -12 -11h-36q-12 0 -12 11v99h-330v-278h279q12 0 12 -12v-31q0 -12 -12 -12h-279v-275h330v98q0 12 12 12h36q12 0 12 -12v-141q0 -12 -12 -12zM451 782h-286
q-12 0 -12 12v27q0 12 12 12h286q12 0 12 -12v-27q0 -12 -12 -12z" />
    <glyph glyph-name="emacron" unicode="&#x113;" horiz-adv-x="534" 
d="M478 239h-375q2 -92 56 -143.5t125 -51.5q60 0 106 27t62 56q8 9 17 4l17 -17q9 -6 4 -16q-18 -33 -72.5 -69t-136.5 -36q-102 0 -170.5 69.5t-68.5 186.5q0 115 67.5 182.5t162.5 67.5q103 0 162 -67t56 -181q0 -12 -12 -12zM104 287h325q-3 74 -44 118.5t-111 44.5
q-64 0 -112.5 -42.5t-57.5 -120.5zM409 556h-286q-12 0 -12 12v27q0 12 12 12h286q12 0 12 -12v-27q0 -12 -12 -12z" />
    <glyph glyph-name="Ebreve" unicode="&#x114;" horiz-adv-x="653" 
d="M587 0h-521q-12 0 -12 12v31q0 12 12 12h80v608h-80q-12 0 -12 12v31q0 12 12 12h521q12 0 12 -12v-142q0 -11 -12 -11h-36q-12 0 -12 11v99h-330v-278h279q12 0 12 -12v-31q0 -12 -12 -12h-279v-275h330v98q0 12 12 12h36q12 0 12 -12v-141q0 -12 -12 -12zM409 945h21
q12 0 12 -12q0 -67 -37 -102t-97 -35t-97 35t-37 102q0 12 12 12h21q12 0 12 -12q0 -46 25 -71.5t63 -25.5t64 25.5t26 71.5q0 12 12 12z" />
    <glyph glyph-name="ebreve" unicode="&#x115;" horiz-adv-x="534" 
d="M478 239h-375q2 -92 56 -143.5t125 -51.5q60 0 106 27t62 56q8 9 17 4l17 -17q9 -6 4 -16q-18 -33 -72.5 -69t-136.5 -36q-102 0 -170.5 69.5t-68.5 186.5q0 115 67.5 182.5t162.5 67.5q103 0 162 -67t56 -181q0 -12 -12 -12zM104 287h325q-3 74 -44 118.5t-111 44.5
q-64 0 -112.5 -42.5t-57.5 -120.5zM383 719h21q12 0 12 -12q0 -67 -37 -102t-97 -35t-97 35t-37 102q0 12 12 12h21q12 0 12 -12q0 -46 25 -71.5t63 -25.5t64 25.5t26 71.5q0 12 12 12z" />
    <glyph glyph-name="Edotaccent" unicode="&#x116;" horiz-adv-x="653" 
d="M587 0h-521q-12 0 -12 12v31q0 12 12 12h80v608h-80q-12 0 -12 12v31q0 12 12 12h521q12 0 12 -12v-142q0 -11 -12 -11h-36q-12 0 -12 11v99h-330v-278h279q12 0 12 -12v-31q0 -12 -12 -12h-279v-275h330v98q0 12 12 12h36q12 0 12 -12v-141q0 -12 -12 -12zM361 842
q0 -20 -14.5 -34t-34.5 -14t-34 14t-14 34t14 34.5t34 14.5t34.5 -14.5t14.5 -34.5z" />
    <glyph glyph-name="edotaccent" unicode="&#x117;" horiz-adv-x="534" 
d="M478 239h-375q2 -92 56 -143.5t125 -51.5q60 0 106 27t62 56q8 9 17 4l17 -17q9 -6 4 -16q-18 -33 -72.5 -69t-136.5 -36q-102 0 -170.5 69.5t-68.5 186.5q0 115 67.5 182.5t162.5 67.5q103 0 162 -67t56 -181q0 -12 -12 -12zM104 287h325q-3 74 -44 118.5t-111 44.5
q-64 0 -112.5 -42.5t-57.5 -120.5zM318 616q0 -20 -14.5 -34t-34.5 -14t-34 14t-14 34t14 34.5t34 14.5t34.5 -14.5t14.5 -34.5z" />
    <glyph glyph-name="Eogonek" unicode="&#x118;" horiz-adv-x="656" 
d="M587 0h-35q-74 -35 -74 -83q0 -17 11.5 -26.5t29.5 -9.5q17 0 37 9q13 7 17 0l7 -10q6 -9 -3 -16q-34 -19 -63 -19q-34 0 -54.5 19.5t-20.5 50.5q0 33 22 55t46 30h-441q-12 0 -12 12v31q0 12 12 12h80v608h-80q-12 0 -12 12v31q0 12 12 12h521q12 0 12 -12v-142
q0 -11 -12 -11h-36q-12 0 -12 11v99h-330v-278h279q12 0 12 -12v-31q0 -12 -12 -12h-279v-275h330v98q0 12 12 12h36q12 0 12 -12v-141q0 -12 -12 -12z" />
    <glyph glyph-name="eogonek" unicode="&#x119;" horiz-adv-x="534" 
d="M478 239h-375q2 -92 56 -143.5t125 -51.5q60 0 106 27t62 56q8 9 17 4l17 -17q9 -6 4 -16q-14 -24 -50.5 -53.5t-91.5 -43.5q-76 -36 -76 -84q0 -17 11.5 -26.5t29.5 -9.5q17 0 37 9q13 7 17 0l7 -10q6 -9 -3 -16q-34 -19 -63 -19q-34 0 -54.5 19.5t-20.5 50.5
q0 50 53 78h-5q-102 0 -170.5 69.5t-68.5 186.5q0 115 67.5 182.5t162.5 67.5q103 0 162 -67t56 -181q0 -12 -12 -12zM104 287h325q-3 74 -44 118.5t-111 44.5q-64 0 -112.5 -42.5t-57.5 -120.5z" />
    <glyph glyph-name="Ecaron" unicode="&#x11a;" horiz-adv-x="653" 
d="M468 937l-148 -129q-4 -4 -9 -4t-9 4l-149 129q-10 7 -2 17l16 18q7 9 17 2l126 -106l127 106q9 8 17 -2l16 -18q8 -9 -2 -17zM587 0h-521q-12 0 -12 12v31q0 12 12 12h80v608h-80q-12 0 -12 12v31q0 12 12 12h521q12 0 12 -12v-142q0 -11 -12 -11h-36q-12 0 -12 11v99
h-330v-278h279q12 0 12 -12v-31q0 -12 -12 -12h-279v-275h330v98q0 12 12 12h36q12 0 12 -12v-141q0 -12 -12 -12z" />
    <glyph glyph-name="ecaron" unicode="&#x11b;" horiz-adv-x="534" 
d="M425 711l-148 -129q-4 -4 -9 -4t-9 4l-149 129q-10 7 -2 17l16 18q7 9 17 2l126 -106l127 106q9 8 17 -2l16 -18q8 -9 -2 -17zM478 239h-375q2 -92 56 -143.5t125 -51.5q60 0 106 27t62 56q8 9 17 4l17 -17q9 -6 4 -16q-18 -33 -72.5 -69t-136.5 -36q-102 0 -170.5 69.5
t-68.5 186.5q0 115 67.5 182.5t162.5 67.5q103 0 162 -67t56 -181q0 -12 -12 -12zM104 287h325q-3 74 -44 118.5t-111 44.5q-64 0 -112.5 -42.5t-57.5 -120.5z" />
    <glyph glyph-name="Gcircumflex" unicode="&#x11c;" 
d="M550 826l-16 -18q-7 -9 -17 -2l-127 105l-126 -105q-10 -7 -17 2l-16 18q-8 10 2 17l149 130q4 4 9 4q4 0 9 -5l148 -129q10 -8 2 -17zM685 0h-35q-12 0 -12 12v75q-87 -94 -244 -94q-147 0 -243.5 102.5t-96.5 267.5t100.5 263t238.5 98q163 0 230 -100l-1 82
q0 12 12 12h37q12 0 12 -12v-192q0 -12 -12 -12h-40q-12 0 -12 12v11q0 48 -65.5 94t-158.5 46q-108 0 -191.5 -85t-83.5 -220q0 -74 24 -133.5t63.5 -96.5t88 -57t99.5 -20q92 0 151.5 32t88.5 77v98h-191q-12 0 -12 12v29q0 12 12 12h241q12 0 12 -12v-289q0 -12 -12 -12z
" />
    <glyph glyph-name="gcircumflex" unicode="&#x11d;" horiz-adv-x="610" 
d="M457 600l-16 -18q-7 -9 -17 -2l-127 105l-126 -105q-10 -7 -17 2l-16 18q-8 10 2 17l149 130q4 4 9 4q4 0 9 -5l148 -129q10 -8 2 -17zM270 -233q-126 0 -188 62q-9 9 -3 18l16 22q7 8 17 1q7 -7 19 -16t52 -22t87 -13q76 0 123 38t47 120v130q-22 -50 -66.5 -82
t-107.5 -32q-101 0 -162.5 71t-61.5 184t62.5 182t162.5 69q62 0 106.5 -30.5t67.5 -78.5h2l-2 90q0 12 12 12h103q12 0 12 -12v-26q0 -11 -12 -11h-58v-466q0 -105 -62 -157.5t-166 -52.5zM272 43q73 0 121.5 56t48.5 147q0 93 -49 147.5t-121 54.5q-73 0 -122 -55
t-49 -147q0 -90 48.5 -146.5t122.5 -56.5z" />
    <glyph glyph-name="Gbreve" unicode="&#x11e;" 
d="M685 0h-35q-12 0 -12 12v75q-87 -94 -244 -94q-147 0 -243.5 102.5t-96.5 267.5t100.5 263t238.5 98q163 0 230 -100l-1 82q0 12 12 12h37q12 0 12 -12v-192q0 -12 -12 -12h-40q-12 0 -12 12v11q0 48 -65.5 94t-158.5 46q-108 0 -191.5 -85t-83.5 -220q0 -74 24 -133.5
t63.5 -96.5t88 -57t99.5 -20q92 0 151.5 32t88.5 77v98h-191q-12 0 -12 12v29q0 12 12 12h241q12 0 12 -12v-289q0 -12 -12 -12zM495 945h21q12 0 12 -12q0 -67 -37 -102t-97 -35t-97 35t-37 102q0 12 12 12h21q12 0 12 -12q0 -46 25 -71.5t63 -25.5t64 25.5t26 71.5
q0 12 12 12z" />
    <glyph glyph-name="gbreve" unicode="&#x11f;" horiz-adv-x="610" 
d="M270 -233q-126 0 -188 62q-9 9 -3 18l16 22q7 8 17 1q7 -7 19 -16t52 -22t87 -13q76 0 123 38t47 120v130q-22 -50 -66.5 -82t-107.5 -32q-101 0 -162.5 71t-61.5 184t62.5 182t162.5 69q62 0 106.5 -30.5t67.5 -78.5h2l-2 90q0 12 12 12h103q12 0 12 -12v-26
q0 -11 -12 -11h-58v-466q0 -105 -62 -157.5t-166 -52.5zM272 43q73 0 121.5 56t48.5 147q0 93 -49 147.5t-121 54.5q-73 0 -122 -55t-49 -147q0 -90 48.5 -146.5t122.5 -56.5zM400 719h21q12 0 12 -12q0 -67 -37 -102t-97 -35t-97 35t-37 102q0 12 12 12h21q12 0 12 -12
q0 -46 25 -71.5t63 -25.5t64 25.5t26 71.5q0 12 12 12z" />
    <glyph glyph-name="Gdotaccent" unicode="&#x120;" 
d="M685 0h-35q-12 0 -12 12v75q-87 -94 -244 -94q-147 0 -243.5 102.5t-96.5 267.5t100.5 263t238.5 98q163 0 230 -100l-1 82q0 12 12 12h37q12 0 12 -12v-192q0 -12 -12 -12h-40q-12 0 -12 12v11q0 48 -65.5 94t-158.5 46q-108 0 -191.5 -85t-83.5 -220q0 -74 24 -133.5
t63.5 -96.5t88 -57t99.5 -20q92 0 151.5 32t88.5 77v98h-191q-12 0 -12 12v29q0 12 12 12h241q12 0 12 -12v-289q0 -12 -12 -12zM440 842q0 -20 -14.5 -34t-34.5 -14t-34 14t-14 34t14 34.5t34 14.5t34.5 -14.5t14.5 -34.5z" />
    <glyph glyph-name="gdotaccent" unicode="&#x121;" horiz-adv-x="610" 
d="M270 -233q-126 0 -188 62q-9 9 -3 18l16 22q7 8 17 1q7 -7 19 -16t52 -22t87 -13q76 0 123 38t47 120v130q-22 -50 -66.5 -82t-107.5 -32q-101 0 -162.5 71t-61.5 184t62.5 182t162.5 69q62 0 106.5 -30.5t67.5 -78.5h2l-2 90q0 12 12 12h103q12 0 12 -12v-26
q0 -11 -12 -11h-58v-466q0 -105 -62 -157.5t-166 -52.5zM272 43q73 0 121.5 56t48.5 147q0 93 -49 147.5t-121 54.5q-73 0 -122 -55t-49 -147q0 -90 48.5 -146.5t122.5 -56.5zM351 616q0 -20 -14.5 -34t-34.5 -14t-34 14t-14 34t14 34.5t34 14.5t34.5 -14.5t14.5 -34.5z" />
    <glyph glyph-name="Gcommaaccent" unicode="&#x122;" 
d="M357 -206v12q0 6 6 6q15 0 28 14t13 43l-2 11q-5 -6 -19 -6q-15 0 -25 11t-10 29q0 17 11.5 28t28.5 11q48 0 48 -64q0 -52 -21.5 -76t-51.5 -24q-6 0 -6 5zM685 0h-35q-12 0 -12 12v75q-87 -94 -244 -94q-147 0 -243.5 102.5t-96.5 267.5t100.5 263t238.5 98
q163 0 230 -100l-1 82q0 12 12 12h37q12 0 12 -12v-192q0 -12 -12 -12h-40q-12 0 -12 12v11q0 48 -65.5 94t-158.5 46q-108 0 -191.5 -85t-83.5 -220q0 -74 24 -133.5t63.5 -96.5t88 -57t99.5 -20q92 0 151.5 32t88.5 77v98h-191q-12 0 -12 12v29q0 12 12 12h241
q12 0 12 -12v-289q0 -12 -12 -12z" />
    <glyph glyph-name="gcommaaccent" unicode="&#x123;" horiz-adv-x="610" 
d="M270 -233q-126 0 -188 62q-9 9 -3 18l16 22q7 8 17 1q7 -7 19 -16t52 -22t87 -13q76 0 123 38t47 120v130q-22 -50 -66.5 -82t-107.5 -32q-101 0 -162.5 71t-61.5 184t62.5 182t162.5 69q62 0 106.5 -30.5t67.5 -78.5h2l-2 90q0 12 12 12h103q12 0 12 -12v-26
q0 -11 -12 -11h-58v-466q0 -105 -62 -157.5t-166 -52.5zM272 43q73 0 121.5 56t48.5 147q0 93 -49 147.5t-121 54.5q-73 0 -122 -55t-49 -147q0 -90 48.5 -146.5t122.5 -56.5zM325 692v-12q0 -6 -6 -6q-15 0 -28 -14t-13 -43l2 -10q5 5 20 5q14 0 24.5 -11t10.5 -28
t-11.5 -28.5t-28.5 -11.5q-48 0 -48 64q0 53 21 77t51 24q6 0 6 -6z" />
    <glyph glyph-name="Hcircumflex" unicode="&#x124;" horiz-adv-x="826" 
d="M583 826l-16 -18q-7 -9 -17 -2l-127 105l-126 -105q-10 -7 -17 2l-16 18q-8 10 2 17l149 130q4 4 9 4q4 0 9 -5l148 -129q10 -8 2 -17zM761 0h-224q-12 0 -12 12v31q0 12 12 12h80v275h-408v-275h81q11 0 11 -12v-31q0 -12 -11 -12h-224q-12 0 -12 12v31q0 12 12 12h80
v608h-80q-12 0 -12 12v31q0 12 12 12h224q11 0 11 -12v-31q0 -12 -11 -12h-81v-279h408v279h-80q-12 0 -12 12v31q0 12 12 12h224q11 0 11 -12v-31q0 -12 -11 -12h-81v-608h81q11 0 11 -12v-31q0 -12 -11 -12z" />
    <glyph glyph-name="hcircumflex" unicode="&#x125;" horiz-adv-x="620" 
d="M469 791l-16 -18q-7 -9 -17 -2l-127 105l-126 -105q-10 -7 -17 2l-16 18q-8 10 2 17l149 130q4 4 9 4q4 0 9 -5l148 -129q10 -8 2 -17zM567 0h-77q-22 0 -32 8.5t-10 31.5v277q0 61 -32 95.5t-90 34.5q-24 0 -45 -5.5t-36 -13.5t-28 -18.5t-21 -20.5t-13.5 -18.5
t-8.5 -13.5l-2 -5v-303h58q12 0 12 -11v-26q0 -12 -12 -12h-177q-11 0 -11 12v26q0 11 11 11h59v620h-59q-11 0 -11 11v26q0 12 11 12h108q11 0 11 -12v-232q0 -49 -3 -58h2q52 83 164 83q80 0 126 -46.5t47 -126.5v-277h59q12 0 12 -11v-26q0 -12 -12 -12z" />
    <glyph glyph-name="Hbar" unicode="&#x126;" horiz-adv-x="826" 
d="M761 0h-224q-12 0 -12 12v31q0 12 12 12h80v275h-408v-275h81q11 0 11 -12v-31q0 -12 -11 -12h-224q-12 0 -12 12v31q0 12 12 12h80v442h-66q-11 0 -11 11v21q0 11 11 11h66v123h-80q-12 0 -12 12v31q0 12 12 12h224q11 0 11 -12v-31q0 -12 -11 -12h-81v-123h408v123h-80
q-12 0 -12 12v31q0 12 12 12h224q11 0 11 -12v-31q0 -12 -11 -12h-81v-123h53q11 0 11 -11v-21q0 -11 -11 -11h-53v-442h81q11 0 11 -12v-31q0 -12 -11 -12zM617 384v113h-408v-113h408z" />
    <glyph glyph-name="hbar" unicode="&#x127;" horiz-adv-x="620" 
d="M567 0h-77q-22 0 -32 8.5t-10 31.5v277q0 61 -32 95.5t-90 34.5q-24 0 -45 -5.5t-36 -13.5t-28 -18.5t-21 -20.5t-13.5 -18.5t-8.5 -13.5l-2 -5v-303h58q12 0 12 -11v-26q0 -12 -12 -12h-177q-11 0 -11 12v26q0 11 11 11h59v520h-59q-11 0 -11 11v13q0 11 11 11h59v65
h-59q-11 0 -11 11v26q0 12 11 12h108q11 0 11 -12v-102h146q11 0 11 -11v-13q0 -11 -11 -11h-146v-95q0 -8 -1 -33l-1 -25h1q52 83 164 83q80 0 126 -46.5t47 -126.5v-277h59q12 0 12 -11v-26q0 -12 -12 -12z" />
    <glyph glyph-name="Itilde" unicode="&#x128;" horiz-adv-x="366" 
d="M295 0h-224q-12 0 -12 12v31q0 12 12 12h80v608h-80q-12 0 -12 12v31q0 12 12 12h224q11 0 11 -12v-31q0 -12 -11 -12h-81v-608h81q11 0 11 -12v-31q0 -12 -11 -12zM302 901h15q12 0 12 -12q0 -102 -80 -102q-30 0 -53.5 15.5t-42.5 31t-37 15.5q-22 0 -31.5 -13
t-9.5 -44q0 -12 -12 -12h-15q-11 0 -11 12q0 96 77 96q34 0 72.5 -31.5t60.5 -31.5q25 0 34.5 13.5t9.5 50.5q0 12 11 12z" />
    <glyph glyph-name="itilde" unicode="&#x129;" horiz-adv-x="303" 
d="M243 0h-177q-11 0 -11 12v26q0 11 11 11h59v394h-59q-11 0 -11 11v26q0 12 11 12h108q11 0 11 -12v-431h58q12 0 12 -11v-26q0 -12 -12 -12zM259 675h15q12 0 12 -12q0 -102 -80 -102q-30 0 -53.5 15.5t-42.5 31t-37 15.5q-22 0 -31.5 -13t-9.5 -44q0 -12 -12 -12h-15
q-11 0 -11 12q0 96 77 96q34 0 72.5 -31.5t60.5 -31.5q25 0 34.5 13.5t9.5 50.5q0 12 11 12z" />
    <glyph glyph-name="imacron" unicode="&#x12b;" horiz-adv-x="284" 
d="M230 0h-177q-11 0 -11 12v26q0 11 11 11h59v394h-59q-11 0 -11 11v26q0 12 11 12h108q11 0 11 -12v-431h58q12 0 12 -11v-26q0 -12 -12 -12zM272 556h-286q-12 0 -12 12v27q0 12 12 12h286q12 0 12 -12v-27q0 -12 -12 -12z" />
    <glyph glyph-name="Ibreve" unicode="&#x12c;" horiz-adv-x="356" 
d="M290 0h-224q-12 0 -12 12v31q0 12 12 12h80v608h-80q-12 0 -12 12v31q0 12 12 12h224q11 0 11 -12v-31q0 -12 -11 -12h-81v-608h81q11 0 11 -12v-31q0 -12 -11 -12zM280 945h21q12 0 12 -12q0 -67 -37 -102t-97 -35t-97 35t-37 102q0 12 12 12h21q12 0 12 -12
q0 -46 25 -71.5t63 -25.5t64 25.5t26 71.5q0 12 12 12z" />
    <glyph glyph-name="Iogonek" unicode="&#x12e;" horiz-adv-x="359" 
d="M290 0h-224q-12 0 -12 12v31q0 12 12 12h80v608h-80q-12 0 -12 12v31q0 12 12 12h224q11 0 11 -12v-31q0 -12 -11 -12h-81v-608h81q11 0 11 -12v-31q0 -12 -11 -12zM293 -110l7 -10q6 -9 -3 -16q-34 -19 -63 -19q-34 0 -54.5 19.5t-20.5 50.5q0 40 32 64t49 24h39
q-77 -44 -81 -86q0 -17 11.5 -26.5t29.5 -9.5q17 0 37 9q13 7 17 0z" />
    <glyph glyph-name="iogonek" unicode="&#x12f;" horiz-adv-x="288" 
d="M230 0h-177q-11 0 -11 12v26q0 11 11 11h59v394h-59q-11 0 -11 11v26q0 12 11 12h108q11 0 11 -12v-431h58q12 0 12 -11v-26q0 -12 -12 -12zM188 592q0 -19 -13.5 -32t-32.5 -13t-32.5 13t-13.5 32t13.5 33t32.5 14t32.5 -14t13.5 -33zM219 -110l7 -10q6 -9 -3 -16
q-34 -19 -63 -19q-34 0 -54.5 19.5t-20.5 50.5q0 40 32 64t49 24h39q-77 -44 -81 -86q0 -17 11.5 -26.5t29.5 -9.5q17 0 37 9q13 7 17 0z" />
    <glyph glyph-name="Idotaccent" unicode="&#x130;" horiz-adv-x="356" 
d="M290 0h-224q-12 0 -12 12v31q0 12 12 12h80v608h-80q-12 0 -12 12v31q0 12 12 12h224q11 0 11 -12v-31q0 -12 -11 -12h-81v-608h81q11 0 11 -12v-31q0 -12 -11 -12zM229 842q0 -20 -14.5 -34t-34.5 -14t-34 14t-14 34t14 34.5t34 14.5t34.5 -14.5t14.5 -34.5z" />
    <glyph glyph-name="dotlessi" unicode="&#x131;" horiz-adv-x="284" 
d="M230 0h-177q-11 0 -11 12v26q0 11 11 11h59v394h-59q-11 0 -11 11v26q0 12 11 12h108q11 0 11 -12v-431h58q12 0 12 -11v-26q0 -12 -12 -12z" />
    <glyph glyph-name="Jcircumflex" unicode="&#x134;" horiz-adv-x="499" 
d="M457 826l-16 -18q-7 -9 -17 -2l-127 105l-126 -105q-10 -7 -17 2l-16 18q-8 10 2 17l149 130q4 4 9 4q4 0 9 -5l148 -129q10 -8 2 -17zM289 250v413h-80q-11 0 -11 12v31q0 12 11 12h224q12 0 12 -12v-31q0 -12 -12 -12h-81v-404q0 -140 -65 -199.5t-207 -59.5
q-12 0 -12 12v31q0 12 12 12q116 0 162.5 46.5t46.5 148.5z" />
    <glyph glyph-name="jcircumflex" unicode="&#x135;" horiz-adv-x="302" 
d="M185 -71v514h-60q-11 0 -11 11v26q0 12 11 12h108q11 0 11 -12v-552q0 -79 -39.5 -120.5t-109.5 -41.5q-45 0 -85 32q-9 9 -1 17l13 17q9 9 17 3q18 -18 51 -18q44 0 69.5 28t25.5 84zM367 600l-16 -18q-7 -9 -17 -2l-127 105l-126 -105q-10 -7 -17 2l-16 18q-8 10 2 17
l149 130q4 4 9 4q4 0 9 -5l148 -129q10 -8 2 -17z" />
    <glyph glyph-name="Kcommaaccent" unicode="&#x136;" horiz-adv-x="764" 
d="M323 -206v12q0 6 6 6q15 0 28 14t13 43l-2 11q-5 -6 -19 -6q-15 0 -25 11t-10 29q0 17 11.5 28t28.5 11q48 0 48 -64q0 -52 -21.5 -76t-51.5 -24q-6 0 -6 5zM698 0h-70q-34 0 -55 43l-101 201q-9 19 -15.5 27.5t-30.5 19t-62 10.5h-155v-246h93q12 0 12 -12v-31
q0 -12 -12 -12h-236q-12 0 -12 12v31q0 12 12 12h80v608h-80q-12 0 -12 12v31q0 12 12 12h209q12 0 12 -12v-31q0 -12 -12 -12h-66v-309h123q54 0 93 14t69.5 48t45.5 95.5t15 151.5h-69q-12 0 -12 12v31q0 12 12 12h201q11 0 11 -12v-31q0 -12 -11 -12h-70
q-1 -263 -147 -333q18 -7 32 -22t19 -23.5t19 -35.5l99 -194h59q12 0 12 -12v-31q0 -12 -12 -12z" />
    <glyph glyph-name="kcommaaccent" unicode="&#x137;" horiz-adv-x="610" 
d="M277 -206v12q0 6 6 6q15 0 28 14t13 43l-2 11q-5 -6 -19 -6q-15 0 -25 11t-10 29q0 17 11.5 28t28.5 11q48 0 48 -64q0 -52 -21.5 -76t-51.5 -24q-6 0 -6 5zM565 0h-39q-28 0 -49 27l-195 265l-110 -103v-140h58q12 0 12 -11v-26q0 -12 -12 -12h-177q-11 0 -11 12v26
q0 11 11 11h59v620h-59q-11 0 -11 11v26q0 12 11 12h108q11 0 11 -12v-455l207 192h-38q-12 0 -12 11v26q0 12 12 12h177q11 0 11 -12v-26q0 -11 -11 -11h-68l-129 -114l207 -280h37q11 0 11 -11v-26q0 -12 -11 -12z" />
    <glyph glyph-name="Lacute" unicode="&#x139;" horiz-adv-x="682" 
d="M415 933l-157 -127q-11 -8 -18 2l-16 18q-8 10 2 17l152 133q8 8 18 -2l20 -24q6 -10 -1 -17zM616 0h-550q-12 0 -12 12v31q0 12 12 12h80v608h-80q-12 0 -12 12v31q0 12 12 12h223q12 0 12 -12v-30q0 -13 -12 -13h-80v-608h360v98q0 12 11 12h36q12 0 12 -12v-141
q0 -12 -12 -12z" />
    <glyph glyph-name="lacute" unicode="&#x13a;" horiz-adv-x="284" 
d="M290 889l-157 -127q-11 -8 -18 2l-16 18q-8 10 2 17l152 133q8 8 18 -2l20 -24q6 -10 -1 -17zM230 0h-177q-11 0 -11 12v26q0 11 11 11h59v620h-59q-11 0 -11 11v27q0 11 11 11h88q31 0 31 -27v-642h58q12 0 12 -11v-26q0 -12 -12 -12z" />
    <glyph glyph-name="Lcommaaccent" unicode="&#x13b;" horiz-adv-x="682" 
d="M284 -206v12q0 6 6 6q15 0 28 14t13 43l-2 11q-5 -6 -19 -6q-15 0 -25 11t-10 29q0 17 11.5 28t28.5 11q48 0 48 -64q0 -52 -21.5 -76t-51.5 -24q-6 0 -6 5zM616 0h-550q-12 0 -12 12v31q0 12 12 12h80v608h-80q-12 0 -12 12v31q0 12 12 12h223q12 0 12 -12v-30
q0 -13 -12 -13h-80v-608h360v98q0 12 11 12h36q12 0 12 -12v-141q0 -12 -12 -12z" />
    <glyph glyph-name="lcommaaccent" unicode="&#x13c;" horiz-adv-x="284" 
d="M113 -206v12q0 6 6 6q15 0 28 14t13 43l-2 11q-5 -6 -19 -6q-15 0 -25 11t-10 29q0 17 11.5 28t28.5 11q48 0 48 -64q0 -52 -21.5 -76t-51.5 -24q-6 0 -6 5zM230 0h-177q-11 0 -11 12v26q0 11 11 11h59v620h-59q-11 0 -11 11v27q0 11 11 11h88q31 0 31 -27v-642h58
q12 0 12 -11v-26q0 -12 -12 -12z" />
    <glyph glyph-name="Lcaron" unicode="&#x13d;" horiz-adv-x="682" 
d="M325 557v12q0 6 7 6q15 0 28 14t13 43l-2 10q-6 -5 -20 -5t-24.5 11t-10.5 28t11.5 28.5t28.5 11.5q48 0 48 -64q0 -53 -21 -77t-51 -24q-7 0 -7 6zM616 0h-550q-12 0 -12 12v31q0 12 12 12h80v608h-80q-12 0 -12 12v31q0 12 12 12h223q12 0 12 -12v-30q0 -13 -12 -13
h-80v-608h360v98q0 12 11 12h36q12 0 12 -12v-141q0 -12 -12 -12z" />
    <glyph glyph-name="lcaron" unicode="&#x13e;" horiz-adv-x="284" 
d="M229 584v12q0 6 7 6q15 0 28 14t13 43l-2 10q-6 -5 -20 -5t-24.5 11t-10.5 28t11.5 28.5t28.5 11.5q48 0 48 -64q0 -53 -21 -77t-51 -24q-7 0 -7 6zM230 0h-177q-11 0 -11 12v26q0 11 11 11h59v620h-59q-11 0 -11 11v27q0 11 11 11h88q31 0 31 -27v-642h58q12 0 12 -11
v-26q0 -12 -12 -12z" />
    <glyph glyph-name="Ldot" unicode="&#x13f;" horiz-adv-x="682" 
d="M298 199q-20 0 -32.5 12.5t-12.5 32.5q0 19 13 32.5t32 13.5t32.5 -13.5t13.5 -32.5t-13.5 -32t-32.5 -13zM616 0h-550q-12 0 -12 12v31q0 12 12 12h80v608h-80q-12 0 -12 12v31q0 12 12 12h223q12 0 12 -12v-30q0 -13 -12 -13h-80v-608h360v98q0 12 11 12h36
q12 0 12 -12v-141q0 -12 -12 -12z" />
    <glyph glyph-name="ldot" unicode="&#x140;" horiz-adv-x="284" 
d="M230 0h-177q-11 0 -11 12v26q0 11 11 11h59v620h-59q-11 0 -11 11v27q0 11 11 11h88q31 0 31 -27v-642h58q12 0 12 -11v-26q0 -12 -12 -12z" />
    <glyph glyph-name="Lslash" unicode="&#x141;" horiz-adv-x="686" 
d="M619 0h-549q-12 0 -12 12v31q0 12 12 12h79v224l-75 -75q-9 -9 -17 0l-15 15q-8 9 0 17l107 108v319h-79q-12 0 -12 12v31q0 12 12 12h223q12 0 12 -12v-30q0 -13 -12 -13h-81v-256l135 134q8 8 16 0l15 -15q9 -9 0 -18l-166 -166v-287h360v98q0 12 12 12h36q12 0 12 -12
v-141q0 -12 -13 -12z" />
    <glyph glyph-name="lslash" unicode="&#x142;" horiz-adv-x="284" 
d="M230 0h-177q-11 0 -11 12v26q0 11 11 11h59v218l-102 -103q-8 -8 -16 0l-15 15q-9 9 0 17l133 133v340h-59q-11 0 -11 11v27q0 11 11 11h88q31 0 31 -27v-302l112 112q8 8 17 0l14 -15q9 -8 0 -17l-143 -143v-277h58q12 0 12 -11v-26q0 -12 -12 -12z" />
    <glyph glyph-name="Nacute" unicode="&#x143;" horiz-adv-x="826" 
d="M517 933l-157 -127q-11 -8 -18 2l-16 18q-8 10 2 17l152 133q8 8 18 -2l20 -24q6 -10 -1 -17zM668 0h-37q-27 0 -45 26l-321 503l-55 90h-1v-564h81q11 0 11 -12v-31q0 -12 -11 -12h-224q-12 0 -12 12v31q0 12 12 12h80v608h-80q-12 0 -12 12v31q0 12 12 12h124
q28 0 46 -28l321 -499l58 -97h2v569h-80q-12 0 -12 12v31q0 12 12 12h224q11 0 11 -12v-31q0 -12 -11 -12h-81v-651q0 -12 -12 -12z" />
    <glyph glyph-name="nacute" unicode="&#x144;" horiz-adv-x="620" 
d="M414 707l-157 -127q-11 -8 -18 2l-16 18q-8 10 2 17l152 133q8 8 18 -2l20 -24q6 -10 -1 -17zM567 0h-77q-22 0 -32 8.5t-10 31.5v277q0 61 -32 95.5t-90 34.5q-37 0 -67 -11.5t-49 -32.5t-25 -29t-12 -21l-1 -1v-303h58q12 0 12 -11v-26q0 -12 -12 -12h-177
q-11 0 -11 12v26q0 11 11 11h59v394h-59q-11 0 -11 11v26q0 12 11 12h104q11 0 11 -12l-1 -68h2q54 87 167 87q80 0 125.5 -46.5t46.5 -126.5v-277h59q12 0 12 -11v-26q0 -12 -12 -12z" />
    <glyph glyph-name="Ncommaaccent" unicode="&#x145;" horiz-adv-x="826" 
d="M387 -206v12q0 6 6 6q15 0 28 14t13 43l-2 11q-5 -6 -19 -6q-15 0 -25 11t-10 29q0 17 11.5 28t28.5 11q48 0 48 -64q0 -52 -21.5 -76t-51.5 -24q-6 0 -6 5zM668 0h-37q-27 0 -45 26l-321 503l-55 90h-1v-564h81q11 0 11 -12v-31q0 -12 -11 -12h-224q-12 0 -12 12v31
q0 12 12 12h80v608h-80q-12 0 -12 12v31q0 12 12 12h124q28 0 46 -28l321 -499l58 -97h2v569h-80q-12 0 -12 12v31q0 12 12 12h224q11 0 11 -12v-31q0 -12 -11 -12h-81v-651q0 -12 -12 -12z" />
    <glyph glyph-name="ncommaaccent" unicode="&#x146;" horiz-adv-x="620" 
d="M278 -206v12q0 6 6 6q15 0 28 14t13 43l-2 11q-5 -6 -19 -6q-15 0 -25 11t-10 29q0 17 11.5 28t28.5 11q48 0 48 -64q0 -52 -21.5 -76t-51.5 -24q-6 0 -6 5zM567 0h-77q-22 0 -32 8.5t-10 31.5v277q0 61 -32 95.5t-90 34.5q-37 0 -67 -11.5t-49 -32.5t-25 -29t-12 -21
l-1 -1v-303h58q12 0 12 -11v-26q0 -12 -12 -12h-177q-11 0 -11 12v26q0 11 11 11h59v394h-59q-11 0 -11 11v26q0 12 11 12h104q11 0 11 -12l-1 -68h2q54 87 167 87q80 0 125.5 -46.5t46.5 -126.5v-277h59q12 0 12 -11v-26q0 -12 -12 -12z" />
    <glyph glyph-name="Ncaron" unicode="&#x147;" horiz-adv-x="826" 
d="M579 937l-148 -129q-4 -4 -9 -4t-9 4l-149 129q-10 7 -2 17l16 18q7 9 17 2l126 -106l127 106q9 8 17 -2l16 -18q8 -9 -2 -17zM668 0h-37q-27 0 -45 26l-321 503l-55 90h-1v-564h81q11 0 11 -12v-31q0 -12 -11 -12h-224q-12 0 -12 12v31q0 12 12 12h80v608h-80
q-12 0 -12 12v31q0 12 12 12h124q28 0 46 -28l321 -499l58 -97h2v569h-80q-12 0 -12 12v31q0 12 12 12h224q11 0 11 -12v-31q0 -12 -11 -12h-81v-651q0 -12 -12 -12z" />
    <glyph glyph-name="ncaron" unicode="&#x148;" horiz-adv-x="620" 
d="M470 711l-148 -129q-4 -4 -9 -4t-9 4l-149 129q-10 7 -2 17l16 18q7 9 17 2l126 -106l127 106q9 8 17 -2l16 -18q8 -9 -2 -17zM567 0h-77q-22 0 -32 8.5t-10 31.5v277q0 61 -32 95.5t-90 34.5q-37 0 -67 -11.5t-49 -32.5t-25 -29t-12 -21l-1 -1v-303h58q12 0 12 -11v-26
q0 -12 -12 -12h-177q-11 0 -11 12v26q0 11 11 11h59v394h-59q-11 0 -11 11v26q0 12 11 12h104q11 0 11 -12l-1 -68h2q54 87 167 87q80 0 125.5 -46.5t46.5 -126.5v-277h59q12 0 12 -11v-26q0 -12 -12 -12z" />
    <glyph glyph-name="Eng" unicode="&#x14a;" horiz-adv-x="801" 
d="M383 -220v31q0 12 12 12q115 0 162 41.5t47 133.5v4q-18 4 -30 24l-322 503l-54 90h-2v-564h81q12 0 12 -12v-31q0 -12 -12 -12h-224q-11 0 -11 12v31q0 12 11 12h80v608h-80q-11 0 -11 12v31q0 12 11 12h124q30 0 46 -28l322 -499l58 -97h1v569h-80q-11 0 -11 12v31
q0 12 11 12h224q12 0 12 -12v-31q0 -12 -12 -12h-81v-652q-1 -127 -65.5 -185t-206.5 -58q-12 0 -12 12z" />
    <glyph glyph-name="eng" unicode="&#x14b;" horiz-adv-x="550" 
d="M448 -71v388q0 61 -32 95.5t-90 34.5q-37 0 -67 -11.5t-49 -32.5t-25 -29t-12 -21l-1 -1v-303h58q12 0 12 -11v-26q0 -12 -12 -12h-177q-11 0 -11 12v26q0 11 11 11h59v394h-59q-11 0 -11 11v26q0 12 11 12h79q20 0 28.5 -7.5t7.5 -26.5l-1 -46h2q54 87 167 87
q80 0 125.5 -46.5t46.5 -126.5v-398q0 -79 -40 -120.5t-110 -41.5q-52 0 -84 32q-10 10 -2 17l14 17q8 9 17 3q18 -18 51 -18q44 0 69 28t25 84z" />
    <glyph glyph-name="Omacron" unicode="&#x14c;" horiz-adv-x="796" 
d="M541 782h-286q-12 0 -12 12v27q0 12 12 12h286q12 0 12 -12v-27q0 -12 -12 -12zM399 -7q-147 0 -246 103.5t-99 266.5t101 262t244 99t243 -99t100 -262q0 -165 -97.5 -267.5t-245.5 -102.5zM399 52q51 0 99 19t88 56t64 97.5t24 135.5t-25 135.5t-66 96.5t-88.5 55
t-95.5 19t-95.5 -19t-89 -55t-67 -96.5t-25.5 -135.5t24.5 -135.5t64.5 -97.5t88.5 -56t99.5 -19z" />
    <glyph glyph-name="omacron" unicode="&#x14d;" horiz-adv-x="573" 
d="M430 556h-286q-12 0 -12 12v27q0 12 12 12h286q12 0 12 -12v-27q0 -12 -12 -12zM287 -7q-105 0 -175 70t-70 186q0 115 70.5 182.5t174.5 67.5q103 0 173.5 -68t70.5 -182q0 -115 -70 -185.5t-174 -70.5zM287 44q76 0 130 56t54 147t-55 146t-129 55q-75 0 -130 -55
t-55 -146t54.5 -147t130.5 -56z" />
    <glyph glyph-name="Obreve" unicode="&#x14e;" horiz-adv-x="796" 
d="M399 -7q-147 0 -246 103.5t-99 266.5t101 262t244 99t243 -99t100 -262q0 -165 -97.5 -267.5t-245.5 -102.5zM399 52q51 0 99 19t88 56t64 97.5t24 135.5t-25 135.5t-66 96.5t-88.5 55t-95.5 19t-95.5 -19t-89 -55t-67 -96.5t-25.5 -135.5t24.5 -135.5t64.5 -97.5
t88.5 -56t99.5 -19zM498 945h21q12 0 12 -12q0 -67 -37 -102t-97 -35t-97 35t-37 102q0 12 12 12h21q12 0 12 -12q0 -46 25 -71.5t63 -25.5t64 25.5t26 71.5q0 12 12 12z" />
    <glyph glyph-name="obreve" unicode="&#x14f;" horiz-adv-x="573" 
d="M287 -7q-105 0 -175 70t-70 186q0 115 70.5 182.5t174.5 67.5q103 0 173.5 -68t70.5 -182q0 -115 -70 -185.5t-174 -70.5zM287 44q76 0 130 56t54 147t-55 146t-129 55q-75 0 -130 -55t-55 -146t54.5 -147t130.5 -56zM390 719h21q12 0 12 -12q0 -67 -37 -102t-97 -35
t-97 35t-37 102q0 12 12 12h21q12 0 12 -12q0 -46 25 -71.5t63 -25.5t64 25.5t26 71.5q0 12 12 12z" />
    <glyph glyph-name="Ohungarumlaut" unicode="&#x150;" horiz-adv-x="796" 
d="M472 937l-157 -127q-10 -7 -18 2l-16 19q-9 9 2 16l152 133q8 8 18 -2l20 -24q6 -10 -1 -17zM625 937l-157 -127q-9 -7 -18 2l-16 19q-8 10 2 16l152 133q10 8 18 -2l20 -24q7 -9 -1 -17zM399 -7q-147 0 -246 103.5t-99 266.5t101 262t244 99t243 -99t100 -262
q0 -165 -97.5 -267.5t-245.5 -102.5zM399 52q51 0 99 19t88 56t64 97.5t24 135.5t-25 135.5t-66 96.5t-88.5 55t-95.5 19t-95.5 -19t-89 -55t-67 -96.5t-25.5 -135.5t24.5 -135.5t64.5 -97.5t88.5 -56t99.5 -19z" />
    <glyph glyph-name="ohungarumlaut" unicode="&#x151;" horiz-adv-x="573" 
d="M313 711l-157 -127q-10 -7 -18 2l-16 19q-9 9 2 16l152 133q8 8 18 -2l20 -24q6 -10 -1 -17zM466 711l-157 -127q-9 -7 -18 2l-16 19q-8 10 2 16l152 133q10 8 18 -2l20 -24q7 -9 -1 -17zM287 -7q-105 0 -175 70t-70 186q0 115 70.5 182.5t174.5 67.5q103 0 173.5 -68
t70.5 -182q0 -115 -70 -185.5t-174 -70.5zM287 44q76 0 130 56t54 147t-55 146t-129 55q-75 0 -130 -55t-55 -146t54.5 -147t130.5 -56z" />
    <glyph glyph-name="OE" unicode="&#x152;" horiz-adv-x="900" 
d="M834 0h-440q-146 0 -243 100.5t-97 262.5q0 161 99 258t240 97h441q12 0 12 -12v-142q0 -11 -12 -11h-36q-11 0 -11 11v99h-331v-278h280q11 0 11 -12v-31q0 -12 -11 -12h-280v-275h331v98q0 12 11 12h36q12 0 12 -12v-141q0 -12 -12 -12zM393 57v603q-48 -1 -94.5 -19.5
t-87 -53.5t-65 -94t-24.5 -133q0 -144 81 -222.5t190 -80.5z" />
    <glyph glyph-name="oe" unicode="&#x153;" horiz-adv-x="965" 
d="M712 -7q-71 0 -127 35t-83 99q-29 -63 -86.5 -98.5t-128.5 -35.5q-105 0 -175 70t-70 186q0 115 70.5 182.5t174.5 67.5q70 0 127.5 -34.5t86.5 -96.5q27 62 81.5 96.5t120.5 34.5q103 0 161.5 -66.5t56.5 -181.5q0 -12 -12 -12h-376q3 -92 57 -143.5t124 -51.5
q61 0 106 27t63 56q7 10 16 4l18 -17q8 -7 4 -16q-18 -33 -72.5 -69t-136.5 -36zM287 44q76 0 130 55.5t54 146.5t-55 146.5t-129 55.5q-75 0 -130 -55t-55 -146t54.5 -147t130.5 -56zM536 287h325q-3 74 -44 118.5t-111 44.5q-64 0 -112.5 -42.5t-57.5 -120.5z" />
    <glyph glyph-name="Racute" unicode="&#x154;" horiz-adv-x="713" 
d="M428 933l-157 -127q-11 -8 -18 2l-16 18q-8 10 2 17l152 133q8 8 18 -2l20 -24q6 -10 -1 -17zM647 0h-71q-34 0 -54 43l-101 205q-13 27 -26.5 39t-37.5 13h-148v-245h92q11 0 11 -12v-31q0 -12 -11 -12h-235q-12 0 -12 12v31q0 12 12 12h80v608h-80q-12 0 -12 12v31
q0 12 12 12h300q105 0 171 -53.5t66 -155.5q0 -164 -157 -199q19 -14 50 -72l92 -183h59q12 0 12 -12v-31q0 -12 -12 -12zM209 352h145q186 0 186 155q0 84 -52 120t-134 36h-145v-311z" />
    <glyph glyph-name="racute" unicode="&#x155;" horiz-adv-x="413" 
d="M353 707l-157 -127q-11 -8 -18 2l-16 18q-8 10 2 17l152 133q8 8 18 -2l20 -24q6 -10 -1 -17zM230 0h-177q-11 0 -11 12v26q0 11 11 11h59v394h-59q-11 0 -11 11v26q0 12 11 12h104q11 0 11 -12v-130h3q1 6 4.5 15.5t19 34t37.5 43.5t64 34.5t95 15.5q12 0 12 -12v-31
q0 -12 -12 -12h-15q-95 0 -149.5 -61.5t-54.5 -138.5v-189h58q12 0 12 -11v-26q0 -12 -12 -12z" />
    <glyph glyph-name="Rcommaaccent" unicode="&#x156;" horiz-adv-x="713" 
d="M309 -206v12q0 6 6 6q15 0 28 14t13 43l-2 11q-5 -6 -19 -6q-15 0 -25 11t-10 29q0 17 11.5 28t28.5 11q48 0 48 -64q0 -52 -21.5 -76t-51.5 -24q-6 0 -6 5zM647 0h-71q-34 0 -54 43l-101 205q-13 27 -26.5 39t-37.5 13h-148v-245h92q11 0 11 -12v-31q0 -12 -11 -12h-235
q-12 0 -12 12v31q0 12 12 12h80v608h-80q-12 0 -12 12v31q0 12 12 12h300q105 0 171 -53.5t66 -155.5q0 -164 -157 -199q19 -14 50 -72l92 -183h59q12 0 12 -12v-31q0 -12 -12 -12zM209 352h145q186 0 186 155q0 84 -52 120t-134 36h-145v-311z" />
    <glyph glyph-name="rcommaaccent" unicode="&#x157;" horiz-adv-x="413" 
d="M110 -206v12q0 6 6 6q15 0 28 14t13 43l-2 11q-5 -6 -19 -6q-15 0 -25 11t-10 29q0 17 11.5 28t28.5 11q48 0 48 -64q0 -52 -21.5 -76t-51.5 -24q-6 0 -6 5zM230 0h-177q-11 0 -11 12v26q0 11 11 11h59v394h-59q-11 0 -11 11v26q0 12 11 12h104q11 0 11 -12v-130h3
q1 6 4.5 15.5t19 34t37.5 43.5t64 34.5t95 15.5q12 0 12 -12v-31q0 -12 -12 -12h-15q-95 0 -149.5 -61.5t-54.5 -138.5v-189h58q12 0 12 -11v-26q0 -12 -12 -12z" />
    <glyph glyph-name="Rcaron" unicode="&#x158;" horiz-adv-x="713" 
d="M489 937l-148 -129q-4 -4 -9 -4t-9 4l-149 129q-10 7 -2 17l16 18q7 9 17 2l126 -106l127 106q9 8 17 -2l16 -18q8 -9 -2 -17zM647 0h-71q-34 0 -54 43l-101 205q-13 27 -26.5 39t-37.5 13h-148v-245h92q11 0 11 -12v-31q0 -12 -11 -12h-235q-12 0 -12 12v31q0 12 12 12
h80v608h-80q-12 0 -12 12v31q0 12 12 12h300q105 0 171 -53.5t66 -155.5q0 -164 -157 -199q19 -14 50 -72l92 -183h59q12 0 12 -12v-31q0 -12 -12 -12zM209 352h145q186 0 186 155q0 84 -52 120t-134 36h-145v-311z" />
    <glyph glyph-name="rcaron" unicode="&#x159;" horiz-adv-x="419" 
d="M367 711l-148 -129q-4 -4 -9 -4t-9 4l-149 129q-10 7 -2 17l16 18q7 9 17 2l126 -106l127 106q9 8 17 -2l16 -18q8 -9 -2 -17zM236 0h-177q-11 0 -11 12v26q0 11 11 11h59v394h-59q-11 0 -11 11v26q0 12 11 12h104q11 0 11 -12v-130h3q1 6 4.5 15.5t19 34t37.5 43.5
t64 34.5t95 15.5q12 0 12 -12v-31q0 -12 -12 -12h-15q-95 0 -149.5 -61.5t-54.5 -138.5v-189h58q12 0 12 -11v-26q0 -12 -12 -12z" />
    <glyph glyph-name="Sacute" unicode="&#x15a;" horiz-adv-x="668" 
d="M437 933l-157 -127q-11 -8 -18 2l-16 18q-8 10 2 17l152 133q8 8 18 -2l20 -24q6 -10 -1 -17zM103 0h-37q-12 0 -12 12v228q0 12 12 12h40q12 0 12 -12v-22q0 -10 13 -34.5t38.5 -55t74 -53.5t108.5 -23q90 0 140 36t50 103q0 44 -34.5 73.5t-86 43t-111.5 30.5
t-111.5 35.5t-86 60.5t-34.5 103q0 80 63 133.5t169 53.5q142 0 204 -84l-1 68q0 12 12 12h37q11 0 11 -12v-209q0 -11 -11 -11h-40q-12 0 -12 11v32q0 43 -49.5 88.5t-146.5 45.5q-75 0 -121.5 -36t-46.5 -92q0 -40 26 -68.5t67 -44t90.5 -28t99.5 -27t91 -34.5t67 -56
t26 -86q0 -87 -63 -143.5t-189 -56.5q-94 0 -155 39t-92 90v-110q2 -12 -11 -12z" />
    <glyph glyph-name="sacute" unicode="&#x15b;" horiz-adv-x="481" 
d="M337 707l-157 -127q-11 -8 -18 2l-16 18q-8 10 2 17l152 133q8 8 18 -2l20 -24q6 -10 -1 -17zM255 -7q-50 0 -88 16t-52.5 31.5t-22.5 30.5h-2q2 -58 2 -59q0 -12 -12 -12h-22q-12 0 -12 12v148q0 13 12 13h25q12 0 12 -12v-26q1 -4 4 -10t15 -22.5t27.5 -29t44.5 -22.5
t64 -10q60 0 91.5 24t31.5 67q0 31 -32.5 50.5t-78.5 31t-92 25t-78.5 44t-32.5 78.5q0 65 47 101.5t116 36.5q99 0 145 -59h2l-3 39q0 13 13 13h21q12 0 12 -13v-133q0 -12 -13 -12h-24q-12 0 -12 12v17q0 29 -34 58t-102 29q-44 0 -76 -24t-32 -66q0 -34 32.5 -54.5
t79 -32t93 -24.5t79 -42t32.5 -75q0 -60 -44.5 -99.5t-135.5 -39.5z" />
    <glyph glyph-name="Scircumflex" unicode="&#x15c;" horiz-adv-x="668" 
d="M490 826l-16 -18q-7 -9 -17 -2l-127 105l-126 -105q-10 -7 -17 2l-16 18q-8 10 2 17l149 130q4 4 9 4q4 0 9 -5l148 -129q10 -8 2 -17zM103 0h-37q-12 0 -12 12v228q0 12 12 12h40q12 0 12 -12v-22q0 -10 13 -34.5t38.5 -55t74 -53.5t108.5 -23q90 0 140 36t50 103
q0 44 -34.5 73.5t-86 43t-111.5 30.5t-111.5 35.5t-86 60.5t-34.5 103q0 80 63 133.5t169 53.5q142 0 204 -84l-1 68q0 12 12 12h37q11 0 11 -12v-209q0 -11 -11 -11h-40q-12 0 -12 11v32q0 43 -49.5 88.5t-146.5 45.5q-75 0 -121.5 -36t-46.5 -92q0 -40 26 -68.5t67 -44
t90.5 -28t99.5 -27t91 -34.5t67 -56t26 -86q0 -87 -63 -143.5t-189 -56.5q-94 0 -155 39t-92 90v-110q2 -12 -11 -12z" />
    <glyph glyph-name="scircumflex" unicode="&#x15d;" horiz-adv-x="481" 
d="M388 600l-16 -18q-7 -9 -17 -2l-127 105l-126 -105q-10 -7 -17 2l-16 18q-8 10 2 17l149 130q4 4 9 4q4 0 9 -5l148 -129q10 -8 2 -17zM255 -7q-50 0 -88 16t-52.5 31.5t-22.5 30.5h-2q2 -58 2 -59q0 -12 -12 -12h-22q-12 0 -12 12v148q0 13 12 13h25q12 0 12 -12v-26
q1 -4 4 -10t15 -22.5t27.5 -29t44.5 -22.5t64 -10q60 0 91.5 24t31.5 67q0 31 -32.5 50.5t-78.5 31t-92 25t-78.5 44t-32.5 78.5q0 65 47 101.5t116 36.5q99 0 145 -59h2l-3 39q0 13 13 13h21q12 0 12 -13v-133q0 -12 -13 -12h-24q-12 0 -12 12v17q0 29 -34 58t-102 29
q-44 0 -76 -24t-32 -66q0 -34 32.5 -54.5t79 -32t93 -24.5t79 -42t32.5 -75q0 -60 -44.5 -99.5t-135.5 -39.5z" />
    <glyph glyph-name="Scedilla" unicode="&#x15e;" horiz-adv-x="668" 
d="M330 -154q-37 0 -65 21q-9 6 -2 13l9 10q7 8 14 3q18 -12 42 -12q48 0 48 37q0 27 -55 27q-22 0 -16 16l12 35q-76 9 -126.5 45.5t-76.5 80.5v-110q2 -12 -11 -12h-37q-12 0 -12 12v228q0 12 12 12h40q12 0 12 -12v-22q0 -10 13 -34.5t38.5 -55t74 -53.5t108.5 -23
q90 0 140 36t50 103q0 44 -34.5 73.5t-86 43t-111.5 30.5t-111.5 35.5t-86 60.5t-34.5 103q0 80 63 133.5t169 53.5q142 0 204 -84l-1 68q0 12 12 12h37q11 0 11 -12v-209q0 -11 -11 -11h-40q-12 0 -12 11v32q0 43 -49.5 88.5t-146.5 45.5q-75 0 -121.5 -36t-46.5 -92
q0 -40 26 -68.5t67 -44t90.5 -28t99.5 -27t91 -34.5t67 -56t26 -86q0 -87 -63 -143.5t-189 -56.5h-9l-7 -20q71 0 71 -54q0 -33 -23 -53t-63 -20z" />
    <glyph glyph-name="scedilla" unicode="&#x15f;" horiz-adv-x="481" 
d="M242 -154q-37 0 -65 21q-9 6 -2 13l9 10q7 8 14 3q18 -12 42 -12q48 0 48 37q0 27 -55 27q-22 0 -16 16l11 33q-58 5 -91 29t-45 48h-2q2 -58 2 -59q0 -12 -12 -12h-22q-12 0 -12 12v148q0 13 12 13h25q12 0 12 -12v-26q1 -4 4 -10t15 -22.5t27.5 -29t44.5 -22.5t64 -10
q60 0 91.5 24t31.5 67q0 31 -32.5 50.5t-78.5 31t-92 25t-78.5 44t-32.5 78.5q0 65 47 101.5t116 36.5q99 0 145 -59h2l-3 39q0 13 13 13h21q12 0 12 -13v-133q0 -12 -13 -12h-24q-12 0 -12 12v17q0 29 -34 58t-102 29q-44 0 -76 -24t-32 -66q0 -34 32.5 -54.5t79 -32
t93 -24.5t79 -42t32.5 -75q0 -59 -42.5 -98t-128.5 -41l-7 -20q71 0 71 -54q0 -33 -23 -53t-63 -20z" />
    <glyph glyph-name="Scaron" unicode="&#x160;" horiz-adv-x="668" 
d="M489 937l-148 -129q-4 -4 -9 -4t-9 4l-149 129q-10 7 -2 17l16 18q7 9 17 2l126 -106l127 106q9 8 17 -2l16 -18q8 -9 -2 -17zM103 0h-37q-12 0 -12 12v228q0 12 12 12h40q12 0 12 -12v-22q0 -10 13 -34.5t38.5 -55t74 -53.5t108.5 -23q90 0 140 36t50 103
q0 44 -34.5 73.5t-86 43t-111.5 30.5t-111.5 35.5t-86 60.5t-34.5 103q0 80 63 133.5t169 53.5q142 0 204 -84l-1 68q0 12 12 12h37q11 0 11 -12v-209q0 -11 -11 -11h-40q-12 0 -12 11v32q0 43 -49.5 88.5t-146.5 45.5q-75 0 -121.5 -36t-46.5 -92q0 -40 26 -68.5t67 -44
t90.5 -28t99.5 -27t91 -34.5t67 -56t26 -86q0 -87 -63 -143.5t-189 -56.5q-94 0 -155 39t-92 90v-110q2 -12 -11 -12z" />
    <glyph glyph-name="scaron" unicode="&#x161;" horiz-adv-x="481" 
d="M389 711l-148 -129q-4 -4 -9 -4t-9 4l-149 129q-10 7 -2 17l16 18q7 9 17 2l126 -106l127 106q9 8 17 -2l16 -18q8 -9 -2 -17zM255 -7q-50 0 -88 16t-52.5 31.5t-22.5 30.5h-2q2 -58 2 -59q0 -12 -12 -12h-22q-12 0 -12 12v148q0 13 12 13h25q12 0 12 -12v-26q1 -4 4 -10
t15 -22.5t27.5 -29t44.5 -22.5t64 -10q60 0 91.5 24t31.5 67q0 31 -32.5 50.5t-78.5 31t-92 25t-78.5 44t-32.5 78.5q0 65 47 101.5t116 36.5q99 0 145 -59h2l-3 39q0 13 13 13h21q12 0 12 -13v-133q0 -12 -13 -12h-24q-12 0 -12 12v17q0 29 -34 58t-102 29q-44 0 -76 -24
t-32 -66q0 -34 32.5 -54.5t79 -32t93 -24.5t79 -42t32.5 -75q0 -60 -44.5 -99.5t-135.5 -39.5z" />
    <glyph glyph-name="Tcommaaccent" unicode="&#x162;" horiz-adv-x="730" 
d="M331 -206v12q0 6 6 6q15 0 28 14t13 43l-2 11q-5 -6 -19 -6q-15 0 -25 11t-10 29q0 17 11.5 28t28.5 11q48 0 48 -64q0 -52 -21.5 -76t-51.5 -24q-6 0 -6 5zM470 0h-215q-13 0 -13 12v30q0 13 13 13h79v608h-218v-103q0 -12 -12 -12h-38q-12 0 -12 12v146q0 12 12 12h598
q12 0 12 -12v-146q0 -12 -12 -12h-38q-12 0 -12 12v103h-217v-608h73q12 0 12 -13v-30q0 -12 -12 -12z" />
    <glyph glyph-name="tcommaaccent" unicode="&#x163;" horiz-adv-x="380" 
d="M172 -206v12q0 6 6 6q15 0 28 14t13 43l-2 11q-5 -6 -19 -6q-15 0 -25 11t-10 29q0 17 11.5 28t28.5 11q48 0 48 -64q0 -52 -21.5 -76t-51.5 -24q-6 0 -6 5zM336 60l15 -19q8 -8 -2 -16q-32 -32 -85 -32q-70 0 -109.5 41t-39.5 120v289h-61q-12 0 -12 12v25q0 12 12 12
h61v96q0 13 12 13h36q12 0 12 -13v-96h127q13 0 13 -12v-25q0 -12 -13 -12h-127v-287q0 -56 25 -84t69 -28q34 0 51 17q10 7 16 -1z" />
    <glyph glyph-name="Tcaron" unicode="&#x164;" horiz-adv-x="730" 
d="M494 937l-148 -129q-4 -4 -9 -4t-9 4l-149 129q-10 7 -2 17l16 18q7 9 17 2l126 -106l127 106q9 8 17 -2l16 -18q8 -9 -2 -17zM470 0h-215q-13 0 -13 12v30q0 13 13 13h79v608h-218v-103q0 -12 -12 -12h-38q-12 0 -12 12v146q0 12 12 12h598q12 0 12 -12v-146
q0 -12 -12 -12h-38q-12 0 -12 12v103h-217v-608h73q12 0 12 -13v-30q0 -12 -12 -12z" />
    <glyph glyph-name="tcaron" unicode="&#x165;" horiz-adv-x="380" 
d="M222 549v12q0 6 7 6q15 0 28 14t13 43l-2 10q-6 -5 -20 -5t-24.5 11t-10.5 28t11.5 28.5t28.5 11.5q48 0 48 -64q0 -53 -21 -77t-51 -24q-7 0 -7 6zM351 41l-15 19q-6 8 -16 1q-17 -17 -51 -17q-44 0 -69 28t-25 84v287h127q13 0 13 12v25q0 12 -13 12h-127v96
q0 13 -12 13h-36q-12 0 -12 -13v-96h-61q-12 0 -12 -12v-25q0 -12 12 -12h61v-289q0 -79 39.5 -120t109.5 -41q53 0 85 32q10 8 2 16z" />
    <glyph glyph-name="Tbar" unicode="&#x166;" horiz-adv-x="730" 
d="M470 0h-215q-13 0 -13 12v30q0 13 13 13h79v384h-111q-12 0 -12 12v28q0 12 12 12h111v172h-218v-103q0 -12 -12 -12h-38q-12 0 -12 12v146q0 12 12 12h598q12 0 12 -12v-146q0 -12 -12 -12h-38q-12 0 -12 12v103h-217v-172h112q13 0 13 -12v-28q0 -12 -13 -12h-112v-384
h73q12 0 12 -13v-30q0 -12 -12 -12z" />
    <glyph glyph-name="tbar" unicode="&#x167;" horiz-adv-x="393" 
d="M349 60l15 -19q8 -8 -2 -16q-32 -32 -85 -32q-70 0 -109.5 41t-39.5 120v289h-61q-12 0 -12 12v25q0 12 12 12h61v28h-59q-11 0 -11 11v14q0 11 11 11h59v32q0 13 12 13h36q12 0 12 -13v-32h78q11 0 11 -11v-14q0 -11 -11 -11h-78v-28h127q13 0 13 -12v-25q0 -12 -13 -12
h-127v-287q0 -56 25 -84t69 -28q34 0 51 17q10 7 16 -1z" />
    <glyph glyph-name="Utilde" unicode="&#x168;" horiz-adv-x="822" 
d="M612 261v402h-80q-12 0 -12 12v31q0 12 12 12h224q11 0 11 -12v-31q0 -12 -11 -12h-81v-393q0 -136 -68 -206.5t-196 -70.5t-196.5 70.5t-68.5 206.5v393h-80q-12 0 -12 12v31q0 12 12 12h224q11 0 11 -12v-31q0 -12 -11 -12h-81v-396q0 -103 46.5 -159t155.5 -56
q201 0 201 209zM535 901h15q12 0 12 -12q0 -102 -80 -102q-30 0 -53.5 15.5t-42.5 31t-37 15.5q-22 0 -31.5 -13t-9.5 -44q0 -12 -12 -12h-15q-11 0 -11 12q0 96 77 96q34 0 72.5 -31.5t60.5 -31.5q25 0 34.5 13.5t9.5 50.5q0 12 11 12z" />
    <glyph glyph-name="utilde" unicode="&#x169;" horiz-adv-x="604" 
d="M550 0h-72q-23 0 -33 8.5t-10 31.5v40h-2q-45 -87 -164 -87q-81 0 -127 46.5t-46 126.5v277h-59q-12 0 -12 11v26q0 12 12 12h76q23 0 33 -8.5t10 -31.5v-277q0 -61 32 -95.5t90 -34.5q32 0 59.5 10t44 23.5t28.5 28t16.5 23.5t4.5 10v303h-57q-12 0 -12 11v26
q0 12 12 12h106q11 0 11 -12v-431h59q12 0 12 -11v-26q0 -12 -12 -12zM405 675h15q12 0 12 -12q0 -102 -80 -102q-30 0 -53.5 15.5t-42.5 31t-37 15.5q-22 0 -31.5 -13t-9.5 -44q0 -12 -12 -12h-15q-11 0 -11 12q0 96 77 96q34 0 72.5 -31.5t60.5 -31.5q25 0 34.5 13.5
t9.5 50.5q0 12 11 12z" />
    <glyph glyph-name="Umacron" unicode="&#x16a;" horiz-adv-x="822" 
d="M612 261v402h-80q-12 0 -12 12v31q0 12 12 12h224q11 0 11 -12v-31q0 -12 -11 -12h-81v-393q0 -136 -68 -206.5t-196 -70.5t-196.5 70.5t-68.5 206.5v393h-80q-12 0 -12 12v31q0 12 12 12h224q11 0 11 -12v-31q0 -12 -11 -12h-81v-396q0 -103 46.5 -159t155.5 -56
q201 0 201 209zM551 782h-286q-12 0 -12 12v27q0 12 12 12h286q12 0 12 -12v-27q0 -12 -12 -12z" />
    <glyph glyph-name="umacron" unicode="&#x16b;" horiz-adv-x="604" 
d="M550 0h-72q-23 0 -33 8.5t-10 31.5v40h-2q-45 -87 -164 -87q-81 0 -127 46.5t-46 126.5v277h-59q-12 0 -12 11v26q0 12 12 12h76q23 0 33 -8.5t10 -31.5v-277q0 -61 32 -95.5t90 -34.5q32 0 59.5 10t44 23.5t28.5 28t16.5 23.5t4.5 10v303h-57q-12 0 -12 11v26
q0 12 12 12h106q11 0 11 -12v-431h59q12 0 12 -11v-26q0 -12 -12 -12zM428 556h-286q-12 0 -12 12v27q0 12 12 12h286q12 0 12 -12v-27q0 -12 -12 -12z" />
    <glyph glyph-name="Ubreve" unicode="&#x16c;" horiz-adv-x="822" 
d="M612 261v402h-80q-12 0 -12 12v31q0 12 12 12h224q11 0 11 -12v-31q0 -12 -11 -12h-81v-393q0 -136 -68 -206.5t-196 -70.5t-196.5 70.5t-68.5 206.5v393h-80q-12 0 -12 12v31q0 12 12 12h224q11 0 11 -12v-31q0 -12 -11 -12h-81v-396q0 -103 46.5 -159t155.5 -56
q201 0 201 209zM519 945h21q12 0 12 -12q0 -67 -37 -102t-97 -35t-97 35t-37 102q0 12 12 12h21q12 0 12 -12q0 -46 25 -71.5t63 -25.5t64 25.5t26 71.5q0 12 12 12z" />
    <glyph glyph-name="ubreve" unicode="&#x16d;" horiz-adv-x="604" 
d="M550 0h-72q-23 0 -33 8.5t-10 31.5v40h-2q-45 -87 -164 -87q-81 0 -127 46.5t-46 126.5v277h-59q-12 0 -12 11v26q0 12 12 12h76q23 0 33 -8.5t10 -31.5v-277q0 -61 32 -95.5t90 -34.5q32 0 59.5 10t44 23.5t28.5 28t16.5 23.5t4.5 10v303h-57q-12 0 -12 11v26
q0 12 12 12h106q11 0 11 -12v-431h59q12 0 12 -11v-26q0 -12 -12 -12zM384 719h21q12 0 12 -12q0 -67 -37 -102t-97 -35t-97 35t-37 102q0 12 12 12h21q12 0 12 -12q0 -46 25 -71.5t63 -25.5t64 25.5t26 71.5q0 12 12 12z" />
    <glyph glyph-name="Uring" unicode="&#x16e;" horiz-adv-x="822" 
d="M476 844q-6 -26 -28.5 -40t-47.5 -9q-26 6 -40.5 28.5t-9.5 48.5q6 26 28.5 40t48.5 9q26 -6 40.5 -29t8.5 -48zM448 853q2 15 -7 26.5t-24 12.5q-14 2 -25 -6.5t-13 -22.5q-2 -15 7 -26t23 -13t25.5 6.5t13.5 22.5zM612 261v402h-80q-12 0 -12 12v31q0 12 12 12h224
q11 0 11 -12v-31q0 -12 -11 -12h-81v-393q0 -136 -68 -206.5t-196 -70.5t-196.5 70.5t-68.5 206.5v393h-80q-12 0 -12 12v31q0 12 12 12h224q11 0 11 -12v-31q0 -12 -11 -12h-81v-396q0 -103 46.5 -159t155.5 -56q201 0 201 209z" />
    <glyph glyph-name="uring" unicode="&#x16f;" horiz-adv-x="604" 
d="M351 618q-6 -26 -28.5 -40t-47.5 -9q-26 6 -40.5 28.5t-9.5 48.5q6 26 28.5 40t48.5 9q26 -6 40.5 -29t8.5 -48zM323 627q2 15 -7 26.5t-24 12.5q-14 2 -25 -6.5t-13 -22.5q-2 -15 7 -26t23 -13t25.5 6.5t13.5 22.5zM550 0h-72q-23 0 -33 8.5t-10 31.5v40h-2
q-45 -87 -164 -87q-81 0 -127 46.5t-46 126.5v277h-59q-12 0 -12 11v26q0 12 12 12h76q23 0 33 -8.5t10 -31.5v-277q0 -61 32 -95.5t90 -34.5q32 0 59.5 10t44 23.5t28.5 28t16.5 23.5t4.5 10v303h-57q-12 0 -12 11v26q0 12 12 12h106q11 0 11 -12v-431h59q12 0 12 -11v-26
q0 -12 -12 -12z" />
    <glyph glyph-name="Uhungarumlaut" unicode="&#x170;" horiz-adv-x="822" 
d="M612 261v402h-80q-12 0 -12 12v31q0 12 12 12h224q11 0 11 -12v-31q0 -12 -11 -12h-81v-393q0 -136 -68 -206.5t-196 -70.5t-196.5 70.5t-68.5 206.5v393h-80q-12 0 -12 12v31q0 12 12 12h224q11 0 11 -12v-31q0 -12 -11 -12h-81v-396q0 -103 46.5 -159t155.5 -56
q201 0 201 209zM461 937l-157 -127q-10 -7 -18 2l-16 19q-9 9 2 16l152 133q8 8 18 -2l20 -24q6 -10 -1 -17zM614 937l-157 -127q-9 -7 -18 2l-16 19q-8 10 2 16l152 133q10 8 18 -2l20 -24q7 -9 -1 -17z" />
    <glyph glyph-name="uhungarumlaut" unicode="&#x171;" horiz-adv-x="604" 
d="M550 0h-72q-23 0 -33 8.5t-10 31.5v40h-2q-45 -87 -164 -87q-81 0 -127 46.5t-46 126.5v277h-59q-12 0 -12 11v26q0 12 12 12h76q23 0 33 -8.5t10 -31.5v-277q0 -61 32 -95.5t90 -34.5q32 0 59.5 10t44 23.5t28.5 28t16.5 23.5t4.5 10v303h-57q-12 0 -12 11v26
q0 12 12 12h106q11 0 11 -12v-431h59q12 0 12 -11v-26q0 -12 -12 -12zM323 711l-157 -127q-10 -7 -18 2l-16 19q-9 9 2 16l152 133q8 8 18 -2l20 -24q6 -10 -1 -17zM476 711l-157 -127q-9 -7 -18 2l-16 19q-8 10 2 16l152 133q10 8 18 -2l20 -24q7 -9 -1 -17z" />
    <glyph glyph-name="Uogonek" unicode="&#x172;" horiz-adv-x="822" 
d="M612 261v402h-80q-12 0 -12 12v31q0 12 12 12h224q11 0 11 -12v-31q0 -12 -11 -12h-81v-393q0 -132 -64 -202t-184 -75q-61 -33 -61 -76q0 -17 11.5 -26.5t29.5 -9.5q17 0 37 9q13 7 17 0l7 -10q6 -9 -3 -16q-34 -19 -63 -19q-34 0 -54.5 19.5t-20.5 50.5q0 51 55 79
q-115 8 -175.5 77.5t-60.5 198.5v393h-80q-12 0 -12 12v31q0 12 12 12h224q11 0 11 -12v-31q0 -12 -11 -12h-81v-396q0 -103 46.5 -159t155.5 -56q201 0 201 209z" />
    <glyph glyph-name="uogonek" unicode="&#x173;" horiz-adv-x="604" 
d="M550 0h-15q-74 -35 -74 -83q0 -17 11.5 -26.5t29.5 -9.5q17 0 37 9q13 7 17 0l7 -10q6 -9 -3 -16q-34 -19 -63 -19q-34 0 -54.5 19.5t-20.5 50.5q0 33 22 55t46 30h-12q-23 0 -33 8.5t-10 31.5v40h-2q-45 -87 -164 -87q-81 0 -127 46.5t-46 126.5v277h-59q-12 0 -12 11
v26q0 12 12 12h76q23 0 33 -8.5t10 -31.5v-277q0 -61 32 -95.5t90 -34.5q32 0 59.5 10t44 23.5t28.5 28t16.5 23.5t4.5 10v303h-57q-12 0 -12 11v26q0 12 12 12h106q11 0 11 -12v-431h59q12 0 12 -11v-26q0 -12 -12 -12z" />
    <glyph glyph-name="Wcircumflex" unicode="&#x174;" horiz-adv-x="1092" 
d="M697 826l-16 -18q-7 -9 -17 -2l-127 105l-126 -105q-10 -7 -17 2l-16 18q-8 10 2 17l149 130q4 4 9 4q4 0 9 -5l148 -129q10 -8 2 -17zM740 0h-30q-30 0 -38 33l-125 553h-3l-124 -553q-8 -33 -38 -33h-30q-27 0 -38 33l-195 630h-66q-11 0 -11 12v31q0 12 11 12h205
q11 0 11 -12v-31q0 -12 -11 -12h-72l179 -595h5l146 650h60l146 -650h5l179 595h-72q-12 0 -12 12v31q0 12 12 12h204q12 0 12 -12v-31q0 -12 -12 -12h-66l-195 -630q-9 -33 -37 -33z" />
    <glyph glyph-name="wcircumflex" unicode="&#x175;" horiz-adv-x="789" 
d="M558 600l-16 -18q-7 -9 -17 -2l-127 105l-126 -105q-10 -7 -17 2l-16 18q-8 10 2 17l149 130q4 4 9 4q4 0 9 -5l148 -129q10 -8 2 -17zM547 0h-33q-15 0 -19 16l-98 372h-3l-100 -372q-3 -16 -18 -16h-33q-12 0 -18 16l-142 427h-57q-11 0 -11 11v26q0 12 11 12h168
q12 0 12 -12v-26q0 -11 -12 -11h-49l114 -369h2l96 369h-46q-12 0 -12 11v26q0 12 12 12h169q11 0 11 -12v-26q0 -11 -11 -11h-47l96 -369h2l113 369h-48q-12 0 -12 11v26q0 12 12 12h168q11 0 11 -12v-26q0 -11 -11 -11h-57l-142 -427q-6 -16 -18 -16z" />
    <glyph glyph-name="Ycircumflex" unicode="&#x176;" 
d="M488 0h-224q-12 0 -12 12v31q0 12 12 12h80v238q-1 1 -47 84t-98 175t-65 111h-68q-12 0 -12 12v31q0 12 12 12h204q12 0 12 -12v-31q0 -12 -12 -12h-70l174 -312h5l172 312h-70q-12 0 -12 12v31q0 12 12 12h204q12 0 12 -12v-31q0 -12 -12 -12h-69q-13 -19 -65 -111.5
t-98 -175.5l-46 -83v-238h81q11 0 11 -12v-31q0 -12 -11 -12zM531 826l-16 -18q-7 -9 -17 -2l-127 105l-126 -105q-10 -7 -17 2l-16 18q-8 10 2 17l149 130q4 4 9 4q4 0 9 -5l148 -129q10 -8 2 -17z" />
    <glyph glyph-name="ycircumflex" unicode="&#x177;" horiz-adv-x="573" 
d="M241 -71l31 84h-7q-11 0 -20 22l-164 408h-57q-12 0 -12 11v26q0 12 12 12h165q12 0 12 -12v-26q0 -11 -12 -11h-46l147 -371h2l133 371h-48q-12 0 -12 11v26q0 12 12 12h167q12 0 12 -12v-26q0 -11 -12 -11h-56l-192 -515q-31 -84 -65.5 -123t-96.5 -39q-53 0 -85 32
q-9 9 -2 17l15 18q8 8 16 2q18 -18 51 -18q41 0 64.5 24t47.5 88zM454 600l-16 -18q-7 -9 -17 -2l-127 105l-126 -105q-10 -7 -17 2l-16 18q-8 10 2 17l149 130q4 4 9 4q4 0 9 -5l148 -129q10 -8 2 -17z" />
    <glyph glyph-name="Ydieresis" unicode="&#x178;" 
d="M488 0h-224q-12 0 -12 12v31q0 12 12 12h80v238q-1 1 -47 84t-98 175t-65 111h-68q-12 0 -12 12v31q0 12 12 12h204q12 0 12 -12v-31q0 -12 -12 -12h-70l174 -312h5l172 312h-70q-12 0 -12 12v31q0 12 12 12h204q12 0 12 -12v-31q0 -12 -12 -12h-69q-13 -19 -65 -111.5
t-98 -175.5l-46 -83v-238h81q11 0 11 -12v-31q0 -12 -11 -12zM341 816q0 -15 -10.5 -25.5t-26.5 -10.5q-15 0 -25 10.5t-10 25.5t10 26t25 11q16 0 26.5 -11t10.5 -26zM491 816q0 -15 -11 -25.5t-26 -10.5t-25.5 10.5t-10.5 25.5t10.5 26t25.5 11t26 -11t11 -26z" />
    <glyph glyph-name="Zacute" unicode="&#x179;" horiz-adv-x="639" 
d="M432 933l-157 -127q-11 -8 -18 2l-16 18q-8 10 2 17l152 133q8 8 18 -2l20 -24q6 -10 -1 -17zM572 0h-506q-12 0 -12 12v27q0 6 17 27l426 597h-381v-78q0 -12 -12 -12h-38q-12 0 -12 12v121q0 12 12 12h506q12 0 12 -12v-23q0 -11 -18 -34l-425 -594h382v78q0 12 12 12
h37q12 0 12 -12v-121q0 -12 -12 -12z" />
    <glyph glyph-name="zacute" unicode="&#x17a;" horiz-adv-x="516" 
d="M374 707l-157 -127q-11 -8 -18 2l-16 18q-8 10 2 17l152 133q8 8 18 -2l20 -24q6 -10 -1 -17zM463 0h-410q-11 0 -11 12v30q0 15 12 27l345 374h-304v-83q0 -11 -12 -11h-30q-11 0 -11 11v120q0 12 11 12h410q12 0 12 -12v-23q0 -14 -12 -24l-352 -384h311v87q0 11 11 11
h30q12 0 12 -11v-124q0 -12 -12 -12z" />
    <glyph glyph-name="Zdotaccent" unicode="&#x17b;" horiz-adv-x="639" 
d="M572 0h-506q-12 0 -12 12v27q0 6 17 27l426 597h-381v-78q0 -12 -12 -12h-38q-12 0 -12 12v121q0 12 12 12h506q12 0 12 -12v-23q0 -11 -18 -34l-425 -594h382v78q0 12 12 12h37q12 0 12 -12v-121q0 -12 -12 -12zM386 842q0 -20 -14.5 -34t-34.5 -14t-34 14t-14 34
t14 34.5t34 14.5t34.5 -14.5t14.5 -34.5z" />
    <glyph glyph-name="zdotaccent" unicode="&#x17c;" horiz-adv-x="516" 
d="M463 0h-410q-11 0 -11 12v30q0 15 12 27l345 374h-304v-83q0 -11 -12 -11h-30q-11 0 -11 11v120q0 12 11 12h410q12 0 12 -12v-23q0 -14 -12 -24l-352 -384h311v87q0 11 11 11h30q12 0 12 -11v-124q0 -12 -12 -12zM318 616q0 -20 -14.5 -34t-34.5 -14t-34 14t-14 34
t14 34.5t34 14.5t34.5 -14.5t14.5 -34.5z" />
    <glyph glyph-name="Zcaron" unicode="&#x17d;" horiz-adv-x="639" 
d="M494 937l-148 -129q-4 -4 -9 -4t-9 4l-149 129q-10 7 -2 17l16 18q7 9 17 2l126 -106l127 106q9 8 17 -2l16 -18q8 -9 -2 -17zM572 0h-506q-12 0 -12 12v27q0 6 17 27l426 597h-381v-78q0 -12 -12 -12h-38q-12 0 -12 12v121q0 12 12 12h506q12 0 12 -12v-23
q0 -11 -18 -34l-425 -594h382v78q0 12 12 12h37q12 0 12 -12v-121q0 -12 -12 -12z" />
    <glyph glyph-name="zcaron" unicode="&#x17e;" horiz-adv-x="516" 
d="M425 711l-148 -129q-4 -4 -9 -4t-9 4l-149 129q-10 7 -2 17l16 18q7 9 17 2l126 -106l127 106q9 8 17 -2l16 -18q8 -9 -2 -17zM463 0h-410q-11 0 -11 12v30q0 15 12 27l345 374h-304v-83q0 -11 -12 -11h-30q-11 0 -11 11v120q0 12 11 12h410q12 0 12 -12v-23
q0 -14 -12 -24l-352 -384h311v87q0 11 11 11h30q12 0 12 -11v-124q0 -12 -12 -12z" />
    <glyph glyph-name="florin" unicode="&#x192;" horiz-adv-x="474" 
d="M222 -70v514h-62q-12 0 -12 12v26q0 12 12 12h62v68q0 79 39.5 120.5t109.5 41.5q42 0 85 -32q9 -9 2 -17l-14 -17q-9 -9 -17 -2q-17 17 -51 17q-44 0 -69 -28t-25 -84v-67h128q11 0 11 -12v-26q0 -12 -11 -12h-128v-516q0 -79 -40 -120t-110 -41q-14 0 -27.5 3t-23 7.5
t-16.5 8.5t-13 8l-5 5q-9 9 -1 16l14 18q7 8 16 2q17 -17 52 -17q44 0 69 28t25 84z" />
    <glyph glyph-name="AEacute" unicode="&#x1fc;" horiz-adv-x="1036" 
d="M753 933l-157 -127q-11 -8 -18 2l-16 18q-8 10 2 17l152 133q8 8 18 -2l20 -24q6 -10 -1 -17zM970 0h-521q-12 0 -12 12v31q0 12 12 12h80v275h-211l-120 -275h72q11 0 11 -12v-31q0 -12 -11 -12h-204q-12 0 -12 12v31q0 12 12 12h68l264 608h-49q-12 0 -12 12v31
q0 12 12 12h621q11 0 11 -12v-142q0 -11 -11 -11h-36q-12 0 -12 11v99h-330v-278h279q12 0 12 -12v-31q0 -12 -12 -12h-279v-275h330v98q0 12 12 12h36q11 0 11 -12v-141q0 -12 -11 -12zM529 385v278h-67l-122 -278h189z" />
    <glyph glyph-name="aeacute" unicode="&#x1fd;" horiz-adv-x="898" 
d="M596 707l-157 -127q-11 -8 -18 2l-16 18q-8 10 2 17l152 133q8 8 18 -2l20 -24q6 -10 -1 -17zM645 -7q-69 0 -124.5 32.5t-85.5 91.5q-18 -28 -43 -52.5t-76.5 -48.5t-111.5 -24q-69 0 -115.5 37t-46.5 100q0 154 273 154h91v20q0 80 -38 112t-108 32q-31 0 -58.5 -5
t-45 -12.5t-30 -14.5t-18.5 -12l-6 -5q-10 -6 -15 2l-17 22q-7 8 1 16q71 61 189 61q152 0 188 -107q30 52 79.5 79.5t108.5 27.5q103 0 161.5 -67t56.5 -181q0 -12 -12 -12h-375q2 -93 56 -144.5t125 -51.5q61 0 106.5 27.5t61.5 56.5q7 9 17 3l17 -16q9 -6 4 -17
q-7 -12 -21.5 -27t-39.5 -33.5t-64.5 -31t-83.5 -12.5zM414 167q-8 32 -8 65h-88q-49 0 -83.5 -3.5t-66.5 -13t-48.5 -30.5t-16.5 -52q0 -37 31.5 -63t82.5 -26q36 0 69.5 12.5t53 25.5t39 36t23.5 29t11 19zM468 286h325q-3 75 -44 119.5t-111 44.5q-64 0 -112.5 -42.5
t-57.5 -121.5z" />
    <glyph glyph-name="Oslashacute" unicode="&#x1fe;" horiz-adv-x="796" 
d="M297 -50h-38q-13 0 -8 11l16 57q-97 39 -155 130.5t-58 214.5q0 163 101 262t244 99q37 0 79 -10l18 58q3 12 16 12h38q12 0 7 -12l-22 -75q93 -39 150 -126.5t57 -207.5q0 -165 -97.5 -267.5t-245.5 -102.5q-33 0 -74 9l-13 -41q-3 -11 -15 -11zM286 79l175 577
q-33 10 -66 10q-48 -1 -94.5 -20t-87.5 -55t-66 -96t-25 -135q0 -106 45.5 -177.5t118.5 -103.5zM342 60q34 -8 63 -8q107 2 188 83t81 225q0 102 -44.5 171.5t-113.5 103.5zM562 935l-157 -127q-11 -8 -18 2l-16 18q-8 10 2 17l152 133q8 8 18 -2l20 -24q6 -10 -1 -17z" />
    <glyph glyph-name="oslashacute" unicode="&#x1ff;" horiz-adv-x="573" 
d="M173 -29h-33q-14 0 -9 11l23 47q-52 32 -82 88.5t-30 131.5q0 115 70.5 182.5t174.5 67.5q52 0 96 -19l9 18q4 12 16 12h33q11 0 8 -12l-21 -40q103 -71 103 -209q0 -115 -70 -185.5t-174 -70.5q-45 0 -87 14l-13 -25q-6 -11 -14 -11zM180 80l179 351q-36 17 -72 17
q-75 0 -130 -55t-55 -146q0 -108 78 -167zM225 56q29 -12 62 -12q76 0 130 56t54 147q0 99 -70 157zM394 707l-157 -127q-11 -8 -18 2l-16 18q-8 10 2 17l152 133q8 8 18 -2l20 -24q6 -10 -1 -17z" />
    <glyph glyph-name="Scommaaccent" unicode="&#x218;" horiz-adv-x="668" 
d="M309 -206v12q0 6 6 6q15 0 28 14t13 43l-2 11q-5 -6 -19 -6q-15 0 -25 11t-10 29q0 17 11.5 28t28.5 11q48 0 48 -64q0 -52 -21.5 -76t-51.5 -24q-6 0 -6 5zM103 0h-37q-12 0 -12 12v228q0 12 12 12h40q12 0 12 -12v-22q0 -10 13 -34.5t38.5 -55t74 -53.5t108.5 -23
q90 0 140 36t50 103q0 44 -34.5 73.5t-86 43t-111.5 30.5t-111.5 35.5t-86 60.5t-34.5 103q0 80 63 133.5t169 53.5q142 0 204 -84l-1 68q0 12 12 12h37q11 0 11 -12v-209q0 -11 -11 -11h-40q-12 0 -12 11v32q0 43 -49.5 88.5t-146.5 45.5q-75 0 -121.5 -36t-46.5 -92
q0 -40 26 -68.5t67 -44t90.5 -28t99.5 -27t91 -34.5t67 -56t26 -86q0 -87 -63 -143.5t-189 -56.5q-94 0 -155 39t-92 90v-110q2 -12 -11 -12z" />
    <glyph glyph-name="scommaaccent" unicode="&#x219;" horiz-adv-x="481" 
d="M202 -206v12q0 6 6 6q15 0 28 14t13 43l-2 11q-5 -6 -19 -6q-15 0 -25 11t-10 29q0 17 11.5 28t28.5 11q48 0 48 -64q0 -52 -21.5 -76t-51.5 -24q-6 0 -6 5zM255 -7q-50 0 -88 16t-52.5 31.5t-22.5 30.5h-2q2 -58 2 -59q0 -12 -12 -12h-22q-12 0 -12 12v148q0 13 12 13
h25q12 0 12 -12v-26q1 -4 4 -10t15 -22.5t27.5 -29t44.5 -22.5t64 -10q60 0 91.5 24t31.5 67q0 31 -32.5 50.5t-78.5 31t-92 25t-78.5 44t-32.5 78.5q0 65 47 101.5t116 36.5q99 0 145 -59h2l-3 39q0 13 13 13h21q12 0 12 -13v-133q0 -12 -13 -12h-24q-12 0 -12 12v17
q0 29 -34 58t-102 29q-44 0 -76 -24t-32 -66q0 -34 32.5 -54.5t79 -32t93 -24.5t79 -42t32.5 -75q0 -60 -44.5 -99.5t-135.5 -39.5z" />
    <glyph glyph-name="circumflex" unicode="&#x2c6;" horiz-adv-x="401" 
d="M360 600l-16 -18q-7 -9 -17 -2l-127 105l-126 -105q-10 -7 -17 2l-16 18q-8 10 2 17l149 130q4 4 9 4q4 0 9 -5l148 -129q10 -8 2 -17z" />
    <glyph glyph-name="caron" unicode="&#x2c7;" horiz-adv-x="401" 
d="M358 711l-148 -129q-4 -4 -9 -4t-9 4l-149 129q-10 7 -2 17l16 18q7 9 17 2l126 -106l127 106q9 8 17 -2l16 -18q8 -9 -2 -17z" />
    <glyph glyph-name="breve" unicode="&#x2d8;" horiz-adv-x="344" 
d="M273 719h21q12 0 12 -12q0 -67 -37 -102t-97 -35t-97 35t-37 102q0 12 12 12h21q12 0 12 -12q0 -46 25 -71.5t63 -25.5t64 25.5t26 71.5q0 12 12 12z" />
    <glyph glyph-name="dotaccent" unicode="&#x2d9;" horiz-adv-x="170" 
d="M135 616q0 -20 -14.5 -34t-34.5 -14t-34 14t-14 34t14 34.5t34 14.5t34.5 -14.5t14.5 -34.5z" />
    <glyph glyph-name="ring" unicode="&#x2da;" horiz-adv-x="226" 
d="M176 618q-6 -26 -28.5 -40t-47.5 -9q-26 6 -40.5 28.5t-9.5 48.5q6 26 28.5 40t48.5 9q26 -6 40.5 -29t8.5 -48zM148 627q2 15 -7 26.5t-24 12.5q-14 2 -25 -6.5t-13 -22.5q-2 -15 7 -26t23 -13t25.5 6.5t13.5 22.5z" />
    <glyph glyph-name="ogonek" unicode="&#x2db;" horiz-adv-x="220" 
d="M172 -110l7 -10q6 -9 -3 -16q-34 -19 -63 -19q-34 0 -54.5 19.5t-20.5 50.5q0 40 32 64t49 24h39q-77 -44 -81 -86q0 -17 11.5 -26.5t29.5 -9.5q17 0 37 9q13 7 17 0z" />
    <glyph glyph-name="tilde" unicode="&#x2dc;" horiz-adv-x="367" 
d="M303 675h15q12 0 12 -12q0 -102 -80 -102q-30 0 -53.5 15.5t-42.5 31t-37 15.5q-22 0 -31.5 -13t-9.5 -44q0 -12 -12 -12h-15q-11 0 -11 12q0 96 77 96q34 0 72.5 -31.5t60.5 -31.5q25 0 34.5 13.5t9.5 50.5q0 12 11 12z" />
    <glyph glyph-name="hungarumlaut" unicode="&#x2dd;" horiz-adv-x="427" 
d="M232 711l-157 -127q-10 -7 -18 2l-16 19q-9 9 2 16l152 133q8 8 18 -2l20 -24q6 -10 -1 -17zM385 711l-157 -127q-9 -7 -18 2l-16 19q-8 10 2 16l152 133q10 8 18 -2l20 -24q7 -9 -1 -17z" />
    <glyph glyph-name="Wgrave" unicode="&#x1e80;" horiz-adv-x="1092" 
d="M740 0h-30q-30 0 -38 33l-125 553h-3l-124 -553q-8 -33 -38 -33h-30q-27 0 -38 33l-195 630h-66q-11 0 -11 12v31q0 12 11 12h205q11 0 11 -12v-31q0 -12 -11 -12h-72l179 -595h5l146 650h60l146 -650h5l179 595h-72q-12 0 -12 12v31q0 12 12 12h204q12 0 12 -12v-31
q0 -12 -12 -12h-66l-195 -630q-9 -33 -37 -33zM597 827l-16 -19q-9 -9 -18 -2l-157 127q-8 8 -1 17l20 24q8 10 18 2l152 -133q10 -6 2 -16z" />
    <glyph glyph-name="wgrave" unicode="&#x1e81;" horiz-adv-x="789" 
d="M547 0h-33q-15 0 -19 16l-98 372h-3l-100 -372q-3 -16 -18 -16h-33q-12 0 -18 16l-142 427h-57q-11 0 -11 11v26q0 12 11 12h168q12 0 12 -12v-26q0 -11 -12 -11h-49l114 -369h2l96 369h-46q-12 0 -12 11v26q0 12 12 12h169q11 0 11 -12v-26q0 -11 -11 -11h-47l96 -369h2
l113 369h-48q-12 0 -12 11v26q0 12 12 12h168q11 0 11 -12v-26q0 -11 -11 -11h-57l-142 -427q-6 -16 -18 -16zM479 601l-16 -19q-9 -9 -18 -2l-157 127q-8 8 -1 17l20 24q8 10 18 2l152 -133q10 -6 2 -16z" />
    <glyph glyph-name="Wacute" unicode="&#x1e82;" horiz-adv-x="1092" 
d="M714 933l-157 -127q-11 -8 -18 2l-16 18q-8 10 2 17l152 133q8 8 18 -2l20 -24q6 -10 -1 -17zM740 0h-30q-30 0 -38 33l-125 553h-3l-124 -553q-8 -33 -38 -33h-30q-27 0 -38 33l-195 630h-66q-11 0 -11 12v31q0 12 11 12h205q11 0 11 -12v-31q0 -12 -11 -12h-72
l179 -595h5l146 650h60l146 -650h5l179 595h-72q-12 0 -12 12v31q0 12 12 12h204q12 0 12 -12v-31q0 -12 -12 -12h-66l-195 -630q-9 -33 -37 -33z" />
    <glyph glyph-name="wacute" unicode="&#x1e83;" horiz-adv-x="789" 
d="M503 707l-157 -127q-11 -8 -18 2l-16 18q-8 10 2 17l152 133q8 8 18 -2l20 -24q6 -10 -1 -17zM547 0h-33q-15 0 -19 16l-98 372h-3l-100 -372q-3 -16 -18 -16h-33q-12 0 -18 16l-142 427h-57q-11 0 -11 11v26q0 12 11 12h168q12 0 12 -12v-26q0 -11 -12 -11h-49l114 -369
h2l96 369h-46q-12 0 -12 11v26q0 12 12 12h169q11 0 11 -12v-26q0 -11 -11 -11h-47l96 -369h2l113 369h-48q-12 0 -12 11v26q0 12 12 12h168q11 0 11 -12v-26q0 -11 -11 -11h-57l-142 -427q-6 -16 -18 -16z" />
    <glyph glyph-name="Wdieresis" unicode="&#x1e84;" horiz-adv-x="1092" 
d="M508 816q0 -15 -10.5 -25.5t-26.5 -10.5q-15 0 -25 10.5t-10 25.5t10 26t25 11q16 0 26.5 -11t10.5 -26zM658 816q0 -15 -11 -25.5t-26 -10.5t-25.5 10.5t-10.5 25.5t10.5 26t25.5 11t26 -11t11 -26zM740 0h-30q-30 0 -38 33l-125 553h-3l-124 -553q-8 -33 -38 -33h-30
q-27 0 -38 33l-195 630h-66q-11 0 -11 12v31q0 12 11 12h205q11 0 11 -12v-31q0 -12 -11 -12h-72l179 -595h5l146 650h60l146 -650h5l179 595h-72q-12 0 -12 12v31q0 12 12 12h204q12 0 12 -12v-31q0 -12 -12 -12h-66l-195 -630q-9 -33 -37 -33z" />
    <glyph glyph-name="wdieresis" unicode="&#x1e85;" horiz-adv-x="789" 
d="M361 590q0 -15 -10.5 -25.5t-26.5 -10.5q-15 0 -25 10.5t-10 25.5t10 26t25 11q16 0 26.5 -11t10.5 -26zM511 590q0 -15 -11 -25.5t-26 -10.5t-25.5 10.5t-10.5 25.5t10.5 26t25.5 11t26 -11t11 -26zM547 0h-33q-15 0 -19 16l-98 372h-3l-100 -372q-3 -16 -18 -16h-33
q-12 0 -18 16l-142 427h-57q-11 0 -11 11v26q0 12 11 12h168q12 0 12 -12v-26q0 -11 -12 -11h-49l114 -369h2l96 369h-46q-12 0 -12 11v26q0 12 12 12h169q11 0 11 -12v-26q0 -11 -11 -11h-47l96 -369h2l113 369h-48q-12 0 -12 11v26q0 12 12 12h168q11 0 11 -12v-26
q0 -11 -11 -11h-57l-142 -427q-6 -16 -18 -16z" />
    <glyph glyph-name="Ygrave" unicode="&#x1ef2;" 
d="M488 0h-224q-12 0 -12 12v31q0 12 12 12h80v238q-1 1 -47 84t-98 175t-65 111h-68q-12 0 -12 12v31q0 12 12 12h204q12 0 12 -12v-31q0 -12 -12 -12h-70l174 -312h5l172 312h-70q-12 0 -12 12v31q0 12 12 12h204q12 0 12 -12v-31q0 -12 -12 -12h-69q-13 -19 -65 -111.5
t-98 -175.5l-46 -83v-238h81q11 0 11 -12v-31q0 -12 -11 -12zM478 827l-16 -19q-9 -9 -18 -2l-157 127q-8 8 -1 17l20 24q8 10 18 2l152 -133q10 -6 2 -16z" />
    <glyph glyph-name="ygrave" unicode="&#x1ef3;" horiz-adv-x="573" 
d="M241 -71l31 84h-7q-11 0 -20 22l-164 408h-57q-12 0 -12 11v26q0 12 12 12h165q12 0 12 -12v-26q0 -11 -12 -11h-46l147 -371h2l133 371h-48q-12 0 -12 11v26q0 12 12 12h167q12 0 12 -12v-26q0 -11 -12 -11h-56l-192 -515q-31 -84 -65.5 -123t-96.5 -39q-53 0 -85 32
q-9 9 -2 17l15 18q8 8 16 2q18 -18 51 -18q41 0 64.5 24t47.5 88zM382 601l-16 -19q-9 -9 -18 -2l-157 127q-8 8 -1 17l20 24q8 10 18 2l152 -133q10 -6 2 -16z" />
    <glyph glyph-name="endash" unicode="&#x2013;" horiz-adv-x="549" 
d="M495 231h-441q-12 0 -12 13v31q0 12 12 12h441q13 0 13 -12v-31q0 -13 -13 -13z" />
    <glyph glyph-name="emdash" unicode="&#x2014;" horiz-adv-x="875" 
d="M822 231h-768q-12 0 -12 13v31q0 12 12 12h768q12 0 12 -12v-31q0 -13 -12 -13z" />
    <glyph glyph-name="quoteleft" unicode="&#x2018;" horiz-adv-x="172" 
d="M120 753v-12q0 -6 -6 -6q-15 0 -28 -14t-13 -43l2 -10q5 5 20 5q14 0 24.5 -11t10.5 -28t-11.5 -28.5t-28.5 -11.5q-48 0 -48 64q0 53 21 77t51 24q6 0 6 -6z" />
    <glyph glyph-name="quoteright" unicode="&#x2019;" horiz-adv-x="172" 
d="M51 584v12q0 6 7 6q15 0 28 14t13 43l-2 10q-6 -5 -20 -5t-24.5 11t-10.5 28t11.5 28.5t28.5 11.5q48 0 48 -64q0 -53 -21 -77t-51 -24q-7 0 -7 6z" />
    <glyph glyph-name="quotesinglbase" unicode="&#x201a;" horiz-adv-x="172" 
d="M51 -87v12q0 6 7 6q15 0 28 14t13 43l-2 10q-6 -5 -20 -5t-24.5 11t-10.5 28t11.5 28.5t28.5 11.5q48 0 48 -64q0 -53 -21 -77t-51 -24q-7 0 -7 6z" />
    <glyph glyph-name="quotedblleft" unicode="&#x201c;" horiz-adv-x="326" 
d="M275 753v-12q0 -6 -6 -6q-15 0 -28 -14t-13 -43l2 -10q5 5 19 5t24.5 -11t10.5 -28t-11.5 -28.5t-28.5 -11.5q-48 0 -48 64q0 52 21.5 76.5t51.5 24.5q6 0 6 -6zM120 753v-12q0 -6 -6 -6q-15 0 -28 -14t-13 -43l2 -10q5 5 20 5q14 0 24.5 -11t10.5 -28t-11.5 -28.5
t-28.5 -11.5q-48 0 -48 64q0 53 21 77t51 24q6 0 6 -6z" />
    <glyph glyph-name="quotedblright" unicode="&#x201d;" horiz-adv-x="326" 
d="M51 584v12q0 6 7 6q15 0 28 14t13 43l-2 10q-6 -5 -20 -5t-24.5 11t-10.5 28t11.5 28.5t28.5 11.5q48 0 48 -64q0 -53 -21 -77t-51 -24q-7 0 -7 6zM206 584v12q0 6 6 6q15 0 28 14t13 43l-2 10q-5 -5 -19 -5q-15 0 -25.5 11t-10.5 28t12 28.5t29 11.5q22 0 34.5 -17
t12.5 -47q0 -53 -21 -77t-51 -24q-6 0 -6 6z" />
    <glyph glyph-name="quotedblbase" unicode="&#x201e;" horiz-adv-x="311" 
d="M51 -87v12q0 6 7 6q15 0 28 14t13 43l-2 10q-6 -5 -20 -5t-24.5 11t-10.5 28t11.5 28.5t28.5 11.5q48 0 48 -64q0 -53 -21 -77t-51 -24q-7 0 -7 6zM191 -87v12q0 6 6 6q15 0 28 14t13 43l-2 10q-5 -5 -20 -5q-14 0 -24.5 11t-10.5 28t11.5 28.5t28.5 11.5q48 0 48 -64
q0 -53 -21 -77t-51 -24q-6 0 -6 6z" />
    <glyph glyph-name="dagger" unicode="&#x2020;" horiz-adv-x="385" 
d="M214 -131h-38q-12 0 -12 12v636h-110q-12 0 -12 12v32q0 12 12 12h110v175q0 12 12 12h38q12 0 12 -12v-175h105q12 0 12 -12v-32q0 -12 -12 -12h-105v-636q0 -12 -12 -12z" />
    <glyph glyph-name="daggerdbl" unicode="&#x2021;" horiz-adv-x="385" 
d="M214 -131h-38q-12 0 -12 12v190h-110q-12 0 -12 12v32q0 12 12 12h110v390h-110q-12 0 -12 12v32q0 12 12 12h110v175q0 12 12 12h38q12 0 12 -12v-175h105q12 0 12 -12v-32q0 -12 -12 -12h-105v-390h105q12 0 12 -12v-32q0 -12 -12 -12h-105v-190q0 -12 -12 -12z" />
    <glyph glyph-name="bullet" unicode="&#x2022;" horiz-adv-x="271" 
d="M135 239q-44 0 -68.5 25.5t-24.5 70.5q0 44 24.5 70.5t68.5 26.5q42 0 68 -27t26 -70q0 -44 -25.5 -70t-68.5 -26z" />
    <glyph glyph-name="ellipsis" unicode="&#x2026;" horiz-adv-x="360" 
d="M110 33q0 -17 -12 -28.5t-28 -11.5q-17 0 -29 11.5t-12 28.5t12 29t29 12t28.5 -12t11.5 -29zM221 33q0 -17 -12 -28.5t-29 -11.5q-16 0 -28 11.5t-12 28.5t11.5 29t28.5 12t29 -12t12 -29zM330 33q0 -17 -12 -28.5t-28 -11.5q-17 0 -28.5 11.5t-11.5 28.5t11.5 29
t28.5 12t28.5 -12t11.5 -29z" />
    <glyph glyph-name="perthousand" unicode="&#x2030;" horiz-adv-x="1055" 
d="M182 359q-66 0 -103 51.5t-37 133.5q0 78 37 129t103 51q67 0 104.5 -51t37.5 -129q0 -82 -37.5 -133.5t-104.5 -51.5zM182 402q45 0 70 37t25 103q0 67 -25 102.5t-70 35.5q-44 0 -68.5 -36t-24.5 -102t24.5 -103t68.5 -37zM546 -7q-67 0 -104 51.5t-37 133.5
q0 78 37 129t104 51t104 -51t37 -129q0 -82 -37 -133.5t-104 -51.5zM546 36q44 0 69 36.5t25 103.5t-25 102.5t-69 35.5t-69 -36t-25 -102t25 -103t69 -37zM873 -7q-67 0 -104 51.5t-37 133.5q0 78 37 129t104 51q66 0 103.5 -51.5t37.5 -128.5q0 -82 -37 -133.5t-104 -51.5
zM873 36q44 0 69 37t25 103q0 67 -25 102.5t-69 35.5t-69 -36t-25 -102t25 -103t69 -37zM254 -74h-39q-11 0 -8 12l245 810q3 12 16 12h38q11 0 8 -12l-246 -810q-3 -12 -14 -12z" />
    <glyph glyph-name="fraction" unicode="&#x2044;" horiz-adv-x="392" 
d="M90 -74h-39q-11 0 -8 12l245 810q3 12 16 12h38q11 0 8 -12l-246 -810q-3 -12 -14 -12z" />
    <glyph glyph-name="Euro" unicode="&#x20ac;" horiz-adv-x="700" 
d="M631 91l24 -28q7 -10 -1 -16q-74 -54 -198 -54q-117 0 -204 70t-117 189h-82q-11 0 -11 12v24q0 12 11 12h73q-4 25 -4 62q0 18 2 46h-71q-11 0 -11 12v25q0 11 11 11h79q26 123 115.5 195.5t205.5 72.5q101 0 184 -55q9 -6 3 -16l-23 -27q-7 -10 -16 -2q-60 41 -146 41
q-84 0 -157.5 -54t-97.5 -155h276q12 0 12 -11v-25q0 -12 -12 -12h-286q-2 -30 -2 -48q0 -22 4 -60h228q12 0 12 -12v-24q0 -12 -12 -12h-216q26 -97 97 -148t156 -51q99 0 159 39q9 7 15 -1z" />
    <glyph glyph-name="trademark" unicode="&#x2122;" horiz-adv-x="1037" 
d="M309 288h-145q-8 0 -8 7v28q0 6 8 6h48v348h-127v-53q0 -8 -8 -8h-28q-7 0 -7 8v87q0 7 7 7h374q8 0 8 -7v-87q0 -8 -8 -8h-28q-7 0 -7 8v53h-126v-348h47q8 0 8 -6v-28q0 -7 -8 -7zM987 288h-136q-6 0 -6 7v28q0 6 6 6h44v328h-2l-124 -309q-7 -15 -23 -15t-21 15
l-126 309h-1v-328h43q7 0 7 -6v-28q0 -7 -7 -7h-134q-8 0 -8 7v28q0 6 8 6h45v348h-45q-8 0 -8 6v29q0 6 8 6h92q18 0 24 -16l98 -238l25 -72h1q14 47 25 71l96 239q6 16 24 16h95q8 0 8 -6v-29q0 -6 -8 -6h-45v-348h45q8 0 8 -6v-28q0 -7 -8 -7z" />
    <glyph glyph-name="onethird" unicode="&#x2153;" horiz-adv-x="676" 
d="M214 -74h-38q-12 0 -9 12l246 810q3 12 15 12h39q10 0 7 -12l-245 -810q-3 -12 -15 -12zM505 -5q-74 0 -117 57q-5 5 0 8l18 17q6 3 9 0l6 -7q6 -6 8.5 -8t9.5 -7.5t12.5 -7.5t14 -5.5t18.5 -5t21 -1.5q84 0 84 66q0 32 -22 50.5t-61 18.5h-14q-8 0 -8 7v22q0 7 8 7h12
q27 0 50 14.5t23 44.5q0 25 -18 39.5t-52 14.5q-27 0 -45 -14.5t-18 -33.5q0 -8 -6 -8h-29q-6 0 -6 8q0 39 29.5 64t75.5 25q57 0 85.5 -28.5t28.5 -64.5q0 -32 -21 -53t-40 -24q24 -3 49 -25.5t25 -66.5q0 -46 -36 -74.5t-94 -28.5zM257 362h-180q-10 0 -10 10v19
q0 11 10 11h72v269l-78 -61q-7 -4 -10 0l-17 22q-3 6 3 10l96 75q5 4 13 4h30q8 0 8 -9l1 -310h62q11 0 11 -11v-19q0 -10 -11 -10z" />
    <glyph glyph-name="minus" unicode="&#x2212;" horiz-adv-x="412" 
d="M358 231h-304q-12 0 -12 13v31q0 12 12 12h304q12 0 12 -12v-31q0 -13 -12 -13z" />
    <glyph glyph-name="approxequal" unicode="&#x2248;" horiz-adv-x="376" 
d="M307 430h15q12 0 12 -11q0 -102 -79 -102q-31 0 -54.5 15.5t-42 31t-36.5 15.5q-22 0 -32 -13t-10 -45q0 -11 -12 -11h-15q-11 0 -11 11q0 96 78 96q33 0 72 -31.5t61 -31.5q25 0 34 14t9 51q0 11 11 11zM307 279h15q12 0 12 -11q0 -102 -79 -102q-31 0 -54.5 16
t-42 31.5t-36.5 15.5q-22 0 -32 -13.5t-10 -44.5q0 -12 -12 -12h-15q-11 0 -11 12q0 95 78 95q33 0 72 -31.5t61 -31.5q25 0 34 14t9 51q0 11 11 11z" />
    <glyph glyph-name="notequal" unicode="&#x2260;" horiz-adv-x="416" 
d="M362 109h-174l-15 -54q-5 -12 -15 -12h-29q-12 0 -9 12l16 54h-82q-12 0 -12 12v32q0 12 12 12h99l54 181h-153q-12 0 -12 12v31q0 12 12 12h170l24 76q3 12 15 12h29q11 0 8 -12l-23 -76h85q12 0 12 -12v-31q0 -12 -12 -12h-102l-55 -181h157q12 0 12 -12v-32
q0 -12 -12 -12z" />
    <glyph glyph-name="commaaccent" horiz-adv-x="163" 
d="M47 -206v12q0 6 6 6q15 0 28 14t13 43l-2 11q-5 -6 -19 -6q-15 0 -25 11t-10 29q0 17 11.5 28t28.5 11q48 0 48 -64q0 -52 -21.5 -76t-51.5 -24q-6 0 -6 5z" />
    <glyph glyph-name="a.alt" horiz-adv-x="611" 
d="M557 0h-72q-23 0 -33 8.5t-10 31.5v66h-1q-50 -113 -175 -113q-101 0 -162.5 71t-61.5 184t62.5 182t162.5 69q127 0 173 -101h1v82q0 12 12 12h33q12 0 12 -12v-431h59q12 0 12 -11v-26q0 -12 -12 -12zM272 43q73 0 121.5 56t48.5 147q0 93 -49 147.5t-121 54.5
q-73 0 -122 -55t-49 -147q0 -90 48.5 -146.5t122.5 -56.5z" />
    <glyph glyph-name="Imacron" horiz-adv-x="350" 
d="M290 0h-224q-12 0 -12 12v31q0 12 12 12h80v608h-80q-12 0 -12 12v31q0 12 12 12h224q11 0 11 -12v-31q0 -12 -11 -12h-81v-608h81q11 0 11 -12v-31q0 -12 -11 -12zM321 782h-286q-12 0 -12 12v27q0 12 12 12h286q12 0 12 -12v-27q0 -12 -12 -12z" />
    <glyph glyph-name="aacute.alt" horiz-adv-x="611" 
d="M557 0h-72q-23 0 -33 8.5t-10 31.5v66h-1q-50 -113 -175 -113q-101 0 -162.5 71t-61.5 184t62.5 182t162.5 69q127 0 173 -101h1v82q0 12 12 12h33q12 0 12 -12v-431h59q12 0 12 -11v-26q0 -12 -12 -12zM272 43q73 0 121.5 56t48.5 147q0 93 -49 147.5t-121 54.5
q-73 0 -122 -55t-49 -147q0 -90 48.5 -146.5t122.5 -56.5zM408 707l-157 -127q-11 -8 -18 2l-16 18q-8 10 2 17l152 133q8 8 18 -2l20 -24q6 -10 -1 -17z" />
    <glyph glyph-name="abreve.alt" horiz-adv-x="611" 
d="M557 0h-72q-23 0 -33 8.5t-10 31.5v66h-1q-50 -113 -175 -113q-101 0 -162.5 71t-61.5 184t62.5 182t162.5 69q127 0 173 -101h1v82q0 12 12 12h33q12 0 12 -12v-431h59q12 0 12 -11v-26q0 -12 -12 -12zM272 43q73 0 121.5 56t48.5 147q0 93 -49 147.5t-121 54.5
q-73 0 -122 -55t-49 -147q0 -90 48.5 -146.5t122.5 -56.5zM389 719h21q12 0 12 -12q0 -67 -37 -102t-97 -35t-97 35t-37 102q0 12 12 12h21q12 0 12 -12q0 -46 25 -71.5t63 -25.5t64 25.5t26 71.5q0 12 12 12z" />
    <glyph glyph-name="acircumflex.alt" horiz-adv-x="611" 
d="M557 0h-72q-23 0 -33 8.5t-10 31.5v66h-1q-50 -113 -175 -113q-101 0 -162.5 71t-61.5 184t62.5 182t162.5 69q127 0 173 -101h1v82q0 12 12 12h33q12 0 12 -12v-431h59q12 0 12 -11v-26q0 -12 -12 -12zM272 43q73 0 121.5 56t48.5 147q0 93 -49 147.5t-121 54.5
q-73 0 -122 -55t-49 -147q0 -90 48.5 -146.5t122.5 -56.5zM457 600l-16 -18q-7 -9 -17 -2l-127 105l-126 -105q-10 -7 -17 2l-16 18q-8 10 2 17l149 130q4 4 9 4q4 0 9 -5l148 -129q10 -8 2 -17z" />
    <glyph glyph-name="adieresis.alt" horiz-adv-x="611" 
d="M557 0h-72q-23 0 -33 8.5t-10 31.5v66h-1q-50 -113 -175 -113q-101 0 -162.5 71t-61.5 184t62.5 182t162.5 69q127 0 173 -101h1v82q0 12 12 12h33q12 0 12 -12v-431h59q12 0 12 -11v-26q0 -12 -12 -12zM272 43q73 0 121.5 56t48.5 147q0 93 -49 147.5t-121 54.5
q-73 0 -122 -55t-49 -147q0 -90 48.5 -146.5t122.5 -56.5zM252 590q0 -15 -10.5 -25.5t-26.5 -10.5q-15 0 -25 10.5t-10 25.5t10 26t25 11q16 0 26.5 -11t10.5 -26zM402 590q0 -15 -11 -25.5t-26 -10.5t-25.5 10.5t-10.5 25.5t10.5 26t25.5 11t26 -11t11 -26z" />
    <glyph glyph-name="agrave.alt" horiz-adv-x="611" 
d="M557 0h-72q-23 0 -33 8.5t-10 31.5v66h-1q-50 -113 -175 -113q-101 0 -162.5 71t-61.5 184t62.5 182t162.5 69q127 0 173 -101h1v82q0 12 12 12h33q12 0 12 -12v-431h59q12 0 12 -11v-26q0 -12 -12 -12zM272 43q73 0 121.5 56t48.5 147q0 93 -49 147.5t-121 54.5
q-73 0 -122 -55t-49 -147q0 -90 48.5 -146.5t122.5 -56.5zM362 601l-16 -19q-9 -9 -18 -2l-157 127q-8 8 -1 17l20 24q8 10 18 2l152 -133q10 -6 2 -16z" />
    <glyph glyph-name="amacron.alt" horiz-adv-x="611" 
d="M557 0h-72q-23 0 -33 8.5t-10 31.5v66h-1q-50 -113 -175 -113q-101 0 -162.5 71t-61.5 184t62.5 182t162.5 69q127 0 173 -101h1v82q0 12 12 12h33q12 0 12 -12v-431h59q12 0 12 -11v-26q0 -12 -12 -12zM272 43q73 0 121.5 56t48.5 147q0 93 -49 147.5t-121 54.5
q-73 0 -122 -55t-49 -147q0 -90 48.5 -146.5t122.5 -56.5zM425 556h-286q-12 0 -12 12v27q0 12 12 12h286q12 0 12 -12v-27q0 -12 -12 -12z" />
    <glyph glyph-name="aogonek.alt" horiz-adv-x="611" 
d="M563 -110l7 -10q6 -9 -3 -16q-34 -19 -63 -19q-34 0 -54.5 19.5t-20.5 50.5q0 33 22 55t46 30h-12q-23 0 -33 8.5t-10 31.5v66h-1q-50 -113 -175 -113q-101 0 -162.5 71t-61.5 184t62.5 182t162.5 69q127 0 173 -101h1v82q0 12 12 12h33q12 0 12 -12v-431h59q12 0 12 -11
v-26q0 -12 -12 -12h-15q-74 -35 -74 -83q0 -17 11.5 -26.5t29.5 -9.5q17 0 37 9q13 7 17 0zM272 43q73 0 121.5 56t48.5 147q0 93 -49 147.5t-121 54.5q-73 0 -122 -55t-49 -147q0 -90 48.5 -146.5t122.5 -56.5z" />
    <glyph glyph-name="aring.alt" horiz-adv-x="611" 
d="M557 0h-72q-23 0 -33 8.5t-10 31.5v66h-1q-50 -113 -175 -113q-101 0 -162.5 71t-61.5 184t62.5 182t162.5 69q127 0 173 -101h1v82q0 12 12 12h33q12 0 12 -12v-431h59q12 0 12 -11v-26q0 -12 -12 -12zM272 43q73 0 121.5 56t48.5 147q0 93 -49 147.5t-121 54.5
q-73 0 -122 -55t-49 -147q0 -90 48.5 -146.5t122.5 -56.5zM350 618q-6 -26 -28.5 -40t-47.5 -9q-26 6 -40.5 28.5t-9.5 48.5q6 26 28.5 40t48.5 9q26 -6 40.5 -29t8.5 -48zM322 627q2 15 -7 26.5t-24 12.5q-14 2 -25 -6.5t-13 -22.5q-2 -15 7 -26t23 -13t25.5 6.5t13.5 22.5
z" />
    <glyph glyph-name="atilde.alt" horiz-adv-x="611" 
d="M557 0h-72q-23 0 -33 8.5t-10 31.5v66h-1q-50 -113 -175 -113q-101 0 -162.5 71t-61.5 184t62.5 182t162.5 69q127 0 173 -101h1v82q0 12 12 12h33q12 0 12 -12v-431h59q12 0 12 -11v-26q0 -12 -12 -12zM272 43q73 0 121.5 56t48.5 147q0 93 -49 147.5t-121 54.5
q-73 0 -122 -55t-49 -147q0 -90 48.5 -146.5t122.5 -56.5zM405 675h15q12 0 12 -12q0 -102 -80 -102q-30 0 -53.5 15.5t-42.5 31t-37 15.5q-22 0 -31.5 -13t-9.5 -44q0 -12 -12 -12h-15q-11 0 -11 12q0 96 77 96q34 0 72.5 -31.5t60.5 -31.5q25 0 34.5 13.5t9.5 50.5
q0 12 11 12z" />
    <glyph glyph-name="y.alt" horiz-adv-x="556" 
d="M491 480v-503q0 -105 -62 -157.5t-166 -52.5q-126 0 -188 62q-9 9 -3 18l17 22q5 8 16 1q7 -7 19 -16t52 -22t87 -13q76 0 124 38t48 120v103h-2q-45 -87 -164 -87q-81 0 -127 46.5t-46 126.5v277h-59q-12 0 -12 11v26q0 12 12 12h76q23 0 33 -8.5t10 -31.5v-277
q0 -61 32 -95.5t90 -34.5q32 0 59.5 10t44 23.5t28.5 28t16.5 23.5t4.5 10v303h-57q-12 0 -12 11v26q0 12 12 12h106q11 0 11 -12z" />
    <glyph glyph-name="yacute.alt" horiz-adv-x="556" 
d="M491 480v-503q0 -105 -62 -157.5t-166 -52.5q-126 0 -188 62q-9 9 -3 18l17 22q5 8 16 1q7 -7 19 -16t52 -22t87 -13q76 0 124 38t48 120v103h-2q-45 -87 -164 -87q-81 0 -127 46.5t-46 126.5v277h-59q-12 0 -12 11v26q0 12 12 12h76q23 0 33 -8.5t10 -31.5v-277
q0 -61 32 -95.5t90 -34.5q32 0 59.5 10t44 23.5t28.5 28t16.5 23.5t4.5 10v303h-57q-12 0 -12 11v26q0 12 12 12h106q11 0 11 -12zM381 707l-157 -127q-11 -8 -18 2l-16 18q-8 10 2 17l152 133q8 8 18 -2l20 -24q6 -10 -1 -17z" />
    <glyph glyph-name="ycircumflex.alt" horiz-adv-x="556" 
d="M491 480v-503q0 -105 -62 -157.5t-166 -52.5q-126 0 -188 62q-9 9 -3 18l17 22q5 8 16 1q7 -7 19 -16t52 -22t87 -13q76 0 124 38t48 120v103h-2q-45 -87 -164 -87q-81 0 -127 46.5t-46 126.5v277h-59q-12 0 -12 11v26q0 12 12 12h76q23 0 33 -8.5t10 -31.5v-277
q0 -61 32 -95.5t90 -34.5q32 0 59.5 10t44 23.5t28.5 28t16.5 23.5t4.5 10v303h-57q-12 0 -12 11v26q0 12 12 12h106q11 0 11 -12zM444 600l-16 -18q-7 -9 -17 -2l-127 105l-126 -105q-10 -7 -17 2l-16 18q-8 10 2 17l149 130q4 4 9 4q4 0 9 -5l148 -129q10 -8 2 -17z" />
    <glyph glyph-name="ydieresis.alt" horiz-adv-x="556" 
d="M491 480v-503q0 -105 -62 -157.5t-166 -52.5q-126 0 -188 62q-9 9 -3 18l17 22q5 8 16 1q7 -7 19 -16t52 -22t87 -13q76 0 124 38t48 120v103h-2q-45 -87 -164 -87q-81 0 -127 46.5t-46 126.5v277h-59q-12 0 -12 11v26q0 12 12 12h76q23 0 33 -8.5t10 -31.5v-277
q0 -61 32 -95.5t90 -34.5q32 0 59.5 10t44 23.5t28.5 28t16.5 23.5t4.5 10v303h-57q-12 0 -12 11v26q0 12 12 12h106q11 0 11 -12zM246 590q0 -15 -10.5 -25.5t-26.5 -10.5q-15 0 -25 10.5t-10 25.5t10 26t25 11q16 0 26.5 -11t10.5 -26zM396 590q0 -15 -11 -25.5t-26 -10.5
t-25.5 10.5t-10.5 25.5t10.5 26t25.5 11t26 -11t11 -26z" />
    <glyph glyph-name="ygrave.alt" horiz-adv-x="556" 
d="M491 480v-503q0 -105 -62 -157.5t-166 -52.5q-126 0 -188 62q-9 9 -3 18l17 22q5 8 16 1q7 -7 19 -16t52 -22t87 -13q76 0 124 38t48 120v103h-2q-45 -87 -164 -87q-81 0 -127 46.5t-46 126.5v277h-59q-12 0 -12 11v26q0 12 12 12h76q23 0 33 -8.5t10 -31.5v-277
q0 -61 32 -95.5t90 -34.5q32 0 59.5 10t44 23.5t28.5 28t16.5 23.5t4.5 10v303h-57q-12 0 -12 11v26q0 12 12 12h106q11 0 11 -12zM349 601l-16 -19q-9 -9 -18 -2l-157 127q-8 8 -1 17l20 24q8 10 18 2l152 -133q10 -6 2 -16z" />
    <glyph glyph-name="k.alt" horiz-adv-x="622" 
d="M283 228h40q51 0 98 32.5t47 82.5q0 42 -33.5 74.5t-79.5 32.5q-51 0 -93.5 -35.5t-63.5 -80t-25 -85.5l-1 -200h58q13 0 13 -11l-1 -26q0 -12 -12 -12h-177q-11 0 -11 12l1 26q0 11 10 11h59l1 620h-59q-12 0 -12 11v26q0 12 11 12h108q11 0 11 -12v-337q9 19 21.5 37.5
t34.5 41.5t55.5 37t73.5 14q80 0 125.5 -46.5t45.5 -111.5q0 -67 -56.5 -107t-120.5 -44l177 -141h37q12 0 12 -11l-1 -26q0 -12 -11 -12h-39q-23 0 -52 27l-198 161q-4 6 -4 10v19q0 11 11 11z" />
    <glyph glyph-name="kcommaaccent.alt" horiz-adv-x="622" 
d="M283 228h40q51 0 98 32.5t47 82.5q0 42 -33.5 74.5t-79.5 32.5q-51 0 -93.5 -35.5t-63.5 -80t-25 -85.5l-1 -200h58q13 0 13 -11l-1 -26q0 -12 -12 -12h-177q-11 0 -11 12l1 26q0 11 10 11h59l1 620h-59q-12 0 -12 11v26q0 12 11 12h108q11 0 11 -12v-337q9 19 21.5 37.5
t34.5 41.5t55.5 37t73.5 14q80 0 125.5 -46.5t45.5 -111.5q0 -67 -56.5 -107t-120.5 -44l177 -141h37q12 0 12 -11l-1 -26q0 -12 -11 -12h-39q-23 0 -52 27l-198 161q-4 6 -4 10v19q0 11 11 11zM283 -206v12q0 6 6 6q15 0 28 14t13 43l-2 11q-5 -6 -19 -6q-15 0 -25 11
t-10 29q0 17 11.5 28t28.5 11q48 0 48 -64q0 -52 -21.5 -76t-51.5 -24q-6 0 -6 5z" />
    </font>
</defs>
</svg>
