<?xml version="1.0" standalone="no"?>
<!DOCTYPE svg PUBLIC "-//W3C//DTD SVG 1.1//EN" "http://www.w3.org/Graphics/SVG/1.1/DTD/svg11.dtd" >
<svg xmlns="http://www.w3.org/2000/svg" xmlns:xlink="http://www.w3.org/1999/xlink" version="1.1">
<metadata>
Created by FontForge 20170731 at Tue Nov 15 03:15:56 2016
 By Aleksey,,,
Copyright (c) 2015, Impallari Type (www.impallari.com)
</metadata>
<defs>
<font id="LibreFranklin-Regular" horiz-adv-x="599" >
  <font-face 
    font-family="Libre Franklin"
    font-weight="400"
    font-stretch="normal"
    units-per-em="1000"
    panose-1="0 0 5 0 0 0 0 0 0 0"
    ascent="800"
    descent="-200"
    x-height="530"
    cap-height="742"
    bbox="-456.4 -239 1268 1151"
    underline-thickness="50"
    underline-position="-200"
    unicode-range="U+000D-FB02"
  />
<missing-glyph horiz-adv-x="702" 
d="M587 847q18 0 18 -21v-962q0 -29 -33 -29h-448q-27 0 -27 25v964q0 23 19 23h471zM553 779q0 18 -15 18h-353l368 -855v837zM149 -94q0 -21 23 -21h344l-367 849v-828z" />
    <glyph glyph-name="fi" unicode="fi" horiz-adv-x="618" 
d="M345 530q10 0 10 -10v-43q0 -9 -10 -9h-114q-8 0 -8 -9v-445q0 -14 -12 -14h-61q-11 0 -11 13v447q0 8 -7 8h-98q-10 0 -10 9v43q0 10 11 10h95q9 0 9 10v73q0 129 125 129h83q13 0 13 -12v-39q0 -10 -11 -10h-70q-58 0 -58 -72v-70q0 -9 9 -9h115zM544 727v-83
q0 -19 -18 -19h-58q-15 0 -15 17v84q0 16 14 16h63q14 0 14 -15zM540 517v-500q0 -10 -4 -13.5t-14 -3.5h-51q-15 0 -15 14v502q0 14 12 14h61q11 0 11 -13z" />
    <glyph glyph-name="fl" unicode="fl" horiz-adv-x="618" 
d="M345 530q10 0 10 -10v-43q0 -9 -10 -9h-114q-8 0 -8 -9v-445q0 -14 -12 -14h-61q-11 0 -11 13v447q0 8 -7 8h-98q-10 0 -10 9v43q0 10 11 10h95q9 0 9 10v73q0 129 125 129h83q13 0 13 -12v-39q0 -10 -11 -10h-70q-58 0 -58 -72v-70q0 -9 9 -9h115zM541 729v-712
q0 -17 -18 -17h-52q-15 0 -15 14l1 714q0 14 12 14h60q12 0 12 -13z" />
    <glyph glyph-name=".notdef" horiz-adv-x="702" 
d="M587 847q18 0 18 -21v-962q0 -29 -33 -29h-448q-27 0 -27 25v964q0 23 19 23h471zM553 779q0 18 -15 18h-353l368 -855v837zM149 -94q0 -21 23 -21h344l-367 849v-828z" />
    <glyph glyph-name="uni0000" horiz-adv-x="0" 
 />
    <glyph glyph-name="uni0000" horiz-adv-x="0" 
 />
    <glyph glyph-name="nonmarkingreturn" horiz-adv-x="333" 
 />
    <glyph glyph-name="CR" unicode="&#xd;" horiz-adv-x="214" 
 />
    <glyph glyph-name="space" unicode=" " horiz-adv-x="215" 
 />
    <glyph glyph-name="exclam" unicode="!" horiz-adv-x="244" 
d="M172 732l-21 -538q0 -14 -16 -14h-29q-13 0 -13 12l-21 539q-2 11 9 11h82q11 0 9 -10zM173 100v-84q0 -16 -19 -16h-69q-15 0 -15 14v85q0 12 10 12h83q10 0 10 -11z" />
    <glyph glyph-name="quotedbl" unicode="&#x22;" horiz-adv-x="409" 
d="M173 732l-25 -206q-3 -14 -17 -14h-24q-12 0 -13 12l-25 208q-1 10 9 10h86q10 0 9 -10zM342 732l-25 -206q-3 -14 -17 -14h-24q-12 0 -13 12l-25 208q-1 10 9 10h86q10 0 9 -10z" />
    <glyph glyph-name="numbersign" unicode="#" horiz-adv-x="603" 
d="M559 506q10 0 10 -10v-30q0 -14 -16 -14h-102l-24 -156h99q10 0 10 -10v-30q0 -14 -16 -14h-101l-35 -228q-3 -16 -15 -14l-28 4q-5 1 -7.5 2t-3.5 3.5t-1 5.5l35 227h-154l-35 -228q-3 -16 -15 -14l-28 4q-5 1 -7.5 2t-3.5 3.5t-1 5.5l35 227h-108q-13 0 -13 12v31
q0 11 9 11h120l24 156h-107q-13 0 -13 12v31q0 11 9 11h119l34 225q2 6 4 9t6 2l34 -5q11 -1 10 -13l-33 -218h154l34 225q1 5 3.5 8.5t6.5 2.5l34 -5q11 -1 10 -13l-33 -218h100zM372 296l24 156h-154l-24 -156h154z" />
    <glyph glyph-name="dollar" unicode="$" horiz-adv-x="605" 
d="M567 184q0 -81 -58 -134.5t-152 -57.5q-12 0 -12 -10v-56q0 -14 -14 -14h-35q-13 0 -13 11v60q0 9 -8 9q-81 1 -136 28.5t-98 82.5q-13 14 -2 22l33 31q11 10 21 0q36 -46 78 -69t103 -25q10 -1 10 8v245q0 15 -20 24q-114 41 -159.5 87.5t-45.5 120.5q0 81 58 135
t155 65q11 2 11 11v49q0 10 9 10h40q12 0 12 -14v-48q0 -8 10 -8q105 -14 184 -88q11 -8 1 -18l-35 -36q-9 -9 -19 3q-44 54 -131 68q-10 1 -10 -8v-251q0 -10 12 -14l38 -13q173 -67 173 -206zM283 441v228q0 12 -11 9q-61 -7 -97 -41t-36 -84q0 -39 27.5 -68t96.5 -58
q20 -7 20 14zM345 68q0 -8 9 -6q60 1 96.5 34t36.5 82q0 46 -29.5 76.5t-97.5 56.5q-15 5 -15 -9v-234z" />
    <glyph glyph-name="percent" unicode="%" horiz-adv-x="916" 
d="M229 753q76 0 124 -57.5t48 -154.5t-48 -154.5t-124 -57.5q-77 0 -125.5 57.5t-48.5 154.5t49 154.5t125 57.5zM732 739l-486 -734q-6 -9 -19 -9h-26q-9 0 -11 6t3 13l484 728q5 7 16 7h33q13 0 6 -11zM228 378q50 0 78.5 44.5t28.5 117.5q0 75 -28.5 120t-78.5 45
t-78.5 -45.5t-28.5 -119.5q0 -73 28.5 -117.5t78.5 -44.5zM689 414q76 0 124 -57.5t48 -154.5t-48 -154.5t-124 -57.5q-77 0 -125.5 57.5t-48.5 154.5t49 154.5t125 57.5zM688 39q49 0 78 45t29 117q0 73 -29.5 119t-77.5 46t-77.5 -46.5t-29.5 -118.5q0 -71 29 -116.5
t78 -45.5z" />
    <glyph glyph-name="ampersand" unicode="&#x26;" horiz-adv-x="778" 
d="M338 753q82 0 135 -41t53 -109q0 -57 -43.5 -109t-132.5 -91q-13 -6 -3 -17l156 -182q5 -6 7.5 -5.5t9.5 7.5q35 33 75 91t52 93q4 11 17 7l40 -14q12 -5 9 -17q-32 -91 -144 -213q-8 -8 2 -17q28 -25 75.5 -43t91.5 -19q15 0 15 -13v-43q0 -18 -18 -18q-57 0 -122.5 24
t-108.5 57q-9 7 -18 -1q-99 -85 -224 -85q-103 0 -162.5 52.5t-59.5 141.5q0 60 36 110t117 98q10 6 10.5 10t-8.5 15q-67 72 -67 147q0 79 60 131.5t150 52.5zM340 693q-56 0 -90 -35t-34 -85q0 -48 41 -93l27 -30q6 -7 18 -2q76 36 110 72.5t34 80.5q0 45 -29.5 68.5
t-76.5 23.5zM269 343q-11 13 -28 5q-51 -26 -80.5 -66.5t-29.5 -88.5q0 -57 41.5 -94t104.5 -37q86 0 156 63q12 11 3 24z" />
    <glyph glyph-name="quotesingle" unicode="'" horiz-adv-x="240" 
d="M173 732l-25 -206q-3 -14 -17 -14h-24q-12 0 -13 12l-25 208q-1 10 9 10h86q10 0 9 -10z" />
    <glyph glyph-name="parenleft" unicode="(" horiz-adv-x="286" 
d="M259 742q11 0 7 -9q-116 -230 -116 -449q0 -208 108 -439q4 -10 -7 -10h-37q-8 0 -12 7q-67 115 -100.5 218.5t-33.5 224.5q0 237 141 449q6 8 16 8h34z" />
    <glyph glyph-name="parenright" unicode=")" horiz-adv-x="286" 
d="M27 742h34q10 0 16 -8q141 -212 141 -449q0 -121 -33.5 -224.5t-100.5 -218.5q-4 -7 -12 -7h-37q-11 0 -7 10q108 231 108 439q0 219 -116 449q-4 9 7 9z" />
    <glyph glyph-name="asterisk" unicode="*" horiz-adv-x="380" 
d="M269 415l-72 115q-1 2 -2.5 2t-2.5 -2l-75 -119q-3 -7 -13 -1l-35 24q-6 5 -1 13l85 106q2 7 -4 8l-116 33q-7 3 -4 12l13 37q3 8 11 4l110 -44q8 -3 8 5l-9 126q0 8 9 8h47q8 0 8 -8l-8 -126q0 -8 6 -5l113 48q8 4 11 -5l11 -35q3 -11 -5 -12l-114 -38q-5 -1 -2 -8
l82 -100q6 -9 -4 -16l-32 -22q-10 -8 -15 0z" />
    <glyph glyph-name="plus" unicode="+" horiz-adv-x="557" 
d="M486 406q10 0 10 -10v-43q0 -13 -16 -13h-167v-174q0 -10 -10 -10h-43q-14 0 -14 16v167h-171q-13 0 -13 12v43q0 12 9 12h175v171q0 13 11 13h43q12 0 12 -9v-175h174z" />
    <glyph glyph-name="comma" unicode="," horiz-adv-x="212" 
d="M52 -143q-12 0 -7 15l45 112q7 16 -8 16h-13q-13 0 -13 12v89q0 11 10 11h83q10 0 10 -10v-82q0 -8 -3 -12l-73 -140q-6 -11 -20 -11h-11z" />
    <glyph glyph-name="hyphen" unicode="-" horiz-adv-x="381" 
d="M319 289v-44q0 -14 -17 -14h-227q-13 0 -13 12v44q0 11 9 11l238 1q10 0 10 -10z" />
    <glyph glyph-name="period" unicode="." horiz-adv-x="209" 
d="M155 101v-85q0 -16 -18 -16h-70q-15 0 -15 14v86q0 13 11 13h82q10 0 10 -12z" />
    <glyph glyph-name="slash" unicode="/" horiz-adv-x="342" 
d="M21 -44q-12 0 -8 9l250 768q3 9 13 9h44q14 0 8 -16l-246 -757q-4 -13 -18 -13h-43z" />
    <glyph glyph-name="zero" unicode="0" horiz-adv-x="688" 
d="M345 752q122 0 199.5 -101t77.5 -282q0 -180 -77.5 -279t-200.5 -99q-124 0 -201 98.5t-77 278.5q0 181 78 282.5t201 101.5zM345 64q179 0 179 305q0 159 -47.5 234.5t-132.5 75.5t-132.5 -76t-47.5 -234q0 -156 48 -230.5t133 -74.5z" />
    <glyph glyph-name="one" unicode="1" horiz-adv-x="465" 
d="M412 76q11 0 11 -10v-56q0 -10 -11 -10h-351q-11 0 -11 10v56q0 10 11 10h126q8 0 8 5v550q0 11 -9 8l-124 -46q-13 -3 -13 12v40q0 10 10 15l148 74q17 8 30 8h43q11 0 11 -12v-647q0 -7 6 -7h115z" />
    <glyph glyph-name="two" unicode="2" 
d="M76 99l213 212q86 81 119 131.5t33 104.5q0 61 -44 95.5t-104 34.5q-108 0 -171 -99q-7 -11 -20 -2l-44 26q-13 9 -4 22q88 128 247 128q100 0 166.5 -54t66.5 -154q0 -65 -35.5 -121t-125.5 -141l-201 -189q-6 -5 -4.5 -8.5t10.5 -3.5h351q13 0 13 -11v-58
q0 -12 -13 -12h-464q-16 0 -16 16v41q0 11 5 19t22 23z" />
    <glyph glyph-name="three" unicode="3" horiz-adv-x="641" 
d="M77 638q-7 7 0 15q92 99 231 99q114 0 182 -53t68 -135q0 -54 -33.5 -97.5t-93.5 -64.5q-21 -7 0 -14q65 -18 107.5 -66.5t42.5 -116.5q0 -97 -74 -156t-212 -59q-153 0 -250 106q-7 10 3 17l43 34q9 8 16 0q44 -46 89.5 -65t105.5 -19q86 0 135 38t49 101
q0 69 -56 108.5t-132 39.5l-89 1q-12 0 -12 10v52q0 8 12 10l72 1q78 1 130.5 39.5t52.5 96.5q0 51 -44 85.5t-111 34.5q-99 0 -179 -77q-9 -9 -18 0z" />
    <glyph glyph-name="four" unicode="4" horiz-adv-x="649" 
d="M386 732q10 10 25 10h67q12 0 12 -12v-450q0 -9 8 -9h94q14 0 14 -10v-49q0 -13 -14 -13h-93q-9 0 -9 -10v-174q0 -15 -16 -15h-68q-13 0 -13 13v179q0 7 -9 7h-324q-15 0 -15 13v51q0 10 16 33zM140 271h242q9 0 9 7v334q0 21 -14 4l-244 -332q-10 -13 7 -13z" />
    <glyph glyph-name="five" unicode="5" horiz-adv-x="654" 
d="M137 742h407q10 0 13 -3t2 -11l-4 -55q0 -4 -0.5 -5.5t-2 -3t-4 -2t-7.5 -0.5h-340q-12 0 -12 -11l-18 -217q-1 -7 3 -10.5t9 -1.5q32 16 50 24t50 16t66 8q107 0 178 -57.5t71 -169.5q0 -118 -79 -185.5t-206 -67.5q-163 0 -258 104q-9 12 2 20l43 35q8 6 17 -3
q47 -44 86 -64t98 -20q94 0 148.5 49t54.5 129q0 76 -48 116.5t-122 40.5q-73 0 -172 -59q-4 -2 -5.5 -3t-3 -1t-2 0.5t-3 2t-4.5 2.5l-49 28q-4 2 -5.5 3t-2.5 3t-1 3t1 5.5t1 7.5l27 339q1 9 4 11.5t18 2.5z" />
    <glyph glyph-name="six" unicode="6" horiz-adv-x="661" 
d="M369 751q130 0 195 -97q7 -11 -3 -16l-57 -23q-8 -5 -15 6q-48 58 -119 58q-104 0 -156.5 -73.5t-52.5 -193.5q0 -17 3 -21t15 1q104 51 185 51q113 0 178 -61t65 -156q0 -104 -74 -169.5t-184 -65.5q-132 0 -207.5 97.5t-75.5 271.5q0 183 81 287t222 104zM353 373
q-41 0 -90 -13.5t-80 -32.5q-12 -8 -16 -16.5t-4 -26.5q0 -51 19 -100t63 -86t104 -37q69 0 116 46.5t47 114.5q0 65 -43.5 108t-115.5 43z" />
    <glyph glyph-name="seven" unicode="7" 
d="M63 742h477q8 0 12 -3.5t3 -8.5l-1 -36q0 -15 -14 -36q-95 -141 -174.5 -335t-95.5 -304q-1 -19 -15 -19h-79q-17 0 -12 17q78 311 283 631q9 14 -7 14h-387q-13 0 -11 12l6 58q1 10 15 10z" />
    <glyph glyph-name="eight" unicode="8" horiz-adv-x="668" 
d="M333 752q109 0 177 -56.5t68 -147.5q0 -47 -24 -84t-77 -74q-14 -10 -1 -16q135 -53 135 -177q0 -95 -77 -151t-204 -56q-125 0 -197 51t-72 143q0 104 114 176q12 8 12.5 12t-11.5 10q-95 53 -95 155q0 92 70.5 153.5t181.5 61.5zM334 682q-69 0 -115.5 -39t-46.5 -98
q0 -91 103 -114l103 -24q30 -8 72.5 40t42.5 102q0 59 -43 96t-116 37zM335 60q83 0 132 36t49 97q0 47 -25 75.5t-81 42.5l-130 31q-34 9 -84 -37.5t-50 -109.5q0 -64 48.5 -99.5t140.5 -35.5z" />
    <glyph glyph-name="nine" unicode="9" horiz-adv-x="658" 
d="M292 -9q-134 0 -201 97q-7 11 3 16l57 23q7 4 15 -6q48 -58 126 -58q101 0 152.5 73.5t51.5 193.5q0 18 -2.5 21.5t-14.5 -1.5q-33 -17 -53.5 -25.5t-56.5 -17t-73 -8.5q-112 0 -176.5 61t-64.5 157q0 103 74 168.5t184 65.5q130 0 204.5 -97.5t74.5 -271.5
q0 -183 -80 -287t-220 -104zM307 369q42 0 90.5 14.5t78.5 36.5q12 8 16 16.5t4 26.5q0 80 -48.5 149t-134.5 69q-70 0 -116.5 -46.5t-46.5 -114.5q0 -64 43 -107.5t114 -43.5z" />
    <glyph glyph-name="colon" unicode=":" horiz-adv-x="209" 
d="M155 496v-85q0 -16 -18 -16h-70q-15 0 -15 15v84q0 13 11 13h82q10 0 10 -11zM155 103v-84q0 -16 -18 -16h-70q-15 0 -15 14v85q0 12 11 12h82q10 0 10 -11z" />
    <glyph glyph-name="semicolon" unicode=";" horiz-adv-x="229" 
d="M67 394q-15 0 -15 14v85q0 13 11 13h82q10 0 10 -11v-86q0 -15 -18 -15h-70zM52 -144q-12 0 -7 14l45 114q6 16 -8 16h-13q-13 0 -13 12v89q0 11 10 11h83q10 0 10 -10v-82q0 -8 -3 -12l-73 -141q-6 -11 -20 -11h-11z" />
    <glyph glyph-name="less" unicode="&#x3c;" horiz-adv-x="544" 
d="M477 214v-41q0 -23 -22 -15l-388 152q-14 7 -14 17v56q0 12 14 17l389 154q22 9 22 -13v-45q0 -13 -22 -23l-301 -118l301 -118q21 -8 21 -23z" />
    <glyph glyph-name="equal" unicode="=" horiz-adv-x="557" 
d="M496 495v-43q0 -13 -16 -13l-405 -1q-13 0 -13 12v43q0 11 9 11l415 1q10 0 10 -10zM496 270v-43q0 -14 -16 -14l-405 -1q-13 0 -13 12v43q0 12 9 12h415q10 0 10 -9z" />
    <glyph glyph-name="greater" unicode="&#x3e;" horiz-adv-x="544" 
d="M67 214q0 15 21 23l301 118l-301 118q-22 10 -22 23v45q0 22 22 13l389 -154q14 -5 14 -17v-56q0 -10 -14 -17l-388 -152q-22 -8 -22 15v41z" />
    <glyph glyph-name="question" unicode="?" horiz-adv-x="523" 
d="M34 605q-11 3 -5 13q32 63 94.5 98.5t141.5 35.5q101 0 162.5 -50t61.5 -129q0 -47 -21 -87.5t-51.5 -71.5t-61 -61.5t-51.5 -71t-21 -86.5q0 -12 -12 -12h-48q-13 0 -13 14q0 52 20 97t48 77t56 62t48 65t20 72q0 53 -38 84.5t-100 31.5q-50 0 -97 -27t-64 -67
q-4 -8 -12 -5zM298 100v-84q0 -16 -19 -16h-70q-14 0 -14 14v85q0 12 10 12h83q10 0 10 -11z" />
    <glyph glyph-name="at" unicode="@" horiz-adv-x="834" 
d="M656 -46q-95 -67 -221 -67q-177 0 -282 107t-105 267q0 166 112 283t289 117q67 0 128.5 -19t113 -57t82 -101.5t30.5 -144.5q0 -113 -55 -185.5t-139 -72.5q-75 0 -90 53q-4 11 -11 1q-52 -68 -140 -68q-59 0 -100 49t-40 127q0 97 54.5 164.5t138.5 67.5q77 0 116 -64
q1 -1 2 -1t2.5 1t2.5 4l7 28q1 6 8 6h45q8 0 7 -7l-37 -222q-7 -44 3 -61.5t37 -17.5q51 0 86.5 53t35.5 139q0 70 -25 123.5t-67 84.5t-91.5 46t-103.5 15q-156 0 -245.5 -98t-89.5 -244q0 -138 88 -227t246 -89q40 0 74 9t52 18.5t49 29.5q13 9 20 -1l20 -26q6 -9 -7 -20z
M300 248q0 -55 21.5 -87t60.5 -32q49 0 87 41.5t46 100.5q9 66 -18.5 104t-71.5 38q-55 0 -90 -48t-35 -117z" />
    <glyph glyph-name="A" unicode="A" horiz-adv-x="727" 
d="M55 0q-15 0 -9 17l259 711q6 14 20 14h78q19 0 23 -15l256 -710q4 -17 -10 -17h-71q-12 0 -16 10l-69 194q-3 8 -12 8h-291q-9 0 -12 -8l-71 -195q-3 -9 -15 -9h-60zM236 288h242q11 0 8 13l-120 329q-8 19 -14 0l-122 -331q-6 -11 6 -11z" />
    <glyph glyph-name="B" unicode="B" horiz-adv-x="699" 
d="M109 0q-12 0 -12 12v716q0 14 13 14h231q133 0 205.5 -49.5t72.5 -142.5q0 -121 -131 -167q-7 -3 -3 -7q1 -1 3 -1q149 -38 149 -177q0 -99 -74 -148.5t-215 -49.5h-239zM202 411h152q70 0 119 30t49 98q0 66 -48 99.5t-133 33.5h-135q-13 0 -13 -12v-236q0 -13 9 -13z
M202 70h141q194 0 194 131q0 70 -50 104t-133 34h-147q-14 0 -14 -12v-243q0 -14 9 -14z" />
    <glyph glyph-name="C" unicode="C" horiz-adv-x="707" 
d="M378 752q101 0 180 -60.5t91 -144.5q2 -14 -7 -15l-75 -6q-5 -1 -6.5 1t-3.5 9q-15 65 -62 104t-114 39q-105 0 -160.5 -77.5t-55.5 -231.5q0 -304 221 -304q71 0 118.5 34.5t76.5 108.5q2 7 12 4l59 -14q7 -2 5 -14q-23 -79 -96 -137t-179 -58q-149 0 -233 102t-84 280
t83.5 279t229.5 101z" />
    <glyph glyph-name="D" unicode="D" horiz-adv-x="722" 
d="M112 742q133 0 156 -1q203 -3 296 -94t93 -270q0 -189 -98.5 -283t-300.5 -94h-147q-14 0 -14 16v712q0 14 15 14zM203 669q-10 0 -10 -14v-572q0 -11 12 -11h38q167 0 240.5 68.5t73.5 231.5q0 166 -72.5 231.5t-236.5 65.5h-45z" />
    <glyph glyph-name="E" unicode="E" horiz-adv-x="628" 
d="M97 728q0 14 12 14h449q10 0 10 -11v-51q0 -12 -13 -12h-349q-13 0 -13 -12v-234q0 -11 11 -11h259q11 0 11 -11v-53q0 -9 -11 -9h-259q-11 0 -11 -11v-243q0 -10 10 -10h367q11 0 11 -10v-53q0 -11 -11 -11h-459q-14 0 -14 14v714z" />
    <glyph glyph-name="F" unicode="F" horiz-adv-x="601" 
d="M97 728q0 14 12 14h440q10 0 10 -11v-51q0 -12 -13 -12h-340q-13 0 -13 -12v-246q0 -11 11 -11h267q11 0 11 -10v-53q0 -9 -11 -9h-267q-11 0 -11 -11v-303q0 -13 -14 -13h-68q-14 0 -14 14v714z" />
    <glyph glyph-name="G" unicode="G" horiz-adv-x="739" 
d="M375 -10q-144 0 -227 101t-83 277q0 180 85 282t229 102q102 0 181 -59.5t91 -140.5q1 -14 -8 -16l-72 -11q-8 -1 -11 10q-11 61 -61 102.5t-121 41.5q-103 0 -158 -78t-55 -227q0 -311 215 -311q90 0 141.5 55.5t55.5 125.5v60q1 11 -10 11h-163q-11 0 -11 10v43
q0 9 10 9l248 -1q15 0 15 -12v-351q0 -13 -12 -13h-23q-15 0 -18 12l-11 93q-2 11 -9 -1q-72 -114 -218 -114z" />
    <glyph glyph-name="H" unicode="H" horiz-adv-x="735" 
d="M533 347h-332q-8 0 -8 -8v-324q0 -15 -17 -15h-65q-14 0 -14 14v714q0 14 12 14h72q12 0 12 -13v-294q0 -12 11 -12h328q10 0 10 12v295q0 12 11 12h73q12 0 12 -14v-714q0 -14 -14 -14h-65q-17 0 -17 15v323q0 9 -9 9z" />
    <glyph glyph-name="I" unicode="I" horiz-adv-x="290" 
d="M109 742h72q12 0 12 -13v-712q0 -10 -4 -13.5t-14 -3.5h-63q-15 0 -15 14v714q0 14 12 14z" />
    <glyph glyph-name="J" unicode="J" horiz-adv-x="418" 
d="M325 163q0 -87 -38.5 -130t-121.5 -43q-41 0 -112 21q-14 5 -11 19l9 54q2 12 12 9q50 -20 82 -20q46 0 65 24.5t19 87.5v544q0 13 12 13h73q11 0 11 -13v-566z" />
    <glyph glyph-name="K" unicode="K" horiz-adv-x="701" 
d="M657 14q7 -14 -6 -14h-82q-13 0 -18 9l-221 369q-5 9 -15 -1l-115 -131q-7 -7 -7 -18v-213q0 -15 -17 -15h-64q-15 0 -15 13v717q0 12 11 12h74q11 0 11 -12v-367q0 -13 9 -2l328 372q6 9 20 9h69q8 0 10.5 -4.5t-2.5 -9.5l-233 -260q-4 -6 0 -13z" />
    <glyph glyph-name="L" unicode="L" horiz-adv-x="602" 
d="M97 728q0 14 12 14h72q12 0 12 -13v-645q0 -10 10 -10h346q12 0 12 -10v-53q0 -11 -12 -11h-438q-14 0 -14 14v714z" />
    <glyph glyph-name="M" unicode="M" horiz-adv-x="906" 
d="M111 0q-14 0 -14 15v713q0 14 12 14h96q13 0 17 -11l222 -573q7 -18 16 1l222 570q3 13 15 13h101q11 0 11 -13v-714q0 -15 -15 -15h-66q-15 0 -15 13v572q0 13 -5 0l-220 -572q-6 -13 -19 -13h-48q-15 0 -20 12l-217 567q-3 6 -5 0v-566q0 -13 -14 -13h-54z" />
    <glyph glyph-name="N" unicode="N" horiz-adv-x="757" 
d="M590 742h59q11 0 11 -12v-718q0 -12 -13 -12h-49q-15 0 -21 8l-386 561q-3 4 -5.5 5.5t-4 -0.5t-1.5 -6v-555q0 -13 -14 -13h-56q-13 0 -13 13v715q0 14 13 14h57q13 0 21 -10l375 -549q6 -7 10.5 -5.5t4.5 8.5v544q0 12 12 12z" />
    <glyph glyph-name="O" unicode="O" horiz-adv-x="764" 
d="M382 -10q-149 0 -233 99t-84 279q0 182 85 283t233 101q147 0 231.5 -100.5t84.5 -282.5q0 -180 -84 -279.5t-233 -99.5zM384 63q215 0 215 305q0 311 -216 311q-218 0 -218 -311q0 -305 219 -305z" />
    <glyph glyph-name="P" unicode="P" horiz-adv-x="690" 
d="M636 526q0 -107 -71.5 -161.5t-192.5 -54.5h-170q-9 0 -9 -9v-286q0 -15 -15 -15h-68q-13 0 -13 13v715q0 14 12 14h252q125 0 200 -53.5t75 -162.5zM538 529q0 140 -182 140h-150q-13 0 -13 -12v-260q0 -14 9 -14h161q82 0 128.5 36.5t46.5 109.5z" />
    <glyph glyph-name="Q" unicode="Q" horiz-adv-x="765" 
d="M65 369q0 183 84.5 283t232.5 100t232.5 -100t84.5 -283q0 -233 -140 -327q-4 -3 -4 -9q0 -20 40 -48.5t87 -34.5q10 -1 10 -9v-47q0 -11 -6 -14.5t-21 -3.5q-105 0 -189 118q-4 6 -15 4q-33 -8 -79 -8q-148 0 -232.5 98t-84.5 281zM165 367q0 -304 217 -304t217 305
q0 311 -217 311t-217 -312z" />
    <glyph glyph-name="R" unicode="R" horiz-adv-x="696" 
d="M627 19q3 -8 -0.5 -13.5t-10.5 -5.5h-73q-11 0 -16 12l-129 315q-6 12 -24 12h-169q-12 0 -12 -11v-312q0 -16 -17 -16h-65q-14 0 -14 13v715q0 14 12 14h279q119 0 184 -49t65 -143q0 -79 -42.5 -127.5t-103.5 -66.5q-8 -2 -4 -10zM360 408q89 0 133 32t44 101
q0 131 -154 131h-176q-14 0 -14 -11v-240q0 -13 9 -13h158z" />
    <glyph glyph-name="S" unicode="S" horiz-adv-x="641" 
d="M498 604q-64 75 -170 75q-75 0 -118 -33t-43 -92q0 -78 107 -114l145 -48q167 -56 167 -196q0 -96 -71 -151t-194 -55q-184 0 -269 125q-9 13 6 24l36 25q15 11 25 0q43 -55 85 -78t113 -23q177 0 177 123q0 39 -24.5 66.5t-88.5 51.5l-152 52q-79 27 -116.5 77.5
t-37.5 111.5q0 94 69.5 150.5t183.5 56.5q146 0 234 -99q9 -11 0 -19l-46 -36q-7 -5 -18 6z" />
    <glyph glyph-name="T" unicode="T" horiz-adv-x="645" 
d="M42 679v52q0 11 12 11h538q12 0 12 -11v-52q0 -10 -12 -10h-203q-11 0 -11 -10v-646q0 -13 -12 -13h-72q-12 0 -12 13v645q0 11 -10 11h-218q-12 0 -12 10z" />
    <glyph glyph-name="U" unicode="U" horiz-adv-x="709" 
d="M622 247q0 -257 -267 -257q-139 0 -203 67t-64 207v464q0 14 11 14h72q12 0 12 -13v-486q0 -179 178 -179q180 0 180 182v483q0 13 11 13h59q11 0 11 -12v-483z" />
    <glyph glyph-name="V" unicode="V" horiz-adv-x="707" 
d="M651 742q7 0 9.5 -4.5t0.5 -9.5l-253 -713q-5 -15 -22 -15h-68q-20 0 -24 14l-248 713q-3 6 0.5 10.5t10.5 4.5h69q12 0 17 -12l208 -606q8 -18 15 1l211 606q3 11 15 11h59z" />
    <glyph glyph-name="W" unicode="W" horiz-adv-x="1045" 
d="M985 742q18 0 14 -18l-206 -709q-4 -15 -22 -15h-61q-19 0 -23 14l-160 567q-3 11 -7 -1l-162 -565q-4 -15 -22 -15h-62q-19 0 -23 14l-203 710q-5 18 14 18h64q14 0 17 -12l163 -582q2 -7 4 -9.5t4.5 0t3.5 8.5l166 584q4 11 18 11h57q13 0 18 -12l164 -585q5 -20 12 0
l165 586q2 11 17 11h50z" />
    <glyph glyph-name="X" unicode="X" horiz-adv-x="688" 
d="M638 21q14 -21 -7 -21h-76q-12 0 -16 8l-190 286q-11 18 -23 -2l-187 -284q-5 -8 -17 -8h-66q-19 0 -5 21l229 345q8 11 0 25l-224 336q-2 3 -2.5 6.5t2 6t6.5 2.5h81q11 0 17 -9l175 -267q9 -14 19 0l175 267q5 9 16 9h73q14 0 5 -13l-222 -331q-7 -11 0 -22z" />
    <glyph glyph-name="Y" unicode="Y" horiz-adv-x="675" 
d="M624 742q7 0 9.5 -4t-1.5 -10l-238 -398q-6 -10 -6 -33v-280q0 -17 -19 -17h-60q-16 0 -16 15v278q0 14 -8 27l-241 406q-5 7 -2 11.5t13 4.5h72q13 0 21 -12l186 -320q11 -20 22 -2l185 322q6 12 21 12h62z" />
    <glyph glyph-name="Z" unicode="Z" horiz-adv-x="631" 
d="M60 0q-13 0 -13 12v23q0 11 11 27l389 596q6 10 -5 10h-368q-11 0 -11 11v53q0 10 10 10h500q9 0 9 -10v-26q0 -9 -8 -20l-395 -602q-7 -9 4 -9h387q11 0 11 -9v-55q0 -11 -12 -11h-509z" />
    <glyph glyph-name="bracketleft" unicode="[" horiz-adv-x="287" 
d="M90 732q0 10 12 10h161q9 0 9 -7v-41q0 -8 -9 -8h-86q-12 0 -12 -13l-1 -772q0 -10 11 -10h85q11 0 11 -10v-35q0 -11 -11 -11h-155q-15 0 -15 13v884z" />
    <glyph glyph-name="backslash" unicode="\" horiz-adv-x="342" 
d="M277 -44q-12 0 -18 13l-246 757q-4 16 8 16h44q10 0 13 -9l251 -768q4 -9 -8 -9h-44z" />
    <glyph glyph-name="bracketright" unicode="]" horiz-adv-x="287" 
d="M197 732v-884q0 -13 -15 -13h-155q-11 0 -11 11v35q0 10 11 10h85q11 0 11 10l-1 772q0 13 -12 13h-86q-9 0 -9 8v41q0 7 9 7h161q12 0 12 -10z" />
    <glyph glyph-name="asciicircum" unicode="^" horiz-adv-x="476" 
d="M355 141l-111 282q-3 6 -7.5 6t-6.5 -6l-112 -282q-4 -7 -15 -7h-45q-12 0 -7 14l146 356q15 35 39.5 36t40.5 -36l147 -359q4 -13 -9 -13h-43q-14 0 -17 9z" />
    <glyph glyph-name="underscore" unicode="_" horiz-adv-x="518" 
d="M456 -60v-44q0 -13 -16 -13l-365 -1q-13 0 -13 12v44q0 12 9 12h375q10 0 10 -10z" />
    <glyph glyph-name="grave" unicode="`" horiz-adv-x="285" 
d="M27 746q2 9 11 5l232 -93q8 -4 4 -14l-8 -22q-2 -11 -15 -8l-229 69q-14 5 -10 18z" />
    <glyph glyph-name="a" unicode="a" horiz-adv-x="548" 
d="M382 64q-77 -74 -178 -74q-77 0 -122 39.5t-45 105.5q0 79 68 125.5t196 54.5l78 6q16 2 16 15v27q0 54 -33.5 85.5t-90.5 31.5q-88 0 -143 -80q-7 -9 -15 -6l-54 18q-8 3 -2 16q63 112 218 112q97 0 149 -45.5t52 -125.5v-354q0 -15 -13 -15h-51q-12 0 -14 16l-1 46
q-3 14 -15 2zM395 254q0 16 -14 16l-66 -6q-194 -13 -194 -119q0 -43 30.5 -68t82.5 -25q62 0 113 41q48 38 48 78v83z" />
    <glyph glyph-name="b" unicode="b" 
d="M125 0h-32q-16 0 -16 16v712q0 14 12 14h62q10 0 10 -14v-245q0 -19 15 -6q67 63 160 63q105 0 159.5 -75.5t54.5 -196.5q0 -129 -60.5 -203.5t-167.5 -74.5q-104 0 -163 79q-9 11 -11 -3l-5 -50q-3 -16 -18 -16zM161 405v-226q0 -53 44 -91t99 -38q72 0 115.5 54
t43.5 162q0 102 -39 157.5t-113 55.5q-88 0 -150 -74z" />
    <glyph glyph-name="c" unicode="c" horiz-adv-x="542" 
d="M297 540q139 0 207 -124q5 -12 -5 -15l-55 -13q-7 -3 -13 7q-32 43 -61.5 63t-67.5 20q-78 0 -124 -57.5t-46 -155.5q0 -99 46.5 -156t125.5 -57q89 0 147 94q5 8 13 4l43 -16q7 -3 4 -13q-31 -58 -85 -94.5t-129 -36.5q-111 0 -181 75.5t-70 197.5t70.5 199.5
t180.5 77.5z" />
    <glyph glyph-name="d" unicode="d" 
d="M454 0q-14 0 -14 14v43q0 15 -13 4q-71 -71 -157 -71q-98 0 -160 69t-62 198q0 127 65.5 205t168.5 78q78 0 140 -53q16 -13 16 7v235q0 13 11 13h61q11 0 11 -13v-713q0 -9 -3 -12.5t-13 -3.5h-51zM437 413q-65 65 -135 65q-76 0 -122 -57t-46 -161q0 -105 45.5 -157
t116.5 -52q58 0 99.5 38.5t41.5 82.5v241z" />
    <glyph glyph-name="e" unicode="e" horiz-adv-x="581" 
d="M133 232q0 -74 51 -126t124 -52q100 0 156 83q7 7 14 3l42 -21q8 -5 2 -14q-75 -115 -222 -115q-111 0 -182.5 75t-71.5 195q0 127 71.5 203.5t181.5 76.5t175.5 -72t65.5 -199q0 -8 -0.5 -11t-4 -7t-10.5 -4h-383q-9 0 -9 -15zM135 302h304q11 0 14 2.5t3 11.5
q0 68 -42 116t-113 48q-76 0 -121.5 -53.5t-44.5 -124.5z" />
    <glyph glyph-name="f" unicode="f" horiz-adv-x="379" 
d="M345 530q10 0 10 -10v-43q0 -9 -10 -9h-114q-8 0 -8 -9v-445q0 -14 -12 -14h-61q-11 0 -11 13v447q0 8 -7 8h-98q-10 0 -10 9v43q0 10 11 10h95q9 0 9 10v73q0 129 125 129h83q13 0 13 -12v-39q0 -10 -11 -10h-70q-58 0 -58 -72v-70q0 -9 9 -9h115z" />
    <glyph glyph-name="g" unicode="g" horiz-adv-x="602" 
d="M556 539q19 0 19 -16v-35q0 -19 -20 -18q-33 0 -52 -9q-24 -10 -20 -23q17 -42 17 -68q0 -71 -55.5 -116t-161.5 -45q-133 0 -133 -43q0 -15 21 -22.5t70 -10.5l129 -7q170 -10 170 -139q0 -76 -66.5 -119t-189.5 -43q-127 0 -193.5 36.5t-66.5 104.5q0 67 94 113
q11 5 0 11q-46 20 -46 59q0 22 20.5 42t58.5 33q12 3 0 12q-86 44 -86 134q0 78 59 123t167 45q95 0 150 -45q10 -9 21 0q48 46 94 46zM283 262q138 0 138 109q0 54 -35 84t-103 30q-66 0 -103 -30.5t-37 -83.5q0 -52 36.5 -80.5t103.5 -28.5zM362 55l-167 10
q-30 2 -63 -24.5t-33 -64.5q0 -99 194 -99q169 0 169 100q0 73 -100 78z" />
    <glyph glyph-name="h" unicode="h" horiz-adv-x="584" 
d="M91 0q-13 0 -13 13v716q0 13 11 13h59q11 0 11 -12v-267q0 -11 9 -3q57 44 97 62t88 18q77 0 118.5 -41t41.5 -111v-372q0 -16 -15 -16h-56q-13 0 -13 13v357q0 104 -104 104q-42 0 -76.5 -18.5t-86.5 -62.5v-378q0 -15 -16 -15h-55z" />
    <glyph glyph-name="i" unicode="i" horiz-adv-x="239" 
d="M165 727v-83q0 -19 -18 -19h-58q-15 0 -15 17v84q0 16 14 16h63q14 0 14 -15zM161 517v-500q0 -10 -4 -13.5t-14 -3.5h-51q-15 0 -15 14v502q0 14 12 14h61q11 0 11 -13z" />
    <glyph glyph-name="j" unicode="j" horiz-adv-x="239" 
d="M165 727v-83q0 -19 -17 -19h-59q-15 0 -15 17v84q0 16 14 16h64q13 0 13 -15zM162 -29q0 -74 -31.5 -107.5t-108.5 -33.5q-43 0 -54.5 2.5t-11.5 10.5v44q0 11 10 11l51 3q32 2 46.5 18.5t14.5 57.5v539q0 14 12 14h61q11 0 11 -13v-546z" />
    <glyph glyph-name="k" unicode="k" horiz-adv-x="564" 
d="M535 16q4 -6 1.5 -11t-10.5 -5h-70q-10 0 -18 12l-151 259q-5 9 -12 2l-106 -107q-7 -7 -7 -20v-129q0 -10 -4 -13.5t-14 -3.5h-51q-15 0 -15 14v714q0 14 11 14h61q12 0 12 -13v-464q0 -15 10 -4l247 257q11 12 21 12h61q22 0 5 -19l-158 -161q-7 -8 -1 -17z" />
    <glyph glyph-name="l" unicode="l" horiz-adv-x="239" 
d="M162 729v-712q0 -17 -18 -17h-52q-15 0 -15 14l1 714q0 14 12 14h60q12 0 12 -13z" />
    <glyph glyph-name="m" unicode="m" horiz-adv-x="906" 
d="M91 0q-14 0 -14 13v504q0 13 11 13h60q10 0 10 -11v-58q0 -12 10 -3q54 44 92 63t85 19q56 0 92.5 -25t49.5 -63q3 -8 14 2q52 44 93.5 65t87.5 21q72 0 112.5 -41t40.5 -111v-372q0 -16 -15 -16h-56q-13 0 -13 13v357q0 104 -96 104q-66 0 -143 -68q-14 -14 -14 -29
v-361q0 -16 -15 -16h-56q-13 0 -13 13v357q0 104 -96 104q-40 0 -73.5 -18.5t-83.5 -62.5v-378q0 -15 -15 -15h-55z" />
    <glyph glyph-name="n" unicode="n" horiz-adv-x="584" 
d="M91 0q-14 0 -14 13v504q0 13 11 13h60q11 0 11 -11v-58q0 -11 9 -3q56 44 95.5 63t88.5 19q76 0 118.5 -41t42.5 -110v-373q0 -16 -15 -16h-56q-13 0 -13 13v357q0 104 -104 104q-42 0 -77.5 -18.5t-86.5 -62.5v-378q0 -15 -15 -15h-55z" />
    <glyph glyph-name="o" unicode="o" 
d="M299 -10q-113 0 -183 75.5t-70 196.5q0 123 71 200.5t183 77.5q113 0 182.5 -77.5t69.5 -199.5q0 -121 -70 -197t-183 -76zM301 53q78 0 121.5 56.5t43.5 155.5q0 98 -44.5 155.5t-121.5 57.5q-78 0 -123 -57.5t-45 -155.5t45 -155t124 -57z" />
    <glyph glyph-name="p" unicode="p" horiz-adv-x="597" 
d="M146 530q14 0 14 -15v-42q0 -15 13 -4l4 4q18 18 31.5 29t47.5 24.5t74 13.5q97 0 158 -68.5t61 -198.5q0 -132 -63 -207.5t-167 -75.5q-83 0 -142 50q-16 15 -16 -6v-186q0 -13 -11 -13h-62q-11 0 -11 13v666q0 16 16 16h53zM161 117q64 -66 136 -66q75 0 120.5 57
t45.5 164q0 104 -45 155.5t-116 51.5q-59 0 -100 -36.5t-41 -78.5v-247z" />
    <glyph glyph-name="q" unicode="q" 
d="M478 530h29q15 0 15 -17v-665q0 -13 -12 -13h-61q-11 0 -11 13v184q0 12 -3 13.5t-12 -5.5q-65 -50 -148 -50q-105 0 -166 75t-61 202q0 124 61 198.5t168 74.5q100 0 165 -71q8 -10 11 3l7 42q3 16 18 16zM438 115v236q0 52 -40.5 91t-100.5 39q-71 0 -117 -54.5
t-46 -158.5t45 -160.5t119 -56.5q84 0 140 64z" />
    <glyph glyph-name="r" unicode="r" horiz-adv-x="383" 
d="M91 0q-14 0 -14 13v504q0 13 11 13h58q11 0 11 -11v-65q0 -6 3.5 -7t7.5 4q76 89 155 89q35 0 35 -13v-60q0 -9 -9 -8q-18 3 -45 3q-46 0 -94.5 -37t-48.5 -79v-331q0 -15 -15 -15h-55z" />
    <glyph glyph-name="s" unicode="s" horiz-adv-x="512" 
d="M395 413q-46 68 -142 68q-55 0 -90 -23.5t-35 -61.5q0 -49 81 -74l127 -38q130 -36 130 -138q0 -70 -61 -113t-155 -43q-77 0 -137 30.5t-85 79.5q-6 11 2 16l39 22q10 6 15 -1q54 -86 167 -86q59 1 97.5 24.5t38.5 61.5q0 28 -23 47t-75 34l-103 29q-136 35 -136 134
q-1 71 55.5 115t148.5 44q66 0 118.5 -25t80.5 -68q7 -10 -1 -14l-42 -23q-9 -5 -15 3z" />
    <glyph glyph-name="t" unicode="t" horiz-adv-x="387" 
d="M344 468h-127q-8 0 -8 -9v-317q0 -45 15 -62t49 -17h69q11 0 11 -11l-1 -34q0 -10 -12 -13q-26 -5 -94 -5q-63 0 -92 29.5t-29 93.5v334q0 11 -10 11h-80q-11 0 -11 10v42q0 10 10 10h85q7 0 7 8l11 159q0 13 11 13h50q12 0 12 -14v-158q0 -8 8 -8h126q11 0 11 -9v-43
q0 -10 -11 -10z" />
    <glyph glyph-name="u" unicode="u" horiz-adv-x="579" 
d="M257 56q76 0 161 87v373q0 14 16 14h55q14 0 14 -14l-2 -503q0 -13 -11 -13h-58q-11 0 -11 11v59q0 12 -9 3q-97 -83 -182 -83q-70 0 -115 42t-45 111v372q0 15 15 15h56q13 0 13 -14v-351q0 -50 27.5 -79.5t75.5 -29.5z" />
    <glyph glyph-name="v" unicode="v" horiz-adv-x="547" 
d="M508 530q7 0 9.5 -4.5t0.5 -9.5l-203 -501q-5 -15 -23 -15h-36q-19 0 -25 14l-202 501q-2 6 1 10.5t10 4.5h62q11 0 16 -11l157 -393q7 -19 16 1l156 392q3 11 15 11h46z" />
    <glyph glyph-name="w" unicode="w" horiz-adv-x="796" 
d="M755 530q6 0 9 -4.5t1 -9.5l-153 -503q-4 -13 -19 -13h-48q-17 0 -21 13l-119 374q-7 17 -12 0l-113 -374q-4 -13 -19 -13h-51q-17 0 -21 13l-157 502q-2 6 1 10.5t10 4.5h59q11 0 16 -11l119 -389q7 -22 15 1l118 389q3 10 14 10h47q12 0 15 -11l123 -389q2 -6 4.5 -8.5
t5 0t4.5 9.5l115 388q5 11 17 11h40z" />
    <glyph glyph-name="x" unicode="x" horiz-adv-x="544" 
d="M510 21q14 -21 -4 -21h-70q-15 0 -21 9l-141 194q-5 7 -8.5 7t-8.5 -7l-147 -194q-6 -9 -21 -9h-47q-26 0 -7 24l182 232q9 10 0 22l-174 236q-5 5 -2 10.5t10 5.5h67q13 0 19 -9l135 -183q8 -11 15 0l131 183q6 9 20 9h52q8 0 9.5 -4.5t-3.5 -9.5l-169 -226q-8 -9 0 -22
z" />
    <glyph glyph-name="y" unicode="y" horiz-adv-x="530" 
d="M106 -165h-26.5t-18 1.5t-13 4t-3.5 7.5v39q0 13 28 13h63q42 0 69.5 49.5t13.5 85.5l-191 478q-6 17 11 17h62q11 0 16 -11l149 -388q9 -21 18 3l147 385q5 11 14 11h47q6 0 9 -4.5t1 -9.5l-220 -563q-27 -68 -67 -93t-109 -25z" />
    <glyph glyph-name="z" unicode="z" horiz-adv-x="482" 
d="M43 0q-12 0 -12 12v29q0 13 12 29l291 391q7 10 -5 10h-265q-11 0 -11 11v37q0 11 10 11h370q9 0 9 -10v-32q0 -13 -10 -26l-292 -392q-9 -11 3 -11h294q11 0 11 -9v-38q0 -12 -13 -12h-392z" />
    <glyph glyph-name="braceleft" unicode="{" horiz-adv-x="305" 
d="M116 639q0 47 35 75t93 28h37q9 0 9 -7v-41q0 -8 -9 -8h-25q-36 0 -50 -13t-14 -40v-221q-1 -55 -29.5 -84.5t-70.5 -34.5q-6 -1 -6.5 -3t6.5 -3q42 -3 70.5 -31.5t29.5 -86.5v-223q0 -30 14 -42.5t50 -12.5h23q11 0 11 -10v-35q0 -11 -11 -11h-34q-59 0 -94 28.5
t-35 75.5v225q0 40 -29 69.5t-81 29.5q-6 0 -6 10v34q0 10 6 10q54 1 82 29t28 75v218z" />
    <glyph glyph-name="bar" unicode="|" horiz-adv-x="261" 
d="M153 -165h-43q-12 0 -12 13l-1 987q0 12 11 12h44q12 0 12 -12v-989q0 -11 -11 -11z" />
    <glyph glyph-name="braceright" unicode="}" horiz-adv-x="305" 
d="M189 639v-218q0 -47 28 -75t82 -29q6 0 6 -10v-34q0 -10 -6 -10q-52 0 -81 -29.5t-29 -69.5v-225q0 -47 -35 -75.5t-94 -28.5h-34q-11 0 -11 11v35q0 10 11 10h23q36 0 50 12.5t14 42.5v223q1 58 29.5 86.5t70.5 31.5q7 1 6.5 3t-6.5 3q-42 5 -70.5 34.5t-29.5 84.5v221
q0 27 -14 40t-50 13h-25q-9 0 -9 8v41q0 7 9 7h37q58 0 93 -28t35 -75z" />
    <glyph glyph-name="asciitilde" unicode="~" horiz-adv-x="568" 
d="M502 372q-37 -53 -120 -53q-42 0 -98.5 25.5t-89.5 25.5q-58 0 -103 -47q-8 -9 -12 2l-17 32q-4 8 3 14q32 29 60 44t67 15t97.5 -26t92.5 -26q53 0 92 43q9 13 16 -2l15 -30q4 -8 -3 -17z" />
    <glyph glyph-name="uni00A0" unicode="&#xa0;" horiz-adv-x="214" 
 />
    <glyph glyph-name="exclamdown" unicode="&#xa1;" horiz-adv-x="244" 
d="M174 430q0 -11 -10 -11h-83q-10 0 -10 12v85q0 14 15 14h69q19 0 19 -16v-84zM173 -155q2 -10 -9 -10h-82q-11 0 -9 11l21 492q2 12 13 12h29q16 0 16 -14z" />
    <glyph glyph-name="cent" unicode="&#xa2;" horiz-adv-x="558" 
d="M507 245q7 -3 4 -13q-63 -118 -188 -130v-85q0 -17 -18 -17h-30q-16 0 -16 16v88q-96 13 -154.5 86t-58.5 184q0 110 59 185t154 89v80q0 14 15 14h35q14 0 14 -13v-79q119 -12 181 -123q5 -12 -5 -15l-55 -13q-7 -3 -13 7q-32 43 -61.5 63t-67.5 20q-78 0 -124 -57.5
t-46 -155.5q0 -99 46.5 -156t125.5 -57q89 0 147 94q5 8 13 4z" />
    <glyph glyph-name="sterling" unicode="&#xa3;" horiz-adv-x="615" 
d="M23 0q-11 0 -11 11v53q0 9 9 9h30q42 -1 68 36.5t26 110.5q0 39 -11 127q-1 7 -7 7h-90q-8 0 -8 8v40q0 8 8 8h77q8 0 7 8l-14 75q-24 115 39.5 187t166.5 72q66 0 123 -31.5t77 -79.5q2 -7 -8 -10l-54 -19q-11 -5 -14 4q-34 62 -114 62q-56 0 -92.5 -32.5t-36.5 -87.5
q0 -67 23 -140q2 -8 8 -8h155q7 0 7 -6v-42q0 -7 -7 -7h-144q-10 0 -8 -8q9 -56 6 -112q-2 -100 -51 -152q-7 -9 3 -9h175q51 0 83 17t49 57q3 10 14 6l50 -13q12 -3 8 -12q-21 -64 -72.5 -96.5t-126.5 -32.5h-343z" />
    <glyph glyph-name="currency" unicode="&#xa4;" horiz-adv-x="537" 
d="M268 183q-57 0 -105 31q-9 5 -14 -1l-44 -45q-9 -9 -20 0l-23 25q-9 9 0 17l44 45q6 8 0 17q-28 47 -28 101q0 57 31 104q4 8 -2 13l-44 45q-9 9 0 19l24 24q9 10 18 1l45 -46q6 -5 14 -1q47 31 103 31q55 0 105 -32q6 -5 12 1l48 48q7 7 12 0l31 -31q5 -6 0 -12l-49 -49
q-4 -4 -1 -11q32 -48 32 -104q0 -60 -32 -104q-3 -7 1 -11l49 -48q6 -7 0 -13l-30 -31q-6 -6 -12 0l-47 48q-6 6 -12 2q-49 -33 -106 -33zM269 249q52 0 88 37t36 87t-36 87t-88 37t-88.5 -37t-36.5 -87t36.5 -87t88.5 -37z" />
    <glyph glyph-name="yen" unicode="&#xa5;" horiz-adv-x="609" 
d="M590 742q17 0 8 -14l-231 -383h137q10 0 10 -10v-32q0 -13 -17 -13h-140v-93h147q10 0 10 -10v-32q0 -14 -17 -14h-140v-124q0 -17 -20 -17h-60q-16 0 -16 15v126h-145q-12 0 -12 12v32q0 11 8 11h149v93h-145q-12 0 -12 12v32q0 11 8 11h128l-227 382q-9 16 11 16h75
q14 0 21 -12l185 -321q5 -9 8.5 -9.5t8.5 8.5l188 322q7 12 21 12h59z" />
    <glyph glyph-name="brokenbar" unicode="&#xa6;" horiz-adv-x="261" 
d="M153 438h-43q-12 0 -12 12l-1 385q0 12 11 12h44q12 0 12 -12v-387q0 -10 -11 -10zM153 -165h-43q-12 0 -12 13l-1 384q0 13 11 13h44q12 0 12 -13v-386q0 -11 -11 -11z" />
    <glyph glyph-name="section" unicode="&#xa7;" horiz-adv-x="488" 
d="M355 204q96 -54 96 -131q0 -64 -54 -105t-144 -41q-70 0 -128 29.5t-85 78.5q-5 11 0 14l43 23q8 4 15 -4q54 -80 156 -80q52 0 84.5 20.5t32.5 57.5q0 28 -23 51.5t-80 45.5l-90 35q-68 26 -99 61.5t-31 85.5q0 46 28 80.5t74 52.5q-57 30 -78.5 61.5t-21.5 71.5
q0 61 52.5 101t137.5 40q62 0 112 -26.5t76 -66.5q6 -10 -1 -14l-39 -22q-11 -5 -17 3q-54 65 -126 65q-54 0 -84.5 -20t-30.5 -53q0 -52 85 -86l85 -34q79 -32 113.5 -71t34.5 -93q0 -84 -93 -130zM277 239q39 -3 67 21.5t28 59.5t-18 58.5t-71 45.5l-57 22
q-43 -4 -73 -30.5t-30 -59.5q0 -30 18.5 -49.5t72.5 -41.5z" />
    <glyph glyph-name="dieresis" unicode="&#xa8;" horiz-adv-x="250" 
d="M93 730v-83q0 -15 -16 -15h-53q-14 0 -14 13v84q0 13 11 13h61q11 0 11 -12zM240 730v-83q0 -9 -3.5 -12t-13.5 -3h-52q-15 0 -15 13v84q0 13 11 13h62q11 0 11 -12z" />
    <glyph glyph-name="copyright" unicode="&#xa9;" horiz-adv-x="830" 
d="M415 -10q-158 0 -269.5 111t-111.5 270q0 158 111.5 269.5t269.5 111.5q157 0 269 -112t112 -269q0 -159 -111.5 -270t-269.5 -111zM415 50q134 0 226 89t92 232q0 142 -92.5 232t-225.5 90q-135 0 -226.5 -90t-91.5 -232q0 -144 91 -232.5t227 -88.5zM417 588
q105 0 164 -102q4 -7 -4 -10l-49 -14q-6 -1 -10 6q-39 65 -97 65q-55 0 -89.5 -43t-34.5 -116t35 -116.5t91 -43.5q71 0 112 74q3 6 12 2l34 -13q6 -1 3 -10q-24 -46 -66.5 -76.5t-100.5 -30.5q-86 0 -140 59t-54 153q0 95 54.5 155.5t139.5 60.5z" />
    <glyph glyph-name="ordfeminine" unicode="&#xaa;" horiz-adv-x="401" 
d="M188 750q66 0 99 -29.5t33 -82.5v-165q0 -26 8 -50q2 -6 -1.5 -8.5t-10.5 -2.5h-38q-9 0 -12 9l-4 28q-1 8 -11 1q-50 -44 -104 -44q-52 0 -81 24.5t-29 67.5q0 97 165 111l48 5q11 2 11 10v15q0 66 -77 66q-55 0 -83 -45q-3 -5 -10 -3l-40 12q-5 2 -1 10q36 71 138 71z
M99 501q0 -24 18.5 -38t50.5 -14q39 0 69 27q24 22 24 43v45q0 6 -2 8.5t-8 1.5l-41 -3q-111 -9 -111 -70z" />
    <glyph glyph-name="guillemotleft" unicode="&#xab;" horiz-adv-x="446" 
d="M118 249l99 -169q2 -4 -0.5 -5.5t-8.5 -1.5h-29q-8 0 -10 6l-126 167q-7 12 -1 21l127 177q4 6 10 6h31q4 0 6.5 -3t0.5 -7l-99 -175q-4 -10 0 -16zM297 249l98 -169q2 -4 -0.5 -5.5t-8.5 -1.5h-29q-8 0 -10 6l-125 167q-9 12 -1 21l127 177q3 6 9 6h31q4 0 6.5 -3
t0.5 -7l-98 -175q-5 -8 0 -16z" />
    <glyph glyph-name="logicalnot" unicode="&#xac;" horiz-adv-x="557" 
d="M486 406q10 0 10 -10v-189q0 -13 -13 -13h-46q-12 0 -12 10l-1 136l-349 -1q-13 0 -13 12v43q0 12 9 12h415z" />
    <glyph glyph-name="uni00AD" unicode="&#xad;" horiz-adv-x="381" 
d="M319 289v-44q0 -14 -17 -14h-227q-13 0 -13 12v44q0 11 9 11l238 1q10 0 10 -10z" />
    <glyph glyph-name="registered" unicode="&#xae;" horiz-adv-x="545" 
d="M273 275q-100 0 -169.5 69.5t-69.5 168.5t69.5 169t169.5 70q98 0 168 -70t70 -169t-70 -168.5t-168 -69.5zM273 320q85 0 137.5 52.5t52.5 140.5q0 87 -53 140.5t-137 53.5q-86 0 -138.5 -53t-52.5 -141t52.5 -140.5t138.5 -52.5zM362 400q2 -7 -4 -7h-35q-3 0 -5 4
l-38 102q-1 4 -7 4h-46q-4 0 -4 -4v-100q0 -6 -5 -6h-31q-5 0 -5 5v227q0 5 3 5h103q80 0 80 -60q0 -46 -47 -62q-3 0 -1 -3zM282 536q43 0 43 30q0 31 -46 31h-51q-5 -3 -5 -4v-53q0 -4 4 -4h55z" />
    <glyph glyph-name="macron" unicode="&#xaf;" horiz-adv-x="316" 
d="M306 718v-39q0 -13 -15 -13h-270q-11 0 -11 12v39q0 11 8 11h280q8 0 8 -10z" />
    <glyph glyph-name="degree" unicode="&#xb0;" horiz-adv-x="464" 
d="M391 699q0 -69 -45 -114t-114 -45t-114 44.5t-45 114.5t45 114.5t114 44.5t114 -45t45 -114zM329 698q0 45 -27 73t-72 28t-72 -28t-26 -73q1 -46 27.5 -74.5t71.5 -28.5t71.5 28.5t26.5 74.5z" />
    <glyph glyph-name="plusminus" unicode="&#xb1;" horiz-adv-x="557" 
d="M486 483q10 0 10 -10v-43q0 -13 -16 -13h-168v-174q0 -10 -10 -10h-42q-14 0 -14 16v167h-171q-13 0 -13 12v43q0 11 9 11h175v172q0 13 11 13h43q12 0 12 -9v-175h174zM486 131q10 0 10 -9v-43q0 -14 -16 -14l-405 -1q-13 0 -13 12v43q0 12 9 12h415z" />
    <glyph glyph-name="uni00B2" unicode="&#xb2;" horiz-adv-x="452" 
d="M66 446l134 134q53 50 74 82t21 66q0 38 -27.5 60t-65.5 22q-67 0 -107 -62q-3 -7 -13 -2l-28 17q-8 5 -2 13q55 81 155 81q63 0 105 -34t42 -97q0 -40 -22 -75.5t-79 -89.5l-127 -119q-2 -1 -3 -3t1 -3t6 -1h221q8 0 8 -7v-36q0 -8 -8 -8h-292q-10 0 -10 10v26
q0 11 17 26z" />
    <glyph glyph-name="uni00B3" unicode="&#xb3;" horiz-adv-x="467" 
d="M76 785q-4 4 0 10q58 62 146 62q72 0 114.5 -33t42.5 -85q0 -35 -21.5 -62t-58.5 -40q-13 -5 0 -9q41 -11 67.5 -41.5t26.5 -73.5q0 -61 -46 -98t-133 -37q-97 0 -158 66q-4 6 2 11l27 21q7 7 10 0q51 -52 123 -52q55 0 85.5 23.5t30.5 63.5q0 43 -35.5 68t-83.5 25
l-56 1q-7 0 -7 6v33q0 4 7 6l46 1q49 0 82 24t33 61q0 32 -28 54t-70 22q-63 0 -112 -49q-6 -5 -12 0z" />
    <glyph glyph-name="acute" unicode="&#xb4;" horiz-adv-x="285" 
d="M262 748l15 -45q4 -13 -10 -18l-229 -69q-12 -3 -16 8l-8 22q-3 11 5 14l232 93q7 4 11 -5z" />
    <glyph glyph-name="uni00B5" unicode="&#xb5;" horiz-adv-x="579" 
d="M257 56q76 0 161 87v373q0 14 16 14h55q14 0 14 -14l-2 -503q0 -13 -11 -13h-58q-11 0 -11 11v60q0 11 -9 3q-50 -43 -86.5 -61.5t-75.5 -19.5q-61 -3 -96 28v-169q0 -10 -4 -13.5t-14 -3.5h-51q-15 0 -15 14v666q0 15 15 15h56q13 0 13 -14v-367q0 -38 30 -65.5
t73 -27.5z" />
    <glyph glyph-name="paragraph" unicode="&#xb6;" horiz-adv-x="561" 
d="M483 689h-48q-7 0 -7 -8v-757q0 -9 -7 -9h-41q-9 0 -9 9v759q0 6 -7 6h-36q-7 0 -7 -8v-758q0 -8 -8 -8h-42q-8 0 -8 8v377q0 5 -5 5q-96 3 -154 63t-58 149q0 93 62 159t173 66h202q7 0 7 -6v-41q0 -6 -7 -6z" />
    <glyph glyph-name="periodcentered" unicode="&#xb7;" horiz-adv-x="201" 
d="M155 416v-81q0 -15 -17 -15h-79q-14 0 -14 14v81q0 12 9 12h92q9 0 9 -11z" />
    <glyph glyph-name="cedilla" unicode="&#xb8;" horiz-adv-x="221" 
d="M211 -131q0 -37 -31.5 -58t-77.5 -21q-50 0 -88 22q-5 4 -4 9l11 26q3 5 9 2q28 -19 62 -19q57 0 57 38q0 43 -81 46q-8 0 -6 6l37 85h47l-23 -57q-3 -5 4 -5q44 -3 64 -24t20 -50z" />
    <glyph glyph-name="uni00B9" unicode="&#xb9;" horiz-adv-x="367" 
d="M265 428q7 0 7 -6v-36q0 -6 -7 -6h-221q-7 0 -7 6v36q0 6 7 6h80q5 0 5 3v346q0 7 -6 5l-78 -29q-4 -1 -6 1t-2 7v25q0 7 6 9l93 47q13 5 19 5h27q7 0 7 -8v-407q0 -4 4 -4h72z" />
    <glyph glyph-name="ordmasculine" unicode="&#xba;" horiz-adv-x="411" 
d="M205 751q73 0 116.5 -48t43.5 -126q0 -76 -43 -123t-117 -47t-116.5 47t-42.5 123q0 78 44 126t115 48zM205 704q-46 0 -70 -33t-24 -91q0 -60 24 -93.5t70 -33.5q47 0 71.5 33.5t24.5 93.5q0 58 -24.5 91t-71.5 33z" />
    <glyph glyph-name="guillemotright" unicode="&#xbb;" horiz-adv-x="446" 
d="M149 249q5 8 0 16l-98 175q-3 4 -0.5 7t6.5 3h31q6 0 10 -6l127 -177q6 -9 -1 -21l-125 -167q-4 -6 -10 -6h-29q-13 0 -10 7zM327 249q5 8 0 16l-98 175q-5 10 7 10h31q6 0 9 -6l127 -177q8 -9 -1 -21l-125 -167q-4 -6 -10 -6h-29q-6 0 -8.5 1.5t-0.5 5.5z" />
    <glyph glyph-name="onequarter" unicode="&#xbc;" horiz-adv-x="891" 
d="M730 739l-486 -734q-6 -9 -19 -9h-26q-9 0 -11 6t3 13l484 728q5 7 16 7h33q13 0 6 -11zM268 324q7 0 7 -6v-36q0 -6 -7 -6h-221q-7 0 -7 6v36q0 6 7 6h80q5 0 5 3v346q0 7 -6 5l-78 -29q-4 -1 -6 1t-2 7v25q0 7 6 9l93 47q13 5 19 5h27q7 0 7 -8v-407q0 -4 4 -4h72z
M707 460q6 7 16 7h42q7 0 7 -8v-283q0 -6 5 -6h59q9 0 9 -6v-31q0 -8 -9 -8h-58q-6 0 -6 -6v-110q0 -9 -10 -9h-43q-8 0 -8 8v113q0 4 -5 4h-204q-10 0 -10 8v32q0 7 10 21zM552 170h152q6 0 6 5v210q0 14 -9 2l-153 -208q-7 -9 4 -9z" />
    <glyph glyph-name="onehalf" unicode="&#xbd;" horiz-adv-x="950" 
d="M719 739l-486 -734q-6 -9 -19 -9h-26q-9 0 -11 6t3 13l484 728q5 7 16 7h33q13 0 6 -11zM264 324q7 0 7 -6v-36q0 -6 -7 -6h-221q-7 0 -7 6v36q0 6 7 6h80q5 0 5 3v346q0 7 -6 5l-78 -29q-4 -1 -6 1t-2 7v25q0 7 6 9l93 47q13 5 19 5h27q7 0 7 -8v-407q0 -4 4 -4h72z
M592 62l134 134q53 50 74 82t21 66q0 38 -27.5 60t-65.5 22q-67 0 -107 -62q-3 -7 -13 -2l-28 17q-8 5 -2 13q55 81 155 81q63 0 105 -34t42 -97q0 -40 -22 -75.5t-79 -89.5l-127 -119q-2 -1 -3 -3t1 -3t6 -1h221q8 0 8 -7v-36q0 -8 -8 -8h-292q-10 0 -10 10v26q0 11 17 26z
" />
    <glyph glyph-name="threequarters" unicode="&#xbe;" horiz-adv-x="932" 
d="M62 680q-4 4 0 10q58 62 146 62q72 0 114.5 -33t42.5 -85q0 -35 -21.5 -62t-58.5 -40q-13 -4 0 -9q41 -11 67.5 -41.5t26.5 -73.5q0 -61 -46 -98t-133 -37q-96 0 -158 66q-4 6 2 11l27 21q7 7 10 0q51 -52 123 -52q55 0 85.5 23.5t30.5 63.5q0 43 -35.5 68t-83.5 25
l-56 1q-7 0 -7 6v33q0 4 7 6l46 1q49 0 82 24t33 61q0 32 -28 54t-70 22q-63 0 -112 -49q-6 -5 -12 0zM789 739l-486 -734q-6 -9 -19 -9h-26q-9 0 -11 6t3 13l484 728q5 7 16 7h33q13 0 6 -11zM759 460q6 7 16 7h42q7 0 7 -8v-283q0 -6 5 -6h59q9 0 9 -6v-31q0 -8 -9 -8h-58
q-6 0 -6 -6v-110q0 -9 -10 -9h-43q-8 0 -8 8v113q0 4 -5 4h-204q-10 0 -10 8v32q0 7 10 21zM604 170h152q6 0 6 5v210q0 14 -9 2l-153 -208q-7 -9 4 -9z" />
    <glyph glyph-name="questiondown" unicode="&#xbf;" horiz-adv-x="516" 
d="M219 430v84q0 16 18 16h70q15 0 15 -14v-85q0 -12 -11 -12h-82q-10 0 -10 11zM483 -28q9 -3 5 -13q-31 -63 -94 -98.5t-142 -35.5q-105 0 -164.5 49.5t-59.5 129.5q0 45 21 80t51 60t60.5 50t51.5 61.5t21 82.5q0 4 3.5 8t8.5 4h49q13 0 13 -14q0 -52 -20 -93t-48 -67
t-56 -50t-48 -54t-20 -65q0 -52 37.5 -83t99.5 -31q51 0 98 26.5t63 65.5q4 8 13 5z" />
    <glyph glyph-name="Agrave" unicode="&#xc0;" horiz-adv-x="727" 
d="M251 958q2 9 11 5l232 -93q8 -4 4 -14l-8 -22q-2 -11 -15 -8l-229 69q-14 5 -10 18zM55 0q-15 0 -9 17l259 711q6 14 20 14h78q19 0 23 -15l256 -710q4 -17 -10 -17h-71q-12 0 -16 10l-69 194q-3 8 -12 8h-291q-9 0 -12 -8l-71 -195q-3 -9 -15 -9h-60zM236 288h242
q11 0 8 13l-120 329q-8 19 -14 0l-122 -331q-6 -11 6 -11z" />
    <glyph glyph-name="Aacute" unicode="&#xc1;" horiz-adv-x="727" 
d="M481 960l15 -45q4 -13 -10 -18l-229 -69q-12 -3 -16 8l-8 22q-3 11 5 14l232 93q8 4 11 -5zM55 0q-15 0 -9 17l259 711q6 14 20 14h78q19 0 23 -15l256 -710q4 -17 -10 -17h-71q-12 0 -16 10l-69 194q-3 8 -12 8h-291q-9 0 -12 -8l-71 -195q-3 -9 -15 -9h-60zM236 288
h242q11 0 8 13l-120 329q-8 19 -14 0l-122 -331q-6 -11 6 -11z" />
    <glyph glyph-name="Acircumflex" unicode="&#xc2;" horiz-adv-x="727" 
d="M427 849l-54 50q-8 8 -11 8t-12 -8l-58 -50q-7 -6 -18 -6h-54q-14 0 -2 12l102 91q13 11 25 11h39q8 0 20 -10l101 -92q12 -12 -1 -12h-59q-11 0 -18 6zM55 0q-15 0 -9 17l259 711q6 14 20 14h78q19 0 23 -15l256 -710q4 -17 -10 -17h-71q-12 0 -16 10l-69 194
q-3 8 -12 8h-291q-9 0 -12 -8l-71 -195q-3 -9 -15 -9h-60zM236 288h242q11 0 8 13l-120 329q-8 19 -14 0l-122 -331q-6 -11 6 -11z" />
    <glyph glyph-name="Atilde" unicode="&#xc3;" horiz-adv-x="727" 
d="M503 889q-37 -22 -76 -22q-28 0 -66.5 13t-60.5 13q-24 0 -60 -21q-10 -6 -14 5l-10 27q-3 9 4 14q39 30 76 30q25 0 67.5 -14t64.5 -14q26 0 57 20q12 7 16 -5l10 -31q3 -8 -8 -15zM55 0q-15 0 -9 17l259 711q6 14 20 14h78q19 0 23 -15l256 -710q4 -17 -10 -17h-71
q-12 0 -16 10l-69 194q-3 8 -12 8h-291q-9 0 -12 -8l-71 -195q-3 -9 -15 -9h-60zM236 288h242q11 0 8 13l-120 329q-8 19 -14 0l-122 -331q-6 -11 6 -11z" />
    <glyph glyph-name="Adieresis" unicode="&#xc4;" horiz-adv-x="727" 
d="M330 942v-83q0 -15 -16 -15h-53q-14 0 -14 13v84q0 13 11 13h61q11 0 11 -12zM477 942v-83q0 -9 -3.5 -12t-13.5 -3h-52q-15 0 -15 13v84q0 13 11 13h62q11 0 11 -12zM55 0q-15 0 -9 17l259 711q6 14 20 14h78q19 0 23 -15l256 -710q4 -17 -10 -17h-71q-12 0 -16 10
l-69 194q-3 8 -12 8h-291q-9 0 -12 -8l-71 -195q-3 -9 -15 -9h-60zM236 288h242q11 0 8 13l-120 329q-8 19 -14 0l-122 -331q-6 -11 6 -11z" />
    <glyph glyph-name="Aring" unicode="&#xc5;" horiz-adv-x="727" 
d="M466 860q0 -45 -30 -75t-74 -30t-74.5 30.5t-30.5 76.5q0 42 30.5 71.5t74.5 29.5q43 0 73.5 -30t30.5 -73zM416 859q0 25 -16 40.5t-39 15.5t-40 -16t-17 -40q0 -22 17 -39t40 -17t39 16.5t16 39.5zM55 0q-15 0 -9 17l259 711q6 14 20 14h78q19 0 23 -15l256 -710
q4 -17 -10 -17h-71q-12 0 -16 10l-69 194q-3 8 -12 8h-291q-9 0 -12 -8l-71 -195q-3 -9 -15 -9h-60zM236 288h242q11 0 8 13l-120 329q-8 19 -14 0l-122 -331q-6 -11 6 -11z" />
    <glyph glyph-name="AE" unicode="&#xc6;" horiz-adv-x="1008" 
d="M949 74q12 0 12 -10v-53q0 -11 -11 -11h-437q-14 0 -14 14v191q0 7 -8 7h-239q-9 0 -13 -8l-110 -195q-5 -9 -16 -9h-60q-6 0 -8 5t2 12l397 711q7 14 22 14h472q10 0 10 -11v-51q0 -12 -13 -12h-328q-13 0 -13 -12v-234q0 -11 12 -11h244q11 0 11 -11v-53q0 -9 -11 -9
h-245q-11 0 -11 -11v-243q0 -10 10 -10h345zM488 288q11 0 11 12v339q0 8 -3.5 11.5t-8.5 0.5t-10 -12l-194 -340q-7 -11 4 -11h201z" />
    <glyph glyph-name="Ccedilla" unicode="&#xc7;" horiz-adv-x="707" 
d="M652 199q7 -2 5 -14q-22 -75 -89.5 -131.5t-165.5 -62.5l-17 -43q-3 -5 4 -5q44 -3 64 -24t20 -50q0 -37 -31.5 -58t-77.5 -21q-50 0 -88 22q-5 4 -4 9l11 26q3 5 9 2q28 -19 62 -19q57 0 57 38q0 43 -81 46q-8 0 -6 6l31 71q-137 10 -213.5 110.5t-76.5 270.5
q0 178 83.5 279t229.5 101q101 0 180 -60.5t91 -144.5q2 -14 -7 -15l-75 -6q-5 -1 -6.5 1t-3.5 9q-15 65 -62 104t-114 39q-105 0 -160.5 -77.5t-55.5 -231.5q0 -304 221 -304q71 0 118.5 34.5t76.5 108.5q2 7 12 4z" />
    <glyph glyph-name="Egrave" unicode="&#xc8;" horiz-adv-x="628" 
d="M232 958q2 9 11 5l232 -93q8 -4 4 -14l-8 -22q-2 -11 -15 -8l-229 69q-14 5 -10 18zM97 728q0 14 12 14h449q10 0 10 -11v-51q0 -12 -13 -12h-349q-13 0 -13 -12v-234q0 -11 11 -11h259q11 0 11 -11v-53q0 -9 -11 -9h-259q-11 0 -11 -11v-243q0 -10 10 -10h367
q11 0 11 -10v-53q0 -11 -11 -11h-459q-14 0 -14 14v714z" />
    <glyph glyph-name="Eacute" unicode="&#xc9;" horiz-adv-x="628" 
d="M462 960l15 -45q4 -13 -10 -18l-229 -69q-12 -3 -16 8l-8 22q-3 11 5 14l232 93q7 4 11 -5zM97 728q0 14 12 14h449q10 0 10 -11v-51q0 -12 -13 -12h-349q-13 0 -13 -12v-234q0 -11 11 -11h259q11 0 11 -11v-53q0 -9 -11 -9h-259q-11 0 -11 -11v-243q0 -10 10 -10h367
q11 0 11 -10v-53q0 -11 -11 -11h-459q-14 0 -14 14v714z" />
    <glyph glyph-name="Ecircumflex" unicode="&#xca;" horiz-adv-x="628" 
d="M408 849l-54 50q-8 8 -11 8t-12 -8l-58 -50q-7 -6 -18 -6h-54q-14 0 -2 12l102 91q13 11 25 11h39q7 0 20 -10l101 -92q12 -12 -1 -12h-59q-11 0 -18 6zM97 728q0 14 12 14h449q10 0 10 -11v-51q0 -12 -13 -12h-349q-13 0 -13 -12v-234q0 -11 11 -11h259q11 0 11 -11v-53
q0 -9 -11 -9h-259q-11 0 -11 -11v-243q0 -10 10 -10h367q11 0 11 -10v-53q0 -11 -11 -11h-459q-14 0 -14 14v714z" />
    <glyph glyph-name="Edieresis" unicode="&#xcb;" horiz-adv-x="628" 
d="M311 942v-83q0 -15 -16 -15h-53q-14 0 -14 13v84q0 13 11 13h61q11 0 11 -12zM458 942v-83q0 -9 -3.5 -12t-13.5 -3h-52q-15 0 -15 13v84q0 13 11 13h62q11 0 11 -12zM97 728q0 14 12 14h449q10 0 10 -11v-51q0 -12 -13 -12h-349q-13 0 -13 -12v-234q0 -11 11 -11h259
q11 0 11 -11v-53q0 -9 -11 -9h-259q-11 0 -11 -11v-243q0 -10 10 -10h367q11 0 11 -10v-53q0 -11 -11 -11h-459q-14 0 -14 14v714z" />
    <glyph glyph-name="Igrave" unicode="&#xcc;" horiz-adv-x="290" 
d="M36 958q2 9 11 5l232 -93q8 -4 4 -14l-8 -22q-2 -11 -15 -8l-229 69q-14 5 -10 18zM109 742h72q12 0 12 -13v-712q0 -10 -4 -13.5t-14 -3.5h-63q-15 0 -15 14v714q0 14 12 14z" />
    <glyph glyph-name="Iacute" unicode="&#xcd;" horiz-adv-x="290" 
d="M266 960l15 -45q4 -13 -10 -18l-229 -69q-12 -3 -16 8l-8 22q-3 11 5 14l232 93q7 4 11 -5zM109 742h72q12 0 12 -13v-712q0 -10 -4 -13.5t-14 -3.5h-63q-15 0 -15 14v714q0 14 12 14z" />
    <glyph glyph-name="Icircumflex" unicode="&#xce;" horiz-adv-x="290" 
d="M212 849l-54 50q-8 8 -11 8t-12 -8l-58 -50q-7 -6 -18 -6h-54q-14 0 -2 12l102 91q13 11 25 11h39q7 0 20 -10l101 -92q12 -12 -1 -12h-59q-11 0 -18 6zM109 742h72q12 0 12 -13v-712q0 -10 -4 -13.5t-14 -3.5h-63q-15 0 -15 14v714q0 14 12 14z" />
    <glyph glyph-name="Idieresis" unicode="&#xcf;" horiz-adv-x="290" 
d="M115 942v-83q0 -15 -16 -15h-53q-14 0 -14 13v84q0 13 11 13h61q11 0 11 -12zM262 942v-83q0 -9 -3.5 -12t-13.5 -3h-52q-15 0 -15 13v84q0 13 11 13h62q11 0 11 -12zM109 742h72q12 0 12 -13v-712q0 -10 -4 -13.5t-14 -3.5h-63q-15 0 -15 14v714q0 14 12 14z" />
    <glyph glyph-name="Eth" unicode="&#xd0;" horiz-adv-x="727" 
d="M274 741q203 -3 296 -94t93 -270q0 -189 -98.5 -283t-300.5 -94h-147q-14 0 -14 16v321h-57q-14 0 -14 14v42q0 13 10 13h61v322q0 14 15 14q133 0 156 -1zM249 72q167 0 240.5 68.5t73.5 231.5q0 166 -72.5 231.5t-236.5 65.5h-45q-10 0 -10 -14v-249h158q10 0 10 -12
v-42q0 -15 -19 -15h-149v-254q0 -11 12 -11h38z" />
    <glyph glyph-name="Ntilde" unicode="&#xd1;" horiz-adv-x="757" 
d="M531 889q-37 -22 -76 -22q-28 0 -66.5 13t-60.5 13q-24 0 -60 -21q-10 -6 -14 5l-10 27q-3 9 4 14q39 30 76 30q25 0 67.5 -14t64.5 -14q26 0 57 20q12 7 16 -5l10 -31q3 -8 -8 -15zM590 742h59q11 0 11 -12v-718q0 -12 -13 -12h-49q-15 0 -21 8l-386 561q-3 4 -5.5 5.5
t-4 -0.5t-1.5 -6v-555q0 -13 -14 -13h-56q-13 0 -13 13v715q0 14 13 14h57q13 0 21 -10l375 -549q6 -7 10.5 -5.5t4.5 8.5v544q0 12 12 12z" />
    <glyph glyph-name="Ograve" unicode="&#xd2;" horiz-adv-x="764" 
d="M272 958q2 9 11 5l232 -93q8 -4 4 -14l-8 -22q-2 -11 -15 -8l-229 69q-14 5 -10 18zM382 -10q-149 0 -233 99t-84 279q0 182 85 283t233 101q147 0 231.5 -100.5t84.5 -282.5q0 -180 -84 -279.5t-233 -99.5zM384 63q215 0 215 305q0 311 -216 311q-218 0 -218 -311
q0 -305 219 -305z" />
    <glyph glyph-name="Oacute" unicode="&#xd3;" horiz-adv-x="764" 
d="M502 960l15 -45q4 -13 -10 -18l-229 -69q-12 -3 -16 8l-8 22q-3 11 5 14l232 93q7 4 11 -5zM382 -10q-149 0 -233 99t-84 279q0 182 85 283t233 101q147 0 231.5 -100.5t84.5 -282.5q0 -180 -84 -279.5t-233 -99.5zM384 63q215 0 215 305q0 311 -216 311
q-218 0 -218 -311q0 -305 219 -305z" />
    <glyph glyph-name="Ocircumflex" unicode="&#xd4;" horiz-adv-x="764" 
d="M448 849l-54 50q-8 8 -11 8t-12 -8l-58 -50q-7 -6 -18 -6h-54q-14 0 -2 12l102 91q13 11 25 11h39q7 0 20 -10l101 -92q12 -12 -1 -12h-59q-11 0 -18 6zM382 -10q-149 0 -233 99t-84 279q0 182 85 283t233 101q147 0 231.5 -100.5t84.5 -282.5q0 -180 -84 -279.5
t-233 -99.5zM384 63q215 0 215 305q0 311 -216 311q-218 0 -218 -311q0 -305 219 -305z" />
    <glyph glyph-name="Otilde" unicode="&#xd5;" horiz-adv-x="764" 
d="M524 889q-37 -22 -76 -22q-28 0 -66.5 13t-60.5 13q-24 0 -60 -21q-10 -6 -14 5l-10 27q-3 9 4 14q39 30 76 30q25 0 67.5 -14t64.5 -14q26 0 57 20q12 7 16 -5l10 -31q3 -8 -8 -15zM382 -10q-149 0 -233 99t-84 279q0 182 85 283t233 101q147 0 231.5 -100.5
t84.5 -282.5q0 -180 -84 -279.5t-233 -99.5zM384 63q215 0 215 305q0 311 -216 311q-218 0 -218 -311q0 -305 219 -305z" />
    <glyph glyph-name="Odieresis" unicode="&#xd6;" horiz-adv-x="764" 
d="M351 942v-83q0 -15 -16 -15h-53q-14 0 -14 13v84q0 13 11 13h61q11 0 11 -12zM498 942v-83q0 -9 -3.5 -12t-13.5 -3h-52q-15 0 -15 13v84q0 13 11 13h62q11 0 11 -12zM382 -10q-149 0 -233 99t-84 279q0 182 85 283t233 101q147 0 231.5 -100.5t84.5 -282.5
q0 -180 -84 -279.5t-233 -99.5zM384 63q215 0 215 305q0 311 -216 311q-218 0 -218 -311q0 -305 219 -305z" />
    <glyph glyph-name="multiply" unicode="&#xd7;" horiz-adv-x="540" 
d="M472 218q6 -6 0 -13l-31 -31q-10 -9 -21 2l-150 150l-154 -154q-6 -7 -14 -1l-30 31q-11 9 1 21l150 150l-153 152q-8 9 0 18l30 30q8 7 15 2l155 -155l152 153q10 8 18 0l31 -31q7 -8 1 -14l-155 -155z" />
    <glyph glyph-name="Oslash" unicode="&#xd8;" horiz-adv-x="729" 
d="M709 716q8 -8 1 -16l-83 -92q55 -93 55 -239q0 -180 -84.5 -279.5t-232.5 -99.5q-138 0 -221 86l-68 -76q-12 -13 -26 -2l-23 23q-12 12 -4 21l80 88q-55 93 -55 238q0 182 85 283t233 101q137 0 220 -89l72 81q10 10 18 3zM150 368q0 -98 27 -161l349 394
q-52 77 -160 77q-216 0 -216 -310zM579 368q0 103 -27 163l-348 -392q53 -75 162 -75q108 0 160.5 74t52.5 230z" />
    <glyph glyph-name="Ugrave" unicode="&#xd9;" horiz-adv-x="709" 
d="M251 958q2 9 11 5l232 -93q8 -4 4 -14l-8 -22q-2 -11 -15 -8l-229 69q-14 5 -10 18zM622 247q0 -257 -267 -257q-139 0 -203 67t-64 207v464q0 14 11 14h72q12 0 12 -13v-486q0 -179 178 -179q180 0 180 182v483q0 13 11 13h59q11 0 11 -12v-483z" />
    <glyph glyph-name="Uacute" unicode="&#xda;" horiz-adv-x="709" 
d="M481 960l15 -45q4 -13 -10 -18l-229 -69q-12 -3 -16 8l-8 22q-3 11 5 14l232 93q8 4 11 -5zM622 247q0 -257 -267 -257q-139 0 -203 67t-64 207v464q0 14 11 14h72q12 0 12 -13v-486q0 -179 178 -179q180 0 180 182v483q0 13 11 13h59q11 0 11 -12v-483z" />
    <glyph glyph-name="Ucircumflex" unicode="&#xdb;" horiz-adv-x="709" 
d="M427 849l-54 50q-8 8 -11 8t-12 -8l-58 -50q-7 -6 -18 -6h-54q-14 0 -2 12l102 91q13 11 25 11h39q8 0 20 -10l101 -92q12 -12 -1 -12h-59q-11 0 -18 6zM622 247q0 -257 -267 -257q-139 0 -203 67t-64 207v464q0 14 11 14h72q12 0 12 -13v-486q0 -179 178 -179
q180 0 180 182v483q0 13 11 13h59q11 0 11 -12v-483z" />
    <glyph glyph-name="Udieresis" unicode="&#xdc;" horiz-adv-x="709" 
d="M330 942v-83q0 -15 -16 -15h-53q-14 0 -14 13v84q0 13 11 13h61q11 0 11 -12zM477 942v-83q0 -9 -3.5 -12t-13.5 -3h-52q-15 0 -15 13v84q0 13 11 13h62q11 0 11 -12zM622 247q0 -257 -267 -257q-139 0 -203 67t-64 207v464q0 14 11 14h72q12 0 12 -13v-486
q0 -179 178 -179q180 0 180 182v483q0 13 11 13h59q11 0 11 -12v-483z" />
    <glyph glyph-name="Yacute" unicode="&#xdd;" horiz-adv-x="675" 
d="M457 960l15 -45q4 -13 -10 -18l-229 -69q-12 -3 -16 8l-8 22q-3 11 5 14l232 93q8 4 11 -5zM624 742q7 0 9.5 -4t-1.5 -10l-238 -398q-6 -10 -6 -33v-280q0 -17 -19 -17h-60q-16 0 -16 15v278q0 14 -8 27l-241 406q-5 7 -2 11.5t13 4.5h72q13 0 21 -12l186 -320
q11 -20 22 -2l185 322q6 12 21 12h62z" />
    <glyph glyph-name="Thorn" unicode="&#xde;" horiz-adv-x="693" 
d="M640 385q0 -107 -71.5 -160.5t-192.5 -53.5h-174q-9 0 -9 -10v-146q0 -15 -15 -15h-68q-13 0 -13 13v715q0 14 12 14h72q12 0 12 -13v-135q0 -7 7 -7h164q125 0 200.5 -51t75.5 -151zM541 386q0 128 -181 128h-154q-13 0 -13 -12v-245q0 -13 9 -13h164q175 0 175 142z
" />
    <glyph glyph-name="germandbls" unicode="&#xdf;" horiz-adv-x="608" 
d="M320 742q89 0 132 -40t43 -101q0 -53 -29 -81t-92 -57q-37 -20 -49 -30.5t-12 -28.5q0 -19 11.5 -27.5t47.5 -19.5q91 -33 126 -60q64 -50 64 -133t-56 -128.5t-143 -45.5q-80 0 -131 30q-9 6 -5 14l23 42q5 6 13 1q48 -26 93 -26q58 0 92.5 27.5t34.5 77.5
q0 27 -9.5 46.5t-31 33.5t-39 21.5t-50.5 18.5q-26 9 -40.5 16t-33 20t-27 32t-8.5 45q0 37 20.5 62t67.5 51q4 3 16.5 10.5t17.5 11l15 10.5t14 13t10 14.5t8 18t2 20.5q0 37 -27 58.5t-76 21.5q-62 0 -98 -37.5t-36 -107.5v-522q1 -13 -10 -13h-63q-10 0 -10 11v437
q0 10 -8 10h-52q-11 0 -11 10v42q0 11 11 11h51q8 0 8 10q1 95 60 153t166 58z" />
    <glyph glyph-name="agrave" unicode="&#xe0;" horiz-adv-x="548" 
d="M161 746q2 9 11 5l232 -93q8 -4 4 -14l-8 -22q-2 -11 -15 -8l-229 69q-14 5 -10 18zM382 64q-77 -74 -178 -74q-77 0 -122 39.5t-45 105.5q0 79 68 125.5t196 54.5l78 6q16 2 16 15v27q0 54 -33.5 85.5t-90.5 31.5q-88 0 -143 -80q-7 -9 -15 -6l-54 18q-8 3 -2 16
q63 112 218 112q97 0 149 -45.5t52 -125.5v-354q0 -15 -13 -15h-51q-12 0 -14 16l-1 46q-3 14 -15 2zM395 254q0 16 -14 16l-66 -6q-194 -13 -194 -119q0 -43 30.5 -68t82.5 -25q62 0 113 41q48 38 48 78v83z" />
    <glyph glyph-name="aacute" unicode="&#xe1;" horiz-adv-x="548" 
d="M391 748l15 -45q4 -13 -10 -18l-229 -69q-12 -3 -16 8l-8 22q-3 11 5 14l232 93q8 4 11 -5zM382 64q-77 -74 -178 -74q-77 0 -122 39.5t-45 105.5q0 79 68 125.5t196 54.5l78 6q16 2 16 15v27q0 54 -33.5 85.5t-90.5 31.5q-88 0 -143 -80q-7 -9 -15 -6l-54 18q-8 3 -2 16
q63 112 218 112q97 0 149 -45.5t52 -125.5v-354q0 -15 -13 -15h-51q-12 0 -14 16l-1 46q-3 14 -15 2zM395 254q0 16 -14 16l-66 -6q-194 -13 -194 -119q0 -43 30.5 -68t82.5 -25q62 0 113 41q48 38 48 78v83z" />
    <glyph glyph-name="acircumflex" unicode="&#xe2;" horiz-adv-x="548" 
d="M337 637l-54 50q-8 8 -11 8t-12 -8l-58 -50q-7 -6 -18 -6h-54q-14 0 -2 12l102 91q13 11 25 11h39q8 0 20 -10l101 -92q12 -12 -1 -12h-59q-11 0 -18 6zM382 64q-77 -74 -178 -74q-77 0 -122 39.5t-45 105.5q0 79 68 125.5t196 54.5l78 6q16 2 16 15v27q0 54 -33.5 85.5
t-90.5 31.5q-88 0 -143 -80q-7 -9 -15 -6l-54 18q-8 3 -2 16q63 112 218 112q97 0 149 -45.5t52 -125.5v-354q0 -15 -13 -15h-51q-12 0 -14 16l-1 46q-3 14 -15 2zM395 254q0 16 -14 16l-66 -6q-194 -13 -194 -119q0 -43 30.5 -68t82.5 -25q62 0 113 41q48 38 48 78v83z" />
    <glyph glyph-name="atilde" unicode="&#xe3;" horiz-adv-x="548" 
d="M413 677q-37 -22 -76 -22q-28 0 -66.5 13t-60.5 13q-24 0 -60 -21q-10 -6 -14 5l-10 27q-3 9 4 14q39 30 76 30q25 0 67.5 -14t64.5 -14q26 0 57 20q12 7 16 -5l10 -31q3 -8 -8 -15zM382 64q-77 -74 -178 -74q-77 0 -122 39.5t-45 105.5q0 79 68 125.5t196 54.5l78 6
q16 2 16 15v27q0 54 -33.5 85.5t-90.5 31.5q-88 0 -143 -80q-7 -9 -15 -6l-54 18q-8 3 -2 16q63 112 218 112q97 0 149 -45.5t52 -125.5v-354q0 -15 -13 -15h-51q-12 0 -14 16l-1 46q-3 14 -15 2zM395 254q0 16 -14 16l-66 -6q-194 -13 -194 -119q0 -43 30.5 -68t82.5 -25
q62 0 113 41q48 38 48 78v83z" />
    <glyph glyph-name="adieresis" unicode="&#xe4;" horiz-adv-x="548" 
d="M240 730v-83q0 -15 -16 -15h-53q-14 0 -14 13v84q0 13 11 13h61q11 0 11 -12zM387 730v-83q0 -9 -3.5 -12t-13.5 -3h-52q-15 0 -15 13v84q0 13 11 13h62q11 0 11 -12zM382 64q-77 -74 -178 -74q-77 0 -122 39.5t-45 105.5q0 79 68 125.5t196 54.5l78 6q16 2 16 15v27
q0 54 -33.5 85.5t-90.5 31.5q-88 0 -143 -80q-7 -9 -15 -6l-54 18q-8 3 -2 16q63 112 218 112q97 0 149 -45.5t52 -125.5v-354q0 -15 -13 -15h-51q-12 0 -14 16l-1 46q-3 14 -15 2zM395 254q0 16 -14 16l-66 -6q-194 -13 -194 -119q0 -43 30.5 -68t82.5 -25q62 0 113 41
q48 38 48 78v83z" />
    <glyph glyph-name="aring" unicode="&#xe5;" horiz-adv-x="548" 
d="M376 698q0 -45 -30 -75t-74 -30t-74.5 30.5t-30.5 76.5q0 42 30.5 71.5t74.5 29.5q43 0 73.5 -30t30.5 -73zM326 697q0 25 -16 40.5t-39 15.5t-40 -16t-17 -40q0 -22 17 -39t40 -17t39 16.5t16 39.5zM382 64q-77 -74 -178 -74q-77 0 -122 39.5t-45 105.5q0 79 68 125.5
t196 54.5l78 6q16 2 16 15v27q0 54 -33.5 85.5t-90.5 31.5q-88 0 -143 -80q-7 -9 -15 -6l-54 18q-8 3 -2 16q63 112 218 112q97 0 149 -45.5t52 -125.5v-354q0 -15 -13 -15h-51q-12 0 -14 16l-1 46q-3 14 -15 2zM395 254q0 16 -14 16l-66 -6q-194 -13 -194 -119
q0 -43 30.5 -68t82.5 -25q62 0 113 41q48 38 48 78v83z" />
    <glyph glyph-name="ae" unicode="&#xe6;" horiz-adv-x="923" 
d="M495 246q-11 0 -15 -4.5t-4 -17.5q0 -66 51 -118t122 -52q57 0 91.5 22t66.5 61q6 6 14 3l41 -21q8 -5 1 -14q-69 -115 -223 -115q-123 0 -205 108q-3 4 -7 0q-27 -31 -51 -51.5t-70 -38.5t-102 -18q-80 0 -124 39.5t-44 108.5q0 76 63 121.5t189 54.5l88 7q18 2 18 15
v27q0 55 -33 86t-95 31q-84 0 -140 -80q-6 -10 -16 -6l-52 18q-8 4 -2 16q65 112 217 112q141 0 178 -97q62 97 190 97q109 0 174.5 -71.5t65.5 -199.5q0 -22 -18 -22zM642 480q-70 0 -116.5 -48.5t-47.5 -128.5l303 -1q11 0 14 3t3 12q0 66 -44 114.5t-112 48.5zM395 252
q0 15 -16 15l-73 -6q-184 -14 -184 -118q0 -44 30 -69t82 -23q66 2 113.5 37.5t47.5 83.5v80z" />
    <glyph glyph-name="ccedilla" unicode="&#xe7;" horiz-adv-x="542" 
d="M507 134q7 -3 4 -13q-66 -121 -194 -130l-17 -43q-3 -5 4 -5q44 -3 64 -24t20 -50q0 -37 -31.5 -58t-77.5 -21q-50 0 -88 22q-5 4 -4 9l11 26q3 5 9 2q28 -19 62 -19q57 0 57 38q0 43 -81 46q-8 0 -6 6l31 71q-100 10 -162 84t-62 188q0 122 70.5 199.5t180.5 77.5
q139 0 207 -124q5 -12 -5 -15l-55 -13q-7 -3 -13 7q-32 43 -61.5 63t-67.5 20q-78 0 -124 -57.5t-46 -155.5q0 -99 46.5 -156t125.5 -57q89 0 147 94q5 8 13 4z" />
    <glyph glyph-name="egrave" unicode="&#xe8;" horiz-adv-x="581" 
d="M187 746q2 9 11 5l232 -93q8 -4 4 -14l-8 -22q-2 -11 -15 -8l-229 69q-14 5 -10 18zM133 232q0 -74 51 -126t124 -52q100 0 156 83q7 7 14 3l42 -21q8 -5 2 -14q-75 -115 -222 -115q-111 0 -182.5 75t-71.5 195q0 127 71.5 203.5t181.5 76.5t175.5 -72t65.5 -199
q0 -8 -0.5 -11t-4 -7t-10.5 -4h-383q-9 0 -9 -15zM135 302h304q11 0 14 2.5t3 11.5q0 68 -42 116t-113 48q-76 0 -121.5 -53.5t-44.5 -124.5z" />
    <glyph glyph-name="eacute" unicode="&#xe9;" horiz-adv-x="581" 
d="M417 748l15 -45q4 -13 -10 -18l-229 -69q-12 -3 -16 8l-8 22q-3 11 5 14l232 93q8 4 11 -5zM133 232q0 -74 51 -126t124 -52q100 0 156 83q7 7 14 3l42 -21q8 -5 2 -14q-75 -115 -222 -115q-111 0 -182.5 75t-71.5 195q0 127 71.5 203.5t181.5 76.5t175.5 -72t65.5 -199
q0 -8 -0.5 -11t-4 -7t-10.5 -4h-383q-9 0 -9 -15zM135 302h304q11 0 14 2.5t3 11.5q0 68 -42 116t-113 48q-76 0 -121.5 -53.5t-44.5 -124.5z" />
    <glyph glyph-name="ecircumflex" unicode="&#xea;" horiz-adv-x="581" 
d="M363 637l-54 50q-8 8 -11 8t-12 -8l-58 -50q-7 -6 -18 -6h-54q-14 0 -2 12l102 91q13 11 25 11h39q8 0 20 -10l101 -92q12 -12 -1 -12h-59q-11 0 -18 6zM133 232q0 -74 51 -126t124 -52q100 0 156 83q7 7 14 3l42 -21q8 -5 2 -14q-75 -115 -222 -115q-111 0 -182.5 75
t-71.5 195q0 127 71.5 203.5t181.5 76.5t175.5 -72t65.5 -199q0 -8 -0.5 -11t-4 -7t-10.5 -4h-383q-9 0 -9 -15zM135 302h304q11 0 14 2.5t3 11.5q0 68 -42 116t-113 48q-76 0 -121.5 -53.5t-44.5 -124.5z" />
    <glyph glyph-name="edieresis" unicode="&#xeb;" horiz-adv-x="581" 
d="M266 730v-83q0 -15 -16 -15h-53q-14 0 -14 13v84q0 13 11 13h61q11 0 11 -12zM413 730v-83q0 -9 -3.5 -12t-13.5 -3h-52q-15 0 -15 13v84q0 13 11 13h62q11 0 11 -12zM133 232q0 -74 51 -126t124 -52q100 0 156 83q7 7 14 3l42 -21q8 -5 2 -14q-75 -115 -222 -115
q-111 0 -182.5 75t-71.5 195q0 127 71.5 203.5t181.5 76.5t175.5 -72t65.5 -199q0 -8 -0.5 -11t-4 -7t-10.5 -4h-383q-9 0 -9 -15zM135 302h304q11 0 14 2.5t3 11.5q0 68 -42 116t-113 48q-76 0 -121.5 -53.5t-44.5 -124.5z" />
    <glyph glyph-name="igrave" unicode="&#xec;" horiz-adv-x="239" 
d="M9 746q2 9 11 5l232 -93q8 -4 4 -14l-8 -22q-2 -11 -15 -8l-229 69q-14 5 -10 18zM161 517v-500q0 -10 -4 -13.5t-14 -3.5h-51q-15 0 -15 14v502q0 14 12 14h61q11 0 11 -13z" />
    <glyph glyph-name="iacute" unicode="&#xed;" horiz-adv-x="239" 
d="M239 748l15 -45q4 -13 -10 -18l-229 -69q-12 -3 -16 8l-8 22q-3 11 5 14l232 93q8 4 11 -5zM161 517v-500q0 -10 -4 -13.5t-14 -3.5h-51q-15 0 -15 14v502q0 14 12 14h61q11 0 11 -13z" />
    <glyph glyph-name="icircumflex" unicode="&#xee;" horiz-adv-x="239" 
d="M185 637l-54 50q-8 8 -11 8t-12 -8l-58 -50q-7 -6 -18 -6h-54q-14 0 -2 12l102 91q13 11 25 11h39q7 0 20 -10l101 -92q12 -12 -1 -12h-59q-11 0 -18 6zM161 517v-500q0 -10 -4 -13.5t-14 -3.5h-51q-15 0 -15 14v502q0 14 12 14h61q11 0 11 -13z" />
    <glyph glyph-name="idieresis" unicode="&#xef;" horiz-adv-x="239" 
d="M88 730v-83q0 -15 -16 -15h-53q-14 0 -14 13v84q0 13 11 13h61q11 0 11 -12zM235 730v-83q0 -9 -3.5 -12t-13.5 -3h-52q-15 0 -15 13v84q0 13 11 13h62q11 0 11 -12zM161 517v-500q0 -10 -4 -13.5t-14 -3.5h-51q-15 0 -15 14v502q0 14 12 14h61q11 0 11 -13z" />
    <glyph glyph-name="eth" unicode="&#xf0;" 
d="M552 262q0 -122 -68.5 -197t-185.5 -75q-112 0 -182 73.5t-70 188.5q0 117 70 192.5t177 75.5q77 0 126 -49q-44 94 -142 161l-148 -84q-9 -4 -16 6l-11 17q-6 8 2 14l132 73q-48 27 -105 49q-4 2 -4.5 5.5t3.5 6.5l36 28q9 6 19 2q73 -26 117 -53l96 54q7 5 12 -2
l14 -26q4 -6 -2 -10l-78 -43q208 -142 208 -407zM301 53q73 0 119 56.5t46 145.5t-46.5 146t-119.5 57t-120.5 -57.5t-47.5 -145.5q0 -89 47.5 -145.5t121.5 -56.5z" />
    <glyph glyph-name="ntilde" unicode="&#xf1;" horiz-adv-x="584" 
d="M444 677q-37 -22 -76 -22q-28 0 -66.5 13t-60.5 13q-24 0 -60 -21q-10 -6 -14 5l-10 27q-3 9 4 14q39 30 76 30q25 0 67.5 -14t64.5 -14q26 0 57 20q12 7 16 -5l10 -31q3 -8 -8 -15zM91 0q-14 0 -14 13v504q0 13 11 13h60q11 0 11 -11v-58q0 -11 9 -3q56 44 95.5 63
t88.5 19q76 0 118.5 -41t42.5 -110v-373q0 -16 -15 -16h-56q-13 0 -13 13v357q0 104 -104 104q-42 0 -77.5 -18.5t-86.5 -62.5v-378q0 -15 -15 -15h-55z" />
    <glyph glyph-name="ograve" unicode="&#xf2;" 
d="M190 746q2 9 11 5l232 -93q8 -4 4 -14l-8 -22q-2 -11 -15 -8l-229 69q-14 5 -10 18zM299 -10q-113 0 -183 75.5t-70 196.5q0 123 71 200.5t183 77.5q113 0 182.5 -77.5t69.5 -199.5q0 -121 -70 -197t-183 -76zM301 53q78 0 121.5 56.5t43.5 155.5q0 98 -44.5 155.5
t-121.5 57.5q-78 0 -123 -57.5t-45 -155.5t45 -155t124 -57z" />
    <glyph glyph-name="oacute" unicode="&#xf3;" 
d="M420 748l15 -45q4 -13 -10 -18l-229 -69q-12 -3 -16 8l-8 22q-3 11 5 14l232 93q7 4 11 -5zM299 -10q-113 0 -183 75.5t-70 196.5q0 123 71 200.5t183 77.5q113 0 182.5 -77.5t69.5 -199.5q0 -121 -70 -197t-183 -76zM301 53q78 0 121.5 56.5t43.5 155.5
q0 98 -44.5 155.5t-121.5 57.5q-78 0 -123 -57.5t-45 -155.5t45 -155t124 -57z" />
    <glyph glyph-name="ocircumflex" unicode="&#xf4;" 
d="M366 637l-54 50q-8 8 -11 8t-12 -8l-58 -50q-7 -6 -18 -6h-54q-14 0 -2 12l102 91q13 11 25 11h39q7 0 20 -10l101 -92q12 -12 -1 -12h-59q-11 0 -18 6zM299 -10q-113 0 -183 75.5t-70 196.5q0 123 71 200.5t183 77.5q113 0 182.5 -77.5t69.5 -199.5q0 -121 -70 -197
t-183 -76zM301 53q78 0 121.5 56.5t43.5 155.5q0 98 -44.5 155.5t-121.5 57.5q-78 0 -123 -57.5t-45 -155.5t45 -155t124 -57z" />
    <glyph glyph-name="otilde" unicode="&#xf5;" 
d="M442 677q-37 -22 -76 -22q-28 0 -66.5 13t-60.5 13q-24 0 -60 -21q-10 -6 -14 5l-10 27q-3 9 4 14q39 30 76 30q25 0 67.5 -14t64.5 -14q26 0 57 20q12 7 16 -5l10 -31q3 -8 -8 -15zM299 -10q-113 0 -183 75.5t-70 196.5q0 123 71 200.5t183 77.5q113 0 182.5 -77.5
t69.5 -199.5q0 -121 -70 -197t-183 -76zM301 53q78 0 121.5 56.5t43.5 155.5q0 98 -44.5 155.5t-121.5 57.5q-78 0 -123 -57.5t-45 -155.5t45 -155t124 -57z" />
    <glyph glyph-name="odieresis" unicode="&#xf6;" 
d="M269 730v-83q0 -15 -16 -15h-53q-14 0 -14 13v84q0 13 11 13h61q11 0 11 -12zM416 730v-83q0 -9 -3.5 -12t-13.5 -3h-52q-15 0 -15 13v84q0 13 11 13h62q11 0 11 -12zM299 -10q-113 0 -183 75.5t-70 196.5q0 123 71 200.5t183 77.5q113 0 182.5 -77.5t69.5 -199.5
q0 -121 -70 -197t-183 -76zM301 53q78 0 121.5 56.5t43.5 155.5q0 98 -44.5 155.5t-121.5 57.5q-78 0 -123 -57.5t-45 -155.5t45 -155t124 -57z" />
    <glyph glyph-name="divide" unicode="&#xf7;" horiz-adv-x="558" 
d="M335 592v-82q0 -15 -17 -15h-80q-14 0 -14 14v82q0 12 9 12h93q9 0 9 -11zM496 396v-43q0 -13 -16 -13l-405 -1q-13 0 -13 12v43q0 12 9 12h415q10 0 10 -10zM335 240v-82q0 -15 -17 -15h-80q-14 0 -14 13v82q0 12 9 12h93q9 0 9 -10z" />
    <glyph glyph-name="oslash" unicode="&#xf8;" horiz-adv-x="583" 
d="M559 505q8 -10 0 -18l-55 -54q47 -71 47 -170q0 -121 -70 -197t-183 -76q-110 0 -179 71l-56 -55q-13 -13 -24 0l-13 14q-12 13 0 24l61 59q-42 67 -42 159q0 123 71 200.5t183 77.5q103 0 171 -66l50 49q12 12 20 1zM131 265q0 -58 17 -103l270 262q-45 54 -119 54
q-78 0 -123 -57.5t-45 -155.5zM465 265q0 64 -20 112l-271 -264q45 -60 126 -60q78 0 121.5 56.5t43.5 155.5z" />
    <glyph glyph-name="ugrave" unicode="&#xf9;" horiz-adv-x="579" 
d="M166 746q2 9 11 5l232 -93q8 -4 4 -14l-8 -22q-2 -11 -15 -8l-229 69q-14 5 -10 18zM257 56q76 0 161 87v373q0 14 16 14h55q14 0 14 -14l-2 -503q0 -13 -11 -13h-58q-11 0 -11 11v59q0 12 -9 3q-97 -83 -182 -83q-70 0 -115 42t-45 111v372q0 15 15 15h56q13 0 13 -14
v-351q0 -50 27.5 -79.5t75.5 -29.5z" />
    <glyph glyph-name="uacute" unicode="&#xfa;" horiz-adv-x="579" 
d="M396 748l15 -45q4 -13 -10 -18l-229 -69q-12 -3 -16 8l-8 22q-3 11 5 14l232 93q7 4 11 -5zM257 56q76 0 161 87v373q0 14 16 14h55q14 0 14 -14l-2 -503q0 -13 -11 -13h-58q-11 0 -11 11v59q0 12 -9 3q-97 -83 -182 -83q-70 0 -115 42t-45 111v372q0 15 15 15h56
q13 0 13 -14v-351q0 -50 27.5 -79.5t75.5 -29.5z" />
    <glyph glyph-name="ucircumflex" unicode="&#xfb;" horiz-adv-x="579" 
d="M342 637l-54 50q-8 8 -11 8t-12 -8l-58 -50q-7 -6 -18 -6h-54q-14 0 -2 12l102 91q13 11 25 11h39q7 0 20 -10l101 -92q12 -12 -1 -12h-59q-11 0 -18 6zM257 56q76 0 161 87v373q0 14 16 14h55q14 0 14 -14l-2 -503q0 -13 -11 -13h-58q-11 0 -11 11v59q0 12 -9 3
q-97 -83 -182 -83q-70 0 -115 42t-45 111v372q0 15 15 15h56q13 0 13 -14v-351q0 -50 27.5 -79.5t75.5 -29.5z" />
    <glyph glyph-name="udieresis" unicode="&#xfc;" horiz-adv-x="579" 
d="M245 730v-83q0 -15 -16 -15h-53q-14 0 -14 13v84q0 13 11 13h61q11 0 11 -12zM392 730v-83q0 -9 -3.5 -12t-13.5 -3h-52q-15 0 -15 13v84q0 13 11 13h62q11 0 11 -12zM257 56q76 0 161 87v373q0 14 16 14h55q14 0 14 -14l-2 -503q0 -13 -11 -13h-58q-11 0 -11 11v59
q0 12 -9 3q-97 -83 -182 -83q-70 0 -115 42t-45 111v372q0 15 15 15h56q13 0 13 -14v-351q0 -50 27.5 -79.5t75.5 -29.5z" />
    <glyph glyph-name="yacute" unicode="&#xfd;" horiz-adv-x="530" 
d="M394 748l15 -45q4 -13 -10 -18l-229 -69q-12 -3 -16 8l-8 22q-3 11 5 14l232 93q7 4 11 -5zM106 -165h-26.5t-18 1.5t-13 4t-3.5 7.5v39q0 13 28 13h63q42 0 69.5 49.5t13.5 85.5l-191 478q-6 17 11 17h62q11 0 16 -11l149 -388q9 -21 18 3l147 385q5 11 14 11h47
q6 0 9 -4.5t1 -9.5l-220 -563q-27 -68 -67 -93t-109 -25z" />
    <glyph glyph-name="thorn" unicode="&#xfe;" horiz-adv-x="595" 
d="M146 742q14 0 14 -15v-254q0 -15 13 -4l4 4q18 18 31.5 29t47.5 24.5t74 13.5q97 0 158 -68.5t61 -198.5q0 -132 -63 -207.5t-167 -75.5q-83 0 -142 50q-16 15 -16 -6v-186q0 -13 -11 -13h-62q-11 0 -11 13v878q0 16 16 16h53zM161 117q64 -66 136 -66q75 0 120.5 57
t45.5 164q0 104 -45 155.5t-116 51.5q-59 0 -100 -36.5t-41 -78.5v-247z" />
    <glyph glyph-name="ydieresis" unicode="&#xff;" horiz-adv-x="530" 
d="M243 730v-83q0 -15 -16 -15h-53q-14 0 -14 13v84q0 13 11 13h61q11 0 11 -12zM390 730v-83q0 -9 -3.5 -12t-13.5 -3h-52q-15 0 -15 13v84q0 13 11 13h62q11 0 11 -12zM106 -165h-26.5t-18 1.5t-13 4t-3.5 7.5v39q0 13 28 13h63q42 0 69.5 49.5t13.5 85.5l-191 478
q-6 17 11 17h62q11 0 16 -11l149 -388q9 -21 18 3l147 385q5 11 14 11h47q6 0 9 -4.5t1 -9.5l-220 -563q-27 -68 -67 -93t-109 -25z" />
    <glyph glyph-name="Amacron" unicode="&#x100;" horiz-adv-x="727" 
d="M510 930v-39q0 -13 -15 -13h-270q-11 0 -11 12v39q0 11 8 11h280q8 0 8 -10zM55 0q-15 0 -9 17l259 711q6 14 20 14h78q19 0 23 -15l256 -710q4 -17 -10 -17h-71q-12 0 -16 10l-69 194q-3 8 -12 8h-291q-9 0 -12 -8l-71 -195q-3 -9 -15 -9h-60zM236 288h242q11 0 8 13
l-120 329q-8 19 -14 0l-122 -331q-6 -11 6 -11z" />
    <glyph glyph-name="amacron" unicode="&#x101;" horiz-adv-x="548" 
d="M420 718v-39q0 -13 -15 -13h-270q-11 0 -11 12v39q0 11 8 11h280q8 0 8 -10zM382 64q-77 -74 -178 -74q-77 0 -122 39.5t-45 105.5q0 79 68 125.5t196 54.5l78 6q16 2 16 15v27q0 54 -33.5 85.5t-90.5 31.5q-88 0 -143 -80q-7 -9 -15 -6l-54 18q-8 3 -2 16
q63 112 218 112q97 0 149 -45.5t52 -125.5v-354q0 -15 -13 -15h-51q-12 0 -14 16l-1 46q-3 14 -15 2zM395 254q0 16 -14 16l-66 -6q-194 -13 -194 -119q0 -43 30.5 -68t82.5 -25q62 0 113 41q48 38 48 78v83z" />
    <glyph glyph-name="Abreve" unicode="&#x102;" horiz-adv-x="727" 
d="M501 954q12 0 9 -11q-13 -40 -52.5 -68.5t-96.5 -28.5t-95.5 28t-50.5 70q-3 10 6 10h46q10 0 16 -9q33 -44 78 -44q53 0 81 45q5 8 12 8h47zM55 0q-15 0 -9 17l259 711q6 14 20 14h78q19 0 23 -15l256 -710q4 -17 -10 -17h-71q-12 0 -16 10l-69 194q-3 8 -12 8h-291
q-9 0 -12 -8l-71 -195q-3 -9 -15 -9h-60zM236 288h242q11 0 8 13l-120 329q-8 19 -14 0l-122 -331q-6 -11 6 -11z" />
    <glyph glyph-name="abreve" unicode="&#x103;" horiz-adv-x="548" 
d="M411 742q12 0 9 -11q-13 -40 -52.5 -68.5t-96.5 -28.5t-95.5 28t-50.5 70q-3 10 6 10h46q10 0 16 -9q33 -44 78 -44q53 0 81 45q5 8 12 8h47zM382 64q-77 -74 -178 -74q-77 0 -122 39.5t-45 105.5q0 79 68 125.5t196 54.5l78 6q16 2 16 15v27q0 54 -33.5 85.5t-90.5 31.5
q-88 0 -143 -80q-7 -9 -15 -6l-54 18q-8 3 -2 16q63 112 218 112q97 0 149 -45.5t52 -125.5v-354q0 -15 -13 -15h-51q-12 0 -14 16l-1 46q-3 14 -15 2zM395 254q0 16 -14 16l-66 -6q-194 -13 -194 -119q0 -43 30.5 -68t82.5 -25q62 0 113 41q48 38 48 78v83z" />
    <glyph glyph-name="Aogonek" unicode="&#x104;" horiz-adv-x="727" 
d="M691 -109q11 5 11 -5v-29q0 -7 -6 -11q-34 -17 -87 -17q-49 0 -74.5 21.5t-25.5 59.5q0 60 84 92q-5 1 -8 8l-69 194q-3 8 -12 8h-291q-9 0 -12 -8l-71 -195q-3 -9 -15 -9h-60q-15 0 -9 17l259 711q6 14 20 14h78q19 0 23 -15l256 -710q4 -17 -10 -17
q-50 -21 -71.5 -40.5t-21.5 -43.5q0 -38 50 -38q38 0 62 13zM478 288q11 0 8 13l-120 329q-8 19 -14 0l-122 -331q-6 -11 6 -11h242z" />
    <glyph glyph-name="aogonek" unicode="&#x105;" horiz-adv-x="548" 
d="M487 -106q11 6 11 -5v-29q0 -6 -6 -11q-34 -17 -87 -17q-49 0 -74.5 21.5t-25.5 59.5q0 64 95 95q-2 6 -2 8l-1 46q-3 14 -15 2q-77 -74 -178 -74q-77 0 -122 39.5t-45 105.5q0 79 68 125.5t196 54.5l78 6q16 2 16 15v27q0 54 -33.5 85.5t-90.5 31.5q-88 0 -143 -80
q-7 -9 -15 -6l-54 18q-8 3 -2 16q63 112 218 112q97 0 149 -45.5t52 -125.5v-354q0 -15 -13 -15h-2q-46 -21 -66 -39t-20 -42q0 -38 50 -38q38 0 62 13zM395 171v83q0 16 -14 16l-66 -6q-194 -13 -194 -119q0 -43 30.5 -68t82.5 -25q62 0 113 41q48 38 48 78z" />
    <glyph glyph-name="Cacute" unicode="&#x106;" horiz-adv-x="707" 
d="M497 960l15 -45q4 -13 -10 -18l-229 -69q-12 -3 -16 8l-8 22q-3 11 5 14l232 93q8 4 11 -5zM378 752q101 0 180 -60.5t91 -144.5q2 -14 -7 -15l-75 -6q-5 -1 -6.5 1t-3.5 9q-15 65 -62 104t-114 39q-105 0 -160.5 -77.5t-55.5 -231.5q0 -304 221 -304q71 0 118.5 34.5
t76.5 108.5q2 7 12 4l59 -14q7 -2 5 -14q-23 -79 -96 -137t-179 -58q-149 0 -233 102t-84 280t83.5 279t229.5 101z" />
    <glyph glyph-name="cacute" unicode="&#x107;" horiz-adv-x="542" 
d="M415 748l15 -45q4 -13 -10 -18l-229 -69q-12 -3 -16 8l-8 22q-3 11 5 14l232 93q8 4 11 -5zM297 540q139 0 207 -124q5 -12 -5 -15l-55 -13q-7 -3 -13 7q-32 43 -61.5 63t-67.5 20q-78 0 -124 -57.5t-46 -155.5q0 -99 46.5 -156t125.5 -57q89 0 147 94q5 8 13 4l43 -16
q7 -3 4 -13q-31 -58 -85 -94.5t-129 -36.5q-111 0 -181 75.5t-70 197.5t70.5 199.5t180.5 77.5z" />
    <glyph glyph-name="Ccircumflex" unicode="&#x108;" horiz-adv-x="707" 
d="M443 849l-54 50q-8 8 -11 8t-12 -8l-58 -50q-7 -6 -18 -6h-54q-14 0 -2 12l102 91q13 11 25 11h39q8 0 20 -10l101 -92q12 -12 -1 -12h-59q-11 0 -18 6zM378 752q101 0 180 -60.5t91 -144.5q2 -14 -7 -15l-75 -6q-5 -1 -6.5 1t-3.5 9q-15 65 -62 104t-114 39
q-105 0 -160.5 -77.5t-55.5 -231.5q0 -304 221 -304q71 0 118.5 34.5t76.5 108.5q2 7 12 4l59 -14q7 -2 5 -14q-23 -79 -96 -137t-179 -58q-149 0 -233 102t-84 280t83.5 279t229.5 101z" />
    <glyph glyph-name="ccircumflex" unicode="&#x109;" horiz-adv-x="542" 
d="M361 637l-54 50q-8 8 -11 8t-12 -8l-58 -50q-7 -6 -18 -6h-54q-14 0 -2 12l102 91q13 11 25 11h39q8 0 20 -10l101 -92q12 -12 -1 -12h-59q-11 0 -18 6zM297 540q139 0 207 -124q5 -12 -5 -15l-55 -13q-7 -3 -13 7q-32 43 -61.5 63t-67.5 20q-78 0 -124 -57.5t-46 -155.5
q0 -99 46.5 -156t125.5 -57q89 0 147 94q5 8 13 4l43 -16q7 -3 4 -13q-31 -58 -85 -94.5t-129 -36.5q-111 0 -181 75.5t-70 197.5t70.5 199.5t180.5 77.5z" />
    <glyph glyph-name="Cdotaccent" unicode="&#x10a;" horiz-adv-x="707" 
d="M423 941v-88q0 -16 -18 -16h-58q-15 0 -15 14v89q0 14 12 14h68q11 0 11 -13zM378 752q101 0 180 -60.5t91 -144.5q2 -14 -7 -15l-75 -6q-5 -1 -6.5 1t-3.5 9q-15 65 -62 104t-114 39q-105 0 -160.5 -77.5t-55.5 -231.5q0 -304 221 -304q71 0 118.5 34.5t76.5 108.5
q2 7 12 4l59 -14q7 -2 5 -14q-23 -79 -96 -137t-179 -58q-149 0 -233 102t-84 280t83.5 279t229.5 101z" />
    <glyph glyph-name="cdotaccent" unicode="&#x10b;" horiz-adv-x="542" 
d="M341 729v-88q0 -16 -18 -16h-58q-15 0 -15 14v89q0 14 12 14h68q11 0 11 -13zM297 540q139 0 207 -124q5 -12 -5 -15l-55 -13q-7 -3 -13 7q-32 43 -61.5 63t-67.5 20q-78 0 -124 -57.5t-46 -155.5q0 -99 46.5 -156t125.5 -57q89 0 147 94q5 8 13 4l43 -16q7 -3 4 -13
q-31 -58 -85 -94.5t-129 -36.5q-111 0 -181 75.5t-70 197.5t70.5 199.5t180.5 77.5z" />
    <glyph glyph-name="Ccaron" unicode="&#x10c;" horiz-adv-x="707" 
d="M443 947q7 7 18 7h59q13 0 1 -12l-101 -93q-11 -9 -20 -9h-39q-13 0 -25 10l-102 92q-12 12 2 12h54q11 0 18 -7l58 -49q9 -9 11.5 -9t11.5 9zM378 752q101 0 180 -60.5t91 -144.5q2 -14 -7 -15l-75 -6q-5 -1 -6.5 1t-3.5 9q-15 65 -62 104t-114 39q-105 0 -160.5 -77.5
t-55.5 -231.5q0 -304 221 -304q71 0 118.5 34.5t76.5 108.5q2 7 12 4l59 -14q7 -2 5 -14q-23 -79 -96 -137t-179 -58q-149 0 -233 102t-84 280t83.5 279t229.5 101z" />
    <glyph glyph-name="ccaron" unicode="&#x10d;" horiz-adv-x="542" 
d="M361 735q7 7 18 7h59q13 0 1 -12l-101 -93q-11 -9 -20 -9h-39q-13 0 -25 10l-102 92q-12 12 2 12h54q11 0 18 -7l58 -49q9 -9 11.5 -9t11.5 9zM297 540q139 0 207 -124q5 -12 -5 -15l-55 -13q-7 -3 -13 7q-32 43 -61.5 63t-67.5 20q-78 0 -124 -57.5t-46 -155.5
q0 -99 46.5 -156t125.5 -57q89 0 147 94q5 8 13 4l43 -16q7 -3 4 -13q-31 -58 -85 -94.5t-129 -36.5q-111 0 -181 75.5t-70 197.5t70.5 199.5t180.5 77.5z" />
    <glyph glyph-name="Dcaron" unicode="&#x10e;" horiz-adv-x="722" 
d="M416 947q7 7 18 7h59q13 0 1 -12l-101 -93q-11 -9 -20 -9h-39q-13 0 -25 10l-102 92q-12 12 2 12h54q11 0 18 -7l58 -49q9 -9 11.5 -9t11.5 9zM112 742q133 0 156 -1q203 -3 296 -94t93 -270q0 -189 -98.5 -283t-300.5 -94h-147q-14 0 -14 16v712q0 14 15 14zM203 669
q-10 0 -10 -14v-572q0 -11 12 -11h38q167 0 240.5 68.5t73.5 231.5q0 166 -72.5 231.5t-236.5 65.5h-45z" />
    <glyph glyph-name="dcaron" unicode="&#x10f;" horiz-adv-x="682" 
d="M454 0q-14 0 -14 14v43q0 15 -13 4q-71 -71 -157 -71q-98 0 -160 69t-62 198q0 127 65.5 205t168.5 78q78 0 140 -53q16 -13 16 7v235q0 13 11 13h61q11 0 11 -13v-713q0 -9 -3 -12.5t-13 -3.5h-51zM590 547q-10 0 -7 10l30 72q4 11 -4 12l-7 1q-10 1 -10 11v80q0 9 8 9
h58q7 0 7 -8v-92q0 -3 -2 -5l-34 -80q-4 -10 -18 -10h-21zM437 413q-65 65 -135 65q-76 0 -122 -57t-46 -161q0 -105 45.5 -157t116.5 -52q58 0 99.5 38.5t41.5 82.5v241z" />
    <glyph glyph-name="Dcroat" unicode="&#x110;" horiz-adv-x="727" 
d="M274 741q203 -3 296 -94t93 -270q0 -189 -98.5 -283t-300.5 -94h-147q-14 0 -14 16v321h-57q-14 0 -14 14v42q0 13 10 13h61v322q0 14 15 14q133 0 156 -1zM249 72q167 0 240.5 68.5t73.5 231.5q0 166 -72.5 231.5t-236.5 65.5h-45q-10 0 -10 -14v-249h158q10 0 10 -12
v-42q0 -15 -19 -15h-149v-254q0 -11 12 -11h38z" />
    <glyph glyph-name="dcroat" unicode="&#x111;" horiz-adv-x="609" 
d="M579 669q8 0 8 -9v-34q0 -12 -15 -12h-51v-598q0 -9 -3 -12.5t-13 -3.5h-51q-14 0 -14 14v43q0 15 -13 4q-71 -71 -157 -71q-98 0 -160 69t-62 198q0 127 65.5 205t168.5 78q78 0 140 -53q16 -13 16 7v120h-152q-11 0 -11 12v32q0 11 8 11h155v60q0 13 11 13h61
q11 0 11 -13v-60h58zM437 172v241q-65 65 -135 65q-76 0 -122 -57t-46 -161q0 -105 45.5 -157t116.5 -52q58 0 99.5 38.5t41.5 82.5z" />
    <glyph glyph-name="Emacron" unicode="&#x112;" horiz-adv-x="628" 
d="M491 930v-39q0 -13 -15 -13h-270q-11 0 -11 12v39q0 11 8 11h280q8 0 8 -10zM97 728q0 14 12 14h449q10 0 10 -11v-51q0 -12 -13 -12h-349q-13 0 -13 -12v-234q0 -11 11 -11h259q11 0 11 -11v-53q0 -9 -11 -9h-259q-11 0 -11 -11v-243q0 -10 10 -10h367q11 0 11 -10v-53
q0 -11 -11 -11h-459q-14 0 -14 14v714z" />
    <glyph glyph-name="emacron" unicode="&#x113;" horiz-adv-x="581" 
d="M446 718v-39q0 -13 -15 -13h-270q-11 0 -11 12v39q0 11 8 11h280q8 0 8 -10zM133 232q0 -74 51 -126t124 -52q100 0 156 83q7 7 14 3l42 -21q8 -5 2 -14q-75 -115 -222 -115q-111 0 -182.5 75t-71.5 195q0 127 71.5 203.5t181.5 76.5t175.5 -72t65.5 -199q0 -8 -0.5 -11
t-4 -7t-10.5 -4h-383q-9 0 -9 -15zM135 302h304q11 0 14 2.5t3 11.5q0 68 -42 116t-113 48q-76 0 -121.5 -53.5t-44.5 -124.5z" />
    <glyph glyph-name="Ebreve" unicode="&#x114;" horiz-adv-x="628" 
d="M482 954q12 0 9 -11q-13 -40 -52.5 -68.5t-96.5 -28.5t-95.5 28t-50.5 70q-2 10 6 10h46q10 0 16 -9q33 -44 78 -44q53 0 81 45q5 8 12 8h47zM97 728q0 14 12 14h449q10 0 10 -11v-51q0 -12 -13 -12h-349q-13 0 -13 -12v-234q0 -11 11 -11h259q11 0 11 -11v-53
q0 -9 -11 -9h-259q-11 0 -11 -11v-243q0 -10 10 -10h367q11 0 11 -10v-53q0 -11 -11 -11h-459q-14 0 -14 14v714z" />
    <glyph glyph-name="ebreve" unicode="&#x115;" horiz-adv-x="581" 
d="M437 742q12 0 9 -11q-13 -40 -52.5 -68.5t-96.5 -28.5t-95.5 28t-50.5 70q-3 10 6 10h46q10 0 16 -9q33 -44 78 -44q53 0 81 45q5 8 12 8h47zM133 232q0 -74 51 -126t124 -52q100 0 156 83q7 7 14 3l42 -21q8 -5 2 -14q-75 -115 -222 -115q-111 0 -182.5 75t-71.5 195
q0 127 71.5 203.5t181.5 76.5t175.5 -72t65.5 -199q0 -8 -0.5 -11t-4 -7t-10.5 -4h-383q-9 0 -9 -15zM135 302h304q11 0 14 2.5t3 11.5q0 68 -42 116t-113 48q-76 0 -121.5 -53.5t-44.5 -124.5z" />
    <glyph glyph-name="Edotaccent" unicode="&#x116;" horiz-adv-x="628" 
d="M388 941v-88q0 -16 -18 -16h-58q-15 0 -15 14v89q0 14 12 14h68q11 0 11 -13zM97 728q0 14 12 14h449q10 0 10 -11v-51q0 -12 -13 -12h-349q-13 0 -13 -12v-234q0 -11 11 -11h259q11 0 11 -11v-53q0 -9 -11 -9h-259q-11 0 -11 -11v-243q0 -10 10 -10h367q11 0 11 -10v-53
q0 -11 -11 -11h-459q-14 0 -14 14v714z" />
    <glyph glyph-name="edotaccent" unicode="&#x117;" horiz-adv-x="581" 
d="M306 729v-88q0 -16 -18 -16h-58q-15 0 -15 14v89q0 14 12 14h68q11 0 11 -13zM133 232q0 -74 51 -126t124 -52q100 0 156 83q7 7 14 3l42 -21q8 -5 2 -14q-75 -115 -222 -115q-111 0 -182.5 75t-71.5 195q0 127 71.5 203.5t181.5 76.5t175.5 -72t65.5 -199q0 -8 -0.5 -11
t-4 -7t-10.5 -4h-383q-9 0 -9 -15zM135 302h304q11 0 14 2.5t3 11.5q0 68 -42 116t-113 48q-76 0 -121.5 -53.5t-44.5 -124.5z" />
    <glyph glyph-name="Eogonek" unicode="&#x118;" horiz-adv-x="628" 
d="M589 -109q11 5 11 -5v-29q0 -7 -6 -11q-34 -17 -87 -17q-49 0 -74.5 21.5t-25.5 59.5q0 59 80 90h-376q-14 0 -14 14v714q0 14 12 14h449q10 0 10 -11v-51q0 -12 -13 -12h-349q-13 0 -13 -12v-234q0 -11 11 -11h259q11 0 11 -11v-53q0 -9 -11 -9h-259q-11 0 -11 -11v-243
q0 -10 10 -10h367q11 0 11 -10v-53q0 -11 -11 -11q-50 -21 -71.5 -40.5t-21.5 -43.5q0 -38 50 -38q38 0 62 13z" />
    <glyph glyph-name="eogonek" unicode="&#x119;" horiz-adv-x="581" 
d="M540 269q0 -8 -0.5 -11t-4 -7t-10.5 -4h-383q-9 0 -9 -15q0 -74 51 -126t124 -52q100 0 156 83q7 7 14 3l42 -21q8 -5 2 -14q-51 -79 -132 -103q-40 -19 -57.5 -36.5t-17.5 -39.5q0 -38 50 -38q38 0 62 13q11 5 11 -5v-29q0 -7 -6 -11q-34 -17 -87 -17q-49 0 -74.5 21.5
t-25.5 59.5q0 44 41 70q-106 5 -173 79.5t-67 190.5q0 127 71.5 203.5t181.5 76.5t175.5 -72t65.5 -199zM439 302q11 0 14 2.5t3 11.5q0 68 -42 116t-113 48q-76 0 -121.5 -53.5t-44.5 -124.5h304z" />
    <glyph glyph-name="Ecaron" unicode="&#x11a;" horiz-adv-x="628" 
d="M408 947q7 7 18 7h59q13 0 1 -12l-101 -93q-11 -9 -20 -9h-39q-13 0 -25 10l-102 92q-12 12 2 12h54q11 0 18 -7l58 -49q9 -9 11.5 -9t11.5 9zM97 728q0 14 12 14h449q10 0 10 -11v-51q0 -12 -13 -12h-349q-13 0 -13 -12v-234q0 -11 11 -11h259q11 0 11 -11v-53
q0 -9 -11 -9h-259q-11 0 -11 -11v-243q0 -10 10 -10h367q11 0 11 -10v-53q0 -11 -11 -11h-459q-14 0 -14 14v714z" />
    <glyph glyph-name="ecaron" unicode="&#x11b;" horiz-adv-x="581" 
d="M363 735q7 7 18 7h59q13 0 1 -12l-101 -93q-11 -9 -20 -9h-39q-13 0 -25 10l-102 92q-12 12 2 12h54q11 0 18 -7l58 -49q9 -9 11.5 -9t11.5 9zM133 232q0 -74 51 -126t124 -52q100 0 156 83q7 7 14 3l42 -21q8 -5 2 -14q-75 -115 -222 -115q-111 0 -182.5 75t-71.5 195
q0 127 71.5 203.5t181.5 76.5t175.5 -72t65.5 -199q0 -8 -0.5 -11t-4 -7t-10.5 -4h-383q-9 0 -9 -15zM135 302h304q11 0 14 2.5t3 11.5q0 68 -42 116t-113 48q-76 0 -121.5 -53.5t-44.5 -124.5z" />
    <glyph glyph-name="Gcircumflex" unicode="&#x11c;" horiz-adv-x="739" 
d="M441 849l-54 50q-8 8 -11 8t-12 -8l-58 -50q-7 -6 -18 -6h-54q-14 0 -2 12l102 91q13 11 25 11h39q8 0 20 -10l101 -92q12 -12 -1 -12h-59q-11 0 -18 6zM375 -10q-144 0 -227 101t-83 277q0 180 85 282t229 102q102 0 181 -59.5t91 -140.5q1 -14 -8 -16l-72 -11
q-8 -1 -11 10q-11 61 -61 102.5t-121 41.5q-103 0 -158 -78t-55 -227q0 -311 215 -311q90 0 141.5 55.5t55.5 125.5v60q1 11 -10 11h-163q-11 0 -11 10v43q0 9 10 9l248 -1q15 0 15 -12v-351q0 -13 -12 -13h-23q-15 0 -18 12l-11 93q-2 11 -9 -1q-72 -114 -218 -114z" />
    <glyph glyph-name="gcircumflex" unicode="&#x11d;" horiz-adv-x="602" 
d="M354 637l-54 50q-8 8 -11 8t-12 -8l-58 -50q-7 -6 -18 -6h-54q-14 0 -2 12l102 91q13 11 25 11h39q7 0 20 -10l101 -92q12 -12 -1 -12h-59q-11 0 -18 6zM556 539q19 0 19 -16v-35q0 -19 -20 -18q-33 0 -52 -9q-24 -10 -20 -23q17 -42 17 -68q0 -71 -55.5 -116t-161.5 -45
q-133 0 -133 -43q0 -15 21 -22.5t70 -10.5l129 -7q170 -10 170 -139q0 -76 -66.5 -119t-189.5 -43q-127 0 -193.5 36.5t-66.5 104.5q0 67 94 113q11 5 0 11q-46 20 -46 59q0 22 20.5 42t58.5 33q12 3 0 12q-86 44 -86 134q0 78 59 123t167 45q95 0 150 -45q10 -9 21 0
q48 46 94 46zM283 262q138 0 138 109q0 54 -35 84t-103 30q-66 0 -103 -30.5t-37 -83.5q0 -52 36.5 -80.5t103.5 -28.5zM362 55l-167 10q-30 2 -63 -24.5t-33 -64.5q0 -99 194 -99q169 0 169 100q0 73 -100 78z" />
    <glyph glyph-name="Gbreve" unicode="&#x11e;" horiz-adv-x="739" 
d="M515 954q12 0 9 -11q-13 -40 -52.5 -68.5t-96.5 -28.5t-95.5 28t-50.5 70q-3 10 6 10h46q10 0 16 -9q33 -44 78 -44q53 0 81 45q5 8 12 8h47zM375 -10q-144 0 -227 101t-83 277q0 180 85 282t229 102q102 0 181 -59.5t91 -140.5q1 -14 -8 -16l-72 -11q-8 -1 -11 10
q-11 61 -61 102.5t-121 41.5q-103 0 -158 -78t-55 -227q0 -311 215 -311q90 0 141.5 55.5t55.5 125.5v60q1 11 -10 11h-163q-11 0 -11 10v43q0 9 10 9l248 -1q15 0 15 -12v-351q0 -13 -12 -13h-23q-15 0 -18 12l-11 93q-2 11 -9 -1q-72 -114 -218 -114z" />
    <glyph glyph-name="gbreve" unicode="&#x11f;" horiz-adv-x="602" 
d="M428 742q12 0 9 -11q-13 -40 -52.5 -68.5t-96.5 -28.5t-95.5 28t-50.5 70q-2 10 6 10h46q10 0 16 -9q33 -44 78 -44q53 0 81 45q5 8 12 8h47zM556 539q19 0 19 -16v-35q0 -19 -20 -18q-33 0 -52 -9q-24 -10 -20 -23q17 -42 17 -68q0 -71 -55.5 -116t-161.5 -45
q-133 0 -133 -43q0 -15 21 -22.5t70 -10.5l129 -7q170 -10 170 -139q0 -76 -66.5 -119t-189.5 -43q-127 0 -193.5 36.5t-66.5 104.5q0 67 94 113q11 5 0 11q-46 20 -46 59q0 22 20.5 42t58.5 33q12 3 0 12q-86 44 -86 134q0 78 59 123t167 45q95 0 150 -45q10 -9 21 0
q48 46 94 46zM283 262q138 0 138 109q0 54 -35 84t-103 30q-66 0 -103 -30.5t-37 -83.5q0 -52 36.5 -80.5t103.5 -28.5zM362 55l-167 10q-30 2 -63 -24.5t-33 -64.5q0 -99 194 -99q169 0 169 100q0 73 -100 78z" />
    <glyph glyph-name="Gdotaccent" unicode="&#x120;" horiz-adv-x="739" 
d="M421 941v-88q0 -16 -18 -16h-58q-15 0 -15 14v89q0 14 12 14h68q11 0 11 -13zM375 -10q-144 0 -227 101t-83 277q0 180 85 282t229 102q102 0 181 -59.5t91 -140.5q1 -14 -8 -16l-72 -11q-8 -1 -11 10q-11 61 -61 102.5t-121 41.5q-103 0 -158 -78t-55 -227
q0 -311 215 -311q90 0 141.5 55.5t55.5 125.5v60q1 11 -10 11h-163q-11 0 -11 10v43q0 9 10 9l248 -1q15 0 15 -12v-351q0 -13 -12 -13h-23q-15 0 -18 12l-11 93q-2 11 -9 -1q-72 -114 -218 -114z" />
    <glyph glyph-name="gdotaccent" unicode="&#x121;" horiz-adv-x="602" 
d="M334 729v-88q0 -16 -18 -16h-58q-15 0 -15 14v89q0 14 12 14h68q11 0 11 -13zM556 539q19 0 19 -16v-35q0 -19 -20 -18q-33 0 -52 -9q-24 -10 -20 -23q17 -42 17 -68q0 -71 -55.5 -116t-161.5 -45q-133 0 -133 -43q0 -15 21 -22.5t70 -10.5l129 -7q170 -10 170 -139
q0 -76 -66.5 -119t-189.5 -43q-127 0 -193.5 36.5t-66.5 104.5q0 67 94 113q11 5 0 11q-46 20 -46 59q0 22 20.5 42t58.5 33q12 3 0 12q-86 44 -86 134q0 78 59 123t167 45q95 0 150 -45q10 -9 21 0q48 46 94 46zM283 262q138 0 138 109q0 54 -35 84t-103 30
q-66 0 -103 -30.5t-37 -83.5q0 -52 36.5 -80.5t103.5 -28.5zM362 55l-167 10q-30 2 -63 -24.5t-33 -64.5q0 -99 194 -99q169 0 169 100q0 73 -100 78z" />
    <glyph glyph-name="Gcommaaccent" unicode="&#x122;" horiz-adv-x="739" 
d="M375 -10q-144 0 -227 101t-83 277q0 180 85 282t229 102q102 0 181 -59.5t91 -140.5q1 -14 -8 -16l-72 -11q-8 -1 -11 10q-11 61 -61 102.5t-121 41.5q-103 0 -158 -78t-55 -227q0 -311 215 -311q90 0 141.5 55.5t55.5 125.5v60q1 11 -10 11h-163q-11 0 -11 10v43
q0 9 10 9l248 -1q15 0 15 -12v-351q0 -13 -12 -13h-23q-15 0 -18 12l-11 93q-2 11 -9 -1q-72 -114 -218 -114zM348 -239q-4 0 -6 3.5t0 8.5l27 51q4 6 2 10.5t-7 4.5h-9q-12 0 -12 12v65q0 11 10 11h59q9 0 9 -9v-79q0 -2 -1 -5l-1 -3l-37 -62q-7 -8 -19 -8h-15z" />
    <glyph glyph-name="gcommaaccent" unicode="&#x123;" horiz-adv-x="602" 
d="M257 623q-9 0 -9 9v79q0 6 2 8l37 62q5 8 19 8h14q5 0 7 -4t0 -8l-28 -51q-4 -6 -2 -10.5t8 -4.5h8q12 0 12 -12v-65q0 -11 -10 -11h-58zM556 539q19 0 19 -16v-35q0 -19 -20 -18q-33 0 -52 -9q-24 -10 -20 -23q17 -42 17 -68q0 -71 -55.5 -116t-161.5 -45
q-133 0 -133 -43q0 -15 21 -22.5t70 -10.5l129 -7q170 -10 170 -139q0 -76 -66.5 -119t-189.5 -43q-127 0 -193.5 36.5t-66.5 104.5q0 67 94 113q11 5 0 11q-46 20 -46 59q0 22 20.5 42t58.5 33q12 3 0 12q-86 44 -86 134q0 78 59 123t167 45q95 0 150 -45q10 -9 21 0
q48 46 94 46zM283 262q138 0 138 109q0 54 -35 84t-103 30q-66 0 -103 -30.5t-37 -83.5q0 -52 36.5 -80.5t103.5 -28.5zM362 55l-167 10q-30 2 -63 -24.5t-33 -64.5q0 -99 194 -99q169 0 169 100q0 73 -100 78z" />
    <glyph glyph-name="Hcircumflex" unicode="&#x124;" horiz-adv-x="735" 
d="M433 849l-54 50q-8 8 -11 8t-12 -8l-58 -50q-7 -6 -18 -6h-54q-14 0 -2 12l102 91q13 11 25 11h39q8 0 20 -10l101 -92q12 -12 -1 -12h-59q-11 0 -18 6zM533 347h-332q-8 0 -8 -8v-324q0 -15 -17 -15h-65q-14 0 -14 14v714q0 14 12 14h72q12 0 12 -13v-294q0 -12 11 -12
h328q10 0 10 12v295q0 12 11 12h73q12 0 12 -14v-714q0 -14 -14 -14h-65q-17 0 -17 15v323q0 9 -9 9z" />
    <glyph glyph-name="hcircumflex" unicode="&#x125;" horiz-adv-x="584" 
d="M357 856l-54 50q-8 8 -11 8t-12 -8l-58 -50q-7 -6 -18 -6h-54q-14 0 -2 12l102 91q13 11 25 11h39q7 0 20 -10l101 -92q12 -12 -1 -12h-59q-11 0 -18 6zM91 0q-13 0 -13 13v716q0 13 11 13h59q11 0 11 -12v-267q0 -11 9 -3q57 44 97 62t88 18q77 0 118.5 -41t41.5 -111
v-372q0 -16 -15 -16h-56q-13 0 -13 13v357q0 104 -104 104q-42 0 -76.5 -18.5t-86.5 -62.5v-378q0 -15 -16 -15h-55z" />
    <glyph glyph-name="Hbar" unicode="&#x126;" horiz-adv-x="732" 
d="M719 629q10 0 10 -11v-32q0 -14 -18 -14h-67v-558q0 -14 -14 -14h-65q-17 0 -17 15v323q0 9 -9 9h-332q-8 0 -8 -8v-324q0 -15 -17 -15h-65q-14 0 -14 14v558h-86q-13 0 -13 13v32q0 12 9 12h90v99q0 14 12 14h72q12 0 12 -13v-100h349v101q0 12 11 12h73q12 0 12 -14
v-99h75zM548 435v137h-349v-137q0 -12 11 -12h328q10 0 10 12z" />
    <glyph glyph-name="hbar" unicode="&#x127;" horiz-adv-x="585" 
d="M354 540q77 0 118.5 -41t41.5 -111v-372q0 -16 -15 -16h-56q-13 0 -13 13v357q0 104 -104 104q-42 0 -76.5 -18.5t-86.5 -62.5v-378q0 -15 -16 -15h-55q-13 0 -13 13v601h-53q-11 0 -11 12v32q0 11 8 11h56v60q0 13 11 13h59q11 0 11 -12v-61h159q8 0 8 -9v-34
q0 -12 -15 -12h-152v-151q0 -11 9 -3q57 44 97 62t88 18z" />
    <glyph glyph-name="Itilde" unicode="&#x128;" horiz-adv-x="290" 
d="M288 889q-37 -22 -76 -22q-28 0 -66.5 13t-60.5 13q-24 0 -60 -21q-10 -6 -14 5l-10 27q-3 9 4 14q39 30 76 30q25 0 67.5 -14t64.5 -14q26 0 57 20q12 7 16 -5l10 -31q3 -8 -8 -15zM109 742h72q12 0 12 -13v-712q0 -10 -4 -13.5t-14 -3.5h-63q-15 0 -15 14v714
q0 14 12 14z" />
    <glyph glyph-name="itilde" unicode="&#x129;" horiz-adv-x="239" 
d="M261 677q-37 -22 -76 -22q-28 0 -66.5 13t-60.5 13q-24 0 -60 -21q-10 -6 -14 5l-10 27q-3 9 4 14q39 30 76 30q25 0 67.5 -14t64.5 -14q26 0 57 20q12 7 16 -5l10 -31q3 -8 -8 -15zM161 517v-500q0 -10 -4 -13.5t-14 -3.5h-51q-15 0 -15 14v502q0 14 12 14h61
q11 0 11 -13z" />
    <glyph glyph-name="Imacron" unicode="&#x12a;" horiz-adv-x="290" 
d="M295 930v-39q0 -13 -15 -13h-270q-11 0 -11 12v39q0 11 8 11h280q8 0 8 -10zM109 742h72q12 0 12 -13v-712q0 -10 -4 -13.5t-14 -3.5h-63q-15 0 -15 14v714q0 14 12 14z" />
    <glyph glyph-name="imacron" unicode="&#x12b;" horiz-adv-x="239" 
d="M268 718v-39q0 -13 -15 -13h-270q-11 0 -11 12v39q0 11 8 11h280q8 0 8 -10zM161 517v-500q0 -10 -4 -13.5t-14 -3.5h-51q-15 0 -15 14v502q0 14 12 14h61q11 0 11 -13z" />
    <glyph glyph-name="Ibreve" unicode="&#x12c;" horiz-adv-x="290" 
d="M286 954q12 0 9 -11q-13 -40 -52.5 -68.5t-96.5 -28.5t-95.5 28t-50.5 70q-2 10 6 10h46q10 0 16 -9q33 -44 78 -44q53 0 81 45q5 8 12 8h47zM109 742h72q12 0 12 -13v-712q0 -10 -4 -13.5t-14 -3.5h-63q-15 0 -15 14v714q0 14 12 14z" />
    <glyph glyph-name="ibreve" unicode="&#x12d;" horiz-adv-x="239" 
d="M259 742q12 0 9 -11q-13 -40 -52.5 -68.5t-96.5 -28.5t-95.5 28t-50.5 70q-3 10 6 10h46q10 0 16 -9q33 -44 78 -44q53 0 81 45q5 8 12 8h47zM161 517v-500q0 -10 -4 -13.5t-14 -3.5h-51q-15 0 -15 14v502q0 14 12 14h61q11 0 11 -13z" />
    <glyph glyph-name="Iogonek" unicode="&#x12e;" horiz-adv-x="290" 
d="M201 -109q11 5 11 -5v-29q0 -7 -6 -11q-34 -17 -87 -17q-49 0 -74.5 21.5t-25.5 59.5q0 60 84 91q-6 2 -6 13v714q0 14 12 14h72q12 0 12 -13v-712q0 -12 -6 -15q-1 0 -1 -1q-52 -21 -74.5 -40.5t-22.5 -44.5q0 -38 50 -38q38 0 62 13z" />
    <glyph glyph-name="iogonek" unicode="&#x12f;" horiz-adv-x="239" 
d="M89 625q-15 0 -15 14v89q0 14 12 14h68q11 0 11 -13v-88q0 -16 -18 -16h-58zM171 -107q11 5 11 -5v-29q0 -7 -6 -11q-34 -17 -87 -17q-49 0 -74.5 21.5t-25.5 59.5q0 61 89 94q-1 2 -1 8v502q0 14 12 14h61q11 0 11 -13v-500q0 -16 -13 -17q-48 -21 -68.5 -39.5
t-20.5 -42.5q0 -38 50 -38q38 0 62 13z" />
    <glyph glyph-name="Idotaccent" unicode="&#x130;" horiz-adv-x="290" 
d="M192 941v-88q0 -16 -18 -16h-58q-15 0 -15 14v89q0 14 12 14h68q11 0 11 -13zM109 742h72q12 0 12 -13v-712q0 -10 -4 -13.5t-14 -3.5h-63q-15 0 -15 14v714q0 14 12 14z" />
    <glyph glyph-name="dotlessi" unicode="&#x131;" horiz-adv-x="239" 
d="M161 517v-500q0 -10 -4 -13.5t-14 -3.5h-51q-15 0 -15 14v502q0 14 12 14h61q11 0 11 -13z" />
    <glyph glyph-name="Jcircumflex" unicode="&#x134;" horiz-adv-x="418" 
d="M325 849l-54 50q-8 8 -11 8t-12 -8l-58 -50q-7 -6 -18 -6h-54q-14 0 -2 12l102 91q13 11 25 11h39q8 0 20 -10l101 -92q12 -12 -1 -12h-59q-11 0 -18 6zM325 163q0 -87 -38.5 -130t-121.5 -43q-41 0 -112 21q-14 5 -11 19l9 54q2 12 12 9q50 -20 82 -20q46 0 65 24.5
t19 87.5v544q0 13 12 13h73q11 0 11 -13v-566z" />
    <glyph glyph-name="jcircumflex" unicode="&#x135;" horiz-adv-x="239" 
d="M185 637l-54 50q-8 8 -11 8t-12 -8l-58 -50q-7 -6 -18 -6h-54q-14 0 -2 12l102 91q13 11 25 11h39q7 0 20 -10l101 -92q12 -12 -1 -12h-59q-11 0 -18 6zM162 -29q0 -74 -31.5 -107.5t-108.5 -33.5q-43 0 -54.5 2.5t-11.5 10.5v44q0 11 10 11l51 3q32 2 46.5 18.5
t14.5 57.5v539q0 14 12 14h61q11 0 11 -13v-546z" />
    <glyph glyph-name="Kcommaaccent" unicode="&#x136;" horiz-adv-x="701" 
d="M657 14q7 -14 -6 -14h-82q-13 0 -18 9l-221 369q-5 9 -15 -1l-115 -131q-7 -7 -7 -18v-213q0 -15 -17 -15h-64q-15 0 -15 13v717q0 12 11 12h74q11 0 11 -12v-367q0 -13 9 -2l328 372q6 9 20 9h69q8 0 10.5 -4.5t-2.5 -9.5l-233 -260q-4 -6 0 -13zM319 -239
q-5 0 -6.5 3.5t0.5 8.5l27 51q4 6 2 10.5t-7 4.5h-9q-12 0 -12 12v65q0 11 10 11h59q9 0 9 -9v-79q0 -2 -1 -5l-1 -3l-37 -62q-7 -8 -19 -8h-15z" />
    <glyph glyph-name="kcommaaccent" unicode="&#x137;" horiz-adv-x="564" 
d="M535 16q4 -6 1.5 -11t-10.5 -5h-70q-10 0 -18 12l-151 259q-5 9 -12 2l-106 -107q-7 -7 -7 -20v-129q0 -10 -4 -13.5t-14 -3.5h-51q-15 0 -15 14v714q0 14 11 14h61q12 0 12 -13v-464q0 -15 10 -4l247 257q11 12 21 12h61q22 0 5 -19l-158 -161q-7 -8 -1 -17zM249 -239
q-5 0 -6.5 3.5t0.5 8.5l27 51q4 6 2 10.5t-7 4.5h-9q-12 0 -12 12v65q0 11 10 11h59q9 0 9 -9v-79q0 -2 -1 -5l-1 -3l-37 -62q-7 -8 -19 -8h-15z" />
    <glyph glyph-name="kgreenlandic" unicode="&#x138;" horiz-adv-x="564" 
d="M535 16q4 -6 1.5 -11t-10.5 -5h-70q-10 0 -18 12l-151 259q-5 9 -12 2l-106 -107q-7 -7 -7 -20v-129q0 -10 -4 -13.5t-14 -3.5h-51q-15 0 -15 14v502q0 14 11 14h61q12 0 12 -13v-252q0 -15 10 -4l247 257q11 12 21 12h61q22 0 5 -19l-158 -161q-7 -8 -1 -17z" />
    <glyph glyph-name="Lacute" unicode="&#x139;" horiz-adv-x="602" 
d="M264 960l15 -45q4 -13 -10 -18l-229 -69q-12 -3 -16 8l-8 22q-3 11 5 14l232 93q7 4 11 -5zM97 728q0 14 12 14h72q12 0 12 -13v-645q0 -10 10 -10h346q12 0 12 -10v-53q0 -11 -12 -11h-438q-14 0 -14 14v714z" />
    <glyph glyph-name="lacute" unicode="&#x13a;" horiz-adv-x="239" 
d="M240 960l15 -45q4 -13 -10 -18l-229 -69q-12 -3 -16 8l-8 22q-3 11 5 14l232 93q7 4 11 -5zM162 729v-712q0 -17 -18 -17h-52q-15 0 -15 14l1 714q0 14 12 14h60q12 0 12 -13z" />
    <glyph glyph-name="Lcommaaccent" unicode="&#x13b;" horiz-adv-x="602" 
d="M97 728q0 14 12 14h72q12 0 12 -13v-645q0 -10 10 -10h346q12 0 12 -10v-53q0 -11 -12 -11h-438q-14 0 -14 14v714zM282 -239q-4 0 -6 3.5t0 8.5l27 51q4 6 2 10.5t-7 4.5h-9q-12 0 -12 12v65q0 11 10 11h59q9 0 9 -9v-79q0 -2 -1 -5l-1 -3l-37 -62q-7 -8 -19 -8h-15z
" />
    <glyph glyph-name="lcommaaccent" unicode="&#x13c;" horiz-adv-x="239" 
d="M162 729v-712q0 -17 -18 -17h-52q-15 0 -15 14l1 714q0 14 12 14h60q12 0 12 -13zM89 -239q-5 0 -6.5 3.5t0.5 8.5l27 51q4 6 2 10.5t-7 4.5h-9q-12 0 -12 12v65q0 11 10 11h59q9 0 9 -9v-79q0 -2 -1 -5l-1 -3l-37 -62q-7 -8 -19 -8h-15z" />
    <glyph glyph-name="Lcaron" unicode="&#x13d;" horiz-adv-x="602" 
d="M97 728q0 14 12 14h72q12 0 12 -13v-645q0 -10 10 -10h346q12 0 12 -10v-53q0 -11 -12 -11h-438q-14 0 -14 14v714zM406 547q-10 0 -7 10l30 72q4 11 -4 12l-7 1q-10 1 -10 11v80q0 9 8 9h58q7 0 7 -8v-92q0 -3 -2 -5l-34 -80q-4 -10 -18 -10h-21z" />
    <glyph glyph-name="lcaron" unicode="&#x13e;" horiz-adv-x="322" 
d="M162 729v-712q0 -17 -18 -17h-52q-15 0 -15 14l1 714q0 14 12 14h60q12 0 12 -13zM230 547q-10 0 -7 10l30 72q4 11 -4 12l-7 1q-10 1 -10 11v80q0 9 8 9h58q7 0 7 -8v-92q0 -3 -2 -5l-34 -80q-4 -10 -18 -10h-21z" />
    <glyph glyph-name="Ldot" unicode="&#x13f;" horiz-adv-x="616" 
d="M97 728q0 14 12 14h72q12 0 12 -13v-645q0 -10 10 -10h346q12 0 12 -10v-53q0 -11 -12 -11h-438q-14 0 -14 14v714zM518 445v-81q0 -15 -17 -15h-79q-14 0 -14 14v81q0 12 9 12h92q9 0 9 -11z" />
    <glyph glyph-name="ldot" unicode="&#x140;" horiz-adv-x="335" 
d="M162 729v-712q0 -17 -18 -17h-52q-15 0 -15 14l1 714q0 14 12 14h60q12 0 12 -13zM342 338v-81q0 -15 -17 -15h-79q-14 0 -14 14v81q0 12 9 12h92q9 0 9 -11z" />
    <glyph glyph-name="Lslash" unicode="&#x141;" horiz-adv-x="602" 
d="M549 74q12 0 12 -10v-53q0 -11 -12 -11h-438q-14 0 -14 14v318l-63 -17q-13 -3 -13 8v51q0 9 9 13l67 17v324q0 14 12 14h72q12 0 12 -13v-300l153 40q12 3 12 -9v-48q0 -10 -10 -13l-155 -41v-274q0 -10 10 -10h346z" />
    <glyph glyph-name="lslash" unicode="&#x142;" horiz-adv-x="276" 
d="M257 453q12 9 12 -4v-53q0 -9 -10 -17l-79 -67v-295q0 -17 -18 -17h-52q-15 0 -15 14v226l-75 -64q-12 -8 -12 6v54q0 10 9 16l78 66l1 410q0 14 12 14h60q12 0 12 -13v-340z" />
    <glyph glyph-name="Nacute" unicode="&#x143;" horiz-adv-x="757" 
d="M509 960l15 -45q4 -13 -10 -18l-229 -69q-12 -3 -16 8l-8 22q-3 11 5 14l232 93q8 4 11 -5zM590 742h59q11 0 11 -12v-718q0 -12 -13 -12h-49q-15 0 -21 8l-386 561q-3 4 -5.5 5.5t-4 -0.5t-1.5 -6v-555q0 -13 -14 -13h-56q-13 0 -13 13v715q0 14 13 14h57q13 0 21 -10
l375 -549q6 -7 10.5 -5.5t4.5 8.5v544q0 12 12 12z" />
    <glyph glyph-name="nacute" unicode="&#x144;" horiz-adv-x="584" 
d="M422 748l15 -45q4 -13 -10 -18l-229 -69q-12 -3 -16 8l-8 22q-3 11 5 14l232 93q7 4 11 -5zM91 0q-14 0 -14 13v504q0 13 11 13h60q11 0 11 -11v-58q0 -11 9 -3q56 44 95.5 63t88.5 19q76 0 118.5 -41t42.5 -110v-373q0 -16 -15 -16h-56q-13 0 -13 13v357q0 104 -104 104
q-42 0 -77.5 -18.5t-86.5 -62.5v-378q0 -15 -15 -15h-55z" />
    <glyph glyph-name="Ncommaaccent" unicode="&#x145;" horiz-adv-x="757" 
d="M590 742h59q11 0 11 -12v-718q0 -12 -13 -12h-49q-15 0 -21 8l-386 561q-3 4 -5.5 5.5t-4 -0.5t-1.5 -6v-555q0 -13 -14 -13h-56q-13 0 -13 13v715q0 14 13 14h57q13 0 21 -10l375 -549q6 -7 10.5 -5.5t4.5 8.5v544q0 12 12 12zM333 -239q-5 0 -6.5 3.5t0.5 8.5l27 51
q4 6 2 10.5t-7 4.5h-9q-12 0 -12 12v65q0 11 10 11h59q9 0 9 -9v-79q0 -2 -1 -5l-1 -3l-37 -62q-7 -8 -19 -8h-15z" />
    <glyph glyph-name="ncommaaccent" unicode="&#x146;" horiz-adv-x="584" 
d="M91 0q-14 0 -14 13v504q0 13 11 13h60q11 0 11 -11v-58q0 -11 9 -3q56 44 95.5 63t88.5 19q76 0 118.5 -41t42.5 -110v-373q0 -16 -15 -16h-56q-13 0 -13 13v357q0 104 -104 104q-42 0 -77.5 -18.5t-86.5 -62.5v-378q0 -15 -15 -15h-55zM264 -239q-4 0 -6 3.5t0 8.5
l27 51q4 6 2 10.5t-7 4.5h-9q-12 0 -12 12v65q0 11 10 11h59q9 0 9 -9v-79q0 -2 -1 -5l-1 -3l-37 -62q-7 -8 -19 -8h-15z" />
    <glyph glyph-name="Ncaron" unicode="&#x147;" horiz-adv-x="757" 
d="M455 947q7 7 18 7h59q13 0 1 -12l-101 -93q-11 -9 -20 -9h-39q-13 0 -25 10l-102 92q-12 12 2 12h54q11 0 18 -7l58 -49q9 -9 11.5 -9t11.5 9zM590 742h59q11 0 11 -12v-718q0 -12 -13 -12h-49q-15 0 -21 8l-386 561q-3 4 -5.5 5.5t-4 -0.5t-1.5 -6v-555q0 -13 -14 -13
h-56q-13 0 -13 13v715q0 14 13 14h57q13 0 21 -10l375 -549q6 -7 10.5 -5.5t4.5 8.5v544q0 12 12 12z" />
    <glyph glyph-name="ncaron" unicode="&#x148;" horiz-adv-x="584" 
d="M368 735q7 7 18 7h59q13 0 1 -12l-101 -93q-11 -9 -20 -9h-39q-13 0 -25 10l-102 92q-12 12 2 12h54q11 0 18 -7l58 -49q9 -9 11.5 -9t11.5 9zM91 0q-14 0 -14 13v504q0 13 11 13h60q11 0 11 -11v-58q0 -11 9 -3q56 44 95.5 63t88.5 19q76 0 118.5 -41t42.5 -110v-373
q0 -16 -15 -16h-56q-13 0 -13 13v357q0 104 -104 104q-42 0 -77.5 -18.5t-86.5 -62.5v-378q0 -15 -15 -15h-55z" />
    <glyph glyph-name="Eng" unicode="&#x14a;" horiz-adv-x="757" 
d="M649 742q11 0 11 -12v-750q0 -77 -37.5 -116t-118.5 -39q-53 0 -95 14q-12 5 -11 19l4 43q2 12 12 9q35 -11 73 -11q43 0 63 20t21 68v41l-382 543q-9 12 -9 -1v-557q0 -13 -14 -13h-56q-13 0 -13 13v715q0 14 13 14h60q12 0 19 -10l375 -538q5 -8 9.5 -6t4.5 9v533
q0 12 12 12h59z" />
    <glyph glyph-name="eng" unicode="&#x14b;" horiz-adv-x="587" 
d="M353 540q74 0 117 -41.5t43 -109.5v-411q0 -72 -35.5 -110t-103.5 -38q-38 0 -48 2.5t-10 10.5l-1 42q0 10 10 12l44 2q32 2 46 19.5t14 58.5v389q0 108 -106 108q-77 0 -161 -82v-377q0 -15 -16 -15h-55q-14 0 -14 13l1 504q0 13 11 13h59q11 0 11 -11v-58q0 -11 9 -4
q56 46 97 64.5t88 18.5z" />
    <glyph glyph-name="Omacron" unicode="&#x14c;" horiz-adv-x="764" 
d="M531 930v-39q0 -13 -15 -13h-270q-11 0 -11 12v39q0 11 8 11h280q8 0 8 -10zM382 -10q-149 0 -233 99t-84 279q0 182 85 283t233 101q147 0 231.5 -100.5t84.5 -282.5q0 -180 -84 -279.5t-233 -99.5zM384 63q215 0 215 305q0 311 -216 311q-218 0 -218 -311
q0 -305 219 -305z" />
    <glyph glyph-name="omacron" unicode="&#x14d;" 
d="M449 718v-39q0 -13 -15 -13h-270q-11 0 -11 12v39q0 11 8 11h280q8 0 8 -10zM299 -10q-113 0 -183 75.5t-70 196.5q0 123 71 200.5t183 77.5q113 0 182.5 -77.5t69.5 -199.5q0 -121 -70 -197t-183 -76zM301 53q78 0 121.5 56.5t43.5 155.5q0 98 -44.5 155.5t-121.5 57.5
q-78 0 -123 -57.5t-45 -155.5t45 -155t124 -57z" />
    <glyph glyph-name="Obreve" unicode="&#x14e;" horiz-adv-x="764" 
d="M522 954q12 0 9 -11q-13 -40 -52.5 -68.5t-96.5 -28.5t-95.5 28t-50.5 70q-2 10 6 10h46q10 0 16 -9q33 -44 78 -44q53 0 81 45q5 8 12 8h47zM382 -10q-149 0 -233 99t-84 279q0 182 85 283t233 101q147 0 231.5 -100.5t84.5 -282.5q0 -180 -84 -279.5t-233 -99.5z
M384 63q215 0 215 305q0 311 -216 311q-218 0 -218 -311q0 -305 219 -305z" />
    <glyph glyph-name="obreve" unicode="&#x14f;" 
d="M440 742q12 0 9 -11q-13 -40 -52.5 -68.5t-96.5 -28.5t-95.5 28t-50.5 70q-2 10 6 10h46q10 0 16 -9q33 -44 78 -44q53 0 81 45q5 8 12 8h47zM299 -10q-113 0 -183 75.5t-70 196.5q0 123 71 200.5t183 77.5q113 0 182.5 -77.5t69.5 -199.5q0 -121 -70 -197t-183 -76z
M301 53q78 0 121.5 56.5t43.5 155.5q0 98 -44.5 155.5t-121.5 57.5q-78 0 -123 -57.5t-45 -155.5t45 -155t124 -57z" />
    <glyph glyph-name="Ohungarumlaut" unicode="&#x150;" horiz-adv-x="764" 
d="M390 958l29 -36q10 -11 -3 -20l-129 -107q-12 -7 -18 1l-15 19q-7 8 -1 14l124 129q6 7 13 0zM552 958l30 -36q10 -11 -3 -20l-130 -107q-11 -7 -17 1l-16 19q-7 9 0 14l123 129q7 8 13 0zM382 -10q-149 0 -233 99t-84 279q0 182 85 283t233 101q147 0 231.5 -100.5
t84.5 -282.5q0 -180 -84 -279.5t-233 -99.5zM384 63q215 0 215 305q0 311 -216 311q-218 0 -218 -311q0 -305 219 -305z" />
    <glyph glyph-name="ohungarumlaut" unicode="&#x151;" 
d="M308 746l29 -36q10 -11 -3 -20l-129 -107q-12 -7 -18 1l-15 19q-7 8 -1 14l124 129q6 7 13 0zM470 746l30 -36q10 -11 -3 -20l-130 -107q-11 -7 -17 1l-16 19q-7 9 0 14l123 129q7 8 13 0zM299 -10q-113 0 -183 75.5t-70 196.5q0 123 71 200.5t183 77.5
q113 0 182.5 -77.5t69.5 -199.5q0 -121 -70 -197t-183 -76zM301 53q78 0 121.5 56.5t43.5 155.5q0 98 -44.5 155.5t-121.5 57.5q-78 0 -123 -57.5t-45 -155.5t45 -155t124 -57z" />
    <glyph glyph-name="OE" unicode="&#x152;" horiz-adv-x="1124" 
d="M1066 74q11 0 11 -10v-53q0 -11 -11 -11h-457q-9 0 -9 9v93q-65 -112 -225 -112q-145 0 -227.5 98.5t-82.5 278.5q0 183 84 284t230 101q154 0 221 -118v99q0 9 10 9h444q10 0 10 -11v-51q0 -12 -13 -12h-342q-13 0 -13 -12v-234q0 -11 11 -11h251q11 0 11 -11v-53
q0 -9 -10 -9h-252q-11 0 -11 -11v-243q0 -10 10 -10h360zM383 63q216 0 216 274v84q0 123 -56 190.5t-160 67.5q-218 0 -218 -311q0 -305 218 -305z" />
    <glyph glyph-name="oe" unicode="&#x153;" horiz-adv-x="997" 
d="M299 -10q-114 0 -183.5 75t-69.5 197q0 124 71 201t183 77q67 0 119 -30t82 -84q9 -12 16 0q30 54 81.5 84t115.5 30q112 0 177.5 -73t65.5 -201q0 -19 -18 -19h-373q-15 0 -15 -18q0 -73 50.5 -123.5t122.5 -50.5q101 0 157 82q5 7 14 3l42 -21q8 -6 1 -14
q-75 -115 -221 -115q-134 0 -201 108q-7 14 -18 -2q-65 -106 -199 -106zM717 480q-70 0 -117 -50t-46 -127l302 -1q11 0 14 2.5t3 11.5q0 67 -43.5 115.5t-112.5 48.5zM301 53q77 0 121 56.5t44 155.5q0 98 -45 155.5t-121 57.5q-77 0 -122.5 -57.5t-45.5 -155.5t45.5 -155
t123.5 -57z" />
    <glyph glyph-name="Racute" unicode="&#x154;" horiz-adv-x="696" 
d="M460 960l15 -45q4 -13 -10 -18l-229 -69q-12 -3 -16 8l-8 22q-3 11 5 14l232 93q7 4 11 -5zM627 19q3 -8 -0.5 -13.5t-10.5 -5.5h-73q-11 0 -16 12l-129 315q-6 12 -24 12h-169q-12 0 -12 -11v-312q0 -16 -17 -16h-65q-14 0 -14 13v715q0 14 12 14h279q119 0 184 -49
t65 -143q0 -79 -42.5 -127.5t-103.5 -66.5q-8 -2 -4 -10zM360 408q89 0 133 32t44 101q0 131 -154 131h-176q-14 0 -14 -11v-240q0 -13 9 -13h158z" />
    <glyph glyph-name="racute" unicode="&#x155;" horiz-adv-x="383" 
d="M330 748l15 -45q4 -13 -10 -18l-229 -69q-12 -3 -16 8l-8 22q-3 11 5 14l232 93q7 4 11 -5zM91 0q-14 0 -14 13v504q0 13 11 13h58q11 0 11 -11v-65q0 -6 3.5 -7t7.5 4q76 89 155 89q35 0 35 -13v-60q0 -9 -9 -8q-18 3 -45 3q-46 0 -94.5 -37t-48.5 -79v-331
q0 -15 -15 -15h-55z" />
    <glyph glyph-name="Rcommaaccent" unicode="&#x156;" horiz-adv-x="696" 
d="M627 19q3 -8 -0.5 -13.5t-10.5 -5.5h-73q-11 0 -16 12l-129 315q-6 12 -24 12h-169q-12 0 -12 -11v-312q0 -16 -17 -16h-65q-14 0 -14 13v715q0 14 12 14h279q119 0 184 -49t65 -143q0 -79 -42.5 -127.5t-103.5 -66.5q-8 -2 -4 -10zM360 408q89 0 133 32t44 101
q0 131 -154 131h-176q-14 0 -14 -11v-240q0 -13 9 -13h158zM316 -239q-4 0 -6 3.5t0 8.5l27 51q4 6 2 10.5t-7 4.5h-9q-12 0 -12 12v65q0 11 10 11h59q9 0 9 -9v-79q0 -2 -1 -5l-1 -3l-37 -62q-7 -8 -19 -8h-15z" />
    <glyph glyph-name="rcommaaccent" unicode="&#x157;" horiz-adv-x="383" 
d="M91 0q-14 0 -14 13v504q0 13 11 13h58q11 0 11 -11v-65q0 -6 3.5 -7t7.5 4q76 89 155 89q35 0 35 -13v-60q0 -9 -9 -8q-18 3 -45 3q-46 0 -94.5 -37t-48.5 -79v-331q0 -15 -15 -15h-55zM85 -239q-5 0 -6.5 3.5t0.5 8.5l27 51q4 6 2 10.5t-7 4.5h-9q-12 0 -12 12v65
q0 11 10 11h59q9 0 9 -9v-79q0 -2 -1 -5l-1 -3l-37 -62q-7 -8 -19 -8h-15z" />
    <glyph glyph-name="Rcaron" unicode="&#x158;" horiz-adv-x="696" 
d="M406 947q7 7 18 7h59q13 0 1 -12l-101 -93q-11 -9 -20 -9h-39q-13 0 -25 10l-102 92q-12 12 2 12h54q11 0 18 -7l58 -49q9 -9 11.5 -9t11.5 9zM627 19q3 -8 -0.5 -13.5t-10.5 -5.5h-73q-11 0 -16 12l-129 315q-6 12 -24 12h-169q-12 0 -12 -11v-312q0 -16 -17 -16h-65
q-14 0 -14 13v715q0 14 12 14h279q119 0 184 -49t65 -143q0 -79 -42.5 -127.5t-103.5 -66.5q-8 -2 -4 -10zM360 408q89 0 133 32t44 101q0 131 -154 131h-176q-14 0 -14 -11v-240q0 -13 9 -13h158z" />
    <glyph glyph-name="rcaron" unicode="&#x159;" horiz-adv-x="383" 
d="M276 735q7 7 18 7h59q13 0 1 -12l-101 -93q-11 -9 -20 -9h-39q-13 0 -25 10l-102 92q-12 12 2 12h54q11 0 18 -7l58 -49q9 -9 11.5 -9t11.5 9zM91 0q-14 0 -14 13v504q0 13 11 13h58q11 0 11 -11v-65q0 -6 3.5 -7t7.5 4q76 89 155 89q35 0 35 -13v-60q0 -9 -9 -8
q-18 3 -45 3q-46 0 -94.5 -37t-48.5 -79v-331q0 -15 -15 -15h-55z" />
    <glyph glyph-name="Sacute" unicode="&#x15a;" horiz-adv-x="641" 
d="M448 960l15 -45q4 -13 -10 -18l-229 -69q-12 -3 -16 8l-8 22q-3 11 5 14l232 93q7 4 11 -5zM498 604q-64 75 -170 75q-75 0 -118 -33t-43 -92q0 -78 107 -114l145 -48q167 -56 167 -196q0 -96 -71 -151t-194 -55q-184 0 -269 125q-9 13 6 24l36 25q15 11 25 0
q43 -55 85 -78t113 -23q177 0 177 123q0 39 -24.5 66.5t-88.5 51.5l-152 52q-79 27 -116.5 77.5t-37.5 111.5q0 94 69.5 150.5t183.5 56.5q146 0 234 -99q9 -11 0 -19l-46 -36q-7 -5 -18 6z" />
    <glyph glyph-name="sacute" unicode="&#x15b;" horiz-adv-x="512" 
d="M363 748l15 -45q4 -13 -10 -18l-229 -69q-12 -3 -16 8l-8 22q-3 11 5 14l232 93q8 4 11 -5zM395 413q-46 68 -142 68q-55 0 -90 -23.5t-35 -61.5q0 -49 81 -74l127 -38q130 -36 130 -138q0 -70 -61 -113t-155 -43q-77 0 -137 30.5t-85 79.5q-6 11 2 16l39 22q10 6 15 -1
q54 -86 167 -86q59 1 97.5 24.5t38.5 61.5q0 28 -23 47t-75 34l-103 29q-136 35 -136 134q-1 71 55.5 115t148.5 44q66 0 118.5 -25t80.5 -68q7 -10 -1 -14l-42 -23q-9 -5 -15 3z" />
    <glyph glyph-name="Scircumflex" unicode="&#x15c;" horiz-adv-x="641" 
d="M394 849l-54 50q-8 8 -11 8t-12 -8l-58 -50q-7 -6 -18 -6h-54q-14 0 -2 12l102 91q13 11 25 11h39q7 0 20 -10l101 -92q12 -12 -1 -12h-59q-11 0 -18 6zM498 604q-64 75 -170 75q-75 0 -118 -33t-43 -92q0 -78 107 -114l145 -48q167 -56 167 -196q0 -96 -71 -151
t-194 -55q-184 0 -269 125q-9 13 6 24l36 25q15 11 25 0q43 -55 85 -78t113 -23q177 0 177 123q0 39 -24.5 66.5t-88.5 51.5l-152 52q-79 27 -116.5 77.5t-37.5 111.5q0 94 69.5 150.5t183.5 56.5q146 0 234 -99q9 -11 0 -19l-46 -36q-7 -5 -18 6z" />
    <glyph glyph-name="scircumflex" unicode="&#x15d;" horiz-adv-x="512" 
d="M309 637l-54 50q-8 8 -11 8t-12 -8l-58 -50q-7 -6 -18 -6h-54q-14 0 -2 12l102 91q13 11 25 11h39q8 0 20 -10l101 -92q12 -12 -1 -12h-59q-11 0 -18 6zM395 413q-46 68 -142 68q-55 0 -90 -23.5t-35 -61.5q0 -49 81 -74l127 -38q130 -36 130 -138q0 -70 -61 -113
t-155 -43q-77 0 -137 30.5t-85 79.5q-6 11 2 16l39 22q10 6 15 -1q54 -86 167 -86q59 1 97.5 24.5t38.5 61.5q0 28 -23 47t-75 34l-103 29q-136 35 -136 134q-1 71 55.5 115t148.5 44q66 0 118.5 -25t80.5 -68q7 -10 -1 -14l-42 -23q-9 -5 -15 3z" />
    <glyph glyph-name="Scedilla" unicode="&#x15e;" horiz-adv-x="641" 
d="M352 -9l-17 -43q-3 -5 4 -5q44 -3 64 -24t20 -50q0 -37 -31.5 -58t-77.5 -21q-50 0 -88 22q-5 4 -4 9l11 26q3 5 9 2q28 -19 62 -19q57 0 57 38q0 43 -81 46q-8 0 -6 6l31 70q-172 6 -253 125q-9 13 6 24l36 25q15 11 25 0q43 -55 85 -78t113 -23q177 0 177 123
q0 39 -24.5 66.5t-88.5 51.5l-152 52q-79 27 -116.5 77.5t-37.5 111.5q0 94 69.5 150.5t183.5 56.5q146 0 234 -99q9 -11 0 -19l-46 -36q-7 -5 -18 6q-64 75 -170 75q-75 0 -118 -33t-43 -92q0 -78 107 -114l145 -48q167 -56 167 -196q0 -90 -62 -144t-172 -61z" />
    <glyph glyph-name="scedilla" unicode="&#x15f;" horiz-adv-x="512" 
d="M269 -9l-17 -43q-3 -5 4 -5q44 -3 64 -24t20 -50q0 -37 -31.5 -58t-77.5 -21q-50 0 -88 22q-5 4 -4 9l11 26q3 5 9 2q28 -19 62 -19q57 0 57 38q0 43 -81 46q-8 0 -6 6l31 71q-68 5 -119.5 35t-74.5 74q-6 11 2 16l39 22q10 6 15 -1q54 -86 167 -86q59 1 97.5 24.5
t38.5 61.5q0 28 -23 47t-75 34l-103 29q-136 35 -136 134q-1 71 55.5 115t148.5 44q66 0 118.5 -25t80.5 -68q7 -10 -1 -14l-42 -23q-9 -5 -15 3q-46 68 -142 68q-55 0 -90 -23.5t-35 -61.5q0 -49 81 -74l127 -38q130 -36 130 -138q0 -66 -55 -108t-142 -47z" />
    <glyph glyph-name="Scaron" unicode="&#x160;" horiz-adv-x="641" 
d="M394 947q7 7 18 7h59q13 0 1 -12l-101 -93q-11 -9 -20 -9h-39q-13 0 -25 10l-102 92q-12 12 2 12h54q11 0 18 -7l58 -49q9 -9 11.5 -9t11.5 9zM498 604q-64 75 -170 75q-75 0 -118 -33t-43 -92q0 -78 107 -114l145 -48q167 -56 167 -196q0 -96 -71 -151t-194 -55
q-184 0 -269 125q-9 13 6 24l36 25q15 11 25 0q43 -55 85 -78t113 -23q177 0 177 123q0 39 -24.5 66.5t-88.5 51.5l-152 52q-79 27 -116.5 77.5t-37.5 111.5q0 94 69.5 150.5t183.5 56.5q146 0 234 -99q9 -11 0 -19l-46 -36q-7 -5 -18 6z" />
    <glyph glyph-name="scaron" unicode="&#x161;" horiz-adv-x="512" 
d="M309 735q7 7 18 7h59q13 0 1 -12l-101 -93q-11 -9 -20 -9h-39q-13 0 -25 10l-102 92q-12 12 2 12h54q11 0 18 -7l58 -49q9 -9 11.5 -9t11.5 9zM395 413q-46 68 -142 68q-55 0 -90 -23.5t-35 -61.5q0 -49 81 -74l127 -38q130 -36 130 -138q0 -70 -61 -113t-155 -43
q-77 0 -137 30.5t-85 79.5q-6 11 2 16l39 22q10 6 15 -1q54 -86 167 -86q59 1 97.5 24.5t38.5 61.5q0 28 -23 47t-75 34l-103 29q-136 35 -136 134q-1 71 55.5 115t148.5 44q66 0 118.5 -25t80.5 -68q7 -10 -1 -14l-42 -23q-9 -5 -15 3z" />
    <glyph glyph-name="uni0162" unicode="&#x162;" horiz-adv-x="645" 
d="M592 742q12 0 12 -11v-52q0 -10 -12 -10h-203q-11 0 -11 -10v-646q0 -13 -12 -13h-11l-21 -52q-3 -5 4 -5q44 -3 64 -24t20 -50q0 -37 -31.5 -58t-77.5 -21q-50 0 -88 22q-5 4 -4 9l11 26q3 5 9 2q28 -19 62 -19q57 0 57 38q0 43 -81 46q-8 0 -6 6l35 80h-14
q-12 0 -12 13v645q0 11 -10 11h-218q-12 0 -12 10v52q0 11 12 11h538z" />
    <glyph glyph-name="uni0163" unicode="&#x163;" horiz-adv-x="387" 
d="M217 468q-8 0 -8 -9v-317q0 -45 15 -62t49 -17h69q11 0 11 -11l-1 -34q0 -10 -12 -13q-14 -3 -75 -5l-21 -52q-3 -5 4 -5q44 -3 64 -24t20 -50q0 -37 -31.5 -58t-77.5 -21q-50 0 -88 22q-5 4 -4 9l11 26q3 5 9 2q28 -19 62 -19q57 0 57 38q0 43 -81 46q-8 0 -6 6l36 82
q-49 6 -71.5 35.5t-22.5 85.5v334q0 11 -10 11h-80q-11 0 -11 10v42q0 10 10 10h85q7 0 7 8l11 159q0 13 11 13h50q12 0 12 -14v-158q0 -8 8 -8h126q11 0 11 -9v-43q0 -10 -11 -10h-127z" />
    <glyph glyph-name="Tcaron" unicode="&#x164;" horiz-adv-x="645" 
d="M396 947q7 7 18 7h59q13 0 1 -12l-101 -93q-11 -9 -20 -9h-39q-13 0 -25 10l-102 92q-12 12 2 12h54q11 0 18 -7l58 -49q9 -9 11.5 -9t11.5 9zM42 679v52q0 11 12 11h538q12 0 12 -11v-52q0 -10 -12 -10h-203q-11 0 -11 -10v-646q0 -13 -12 -13h-72q-12 0 -12 13v645
q0 11 -10 11h-218q-12 0 -12 10z" />
    <glyph glyph-name="tcaron" unicode="&#x165;" horiz-adv-x="387" 
d="M297 577q-9 0 -7 10l30 72q4 11 -4 12l-7 1q-10 1 -10 11v80q0 9 8 9h58q7 0 7 -8v-92q0 -3 -2 -5l-34 -80q-4 -10 -18 -10h-21zM344 468h-127q-8 0 -8 -9v-317q0 -45 15 -62t49 -17h69q11 0 11 -11l-1 -34q0 -10 -12 -13q-26 -5 -94 -5q-63 0 -92 29.5t-29 93.5v334
q0 11 -10 11h-80q-11 0 -11 10v42q0 10 10 10h85q7 0 7 8l11 159q0 13 11 13h50q12 0 12 -14v-158q0 -8 8 -8h126q11 0 11 -9v-43q0 -10 -11 -10z" />
    <glyph glyph-name="Tbar" unicode="&#x166;" horiz-adv-x="645" 
d="M592 742q12 0 12 -11v-52q0 -10 -12 -10h-203q-11 0 -11 -10v-251h130q10 0 10 -12v-42q0 -16 -19 -16h-121v-325q0 -13 -12 -13h-72q-12 0 -12 13v325h-136q-14 0 -14 14v43q0 13 10 13h140v250q0 11 -10 11h-218q-12 0 -12 10v52q0 11 12 11h538z" />
    <glyph glyph-name="tbar" unicode="&#x167;" horiz-adv-x="387" 
d="M217 468q-8 0 -8 -9v-138h93q8 0 8 -9v-33q0 -12 -15 -12h-86v-125q0 -45 15 -62t49 -17h69q11 0 11 -11l-1 -34q0 -10 -12 -13q-26 -5 -94 -5q-63 0 -92 29.5t-29 93.5v144h-72q-11 0 -11 11v33q0 10 8 10h75v136q0 11 -10 11h-80q-11 0 -11 10v42q0 10 10 10h85
q7 0 7 8l11 159q0 13 11 13h50q12 0 12 -14v-158q0 -8 8 -8h126q11 0 11 -9v-43q0 -10 -11 -10h-127z" />
    <glyph glyph-name="Utilde" unicode="&#x168;" horiz-adv-x="709" 
d="M503 889q-37 -22 -76 -22q-28 0 -66.5 13t-60.5 13q-24 0 -60 -21q-10 -6 -14 5l-10 27q-3 9 4 14q39 30 76 30q25 0 67.5 -14t64.5 -14q26 0 57 20q12 7 16 -5l10 -31q3 -8 -8 -15zM622 247q0 -257 -267 -257q-139 0 -203 67t-64 207v464q0 14 11 14h72q12 0 12 -13
v-486q0 -179 178 -179q180 0 180 182v483q0 13 11 13h59q11 0 11 -12v-483z" />
    <glyph glyph-name="utilde" unicode="&#x169;" horiz-adv-x="579" 
d="M418 677q-37 -22 -76 -22q-28 0 -66.5 13t-60.5 13q-24 0 -60 -21q-10 -6 -14 5l-10 27q-3 9 4 14q39 30 76 30q25 0 67.5 -14t64.5 -14q26 0 57 20q12 7 16 -5l10 -31q3 -8 -8 -15zM257 56q76 0 161 87v373q0 14 16 14h55q14 0 14 -14l-2 -503q0 -13 -11 -13h-58
q-11 0 -11 11v59q0 12 -9 3q-97 -83 -182 -83q-70 0 -115 42t-45 111v372q0 15 15 15h56q13 0 13 -14v-351q0 -50 27.5 -79.5t75.5 -29.5z" />
    <glyph glyph-name="Umacron" unicode="&#x16a;" horiz-adv-x="709" 
d="M510 930v-39q0 -13 -15 -13h-270q-11 0 -11 12v39q0 11 8 11h280q8 0 8 -10zM622 247q0 -257 -267 -257q-139 0 -203 67t-64 207v464q0 14 11 14h72q12 0 12 -13v-486q0 -179 178 -179q180 0 180 182v483q0 13 11 13h59q11 0 11 -12v-483z" />
    <glyph glyph-name="umacron" unicode="&#x16b;" horiz-adv-x="579" 
d="M425 718v-39q0 -13 -15 -13h-270q-11 0 -11 12v39q0 11 8 11h280q8 0 8 -10zM257 56q76 0 161 87v373q0 14 16 14h55q14 0 14 -14l-2 -503q0 -13 -11 -13h-58q-11 0 -11 11v59q0 12 -9 3q-97 -83 -182 -83q-70 0 -115 42t-45 111v372q0 15 15 15h56q13 0 13 -14v-351
q0 -50 27.5 -79.5t75.5 -29.5z" />
    <glyph glyph-name="Ubreve" unicode="&#x16c;" horiz-adv-x="709" 
d="M501 954q12 0 9 -11q-13 -40 -52.5 -68.5t-96.5 -28.5t-95.5 28t-50.5 70q-3 10 6 10h46q10 0 16 -9q33 -44 78 -44q53 0 81 45q5 8 12 8h47zM622 247q0 -257 -267 -257q-139 0 -203 67t-64 207v464q0 14 11 14h72q12 0 12 -13v-486q0 -179 178 -179q180 0 180 182v483
q0 13 11 13h59q11 0 11 -12v-483z" />
    <glyph glyph-name="ubreve" unicode="&#x16d;" horiz-adv-x="579" 
d="M416 742q12 0 9 -11q-13 -40 -52.5 -68.5t-96.5 -28.5t-95.5 28t-50.5 70q-2 10 6 10h46q10 0 16 -9q33 -44 78 -44q53 0 81 45q5 8 12 8h47zM257 56q76 0 161 87v373q0 14 16 14h55q14 0 14 -14l-2 -503q0 -13 -11 -13h-58q-11 0 -11 11v59q0 12 -9 3q-97 -83 -182 -83
q-70 0 -115 42t-45 111v372q0 15 15 15h56q13 0 13 -14v-351q0 -50 27.5 -79.5t75.5 -29.5z" />
    <glyph glyph-name="Uring" unicode="&#x16e;" horiz-adv-x="709" 
d="M469 858q0 -45 -30 -75t-74 -30t-74.5 30.5t-30.5 76.5q0 42 30.5 71.5t74.5 29.5q43 0 73.5 -30t30.5 -73zM419 857q0 25 -15.5 40.5t-39.5 15.5q-23 0 -40 -16t-17 -40q0 -22 17 -39t40 -17t39 16.5t16 39.5zM622 247q0 -257 -267 -257q-139 0 -203 67t-64 207v464
q0 14 11 14h72q12 0 12 -13v-486q0 -179 178 -179q180 0 180 182v483q0 13 11 13h59q11 0 11 -12v-483z" />
    <glyph glyph-name="uring" unicode="&#x16f;" horiz-adv-x="579" 
d="M381 698q0 -45 -30 -75t-74 -30t-74.5 30.5t-30.5 76.5q0 42 30.5 71.5t74.5 29.5q43 0 73.5 -30t30.5 -73zM331 697q0 25 -15.5 40.5t-39.5 15.5q-23 0 -40 -16t-17 -40q0 -22 17 -39t40 -17t39 16.5t16 39.5zM257 56q76 0 161 87v373q0 14 16 14h55q14 0 14 -14
l-2 -503q0 -13 -11 -13h-58q-11 0 -11 11v59q0 12 -9 3q-97 -83 -182 -83q-70 0 -115 42t-45 111v372q0 15 15 15h56q13 0 13 -14v-351q0 -50 27.5 -79.5t75.5 -29.5z" />
    <glyph glyph-name="Uhungarumlaut" unicode="&#x170;" horiz-adv-x="709" 
d="M369 958l29 -36q10 -11 -3 -20l-129 -107q-12 -7 -18 1l-15 19q-7 8 -1 14l124 129q6 7 13 0zM531 958l30 -36q10 -11 -3 -20l-130 -107q-11 -7 -17 1l-16 19q-7 9 0 14l123 129q7 8 13 0zM622 247q0 -257 -267 -257q-139 0 -203 67t-64 207v464q0 14 11 14h72
q12 0 12 -13v-486q0 -179 178 -179q180 0 180 182v483q0 13 11 13h59q11 0 11 -12v-483z" />
    <glyph glyph-name="uhungarumlaut" unicode="&#x171;" horiz-adv-x="579" 
d="M284 746l29 -36q10 -11 -3 -20l-129 -107q-12 -7 -18 1l-15 19q-7 8 -1 14l124 129q6 7 13 0zM446 746l30 -36q10 -11 -3 -20l-130 -107q-11 -7 -17 1l-16 19q-7 9 0 14l123 129q7 8 13 0zM257 56q76 0 161 87v373q0 14 16 14h55q14 0 14 -14l-2 -503q0 -13 -11 -13h-58
q-11 0 -11 11v59q0 12 -9 3q-97 -83 -182 -83q-70 0 -115 42t-45 111v372q0 15 15 15h56q13 0 13 -14v-351q0 -50 27.5 -79.5t75.5 -29.5z" />
    <glyph glyph-name="Uogonek" unicode="&#x172;" horiz-adv-x="709" 
d="M611 742q11 0 11 -12v-483q0 -214 -184 -250q-48 -21 -68.5 -39.5t-20.5 -42.5q0 -38 50 -38q38 0 62 13q11 6 11 -5v-29q0 -6 -6 -11q-34 -17 -87 -17q-49 0 -74.5 21.5t-25.5 59.5q0 52 60 81q-131 4 -191 71t-60 203v464q0 14 11 14h72q12 0 12 -13v-486
q0 -179 178 -179q180 0 180 182v483q0 13 11 13h59z" />
    <glyph glyph-name="uogonek" unicode="&#x173;" horiz-adv-x="579" 
d="M512 -107q11 5 11 -5v-29q0 -7 -6 -11q-34 -17 -87 -17q-49 0 -74.5 21.5t-25.5 59.5q0 63 91 94v5v59q0 12 -9 3q-97 -83 -182 -83q-70 0 -115 42t-45 111v372q0 15 15 15h56q13 0 13 -14v-351q0 -50 27.5 -79.5t75.5 -29.5q76 0 161 87v373q0 14 16 14h55q14 0 14 -14
l-2 -503q0 -13 -11 -13h-1q-48 -20 -68.5 -39t-20.5 -43q0 -38 50 -38q38 0 62 13z" />
    <glyph glyph-name="Wcircumflex" unicode="&#x174;" horiz-adv-x="1045" 
d="M590 849l-54 50q-8 8 -11 8t-12 -8l-58 -50q-7 -6 -18 -6h-54q-14 0 -2 12l102 91q13 11 25 11h39q7 0 20 -10l101 -92q12 -12 -1 -12h-59q-11 0 -18 6zM985 742q18 0 14 -18l-206 -709q-4 -15 -22 -15h-61q-19 0 -23 14l-160 567q-3 11 -7 -1l-162 -565q-4 -15 -22 -15
h-62q-19 0 -23 14l-203 710q-5 18 14 18h64q14 0 17 -12l163 -582q2 -7 4 -9.5t4.5 0t3.5 8.5l166 584q4 11 18 11h57q13 0 18 -12l164 -585q5 -20 12 0l165 586q2 11 17 11h50z" />
    <glyph glyph-name="wcircumflex" unicode="&#x175;" horiz-adv-x="796" 
d="M466 637l-54 50q-8 8 -11 8t-12 -8l-58 -50q-7 -6 -18 -6h-54q-14 0 -2 12l102 91q13 11 25 11h39q7 0 20 -10l101 -92q12 -12 -1 -12h-59q-11 0 -18 6zM755 530q6 0 9 -4.5t1 -9.5l-153 -503q-4 -13 -19 -13h-48q-17 0 -21 13l-119 374q-7 17 -12 0l-113 -374
q-4 -13 -19 -13h-51q-17 0 -21 13l-157 502q-2 6 1 10.5t10 4.5h59q11 0 16 -11l119 -389q7 -22 15 1l118 389q3 10 14 10h47q12 0 15 -11l123 -389q2 -6 4.5 -8.5t5 0t4.5 9.5l115 388q5 11 17 11h40z" />
    <glyph glyph-name="Ycircumflex" unicode="&#x176;" horiz-adv-x="675" 
d="M403 849l-54 50q-8 8 -11 8t-12 -8l-58 -50q-7 -6 -18 -6h-54q-14 0 -2 12l102 91q13 11 25 11h39q8 0 20 -10l101 -92q12 -12 -1 -12h-59q-11 0 -18 6zM624 742q7 0 9.5 -4t-1.5 -10l-238 -398q-6 -10 -6 -33v-280q0 -17 -19 -17h-60q-16 0 -16 15v278q0 14 -8 27
l-241 406q-5 7 -2 11.5t13 4.5h72q13 0 21 -12l186 -320q11 -20 22 -2l185 322q6 12 21 12h62z" />
    <glyph glyph-name="ycircumflex" unicode="&#x177;" horiz-adv-x="530" 
d="M340 637l-54 50q-8 8 -11 8t-12 -8l-58 -50q-7 -6 -18 -6h-54q-14 0 -2 12l102 91q13 11 25 11h39q7 0 20 -10l101 -92q12 -12 -1 -12h-59q-11 0 -18 6zM106 -165h-26.5t-18 1.5t-13 4t-3.5 7.5v39q0 13 28 13h63q42 0 69.5 49.5t13.5 85.5l-191 478q-6 17 11 17h62
q11 0 16 -11l149 -388q9 -21 18 3l147 385q5 11 14 11h47q6 0 9 -4.5t1 -9.5l-220 -563q-27 -68 -67 -93t-109 -25z" />
    <glyph glyph-name="Ydieresis" unicode="&#x178;" horiz-adv-x="675" 
d="M306 942v-83q0 -15 -16 -15h-53q-14 0 -14 13v84q0 13 11 13h61q11 0 11 -12zM453 942v-83q0 -9 -3.5 -12t-13.5 -3h-52q-15 0 -15 13v84q0 13 11 13h62q11 0 11 -12zM624 742q7 0 9.5 -4t-1.5 -10l-238 -398q-6 -10 -6 -33v-280q0 -17 -19 -17h-60q-16 0 -16 15v278
q0 14 -8 27l-241 406q-5 7 -2 11.5t13 4.5h72q13 0 21 -12l186 -320q11 -20 22 -2l185 322q6 12 21 12h62z" />
    <glyph glyph-name="Zacute" unicode="&#x179;" horiz-adv-x="631" 
d="M442 960l15 -45q4 -13 -10 -18l-229 -69q-12 -3 -16 8l-8 22q-3 11 5 14l232 93q7 4 11 -5zM60 0q-13 0 -13 12v23q0 11 11 27l389 596q6 10 -5 10h-368q-11 0 -11 11v53q0 10 10 10h500q9 0 9 -10v-26q0 -9 -8 -20l-395 -602q-7 -9 4 -9h387q11 0 11 -9v-55
q0 -11 -12 -11h-509z" />
    <glyph glyph-name="zacute" unicode="&#x17a;" horiz-adv-x="482" 
d="M372 748l15 -45q4 -13 -10 -18l-229 -69q-12 -3 -16 8l-8 22q-3 11 5 14l232 93q7 4 11 -5zM43 0q-12 0 -12 12v29q0 13 12 29l291 391q7 10 -5 10h-265q-11 0 -11 11v37q0 11 10 11h370q9 0 9 -10v-32q0 -13 -10 -26l-292 -392q-9 -11 3 -11h294q11 0 11 -9v-38
q0 -12 -13 -12h-392z" />
    <glyph glyph-name="Zdotaccent" unicode="&#x17b;" horiz-adv-x="631" 
d="M368 941v-88q0 -16 -18 -16h-58q-15 0 -15 14v89q0 14 12 14h68q11 0 11 -13zM60 0q-13 0 -13 12v23q0 11 11 27l389 596q6 10 -5 10h-368q-11 0 -11 11v53q0 10 10 10h500q9 0 9 -10v-26q0 -9 -8 -20l-395 -602q-7 -9 4 -9h387q11 0 11 -9v-55q0 -11 -12 -11h-509z" />
    <glyph glyph-name="zdotaccent" unicode="&#x17c;" horiz-adv-x="482" 
d="M298 729v-88q0 -16 -18 -16h-58q-15 0 -15 14v89q0 14 12 14h68q11 0 11 -13zM43 0q-12 0 -12 12v29q0 13 12 29l291 391q7 10 -5 10h-265q-11 0 -11 11v37q0 11 10 11h370q9 0 9 -10v-32q0 -13 -10 -26l-292 -392q-9 -11 3 -11h294q11 0 11 -9v-38q0 -12 -13 -12h-392z
" />
    <glyph glyph-name="Zcaron" unicode="&#x17d;" horiz-adv-x="631" 
d="M388 947q7 7 18 7h59q13 0 1 -12l-101 -93q-11 -9 -20 -9h-39q-13 0 -25 10l-102 92q-12 12 2 12h54q11 0 18 -7l58 -49q9 -9 11.5 -9t11.5 9zM60 0q-13 0 -13 12v23q0 11 11 27l389 596q6 10 -5 10h-368q-11 0 -11 11v53q0 10 10 10h500q9 0 9 -10v-26q0 -9 -8 -20
l-395 -602q-7 -9 4 -9h387q11 0 11 -9v-55q0 -11 -12 -11h-509z" />
    <glyph glyph-name="zcaron" unicode="&#x17e;" horiz-adv-x="482" 
d="M318 735q7 7 18 7h59q13 0 1 -12l-101 -93q-11 -9 -20 -9h-39q-13 0 -25 10l-102 92q-12 12 2 12h54q11 0 18 -7l58 -49q9 -9 11.5 -9t11.5 9zM43 0q-12 0 -12 12v29q0 13 12 29l291 391q7 10 -5 10h-265q-11 0 -11 11v37q0 11 10 11h370q9 0 9 -10v-32q0 -13 -10 -26
l-292 -392q-9 -11 3 -11h294q11 0 11 -9v-38q0 -12 -13 -12h-392z" />
    <glyph glyph-name="uni018F" unicode="&#x18f;" horiz-adv-x="763" 
d="M594 403q0 35 -4 67.5t-17.5 71t-35.5 66t-62 46.5t-93 19q-48 0 -84.5 -13.5t-58.5 -39t-34.5 -45.5t-23.5 -49t-14 -35q-3 -4 -12 0l-66 28q-8 4 -2 15q37 81 69 118q84 99 225 100q70 0 126 -22.5t91 -59.5t58 -88t32.5 -103t9.5 -109q0 -102 -32.5 -186t-106 -139
t-178.5 -55q-85 0 -148 30t-98.5 84t-52.5 121t-17 150q0 7 0.5 9.5t3 5t8.5 2.5h507q10 0 10 11zM593 323h-412q-11 0 -11 -9q0 -48 10.5 -90t33.5 -79.5t65.5 -59t100.5 -21.5q203 0 213 259z" />
    <glyph glyph-name="florin" unicode="&#x192;" horiz-adv-x="447" 
d="M368 530q11 0 9 -10l-7 -43q-3 -9 -13 -9h-114q-7 0 -9 -9l-87 -497q-11 -64 -48.5 -98.5t-100.5 -34.5h-68q-14 0 -12 14l6 37q2 10 11 10l50 1q36 0 54 18t26 63l85 488q2 8 -6 8h-69q-9 0 -8 9l8 43q0 10 13 10h66q9 0 10 10l13 73q10 63 48.5 96t99.5 33h83
q12 0 10 -12l-6 -39q-2 -10 -13 -10h-65q-28 0 -49 -20.5t-27 -54.5l-11 -67q-3 -9 7 -9h114z" />
    <glyph glyph-name="Ohorn" unicode="&#x1a0;" horiz-adv-x="764" 
d="M545 711q74 -44 114 -131.5t40 -210.5q0 -180 -84 -279.5t-233 -99.5t-233 99t-84 279q0 182 85 283t233 101q48 0 85 -10q52 3 74 54q3 6 15 6h43q13 0 8 -16q-19 -48 -63 -75zM384 63q215 0 215 305q0 311 -216 311q-218 0 -218 -311q0 -305 219 -305z" />
    <glyph glyph-name="ohorn" unicode="&#x1a1;" 
d="M444 497q51 -36 79.5 -97t28.5 -137q0 -121 -70 -197t-183 -76t-183 75.5t-70 196.5q0 123 71 200.5t183 77.5q40 0 73 -10q52 4 71 54q3 6 15 6h43q13 0 8 -16q-21 -50 -66 -77zM301 53q78 0 121.5 56.5t43.5 155.5q0 98 -44.5 155.5t-121.5 57.5q-78 0 -123 -57.5
t-45 -155.5t45 -155t124 -57z" />
    <glyph glyph-name="Uhorn" unicode="&#x1af;" horiz-adv-x="709" 
d="M718 802q13 0 8 -16q-30 -72 -104 -93v-446q0 -257 -267 -257q-139 0 -203 67t-64 207v464q0 14 11 14h72q12 0 12 -13v-486q0 -179 178 -179q180 0 180 182v483q0 13 11 13h30q56 0 78 54q3 6 15 6h43z" />
    <glyph glyph-name="uhorn" unicode="&#x1b0;" horiz-adv-x="579" 
d="M600 590q13 0 8 -16q-30 -74 -105 -93l-2 -468q0 -13 -11 -13h-58q-11 0 -11 11v59q0 12 -9 3q-97 -83 -182 -83q-70 0 -115 42t-45 111v372q0 15 15 15h56q13 0 13 -14v-351q0 -50 27.5 -79.5t75.5 -29.5q76 0 161 87v373q0 14 16 14h30q56 0 78 54q3 6 15 6h43z" />
    <glyph glyph-name="uni01EA" unicode="&#x1ea;" horiz-adv-x="764" 
d="M464 -1q-50 -21 -71.5 -40.5t-21.5 -43.5q0 -38 50 -38q38 0 62 13q11 6 11 -5v-29q0 -6 -6 -11q-34 -17 -87 -17q-49 0 -74.5 21.5t-25.5 59.5q0 51 60 82q-139 7 -217.5 105.5t-78.5 271.5q0 182 85 283t233 101q147 0 231.5 -100.5t84.5 -282.5q0 -153 -61.5 -248.5
t-173.5 -121.5zM165 368q0 -305 219 -305q215 0 215 305q0 311 -216 311q-218 0 -218 -311z" />
    <glyph glyph-name="uni01EB" unicode="&#x1eb;" 
d="M368 -2q-48 -21 -69 -39.5t-21 -42.5q0 -38 50 -38q38 0 62 13q11 5 11 -5v-29q0 -7 -6 -11q-34 -17 -87 -17q-49 0 -74.5 21.5t-25.5 59.5q0 51 60 82q-101 11 -161.5 84.5t-60.5 185.5q0 123 71 200.5t183 77.5q113 0 182.5 -77.5t69.5 -199.5q0 -100 -50 -171.5
t-134 -93.5zM132 265q0 -98 45 -155t124 -57q78 0 121.5 56.5t43.5 155.5q0 98 -44.5 155.5t-121.5 57.5q-78 0 -123 -57.5t-45 -155.5z" />
    <glyph glyph-name="Aringacute" unicode="&#x1fa;" horiz-adv-x="657" 
d="M631 17q6 -17 -9 -17h-74q-11 0 -15 10l-65 194q-3 8 -11 8h-270q-8 0 -11 -8l-67 -195q-3 -9 -14 -9h-58q-6 0 -9 5t0 12l240 702q-41 30 -41 83q0 36 24.5 63.5t61.5 33.5l11 47q4 18 24 18h29q18 0 11 -20l-22 -50q30 -11 48.5 -36.5t18.5 -57.5q0 -50 -40 -80z
M329 855q-23 0 -39.5 -16t-16.5 -40q0 -22 17 -39t39 -17q23 0 39 17t16 39q0 25 -16 40.5t-39 15.5zM432 288q11 0 8 13l-111 329q-3 9 -7 9t-7 -9l-112 -331q-4 -11 6 -11h223z" />
    <glyph glyph-name="aringacute" unicode="&#x1fb;" horiz-adv-x="548" 
d="M395 954l15 -45q4 -13 -10 -18l-229 -69q-12 -3 -16 8l-8 22q-3 11 5 14l232 93q8 4 11 -5zM398 686q0 -45 -30 -75t-74 -30t-74.5 30.5t-30.5 76.5q0 42 30.5 71.5t74.5 29.5q43 0 73.5 -30t30.5 -73zM348 685q0 25 -16 40.5t-39 15.5t-40 -16t-17 -40q0 -22 17 -39
t40 -17t39 16.5t16 39.5zM382 64q-77 -74 -178 -74q-77 0 -122 39.5t-45 105.5q0 79 68 125.5t196 54.5l78 6q16 2 16 15v27q0 54 -33.5 85.5t-90.5 31.5q-88 0 -143 -80q-7 -9 -15 -6l-54 18q-8 3 -2 16q63 112 218 112q97 0 149 -45.5t52 -125.5v-354q0 -15 -13 -15h-51
q-12 0 -14 16l-1 46q-3 14 -15 2zM395 254q0 16 -14 16l-66 -6q-194 -13 -194 -119q0 -43 30.5 -68t82.5 -25q62 0 113 41q48 38 48 78v83z" />
    <glyph glyph-name="AEacute" unicode="&#x1fc;" horiz-adv-x="1008" 
d="M811 960l15 -45q4 -13 -10 -18l-229 -69q-12 -3 -16 8l-8 22q-3 11 5 14l232 93q8 4 11 -5zM949 74q12 0 12 -10v-53q0 -11 -11 -11h-437q-14 0 -14 14v191q0 7 -8 7h-239q-9 0 -13 -8l-110 -195q-5 -9 -16 -9h-60q-6 0 -8 5t2 12l397 711q7 14 22 14h472q10 0 10 -11
v-51q0 -12 -13 -12h-328q-13 0 -13 -12v-234q0 -11 12 -11h244q11 0 11 -11v-53q0 -9 -11 -9h-245q-11 0 -11 -11v-243q0 -10 10 -10h345zM488 288q11 0 11 12v339q0 8 -3.5 11.5t-8.5 0.5t-10 -12l-194 -340q-7 -11 4 -11h201z" />
    <glyph glyph-name="aeacute" unicode="&#x1fd;" horiz-adv-x="923" 
d="M570 748l15 -45q4 -13 -10 -18l-229 -69q-12 -3 -16 8l-8 22q-3 11 5 14l232 93q7 4 11 -5zM495 246q-11 0 -15 -4.5t-4 -17.5q0 -66 51 -118t122 -52q57 0 91.5 22t66.5 61q6 6 14 3l41 -21q8 -5 1 -14q-69 -115 -223 -115q-123 0 -205 108q-3 4 -7 0q-27 -31 -51 -51.5
t-70 -38.5t-102 -18q-80 0 -124 39.5t-44 108.5q0 76 63 121.5t189 54.5l88 7q18 2 18 15v27q0 55 -33 86t-95 31q-84 0 -140 -80q-6 -10 -16 -6l-52 18q-8 4 -2 16q65 112 217 112q141 0 178 -97q62 97 190 97q109 0 174.5 -71.5t65.5 -199.5q0 -22 -18 -22zM642 480
q-70 0 -116.5 -48.5t-47.5 -128.5l303 -1q11 0 14 3t3 12q0 66 -44 114.5t-112 48.5zM395 252q0 15 -16 15l-73 -6q-184 -14 -184 -118q0 -44 30 -69t82 -23q66 2 113.5 37.5t47.5 83.5v80z" />
    <glyph glyph-name="Oslashacute" unicode="&#x1fe;" horiz-adv-x="729" 
d="M484 960l15 -45q4 -13 -10 -18l-229 -69q-12 -3 -16 8l-8 22q-3 11 5 14l232 93q7 4 11 -5zM709 716q8 -8 1 -16l-83 -92q55 -93 55 -239q0 -180 -84.5 -279.5t-232.5 -99.5q-138 0 -221 86l-68 -76q-12 -13 -26 -2l-23 23q-12 12 -4 21l80 88q-55 93 -55 238
q0 182 85 283t233 101q137 0 220 -89l72 81q10 10 18 3zM150 368q0 -98 27 -161l349 394q-52 77 -160 77q-216 0 -216 -310zM579 368q0 103 -27 163l-348 -392q53 -75 162 -75q108 0 160.5 74t52.5 230z" />
    <glyph glyph-name="oslashacute" unicode="&#x1ff;" horiz-adv-x="583" 
d="M171 624l-8 22q-3 11 5 14l232 93q8 4 11 -5l15 -45q4 -13 -10 -18l-229 -69q-12 -3 -16 8zM559 505q8 -10 0 -18l-55 -54q47 -71 47 -170q0 -121 -70 -197t-183 -76q-110 0 -179 71l-56 -55q-13 -13 -24 0l-13 14q-12 13 0 24l61 59q-42 67 -42 159q0 123 71 200.5
t183 77.5q103 0 171 -66l50 49q12 12 20 1zM131 265q0 -58 17 -103l270 262q-45 54 -119 54q-78 0 -123 -57.5t-45 -155.5zM465 265q0 64 -20 112l-271 -264q45 -60 126 -60q78 0 121.5 56.5t43.5 155.5z" />
    <glyph glyph-name="uni0200" unicode="&#x200;" horiz-adv-x="727" 
d="M186 958q7 7 13 0l124 -129q6 -6 -1 -14l-16 -19q-6 -8 -17 -1l-130 107q-13 9 -3 20zM348 958q6 8 13 0l123 -129q7 -6 -1 -14l-15 -19q-6 -8 -18 -1l-129 107q-13 9 -3 20zM55 0q-15 0 -9 17l259 711q6 14 20 14h78q19 0 23 -15l256 -710q4 -17 -10 -17h-71
q-12 0 -16 10l-69 194q-3 8 -12 8h-291q-9 0 -12 -8l-71 -195q-3 -9 -15 -9h-60zM236 288h242q11 0 8 13l-120 329q-8 19 -14 0l-122 -331q-6 -11 6 -11z" />
    <glyph glyph-name="uni0201" unicode="&#x201;" horiz-adv-x="548" 
d="M96 746q7 7 13 0l124 -129q6 -6 -1 -14l-16 -19q-6 -8 -17 -1l-130 107q-13 9 -3 20zM258 746q6 8 13 0l123 -129q7 -6 -1 -14l-15 -19q-6 -8 -18 -1l-129 107q-13 9 -3 20zM382 64q-77 -74 -178 -74q-77 0 -122 39.5t-45 105.5q0 79 68 125.5t196 54.5l78 6q16 2 16 15
v27q0 54 -33.5 85.5t-90.5 31.5q-88 0 -143 -80q-7 -9 -15 -6l-54 18q-8 3 -2 16q63 112 218 112q97 0 149 -45.5t52 -125.5v-354q0 -15 -13 -15h-51q-12 0 -14 16l-1 46q-3 14 -15 2zM395 254q0 16 -14 16l-66 -6q-194 -13 -194 -119q0 -43 30.5 -68t82.5 -25q62 0 113 41
q48 38 48 78v83z" />
    <glyph glyph-name="uni0202" unicode="&#x202;" horiz-adv-x="727" 
d="M500 852h-47q-7 0 -12 8q-28 45 -81 45q-45 0 -78 -44q-6 -9 -16 -9h-46q-8 0 -6 10q12 42 50.5 70t95.5 28t96.5 -28.5t52.5 -68.5q3 -11 -9 -11zM55 0q-15 0 -9 17l259 711q6 14 20 14h78q19 0 23 -15l256 -710q4 -17 -10 -17h-71q-12 0 -16 10l-69 194q-3 8 -12 8
h-291q-9 0 -12 -8l-71 -195q-3 -9 -15 -9h-60zM236 288h242q11 0 8 13l-120 329q-8 19 -14 0l-122 -331q-6 -11 6 -11z" />
    <glyph glyph-name="uni0203" unicode="&#x203;" horiz-adv-x="548" 
d="M410 640h-47q-7 0 -12 8q-28 45 -81 45q-45 0 -78 -44q-6 -9 -16 -9h-46q-8 0 -6 10q12 42 50.5 70t95.5 28t96.5 -28.5t52.5 -68.5q3 -11 -9 -11zM382 64q-77 -74 -178 -74q-77 0 -122 39.5t-45 105.5q0 79 68 125.5t196 54.5l78 6q16 2 16 15v27q0 54 -33.5 85.5
t-90.5 31.5q-88 0 -143 -80q-7 -9 -15 -6l-54 18q-8 3 -2 16q63 112 218 112q97 0 149 -45.5t52 -125.5v-354q0 -15 -13 -15h-51q-12 0 -14 16l-1 46q-3 14 -15 2zM395 254q0 16 -14 16l-66 -6q-194 -13 -194 -119q0 -43 30.5 -68t82.5 -25q62 0 113 41q48 38 48 78v83z" />
    <glyph glyph-name="uni0204" unicode="&#x204;" horiz-adv-x="628" 
d="M167 958q7 7 13 0l124 -129q6 -6 -1 -14l-16 -19q-6 -8 -17 -1l-130 107q-13 9 -3 20zM329 958q6 8 13 0l123 -129q7 -6 -1 -14l-15 -19q-6 -8 -18 -1l-129 107q-13 9 -3 20zM97 728q0 14 12 14h449q10 0 10 -11v-51q0 -12 -13 -12h-349q-13 0 -13 -12v-234q0 -11 11 -11
h259q11 0 11 -11v-53q0 -9 -11 -9h-259q-11 0 -11 -11v-243q0 -10 10 -10h367q11 0 11 -10v-53q0 -11 -11 -11h-459q-14 0 -14 14v714z" />
    <glyph glyph-name="uni0205" unicode="&#x205;" horiz-adv-x="581" 
d="M122 746q7 7 13 0l124 -129q6 -6 -1 -14l-16 -19q-6 -8 -17 -1l-130 107q-13 9 -3 20zM284 746q6 8 13 0l123 -129q7 -6 -1 -14l-15 -19q-6 -8 -18 -1l-129 107q-13 9 -3 20zM133 232q0 -74 51 -126t124 -52q100 0 156 83q7 7 14 3l42 -21q8 -5 2 -14q-75 -115 -222 -115
q-111 0 -182.5 75t-71.5 195q0 127 71.5 203.5t181.5 76.5t175.5 -72t65.5 -199q0 -8 -0.5 -11t-4 -7t-10.5 -4h-383q-9 0 -9 -15zM135 302h304q11 0 14 2.5t3 11.5q0 68 -42 116t-113 48q-76 0 -121.5 -53.5t-44.5 -124.5z" />
    <glyph glyph-name="uni0206" unicode="&#x206;" horiz-adv-x="628" 
d="M481 852h-47q-7 0 -12 8q-28 45 -81 45q-45 0 -78 -44q-6 -9 -16 -9h-46q-9 0 -6 10q12 42 50.5 70t95.5 28t96.5 -28.5t52.5 -68.5q3 -11 -9 -11zM97 728q0 14 12 14h449q10 0 10 -11v-51q0 -12 -13 -12h-349q-13 0 -13 -12v-234q0 -11 11 -11h259q11 0 11 -11v-53
q0 -9 -11 -9h-259q-11 0 -11 -11v-243q0 -10 10 -10h367q11 0 11 -10v-53q0 -11 -11 -11h-459q-14 0 -14 14v714z" />
    <glyph glyph-name="uni0207" unicode="&#x207;" horiz-adv-x="581" 
d="M436 640h-47q-7 0 -12 8q-28 45 -81 45q-45 0 -78 -44q-6 -9 -16 -9h-46q-8 0 -6 10q12 42 50.5 70t95.5 28t96.5 -28.5t52.5 -68.5q3 -11 -9 -11zM133 232q0 -74 51 -126t124 -52q100 0 156 83q7 7 14 3l42 -21q8 -5 2 -14q-75 -115 -222 -115q-111 0 -182.5 75
t-71.5 195q0 127 71.5 203.5t181.5 76.5t175.5 -72t65.5 -199q0 -8 -0.5 -11t-4 -7t-10.5 -4h-383q-9 0 -9 -15zM135 302h304q11 0 14 2.5t3 11.5q0 68 -42 116t-113 48q-76 0 -121.5 -53.5t-44.5 -124.5z" />
    <glyph glyph-name="uni0208" unicode="&#x208;" horiz-adv-x="290" 
d="M-29 958q7 7 13 0l124 -129q6 -6 -1 -14l-16 -19q-6 -8 -17 -1l-130 107q-13 9 -3 20zM133 958q6 8 13 0l123 -129q7 -6 -1 -14l-15 -19q-6 -8 -18 -1l-129 107q-13 9 -3 20zM109 742h72q12 0 12 -13v-712q0 -10 -4 -13.5t-14 -3.5h-63q-15 0 -15 14v714q0 14 12 14z" />
    <glyph glyph-name="uni0209" unicode="&#x209;" horiz-adv-x="239" 
d="M-56 746q7 7 13 0l124 -129q6 -6 -1 -14l-16 -19q-6 -8 -17 -1l-130 107q-13 9 -3 20zM106 746q6 8 13 0l123 -129q7 -6 -1 -14l-15 -19q-6 -8 -18 -1l-129 107q-13 9 -3 20zM161 517v-500q0 -10 -4 -13.5t-14 -3.5h-51q-15 0 -15 14v502q0 14 12 14h61q11 0 11 -13z" />
    <glyph glyph-name="uni020A" unicode="&#x20a;" horiz-adv-x="290" 
d="M285 852h-47q-7 0 -12 8q-28 45 -81 45q-45 0 -78 -44q-6 -9 -16 -9h-46q-9 0 -6 10q12 42 50.5 70t95.5 28t96.5 -28.5t52.5 -68.5q3 -11 -9 -11zM109 742h72q12 0 12 -13v-712q0 -10 -4 -13.5t-14 -3.5h-63q-15 0 -15 14v714q0 14 12 14z" />
    <glyph glyph-name="uni020B" unicode="&#x20b;" horiz-adv-x="239" 
d="M258 640h-47q-7 0 -12 8q-28 45 -81 45q-45 0 -78 -44q-6 -9 -16 -9h-46q-8 0 -6 10q12 42 50.5 70t95.5 28t96.5 -28.5t52.5 -68.5q3 -11 -9 -11zM161 517v-500q0 -10 -4 -13.5t-14 -3.5h-51q-15 0 -15 14v502q0 14 12 14h61q11 0 11 -13z" />
    <glyph glyph-name="uni020C" unicode="&#x20c;" horiz-adv-x="764" 
d="M207 958q7 7 13 0l124 -129q6 -6 -1 -14l-16 -19q-6 -8 -17 -1l-130 107q-13 9 -3 20zM369 958q6 8 13 0l123 -129q7 -6 -1 -14l-15 -19q-6 -8 -18 -1l-129 107q-13 9 -3 20zM382 -10q-149 0 -233 99t-84 279q0 182 85 283t233 101q147 0 231.5 -100.5t84.5 -282.5
q0 -180 -84 -279.5t-233 -99.5zM384 63q215 0 215 305q0 311 -216 311q-218 0 -218 -311q0 -305 219 -305z" />
    <glyph glyph-name="uni020D" unicode="&#x20d;" 
d="M125 746q7 7 13 0l124 -129q6 -6 -1 -14l-16 -19q-6 -8 -17 -1l-130 107q-13 9 -3 20zM287 746q6 8 13 0l123 -129q7 -6 -1 -14l-15 -19q-6 -8 -18 -1l-129 107q-13 9 -3 20zM299 -10q-113 0 -183 75.5t-70 196.5q0 123 71 200.5t183 77.5q113 0 182.5 -77.5t69.5 -199.5
q0 -121 -70 -197t-183 -76zM301 53q78 0 121.5 56.5t43.5 155.5q0 98 -44.5 155.5t-121.5 57.5q-78 0 -123 -57.5t-45 -155.5t45 -155t124 -57z" />
    <glyph glyph-name="uni020E" unicode="&#x20e;" horiz-adv-x="764" 
d="M521 852h-47q-7 0 -12 8q-28 45 -81 45q-45 0 -78 -44q-6 -9 -16 -9h-46q-9 0 -6 10q12 42 50.5 70t95.5 28t96.5 -28.5t52.5 -68.5q3 -11 -9 -11zM382 -10q-149 0 -233 99t-84 279q0 182 85 283t233 101q147 0 231.5 -100.5t84.5 -282.5q0 -180 -84 -279.5t-233 -99.5z
M384 63q215 0 215 305q0 311 -216 311q-218 0 -218 -311q0 -305 219 -305z" />
    <glyph glyph-name="uni020F" unicode="&#x20f;" 
d="M439 640h-47q-7 0 -12 8q-28 45 -81 45q-45 0 -78 -44q-6 -9 -16 -9h-46q-9 0 -6 10q12 42 50.5 70t95.5 28t96.5 -28.5t52.5 -68.5q3 -11 -9 -11zM299 -10q-113 0 -183 75.5t-70 196.5q0 123 71 200.5t183 77.5q113 0 182.5 -77.5t69.5 -199.5q0 -121 -70 -197t-183 -76
zM301 53q78 0 121.5 56.5t43.5 155.5q0 98 -44.5 155.5t-121.5 57.5q-78 0 -123 -57.5t-45 -155.5t45 -155t124 -57z" />
    <glyph glyph-name="uni0210" unicode="&#x210;" horiz-adv-x="696" 
d="M165 958q7 7 13 0l124 -129q6 -6 -1 -14l-16 -19q-6 -8 -17 -1l-130 107q-13 9 -3 20zM327 958q6 8 13 0l123 -129q7 -6 -1 -14l-15 -19q-6 -8 -18 -1l-129 107q-13 9 -3 20zM627 19q3 -8 -0.5 -13.5t-10.5 -5.5h-73q-11 0 -16 12l-129 315q-6 12 -24 12h-169
q-12 0 -12 -11v-312q0 -16 -17 -16h-65q-14 0 -14 13v715q0 14 12 14h279q119 0 184 -49t65 -143q0 -79 -42.5 -127.5t-103.5 -66.5q-8 -2 -4 -10zM360 408q89 0 133 32t44 101q0 131 -154 131h-176q-14 0 -14 -11v-240q0 -13 9 -13h158z" />
    <glyph glyph-name="uni0211" unicode="&#x211;" horiz-adv-x="383" 
d="M35 746q7 7 13 0l124 -129q6 -6 -1 -14l-16 -19q-6 -8 -17 -1l-130 107q-13 9 -3 20zM197 746q6 8 13 0l123 -129q7 -6 -1 -14l-15 -19q-6 -8 -18 -1l-129 107q-13 9 -3 20zM91 0q-14 0 -14 13v504q0 13 11 13h58q11 0 11 -11v-65q0 -6 3.5 -7t7.5 4q76 89 155 89
q35 0 35 -13v-60q0 -9 -9 -8q-18 3 -45 3q-46 0 -94.5 -37t-48.5 -79v-331q0 -15 -15 -15h-55z" />
    <glyph glyph-name="uni0212" unicode="&#x212;" horiz-adv-x="696" 
d="M479 852h-47q-7 0 -12 8q-28 45 -81 45q-45 0 -78 -44q-6 -9 -16 -9h-46q-9 0 -6 10q12 42 50.5 70t95.5 28t96.5 -28.5t52.5 -68.5q3 -11 -9 -11zM627 19q3 -8 -0.5 -13.5t-10.5 -5.5h-73q-11 0 -16 12l-129 315q-6 12 -24 12h-169q-12 0 -12 -11v-312q0 -16 -17 -16
h-65q-14 0 -14 13v715q0 14 12 14h279q119 0 184 -49t65 -143q0 -79 -42.5 -127.5t-103.5 -66.5q-8 -2 -4 -10zM360 408q89 0 133 32t44 101q0 131 -154 131h-176q-14 0 -14 -11v-240q0 -13 9 -13h158z" />
    <glyph glyph-name="uni0213" unicode="&#x213;" horiz-adv-x="383" 
d="M349 640h-47q-7 0 -12 8q-28 45 -81 45q-45 0 -78 -44q-6 -9 -16 -9h-46q-9 0 -6 10q12 42 50.5 70t95.5 28t96.5 -28.5t52.5 -68.5q3 -11 -9 -11zM91 0q-14 0 -14 13v504q0 13 11 13h58q11 0 11 -11v-65q0 -6 3.5 -7t7.5 4q76 89 155 89q35 0 35 -13v-60q0 -9 -9 -8
q-18 3 -45 3q-46 0 -94.5 -37t-48.5 -79v-331q0 -15 -15 -15h-55z" />
    <glyph glyph-name="uni0214" unicode="&#x214;" horiz-adv-x="709" 
d="M186 958q7 7 13 0l124 -129q6 -6 -1 -14l-16 -19q-6 -8 -17 -1l-130 107q-13 9 -3 20zM348 958q6 8 13 0l123 -129q7 -6 -1 -14l-15 -19q-6 -8 -18 -1l-129 107q-13 9 -3 20zM622 247q0 -257 -267 -257q-139 0 -203 67t-64 207v464q0 14 11 14h72q12 0 12 -13v-486
q0 -179 178 -179q180 0 180 182v483q0 13 11 13h59q11 0 11 -12v-483z" />
    <glyph glyph-name="uni0215" unicode="&#x215;" horiz-adv-x="579" 
d="M101 746q7 7 13 0l124 -129q6 -6 -1 -14l-16 -19q-6 -8 -17 -1l-130 107q-13 9 -3 20zM263 746q6 8 13 0l123 -129q7 -6 -1 -14l-15 -19q-6 -8 -18 -1l-129 107q-13 9 -3 20zM257 56q76 0 161 87v373q0 14 16 14h55q14 0 14 -14l-2 -503q0 -13 -11 -13h-58q-11 0 -11 11
v59q0 12 -9 3q-97 -83 -182 -83q-70 0 -115 42t-45 111v372q0 15 15 15h56q13 0 13 -14v-351q0 -50 27.5 -79.5t75.5 -29.5z" />
    <glyph glyph-name="uni0216" unicode="&#x216;" horiz-adv-x="709" 
d="M500 852h-47q-7 0 -12 8q-28 45 -81 45q-45 0 -78 -44q-6 -9 -16 -9h-46q-8 0 -6 10q12 42 50.5 70t95.5 28t96.5 -28.5t52.5 -68.5q3 -11 -9 -11zM622 247q0 -257 -267 -257q-139 0 -203 67t-64 207v464q0 14 11 14h72q12 0 12 -13v-486q0 -179 178 -179q180 0 180 182
v483q0 13 11 13h59q11 0 11 -12v-483z" />
    <glyph glyph-name="uni0217" unicode="&#x217;" horiz-adv-x="579" 
d="M415 640h-47q-7 0 -12 8q-28 45 -81 45q-45 0 -78 -44q-6 -9 -16 -9h-46q-9 0 -6 10q12 42 50.5 70t95.5 28t96.5 -28.5t52.5 -68.5q3 -11 -9 -11zM257 56q76 0 161 87v373q0 14 16 14h55q14 0 14 -14l-2 -503q0 -13 -11 -13h-58q-11 0 -11 11v59q0 12 -9 3
q-97 -83 -182 -83q-70 0 -115 42t-45 111v372q0 15 15 15h56q13 0 13 -14v-351q0 -50 27.5 -79.5t75.5 -29.5z" />
    <glyph glyph-name="Scommaaccent" unicode="&#x218;" horiz-adv-x="641" 
d="M498 604q-64 75 -170 75q-75 0 -118 -33t-43 -92q0 -78 107 -114l145 -48q167 -56 167 -196q0 -96 -71 -151t-194 -55q-184 0 -269 125q-9 13 6 24l36 25q15 11 25 0q43 -55 85 -78t113 -23q177 0 177 123q0 39 -24.5 66.5t-88.5 51.5l-152 52q-79 27 -116.5 77.5
t-37.5 111.5q0 94 69.5 150.5t183.5 56.5q146 0 234 -99q9 -11 0 -19l-46 -36q-7 -5 -18 6zM300 -239q-4 0 -6 3.5t0 8.5l27 51q4 6 2 10.5t-7 4.5h-9q-12 0 -12 12v65q0 11 10 11h59q9 0 9 -9v-79q0 -2 -1 -5l-1 -3l-37 -62q-7 -8 -19 -8h-15z" />
    <glyph glyph-name="scommaaccent" unicode="&#x219;" horiz-adv-x="512" 
d="M395 413q-46 68 -142 68q-55 0 -90 -23.5t-35 -61.5q0 -49 81 -74l127 -38q130 -36 130 -138q0 -70 -61 -113t-155 -43q-77 0 -137 30.5t-85 79.5q-6 11 2 16l39 22q10 6 15 -1q54 -86 167 -86q59 1 97.5 24.5t38.5 61.5q0 28 -23 47t-75 34l-103 29q-136 35 -136 134
q-1 71 55.5 115t148.5 44q66 0 118.5 -25t80.5 -68q7 -10 -1 -14l-42 -23q-9 -5 -15 3zM217 -239q-5 0 -6.5 3.5t0.5 8.5l27 51q4 6 2 10.5t-7 4.5h-9q-12 0 -12 12v65q0 11 10 11h59q9 0 9 -9v-79q0 -2 -1 -5l-1 -3l-37 -62q-7 -8 -19 -8h-15z" />
    <glyph glyph-name="uni021A" unicode="&#x21a;" horiz-adv-x="645" 
d="M42 679v52q0 11 12 11h538q12 0 12 -11v-52q0 -10 -12 -10h-203q-11 0 -11 -10v-646q0 -13 -12 -13h-72q-12 0 -12 13v645q0 11 -10 11h-218q-12 0 -12 10zM299 -239q-5 0 -6.5 3.5t0.5 8.5l27 51q4 6 2 10.5t-7 4.5h-9q-12 0 -12 12v65q0 11 10 11h59q9 0 9 -9v-79
q0 -2 -1 -5l-1 -3l-37 -62q-7 -8 -19 -8h-15z" />
    <glyph glyph-name="uni021B" unicode="&#x21b;" horiz-adv-x="387" 
d="M344 468h-127q-8 0 -8 -9v-317q0 -45 15 -62t49 -17h69q11 0 11 -11l-1 -34q0 -10 -12 -13q-26 -5 -94 -5q-63 0 -92 29.5t-29 93.5v334q0 11 -10 11h-80q-11 0 -11 10v42q0 10 10 10h85q7 0 7 8l11 159q0 13 11 13h50q12 0 12 -14v-158q0 -8 8 -8h126q11 0 11 -9v-43
q0 -10 -11 -10zM209 -239q-5 0 -6.5 3.5t0.5 8.5l27 51q4 6 2 10.5t-7 4.5h-9q-12 0 -12 12v65q0 11 10 11h59q9 0 9 -9v-79q0 -2 -1 -5l-1 -3l-37 -62q-7 -8 -19 -8h-15z" />
    <glyph glyph-name="uni0237" unicode="&#x237;" horiz-adv-x="239" 
d="M162 -29q0 -74 -31.5 -107.5t-108.5 -33.5q-43 0 -54.5 2.5t-11.5 10.5v44q0 11 10 11l51 3q32 2 46.5 18.5t14.5 57.5v539q0 14 12 14h61q11 0 11 -13v-546z" />
    <glyph glyph-name="uni0259" unicode="&#x259;" horiz-adv-x="581" 
d="M448 298q0 74 -51 126t-124 52q-100 0 -156 -83q-7 -7 -14 -3l-42 21q-8 5 -2 14q75 115 222 115q111 0 182.5 -75t71.5 -195q0 -127 -71.5 -203.5t-181.5 -76.5t-175.5 72t-65.5 199q0 8 0.5 11t4 7t10.5 4h383q9 0 9 15zM446 228h-304q-11 0 -14 -2.5t-3 -11.5
q0 -68 42 -116t113 -48q76 0 121.5 53.5t44.5 124.5z" />
    <glyph glyph-name="uni02BC" unicode="&#x2bc;" horiz-adv-x="147" 
d="M39 468q-4 0 -6 3.5t0 6.5l31 116q3 13 -4 13l-7 1q-11 0 -11 10v115q0 9 8 9h59q7 0 7 -8v-126q0 -4 -2 -6l-35 -124q-3 -10 -18 -10h-22z" />
    <glyph glyph-name="circumflex" unicode="&#x2c6;" horiz-adv-x="319" 
d="M224 637l-54 50q-8 8 -11 8t-12 -8l-58 -50q-7 -6 -18 -6h-54q-14 0 -2 12l102 91q13 11 25 11h39q7 0 20 -10l101 -92q12 -12 -1 -12h-59q-11 0 -18 6z" />
    <glyph glyph-name="caron" unicode="&#x2c7;" horiz-adv-x="319" 
d="M224 735q7 7 18 7h59q13 0 1 -12l-101 -93q-11 -9 -20 -9h-39q-13 0 -25 10l-102 92q-12 12 2 12h54q11 0 18 -7l58 -49q9 -9 11.5 -9t11.5 9z" />
    <glyph glyph-name="breve" unicode="&#x2d8;" horiz-adv-x="319" 
d="M298 742q12 0 9 -11q-13 -40 -52.5 -68.5t-96.5 -28.5t-95.5 28t-50.5 70q-2 10 6 10h46q10 0 16 -9q33 -44 78 -44q53 0 81 45q5 8 12 8h47z" />
    <glyph glyph-name="dotaccent" unicode="&#x2d9;" horiz-adv-x="111" 
d="M101 729v-88q0 -16 -18 -16h-58q-15 0 -15 14v89q0 14 12 14h68q11 0 11 -13z" />
    <glyph glyph-name="ring" unicode="&#x2da;" horiz-adv-x="229" 
d="M219 695q0 -45 -30 -75t-74 -30t-74.5 30.5t-30.5 76.5q0 42 30.5 71.5t74.5 29.5q43 0 73.5 -30t30.5 -73zM169 694q0 24 -15.5 40t-39.5 16q-23 0 -40 -16t-17 -40q0 -22 17 -39t40 -17t39 16.5t16 39.5z" />
    <glyph glyph-name="ogonek" unicode="&#x2db;" horiz-adv-x="213" 
d="M10 -89q0 33 24 57t82 42l62 -7q-53 -22 -75.5 -41.5t-22.5 -44.5q0 -38 50 -38q38 0 62 13q11 6 11 -5v-29q0 -6 -6 -11q-34 -17 -87 -17q-49 0 -74.5 21.5t-25.5 59.5z" />
    <glyph glyph-name="tilde" unicode="&#x2dc;" horiz-adv-x="331" 
d="M306 677q-37 -22 -76 -22q-28 0 -66.5 13t-60.5 13q-24 0 -60 -21q-10 -6 -14 5l-10 27q-3 9 4 14q39 30 76 30q25 0 67.5 -14t64.5 -14q26 0 57 20q12 7 16 -5l10 -31q3 -8 -8 -15z" />
    <glyph glyph-name="hungarumlaut" unicode="&#x2dd;" horiz-adv-x="384" 
d="M164 746l29 -36q10 -11 -3 -20l-129 -107q-12 -7 -18 1l-15 19q-7 8 -1 14l124 129q6 7 13 0zM326 746l30 -36q10 -11 -3 -20l-130 -107q-11 -7 -17 1l-16 19q-7 9 0 14l123 129q7 8 13 0z" />
    <glyph glyph-name="gravecomb" unicode="&#x300;" horiz-adv-x="0" 
d="M-258 746q2 9 11 5l232 -93q8 -4 4 -14l-8 -22q-2 -11 -15 -8l-229 69q-14 5 -10 18z" />
    <glyph glyph-name="acutecomb" unicode="&#x301;" horiz-adv-x="0" 
d="M-23 748l15 -45q4 -13 -10 -18l-229 -69q-12 -3 -16 8l-8 22q-3 11 5 14l232 93q8 4 11 -5z" />
    <glyph glyph-name="uni0302" unicode="&#x302;" horiz-adv-x="0" 
d="M-95 637l-54 50q-8 8 -11 8t-12 -8l-58 -50q-7 -6 -18 -6h-54q-14 0 -2 12l102 91q13 11 25 11h39q8 0 20 -10l101 -92q12 -12 -1 -12h-59q-11 0 -18 6z" />
    <glyph glyph-name="tildecomb" unicode="&#x303;" horiz-adv-x="0" 
d="M-25 677q-37 -22 -76 -22q-28 0 -66.5 13t-60.5 13q-24 0 -60 -21q-10 -6 -14 5l-10 27q-3 9 4 14q39 30 76 30q25 0 67.5 -14t64.5 -14q26 0 57 20q12 7 16 -5l10 -31q3 -8 -8 -15z" />
    <glyph glyph-name="uni0304" unicode="&#x304;" horiz-adv-x="0" 
d="M-10 718v-39q0 -13 -15 -13h-270q-11 0 -11 12v39q0 11 8 11h280q8 0 8 -10z" />
    <glyph glyph-name="uni0306" unicode="&#x306;" horiz-adv-x="0" 
d="M-21 742q12 0 9 -11q-13 -40 -52.5 -68.5t-96.5 -28.5t-95.5 28t-50.5 70q-3 10 6 10h46q10 0 16 -9q33 -44 78 -44q53 0 81 45q5 8 12 8h47z" />
    <glyph glyph-name="uni0307" unicode="&#x307;" horiz-adv-x="0" 
d="M-10 729v-88q0 -16 -18 -16h-58q-15 0 -15 14v89q0 14 12 14h68q11 0 11 -13z" />
    <glyph glyph-name="uni0308" unicode="&#x308;" horiz-adv-x="0" 
d="M-157 730v-83q0 -15 -16 -15h-53q-14 0 -14 13v84q0 13 11 13h61q11 0 11 -12zM-10 730v-83q0 -9 -3.5 -12t-13.5 -3h-52q-15 0 -15 13v84q0 13 11 13h62q11 0 11 -12z" />
    <glyph glyph-name="hookabovecomb" unicode="&#x309;" horiz-adv-x="0" 
d="M-376 751q-8 -3 -4 -10l14 -29q3 -7 9 -4q29 19 50 19q40 0 40 -29q0 -21 -45 -63q-6 -4 -2 -10l18 -23q6 -6 10 -2q64 59 64 100q0 33 -23 53.5t-59 20.5q-28 0 -72 -23z" />
    <glyph glyph-name="uni030A" unicode="&#x30a;" horiz-adv-x="0" 
d="M-10 695q0 -45 -30 -75t-74 -30t-74.5 30.5t-30.5 76.5q0 42 30.5 71.5t74.5 29.5q43 0 73.5 -30t30.5 -73zM-60 694q0 24 -16 40t-39 16t-40 -16t-17 -40q0 -22 17 -39t40 -17t39 16.5t16 39.5z" />
    <glyph glyph-name="uni030B" unicode="&#x30b;" horiz-adv-x="0" 
d="M-220 746l29 -36q10 -11 -3 -20l-129 -107q-12 -7 -18 1l-15 19q-7 8 -1 14l124 129q6 7 13 0zM-58 746l30 -36q10 -11 -3 -20l-130 -107q-11 -7 -17 1l-16 19q-7 9 0 14l123 129q7 8 13 0z" />
    <glyph glyph-name="uni030C" unicode="&#x30c;" horiz-adv-x="0" 
d="M-95 735q7 7 18 7h59q13 0 1 -12l-101 -93q-11 -9 -20 -9h-39q-13 0 -25 10l-102 92q-12 12 2 12h54q11 0 18 -7l58 -49q9 -9 11.5 -9t11.5 9z" />
    <glyph glyph-name="uni030F" unicode="&#x30f;" horiz-adv-x="0" 
d="M-326 746q7 7 13 0l124 -129q6 -6 -1 -14l-16 -19q-6 -8 -17 -1l-130 107q-13 9 -3 20zM-164 746q6 8 13 0l123 -129q7 -6 -1 -14l-15 -19q-6 -8 -18 -1l-129 107q-13 9 -3 20z" />
    <glyph glyph-name="uni0311" unicode="&#x311;" horiz-adv-x="0" 
d="M-20 640h-47q-7 0 -12 8q-28 45 -81 45q-45 0 -78 -44q-6 -9 -16 -9h-46q-8 0 -6 10q12 42 50.5 70t95.5 28t96.5 -28.5t52.5 -68.5q3 -11 -9 -11z" />
    <glyph glyph-name="uni031B" unicode="&#x31b;" horiz-adv-x="0" 
d="M52 590q13 0 8 -16q-17 -41 -54.5 -69.5t-93.5 -28.5l4 54q56 0 78 54q3 6 15 6h43z" />
    <glyph glyph-name="dotbelowcomb" unicode="&#x323;" horiz-adv-x="0" 
d="M-10 -67v-83q0 -9 -3 -12t-12 -3h-50q-13 0 -13 12v85q0 12 10 12h58q10 0 10 -11z" />
    <glyph glyph-name="uni0326" unicode="&#x326;" horiz-adv-x="0" 
d="M-83 -239q-5 0 -6.5 3.5t0.5 8.5l27 51q4 6 2 10.5t-7 4.5h-9q-12 0 -12 12v65q0 11 10 11h59q9 0 9 -9v-79q0 -2 -1 -5l-1 -3l-37 -62q-7 -8 -19 -8h-15z" />
    <glyph glyph-name="uni0327" unicode="&#x327;" horiz-adv-x="0" 
d="M-10 -131q0 -37 -31.5 -58t-77.5 -21q-50 0 -88 22q-5 4 -4 9l11 26q3 5 9 2q28 -19 62 -19q57 0 57 38q0 43 -81 46q-8 0 -6 6l37 85h47l-23 -57q-3 -5 4 -5q44 -3 64 -24t20 -50z" />
    <glyph glyph-name="uni0328" unicode="&#x328;" horiz-adv-x="0" 
d="M-203 -89q0 33 24 57t82 42l62 -7q-53 -22 -75.5 -41.5t-22.5 -44.5q0 -38 50 -38q38 0 62 13q11 6 11 -5v-29q0 -6 -6 -11q-34 -17 -87 -17q-49 0 -74.5 21.5t-25.5 59.5z" />
    <glyph glyph-name="pi" unicode="&#x3c0;" horiz-adv-x="663" 
d="M627 468h-97q-11 0 -11 -12v-443q0 -13 -13 -13h-58q-11 0 -11 15l-1 442q0 11 -11 11h-208q-10 0 -10 -9q0 -124 -16.5 -251t-40.5 -199q-3 -9 -11 -9h-55q-13 0 -10 13q54 212 54 445q0 10 -9 10h-81q-13 0 -13 12v38q0 12 14 12h588q11 0 11 -13v-36q0 -13 -11 -13z
" />
    <glyph glyph-name="uni1E0C" unicode="&#x1e0c;" horiz-adv-x="722" 
d="M112 742q133 0 156 -1q203 -3 296 -94t93 -270q0 -189 -98.5 -283t-300.5 -94h-147q-14 0 -14 16v712q0 14 15 14zM203 669q-10 0 -10 -14v-572q0 -11 12 -11h38q167 0 240.5 68.5t73.5 231.5q0 166 -72.5 231.5t-236.5 65.5h-45zM379 -67v-83q0 -9 -3 -12t-12 -3h-50
q-13 0 -13 12v85q0 12 10 12h58q10 0 10 -11z" />
    <glyph glyph-name="uni1E0D" unicode="&#x1e0d;" 
d="M454 0q-14 0 -14 14v43q0 15 -13 4q-71 -71 -157 -71q-98 0 -160 69t-62 198q0 127 65.5 205t168.5 78q78 0 140 -53q16 -13 16 7v235q0 13 11 13h61q11 0 11 -13v-713q0 -9 -3 -12.5t-13 -3.5h-51zM437 413q-65 65 -135 65q-76 0 -122 -57t-46 -161q0 -105 45.5 -157
t116.5 -52q58 0 99.5 38.5t41.5 82.5v241zM342 -67v-83q0 -9 -3 -12t-12 -3h-50q-13 0 -13 12v85q0 12 10 12h58q10 0 10 -11z" />
    <glyph glyph-name="uni1E24" unicode="&#x1e24;" horiz-adv-x="735" 
d="M533 347h-332q-8 0 -8 -8v-324q0 -15 -17 -15h-65q-14 0 -14 14v714q0 14 12 14h72q12 0 12 -13v-294q0 -12 11 -12h328q10 0 10 12v295q0 12 11 12h73q12 0 12 -14v-714q0 -14 -14 -14h-65q-17 0 -17 15v323q0 9 -9 9zM406 -67v-83q0 -9 -3 -12t-12 -3h-50q-13 0 -13 12
v85q0 12 10 12h58q10 0 10 -11z" />
    <glyph glyph-name="uni1E25" unicode="&#x1e25;" horiz-adv-x="584" 
d="M91 0q-13 0 -13 13v716q0 13 11 13h59q11 0 11 -12v-267q0 -11 9 -3q57 44 97 62t88 18q77 0 118.5 -41t41.5 -111v-372q0 -16 -15 -16h-56q-13 0 -13 13v357q0 104 -104 104q-42 0 -76.5 -18.5t-86.5 -62.5v-378q0 -15 -16 -15h-55zM343 -67v-83q0 -9 -3 -12t-12 -3h-50
q-13 0 -13 12v85q0 12 10 12h58q10 0 10 -11z" />
    <glyph glyph-name="uni1E44" unicode="&#x1e44;" horiz-adv-x="757" 
d="M435 941v-88q0 -16 -18 -16h-58q-15 0 -15 14v89q0 14 12 14h68q11 0 11 -13zM590 742h59q11 0 11 -12v-718q0 -12 -13 -12h-49q-15 0 -21 8l-386 561q-3 4 -5.5 5.5t-4 -0.5t-1.5 -6v-555q0 -13 -14 -13h-56q-13 0 -13 13v715q0 14 13 14h57q13 0 21 -10l375 -549
q6 -7 10.5 -5.5t4.5 8.5v544q0 12 12 12z" />
    <glyph glyph-name="uni1E45" unicode="&#x1e45;" horiz-adv-x="584" 
d="M348 729v-88q0 -16 -18 -16h-58q-15 0 -15 14v89q0 14 12 14h68q11 0 11 -13zM91 0q-14 0 -14 13v504q0 13 11 13h60q11 0 11 -11v-58q0 -11 9 -3q56 44 95.5 63t88.5 19q76 0 118.5 -41t42.5 -110v-373q0 -16 -15 -16h-56q-13 0 -13 13v357q0 104 -104 104
q-42 0 -77.5 -18.5t-86.5 -62.5v-378q0 -15 -15 -15h-55z" />
    <glyph glyph-name="uni1E5A" unicode="&#x1e5a;" horiz-adv-x="696" 
d="M627 19q3 -8 -0.5 -13.5t-10.5 -5.5h-73q-11 0 -16 12l-129 315q-6 12 -24 12h-169q-12 0 -12 -11v-312q0 -16 -17 -16h-65q-14 0 -14 13v715q0 14 12 14h279q119 0 184 -49t65 -143q0 -79 -42.5 -127.5t-103.5 -66.5q-8 -2 -4 -10zM360 408q89 0 133 32t44 101
q0 131 -154 131h-176q-14 0 -14 -11v-240q0 -13 9 -13h158zM387 -67v-83q0 -9 -3 -12t-12 -3h-50q-13 0 -13 12v85q0 12 10 12h58q10 0 10 -11z" />
    <glyph glyph-name="uni1E5B" unicode="&#x1e5b;" horiz-adv-x="383" 
d="M91 0q-14 0 -14 13v504q0 13 11 13h58q11 0 11 -11v-65q0 -6 3.5 -7t7.5 4q76 89 155 89q35 0 35 -13v-60q0 -9 -9 -8q-18 3 -45 3q-46 0 -94.5 -37t-48.5 -79v-331q0 -15 -15 -15h-55zM155 -67v-83q0 -9 -3 -12t-12 -3h-50q-13 0 -13 12v85q0 12 10 12h58q10 0 10 -11z
" />
    <glyph glyph-name="uni1E62" unicode="&#x1e62;" horiz-adv-x="641" 
d="M498 604q-64 75 -170 75q-75 0 -118 -33t-43 -92q0 -78 107 -114l145 -48q167 -56 167 -196q0 -96 -71 -151t-194 -55q-184 0 -269 125q-9 13 6 24l36 25q15 11 25 0q43 -55 85 -78t113 -23q177 0 177 123q0 39 -24.5 66.5t-88.5 51.5l-152 52q-79 27 -116.5 77.5
t-37.5 111.5q0 94 69.5 150.5t183.5 56.5q146 0 234 -99q9 -11 0 -19l-46 -36q-7 -5 -18 6zM371 -67v-83q0 -9 -3 -12t-12 -3h-50q-13 0 -13 12v85q0 12 10 12h58q10 0 10 -11z" />
    <glyph glyph-name="uni1E63" unicode="&#x1e63;" horiz-adv-x="512" 
d="M395 413q-46 68 -142 68q-55 0 -90 -23.5t-35 -61.5q0 -49 81 -74l127 -38q130 -36 130 -138q0 -70 -61 -113t-155 -43q-77 0 -137 30.5t-85 79.5q-6 11 2 16l39 22q10 6 15 -1q54 -86 167 -86q59 1 97.5 24.5t38.5 61.5q0 28 -23 47t-75 34l-103 29q-136 35 -136 134
q-1 71 55.5 115t148.5 44q66 0 118.5 -25t80.5 -68q7 -10 -1 -14l-42 -23q-9 -5 -15 3zM288 -67v-83q0 -9 -3 -12t-12 -3h-50q-13 0 -13 12v85q0 12 10 12h58q10 0 10 -11z" />
    <glyph glyph-name="uni1E6C" unicode="&#x1e6c;" horiz-adv-x="645" 
d="M42 679v52q0 11 12 11h538q12 0 12 -11v-52q0 -10 -12 -10h-203q-11 0 -11 -10v-646q0 -13 -12 -13h-72q-12 0 -12 13v645q0 11 -10 11h-218q-12 0 -12 10zM370 -67v-83q0 -9 -3 -12t-12 -3h-50q-13 0 -13 12v85q0 12 10 12h58q10 0 10 -11z" />
    <glyph glyph-name="uni1E6D" unicode="&#x1e6d;" horiz-adv-x="387" 
d="M344 468h-127q-8 0 -8 -9v-317q0 -45 15 -62t49 -17h69q11 0 11 -11l-1 -34q0 -10 -12 -13q-26 -5 -94 -5q-63 0 -92 29.5t-29 93.5v334q0 11 -10 11h-80q-11 0 -11 10v42q0 10 10 10h85q7 0 7 8l11 159q0 13 11 13h50q12 0 12 -14v-158q0 -8 8 -8h126q11 0 11 -9v-43
q0 -10 -11 -10zM248 -67v-83q0 -9 -3 -12t-12 -3h-50q-13 0 -13 12v85q0 12 10 12h58q10 0 10 -11z" />
    <glyph glyph-name="Wgrave" unicode="&#x1e80;" horiz-adv-x="1045" 
d="M414 958q2 9 11 5l232 -93q8 -4 4 -14l-8 -22q-2 -11 -15 -8l-229 69q-14 5 -10 18zM985 742q18 0 14 -18l-206 -709q-4 -15 -22 -15h-61q-19 0 -23 14l-160 567q-3 11 -7 -1l-162 -565q-4 -15 -22 -15h-62q-19 0 -23 14l-203 710q-5 18 14 18h64q14 0 17 -12l163 -582
q2 -7 4 -9.5t4.5 0t3.5 8.5l166 584q4 11 18 11h57q13 0 18 -12l164 -585q5 -20 12 0l165 586q2 11 17 11h50z" />
    <glyph glyph-name="wgrave" unicode="&#x1e81;" horiz-adv-x="796" 
d="M290 746q2 9 11 5l232 -93q8 -4 4 -14l-8 -22q-2 -11 -15 -8l-229 69q-14 5 -10 18zM755 530q6 0 9 -4.5t1 -9.5l-153 -503q-4 -13 -19 -13h-48q-17 0 -21 13l-119 374q-7 17 -12 0l-113 -374q-4 -13 -19 -13h-51q-17 0 -21 13l-157 502q-2 6 1 10.5t10 4.5h59
q11 0 16 -11l119 -389q7 -22 15 1l118 389q3 10 14 10h47q12 0 15 -11l123 -389q2 -6 4.5 -8.5t5 0t4.5 9.5l115 388q5 11 17 11h40z" />
    <glyph glyph-name="Wacute" unicode="&#x1e82;" horiz-adv-x="1045" 
d="M644 960l15 -45q4 -13 -10 -18l-229 -69q-12 -3 -16 8l-8 22q-3 11 5 14l232 93q7 4 11 -5zM985 742q18 0 14 -18l-206 -709q-4 -15 -22 -15h-61q-19 0 -23 14l-160 567q-3 11 -7 -1l-162 -565q-4 -15 -22 -15h-62q-19 0 -23 14l-203 710q-5 18 14 18h64q14 0 17 -12
l163 -582q2 -7 4 -9.5t4.5 0t3.5 8.5l166 584q4 11 18 11h57q13 0 18 -12l164 -585q5 -20 12 0l165 586q2 11 17 11h50z" />
    <glyph glyph-name="wacute" unicode="&#x1e83;" horiz-adv-x="796" 
d="M520 748l15 -45q4 -13 -10 -18l-229 -69q-12 -3 -16 8l-8 22q-3 11 5 14l232 93q7 4 11 -5zM755 530q6 0 9 -4.5t1 -9.5l-153 -503q-4 -13 -19 -13h-48q-17 0 -21 13l-119 374q-7 17 -12 0l-113 -374q-4 -13 -19 -13h-51q-17 0 -21 13l-157 502q-2 6 1 10.5t10 4.5h59
q11 0 16 -11l119 -389q7 -22 15 1l118 389q3 10 14 10h47q12 0 15 -11l123 -389q2 -6 4.5 -8.5t5 0t4.5 9.5l115 388q5 11 17 11h40z" />
    <glyph glyph-name="Wdieresis" unicode="&#x1e84;" horiz-adv-x="1045" 
d="M493 942v-83q0 -15 -16 -15h-53q-14 0 -14 13v84q0 13 11 13h61q11 0 11 -12zM640 942v-83q0 -9 -3.5 -12t-13.5 -3h-52q-15 0 -15 13v84q0 13 11 13h62q11 0 11 -12zM985 742q18 0 14 -18l-206 -709q-4 -15 -22 -15h-61q-19 0 -23 14l-160 567q-3 11 -7 -1l-162 -565
q-4 -15 -22 -15h-62q-19 0 -23 14l-203 710q-5 18 14 18h64q14 0 17 -12l163 -582q2 -7 4 -9.5t4.5 0t3.5 8.5l166 584q4 11 18 11h57q13 0 18 -12l164 -585q5 -20 12 0l165 586q2 11 17 11h50z" />
    <glyph glyph-name="wdieresis" unicode="&#x1e85;" horiz-adv-x="796" 
d="M369 730v-83q0 -15 -16 -15h-53q-14 0 -14 13v84q0 13 11 13h61q11 0 11 -12zM516 730v-83q0 -9 -3.5 -12t-13.5 -3h-52q-15 0 -15 13v84q0 13 11 13h62q11 0 11 -12zM755 530q6 0 9 -4.5t1 -9.5l-153 -503q-4 -13 -19 -13h-48q-17 0 -21 13l-119 374q-7 17 -12 0
l-113 -374q-4 -13 -19 -13h-51q-17 0 -21 13l-157 502q-2 6 1 10.5t10 4.5h59q11 0 16 -11l119 -389q7 -22 15 1l118 389q3 10 14 10h47q12 0 15 -11l123 -389q2 -6 4.5 -8.5t5 0t4.5 9.5l115 388q5 11 17 11h40z" />
    <glyph glyph-name="uni1E92" unicode="&#x1e92;" horiz-adv-x="631" 
d="M60 0q-13 0 -13 12v23q0 11 11 27l389 596q6 10 -5 10h-368q-11 0 -11 11v53q0 10 10 10h500q9 0 9 -10v-26q0 -9 -8 -20l-395 -602q-7 -9 4 -9h387q11 0 11 -9v-55q0 -11 -12 -11h-509zM361 -67v-83q0 -9 -3 -12t-12 -3h-50q-13 0 -13 12v85q0 12 10 12h58q10 0 10 -11z
" />
    <glyph glyph-name="uni1E93" unicode="&#x1e93;" horiz-adv-x="482" 
d="M43 0q-12 0 -12 12v29q0 13 12 29l291 391q7 10 -5 10h-265q-11 0 -11 11v37q0 11 10 11h370q9 0 9 -10v-32q0 -13 -10 -26l-292 -392q-9 -11 3 -11h294q11 0 11 -9v-38q0 -12 -13 -12h-392zM277 -67v-83q0 -9 -3 -12t-12 -3h-50q-13 0 -13 12v85q0 12 10 12h58
q10 0 10 -11z" />
    <glyph glyph-name="uni1EA0" unicode="&#x1ea0;" horiz-adv-x="727" 
d="M55 0q-15 0 -9 17l259 711q6 14 20 14h78q19 0 23 -15l256 -710q4 -17 -10 -17h-71q-12 0 -16 10l-69 194q-3 8 -12 8h-291q-9 0 -12 -8l-71 -195q-3 -9 -15 -9h-60zM236 288h242q11 0 8 13l-120 329q-8 19 -14 0l-122 -331q-6 -11 6 -11zM403 -67v-83q0 -9 -3 -12
t-12 -3h-50q-13 0 -13 12v85q0 12 10 12h58q10 0 10 -11z" />
    <glyph glyph-name="uni1EA1" unicode="&#x1ea1;" horiz-adv-x="548" 
d="M382 64q-77 -74 -178 -74q-77 0 -122 39.5t-45 105.5q0 79 68 125.5t196 54.5l78 6q16 2 16 15v27q0 54 -33.5 85.5t-90.5 31.5q-88 0 -143 -80q-7 -9 -15 -6l-54 18q-8 3 -2 16q63 112 218 112q97 0 149 -45.5t52 -125.5v-354q0 -15 -13 -15h-51q-12 0 -14 16l-1 46
q-3 14 -15 2zM395 254q0 16 -14 16l-66 -6q-194 -13 -194 -119q0 -43 30.5 -68t82.5 -25q62 0 113 41q48 38 48 78v83zM310 -67v-83q0 -9 -3 -12t-12 -3h-50q-13 0 -13 12v85q0 12 10 12h58q10 0 10 -11z" />
    <glyph glyph-name="uni1EA2" unicode="&#x1ea2;" horiz-adv-x="727" 
d="M275 963q-7 -3 -4 -10l14 -29q3 -7 9 -4q29 19 50 19q40 0 40 -29q0 -21 -45 -63q-6 -4 -2 -10l18 -23q6 -6 10 -2q64 59 64 100q0 33 -23 53.5t-59 20.5q-28 0 -72 -23zM55 0q-15 0 -9 17l259 711q6 14 20 14h78q19 0 23 -15l256 -710q4 -17 -10 -17h-71q-12 0 -16 10
l-69 194q-3 8 -12 8h-291q-9 0 -12 -8l-71 -195q-3 -9 -15 -9h-60zM236 288h242q11 0 8 13l-120 329q-8 19 -14 0l-122 -331q-6 -11 6 -11z" />
    <glyph glyph-name="uni1EA3" unicode="&#x1ea3;" horiz-adv-x="548" 
d="M185 751q-7 -3 -4 -10l14 -29q3 -7 9 -4q29 19 50 19q40 0 40 -29q0 -21 -45 -63q-6 -4 -2 -10l18 -23q6 -6 10 -2q64 59 64 100q0 33 -23 53.5t-59 20.5q-28 0 -72 -23zM382 64q-77 -74 -178 -74q-77 0 -122 39.5t-45 105.5q0 79 68 125.5t196 54.5l78 6q16 2 16 15v27
q0 54 -33.5 85.5t-90.5 31.5q-88 0 -143 -80q-7 -9 -15 -6l-54 18q-8 3 -2 16q63 112 218 112q97 0 149 -45.5t52 -125.5v-354q0 -15 -13 -15h-51q-12 0 -14 16l-1 46q-3 14 -15 2zM395 254q0 16 -14 16l-66 -6q-194 -13 -194 -119q0 -43 30.5 -68t82.5 -25q62 0 113 41
q48 38 48 78v83z" />
    <glyph glyph-name="uni1EA4" unicode="&#x1ea4;" horiz-adv-x="727" 
d="M480 1109l15 -45q4 -13 -10 -18l-229 -69q-12 -3 -16 8l-8 22q-3 11 5 14l232 93q7 4 11 -5zM427 849l-54 50q-8 8 -11 8t-12 -8l-58 -50q-7 -6 -18 -6h-54q-14 0 -2 12l102 91q13 11 25 11h39q8 0 20 -10l101 -92q12 -12 -1 -12h-59q-11 0 -18 6zM55 0q-15 0 -9 17
l259 711q6 14 20 14h78q19 0 23 -15l256 -710q4 -17 -10 -17h-71q-12 0 -16 10l-69 194q-3 8 -12 8h-291q-9 0 -12 -8l-71 -195q-3 -9 -15 -9h-60zM236 288h242q11 0 8 13l-120 329q-8 19 -14 0l-122 -331q-6 -11 6 -11z" />
    <glyph glyph-name="uni1EA5" unicode="&#x1ea5;" horiz-adv-x="548" 
d="M390 897l15 -45q4 -13 -10 -18l-229 -69q-12 -3 -16 8l-8 22q-3 11 5 14l232 93q7 4 11 -5zM337 637l-54 50q-8 8 -11 8t-12 -8l-58 -50q-7 -6 -18 -6h-54q-14 0 -2 12l102 91q13 11 25 11h39q8 0 20 -10l101 -92q12 -12 -1 -12h-59q-11 0 -18 6zM382 64
q-77 -74 -178 -74q-77 0 -122 39.5t-45 105.5q0 79 68 125.5t196 54.5l78 6q16 2 16 15v27q0 54 -33.5 85.5t-90.5 31.5q-88 0 -143 -80q-7 -9 -15 -6l-54 18q-8 3 -2 16q63 112 218 112q97 0 149 -45.5t52 -125.5v-354q0 -15 -13 -15h-51q-12 0 -14 16l-1 46q-3 14 -15 2z
M395 254q0 16 -14 16l-66 -6q-194 -13 -194 -119q0 -43 30.5 -68t82.5 -25q62 0 113 41q48 38 48 78v83z" />
    <glyph glyph-name="uni1EA6" unicode="&#x1ea6;" horiz-adv-x="727" 
d="M250 1107q2 9 11 5l232 -93q8 -4 4 -14l-8 -22q-2 -11 -15 -8l-229 69q-14 5 -10 18zM427 849l-54 50q-8 8 -11 8t-12 -8l-58 -50q-7 -6 -18 -6h-54q-14 0 -2 12l102 91q13 11 25 11h39q8 0 20 -10l101 -92q12 -12 -1 -12h-59q-11 0 -18 6zM55 0q-15 0 -9 17l259 711
q6 14 20 14h78q19 0 23 -15l256 -710q4 -17 -10 -17h-71q-12 0 -16 10l-69 194q-3 8 -12 8h-291q-9 0 -12 -8l-71 -195q-3 -9 -15 -9h-60zM236 288h242q11 0 8 13l-120 329q-8 19 -14 0l-122 -331q-6 -11 6 -11z" />
    <glyph glyph-name="uni1EA7" unicode="&#x1ea7;" horiz-adv-x="548" 
d="M160 895q2 9 11 5l232 -93q8 -4 4 -14l-8 -22q-2 -11 -15 -8l-229 69q-14 5 -10 18zM337 637l-54 50q-8 8 -11 8t-12 -8l-58 -50q-7 -6 -18 -6h-54q-14 0 -2 12l102 91q13 11 25 11h39q8 0 20 -10l101 -92q12 -12 -1 -12h-59q-11 0 -18 6zM382 64q-77 -74 -178 -74
q-77 0 -122 39.5t-45 105.5q0 79 68 125.5t196 54.5l78 6q16 2 16 15v27q0 54 -33.5 85.5t-90.5 31.5q-88 0 -143 -80q-7 -9 -15 -6l-54 18q-8 3 -2 16q63 112 218 112q97 0 149 -45.5t52 -125.5v-354q0 -15 -13 -15h-51q-12 0 -14 16l-1 46q-3 14 -15 2zM395 254
q0 16 -14 16l-66 -6q-194 -13 -194 -119q0 -43 30.5 -68t82.5 -25q62 0 113 41q48 38 48 78v83z" />
    <glyph glyph-name="uni1EA8" unicode="&#x1ea8;" horiz-adv-x="727" 
d="M430 1086q-8 -3 -4 -10l14 -29q3 -7 9 -4q29 19 50 19q40 0 40 -29q0 -21 -45 -63q-6 -4 -2 -10l18 -23q6 -6 10 -2q64 59 64 100q0 33 -23 53.5t-59 20.5q-28 0 -72 -23zM427 849l-54 50q-8 8 -11 8t-12 -8l-58 -50q-7 -6 -18 -6h-54q-14 0 -2 12l102 91q13 11 25 11h39
q8 0 20 -10l101 -92q12 -12 -1 -12h-59q-11 0 -18 6zM55 0q-15 0 -9 17l259 711q6 14 20 14h78q19 0 23 -15l256 -710q4 -17 -10 -17h-71q-12 0 -16 10l-69 194q-3 8 -12 8h-291q-9 0 -12 -8l-71 -195q-3 -9 -15 -9h-60zM236 288h242q11 0 8 13l-120 329q-8 19 -14 0
l-122 -331q-6 -11 6 -11z" />
    <glyph glyph-name="uni1EA9" unicode="&#x1ea9;" horiz-adv-x="548" 
d="M340 874q-8 -3 -4 -10l14 -29q3 -7 9 -4q29 19 50 19q40 0 40 -29q0 -21 -45 -63q-6 -4 -2 -10l18 -23q6 -6 10 -2q64 59 64 100q0 33 -23 53.5t-59 20.5q-28 0 -72 -23zM337 637l-54 50q-8 8 -11 8t-12 -8l-58 -50q-7 -6 -18 -6h-54q-14 0 -2 12l102 91q13 11 25 11h39
q8 0 20 -10l101 -92q12 -12 -1 -12h-59q-11 0 -18 6zM382 64q-77 -74 -178 -74q-77 0 -122 39.5t-45 105.5q0 79 68 125.5t196 54.5l78 6q16 2 16 15v27q0 54 -33.5 85.5t-90.5 31.5q-88 0 -143 -80q-7 -9 -15 -6l-54 18q-8 3 -2 16q63 112 218 112q97 0 149 -45.5
t52 -125.5v-354q0 -15 -13 -15h-51q-12 0 -14 16l-1 46q-3 14 -15 2zM395 254q0 16 -14 16l-66 -6q-194 -13 -194 -119q0 -43 30.5 -68t82.5 -25q62 0 113 41q48 38 48 78v83z" />
    <glyph glyph-name="uni1EAA" unicode="&#x1eaa;" horiz-adv-x="727" 
d="M502 1038q-37 -22 -76 -22q-28 0 -66.5 13t-60.5 13q-24 0 -60 -21q-10 -6 -14 5l-10 27q-3 9 4 14q39 30 76 30q25 0 67.5 -14t64.5 -14q26 0 57 20q12 7 16 -5l10 -31q3 -8 -8 -15zM427 849l-54 50q-8 8 -11 8t-12 -8l-58 -50q-7 -6 -18 -6h-54q-14 0 -2 12l102 91
q13 11 25 11h39q8 0 20 -10l101 -92q12 -12 -1 -12h-59q-11 0 -18 6zM55 0q-15 0 -9 17l259 711q6 14 20 14h78q19 0 23 -15l256 -710q4 -17 -10 -17h-71q-12 0 -16 10l-69 194q-3 8 -12 8h-291q-9 0 -12 -8l-71 -195q-3 -9 -15 -9h-60zM236 288h242q11 0 8 13l-120 329
q-8 19 -14 0l-122 -331q-6 -11 6 -11z" />
    <glyph glyph-name="uni1EAB" unicode="&#x1eab;" horiz-adv-x="548" 
d="M412 826q-37 -22 -76 -22q-28 0 -66.5 13t-60.5 13q-24 0 -60 -21q-10 -6 -14 5l-10 27q-3 9 4 14q39 30 76 30q25 0 67.5 -14t64.5 -14q26 0 57 20q12 7 16 -5l10 -31q3 -8 -8 -15zM337 637l-54 50q-8 8 -11 8t-12 -8l-58 -50q-7 -6 -18 -6h-54q-14 0 -2 12l102 91
q13 11 25 11h39q8 0 20 -10l101 -92q12 -12 -1 -12h-59q-11 0 -18 6zM382 64q-77 -74 -178 -74q-77 0 -122 39.5t-45 105.5q0 79 68 125.5t196 54.5l78 6q16 2 16 15v27q0 54 -33.5 85.5t-90.5 31.5q-88 0 -143 -80q-7 -9 -15 -6l-54 18q-8 3 -2 16q63 112 218 112
q97 0 149 -45.5t52 -125.5v-354q0 -15 -13 -15h-51q-12 0 -14 16l-1 46q-3 14 -15 2zM395 254q0 16 -14 16l-66 -6q-194 -13 -194 -119q0 -43 30.5 -68t82.5 -25q62 0 113 41q48 38 48 78v83z" />
    <glyph glyph-name="uni1EAC" unicode="&#x1eac;" horiz-adv-x="727" 
d="M427 849l-54 50q-8 8 -11 8t-12 -8l-58 -50q-7 -6 -18 -6h-54q-14 0 -2 12l102 91q13 11 25 11h39q8 0 20 -10l101 -92q12 -12 -1 -12h-59q-11 0 -18 6zM55 0q-15 0 -9 17l259 711q6 14 20 14h78q19 0 23 -15l256 -710q4 -17 -10 -17h-71q-12 0 -16 10l-69 194
q-3 8 -12 8h-291q-9 0 -12 -8l-71 -195q-3 -9 -15 -9h-60zM236 288h242q11 0 8 13l-120 329q-8 19 -14 0l-122 -331q-6 -11 6 -11zM403 -67v-83q0 -9 -3 -12t-12 -3h-50q-13 0 -13 12v85q0 12 10 12h58q10 0 10 -11z" />
    <glyph glyph-name="uni1EAD" unicode="&#x1ead;" horiz-adv-x="548" 
d="M337 637l-54 50q-8 8 -11 8t-12 -8l-58 -50q-7 -6 -18 -6h-54q-14 0 -2 12l102 91q13 11 25 11h39q8 0 20 -10l101 -92q12 -12 -1 -12h-59q-11 0 -18 6zM382 64q-77 -74 -178 -74q-77 0 -122 39.5t-45 105.5q0 79 68 125.5t196 54.5l78 6q16 2 16 15v27q0 54 -33.5 85.5
t-90.5 31.5q-88 0 -143 -80q-7 -9 -15 -6l-54 18q-8 3 -2 16q63 112 218 112q97 0 149 -45.5t52 -125.5v-354q0 -15 -13 -15h-51q-12 0 -14 16l-1 46q-3 14 -15 2zM395 254q0 16 -14 16l-66 -6q-194 -13 -194 -119q0 -43 30.5 -68t82.5 -25q62 0 113 41q48 38 48 78v83z
M310 -67v-83q0 -9 -3 -12t-12 -3h-50q-13 0 -13 12v85q0 12 10 12h58q10 0 10 -11z" />
    <glyph glyph-name="uni1EAE" unicode="&#x1eae;" horiz-adv-x="727" 
d="M478 1142l15 -45q4 -13 -10 -18l-229 -69q-12 -3 -16 8l-8 22q-3 11 5 14l232 93q7 4 11 -5zM500 954q12 0 9 -11q-13 -40 -52.5 -68.5t-96.5 -28.5t-95.5 28t-50.5 70q-2 10 6 10h46q10 0 16 -9q33 -44 78 -44q53 0 81 45q5 8 12 8h47zM55 0q-15 0 -9 17l259 711
q6 14 20 14h78q19 0 23 -15l256 -710q4 -17 -10 -17h-71q-12 0 -16 10l-69 194q-3 8 -12 8h-291q-9 0 -12 -8l-71 -195q-3 -9 -15 -9h-60zM236 288h242q11 0 8 13l-120 329q-8 19 -14 0l-122 -331q-6 -11 6 -11z" />
    <glyph glyph-name="uni1EAF" unicode="&#x1eaf;" horiz-adv-x="548" 
d="M389 930l15 -45q4 -13 -10 -18l-229 -69q-12 -3 -16 8l-8 22q-3 11 5 14l232 93q8 4 11 -5zM411 742q12 0 9 -11q-13 -40 -52.5 -68.5t-96.5 -28.5t-95.5 28t-50.5 70q-3 10 6 10h46q10 0 16 -9q33 -44 78 -44q53 0 81 45q5 8 12 8h47zM382 64q-77 -74 -178 -74
q-77 0 -122 39.5t-45 105.5q0 79 68 125.5t196 54.5l78 6q16 2 16 15v27q0 54 -33.5 85.5t-90.5 31.5q-88 0 -143 -80q-7 -9 -15 -6l-54 18q-8 3 -2 16q63 112 218 112q97 0 149 -45.5t52 -125.5v-354q0 -15 -13 -15h-51q-12 0 -14 16l-1 46q-3 14 -15 2zM395 254
q0 16 -14 16l-66 -6q-194 -13 -194 -119q0 -43 30.5 -68t82.5 -25q62 0 113 41q48 38 48 78v83z" />
    <glyph glyph-name="uni1EB0" unicode="&#x1eb0;" horiz-adv-x="727" 
d="M249 1140q2 9 11 5l232 -93q8 -4 4 -14l-8 -22q-2 -11 -15 -8l-229 69q-14 5 -10 18zM501 954q12 0 9 -11q-13 -40 -52.5 -68.5t-96.5 -28.5t-95.5 28t-50.5 70q-3 10 6 10h46q10 0 16 -9q33 -44 78 -44q53 0 81 45q5 8 12 8h47zM55 0q-15 0 -9 17l259 711q6 14 20 14h78
q19 0 23 -15l256 -710q4 -17 -10 -17h-71q-12 0 -16 10l-69 194q-3 8 -12 8h-291q-9 0 -12 -8l-71 -195q-3 -9 -15 -9h-60zM236 288h242q11 0 8 13l-120 329q-8 19 -14 0l-122 -331q-6 -11 6 -11z" />
    <glyph glyph-name="uni1EB1" unicode="&#x1eb1;" horiz-adv-x="548" 
d="M159 928q2 9 11 5l232 -93q8 -4 4 -14l-8 -22q-2 -11 -15 -8l-229 69q-14 5 -10 18zM411 742q12 0 9 -11q-13 -40 -52.5 -68.5t-96.5 -28.5t-95.5 28t-50.5 70q-3 10 6 10h46q10 0 16 -9q33 -44 78 -44q53 0 81 45q5 8 12 8h47zM382 64q-77 -74 -178 -74q-77 0 -122 39.5
t-45 105.5q0 79 68 125.5t196 54.5l78 6q16 2 16 15v27q0 54 -33.5 85.5t-90.5 31.5q-88 0 -143 -80q-7 -9 -15 -6l-54 18q-8 3 -2 16q63 112 218 112q97 0 149 -45.5t52 -125.5v-354q0 -15 -13 -15h-51q-12 0 -14 16l-1 46q-3 14 -15 2zM395 254q0 16 -14 16l-66 -6
q-194 -13 -194 -119q0 -43 30.5 -68t82.5 -25q62 0 113 41q48 38 48 78v83z" />
    <glyph glyph-name="uni1EB2" unicode="&#x1eb2;" horiz-adv-x="727" 
d="M284 1128q-8 -3 -4 -10l14 -29q3 -7 9 -4q29 19 50 19q40 0 40 -29q0 -21 -45 -63q-6 -4 -2 -10l18 -23q6 -6 10 -2q64 59 64 100q0 33 -23 53.5t-59 20.5q-28 0 -72 -23zM502 954q12 0 9 -11q-13 -40 -52.5 -68.5t-96.5 -28.5t-95.5 28t-50.5 70q-2 10 6 10h46
q10 0 16 -9q33 -44 78 -44q53 0 81 45q5 8 12 8h47zM55 0q-15 0 -9 17l259 711q6 14 20 14h78q19 0 23 -15l256 -710q4 -17 -10 -17h-71q-12 0 -16 10l-69 194q-3 8 -12 8h-291q-9 0 -12 -8l-71 -195q-3 -9 -15 -9h-60zM236 288h242q11 0 8 13l-120 329q-8 19 -14 0
l-122 -331q-6 -11 6 -11z" />
    <glyph glyph-name="uni1EB3" unicode="&#x1eb3;" horiz-adv-x="548" 
d="M186 918q-8 -3 -4 -10l14 -29q3 -7 9 -4q29 19 50 19q40 0 40 -29q0 -21 -45 -63q-6 -4 -2 -10l18 -23q6 -6 10 -2q64 59 64 100q0 33 -23 53.5t-59 20.5q-28 0 -72 -23zM411 742q12 0 9 -11q-13 -40 -52.5 -68.5t-96.5 -28.5t-95.5 28t-50.5 70q-3 10 6 10h46
q10 0 16 -9q33 -44 78 -44q53 0 81 45q5 8 12 8h47zM382 64q-77 -74 -178 -74q-77 0 -122 39.5t-45 105.5q0 79 68 125.5t196 54.5l78 6q16 2 16 15v27q0 54 -33.5 85.5t-90.5 31.5q-88 0 -143 -80q-7 -9 -15 -6l-54 18q-8 3 -2 16q63 112 218 112q97 0 149 -45.5t52 -125.5
v-354q0 -15 -13 -15h-51q-12 0 -14 16l-1 46q-3 14 -15 2zM395 254q0 16 -14 16l-66 -6q-194 -13 -194 -119q0 -43 30.5 -68t82.5 -25q62 0 113 41q48 38 48 78v83z" />
    <glyph glyph-name="uni1EB4" unicode="&#x1eb4;" horiz-adv-x="727" 
d="M501 1071q-37 -22 -76 -22q-28 0 -66.5 13t-60.5 13q-24 0 -60 -21q-10 -6 -14 5l-10 27q-3 9 4 14q39 30 76 30q25 0 67.5 -14t64.5 -14q26 0 57 20q12 7 16 -5l10 -31q3 -8 -8 -15zM501 954q12 0 9 -11q-13 -40 -52.5 -68.5t-96.5 -28.5t-95.5 28t-50.5 70q-3 10 6 10
h46q10 0 16 -9q33 -44 78 -44q53 0 81 45q5 8 12 8h47zM55 0q-15 0 -9 17l259 711q6 14 20 14h78q19 0 23 -15l256 -710q4 -17 -10 -17h-71q-12 0 -16 10l-69 194q-3 8 -12 8h-291q-9 0 -12 -8l-71 -195q-3 -9 -15 -9h-60zM236 288h242q11 0 8 13l-120 329q-8 19 -14 0
l-122 -331q-6 -11 6 -11z" />
    <glyph glyph-name="uni1EB5" unicode="&#x1eb5;" horiz-adv-x="548" 
d="M411 859q-37 -22 -76 -22q-28 0 -66.5 13t-60.5 13q-24 0 -60 -21q-10 -6 -14 5l-10 27q-3 9 4 14q39 30 76 30q25 0 67.5 -14t64.5 -14q26 0 57 20q12 7 16 -5l10 -31q3 -8 -8 -15zM411 742q12 0 9 -11q-13 -40 -52.5 -68.5t-96.5 -28.5t-95.5 28t-50.5 70q-3 10 6 10
h46q10 0 16 -9q33 -44 78 -44q53 0 81 45q5 8 12 8h47zM382 64q-77 -74 -178 -74q-77 0 -122 39.5t-45 105.5q0 79 68 125.5t196 54.5l78 6q16 2 16 15v27q0 54 -33.5 85.5t-90.5 31.5q-88 0 -143 -80q-7 -9 -15 -6l-54 18q-8 3 -2 16q63 112 218 112q97 0 149 -45.5
t52 -125.5v-354q0 -15 -13 -15h-51q-12 0 -14 16l-1 46q-3 14 -15 2zM395 254q0 16 -14 16l-66 -6q-194 -13 -194 -119q0 -43 30.5 -68t82.5 -25q62 0 113 41q48 38 48 78v83z" />
    <glyph glyph-name="uni1EB6" unicode="&#x1eb6;" horiz-adv-x="727" 
d="M501 954q12 0 9 -11q-13 -40 -52.5 -68.5t-96.5 -28.5t-95.5 28t-50.5 70q-3 10 6 10h46q10 0 16 -9q33 -44 78 -44q53 0 81 45q5 8 12 8h47zM55 0q-15 0 -9 17l259 711q6 14 20 14h78q19 0 23 -15l256 -710q4 -17 -10 -17h-71q-12 0 -16 10l-69 194q-3 8 -12 8h-291
q-9 0 -12 -8l-71 -195q-3 -9 -15 -9h-60zM236 288h242q11 0 8 13l-120 329q-8 19 -14 0l-122 -331q-6 -11 6 -11zM403 -67v-83q0 -9 -3 -12t-12 -3h-50q-13 0 -13 12v85q0 12 10 12h58q10 0 10 -11z" />
    <glyph glyph-name="uni1EB7" unicode="&#x1eb7;" horiz-adv-x="548" 
d="M411 742q12 0 9 -11q-13 -40 -52.5 -68.5t-96.5 -28.5t-95.5 28t-50.5 70q-3 10 6 10h46q10 0 16 -9q33 -44 78 -44q53 0 81 45q5 8 12 8h47zM382 64q-77 -74 -178 -74q-77 0 -122 39.5t-45 105.5q0 79 68 125.5t196 54.5l78 6q16 2 16 15v27q0 54 -33.5 85.5t-90.5 31.5
q-88 0 -143 -80q-7 -9 -15 -6l-54 18q-8 3 -2 16q63 112 218 112q97 0 149 -45.5t52 -125.5v-354q0 -15 -13 -15h-51q-12 0 -14 16l-1 46q-3 14 -15 2zM395 254q0 16 -14 16l-66 -6q-194 -13 -194 -119q0 -43 30.5 -68t82.5 -25q62 0 113 41q48 38 48 78v83zM310 -67v-83
q0 -9 -3 -12t-12 -3h-50q-13 0 -13 12v85q0 12 10 12h58q10 0 10 -11z" />
    <glyph glyph-name="uni1EB8" unicode="&#x1eb8;" horiz-adv-x="628" 
d="M97 728q0 14 12 14h449q10 0 10 -11v-51q0 -12 -13 -12h-349q-13 0 -13 -12v-234q0 -11 11 -11h259q11 0 11 -11v-53q0 -9 -11 -9h-259q-11 0 -11 -11v-243q0 -10 10 -10h367q11 0 11 -10v-53q0 -11 -11 -11h-459q-14 0 -14 14v714zM387 -67v-83q0 -9 -3 -12t-12 -3h-50
q-13 0 -13 12v85q0 12 10 12h58q10 0 10 -11z" />
    <glyph glyph-name="uni1EB9" unicode="&#x1eb9;" horiz-adv-x="581" 
d="M133 232q0 -74 51 -126t124 -52q100 0 156 83q7 7 14 3l42 -21q8 -5 2 -14q-75 -115 -222 -115q-111 0 -182.5 75t-71.5 195q0 127 71.5 203.5t181.5 76.5t175.5 -72t65.5 -199q0 -8 -0.5 -11t-4 -7t-10.5 -4h-383q-9 0 -9 -15zM135 302h304q11 0 14 2.5t3 11.5
q0 68 -42 116t-113 48q-76 0 -121.5 -53.5t-44.5 -124.5zM340 -67v-83q0 -9 -3 -12t-12 -3h-50q-13 0 -13 12v85q0 12 10 12h58q10 0 10 -11z" />
    <glyph glyph-name="uni1EBA" unicode="&#x1eba;" horiz-adv-x="628" 
d="M256 963q-8 -3 -4 -10l14 -29q3 -7 9 -4q29 19 50 19q40 0 40 -29q0 -21 -45 -63q-6 -4 -2 -10l18 -23q6 -6 10 -2q64 59 64 100q0 33 -23 53.5t-59 20.5q-28 0 -72 -23zM97 728q0 14 12 14h449q10 0 10 -11v-51q0 -12 -13 -12h-349q-13 0 -13 -12v-234q0 -11 11 -11h259
q11 0 11 -11v-53q0 -9 -11 -9h-259q-11 0 -11 -11v-243q0 -10 10 -10h367q11 0 11 -10v-53q0 -11 -11 -11h-459q-14 0 -14 14v714z" />
    <glyph glyph-name="uni1EBB" unicode="&#x1ebb;" horiz-adv-x="581" 
d="M211 751q-7 -3 -4 -10l14 -29q3 -7 9 -4q29 19 50 19q40 0 40 -29q0 -21 -45 -63q-6 -4 -2 -10l18 -23q6 -6 10 -2q64 59 64 100q0 33 -23 53.5t-59 20.5q-28 0 -72 -23zM133 232q0 -74 51 -126t124 -52q100 0 156 83q7 7 14 3l42 -21q8 -5 2 -14q-75 -115 -222 -115
q-111 0 -182.5 75t-71.5 195q0 127 71.5 203.5t181.5 76.5t175.5 -72t65.5 -199q0 -8 -0.5 -11t-4 -7t-10.5 -4h-383q-9 0 -9 -15zM135 302h304q11 0 14 2.5t3 11.5q0 68 -42 116t-113 48q-76 0 -121.5 -53.5t-44.5 -124.5z" />
    <glyph glyph-name="uni1EBC" unicode="&#x1ebc;" horiz-adv-x="628" 
d="M484 889q-37 -22 -76 -22q-28 0 -66.5 13t-60.5 13q-24 0 -60 -21q-10 -6 -14 5l-10 27q-3 9 4 14q39 30 76 30q25 0 67.5 -14t64.5 -14q26 0 57 20q12 7 16 -5l10 -31q3 -8 -8 -15zM97 728q0 14 12 14h449q10 0 10 -11v-51q0 -12 -13 -12h-349q-13 0 -13 -12v-234
q0 -11 11 -11h259q11 0 11 -11v-53q0 -9 -11 -9h-259q-11 0 -11 -11v-243q0 -10 10 -10h367q11 0 11 -10v-53q0 -11 -11 -11h-459q-14 0 -14 14v714z" />
    <glyph glyph-name="uni1EBD" unicode="&#x1ebd;" horiz-adv-x="581" 
d="M439 677q-37 -22 -76 -22q-28 0 -66.5 13t-60.5 13q-24 0 -60 -21q-10 -6 -14 5l-10 27q-3 9 4 14q39 30 76 30q25 0 67.5 -14t64.5 -14q26 0 57 20q12 7 16 -5l10 -31q3 -8 -8 -15zM133 232q0 -74 51 -126t124 -52q100 0 156 83q7 7 14 3l42 -21q8 -5 2 -14
q-75 -115 -222 -115q-111 0 -182.5 75t-71.5 195q0 127 71.5 203.5t181.5 76.5t175.5 -72t65.5 -199q0 -8 -0.5 -11t-4 -7t-10.5 -4h-383q-9 0 -9 -15zM135 302h304q11 0 14 2.5t3 11.5q0 68 -42 116t-113 48q-76 0 -121.5 -53.5t-44.5 -124.5z" />
    <glyph glyph-name="uni1EBE" unicode="&#x1ebe;" horiz-adv-x="628" 
d="M461 1109l15 -45q4 -13 -10 -18l-229 -69q-12 -3 -16 8l-8 22q-3 11 5 14l232 93q8 4 11 -5zM408 849l-54 50q-8 8 -11 8t-12 -8l-58 -50q-7 -6 -18 -6h-54q-14 0 -2 12l102 91q13 11 25 11h39q7 0 20 -10l101 -92q12 -12 -1 -12h-59q-11 0 -18 6zM97 728q0 14 12 14h449
q10 0 10 -11v-51q0 -12 -13 -12h-349q-13 0 -13 -12v-234q0 -11 11 -11h259q11 0 11 -11v-53q0 -9 -11 -9h-259q-11 0 -11 -11v-243q0 -10 10 -10h367q11 0 11 -10v-53q0 -11 -11 -11h-459q-14 0 -14 14v714z" />
    <glyph glyph-name="uni1EBF" unicode="&#x1ebf;" horiz-adv-x="581" 
d="M416 897l15 -45q4 -13 -10 -18l-229 -69q-12 -3 -16 8l-8 22q-3 11 5 14l232 93q7 4 11 -5zM363 637l-54 50q-8 8 -11 8t-12 -8l-58 -50q-7 -6 -18 -6h-54q-14 0 -2 12l102 91q13 11 25 11h39q8 0 20 -10l101 -92q12 -12 -1 -12h-59q-11 0 -18 6zM133 232q0 -74 51 -126
t124 -52q100 0 156 83q7 7 14 3l42 -21q8 -5 2 -14q-75 -115 -222 -115q-111 0 -182.5 75t-71.5 195q0 127 71.5 203.5t181.5 76.5t175.5 -72t65.5 -199q0 -8 -0.5 -11t-4 -7t-10.5 -4h-383q-9 0 -9 -15zM135 302h304q11 0 14 2.5t3 11.5q0 68 -42 116t-113 48
q-76 0 -121.5 -53.5t-44.5 -124.5z" />
    <glyph glyph-name="uni1EC0" unicode="&#x1ec0;" horiz-adv-x="628" 
d="M231 1107q2 9 11 5l232 -93q8 -4 4 -14l-8 -22q-2 -11 -15 -8l-229 69q-14 5 -10 18zM408 849l-54 50q-8 8 -11 8t-12 -8l-58 -50q-7 -6 -18 -6h-54q-14 0 -2 12l102 91q13 11 25 11h39q7 0 20 -10l101 -92q12 -12 -1 -12h-59q-11 0 -18 6zM97 728q0 14 12 14h449
q10 0 10 -11v-51q0 -12 -13 -12h-349q-13 0 -13 -12v-234q0 -11 11 -11h259q11 0 11 -11v-53q0 -9 -11 -9h-259q-11 0 -11 -11v-243q0 -10 10 -10h367q11 0 11 -10v-53q0 -11 -11 -11h-459q-14 0 -14 14v714z" />
    <glyph glyph-name="uni1EC1" unicode="&#x1ec1;" horiz-adv-x="581" 
d="M186 895q2 9 11 5l232 -93q8 -4 4 -14l-8 -22q-2 -11 -15 -8l-229 69q-14 5 -10 18zM363 637l-54 50q-8 8 -11 8t-12 -8l-58 -50q-7 -6 -18 -6h-54q-14 0 -2 12l102 91q13 11 25 11h39q8 0 20 -10l101 -92q12 -12 -1 -12h-59q-11 0 -18 6zM133 232q0 -74 51 -126t124 -52
q100 0 156 83q7 7 14 3l42 -21q8 -5 2 -14q-75 -115 -222 -115q-111 0 -182.5 75t-71.5 195q0 127 71.5 203.5t181.5 76.5t175.5 -72t65.5 -199q0 -8 -0.5 -11t-4 -7t-10.5 -4h-383q-9 0 -9 -15zM135 302h304q11 0 14 2.5t3 11.5q0 68 -42 116t-113 48q-76 0 -121.5 -53.5
t-44.5 -124.5z" />
    <glyph glyph-name="uni1EC2" unicode="&#x1ec2;" horiz-adv-x="628" 
d="M411 1086q-7 -3 -4 -10l14 -29q3 -7 9 -4q29 19 50 19q40 0 40 -29q0 -21 -45 -63q-6 -4 -2 -10l18 -23q6 -6 10 -2q64 59 64 100q0 33 -23 53.5t-59 20.5q-28 0 -72 -23zM408 849l-54 50q-8 8 -11 8t-12 -8l-58 -50q-7 -6 -18 -6h-54q-14 0 -2 12l102 91q13 11 25 11h39
q7 0 20 -10l101 -92q12 -12 -1 -12h-59q-11 0 -18 6zM97 728q0 14 12 14h449q10 0 10 -11v-51q0 -12 -13 -12h-349q-13 0 -13 -12v-234q0 -11 11 -11h259q11 0 11 -11v-53q0 -9 -11 -9h-259q-11 0 -11 -11v-243q0 -10 10 -10h367q11 0 11 -10v-53q0 -11 -11 -11h-459
q-14 0 -14 14v714z" />
    <glyph glyph-name="uni1EC3" unicode="&#x1ec3;" horiz-adv-x="581" 
d="M366 874q-8 -3 -4 -10l14 -29q3 -7 9 -4q29 19 50 19q40 0 40 -29q0 -21 -45 -63q-6 -4 -2 -10l18 -23q6 -6 10 -2q64 59 64 100q0 33 -23 53.5t-59 20.5q-28 0 -72 -23zM363 637l-54 50q-8 8 -11 8t-12 -8l-58 -50q-7 -6 -18 -6h-54q-14 0 -2 12l102 91q13 11 25 11h39
q8 0 20 -10l101 -92q12 -12 -1 -12h-59q-11 0 -18 6zM133 232q0 -74 51 -126t124 -52q100 0 156 83q7 7 14 3l42 -21q8 -5 2 -14q-75 -115 -222 -115q-111 0 -182.5 75t-71.5 195q0 127 71.5 203.5t181.5 76.5t175.5 -72t65.5 -199q0 -8 -0.5 -11t-4 -7t-10.5 -4h-383
q-9 0 -9 -15zM135 302h304q11 0 14 2.5t3 11.5q0 68 -42 116t-113 48q-76 0 -121.5 -53.5t-44.5 -124.5z" />
    <glyph glyph-name="uni1EC4" unicode="&#x1ec4;" horiz-adv-x="628" 
d="M483 1038q-37 -22 -76 -22q-28 0 -66.5 13t-60.5 13q-24 0 -60 -21q-10 -6 -14 5l-10 27q-3 9 4 14q39 30 76 30q25 0 67.5 -14t64.5 -14q26 0 57 20q12 7 16 -5l10 -31q3 -8 -8 -15zM408 849l-54 50q-8 8 -11 8t-12 -8l-58 -50q-7 -6 -18 -6h-54q-14 0 -2 12l102 91
q13 11 25 11h39q7 0 20 -10l101 -92q12 -12 -1 -12h-59q-11 0 -18 6zM97 728q0 14 12 14h449q10 0 10 -11v-51q0 -12 -13 -12h-349q-13 0 -13 -12v-234q0 -11 11 -11h259q11 0 11 -11v-53q0 -9 -11 -9h-259q-11 0 -11 -11v-243q0 -10 10 -10h367q11 0 11 -10v-53
q0 -11 -11 -11h-459q-14 0 -14 14v714z" />
    <glyph glyph-name="uni1EC5" unicode="&#x1ec5;" horiz-adv-x="581" 
d="M438 826q-37 -22 -76 -22q-28 0 -66.5 13t-60.5 13q-24 0 -60 -21q-10 -6 -14 5l-10 27q-3 9 4 14q39 30 76 30q25 0 67.5 -14t64.5 -14q26 0 57 20q12 7 16 -5l10 -31q3 -8 -8 -15zM363 637l-54 50q-8 8 -11 8t-12 -8l-58 -50q-7 -6 -18 -6h-54q-14 0 -2 12l102 91
q13 11 25 11h39q8 0 20 -10l101 -92q12 -12 -1 -12h-59q-11 0 -18 6zM133 232q0 -74 51 -126t124 -52q100 0 156 83q7 7 14 3l42 -21q8 -5 2 -14q-75 -115 -222 -115q-111 0 -182.5 75t-71.5 195q0 127 71.5 203.5t181.5 76.5t175.5 -72t65.5 -199q0 -8 -0.5 -11t-4 -7
t-10.5 -4h-383q-9 0 -9 -15zM135 302h304q11 0 14 2.5t3 11.5q0 68 -42 116t-113 48q-76 0 -121.5 -53.5t-44.5 -124.5z" />
    <glyph glyph-name="uni1EC6" unicode="&#x1ec6;" horiz-adv-x="628" 
d="M408 849l-54 50q-8 8 -11 8t-12 -8l-58 -50q-7 -6 -18 -6h-54q-14 0 -2 12l102 91q13 11 25 11h39q7 0 20 -10l101 -92q12 -12 -1 -12h-59q-11 0 -18 6zM97 728q0 14 12 14h449q10 0 10 -11v-51q0 -12 -13 -12h-349q-13 0 -13 -12v-234q0 -11 11 -11h259q11 0 11 -11v-53
q0 -9 -11 -9h-259q-11 0 -11 -11v-243q0 -10 10 -10h367q11 0 11 -10v-53q0 -11 -11 -11h-459q-14 0 -14 14v714zM395 -67v-83q0 -9 -3 -12t-12 -3h-50q-13 0 -13 12v85q0 12 10 12h58q10 0 10 -11z" />
    <glyph glyph-name="uni1EC7" unicode="&#x1ec7;" horiz-adv-x="581" 
d="M363 637l-54 50q-8 8 -11 8t-12 -8l-58 -50q-7 -6 -18 -6h-54q-14 0 -2 12l102 91q13 11 25 11h39q8 0 20 -10l101 -92q12 -12 -1 -12h-59q-11 0 -18 6zM133 232q0 -74 51 -126t124 -52q100 0 156 83q7 7 14 3l42 -21q8 -5 2 -14q-75 -115 -222 -115q-111 0 -182.5 75
t-71.5 195q0 127 71.5 203.5t181.5 76.5t175.5 -72t65.5 -199q0 -8 -0.5 -11t-4 -7t-10.5 -4h-383q-9 0 -9 -15zM135 302h304q11 0 14 2.5t3 11.5q0 68 -42 116t-113 48q-76 0 -121.5 -53.5t-44.5 -124.5zM340 -67v-83q0 -9 -3 -12t-12 -3h-50q-13 0 -13 12v85q0 12 10 12
h58q10 0 10 -11z" />
    <glyph glyph-name="uni1EC8" unicode="&#x1ec8;" horiz-adv-x="290" 
d="M60 963q-8 -3 -4 -10l14 -29q3 -7 9 -4q29 19 50 19q40 0 40 -29q0 -21 -45 -63q-6 -4 -2 -10l18 -23q6 -6 10 -2q64 59 64 100q0 33 -23 53.5t-59 20.5q-28 0 -72 -23zM109 742h72q12 0 12 -13v-712q0 -10 -4 -13.5t-14 -3.5h-63q-15 0 -15 14v714q0 14 12 14z" />
    <glyph glyph-name="uni1EC9" unicode="&#x1ec9;" horiz-adv-x="239" 
d="M33 751q-7 -3 -4 -10l14 -29q3 -7 9 -4q29 19 50 19q40 0 40 -29q0 -21 -45 -63q-6 -4 -2 -10l18 -23q6 -6 10 -2q64 59 64 100q0 33 -23 53.5t-59 20.5q-28 0 -72 -23zM161 517v-500q0 -10 -4 -13.5t-14 -3.5h-51q-15 0 -15 14v502q0 14 12 14h61q11 0 11 -13z" />
    <glyph glyph-name="uni1ECA" unicode="&#x1eca;" horiz-adv-x="290" 
d="M109 742h72q12 0 12 -13v-712q0 -10 -4 -13.5t-14 -3.5h-63q-15 0 -15 14v714q0 14 12 14zM184 -67v-83q0 -9 -3 -12t-12 -3h-50q-13 0 -13 12v85q0 12 10 12h58q10 0 10 -11z" />
    <glyph glyph-name="uni1ECB" unicode="&#x1ecb;" horiz-adv-x="239" 
d="M165 727v-83q0 -19 -18 -19h-58q-15 0 -15 17v84q0 16 14 16h63q14 0 14 -15zM161 517v-500q0 -10 -4 -13.5t-14 -3.5h-51q-15 0 -15 14v502q0 14 12 14h61q11 0 11 -13zM160 -67v-83q0 -9 -3 -12t-12 -3h-50q-13 0 -13 12v85q0 12 10 12h58q10 0 10 -11z" />
    <glyph glyph-name="uni1ECC" unicode="&#x1ecc;" horiz-adv-x="764" 
d="M382 -10q-149 0 -233 99t-84 279q0 182 85 283t233 101q147 0 231.5 -100.5t84.5 -282.5q0 -180 -84 -279.5t-233 -99.5zM384 63q215 0 215 305q0 311 -216 311q-218 0 -218 -311q0 -305 219 -305zM423 -67v-83q0 -9 -3 -12t-12 -3h-50q-13 0 -13 12v85q0 12 10 12h58
q10 0 10 -11z" />
    <glyph glyph-name="uni1ECD" unicode="&#x1ecd;" 
d="M299 -10q-113 0 -183 75.5t-70 196.5q0 123 71 200.5t183 77.5q113 0 182.5 -77.5t69.5 -199.5q0 -121 -70 -197t-183 -76zM301 53q78 0 121.5 56.5t43.5 155.5q0 98 -44.5 155.5t-121.5 57.5q-78 0 -123 -57.5t-45 -155.5t45 -155t124 -57zM337 -67v-83q0 -9 -3 -12
t-12 -3h-50q-13 0 -13 12v85q0 12 10 12h58q10 0 10 -11z" />
    <glyph glyph-name="uni1ECE" unicode="&#x1ece;" horiz-adv-x="764" 
d="M296 963q-8 -3 -4 -10l14 -29q3 -7 9 -4q29 19 50 19q40 0 40 -29q0 -21 -45 -63q-6 -4 -2 -10l18 -23q6 -6 10 -2q64 59 64 100q0 33 -23 53.5t-59 20.5q-28 0 -72 -23zM382 -10q-149 0 -233 99t-84 279q0 182 85 283t233 101q147 0 231.5 -100.5t84.5 -282.5
q0 -180 -84 -279.5t-233 -99.5zM384 63q215 0 215 305q0 311 -216 311q-218 0 -218 -311q0 -305 219 -305z" />
    <glyph glyph-name="uni1ECF" unicode="&#x1ecf;" 
d="M214 751q-7 -3 -4 -10l14 -29q3 -7 9 -4q29 19 50 19q40 0 40 -29q0 -21 -45 -63q-6 -4 -2 -10l18 -23q6 -6 10 -2q64 59 64 100q0 33 -23 53.5t-59 20.5q-28 0 -72 -23zM299 -10q-113 0 -183 75.5t-70 196.5q0 123 71 200.5t183 77.5q113 0 182.5 -77.5t69.5 -199.5
q0 -121 -70 -197t-183 -76zM301 53q78 0 121.5 56.5t43.5 155.5q0 98 -44.5 155.5t-121.5 57.5q-78 0 -123 -57.5t-45 -155.5t45 -155t124 -57z" />
    <glyph glyph-name="uni1ED0" unicode="&#x1ed0;" horiz-adv-x="764" 
d="M501 1109l15 -45q4 -13 -10 -18l-229 -69q-12 -3 -16 8l-8 22q-3 11 5 14l232 93q8 4 11 -5zM448 849l-54 50q-8 8 -11 8t-12 -8l-58 -50q-7 -6 -18 -6h-54q-14 0 -2 12l102 91q13 11 25 11h39q7 0 20 -10l101 -92q12 -12 -1 -12h-59q-11 0 -18 6zM382 -10
q-149 0 -233 99t-84 279q0 182 85 283t233 101q147 0 231.5 -100.5t84.5 -282.5q0 -180 -84 -279.5t-233 -99.5zM384 63q215 0 215 305q0 311 -216 311q-218 0 -218 -311q0 -305 219 -305z" />
    <glyph glyph-name="uni1ED1" unicode="&#x1ed1;" 
d="M419 897l15 -45q4 -13 -10 -18l-229 -69q-12 -3 -16 8l-8 22q-3 11 5 14l232 93q8 4 11 -5zM366 637l-54 50q-8 8 -11 8t-12 -8l-58 -50q-7 -6 -18 -6h-54q-14 0 -2 12l102 91q13 11 25 11h39q7 0 20 -10l101 -92q12 -12 -1 -12h-59q-11 0 -18 6zM299 -10
q-113 0 -183 75.5t-70 196.5q0 123 71 200.5t183 77.5q113 0 182.5 -77.5t69.5 -199.5q0 -121 -70 -197t-183 -76zM301 53q78 0 121.5 56.5t43.5 155.5q0 98 -44.5 155.5t-121.5 57.5q-78 0 -123 -57.5t-45 -155.5t45 -155t124 -57z" />
    <glyph glyph-name="uni1ED2" unicode="&#x1ed2;" horiz-adv-x="764" 
d="M271 1107q2 9 11 5l232 -93q8 -4 4 -14l-8 -22q-2 -11 -15 -8l-229 69q-14 5 -10 18zM448 849l-54 50q-8 8 -11 8t-12 -8l-58 -50q-7 -6 -18 -6h-54q-14 0 -2 12l102 91q13 11 25 11h39q7 0 20 -10l101 -92q12 -12 -1 -12h-59q-11 0 -18 6zM382 -10q-149 0 -233 99
t-84 279q0 182 85 283t233 101q147 0 231.5 -100.5t84.5 -282.5q0 -180 -84 -279.5t-233 -99.5zM384 63q215 0 215 305q0 311 -216 311q-218 0 -218 -311q0 -305 219 -305z" />
    <glyph glyph-name="uni1ED3" unicode="&#x1ed3;" 
d="M189 895q2 9 11 5l232 -93q8 -4 4 -14l-8 -22q-2 -11 -15 -8l-229 69q-14 5 -10 18zM366 637l-54 50q-8 8 -11 8t-12 -8l-58 -50q-7 -6 -18 -6h-54q-14 0 -2 12l102 91q13 11 25 11h39q7 0 20 -10l101 -92q12 -12 -1 -12h-59q-11 0 -18 6zM299 -10q-113 0 -183 75.5
t-70 196.5q0 123 71 200.5t183 77.5q113 0 182.5 -77.5t69.5 -199.5q0 -121 -70 -197t-183 -76zM301 53q78 0 121.5 56.5t43.5 155.5q0 98 -44.5 155.5t-121.5 57.5q-78 0 -123 -57.5t-45 -155.5t45 -155t124 -57z" />
    <glyph glyph-name="uni1ED4" unicode="&#x1ed4;" horiz-adv-x="764" 
d="M451 1086q-7 -3 -4 -10l14 -29q3 -7 9 -4q29 19 50 19q40 0 40 -29q0 -21 -45 -63q-6 -4 -2 -10l18 -23q6 -6 10 -2q64 59 64 100q0 33 -23 53.5t-59 20.5q-28 0 -72 -23zM448 849l-54 50q-8 8 -11 8t-12 -8l-58 -50q-7 -6 -18 -6h-54q-14 0 -2 12l102 91q13 11 25 11h39
q7 0 20 -10l101 -92q12 -12 -1 -12h-59q-11 0 -18 6zM382 -10q-149 0 -233 99t-84 279q0 182 85 283t233 101q147 0 231.5 -100.5t84.5 -282.5q0 -180 -84 -279.5t-233 -99.5zM384 63q215 0 215 305q0 311 -216 311q-218 0 -218 -311q0 -305 219 -305z" />
    <glyph glyph-name="uni1ED5" unicode="&#x1ed5;" 
d="M369 874q-7 -3 -4 -10l14 -29q3 -7 9 -4q29 19 50 19q40 0 40 -29q0 -21 -45 -63q-6 -4 -2 -10l18 -23q6 -6 10 -2q64 59 64 100q0 33 -23 53.5t-59 20.5q-28 0 -72 -23zM366 637l-54 50q-8 8 -11 8t-12 -8l-58 -50q-7 -6 -18 -6h-54q-14 0 -2 12l102 91q13 11 25 11h39
q7 0 20 -10l101 -92q12 -12 -1 -12h-59q-11 0 -18 6zM299 -10q-113 0 -183 75.5t-70 196.5q0 123 71 200.5t183 77.5q113 0 182.5 -77.5t69.5 -199.5q0 -121 -70 -197t-183 -76zM301 53q78 0 121.5 56.5t43.5 155.5q0 98 -44.5 155.5t-121.5 57.5q-78 0 -123 -57.5
t-45 -155.5t45 -155t124 -57z" />
    <glyph glyph-name="uni1ED6" unicode="&#x1ed6;" horiz-adv-x="764" 
d="M523 1038q-37 -22 -76 -22q-28 0 -66.5 13t-60.5 13q-24 0 -60 -21q-10 -6 -14 5l-10 27q-3 9 4 14q39 30 76 30q25 0 67.5 -14t64.5 -14q26 0 57 20q12 7 16 -5l10 -31q3 -8 -8 -15zM448 849l-54 50q-8 8 -11 8t-12 -8l-58 -50q-7 -6 -18 -6h-54q-14 0 -2 12l102 91
q13 11 25 11h39q7 0 20 -10l101 -92q12 -12 -1 -12h-59q-11 0 -18 6zM382 -10q-149 0 -233 99t-84 279q0 182 85 283t233 101q147 0 231.5 -100.5t84.5 -282.5q0 -180 -84 -279.5t-233 -99.5zM384 63q215 0 215 305q0 311 -216 311q-218 0 -218 -311q0 -305 219 -305z" />
    <glyph glyph-name="uni1ED7" unicode="&#x1ed7;" 
d="M441 826q-37 -22 -76 -22q-28 0 -66.5 13t-60.5 13q-24 0 -60 -21q-10 -6 -14 5l-10 27q-3 9 4 14q39 30 76 30q25 0 67.5 -14t64.5 -14q26 0 57 20q12 7 16 -5l10 -31q3 -8 -8 -15zM366 637l-54 50q-8 8 -11 8t-12 -8l-58 -50q-7 -6 -18 -6h-54q-14 0 -2 12l102 91
q13 11 25 11h39q7 0 20 -10l101 -92q12 -12 -1 -12h-59q-11 0 -18 6zM299 -10q-113 0 -183 75.5t-70 196.5q0 123 71 200.5t183 77.5q113 0 182.5 -77.5t69.5 -199.5q0 -121 -70 -197t-183 -76zM301 53q78 0 121.5 56.5t43.5 155.5q0 98 -44.5 155.5t-121.5 57.5
q-78 0 -123 -57.5t-45 -155.5t45 -155t124 -57z" />
    <glyph glyph-name="uni1ED8" unicode="&#x1ed8;" horiz-adv-x="764" 
d="M448 849l-54 50q-8 8 -11 8t-12 -8l-58 -50q-7 -6 -18 -6h-54q-14 0 -2 12l102 91q13 11 25 11h39q7 0 20 -10l101 -92q12 -12 -1 -12h-59q-11 0 -18 6zM382 -10q-149 0 -233 99t-84 279q0 182 85 283t233 101q147 0 231.5 -100.5t84.5 -282.5q0 -180 -84 -279.5
t-233 -99.5zM384 63q215 0 215 305q0 311 -216 311q-218 0 -218 -311q0 -305 219 -305zM423 -67v-83q0 -9 -3 -12t-12 -3h-50q-13 0 -13 12v85q0 12 10 12h58q10 0 10 -11z" />
    <glyph glyph-name="uni1ED9" unicode="&#x1ed9;" 
d="M366 637l-54 50q-8 8 -11 8t-12 -8l-58 -50q-7 -6 -18 -6h-54q-14 0 -2 12l102 91q13 11 25 11h39q7 0 20 -10l101 -92q12 -12 -1 -12h-59q-11 0 -18 6zM299 -10q-113 0 -183 75.5t-70 196.5q0 123 71 200.5t183 77.5q113 0 182.5 -77.5t69.5 -199.5q0 -121 -70 -197
t-183 -76zM301 53q78 0 121.5 56.5t43.5 155.5q0 98 -44.5 155.5t-121.5 57.5q-78 0 -123 -57.5t-45 -155.5t45 -155t124 -57zM337 -67v-83q0 -9 -3 -12t-12 -3h-50q-13 0 -13 12v85q0 12 10 12h58q10 0 10 -11z" />
    <glyph glyph-name="uni1EDA" unicode="&#x1eda;" horiz-adv-x="764" 
d="M262 836l-8 22q-3 11 5 14l232 93q7 4 11 -5l15 -45q4 -13 -10 -18l-229 -69q-12 -3 -16 8zM545 711q74 -44 114 -131.5t40 -210.5q0 -180 -84 -279.5t-233 -99.5t-233 99t-84 279q0 182 85 283t233 101q48 0 85 -10q52 3 74 54q3 6 15 6h43q13 0 8 -16q-19 -48 -63 -75z
M384 63q215 0 215 305q0 311 -216 311q-218 0 -218 -311q0 -305 219 -305z" />
    <glyph glyph-name="uni1EDB" unicode="&#x1edb;" 
d="M180 624l-8 22q-3 11 5 14l232 93q7 4 11 -5l15 -45q4 -13 -10 -18l-229 -69q-12 -3 -16 8zM444 497q51 -36 79.5 -97t28.5 -137q0 -121 -70 -197t-183 -76t-183 75.5t-70 196.5q0 123 71 200.5t183 77.5q40 0 73 -10q52 4 71 54q3 6 15 6h43q13 0 8 -16q-21 -50 -66 -77
zM301 53q78 0 121.5 56.5t43.5 155.5q0 98 -44.5 155.5t-121.5 57.5q-78 0 -123 -57.5t-45 -155.5t45 -155t124 -57z" />
    <glyph glyph-name="uni1EDC" unicode="&#x1edc;" horiz-adv-x="764" 
d="M267 895q-14 5 -10 18l15 45q2 9 11 5l232 -93q8 -4 4 -14l-8 -22q-2 -11 -15 -8zM545 711q74 -44 114 -131.5t40 -210.5q0 -180 -84 -279.5t-233 -99.5t-233 99t-84 279q0 182 85 283t233 101q48 0 85 -10q52 3 74 54q3 6 15 6h43q13 0 8 -16q-19 -48 -63 -75zM384 63
q215 0 215 305q0 311 -216 311q-218 0 -218 -311q0 -305 219 -305z" />
    <glyph glyph-name="uni1EDD" unicode="&#x1edd;" 
d="M185 683q-14 5 -10 18l15 45q2 9 11 5l232 -93q8 -4 4 -14l-8 -22q-2 -11 -15 -8zM444 497q51 -36 79.5 -97t28.5 -137q0 -121 -70 -197t-183 -76t-183 75.5t-70 196.5q0 123 71 200.5t183 77.5q40 0 73 -10q52 4 71 54q3 6 15 6h43q13 0 8 -16q-21 -50 -66 -77zM301 53
q78 0 121.5 56.5t43.5 155.5q0 98 -44.5 155.5t-121.5 57.5q-78 0 -123 -57.5t-45 -155.5t45 -155t124 -57z" />
    <glyph glyph-name="uni1EDE" unicode="&#x1ede;" horiz-adv-x="764" 
d="M306 924l-14 29q-4 7 4 10q44 23 72 23q36 0 59 -20.5t23 -53.5q0 -41 -64 -100q-4 -4 -10 2l-18 23q-4 6 2 10q45 42 45 63q0 29 -40 29q-21 0 -50 -19q-6 -3 -9 4zM545 711q74 -44 114 -131.5t40 -210.5q0 -180 -84 -279.5t-233 -99.5t-233 99t-84 279q0 182 85 283
t233 101q48 0 85 -10q52 3 74 54q3 6 15 6h43q13 0 8 -16q-19 -48 -63 -75zM384 63q215 0 215 305q0 311 -216 311q-218 0 -218 -311q0 -305 219 -305z" />
    <glyph glyph-name="uni1EDF" unicode="&#x1edf;" 
d="M224 712l-14 29q-3 7 4 10q44 23 72 23q36 0 59 -20.5t23 -53.5q0 -41 -64 -100q-4 -4 -10 2l-18 23q-4 6 2 10q45 42 45 63q0 29 -40 29q-21 0 -50 -19q-6 -3 -9 4zM444 497q51 -36 79.5 -97t28.5 -137q0 -121 -70 -197t-183 -76t-183 75.5t-70 196.5q0 123 71 200.5
t183 77.5q40 0 73 -10q52 4 71 54q3 6 15 6h43q13 0 8 -16q-21 -50 -66 -77zM301 53q78 0 121.5 56.5t43.5 155.5q0 98 -44.5 155.5t-121.5 57.5q-78 0 -123 -57.5t-45 -155.5t45 -155t124 -57z" />
    <glyph glyph-name="uni1EE0" unicode="&#x1ee0;" horiz-adv-x="764" 
d="M247 877l-10 27q-3 9 4 14q39 30 76 30q25 0 67.5 -14t64.5 -14q26 0 57 20q12 7 16 -5l10 -31q3 -8 -8 -15q-37 -22 -76 -22q-28 0 -66.5 13t-60.5 13q-24 0 -60 -21q-10 -6 -14 5zM545 711q74 -44 114 -131.5t40 -210.5q0 -180 -84 -279.5t-233 -99.5t-233 99t-84 279
q0 182 85 283t233 101q48 0 85 -10q52 3 74 54q3 6 15 6h43q13 0 8 -16q-19 -48 -63 -75zM384 63q215 0 215 305q0 311 -216 311q-218 0 -218 -311q0 -305 219 -305z" />
    <glyph glyph-name="uni1EE1" unicode="&#x1ee1;" 
d="M165 665l-10 27q-3 9 4 14q39 30 76 30q25 0 67.5 -14t64.5 -14q26 0 57 20q12 7 16 -5l10 -31q3 -8 -8 -15q-37 -22 -76 -22q-28 0 -66.5 13t-60.5 13q-24 0 -60 -21q-10 -6 -14 5zM444 497q51 -36 79.5 -97t28.5 -137q0 -121 -70 -197t-183 -76t-183 75.5t-70 196.5
q0 123 71 200.5t183 77.5q40 0 73 -10q52 4 71 54q3 6 15 6h43q13 0 8 -16q-21 -50 -66 -77zM301 53q78 0 121.5 56.5t43.5 155.5q0 98 -44.5 155.5t-121.5 57.5q-78 0 -123 -57.5t-45 -155.5t45 -155t124 -57z" />
    <glyph glyph-name="uni1EE2" unicode="&#x1ee2;" horiz-adv-x="764" 
d="M545 711q74 -44 114 -131.5t40 -210.5q0 -180 -84 -279.5t-233 -99.5t-233 99t-84 279q0 182 85 283t233 101q48 0 85 -10q52 3 74 54q3 6 15 6h43q13 0 8 -16q-19 -48 -63 -75zM384 63q215 0 215 305q0 311 -216 311q-218 0 -218 -311q0 -305 219 -305zM413 -56
q10 0 10 -11v-83q0 -9 -3 -12t-12 -3h-50q-13 0 -13 12v85q0 12 10 12h58z" />
    <glyph glyph-name="uni1EE3" unicode="&#x1ee3;" 
d="M444 497q51 -36 79.5 -97t28.5 -137q0 -121 -70 -197t-183 -76t-183 75.5t-70 196.5q0 123 71 200.5t183 77.5q40 0 73 -10q52 4 71 54q3 6 15 6h43q13 0 8 -16q-21 -50 -66 -77zM301 53q78 0 121.5 56.5t43.5 155.5q0 98 -44.5 155.5t-121.5 57.5q-78 0 -123 -57.5
t-45 -155.5t45 -155t124 -57zM327 -56q10 0 10 -11v-83q0 -9 -3 -12t-12 -3h-50q-13 0 -13 12v85q0 12 10 12h58z" />
    <glyph glyph-name="uni1EE4" unicode="&#x1ee4;" horiz-adv-x="709" 
d="M622 247q0 -257 -267 -257q-139 0 -203 67t-64 207v464q0 14 11 14h72q12 0 12 -13v-486q0 -179 178 -179q180 0 180 182v483q0 13 11 13h59q11 0 11 -12v-483zM394 -67v-83q0 -9 -3 -12t-12 -3h-50q-13 0 -13 12v85q0 12 10 12h58q10 0 10 -11z" />
    <glyph glyph-name="uni1EE5" unicode="&#x1ee5;" horiz-adv-x="579" 
d="M257 56q76 0 161 87v373q0 14 16 14h55q14 0 14 -14l-2 -503q0 -13 -11 -13h-58q-11 0 -11 11v59q0 12 -9 3q-97 -83 -182 -83q-70 0 -115 42t-45 111v372q0 15 15 15h56q13 0 13 -14v-351q0 -50 27.5 -79.5t75.5 -29.5zM316 -67v-83q0 -9 -3 -12t-12 -3h-50
q-13 0 -13 12v85q0 12 10 12h58q10 0 10 -11z" />
    <glyph glyph-name="uni1EE6" unicode="&#x1ee6;" horiz-adv-x="709" 
d="M275 963q-7 -3 -4 -10l14 -29q3 -7 9 -4q29 19 50 19q40 0 40 -29q0 -21 -45 -63q-6 -4 -2 -10l18 -23q6 -6 10 -2q64 59 64 100q0 33 -23 53.5t-59 20.5q-28 0 -72 -23zM622 247q0 -257 -267 -257q-139 0 -203 67t-64 207v464q0 14 11 14h72q12 0 12 -13v-486
q0 -179 178 -179q180 0 180 182v483q0 13 11 13h59q11 0 11 -12v-483z" />
    <glyph glyph-name="uni1EE7" unicode="&#x1ee7;" horiz-adv-x="579" 
d="M190 751q-8 -3 -4 -10l14 -29q3 -7 9 -4q29 19 50 19q40 0 40 -29q0 -21 -45 -63q-6 -4 -2 -10l18 -23q6 -6 10 -2q64 59 64 100q0 33 -23 53.5t-59 20.5q-28 0 -72 -23zM257 56q76 0 161 87v373q0 14 16 14h55q14 0 14 -14l-2 -503q0 -13 -11 -13h-58q-11 0 -11 11v59
q0 12 -9 3q-97 -83 -182 -83q-70 0 -115 42t-45 111v372q0 15 15 15h56q13 0 13 -14v-351q0 -50 27.5 -79.5t75.5 -29.5z" />
    <glyph glyph-name="uni1EE8" unicode="&#x1ee8;" horiz-adv-x="709" 
d="M241 836l-8 22q-3 11 5 14l232 93q8 4 11 -5l15 -45q4 -13 -10 -18l-229 -69q-12 -3 -16 8zM718 802q13 0 8 -16q-30 -72 -104 -93v-446q0 -257 -267 -257q-139 0 -203 67t-64 207v464q0 14 11 14h72q12 0 12 -13v-486q0 -179 178 -179q180 0 180 182v483q0 13 11 13h30
q56 0 78 54q3 6 15 6h43z" />
    <glyph glyph-name="uni1EE9" unicode="&#x1ee9;" horiz-adv-x="579" 
d="M156 624l-8 22q-3 11 5 14l232 93q7 4 11 -5l15 -45q4 -13 -10 -18l-229 -69q-12 -3 -16 8zM600 590q13 0 8 -16q-30 -74 -105 -93l-2 -468q0 -13 -11 -13h-58q-11 0 -11 11v59q0 12 -9 3q-97 -83 -182 -83q-70 0 -115 42t-45 111v372q0 15 15 15h56q13 0 13 -14v-351
q0 -50 27.5 -79.5t75.5 -29.5q76 0 161 87v373q0 14 16 14h30q56 0 78 54q3 6 15 6h43z" />
    <glyph glyph-name="uni1EEA" unicode="&#x1eea;" horiz-adv-x="709" 
d="M246 895q-14 5 -10 18l15 45q2 9 11 5l232 -93q8 -4 4 -14l-8 -22q-2 -11 -15 -8zM718 802q13 0 8 -16q-30 -72 -104 -93v-446q0 -257 -267 -257q-139 0 -203 67t-64 207v464q0 14 11 14h72q12 0 12 -13v-486q0 -179 178 -179q180 0 180 182v483q0 13 11 13h30
q56 0 78 54q3 6 15 6h43z" />
    <glyph glyph-name="uni1EEB" unicode="&#x1eeb;" horiz-adv-x="579" 
d="M161 683q-14 5 -10 18l15 45q2 9 11 5l232 -93q8 -4 4 -14l-8 -22q-2 -11 -15 -8zM600 590q13 0 8 -16q-30 -74 -105 -93l-2 -468q0 -13 -11 -13h-58q-11 0 -11 11v59q0 12 -9 3q-97 -83 -182 -83q-70 0 -115 42t-45 111v372q0 15 15 15h56q13 0 13 -14v-351
q0 -50 27.5 -79.5t75.5 -29.5q76 0 161 87v373q0 14 16 14h30q56 0 78 54q3 6 15 6h43z" />
    <glyph glyph-name="uni1EEC" unicode="&#x1eec;" horiz-adv-x="709" 
d="M285 924l-14 29q-3 7 4 10q44 23 72 23q36 0 59 -20.5t23 -53.5q0 -41 -64 -100q-4 -4 -10 2l-18 23q-4 6 2 10q45 42 45 63q0 29 -40 29q-21 0 -50 -19q-6 -3 -9 4zM718 802q13 0 8 -16q-30 -72 -104 -93v-446q0 -257 -267 -257q-139 0 -203 67t-64 207v464q0 14 11 14
h72q12 0 12 -13v-486q0 -179 178 -179q180 0 180 182v483q0 13 11 13h30q56 0 78 54q3 6 15 6h43z" />
    <glyph glyph-name="uni1EED" unicode="&#x1eed;" horiz-adv-x="579" 
d="M200 712l-14 29q-4 7 4 10q44 23 72 23q36 0 59 -20.5t23 -53.5q0 -41 -64 -100q-4 -4 -10 2l-18 23q-4 6 2 10q45 42 45 63q0 29 -40 29q-21 0 -50 -19q-6 -3 -9 4zM600 590q13 0 8 -16q-30 -74 -105 -93l-2 -468q0 -13 -11 -13h-58q-11 0 -11 11v59q0 12 -9 3
q-97 -83 -182 -83q-70 0 -115 42t-45 111v372q0 15 15 15h56q13 0 13 -14v-351q0 -50 27.5 -79.5t75.5 -29.5q76 0 161 87v373q0 14 16 14h30q56 0 78 54q3 6 15 6h43z" />
    <glyph glyph-name="uni1EEE" unicode="&#x1eee;" horiz-adv-x="709" 
d="M226 877l-10 27q-3 9 4 14q39 30 76 30q25 0 67.5 -14t64.5 -14q26 0 57 20q12 7 16 -5l10 -31q3 -8 -8 -15q-37 -22 -76 -22q-28 0 -66.5 13t-60.5 13q-24 0 -60 -21q-10 -6 -14 5zM718 802q13 0 8 -16q-30 -72 -104 -93v-446q0 -257 -267 -257q-139 0 -203 67t-64 207
v464q0 14 11 14h72q12 0 12 -13v-486q0 -179 178 -179q180 0 180 182v483q0 13 11 13h30q56 0 78 54q3 6 15 6h43z" />
    <glyph glyph-name="uni1EEF" unicode="&#x1eef;" horiz-adv-x="579" 
d="M141 665l-10 27q-3 9 4 14q39 30 76 30q25 0 67.5 -14t64.5 -14q26 0 57 20q12 7 16 -5l10 -31q3 -8 -8 -15q-37 -22 -76 -22q-28 0 -66.5 13t-60.5 13q-24 0 -60 -21q-10 -6 -14 5zM600 590q13 0 8 -16q-30 -74 -105 -93l-2 -468q0 -13 -11 -13h-58q-11 0 -11 11v59
q0 12 -9 3q-97 -83 -182 -83q-70 0 -115 42t-45 111v372q0 15 15 15h56q13 0 13 -14v-351q0 -50 27.5 -79.5t75.5 -29.5q76 0 161 87v373q0 14 16 14h30q56 0 78 54q3 6 15 6h43z" />
    <glyph glyph-name="uni1EF0" unicode="&#x1ef0;" horiz-adv-x="709" 
d="M718 802q13 0 8 -16q-30 -72 -104 -93v-446q0 -257 -267 -257q-139 0 -203 67t-64 207v464q0 14 11 14h72q12 0 12 -13v-486q0 -179 178 -179q180 0 180 182v483q0 13 11 13h30q56 0 78 54q3 6 15 6h43zM384 -56q10 0 10 -11v-83q0 -9 -3 -12t-12 -3h-50q-13 0 -13 12v85
q0 12 10 12h58z" />
    <glyph glyph-name="uni1EF1" unicode="&#x1ef1;" horiz-adv-x="579" 
d="M600 590q13 0 8 -16q-30 -74 -105 -93l-2 -468q0 -13 -11 -13h-58q-11 0 -11 11v59q0 12 -9 3q-97 -83 -182 -83q-70 0 -115 42t-45 111v372q0 15 15 15h56q13 0 13 -14v-351q0 -50 27.5 -79.5t75.5 -29.5q76 0 161 87v373q0 14 16 14h30q56 0 78 54q3 6 15 6h43z
M306 -56q10 0 10 -11v-83q0 -9 -3 -12t-12 -3h-50q-13 0 -13 12v85q0 12 10 12h58z" />
    <glyph glyph-name="Ygrave" unicode="&#x1ef2;" horiz-adv-x="675" 
d="M227 958q2 9 11 5l232 -93q8 -4 4 -14l-8 -22q-2 -11 -15 -8l-229 69q-14 5 -10 18zM624 742q7 0 9.5 -4t-1.5 -10l-238 -398q-6 -10 -6 -33v-280q0 -17 -19 -17h-60q-16 0 -16 15v278q0 14 -8 27l-241 406q-5 7 -2 11.5t13 4.5h72q13 0 21 -12l186 -320q11 -20 22 -2
l185 322q6 12 21 12h62z" />
    <glyph glyph-name="ygrave" unicode="&#x1ef3;" horiz-adv-x="530" 
d="M164 746q2 9 11 5l232 -93q8 -4 4 -14l-8 -22q-2 -11 -15 -8l-229 69q-14 5 -10 18zM106 -165h-26.5t-18 1.5t-13 4t-3.5 7.5v39q0 13 28 13h63q42 0 69.5 49.5t13.5 85.5l-191 478q-6 17 11 17h62q11 0 16 -11l149 -388q9 -21 18 3l147 385q5 11 14 11h47q6 0 9 -4.5
t1 -9.5l-220 -563q-27 -68 -67 -93t-109 -25z" />
    <glyph glyph-name="uni1EF4" unicode="&#x1ef4;" horiz-adv-x="675" 
d="M624 742q7 0 9.5 -4t-1.5 -10l-238 -398q-6 -10 -6 -33v-280q0 -17 -19 -17h-60q-16 0 -16 15v278q0 14 -8 27l-241 406q-5 7 -2 11.5t13 4.5h72q13 0 21 -12l186 -320q11 -20 22 -2l185 322q6 12 21 12h62zM377 -67v-83q0 -9 -3 -12t-12 -3h-50q-13 0 -13 12v85
q0 12 10 12h58q10 0 10 -11z" />
    <glyph glyph-name="uni1EF5" unicode="&#x1ef5;" horiz-adv-x="530" 
d="M106 -165h-26.5t-18 1.5t-13 4t-3.5 7.5v39q0 13 28 13h63q42 0 69.5 49.5t13.5 85.5l-191 478q-6 17 11 17h62q11 0 16 -11l149 -388q9 -21 18 3l147 385q5 11 14 11h47q6 0 9 -4.5t1 -9.5l-220 -563q-27 -68 -67 -93t-109 -25zM400 -67v-83q0 -9 -3 -12t-12 -3h-50
q-13 0 -13 12v85q0 12 10 12h58q10 0 10 -11z" />
    <glyph glyph-name="uni1EF6" unicode="&#x1ef6;" horiz-adv-x="675" 
d="M251 963q-7 -3 -4 -10l14 -29q3 -7 9 -4q29 19 50 19q40 0 40 -29q0 -21 -45 -63q-6 -4 -2 -10l18 -23q6 -6 10 -2q64 59 64 100q0 33 -23 53.5t-59 20.5q-28 0 -72 -23zM624 742q7 0 9.5 -4t-1.5 -10l-238 -398q-6 -10 -6 -33v-280q0 -17 -19 -17h-60q-16 0 -16 15v278
q0 14 -8 27l-241 406q-5 7 -2 11.5t13 4.5h72q13 0 21 -12l186 -320q11 -20 22 -2l185 322q6 12 21 12h62z" />
    <glyph glyph-name="uni1EF7" unicode="&#x1ef7;" horiz-adv-x="530" 
d="M188 751q-8 -3 -4 -10l14 -29q3 -7 9 -4q29 19 50 19q40 0 40 -29q0 -21 -45 -63q-6 -4 -2 -10l18 -23q6 -6 10 -2q64 59 64 100q0 33 -23 53.5t-59 20.5q-28 0 -72 -23zM106 -165h-26.5t-18 1.5t-13 4t-3.5 7.5v39q0 13 28 13h63q42 0 69.5 49.5t13.5 85.5l-191 478
q-6 17 11 17h62q11 0 16 -11l149 -388q9 -21 18 3l147 385q5 11 14 11h47q6 0 9 -4.5t1 -9.5l-220 -563q-27 -68 -67 -93t-109 -25z" />
    <glyph glyph-name="uni1EF8" unicode="&#x1ef8;" horiz-adv-x="675" 
d="M479 889q-37 -22 -76 -22q-28 0 -66.5 13t-60.5 13q-24 0 -60 -21q-10 -6 -14 5l-10 27q-3 9 4 14q39 30 76 30q25 0 67.5 -14t64.5 -14q26 0 57 20q12 7 16 -5l10 -31q3 -8 -8 -15zM624 742q7 0 9.5 -4t-1.5 -10l-238 -398q-6 -10 -6 -33v-280q0 -17 -19 -17h-60
q-16 0 -16 15v278q0 14 -8 27l-241 406q-5 7 -2 11.5t13 4.5h72q13 0 21 -12l186 -320q11 -20 22 -2l185 322q6 12 21 12h62z" />
    <glyph glyph-name="uni1EF9" unicode="&#x1ef9;" horiz-adv-x="530" 
d="M416 677q-37 -22 -76 -22q-28 0 -66.5 13t-60.5 13q-24 0 -60 -21q-10 -6 -14 5l-10 27q-3 9 4 14q39 30 76 30q25 0 67.5 -14t64.5 -14q26 0 57 20q12 7 16 -5l10 -31q3 -8 -8 -15zM106 -165h-26.5t-18 1.5t-13 4t-3.5 7.5v39q0 13 28 13h63q42 0 69.5 49.5t13.5 85.5
l-191 478q-6 17 11 17h62q11 0 16 -11l149 -388q9 -21 18 3l147 385q5 11 14 11h47q6 0 9 -4.5t1 -9.5l-220 -563q-27 -68 -67 -93t-109 -25z" />
    <glyph glyph-name="endash" unicode="&#x2013;" horiz-adv-x="558" 
d="M496 282v-44q0 -14 -16 -14h-405q-13 0 -13 12v44q0 11 9 11l415 1q10 0 10 -10z" />
    <glyph glyph-name="emdash" unicode="&#x2014;" horiz-adv-x="880" 
d="M818 282v-44q0 -14 -16 -14h-727q-13 0 -13 12v44q0 11 9 11l737 1q10 0 10 -10z" />
    <glyph glyph-name="quoteleft" unicode="&#x2018;" horiz-adv-x="222" 
d="M166 742q12 0 8 -11l-44 -95q-7 -18 5 -19h17q12 -1 12 -12v-86q0 -10 -9 -10h-94q-9 0 -9 9v80q0 2 3 8l75 127q6 9 20 9h16z" />
    <glyph glyph-name="quoteright" unicode="&#x2019;" horiz-adv-x="222" 
d="M56 509q-12 0 -8 11l44 95q7 18 -5 19h-17q-12 1 -12 12v86q0 10 9 10h94q9 0 9 -9v-80q0 -2 -3 -8l-75 -127q-6 -9 -20 -9h-16z" />
    <glyph glyph-name="quotesinglbase" unicode="&#x201a;" horiz-adv-x="222" 
d="M56 -125q-12 0 -8 11l44 95q8 18 -5 18l-17 1q-12 1 -12 11v87q0 10 9 10h94q9 0 9 -9v-80q0 -2 -0.5 -3.5t-1.5 -3t-1 -2.5l-75 -126q-5 -9 -20 -9h-16z" />
    </font>
</defs>
</svg>
